<?xml version="1.0" encoding="utf-8"?>
<!-- Generator: Adobe Illustrator 19.2.1, SVG Export Plug-In . SVG Version: 6.00 Build 0)  -->
<svg version="1.1" id="layer" xmlns="http://www.w3.org/2000/svg" xmlns:xlink="http://www.w3.org/1999/xlink" x="0px" y="0px"
	 viewBox="0 0 652 652" style="enable-background:new 0 0 652 652;" xml:space="preserve">
<style type="text/css">
	.st0{fill:#0066B3;}
	.st1{fill:#FFFFFF;}
	.st2{fill:#ED1C24;}
</style>
<g>
	<g>
		<path class="st0" d="M562.4,326.6c0,142.4-116.9,257.8-257.8,257.8c-142.4,0-257.8-115.4-257.8-257.8
			c0-140.9,115.4-257.9,257.8-257.9C445.5,68.8,562.4,185.7,562.4,326.6z"/>
		<path class="st1" d="M307.5,92.8c0,1.5-1.5,1.5-1.5,1.5c-1.5,0-3,0-3-1.5c0-1.5,1.5-1.5,3-1.5C306.1,91.3,307.5,91.3,307.5,92.8z"
			/>
		<path class="st1" d="M322.5,124.3c0,1.5-1.5,3-3,3c-1.5,0-3-1.5-3-3s1.5-3,3-3C321,121.3,322.5,122.8,322.5,124.3z"/>
		<path class="st1" d="M360,176.7c0,1.5-1.5,3-3,3c-1.5,0-3-1.5-3-3c0-1.5,1.5-3,3-3C358.5,173.7,360,175.2,360,176.7z"/>
		<path class="st1" d="M298.6,142.3c0,1.5,0,3-1.5,3c-1.5,0-1.5-1.5-1.5-3s0-1.5,1.5-1.5C298.6,140.8,298.6,140.8,298.6,142.3z"/>
		<path class="st1" d="M321,154.2c0,1.5,0,3-1.5,3c-1.5,0-1.5-1.5-1.5-3c0-1.5,0-1.5,1.5-1.5C321,152.7,321,152.7,321,154.2z"/>
		<path class="st1" d="M292.6,121.3c0,1.5-1.5,3-3,3s-3-1.5-3-3c0-1.5,1.5-3,3-3S292.6,119.8,292.6,121.3z"/>
		<path class="st1" d="M258.1,142.3l-1.5,1.5c-1.5,0-3-1.5-3-1.5c0-1.5,1.5-3,3-3C256.6,139.3,258.1,140.8,258.1,142.3z"/>
		<path class="st1" d="M264.1,146.7l-1.5,1.5c-1.5,0-3-1.5-3-1.5c0-1.5,1.5-3,3-3C262.6,143.8,264.1,145.2,264.1,146.7z"/>
		<path class="st1" d="M270.1,149.7c0,1.5,0,3-1.5,3s-3-1.5-3-3c0,0,1.5-1.5,3-1.5S270.1,149.7,270.1,149.7z"/>
		<path class="st1" d="M261.1,158.7c0,0-1.5,1.5-3,1.5l-1.5-1.5c0-1.5,1.5-3,1.5-3C259.6,155.7,261.1,157.2,261.1,158.7z"/>
		<path class="st1" d="M211.6,193.2c0,0,0,1.5-1.5,1.5c-1.5,0-1.5-1.5-1.5-1.5c0-1.5,0-3,1.5-3C211.6,190.2,211.6,191.7,211.6,193.2
			z"/>
		<path class="st1" d="M220.6,203.7c0,1.5,0,1.5-1.5,1.5c-1.5,0-1.5,0-1.5-1.5c0-1.5,0-3,1.5-3C220.6,200.7,220.6,202.2,220.6,203.7
			z"/>
		<path class="st1" d="M214.6,380.6c0,1.5-1.5,3-3,3c-1.5,0-1.5-1.5-1.5-3s0-1.5,1.5-1.5C213.1,379.1,214.6,379.1,214.6,380.6z"/>
		<path class="st1" d="M216.1,430.1c0,1.5-1.5,3-3,3c-1.5,0-3-1.5-3-3s1.5-3,3-3C214.6,427.1,216.1,428.6,216.1,430.1z"/>
		<path class="st1" d="M187.6,455.6l-1.5,1.5c-1.5,0-3-1.5-3-1.5c0-1.5,1.5-3,3-3C186.1,452.6,187.6,454.1,187.6,455.6z"/>
		<path class="st1" d="M154.6,464.6c0,1.5-1.5,3-3,3s-3-1.5-3-3c0-1.5,1.5-1.5,3-1.5S154.6,463.1,154.6,464.6z"/>
		<path class="st1" d="M147.1,442.1c0,1.5-1.5,3-1.5,3c-1.5,0-3-1.5-3-3c0-1.5,1.5-1.5,3-1.5C145.6,440.6,147.1,440.6,147.1,442.1z"
			/>
		<path class="st1" d="M144.2,457.1c0,1.5-1.5,1.5-3,1.5s-1.5,0-1.5-1.5s0-3,1.5-3S144.2,455.6,144.2,457.1z"/>
		<path class="st1" d="M118.7,445.1c0,1.5-1.5,1.5-1.5,1.5c-1.5,0-3,0-3-1.5c0-1.5,1.5-3,3-3C117.2,442.1,118.7,443.6,118.7,445.1z"
			/>
		<path class="st1" d="M205.6,485.5c0,1.5-1.5,1.5-1.5,1.5c-1.5,0-3,0-3-1.5c0-1.5,1.5-3,3-3C204.1,482.5,205.6,484,205.6,485.5z"/>
		<path class="st1" d="M231.1,466.1c0,1.5,0,3-1.5,3c-1.5,0-3-1.5-3-3c0-1.5,1.5-3,3-3C231.1,463.1,231.1,464.6,231.1,466.1z"/>
		<path class="st1" d="M234.1,490c0,1.5,0,3-1.5,3c-1.5,0-1.5-1.5-1.5-3c0,0,0-1.5,1.5-1.5C234.1,488.5,234.1,490,234.1,490z"/>
		<path class="st1" d="M342,467.6c0,1.5,0,1.5-1.5,1.5s-3,0-3-1.5c0-1.5,1.5-3,3-3S342,466.1,342,467.6z"/>
		<path class="st1" d="M292.6,485.5c0,0-1.5,1.5-3,1.5l-1.5-1.5c0-1.5,1.5-3,1.5-3C291.1,482.5,292.6,484,292.6,485.5z"/>
		<path class="st1" d="M427.5,511c0,0-1.5,1.5-3,1.5L423,511c0-1.5,1.5-3,1.5-3C426,508,427.5,509.5,427.5,511z"/>
		<path class="st1" d="M438,410.6c0,1.5-1.5,3-3,3c-1.5,0-1.5-1.5-1.5-3c0-1.5,0-1.5,1.5-1.5C436.5,409.1,438,409.1,438,410.6z"/>
		<path class="st1" d="M417,425.6c0,1.5,0,1.5-1.5,1.5c-1.5,0-3,0-3-1.5c0-1.5,1.5-3,3-3C417,422.6,417,424.1,417,425.6z"/>
		<path class="st1" d="M438,428.6c0,1.5-1.5,3-3,3c-1.5,0-3-1.5-3-3c0-1.5,1.5-1.5,3-1.5C436.5,427.1,438,427.1,438,428.6z"/>
		<path class="st1" d="M417,454.1c0,1.5,0,3-1.5,3c-1.5,0-3-1.5-3-3c0-1.5,1.5-1.5,3-1.5C417,452.6,417,452.6,417,454.1z"/>
		<path class="st1" d="M469.4,397.1c0,1.5,0,1.5-1.5,1.5c-1.5,0-1.5,0-1.5-1.5c0-1.5,0-1.5,1.5-1.5
			C469.4,395.6,469.4,395.6,469.4,397.1z"/>
		<path class="st1" d="M475.4,409.1c0,1.5-1.5,3-3,3c-1.5,0-3-1.5-3-3c0,0,1.5-1.5,3-1.5C473.9,407.6,475.4,409.1,475.4,409.1z"/>
		<path class="st1" d="M511.4,425.6c0,1.5-1.5,1.5-3,1.5c-1.5,0-3,0-3-1.5c0-1.5,1.5-3,3-3C509.9,422.6,511.4,424.1,511.4,425.6z"/>
		<path class="st1" d="M473.9,452.6c0,0,0,1.5-1.5,1.5c-1.5,0-1.5-1.5-1.5-1.5c0-1.5,0-3,1.5-3C473.9,449.6,473.9,451.1,473.9,452.6
			z"/>
		<path class="st1" d="M497.9,430.1c0,1.5-1.5,1.5-3,1.5c0,0-1.5,0-1.5-1.5s1.5-1.5,1.5-1.5C496.4,428.6,497.9,428.6,497.9,430.1z"
			/>
		<path class="st1" d="M493.4,464.6l-1.5,1.5c-1.5,0-3-1.5-3-1.5c0-1.5,1.5-3,3-3C491.9,461.6,493.4,463.1,493.4,464.6z"/>
		<path class="st1" d="M352.5,118.3c0-1.5,1.5-1.5,3-3c0-4.5,0-4.5,0-4.5c1.5,4.5,1.5,4.5,1.5,4.5c1.5,1.5,3,1.5,3,3
			c6,1.5,6,1.5,6,1.5c-6,1.5-6,1.5-6,1.5s-1.5,1.5-3,1.5c-1.5,6-1.5,6-1.5,6c0-6,0-6,0-6c-1.5,0-3-1.5-3-3c-4.5,0-4.5,0-4.5,0
			C352.5,118.3,352.5,118.3,352.5,118.3z"/>
		<path class="st1" d="M207.1,515.5c1.5-1.5,1.5-3,3-3c1.5-6,1.5-6,1.5-6c1.5,6,1.5,6,1.5,6s1.5,1.5,1.5,3c6,0,6,0,6,0
			c-6,1.5-6,1.5-6,1.5c0,1.5-1.5,1.5-3,3c0,4.5,0,4.5,0,4.5c-1.5-4.5-1.5-4.5-1.5-4.5c-1.5-1.5-1.5-1.5-3-3
			c-4.5-1.5-4.5-1.5-4.5-1.5C207.1,515.5,207.1,515.5,207.1,515.5z"/>
		<path class="st1" d="M473.9,463.1c0,0,1.5-1.5,3-1.5c1.5-6,1.5-6,1.5-6c0,6,0,6,0,6c1.5,0,3,1.5,3,3c6,0,6,0,6,0
			c-6,1.5-6,1.5-6,1.5c0,1.5-1.5,1.5-3,3c0,4.5,0,4.5,0,4.5c-1.5-6-1.5-6-1.5-6c-1.5,0-3,0-3-1.5c-4.5-1.5-4.5-1.5-4.5-1.5
			C473.9,463.1,473.9,463.1,473.9,463.1z"/>
		<path class="st1" d="M494.9,406.1c1.5,0,1.5-1.5,3-1.5c1.5-6,1.5-6,1.5-6c0,6,0,6,0,6c1.5,0,3,1.5,3,3c6,0,6,0,6,0
			c-6,1.5-6,1.5-6,1.5c0,1.5-1.5,1.5-3,3c0,4.5,0,4.5,0,4.5c-1.5-6-1.5-6-1.5-6c-1.5,0-3,0-3-1.5c-4.5-1.5-4.5-1.5-4.5-1.5
			C494.9,406.1,494.9,406.1,494.9,406.1z"/>
		<path class="st1" d="M234.1,196.2c0-1.5,1.5-1.5,3-3c0-4.5,0-4.5,0-4.5c1.5,4.5,1.5,4.5,1.5,4.5c1.5,1.5,1.5,1.5,3,3
			c4.5,1.5,4.5,1.5,4.5,1.5c-6,0-6,0-6,0c0,1.5,0,3-1.5,3c-1.5,6-1.5,6-1.5,6c-1.5-6-1.5-6-1.5-6s-1.5-1.5-1.5-3c-6,0-6,0-6,0
			C234.1,196.2,234.1,196.2,234.1,196.2z"/>
		<path class="st1" d="M216.1,316.2c19.5,33,42,58.5,60,81c15,21,46.5,31.5,36,40.5c-12,10.5-42-37.5-42-37.5
			c-19.5-24-39-49.5-58.5-82.5C216.1,316.2,216.1,316.2,216.1,316.2z"/>
		<path class="st2" d="M15.2,403.1c91.4-60,253.3-98.9,385.3-151.4c100.4-40.5,188.9-90,238.3-158.9
			C515.9,340.1,177.1,311.6,21.2,406.1C15.2,403.1,15.2,403.1,15.2,403.1z"/>
		<path class="st1" d="M229.6,280.2h45l34.5,84l10.5,10.5h-60l10.5-10.5l-3-10.5h-34.5l-3,12l7.5,9h-30l10.5-10.5l21-73.4
			L229.6,280.2z M261.1,338.6l-13.5-33l-10.5,33H261.1z"/>
		<path class="st1" d="M444,280.2h46.5l34.5,84l10.5,10.5h-60l10.5-10.5l-3-10.5h-34.5l-3,12l7.5,9h-30l10.5-10.5l21-73.4L444,280.2
			z M476.9,338.6l-13.5-33l-10.5,33H476.9z"/>
		<path class="st1" d="M166.6,338.6c0-3,0-48,0-48c-9-10.5-9-10.5-9-10.5c31.5,0,31.5,0,31.5,0c-9,10.5-9,10.5-9,10.5
			c0,73.4,0,73.4,0,73.4c10.5,10.5,10.5,10.5,10.5,10.5c-42,0-42,0-42,0c-36-61.5-36-61.5-36-61.5c0,3,0,51,0,51
			c9,10.5,9,10.5,9,10.5c-33,0-33,0-33,0c10.5-10.5,10.5-10.5,10.5-10.5c0-73.4,0-73.4,0-73.4c-9-10.5-9-10.5-9-10.5c42,0,42,0,42,0
			C166.6,338.6,166.6,338.6,166.6,338.6z"/>
		<path class="st1" d="M408,304.2c-1.5-28.5-1.5-28.5-1.5-28.5c-9,6-9,6-9,6c-13.5-4.5-30-4.5-42,1.5c-10.5,4.5-22.5,15-21,30
			c1.5,15,13.5,21,24,25.5c13.5,6,28.5,9,28.5,16.5c0,6-9,9-15,9c-6,0-27-1.5-37.5-13.5c3,30,3,30,3,30c10.5-7.5,10.5-7.5,10.5-7.5
			c13.5,4.5,30,6,45,1.5c15-4.5,30-16.5,21-39c-3-9-13.5-15-19.5-18c-6-1.5-22.5-9-27-10.5c-6-3-6-13.5,7.5-15
			C387,290.7,405,301.2,408,304.2z"/>
		<path class="st2" d="M87.2,548.5C271.6,359.6,547.4,272.7,638.9,92.8C583.4,268.2,288.1,364.1,85.7,557.5
			C87.2,548.5,87.2,548.5,87.2,548.5z"/>
		<path class="st1" d="M211.6,317.7c-1.5-3-4.5-7.5-6-10.5c-49.5-89.9-42-179.9,46.5-140.9c76.4,34.5,148.4,127.4,176.9,194.9
			c13.5,30,49.5,151.4-66,101.9l0,0c109.4,45,90-69,31.5-157.4c-33-49.5-76.4-91.5-103.4-110.9c-91.5-66-146.9-25.5-84,104.9
			c3,6,6,10.5,9,16.5C211.6,317.7,211.6,317.7,211.6,317.7z"/>
	</g>
</g>
</svg>
