<svg width="60" height="60" viewBox="0 0 60 60" fill="none" xmlns="http://www.w3.org/2000/svg">
<path fill-rule="evenodd" clip-rule="evenodd" d="M4 16.2903C4 12.7272 6.88849 9.83868 10.4516 9.83868H49.1613C52.7244 9.83868 55.6129 12.7272 55.6129 16.2903V19.3374H4V16.2903ZM4 22.7424V50.1613C4 52.8336 6.16636 55 8.83871 55H42.742L55.6129 41.0354V22.7424H4Z" fill="#00A82D"/>
<circle cx="13.6774" cy="32.419" r="2.41935" fill="white"/>
<circle cx="29.8065" cy="32.4191" r="2.41935" fill="white"/>
<circle cx="45.9355" cy="32.4191" r="2.41935" fill="white"/>
<circle cx="13.6774" cy="43.7093" r="2.41935" fill="white"/>
<circle cx="29.8065" cy="43.7093" r="2.41935" fill="white"/>
<path fill-rule="evenodd" clip-rule="evenodd" d="M55.6128 40.9574L47.5087 40.9574C44.8363 40.9574 42.6699 43.1238 42.6699 45.7961L42.6699 55L55.6128 40.9574Z" fill="#CADA2A"/>
<mask id="path-8-outside-1" maskUnits="userSpaceOnUse" x="15.8889" y="3" width="7" height="14" fill="black">
<rect fill="white" x="15.8889" y="3" width="7" height="14"/>
<path fill-rule="evenodd" clip-rule="evenodd" d="M21.1147 6.6129C21.1147 5.72212 20.3926 5 19.5018 5C18.611 5 17.8889 5.72212 17.8889 6.6129L17.8889 9.83871L17.8889 13.0645C17.8889 13.9553 18.611 14.6774 19.5018 14.6774C20.3926 14.6774 21.1147 13.9553 21.1147 13.0645L21.1147 9.83871L21.1147 6.6129Z"/>
</mask>
<path fill-rule="evenodd" clip-rule="evenodd" d="M21.1147 6.6129C21.1147 5.72212 20.3926 5 19.5018 5C18.611 5 17.8889 5.72212 17.8889 6.6129L17.8889 9.83871L17.8889 13.0645C17.8889 13.9553 18.611 14.6774 19.5018 14.6774C20.3926 14.6774 21.1147 13.9553 21.1147 13.0645L21.1147 9.83871L21.1147 6.6129Z" fill="#1A1A1A"/>
<path d="M21.1147 6.6129L19.5018 6.6129V6.6129L21.1147 6.6129ZM17.8889 6.6129L19.5018 6.6129L17.8889 6.6129ZM17.8889 9.83871H16.276H17.8889ZM17.8889 13.0645H19.5018H17.8889ZM21.1147 13.0645H22.7276H21.1147ZM21.1147 9.83871H19.5018H21.1147ZM19.5018 6.6129L19.5018 6.6129L22.7276 6.6129C22.7276 4.83134 21.2834 3.3871 19.5018 3.3871V6.6129ZM19.5018 6.6129H19.5018V3.3871C17.7203 3.3871 16.276 4.83134 16.276 6.6129L19.5018 6.6129ZM19.5018 9.83871L19.5018 6.6129L16.276 6.6129L16.276 9.83871H19.5018ZM19.5018 13.0645L19.5018 9.83871H16.276L16.276 13.0645H19.5018ZM19.5018 13.0645L19.5018 13.0645H16.276C16.276 14.8461 17.7203 16.2903 19.5018 16.2903V13.0645ZM19.5018 13.0645L19.5018 13.0645V16.2903C21.2834 16.2903 22.7276 14.8461 22.7276 13.0645H19.5018ZM19.5018 9.83871L19.5018 13.0645H22.7276V9.83871H19.5018ZM19.5018 6.6129L19.5018 9.83871H22.7276V6.6129L19.5018 6.6129Z" fill="white" mask="url(#path-8-outside-1)"/>
<mask id="path-10-outside-2" maskUnits="userSpaceOnUse" x="36.6774" y="3" width="7" height="14" fill="black">
<rect fill="white" x="36.6774" y="3" width="7" height="14"/>
<path fill-rule="evenodd" clip-rule="evenodd" d="M41.9032 6.6129C41.9032 5.72212 41.1811 5 40.2903 5C39.3996 5 38.6774 5.72212 38.6774 6.6129L38.6774 9.83871L38.6774 13.0645C38.6774 13.9553 39.3996 14.6774 40.2903 14.6774C41.1811 14.6774 41.9032 13.9553 41.9032 13.0645L41.9032 9.83871L41.9032 6.6129Z"/>
</mask>
<path fill-rule="evenodd" clip-rule="evenodd" d="M41.9032 6.6129C41.9032 5.72212 41.1811 5 40.2903 5C39.3996 5 38.6774 5.72212 38.6774 6.6129L38.6774 9.83871L38.6774 13.0645C38.6774 13.9553 39.3996 14.6774 40.2903 14.6774C41.1811 14.6774 41.9032 13.9553 41.9032 13.0645L41.9032 9.83871L41.9032 6.6129Z" fill="#1A1A1A"/>
<path d="M41.9032 6.6129L40.2903 6.6129V6.6129L41.9032 6.6129ZM38.6774 6.6129L40.2903 6.6129L38.6774 6.6129ZM38.6774 9.83871H37.0645H38.6774ZM38.6774 13.0645H40.2903H38.6774ZM41.9032 13.0645H43.5161H41.9032ZM41.9032 9.83871H40.2903H41.9032ZM40.2903 6.6129L40.2903 6.6129L43.5161 6.6129C43.5161 4.83134 42.0719 3.3871 40.2903 3.3871V6.6129ZM40.2903 6.6129H40.2903V3.3871C38.5088 3.3871 37.0645 4.83134 37.0645 6.6129L40.2903 6.6129ZM40.2903 9.83871L40.2903 6.6129L37.0645 6.6129L37.0645 9.83871H40.2903ZM40.2903 13.0645L40.2903 9.83871H37.0645L37.0645 13.0645H40.2903ZM40.2903 13.0645L40.2903 13.0645H37.0645C37.0645 14.8461 38.5088 16.2903 40.2903 16.2903V13.0645ZM40.2903 13.0645L40.2903 13.0645V16.2903C42.0719 16.2903 43.5161 14.8461 43.5161 13.0645H40.2903ZM40.2903 9.83871L40.2903 13.0645H43.5161V9.83871H40.2903ZM40.2903 6.6129L40.2903 9.83871H43.5161V6.6129L40.2903 6.6129Z" fill="white" mask="url(#path-10-outside-2)"/>
</svg>
