<svg width="60" height="60" viewBox="0 0 60 60" fill="none" xmlns="http://www.w3.org/2000/svg">
<path fill-rule="evenodd" clip-rule="evenodd" d="M41.4484 14.803C43.4543 14.803 45.0803 16.4291 45.0803 18.4349L45.0803 42.0423C45.0803 44.0481 43.4543 45.6742 41.4484 45.6742H19.0517C17.0458 45.6742 15.4198 44.0481 15.4198 42.0423L15.4198 18.4349C15.4198 16.4291 17.0458 14.803 19.0517 14.803L41.4484 14.803Z" fill="#CADA2A"/>
<mask id="mask0" mask-type="alpha" maskUnits="userSpaceOnUse" x="15" y="14" width="31" height="32">
<path fill-rule="evenodd" clip-rule="evenodd" d="M41.4484 14.803C43.4543 14.803 45.0803 16.4291 45.0803 18.4349L45.0803 42.0423C45.0803 44.0481 43.4543 45.6742 41.4484 45.6742H19.0517C17.0458 45.6742 15.4198 44.0481 15.4198 42.0423L15.4198 18.4349C15.4198 16.4291 17.0458 14.803 19.0517 14.803L41.4484 14.803Z" fill="white"/>
</mask>
<g mask="url(#mask0)">
<g opacity="0.3">
<path fill-rule="evenodd" clip-rule="evenodd" d="M41.9769 14.8156C41.3166 14.8156 40.7815 14.3101 40.7815 13.6865C40.7815 13.0629 41.3166 12.5575 41.9769 12.5575C42.6367 12.5575 43.1724 13.0629 43.1724 13.6865C43.1724 14.3101 42.6367 14.8156 41.9769 14.8156Z" fill="white"/>
<path fill-rule="evenodd" clip-rule="evenodd" d="M32.8871 14.8156C32.2268 14.8156 31.6916 14.3101 31.6916 13.6865C31.6916 13.0629 32.2268 12.5575 32.8871 12.5575C33.5469 12.5575 34.0825 13.0629 34.0825 13.6865C34.0825 14.3101 33.5469 14.8156 32.8871 14.8156Z" fill="white"/>
<path fill-rule="evenodd" clip-rule="evenodd" d="M23.8002 14.8119C23.1399 14.8119 22.6047 14.3065 22.6047 13.6829C22.6047 13.0597 23.1399 12.5543 23.8002 12.5543C24.46 12.5543 24.9956 13.0597 24.9956 13.6829C24.9956 14.3065 24.46 14.8119 23.8002 14.8119Z" fill="white"/>
<path fill-rule="evenodd" clip-rule="evenodd" d="M41.9769 23.4647C41.3166 23.4647 40.7815 22.9593 40.7815 22.3357C40.7815 21.7125 41.3166 21.2071 41.9769 21.2071C42.6367 21.2071 43.1724 21.7125 43.1724 22.3357C43.1724 22.9593 42.6367 23.4647 41.9769 23.4647Z" fill="white"/>
<path fill-rule="evenodd" clip-rule="evenodd" d="M37.4293 19.2297C36.769 19.2297 36.2334 18.7243 36.2334 18.1006C36.2334 17.4775 36.769 16.972 37.4293 16.972C38.0891 16.972 38.6248 17.4775 38.6248 18.1006C38.6248 18.7243 38.0891 19.2297 37.4293 19.2297Z" fill="white"/>
<path fill-rule="evenodd" clip-rule="evenodd" d="M41.9769 32.0433C41.3166 32.0433 40.7815 31.5379 40.7815 30.9143C40.7815 30.2911 41.3166 29.7857 41.9769 29.7857C42.6367 29.7857 43.1724 30.2911 43.1724 30.9143C43.1724 31.5379 42.6367 32.0433 41.9769 32.0433Z" fill="white"/>
<path fill-rule="evenodd" clip-rule="evenodd" d="M37.4293 27.8082C36.769 27.8082 36.2334 27.3028 36.2334 26.6792C36.2334 26.0556 36.769 25.5502 37.4293 25.5502C38.0891 25.5502 38.6248 26.0556 38.6248 26.6792C38.6248 27.3028 38.0891 27.8082 37.4293 27.8082Z" fill="white"/>
<path fill-rule="evenodd" clip-rule="evenodd" d="M41.9769 40.6251C41.3166 40.6251 40.7815 40.1197 40.7815 39.4961C40.7815 38.8725 41.3166 38.3675 41.9769 38.3675C42.6367 38.3675 43.1724 38.8725 43.1724 39.4961C43.1724 40.1197 42.6367 40.6251 41.9769 40.6251Z" fill="white"/>
<path fill-rule="evenodd" clip-rule="evenodd" d="M37.4293 36.3901C36.769 36.3901 36.2334 35.8846 36.2334 35.261C36.2334 34.6374 36.769 34.132 37.4293 34.132C38.0891 34.132 38.6248 34.6374 38.6248 35.261C38.6248 35.8846 38.0891 36.3901 37.4293 36.3901Z" fill="white"/>
<path fill-rule="evenodd" clip-rule="evenodd" d="M32.8871 23.4647C32.2268 23.4647 31.6916 22.9593 31.6916 22.3357C31.6916 21.7125 32.2268 21.2071 32.8871 21.2071C33.5469 21.2071 34.0825 21.7125 34.0825 22.3357C34.0825 22.9593 33.5469 23.4647 32.8871 23.4647Z" fill="white"/>
<path fill-rule="evenodd" clip-rule="evenodd" d="M28.339 19.2297C27.6792 19.2297 27.1435 18.7243 27.1435 18.1006C27.1435 17.4775 27.6792 16.972 28.339 16.972C28.9993 16.972 29.5349 17.4775 29.5349 18.1006C29.5349 18.7243 28.9993 19.2297 28.339 19.2297Z" fill="white"/>
<path fill-rule="evenodd" clip-rule="evenodd" d="M32.8871 32.0433C32.2268 32.0433 31.6916 31.5379 31.6916 30.9143C31.6916 30.2911 32.2268 29.7857 32.8871 29.7857C33.5469 29.7857 34.0825 30.2911 34.0825 30.9143C34.0825 31.5379 33.5469 32.0433 32.8871 32.0433Z" fill="white"/>
<path fill-rule="evenodd" clip-rule="evenodd" d="M28.339 27.8082C27.6792 27.8082 27.1435 27.3028 27.1435 26.6792C27.1435 26.0556 27.6792 25.5502 28.339 25.5502C28.9993 25.5502 29.5349 26.0556 29.5349 26.6792C29.5349 27.3028 28.9993 27.8082 28.339 27.8082Z" fill="white"/>
<path fill-rule="evenodd" clip-rule="evenodd" d="M32.8871 40.6251C32.2268 40.6251 31.6916 40.1197 31.6916 39.4961C31.6916 38.8725 32.2268 38.3675 32.8871 38.3675C33.5469 38.3675 34.0825 38.8725 34.0825 39.4961C34.0825 40.1197 33.5469 40.6251 32.8871 40.6251Z" fill="white"/>
<path fill-rule="evenodd" clip-rule="evenodd" d="M28.339 36.3901C27.6792 36.3901 27.1435 35.8846 27.1435 35.261C27.1435 34.6374 27.6792 34.132 28.339 34.132C28.9993 34.132 29.5349 34.6374 29.5349 35.261C29.5349 35.8846 28.9993 36.3901 28.339 36.3901Z" fill="white"/>
<path fill-rule="evenodd" clip-rule="evenodd" d="M23.8002 23.4613C23.1399 23.4613 22.6047 22.9559 22.6047 22.3323C22.6047 21.7087 23.1399 21.2032 23.8002 21.2032C24.46 21.2032 24.9956 21.7087 24.9956 22.3323C24.9956 22.9559 24.46 23.4613 23.8002 23.4613Z" fill="white"/>
<path fill-rule="evenodd" clip-rule="evenodd" d="M19.2528 19.2262C18.593 19.2262 18.0574 18.7208 18.0574 18.0972C18.0574 17.4736 18.593 16.9681 19.2528 16.9681C19.9131 16.9681 20.4487 17.4736 20.4487 18.0972C20.4487 18.7208 19.9131 19.2262 19.2528 19.2262Z" fill="white"/>
<path fill-rule="evenodd" clip-rule="evenodd" d="M23.8002 32.0398C23.1399 32.0398 22.6047 31.5344 22.6047 30.9107C22.6047 30.2871 23.1399 29.7817 23.8002 29.7817C24.46 29.7817 24.9956 30.2871 24.9956 30.9107C24.9956 31.5344 24.46 32.0398 23.8002 32.0398Z" fill="white"/>
<path fill-rule="evenodd" clip-rule="evenodd" d="M19.2528 27.8046C18.593 27.8046 18.0574 27.2992 18.0574 26.6756C18.0574 26.0524 18.593 25.547 19.2528 25.547C19.9131 25.547 20.4487 26.0524 20.4487 26.6756C20.4487 27.2992 19.9131 27.8046 19.2528 27.8046Z" fill="white"/>
<path fill-rule="evenodd" clip-rule="evenodd" d="M23.8002 40.6216C23.1399 40.6216 22.6047 40.1162 22.6047 39.4926C22.6047 38.8689 23.1399 38.3635 23.8002 38.3635C24.46 38.3635 24.9956 38.8689 24.9956 39.4926C24.9956 40.1162 24.46 40.6216 23.8002 40.6216Z" fill="white"/>
<path fill-rule="evenodd" clip-rule="evenodd" d="M19.2528 36.3866C18.593 36.3866 18.0574 35.8812 18.0574 35.2571C18.0574 34.634 18.593 34.1285 19.2528 34.1285C19.9131 34.1285 20.4487 34.634 20.4487 35.2571C20.4487 35.8812 19.9131 36.3866 19.2528 36.3866Z" fill="white"/>
<path fill-rule="evenodd" clip-rule="evenodd" d="M37.4293 45.0392C36.769 45.0392 36.2334 44.5338 36.2334 43.9102C36.2334 43.2866 36.769 42.7816 37.4293 42.7816C38.0891 42.7816 38.6248 43.2866 38.6248 43.9102C38.6248 44.5338 38.0891 45.0392 37.4293 45.0392Z" fill="white"/>
<path fill-rule="evenodd" clip-rule="evenodd" d="M28.339 45.0392C27.6792 45.0392 27.1435 44.5338 27.1435 43.9102C27.1435 43.2866 27.6792 42.7816 28.339 42.7816C28.9993 42.7816 29.5349 43.2866 29.5349 43.9102C29.5349 44.5338 28.9993 45.0392 28.339 45.0392Z" fill="white"/>
<path fill-rule="evenodd" clip-rule="evenodd" d="M19.2528 45.0358C18.593 45.0358 18.0574 44.5304 18.0574 43.9067C18.0574 43.2831 18.593 42.7781 19.2528 42.7781C19.9131 42.7781 20.4487 43.2831 20.4487 43.9067C20.4487 44.5304 19.9131 45.0358 19.2528 45.0358Z" fill="white"/>
<path fill-rule="evenodd" clip-rule="evenodd" d="M14.5538 14.8156C13.894 14.8156 13.3584 14.3101 13.3584 13.6865C13.3584 13.0629 13.894 12.5575 14.5538 12.5575C15.2141 12.5575 15.7498 13.0629 15.7498 13.6865C15.7498 14.3101 15.2141 14.8156 14.5538 14.8156Z" fill="white"/>
<path fill-rule="evenodd" clip-rule="evenodd" d="M14.5538 23.4647C13.894 23.4647 13.3584 22.9593 13.3584 22.3357C13.3584 21.7125 13.894 21.2071 14.5538 21.2071C15.2141 21.2071 15.7498 21.7125 15.7498 22.3357C15.7498 22.9593 15.2141 23.4647 14.5538 23.4647Z" fill="white"/>
<path fill-rule="evenodd" clip-rule="evenodd" d="M14.5538 32.0433C13.894 32.0433 13.3584 31.5379 13.3584 30.9143C13.3584 30.2911 13.894 29.7857 14.5538 29.7857C15.2141 29.7857 15.7498 30.2911 15.7498 30.9143C15.7498 31.5379 15.2141 32.0433 14.5538 32.0433Z" fill="white"/>
<path fill-rule="evenodd" clip-rule="evenodd" d="M14.5538 40.6251C13.894 40.6251 13.3584 40.1197 13.3584 39.4961C13.3584 38.8725 13.894 38.3675 14.5538 38.3675C15.2141 38.3675 15.7498 38.8725 15.7498 39.4961C15.7498 40.1197 15.2141 40.6251 14.5538 40.6251Z" fill="white"/>
</g>
</g>
<path d="M9.73722 9.86625V20.2535C9.73722 21.4236 8.78869 22.3722 7.61861 22.3722C6.44853 22.3722 5.5 21.4236 5.5 20.2535V7.74764C5.5 6.57756 6.44853 5.62903 7.61861 5.62903H20.9618C22.1319 5.62903 23.0805 6.57756 23.0805 7.74764C23.0805 8.91771 22.1319 9.86625 20.9618 9.86625H9.73722Z" fill="#00A82D"/>
<path d="M9.73722 50.7416V40.3543C9.73722 39.1842 8.78869 38.2357 7.61861 38.2357C6.44853 38.2357 5.5 39.1842 5.5 40.3543V52.8602C5.5 54.0303 6.44853 54.9788 7.61861 54.9788H20.9618C22.1319 54.9788 23.0805 54.0303 23.0805 52.8602C23.0805 51.6901 22.1319 50.7416 20.9618 50.7416H9.73722Z" fill="#00A82D"/>
<path d="M50.7628 9.86625V20.2535C50.7628 21.4236 51.7113 22.3722 52.8814 22.3722C54.0515 22.3722 55 21.4236 55 20.2535V7.74764C55 6.57756 54.0515 5.62903 52.8814 5.62903H39.5381C38.3681 5.62903 37.4195 6.57756 37.4195 7.74764C37.4195 8.91771 38.3681 9.86625 39.5381 9.86625H50.7628Z" fill="#00A82D"/>
<path d="M50.7628 40.3543C50.7628 39.1842 51.7113 38.2357 52.8814 38.2357C54.0515 38.2357 55 39.1842 55 40.3543V52.8602C55 54.0303 54.0515 54.9788 52.8814 54.9788H39.5381C38.3681 54.9788 37.4195 54.0303 37.4195 52.8602C37.4195 51.6901 38.3681 50.7416 39.5381 50.7416H50.7628V40.3543Z" fill="#00A82D"/>
<rect x="20.8676" y="21.4615" width="18.7648" height="2.42127" rx="1.21063" fill="white"/>
<rect x="20.8674" y="28.7253" width="18.7648" height="2.42127" rx="1.21063" fill="white"/>
<rect x="20.8674" y="36.5944" width="8.93563" height="2.42127" rx="1.21063" fill="white"/>
</svg>
