<svg xmlns="http://www.w3.org/2000/svg" width="178" height="40" viewBox="0 0 178 40">
  <g fill="none" transform="translate(.078)">
    <g fill="#000000" transform="translate(42.788 6.452)">
      <path d="M.259323367 21.1935484L1.36144768 20.9677419C2.33391031 20.7096774 2.59323367 20.5806452 2.59323367 18.6451613L2.59323367 3.4516129C2.59323367 1.51612903 2.30149489 1.35483871 1.36144768 1.12903226L.259323367.903225806.259323367 0 17.8284815 0 18.1526357 6.41935484 17.1477577 6.41935484C16.3373721 4.64516129 15.8187254 3.70967742 15.3324941 3 14.2952006 1.51612903 13.6144768 1.38709677 11.3778127 1.38709677 9.72462628 1.38709677 8.91424076 1.58064516 8.42800944 1.70967742L8.42800944 9.93548387 9.30322581 9.93548387C11.5723053 9.93548387 12.090952 9.67741935 12.4799371 8.96774194 12.933753 8.16129032 13.1930763 7.5483871 13.4848151 6.51612903L14.4572777 6.51612903 14.4572777 14.8387097 13.4848151 14.8387097C13.1930763 13.8387097 12.933753 13.1935484 12.4799371 12.2580645 12.090952 11.4516129 11.6695515 11.2903226 9.30322581 11.2903226L8.42800944 11.2903226 8.42800944 17.483871C8.42800944 20.3548387 8.5252557 20.6774194 11.6695515 20.6774194 14.2627852 20.6774194 14.7814319 20.3548387 15.8511408 18.7741935 16.4346184 17.9032258 17.0505114 16.5483871 17.8933124 14.516129L18.9306058 14.516129 18.4767899 22.0967742.291738788 22.0967742.259323367 21.1935484zM21.6535012 9.09677419C20.9079465 7.29032258 20.5513769 6.83870968 19.7409913 6.58064516L19.1250983 6.38709677 19.1250983 5.5483871 28.7524784 5.5483871 28.7524784 6.38709677 27.877262 6.61290323C27.1965382 6.80645161 26.8723839 7.12903226 26.8723839 7.90322581 26.8723839 8.35483871 27.0344611 8.90322581 27.2937844 9.61290323L29.9842644 16.9677419 30.1463415 16.9677419 32.7395751 9.61290323C33.0313139 8.83870968 33.1609756 8.29032258 33.1609756 7.83870968 33.1609756 7.12903226 32.8368214 6.77419355 32.1560976 6.61290323L31.2808812 6.38709677 31.2808812 5.5483871 37.2129032 5.5483871 37.2129032 6.38709677 36.5970102 6.58064516C35.7542093 6.87096774 35.3976397 7.35483871 34.6196696 9.4516129L29.6601101 22.0967742 26.9372148 22.0967742 21.6535012 9.09677419zM36.4673485 13.7419355C36.4673485 8.19354839 40.584107 5.12903226 44.8305271 5.12903226 49.2390244 5.12903226 51.9943352 7.32258065 52.0915814 13.0967742L41.4917388 13.0967742C41.5889851 18.3225806 43.5663257 19.7419355 46.8726987 19.7419355 48.8500393 19.7419355 50.3735641 19.1612903 51.5729347 18.5483871L51.5729347 19.6129032C50.438395 20.8387097 48.0072384 22.516129 44.7981117 22.516129 39.2226593 22.4516129 36.4673485 19.1612903 36.4673485 13.7419355zM41.4917388 11.8709677L46.9699449 11.5806452C46.9699449 7.74193548 46.4512982 6.32258065 44.5387884 6.32258065 42.9180173 6.32258065 41.6214005 7.87096774 41.4917388 11.8709677zM60.5195909 7.58064516C61.4272227 6.61290323 63.2749017 5.03225806 65.4143194 5.03225806 66.7757671 5.03225806 67.9103068 6.12903226 67.9103068 7.51612903 67.9103068 8.90322581 66.8081825 10 65.4143194 10 64.4094414 10 63.5018096 9.38709677 63.14524 8.51612903 62.9507474 8.16129032 62.529347 8.06451613 62.2376082 8.06451613 61.6541306 8.06451613 60.9734068 8.48387097 60.5520063 8.87096774L60.5520063 19.1935484C60.5520063 20.6774194 60.681668 20.8387097 61.6541306 21L62.7238395 21.2258065 62.7238395 22.0967742 53.4854445 22.0967742 53.4854445 21.2258065 54.3282455 21C55.3979544 20.7096774 55.5276161 20.5483871 55.5276161 19.1935484L55.5276161 9.29032258C55.5276161 7.93548387 55.3655389 7.83870968 54.4579072 7.22580645L53.3881983 6.51612903 53.3881983 5.87096774 60.1306058 5.09677419 60.4871755 5.35483871 60.4223446 7.5483871 60.5195909 7.58064516M68.8827695 21.2258065L69.7255704 21C70.7952793 20.7096774 70.924941 20.5483871 70.924941 19.1935484L70.924941 9.29032258C70.924941 7.93548387 70.7628639 7.83870968 69.8552321 7.22580645L68.7855232 6.51612903 68.7855232 5.87096774 75.5279308 5.09677419 75.8845004 5.32258065 75.8196696 7.35483871 75.9493312 7.35483871C77.6349331 6.16129032 79.7419355 5.09677419 82.0758458 5.09677419 84.7987411 5.09677419 86.2574351 6.48387097 86.2574351 9.35483871L86.2574351 19.1612903C86.2574351 20.5483871 86.3870968 20.7096774 87.4243902 20.9677419L88.2671912 21.1935484 88.2671912 22.0645161 79.3529504 22.0645161 79.3529504 21.1935484 80.1309205 21C81.1033832 20.7419355 81.2006294 20.6451613 81.2006294 19.1612903L81.2006294 10.6129032C81.2006294 8.67741935 80.4874902 8.06451613 78.9963808 8.06451613 77.8618411 8.06451613 76.7273013 8.32258065 76.0141621 8.48387097L76.0141621 19.1935484C76.0141621 20.7096774 76.1114083 20.7741935 77.083871 21.0322581L77.8618411 21.2258065 77.8618411 22.0967742 68.9476003 22.0967742 68.9476003 21.2258065 68.8827695 21.2258065zM88.8830842 13.8387097C88.8830842 7.74193548 93.2267506 5.12903226 97.5380016 5.12903226 102.173407 5.12903226 106.225334 7.90322581 106.225334 13.6774194 106.225334 19.7741935 101.946499 22.4516129 97.5380016 22.4516129 92.9025964 22.4516129 88.8830842 19.6774194 88.8830842 13.8387097zM100.844375 14C100.844375 7.58064516 99.6125885 6.35483871 97.4083399 6.35483871 95.3985838 6.35483871 94.1992132 7.80645161 94.1992132 13.2903226 94.1992132 19.8064516 95.2689221 21.2258065 97.6028324 21.2258065 99.5153423 21.2258065 100.844375 20.0967742 100.844375 14zM108.980645 18.0645161L108.980645 7.41935484 106.970889 7.41935484 106.970889 6.64516129C109.466876 5.67741935 111.379386 3.83870968 112.287018 1.29032258L114.102282 1.29032258 114.102282 5.5483871 118.348702 5.5483871 117.927301 7.41935484 114.102282 7.41935484 114.102282 17.7419355C114.102282 19.3225806 114.588513 19.9677419 116.176869 19.9677419 116.954839 19.9677419 117.894886 19.8064516 118.478363 19.6774194L118.478363 20.5806452C117.700393 21.2903226 116.112038 22.4516129 113.421558 22.4516129 110.536585 22.4516129 108.980645 21.1935484 108.980645 18.0645161zM119.126672 13.7419355C119.126672 8.19354839 123.24343 5.12903226 127.489851 5.12903226 131.898348 5.12903226 134.653659 7.32258065 134.750905 13.0967742L124.183478 13.0967742C124.280724 18.3225806 126.258065 19.7419355 129.564437 19.7419355 131.541778 19.7419355 133.065303 19.1612903 134.264673 18.5483871L134.264673 19.6129032C133.130134 20.8387097 130.698977 22.516129 127.489851 22.516129 121.881983 22.4516129 119.126672 19.1612903 119.126672 13.7419355zM124.151062 11.8709677L129.629268 11.5806452C129.629268 7.74193548 129.110622 6.32258065 127.198112 6.32258065 125.577341 6.32258065 124.280724 7.87096774 124.151062 11.8709677z"/>
    </g>
    <path fill="#00A82D" d="M10.5674272,8.93548387 C10.5674272,9.32258065 10.5350118,9.96774194 10.1460268,10.3870968 C9.72462628,10.7741935 9.07631786,10.8064516 8.68733281,10.8064516 L4.53815893,10.8064516 C3.33878836,10.8064516 2.6256491,10.8064516 2.13941778,10.8709677 C1.88009441,10.9032258 1.5559402,11.0322581 1.3938631,11.0967742 C1.32903226,11.1290323 1.32903226,11.0967742 1.36144768,11.0645161 L10.8267506,1.48387097 C10.859166,1.4516129 10.8915814,1.4516129 10.859166,1.51612903 C10.7943352,1.67741935 10.6646735,2 10.6322581,2.25806452 C10.5674272,2.74193548 10.5674272,3.4516129 10.5674272,4.64516129 L10.5674272,8.93548387 Z M19.3844217,37.9032258 C18.2822974,37.1935484 17.6988198,36.2580645 17.4719119,35.6774194 C17.2450039,35.1290323 17.1153423,34.516129 17.1153423,33.9032258 C17.1153423,31.2258065 19.3195909,29.0322581 22.0424862,29.0322581 C22.8528718,29.0322581 23.5011802,29.6774194 23.5011802,30.483871 C23.5011802,31.0322581 23.2094414,31.483871 22.7556255,31.7419355 C22.5935484,31.8387097 22.3666404,31.9032258 22.2045633,31.9354839 C22.0424862,31.9677419 21.4265932,32.0322581 21.1348544,32.2903226 C20.8107002,32.5483871 20.5513769,32.9677419 20.5513769,33.4193548 C20.5513769,33.9032258 20.7458694,34.3548387 21.0700236,34.6774194 C21.6535012,35.2580645 22.4314713,35.5806452 23.2742722,35.5806452 C25.4785208,35.5806452 27.261369,33.8064516 27.261369,31.6129032 C27.261369,29.6451613 25.9323367,27.9032258 24.181904,27.1290323 C23.9225806,27 23.5011802,26.9032258 23.1121951,26.8064516 C22.6259638,26.7096774 22.1721479,26.6451613 22.1397325,26.6451613 C20.7782848,26.483871 17.3746656,25.4193548 17.1477577,22.4193548 C17.1477577,22.4193548 16.1428796,26.9354839 14.1331235,28.1612903 C13.938631,28.2580645 13.6793076,28.3548387 13.3875688,28.4193548 C13.0958301,28.483871 12.7716758,28.516129 12.6744296,28.516129 C9.40047207,28.7096774 5.93202203,27.6774194 3.53328088,25.2258065 C3.53328088,25.2258065 1.91250983,23.9032258 1.06970889,20.1935484 C0.875216365,19.2903226 0.486231314,17.6774194 0.259323367,16.1612903 C0.162077105,15.6129032 0.129661684,15.1935484 0.0972462628,14.8064516 C0.0972462628,13.2258065 1.06970889,12.1612903 2.30149489,12 C2.33391031,12 2.43115657,12 2.49598741,12 C3.24154209,12 8.91424076,12 8.91424076,12 C10.0487805,12 10.6970889,11.7096774 11.1184894,11.3225806 C11.6695515,10.8064516 11.7992132,10.0645161 11.7992132,9.19354839 C11.7992132,9.19354839 11.7992132,3.32258065 11.7992132,2.58064516 C11.7992132,2.5483871 11.7992132,2.41935484 11.7992132,2.38709677 C11.9612903,1.19354839 13.0309992,0.193548387 14.6193548,0.193548387 C14.6193548,0.193548387 15.1055862,0.193548387 15.3973249,0.193548387 C15.7214792,0.193548387 16.1104642,0.225806452 16.4670338,0.258064516 C16.7263572,0.290322581 16.9532651,0.35483871 17.3422502,0.451612903 C19.3195909,0.935483871 19.7409913,2.93548387 19.7409913,2.93548387 C19.7409913,2.93548387 23.4687648,3.58064516 25.3488592,3.90322581 C27.1317073,4.22580645 31.5402046,4.51612903 32.3830055,8.93548387 C34.3603462,19.4516129 33.1609756,29.6451613 33.0637293,29.6451613 C31.6698662,39.5806452 23.3715185,39.0967742 23.3715185,39.0967742 C21.5886703,39.0967742 20.2596381,38.516129 19.3844217,37.9032258 Z M26.8399685,16.7741935 C25.7702596,16.6774194 24.8626279,17.0967742 24.5384736,17.9032258 C24.4736428,18.0645161 24.408812,18.2580645 24.4412274,18.3548387 C24.4736428,18.4516129 24.5384736,18.483871 24.6033045,18.516129 C24.9922895,18.7096774 25.640598,18.8064516 26.5806452,18.9032258 C27.5206924,19 28.1690008,19.0645161 28.5904013,19 C28.6552321,19 28.7200629,18.9677419 28.7848938,18.8709677 C28.8497246,18.7741935 28.8173092,18.5806452 28.8173092,18.4193548 C28.6876475,17.516129 27.9096774,16.9032258 26.8399685,16.7741935 Z"/>
  </g>
</svg>
