<svg width="33" height="24" viewBox="0 0 33 24" fill="none" xmlns="http://www.w3.org/2000/svg">
<path d="M20.242 14.9893C20.242 10.6619 21.2811 7.27402 23.3594 4.82562C25.4662 2.37722 28.4128 0.768683 32.1993 0V4.44128C29.3238 5.32384 27.3879 6.91815 26.3915 9.2242C25.8221 10.4484 25.5943 11.6299 25.7082 12.7687H32.4128V24H20.242V14.9893ZM0 14.9893C0 10.7189 1.01068 7.3452 3.03203 4.86833C5.08185 2.39146 8.05694 0.768683 11.9573 0V4.44128C9.05338 5.35231 7.1032 6.91815 6.10676 9.13879C5.59431 10.3061 5.38078 11.516 5.46619 12.7687H12.1708V24H0V14.9893Z" fill="#00A82D"/>
</svg>
