<svg xmlns="http://www.w3.org/2000/svg" width="177" height="40" viewBox="0 0 177 40">
  <g fill="none">
    <g fill="#000000" transform="translate(42.58 6.452)">
      <path d="M.258064516 21.1935484L1.35483871 20.9677419C2.32258065 20.7096774 2.58064516 20.5806452 2.58064516 18.6451613L2.58064516 3.4516129C2.58064516 1.51612903 2.29032258 1.35483871 1.35483871 1.12903226L.258064516.903225806.258064516 0 17.7419355 0 18.0645161 6.41935484 17.0645161 6.41935484C16.2580645 4.64516129 15.7419355 3.70967742 15.2580645 3 14.2258065 1.51612903 13.5483871 1.38709677 11.3225806 1.38709677 9.67741935 1.38709677 8.87096774 1.58064516 8.38709677 1.70967742L8.38709677 9.93548387 9.25806452 9.93548387C11.516129 9.93548387 12.0322581 9.67741935 12.4193548 8.96774194 12.8709677 8.16129032 13.1290323 7.5483871 13.4193548 6.51612903L14.3870968 6.51612903 14.3870968 14.8387097 13.4193548 14.8387097C13.1290323 13.8387097 12.8709677 13.1935484 12.4193548 12.2580645 12.0322581 11.4516129 11.6129032 11.2903226 9.25806452 11.2903226L8.38709677 11.2903226 8.38709677 17.483871C8.38709677 20.3548387 8.48387097 20.6774194 11.6129032 20.6774194 14.1935484 20.6774194 14.7096774 20.3548387 15.7741935 18.7741935 16.3548387 17.9032258 16.9677419 16.5483871 17.8064516 14.516129L18.8387097 14.516129 18.3870968 22.0967742.290322581 22.0967742.258064516 21.1935484zM21.5483871 9.09677419C20.8064516 7.29032258 20.4516129 6.83870968 19.6451613 6.58064516L19.0322581 6.38709677 19.0322581 5.5483871 28.6129032 5.5483871 28.6129032 6.38709677 27.7419355 6.61290323C27.0645161 6.80645161 26.7419355 7.12903226 26.7419355 7.90322581 26.7419355 8.35483871 26.9032258 8.90322581 27.1612903 9.61290323L29.8387097 16.9677419 30 16.9677419 32.5806452 9.61290323C32.8709677 8.83870968 33 8.29032258 33 7.83870968 33 7.12903226 32.6774194 6.77419355 32 6.61290323L31.1290323 6.38709677 31.1290323 5.5483871 37.0322581 5.5483871 37.0322581 6.38709677 36.4193548 6.58064516C35.5806452 6.87096774 35.2258065 7.35483871 34.4516129 9.4516129L29.516129 22.0967742 26.8064516 22.0967742 21.5483871 9.09677419zM36.2903226 13.7419355C36.2903226 8.19354839 40.3870968 5.12903226 44.6129032 5.12903226 49 5.12903226 51.7419355 7.32258065 51.8387097 13.0967742L41.2903226 13.0967742C41.3870968 18.3225806 43.3548387 19.7419355 46.6451613 19.7419355 48.6129032 19.7419355 50.1290323 19.1612903 51.3225806 18.5483871L51.3225806 19.6129032C50.1935484 20.8387097 47.7741935 22.516129 44.5806452 22.516129 39.0322581 22.4516129 36.2903226 19.1612903 36.2903226 13.7419355zM41.2903226 11.8709677L46.7419355 11.5806452C46.7419355 7.74193548 46.2258065 6.32258065 44.3225806 6.32258065 42.7096774 6.32258065 41.4193548 7.87096774 41.2903226 11.8709677zM60.2258065 7.58064516C61.1290323 6.61290323 62.9677419 5.03225806 65.0967742 5.03225806 66.4516129 5.03225806 67.5806452 6.12903226 67.5806452 7.51612903 67.5806452 8.90322581 66.483871 10 65.0967742 10 64.0967742 10 63.1935484 9.38709677 62.8387097 8.51612903 62.6451613 8.16129032 62.2258065 8.06451613 61.9354839 8.06451613 61.3548387 8.06451613 60.6774194 8.48387097 60.2580645 8.87096774L60.2580645 19.1935484C60.2580645 20.6774194 60.3870968 20.8387097 61.3548387 21L62.4193548 21.2258065 62.4193548 22.0967742 53.2258065 22.0967742 53.2258065 21.2258065 54.0645161 21C55.1290323 20.7096774 55.2580645 20.5483871 55.2580645 19.1935484L55.2580645 9.29032258C55.2580645 7.93548387 55.0967742 7.83870968 54.1935484 7.22580645L53.1290323 6.51612903 53.1290323 5.87096774 59.8387097 5.09677419 60.1935484 5.35483871 60.1290323 7.5483871 60.2258065 7.58064516M68.5483871 21.2258065L69.3870968 21C70.4516129 20.7096774 70.5806452 20.5483871 70.5806452 19.1935484L70.5806452 9.29032258C70.5806452 7.93548387 70.4193548 7.83870968 69.516129 7.22580645L68.4516129 6.51612903 68.4516129 5.87096774 75.1612903 5.09677419 75.516129 5.32258065 75.4516129 7.35483871 75.5806452 7.35483871C77.2580645 6.16129032 79.3548387 5.09677419 81.6774194 5.09677419 84.3870968 5.09677419 85.8387097 6.48387097 85.8387097 9.35483871L85.8387097 19.1612903C85.8387097 20.5483871 85.9677419 20.7096774 87 20.9677419L87.8387097 21.1935484 87.8387097 22.0645161 78.9677419 22.0645161 78.9677419 21.1935484 79.7419355 21C80.7096774 20.7419355 80.8064516 20.6451613 80.8064516 19.1612903L80.8064516 10.6129032C80.8064516 8.67741935 80.0967742 8.06451613 78.6129032 8.06451613 77.483871 8.06451613 76.3548387 8.32258065 75.6451613 8.48387097L75.6451613 19.1935484C75.6451613 20.7096774 75.7419355 20.7741935 76.7096774 21.0322581L77.483871 21.2258065 77.483871 22.0967742 68.6129032 22.0967742 68.6129032 21.2258065 68.5483871 21.2258065zM88.4516129 13.8387097C88.4516129 7.74193548 92.7741935 5.12903226 97.0645161 5.12903226 101.677419 5.12903226 105.709677 7.90322581 105.709677 13.6774194 105.709677 19.7741935 101.451613 22.4516129 97.0645161 22.4516129 92.4516129 22.4516129 88.4516129 19.6774194 88.4516129 13.8387097zM100.354839 14C100.354839 7.58064516 99.1290323 6.35483871 96.9354839 6.35483871 94.9354839 6.35483871 93.7419355 7.80645161 93.7419355 13.2903226 93.7419355 19.8064516 94.8064516 21.2258065 97.1290323 21.2258065 99.0322581 21.2258065 100.354839 20.0967742 100.354839 14zM108.451613 18.0645161L108.451613 7.41935484 106.451613 7.41935484 106.451613 6.64516129C108.935484 5.67741935 110.83871 3.83870968 111.741935 1.29032258L113.548387 1.29032258 113.548387 5.5483871 117.774194 5.5483871 117.354839 7.41935484 113.548387 7.41935484 113.548387 17.7419355C113.548387 19.3225806 114.032258 19.9677419 115.612903 19.9677419 116.387097 19.9677419 117.322581 19.8064516 117.903226 19.6774194L117.903226 20.5806452C117.129032 21.2903226 115.548387 22.4516129 112.870968 22.4516129 110 22.4516129 108.451613 21.1935484 108.451613 18.0645161zM118.548387 13.7419355C118.548387 8.19354839 122.645161 5.12903226 126.870968 5.12903226 131.258065 5.12903226 134 7.32258065 134.096774 13.0967742L123.580645 13.0967742C123.677419 18.3225806 125.645161 19.7419355 128.935484 19.7419355 130.903226 19.7419355 132.419355 19.1612903 133.612903 18.5483871L133.612903 19.6129032C132.483871 20.8387097 130.064516 22.516129 126.870968 22.516129 121.290323 22.4516129 118.548387 19.1612903 118.548387 13.7419355zM123.548387 11.8709677L129 11.5806452C129 7.74193548 128.483871 6.32258065 126.580645 6.32258065 124.967742 6.32258065 123.677419 7.87096774 123.548387 11.8709677z"/>
    </g>
    <path fill="#00A82D" d="M10.516129,8.93548387 C10.516129,9.32258065 10.483871,9.96774194 10.0967742,10.3870968 C9.67741935,10.7741935 9.03225806,10.8064516 8.64516129,10.8064516 L4.51612903,10.8064516 C3.32258065,10.8064516 2.61290323,10.8064516 2.12903226,10.8709677 C1.87096774,10.9032258 1.5483871,11.0322581 1.38709677,11.0967742 C1.32258065,11.1290323 1.32258065,11.0967742 1.35483871,11.0645161 L10.7741935,1.48387097 C10.8064516,1.4516129 10.8387097,1.4516129 10.8064516,1.51612903 C10.7419355,1.67741935 10.6129032,2 10.5806452,2.25806452 C10.516129,2.74193548 10.516129,3.4516129 10.516129,4.64516129 L10.516129,8.93548387 Z M19.2903226,37.9032258 C18.1935484,37.1935484 17.6129032,36.2580645 17.3870968,35.6774194 C17.1612903,35.1290323 17.0322581,34.516129 17.0322581,33.9032258 C17.0322581,31.2258065 19.2258065,29.0322581 21.9354839,29.0322581 C22.7419355,29.0322581 23.3870968,29.6774194 23.3870968,30.483871 C23.3870968,31.0322581 23.0967742,31.483871 22.6451613,31.7419355 C22.483871,31.8387097 22.2580645,31.9032258 22.0967742,31.9354839 C21.9354839,31.9677419 21.3225806,32.0322581 21.0322581,32.2903226 C20.7096774,32.5483871 20.4516129,32.9677419 20.4516129,33.4193548 C20.4516129,33.9032258 20.6451613,34.3548387 20.9677419,34.6774194 C21.5483871,35.2580645 22.3225806,35.5806452 23.1612903,35.5806452 C25.3548387,35.5806452 27.1290323,33.8064516 27.1290323,31.6129032 C27.1290323,29.6451613 25.8064516,27.9032258 24.0645161,27.1290323 C23.8064516,27 23.3870968,26.9032258 23,26.8064516 C22.516129,26.7096774 22.0645161,26.6451613 22.0322581,26.6451613 C20.6774194,26.483871 17.2903226,25.4193548 17.0645161,22.4193548 C17.0645161,22.4193548 16.0645161,26.9354839 14.0645161,28.1612903 C13.8709677,28.2580645 13.6129032,28.3548387 13.3225806,28.4193548 C13.0322581,28.483871 12.7096774,28.516129 12.6129032,28.516129 C9.35483871,28.7096774 5.90322581,27.6774194 3.51612903,25.2258065 C3.51612903,25.2258065 1.90322581,23.9032258 1.06451613,20.1935484 C0.870967742,19.2903226 0.483870968,17.6774194 0.258064516,16.1612903 C0.161290323,15.6129032 0.129032258,15.1935484 0.0967741935,14.8064516 C0.0967741935,13.2258065 1.06451613,12.1612903 2.29032258,12 C2.32258065,12 2.41935484,12 2.48387097,12 C3.22580645,12 8.87096774,12 8.87096774,12 C10,12 10.6451613,11.7096774 11.0645161,11.3225806 C11.6129032,10.8064516 11.7419355,10.0645161 11.7419355,9.19354839 C11.7419355,9.19354839 11.7419355,3.32258065 11.7419355,2.58064516 C11.7419355,2.5483871 11.7419355,2.41935484 11.7419355,2.38709677 C11.9032258,1.19354839 12.9677419,0.193548387 14.5483871,0.193548387 C14.5483871,0.193548387 15.0322581,0.193548387 15.3225806,0.193548387 C15.6451613,0.193548387 16.0322581,0.225806452 16.3870968,0.258064516 C16.6451613,0.290322581 16.8709677,0.35483871 17.2580645,0.451612903 C19.2258065,0.935483871 19.6451613,2.93548387 19.6451613,2.93548387 C19.6451613,2.93548387 23.3548387,3.58064516 25.2258065,3.90322581 C27,4.22580645 31.3870968,4.51612903 32.2258065,8.93548387 C34.1935484,19.4516129 33,29.6451613 32.9032258,29.6451613 C31.516129,39.5806452 23.2580645,39.0967742 23.2580645,39.0967742 C21.483871,39.0967742 20.1612903,38.516129 19.2903226,37.9032258 Z M26.7096774,16.7741935 C25.6451613,16.6774194 24.7419355,17.0967742 24.4193548,17.9032258 C24.3548387,18.0645161 24.2903226,18.2580645 24.3225806,18.3548387 C24.3548387,18.4516129 24.4193548,18.483871 24.483871,18.516129 C24.8709677,18.7096774 25.516129,18.8064516 26.4516129,18.9032258 C27.3870968,19 28.0322581,19.0645161 28.4516129,19 C28.516129,19 28.5806452,18.9677419 28.6451613,18.8709677 C28.7096774,18.7741935 28.6774194,18.5806452 28.6774194,18.4193548 C28.5483871,17.516129 27.7741935,16.9032258 26.7096774,16.7741935 Z"/>
  </g>
</svg>
