<svg width="60" height="60" viewBox="0 0 60 60" fill="none" xmlns="http://www.w3.org/2000/svg">
<rect x="6" y="42.062" width="47.7523" height="11.9381" rx="1.49226" fill="#00A82D"/>
<path d="M19.4302 45.7923C19.4302 45.3803 19.7643 45.0462 20.1764 45.0462H45.5448C45.9569 45.0462 46.2909 45.3803 46.2909 45.7923C46.2909 46.2044 45.9569 46.5385 45.5448 46.5385H20.1764C19.7643 46.5385 19.4302 46.2044 19.4302 45.7923Z" fill="white"/>
<path d="M19.4302 48.7769C19.4302 48.3648 19.7643 48.0308 20.1764 48.0308H30.6222C31.0343 48.0308 31.3683 48.3648 31.3683 48.7769C31.3683 49.189 31.0343 49.523 30.6222 49.523H20.1764C19.7643 49.523 19.4302 49.189 19.4302 48.7769Z" fill="white"/>
<path fill-rule="evenodd" clip-rule="evenodd" d="M8.98444 48.0308C8.98444 50.0911 10.6547 51.7614 12.7151 51.7614C14.7754 51.7614 16.4457 50.0911 16.4457 48.0308C16.4457 45.9704 14.7754 44.3001 12.7151 44.3001C10.6547 44.3001 8.98444 45.9704 8.98444 48.0308ZM14.5194 46.7549C14.6517 46.8644 14.6702 47.0604 14.5607 47.1927L12.6136 49.5452C12.5596 49.6104 12.4814 49.6508 12.397 49.657C12.3126 49.6632 12.2293 49.6348 12.1663 49.5783L11.0565 48.5814C10.9288 48.4667 10.9183 48.2701 11.033 48.1424C11.1477 48.0147 11.3443 48.0041 11.472 48.1188L12.341 48.8994L14.0817 46.7962C14.1912 46.6639 14.3872 46.6455 14.5194 46.7549Z" fill="white"/>
<rect x="6" y="25.647" width="47.7523" height="11.9381" rx="1.49226" fill="#CEDC00"/>
<path d="M19.4302 29.3778C19.4302 28.9657 19.7643 28.6317 20.1764 28.6317H45.5448C45.9569 28.6317 46.2909 28.9657 46.2909 29.3778C46.2909 29.7899 45.9569 30.1239 45.5448 30.1239H20.1764C19.7643 30.1239 19.4302 29.7899 19.4302 29.3778Z" fill="white"/>
<path d="M19.4302 32.3623C19.4302 31.9503 19.7643 31.6162 20.1764 31.6162H30.6222C31.0343 31.6162 31.3683 31.9503 31.3683 32.3623C31.3683 32.7744 31.0343 33.1085 30.6222 33.1085H20.1764C19.7643 33.1085 19.4302 32.7744 19.4302 32.3623Z" fill="white"/>
<path fill-rule="evenodd" clip-rule="evenodd" d="M8.98444 31.6162C8.98444 33.6766 10.6547 35.3469 12.7151 35.3469C14.7754 35.3469 16.4457 33.6766 16.4457 31.6162C16.4457 29.5559 14.7754 27.8856 12.7151 27.8856C10.6547 27.8856 8.98444 29.5559 8.98444 31.6162ZM14.5194 30.3404C14.6517 30.4499 14.6702 30.6458 14.5607 30.7781L12.6136 33.1306C12.5596 33.1958 12.4814 33.2362 12.397 33.2425C12.3126 33.2487 12.2293 33.2203 12.1663 33.1637L11.0565 32.1669C10.9288 32.0521 10.9183 31.8556 11.033 31.7278C11.1477 31.6001 11.3443 31.5896 11.472 31.7043L12.341 32.4848L14.0817 30.3817C14.1912 30.2494 14.3872 30.2309 14.5194 30.3404Z" fill="white"/>
<rect x="6.00012" y="9.2326" width="47.7523" height="11.9381" rx="1.49226" fill="#262626"/>
<path d="M19.4304 12.9628C19.4304 12.5507 19.7644 12.2167 20.1765 12.2167H45.5449C45.957 12.2167 46.291 12.5507 46.291 12.9628C46.291 13.3749 45.957 13.7089 45.5449 13.7089H20.1765C19.7644 13.7089 19.4304 13.3749 19.4304 12.9628Z" fill="white"/>
<path d="M19.4304 15.9474C19.4304 15.5353 19.7644 15.2012 20.1765 15.2012H30.6223C31.0344 15.2012 31.3684 15.5353 31.3684 15.9474C31.3684 16.3594 31.0344 16.6935 30.6223 16.6935H20.1765C19.7644 16.6935 19.4304 16.3594 19.4304 15.9474Z" fill="white"/>
<path fill-rule="evenodd" clip-rule="evenodd" d="M8.9845 15.2012C8.9845 17.2616 10.6548 18.9319 12.7151 18.9319C14.7755 18.9319 16.4458 17.2616 16.4458 15.2012C16.4458 13.1409 14.7755 11.4706 12.7151 11.4706C10.6548 11.4706 8.9845 13.1409 8.9845 15.2012ZM14.5195 13.9254C14.6518 14.0349 14.6703 14.2309 14.5608 14.3631L12.6136 16.7157C12.5597 16.7809 12.4815 16.8212 12.3971 16.8275C12.3127 16.8337 12.2294 16.8053 12.1664 16.7487L11.0566 15.7519C10.9289 15.6372 10.9183 15.4406 11.0331 15.3129C11.1478 15.1851 11.3444 15.1746 11.4721 15.2893L12.341 16.0698L14.0818 13.9667C14.1913 13.8344 14.3872 13.8159 14.5195 13.9254Z" fill="white"/>
</svg>
