<svg width="60" height="60" viewBox="0 0 60 60" fill="none" xmlns="http://www.w3.org/2000/svg">
<path fill-rule="evenodd" clip-rule="evenodd" d="M5.69031 31.9937H47.0889V6.31112H5.69031V31.9937Z" fill="#00A82D"/>
<mask id="mask0" mask-type="alpha" maskUnits="userSpaceOnUse" x="5" y="6" width="43" height="26">
<path fill-rule="evenodd" clip-rule="evenodd" d="M5.69031 31.9937H47.0889V6.31112H5.69031V31.9937Z" fill="white"/>
</mask>
<g mask="url(#mask0)">
<path fill-rule="evenodd" clip-rule="evenodd" d="M46.9178 12.6843C46.8319 12.6843 46.745 12.6517 46.6797 12.5863L46.2269 12.1317C46.0953 12.001 46.0953 11.7881 46.2269 11.6555C46.3576 11.5248 46.5714 11.5248 46.703 11.6555L46.9178 11.8721L47.6796 11.1103C47.8112 10.9787 48.024 10.9787 48.1557 11.1103C48.2873 11.2419 48.2873 11.4557 48.1557 11.5864L47.1558 12.5863C47.0905 12.6517 47.0046 12.6843 46.9178 12.6843Z" fill="#010202"/>
<path fill-rule="evenodd" clip-rule="evenodd" d="M46.9175 17.9998C46.8316 17.9998 46.7448 17.9672 46.6794 17.9018L46.2267 17.4471C46.095 17.3164 46.095 17.1036 46.2267 16.971C46.3574 16.8403 46.5711 16.8403 46.7028 16.971L46.9175 17.1876L47.6793 16.4258C47.8109 16.2942 48.0238 16.2942 48.1554 16.4258C48.2871 16.5574 48.2871 16.7712 48.1554 16.9019L47.1556 17.9018C47.0902 17.9672 47.0043 17.9998 46.9175 17.9998Z" fill="#010202"/>
<path fill-rule="evenodd" clip-rule="evenodd" d="M46.9175 23.3156C46.8316 23.3156 46.7448 23.2829 46.6794 23.2176L46.2267 22.7629C46.095 22.6322 46.095 22.4194 46.2267 22.2868C46.3574 22.1561 46.5711 22.1561 46.7028 22.2868L46.9175 22.5034L47.6793 21.7416C47.8109 21.6099 48.0238 21.6099 48.1554 21.7416C48.2871 21.8732 48.2871 22.087 48.1554 22.2177L47.1556 23.2176C47.0902 23.2829 47.0043 23.3156 46.9175 23.3156Z" fill="#010202"/>
<path fill-rule="evenodd" clip-rule="evenodd" d="M46.9175 28.6311C46.8316 28.6311 46.7448 28.5985 46.6794 28.5331L46.2267 28.0785C46.095 27.9478 46.095 27.7349 46.2267 27.6023C46.3574 27.4716 46.5711 27.4716 46.7028 27.6023L46.9175 27.8189L47.6793 27.0571C47.8109 26.9255 48.0238 26.9255 48.1554 27.0571C48.2871 27.1888 48.2871 27.4025 48.1554 27.5332L47.1556 28.5331C47.0902 28.5985 47.0043 28.6311 46.9175 28.6311Z" fill="#010202"/>
<path fill-rule="evenodd" clip-rule="evenodd" d="M41.6018 10.0266C41.5159 10.0266 41.4291 9.9939 41.3638 9.92855L40.911 9.47389C40.7793 9.34319 40.7793 9.13033 40.911 8.99776C41.0417 8.86706 41.2555 8.86706 41.3871 8.99776L41.6018 9.21435L42.3636 8.45255C42.4953 8.32091 42.7081 8.32091 42.8398 8.45255C42.9714 8.58418 42.9714 8.79798 42.8398 8.92868L41.8399 9.92855C41.7745 9.9939 41.6887 10.0266 41.6018 10.0266Z" fill="#010202"/>
<path fill-rule="evenodd" clip-rule="evenodd" d="M41.6013 15.3422C41.5155 15.3422 41.4286 15.3095 41.3633 15.2441L40.9105 14.7895C40.7789 14.6588 40.7789 14.4459 40.9105 14.3133C41.0412 14.1826 41.255 14.1826 41.3866 14.3133L41.6013 14.5299L42.3632 13.7681C42.4948 13.6365 42.7076 13.6365 42.8393 13.7681C42.9709 13.8998 42.9709 14.1136 42.8393 14.2443L41.8394 15.2441C41.7741 15.3095 41.6882 15.3422 41.6013 15.3422Z" fill="#010202"/>
<path fill-rule="evenodd" clip-rule="evenodd" d="M41.6013 20.6578C41.5155 20.6578 41.4286 20.6251 41.3633 20.5598L40.9105 20.1051C40.7789 19.9744 40.7789 19.7616 40.9105 19.629C41.0412 19.4983 41.255 19.4983 41.3866 19.629L41.6013 19.8456L42.3632 19.0838C42.4948 18.9522 42.7076 18.9522 42.8393 19.0838C42.9709 19.2154 42.9709 19.4292 42.8393 19.5599L41.8394 20.5598C41.7741 20.6251 41.6882 20.6578 41.6013 20.6578Z" fill="#010202"/>
<path fill-rule="evenodd" clip-rule="evenodd" d="M41.6013 25.9733C41.5155 25.9733 41.4286 25.9407 41.3633 25.8753L40.9105 25.4207C40.7789 25.29 40.7789 25.0771 40.9105 24.9445C41.0412 24.8138 41.255 24.8138 41.3866 24.9445L41.6013 25.1611L42.3632 24.3993C42.4948 24.2677 42.7076 24.2677 42.8393 24.3993C42.9709 24.531 42.9709 24.7448 42.8393 24.8755L41.8394 25.8753C41.7741 25.9407 41.6882 25.9733 41.6013 25.9733Z" fill="#010202"/>
<path fill-rule="evenodd" clip-rule="evenodd" d="M41.6013 31.289C41.5155 31.289 41.4286 31.2563 41.3633 31.191L40.9105 30.7363C40.7789 30.6056 40.7789 30.3928 40.9105 30.2602C41.0412 30.1295 41.255 30.1295 41.3866 30.2602L41.6013 30.4768L42.3632 29.715C42.4948 29.5833 42.7076 29.5833 42.8393 29.715C42.9709 29.8466 42.9709 30.0604 42.8393 30.1911L41.8394 31.191C41.7741 31.2563 41.6882 31.289 41.6013 31.289Z" fill="#010202"/>
<path fill-rule="evenodd" clip-rule="evenodd" d="M36.2866 12.6843C36.2008 12.6843 36.1139 12.6517 36.0486 12.5863L35.5958 12.1317C35.4642 12.001 35.4642 11.7881 35.5958 11.6555C35.7265 11.5248 35.9403 11.5248 36.0719 11.6555L36.2866 11.8721L37.0485 11.1103C37.1801 10.9787 37.3929 10.9787 37.5246 11.1103C37.6562 11.2419 37.6562 11.4557 37.5246 11.5864L36.5247 12.5863C36.4594 12.6517 36.3735 12.6843 36.2866 12.6843Z" fill="#010202"/>
<path fill-rule="evenodd" clip-rule="evenodd" d="M36.2865 17.9998C36.2006 17.9998 36.1138 17.9672 36.0485 17.9018L35.5957 17.4471C35.464 17.3164 35.464 17.1036 35.5957 16.971C35.7264 16.8403 35.9402 16.8403 36.0718 16.971L36.2865 17.1876L37.0483 16.4258C37.18 16.2942 37.3928 16.2942 37.5245 16.4258C37.6561 16.5574 37.6561 16.7712 37.5245 16.9019L36.5246 17.9018C36.4592 17.9672 36.3734 17.9998 36.2865 17.9998Z" fill="#010202"/>
<path fill-rule="evenodd" clip-rule="evenodd" d="M36.2865 23.3156C36.2006 23.3156 36.1138 23.2829 36.0485 23.2176L35.5957 22.7629C35.464 22.6322 35.464 22.4194 35.5957 22.2868C35.7264 22.1561 35.9402 22.1561 36.0718 22.2868L36.2865 22.5034L37.0483 21.7416C37.18 21.6099 37.3928 21.6099 37.5245 21.7416C37.6561 21.8732 37.6561 22.087 37.5245 22.2177L36.5246 23.2176C36.4592 23.2829 36.3734 23.3156 36.2865 23.3156Z" fill="#010202"/>
<path fill-rule="evenodd" clip-rule="evenodd" d="M36.2865 28.6311C36.2006 28.6311 36.1138 28.5985 36.0485 28.5331L35.5957 28.0785C35.464 27.9478 35.464 27.7349 35.5957 27.6023C35.7264 27.4716 35.9402 27.4716 36.0718 27.6023L36.2865 27.8189L37.0483 27.0571C37.18 26.9255 37.3928 26.9255 37.5245 27.0571C37.6561 27.1888 37.6561 27.4025 37.5245 27.5332L36.5246 28.5331C36.4592 28.5985 36.3734 28.6311 36.2865 28.6311Z" fill="#010202"/>
<path fill-rule="evenodd" clip-rule="evenodd" d="M30.97 10.0266C30.8841 10.0266 30.7973 9.9939 30.7319 9.92855L30.2791 9.47389C30.1475 9.34319 30.1475 9.13033 30.2791 8.99776C30.4098 8.86706 30.6236 8.86706 30.7553 8.99776L30.97 9.21435L31.7318 8.45255C31.8634 8.32091 32.0763 8.32091 32.2079 8.45255C32.3396 8.58418 32.3396 8.79798 32.2079 8.92868L31.2081 9.92855C31.1427 9.9939 31.0568 10.0266 30.97 10.0266Z" fill="#010202"/>
<path fill-rule="evenodd" clip-rule="evenodd" d="M30.9701 15.3422C30.8842 15.3422 30.7974 15.3095 30.7321 15.2441L30.2793 14.7895C30.1476 14.6588 30.1476 14.4459 30.2793 14.3133C30.41 14.1826 30.6238 14.1826 30.7554 14.3133L30.9701 14.5299L31.7319 13.7681C31.8636 13.6365 32.0764 13.6365 32.2081 13.7681C32.3397 13.8998 32.3397 14.1136 32.2081 14.2443L31.2082 15.2441C31.1428 15.3095 31.0569 15.3422 30.9701 15.3422Z" fill="#010202"/>
<path fill-rule="evenodd" clip-rule="evenodd" d="M30.9701 20.6578C30.8842 20.6578 30.7974 20.6251 30.7321 20.5598L30.2793 20.1051C30.1476 19.9744 30.1476 19.7616 30.2793 19.629C30.41 19.4983 30.6238 19.4983 30.7554 19.629L30.9701 19.8456L31.7319 19.0838C31.8636 18.9522 32.0764 18.9522 32.2081 19.0838C32.3397 19.2154 32.3397 19.4292 32.2081 19.5599L31.2082 20.5598C31.1428 20.6251 31.0569 20.6578 30.9701 20.6578Z" fill="#010202"/>
<path fill-rule="evenodd" clip-rule="evenodd" d="M30.9701 25.9733C30.8842 25.9733 30.7974 25.9407 30.7321 25.8753L30.2793 25.4207C30.1476 25.29 30.1476 25.0771 30.2793 24.9445C30.41 24.8138 30.6238 24.8138 30.7554 24.9445L30.9701 25.1611L31.7319 24.3993C31.8636 24.2677 32.0764 24.2677 32.2081 24.3993C32.3397 24.531 32.3397 24.7448 32.2081 24.8755L31.2082 25.8753C31.1428 25.9407 31.0569 25.9733 30.9701 25.9733Z" fill="#010202"/>
<path fill-rule="evenodd" clip-rule="evenodd" d="M30.9701 31.289C30.8842 31.289 30.7974 31.2563 30.7321 31.191L30.2793 30.7363C30.1476 30.6056 30.1476 30.3928 30.2793 30.2602C30.41 30.1295 30.6238 30.1295 30.7554 30.2602L30.9701 30.4768L31.7319 29.715C31.8636 29.5833 32.0764 29.5833 32.2081 29.715C32.3397 29.8466 32.3397 30.0604 32.2081 30.1911L31.2082 31.191C31.1428 31.2563 31.0569 31.289 30.9701 31.289Z" fill="#010202"/>
<path fill-rule="evenodd" clip-rule="evenodd" d="M25.6542 12.6843C25.5683 12.6843 25.4815 12.6517 25.4161 12.5863L24.9634 12.1317C24.8317 12.001 24.8317 11.7881 24.9634 11.6555C25.0941 11.5248 25.3078 11.5248 25.4395 11.6555L25.6542 11.8721L26.416 11.1103C26.5476 10.9787 26.7605 10.9787 26.8921 11.1103C27.0238 11.2419 27.0238 11.4557 26.8921 11.5864L25.8923 12.5863C25.8269 12.6517 25.741 12.6843 25.6542 12.6843Z" fill="#010202"/>
<path fill-rule="evenodd" clip-rule="evenodd" d="M25.6542 17.9998C25.5683 17.9998 25.4815 17.9672 25.4161 17.9018L24.9634 17.4471C24.8317 17.3164 24.8317 17.1036 24.9634 16.971C25.0941 16.8403 25.3078 16.8403 25.4395 16.971L25.6542 17.1876L26.416 16.4258C26.5476 16.2942 26.7605 16.2942 26.8921 16.4258C27.0238 16.5574 27.0238 16.7712 26.8921 16.9019L25.8923 17.9018C25.8269 17.9672 25.741 17.9998 25.6542 17.9998Z" fill="#010202"/>
<path fill-rule="evenodd" clip-rule="evenodd" d="M25.6542 23.3156C25.5683 23.3156 25.4815 23.2829 25.4161 23.2176L24.9634 22.7629C24.8317 22.6322 24.8317 22.4194 24.9634 22.2868C25.0941 22.1561 25.3078 22.1561 25.4395 22.2868L25.6542 22.5034L26.416 21.7416C26.5476 21.6099 26.7605 21.6099 26.8921 21.7416C27.0238 21.8732 27.0238 22.087 26.8921 22.2177L25.8923 23.2176C25.8269 23.2829 25.741 23.3156 25.6542 23.3156Z" fill="#010202"/>
<path fill-rule="evenodd" clip-rule="evenodd" d="M25.6542 28.6311C25.5683 28.6311 25.4815 28.5985 25.4161 28.5331L24.9634 28.0785C24.8317 27.9478 24.8317 27.7349 24.9634 27.6023C25.0941 27.4716 25.3078 27.4716 25.4395 27.6023L25.6542 27.8189L26.416 27.0571C26.5476 26.9255 26.7605 26.9255 26.8921 27.0571C27.0238 27.1888 27.0238 27.4025 26.8921 27.5332L25.8923 28.5331C25.8269 28.5985 25.741 28.6311 25.6542 28.6311Z" fill="#010202"/>
<path fill-rule="evenodd" clip-rule="evenodd" d="M20.34 10.0266C20.2541 10.0266 20.1673 9.9939 20.1019 9.92855L19.6491 9.47389C19.5175 9.34319 19.5175 9.13033 19.6491 8.99776C19.7798 8.86706 19.9936 8.86706 20.1253 8.99776L20.34 9.21435L21.1018 8.45255C21.2334 8.32091 21.4463 8.32091 21.5779 8.45255C21.7096 8.58418 21.7096 8.79798 21.5779 8.92868L20.5781 9.92855C20.5127 9.9939 20.4268 10.0266 20.34 10.0266Z" fill="#010202"/>
<path fill-rule="evenodd" clip-rule="evenodd" d="M20.3399 15.3422C20.254 15.3422 20.1672 15.3095 20.1018 15.2441L19.649 14.7895C19.5174 14.6588 19.5174 14.4459 19.649 14.3133C19.7797 14.1826 19.9935 14.1826 20.1251 14.3133L20.3399 14.5299L21.1017 13.7681C21.2333 13.6365 21.4462 13.6365 21.5778 13.7681C21.7094 13.8998 21.7094 14.1136 21.5778 14.2443L20.5779 15.2441C20.5126 15.3095 20.4267 15.3422 20.3399 15.3422Z" fill="#010202"/>
<path fill-rule="evenodd" clip-rule="evenodd" d="M20.3399 20.6578C20.254 20.6578 20.1672 20.6251 20.1018 20.5598L19.649 20.1051C19.5174 19.9744 19.5174 19.7616 19.649 19.629C19.7797 19.4983 19.9935 19.4983 20.1251 19.629L20.3399 19.8456L21.1017 19.0838C21.2333 18.9522 21.4462 18.9522 21.5778 19.0838C21.7094 19.2154 21.7094 19.4292 21.5778 19.5599L20.5779 20.5598C20.5126 20.6251 20.4267 20.6578 20.3399 20.6578Z" fill="#010202"/>
<path fill-rule="evenodd" clip-rule="evenodd" d="M20.3399 25.9733C20.254 25.9733 20.1672 25.9407 20.1018 25.8753L19.649 25.4207C19.5174 25.29 19.5174 25.0771 19.649 24.9445C19.7797 24.8138 19.9935 24.8138 20.1251 24.9445L20.3399 25.1611L21.1017 24.3993C21.2333 24.2677 21.4462 24.2677 21.5778 24.3993C21.7094 24.531 21.7094 24.7448 21.5778 24.8755L20.5779 25.8753C20.5126 25.9407 20.4267 25.9733 20.3399 25.9733Z" fill="#010202"/>
<path fill-rule="evenodd" clip-rule="evenodd" d="M20.3399 31.289C20.254 31.289 20.1672 31.2563 20.1018 31.191L19.649 30.7363C19.5174 30.6056 19.5174 30.3928 19.649 30.2602C19.7797 30.1295 19.9935 30.1295 20.1251 30.2602L20.3399 30.4768L21.1017 29.715C21.2333 29.5833 21.4462 29.5833 21.5778 29.715C21.7094 29.8466 21.7094 30.0604 21.5778 30.1911L20.5779 31.191C20.5126 31.2563 20.4267 31.289 20.3399 31.289Z" fill="#010202"/>
<path fill-rule="evenodd" clip-rule="evenodd" d="M15.0242 12.6843C14.9383 12.6843 14.8515 12.6517 14.7861 12.5863L14.3333 12.1317C14.2017 12.001 14.2017 11.7881 14.3333 11.6555C14.464 11.5248 14.6778 11.5248 14.8095 11.6555L15.0242 11.8721L15.786 11.1103C15.9176 10.9787 16.1305 10.9787 16.2621 11.1103C16.3938 11.2419 16.3938 11.4557 16.2621 11.5864L15.2623 12.5863C15.1969 12.6517 15.111 12.6843 15.0242 12.6843Z" fill="#010202"/>
<path fill-rule="evenodd" clip-rule="evenodd" d="M15.024 17.9998C14.9381 17.9998 14.8512 17.9672 14.7859 17.9018L14.3331 17.4471C14.2015 17.3164 14.2015 17.1036 14.3331 16.971C14.4638 16.8403 14.6776 16.8403 14.8092 16.971L15.024 17.1876L15.7858 16.4258C15.9174 16.2942 16.1303 16.2942 16.2619 16.4258C16.3935 16.5574 16.3935 16.7712 16.2619 16.9019L15.262 17.9018C15.1967 17.9672 15.1108 17.9998 15.024 17.9998Z" fill="#010202"/>
<path fill-rule="evenodd" clip-rule="evenodd" d="M15.024 23.3156C14.9381 23.3156 14.8512 23.2829 14.7859 23.2176L14.3331 22.7629C14.2015 22.6322 14.2015 22.4194 14.3331 22.2868C14.4638 22.1561 14.6776 22.1561 14.8092 22.2868L15.024 22.5034L15.7858 21.7416C15.9174 21.6099 16.1303 21.6099 16.2619 21.7416C16.3935 21.8732 16.3935 22.087 16.2619 22.2177L15.262 23.2176C15.1967 23.2829 15.1108 23.3156 15.024 23.3156Z" fill="#010202"/>
<path fill-rule="evenodd" clip-rule="evenodd" d="M15.024 28.6311C14.9381 28.6311 14.8512 28.5985 14.7859 28.5331L14.3331 28.0785C14.2015 27.9478 14.2015 27.7349 14.3331 27.6023C14.4638 27.4716 14.6776 27.4716 14.8092 27.6023L15.024 27.8189L15.7858 27.0571C15.9174 26.9255 16.1303 26.9255 16.2619 27.0571C16.3935 27.1888 16.3935 27.4025 16.2619 27.5332L15.262 28.5331C15.1967 28.5985 15.1108 28.6311 15.024 28.6311Z" fill="#010202"/>
<path fill-rule="evenodd" clip-rule="evenodd" d="M9.7084 10.0265C9.62251 10.0265 9.53569 9.99385 9.47034 9.9285L9.01755 9.47384C8.88591 9.34314 8.88591 9.13028 9.01755 8.99771C9.14825 8.86701 9.36204 8.86701 9.49368 8.99771L9.7084 9.2143L10.4702 8.4525C10.6018 8.32086 10.8147 8.32086 10.9463 8.4525C11.078 8.58413 11.078 8.79793 10.9463 8.92863L9.94647 9.9285C9.88111 9.99385 9.79523 10.0265 9.7084 10.0265Z" fill="#010202"/>
<path fill-rule="evenodd" clip-rule="evenodd" d="M9.70828 15.3421C9.62239 15.3421 9.53557 15.3094 9.47022 15.2441L9.01743 14.7894C8.88579 14.6587 8.88579 14.4459 9.01743 14.3133C9.14813 14.1826 9.36192 14.1826 9.49356 14.3133L9.70828 14.5299L10.4701 13.7681C10.6017 13.6364 10.8146 13.6364 10.9462 13.7681C11.0778 13.8997 11.0778 14.1135 10.9462 14.2442L9.94634 15.2441C9.88099 15.3094 9.7951 15.3421 9.70828 15.3421Z" fill="#010202"/>
<path fill-rule="evenodd" clip-rule="evenodd" d="M9.70828 20.6578C9.62239 20.6578 9.53557 20.6251 9.47022 20.5597L9.01743 20.1051C8.88579 19.9744 8.88579 19.7615 9.01743 19.629C9.14813 19.4983 9.36192 19.4983 9.49356 19.629L9.70828 19.8455L10.4701 19.0837C10.6017 18.9521 10.8146 18.9521 10.9462 19.0837C11.0778 19.2154 11.0778 19.4292 10.9462 19.5599L9.94634 20.5597C9.88099 20.6251 9.7951 20.6578 9.70828 20.6578Z" fill="#010202"/>
<path fill-rule="evenodd" clip-rule="evenodd" d="M9.70828 25.9733C9.62239 25.9733 9.53557 25.9406 9.47022 25.8753L9.01743 25.4206C8.88579 25.2899 8.88579 25.0771 9.01743 24.9445C9.14813 24.8138 9.36192 24.8138 9.49356 24.9445L9.70828 25.1611L10.4701 24.3993C10.6017 24.2676 10.8146 24.2676 10.9462 24.3993C11.0778 24.5309 11.0778 24.7447 10.9462 24.8754L9.94634 25.8753C9.88099 25.9406 9.7951 25.9733 9.70828 25.9733Z" fill="#010202"/>
<path fill-rule="evenodd" clip-rule="evenodd" d="M9.70828 31.289C9.62239 31.289 9.53557 31.2563 9.47022 31.1909L9.01743 30.7363C8.88579 30.6056 8.88579 30.3927 9.01743 30.2601C9.14813 30.1294 9.36192 30.1294 9.49356 30.2601L9.70828 30.4767L10.4701 29.7149C10.6017 29.5833 10.8146 29.5833 10.9462 29.7149C11.0778 29.8466 11.0778 30.0604 10.9462 30.1911L9.94634 31.1909C9.88099 31.2563 9.7951 31.289 9.70828 31.289Z" fill="#010202"/>
</g>
<path fill-rule="evenodd" clip-rule="evenodd" d="M6.38647 30.2328H46.3298V6.62688H6.38647V30.2328ZM19.915 40.9543C19.742 40.9543 19.6023 40.8141 19.6023 40.6417V39.136C19.6023 38.9636 19.742 38.8234 19.915 38.8234H22.3875V33.6115H6.16497C5.13269 33.6115 4.29248 32.7713 4.29248 31.7386V6.18493C4.29248 5.15265 5.13269 4.31244 6.16497 4.31244H46.5509C47.5836 4.31244 48.4234 5.15265 48.4234 6.18493V31.7386C48.4234 32.7713 47.5836 33.6115 46.5509 33.6115H30.3284V38.8234H32.8013C32.9738 38.8234 33.114 38.9636 33.114 39.136V40.6417C33.114 40.8141 32.9738 40.9543 32.8013 40.9543H19.915Z" fill="#1A1A1A"/>
<path fill-rule="evenodd" clip-rule="evenodd" d="M6.69928 29.9198H46.0174V6.93914H6.69928V29.9198ZM46.5512 3.99976H6.16534C4.96063 3.99976 3.98022 4.98016 3.98022 6.18487V31.739C3.98022 32.9437 4.96063 33.9241 6.16534 33.9241H22.0752V38.5107H19.9153C19.5695 38.5107 19.2901 38.7906 19.2901 39.1359V40.6416C19.2901 40.9865 19.5695 41.2664 19.9153 41.2664H32.8017C33.1466 41.2664 33.427 40.9865 33.427 40.6416V39.1359C33.427 38.7906 33.1466 38.5107 32.8017 38.5107H30.6414V33.9241H46.5512C47.7564 33.9241 48.7364 32.9437 48.7364 31.739V6.18487C48.7364 4.98016 47.7564 3.99976 46.5512 3.99976ZM6.07415 30.5451H46.6428V6.3139H6.07415V30.5451ZM46.5511 4.625C47.409 4.625 48.1109 5.32689 48.1109 6.18486V31.739C48.1109 32.5965 47.409 33.2988 46.5511 33.2988H30.1211H30.0159V39.1359H32.8016V40.6416H19.9152V39.1359H22.7003V33.2988H6.16517C5.3072 33.2988 4.60531 32.5965 4.60531 31.739V6.18486C4.60531 5.32689 5.3072 4.625 6.16517 4.625H46.5511Z" fill="#FEFEFE"/>
<path fill-rule="evenodd" clip-rule="evenodd" d="M36.9617 55.5223C34.8569 55.5223 33.1445 53.8105 33.1445 51.7051V32.0765C33.1445 29.9723 34.8569 28.2604 36.9617 28.2604H51.428C53.5328 28.2604 55.2452 29.9723 55.2452 32.0765V51.7051C55.2452 53.8105 53.5328 55.5223 51.428 55.5223H36.9617Z" fill="#CADA2A"/>
<path fill-rule="evenodd" clip-rule="evenodd" d="M51.4283 27.783H36.9621C34.5941 27.783 32.6677 29.7094 32.6677 32.0768V51.7054C32.6677 54.0734 34.5941 55.9997 36.9621 55.9997H51.4283C53.7958 55.9997 55.7222 54.0734 55.7222 51.7054V32.0768C55.7222 29.7094 53.7958 27.783 51.4283 27.783ZM51.4289 28.7361C53.2737 28.7361 54.769 30.2324 54.769 32.0767V51.7053C54.769 53.5501 53.2737 55.0453 51.4289 55.0453H36.9627C35.1179 55.0453 33.6221 53.5501 33.6221 51.7053V32.0767C33.6221 30.2324 35.1179 28.7361 36.9627 28.7361H51.4289Z" fill="#FEFEFE"/>
<path d="M37.6714 35.726H50.7182" stroke="#FEFEFE" stroke-width="2.18107" stroke-linecap="round" stroke-linejoin="round"/>
<path d="M37.6714 48.7253H50.7182" stroke="#FEFEFE" stroke-width="2.18107" stroke-linecap="round" stroke-linejoin="round"/>
<path d="M37.6714 42.2254H50.7182" stroke="#FEFEFE" stroke-width="2.18107" stroke-linecap="round" stroke-linejoin="round"/>
</svg>
