<?xml version="1.0" encoding="UTF-8" standalone="no"?>
<svg width="71px" height="70px" viewBox="0 0 71 70" version="1.1" xmlns="http://www.w3.org/2000/svg" xmlns:xlink="http://www.w3.org/1999/xlink">
    <!-- Generator: Sketch 43.1 (39012) - http://www.bohemiancoding.com/sketch -->
    <title>cash</title>
    <desc>Created with Sketch.</desc>
    <defs></defs>
    <g id="Page-1" stroke="none" stroke-width="1" fill="none" fill-rule="evenodd">
        <g id="Group-33" transform="translate(-28.363636, -29.000000)">
            <g id="cash" transform="translate(29.000000, 29.000000)">
                <circle id="back" fill="#D4DB28" cx="35" cy="35" r="35"></circle>
                <g id="ic_corporate-intro" transform="translate(18.000001, 21.000001)">
                    <g id="Group-2" transform="translate(0.097561, 0.609756)">
                        <g id="shutterstock_250487725">
                            <g id="Group" transform="translate(0.512195, 0.000000)">
                                <g id="Page-1-Copy-2" transform="translate(0.000000, 0.099757)">
                                    <path d="M31.6005797,3.17396838 L31.05245,3.17396838 L24.2198485,3.17396838 C24.2198485,2.9759262 23.9714129,2.8149024 23.6708458,2.8149024 L23.5928979,2.8149024 C23.487637,2.13354446 22.9508566,1.59195226 22.2629195,1.47026811 C22.3330103,1.19220272 22.1396995,0.895200548 21.8180552,0.815177338 C18.471284,-0.031846969 14.9598867,-0.031846969 11.6118683,0.815177338 C11.2914712,0.895200548 11.0977863,1.19220272 11.1685006,1.47026811 C10.4803141,1.59195226 9.94328425,2.13354446 9.83852226,2.8149024 L9.76057436,2.8149024 C9.45851063,2.8149024 9.21244469,2.9759262 9.21244469,3.17396838 L2.37984309,3.17396838 L1.83059097,3.17396838 C0.823379314,3.17396838 0,3.98055347 0,4.96599961 L0,13.0647151 C0,13.3987356 0.233843716,13.6755793 0.549252121,13.756702 L0.549252121,14.1146685 L0.549252121,24.3299062 C0.549252121,25.3154745 1.3738786,26.1219374 2.37984309,26.1219374 L2.56255298,26.1219374 L30.8698649,26.1219374 L31.05245,26.1219374 C32.0585393,26.1219374 32.8817939,25.3154745 32.8817939,24.3299062 L32.8817939,14.1146685 L32.8817939,13.756702 C33.1970775,13.6755793 33.4309213,13.3987356 33.4309213,13.0647151 L33.4309213,4.96599961 C33.4309213,3.98055347 32.6075419,3.17396838 31.6005797,3.17396838 M11.3731606,2.16701982 C11.3742831,2.17056284 11.3755302,2.17532758 11.3767774,2.17899276 C11.463206,2.46292244 11.7737505,2.62516798 12.0697031,2.55113124 C15.1170297,1.78046495 18.3143904,1.78046495 21.3615923,2.55113124 C21.6572955,2.62516798 21.9690871,2.46292244 22.0543933,2.17899276 C22.055391,2.17532758 22.0568876,2.17056284 22.0582595,2.16701982 C22.4382711,2.20281647 22.7471943,2.46524373 22.8474665,2.8149024 L22.8167862,2.8149024 C22.5147224,2.8149024 22.2677835,2.9759262 22.2677835,3.17396838 L11.1636367,3.17396838 C11.1636367,2.9759262 10.9175707,2.8149024 10.615507,2.8149024 L10.583829,2.8149024 C10.683727,2.46414417 10.993149,2.20281647 11.3731606,2.16701982" id="Fill-1" stroke="#FFFFFF" stroke-width="0.2" fill="#C2C2C2"></path>
                                    <path d="M32.8818437,24.3299184 C32.8818437,25.3153646 32.0584644,26.1219497 31.0524999,26.1219497 L2.37989298,26.1219497 C1.37380377,26.1219497 0.549302007,25.3153646 0.549302007,24.3299184 L0.549302007,4.96601183 C0.549302007,3.98056569 1.37380377,3.1739806 2.37989298,3.1739806 L31.0524999,3.1739806 C32.0584644,3.1739806 32.8818437,3.98056569 32.8818437,4.96601183 L32.8818437,24.3299184 Z" id="Fill-5" stroke="#FFFFFF" stroke-width="0.8" fill="#E5E5E5"></path>
                                    <path d="M0.733209177,14.1397017 L32.6992087,14.1397017 C32.76244,14.1397017 32.8234265,14.1289505 32.8817939,14.1146562 L32.8817939,4.96598739 C32.8817939,4.46129139 32.6650363,4.00314323 32.3181993,3.67743044 C32.0974508,3.58445691 31.8553758,3.53192259 31.6005797,3.53192259 L1.83059097,3.53192259 C1.57604429,3.53192259 1.33484229,3.58445691 1.11322081,3.67743044 C0.767256823,4.00314323 0.549252121,4.46129139 0.549252121,4.96598739 L0.549252121,14.1146562 C0.607744229,14.1289505 0.668605953,14.1397017 0.733209177,14.1397017" id="Fill-9" fill="#D1D1D1"></path>
                                    <g id="Group-13" transform="translate(0.000000, 3.094476)" stroke="#FFFFFF" stroke-width="0.8" fill="#FFFFFF">
                                        <path d="M1.83056603,0.079492601 C0.823354371,0.079492601 -2.49433301e-05,0.886077697 -2.49433301e-05,1.87152383 L-2.49433301e-05,9.97023929 C-2.49433301e-05,10.3663236 0.327605693,10.6872717 0.733184234,10.6872717 L32.6991837,10.6872717 C33.1035151,10.6872717 33.4308963,10.3663236 33.4308963,9.97023929 L33.4308963,1.87152383 C33.4308963,0.886077697 32.607517,0.079492601 31.6005548,0.079492601 L1.83056603,0.079492601 Z" id="Fill-11"></path>
                                    </g>
                                    <g id="Group-18" transform="translate(10.954703, 0.000000)" stroke="#FFFFFF" stroke-width="0.2" fill="#FFFFFF">
                                        <path d="M11.0996901,2.03602072 C11.0143839,2.3199504 10.7025923,2.48219593 10.4068891,2.40828136 C7.35968724,1.63749291 4.16232652,1.63749291 1.11499993,2.40828136 C0.81904732,2.48219593 0.508502865,2.3199504 0.422074227,2.03602072 C0.35385422,1.80694664 0.28688138,1.57787256 0.218661373,1.34757676 C0.132232736,1.0648688 0.329534474,0.75467196 0.65716511,0.672327465 C4.00518354,-0.174819014 7.51658079,-0.174819014 10.8633521,0.672327465 C11.1932276,0.75467196 11.3895316,1.0648688 11.3043501,1.34757676 C11.2361301,1.57787256 11.1679101,1.80694664 11.0996901,2.03602072" id="Fill-16"></path>
                                    </g>
                                    <path d="M18.4702488,15.4843237 C18.4702488,15.7802264 18.222811,16.0226173 17.9207473,16.0226173 L15.5115958,16.0226173 C15.2096568,16.0226173 14.9610965,15.7802264 14.9610965,15.4843237 L14.9610965,13.8712757 C14.9610965,13.5753731 15.2096568,13.3331044 15.5115958,13.3331044 L17.9207473,13.3331044 C18.222811,13.3331044 18.4702488,13.5753731 18.4702488,13.8712757 L18.4702488,15.4843237 Z" id="Fill-21" stroke="#FFFFFF" stroke-width="0.4" fill="#CFCFCF"></path>
                                    <path d="M19.4309536,13.8712513 C19.4309536,14.1671539 19.1840147,14.4093005 18.8814521,14.4093005 L14.5494193,14.4093005 C14.2473556,14.4093005 14.0014143,14.1671539 14.0014143,13.8712513 L14.0014143,12.2582033 C14.0014143,11.9610789 14.2473556,11.7201541 14.5494193,11.7201541 L18.8814521,11.7201541 C19.1840147,11.7201541 19.4309536,11.9610789 19.4309536,12.2582033 L19.4309536,13.8712513 Z" id="Fill-25" stroke="#FFFFFF" stroke-width="0.4" fill="#CFCFCF"></path>
                                    <path d="M0.753879289,4.4865045 L0.753879289,4.82895497 L32.354459,4.82895497 L32.354459,4.4865045 C32.354459,3.9925597 31.9427694,3.59048888 31.4385399,3.59048888 L1.66855119,3.59048888 C1.16307461,3.59048888 0.753879289,3.9925597 0.753879289,4.4865045" id="Fill-27" fill="#EBEBEB"></path>
                                    <path d="M18.7206549,12.3718388 C18.7206549,12.479491 18.5565278,12.566504 18.3542374,12.566504 L15.0768086,12.566504 C14.8746429,12.566504 14.7102664,12.479491 14.7102664,12.3718388 C14.7102664,12.266532 14.8746429,12.1794018 15.0768086,12.1794018 L18.3542374,12.1794018 C18.5565278,12.1794018 18.7206549,12.266532 18.7206549,12.3718388" id="Fill-29" fill="#3D3B3A"></path>
                                    <path d="M11.1636117,3.17396838 C11.1636117,3.37078883 10.9175458,3.29333124 10.615482,3.29333124 L9.76054941,3.29333124 C9.45848569,3.29333124 9.21241974,3.37078883 9.21241974,3.17396838 C9.21241974,2.9759262 9.45848569,2.8149024 9.76054941,2.8149024 L10.615482,2.8149024 C10.9175458,2.8149024 11.1636117,2.9759262 11.1636117,3.17396838" id="Fill-31" fill="#000000"></path>
                                    <path d="M24.2198859,3.17396838 C24.2198859,3.37078883 23.9714503,3.29333124 23.6708832,3.29333124 L22.8168236,3.29333124 C22.5147598,3.29333124 22.2678209,3.37078883 22.2678209,3.17396838 C22.2678209,2.9759262 22.5147598,2.8149024 22.8168236,2.8149024 L23.6708832,2.8149024 C23.9714503,2.8149024 24.2198859,2.9759262 24.2198859,3.17396838" id="Fill-33" fill="#000000"></path>
                                </g>
                            </g>
                        </g>
                    </g>
                </g>
            </g>
        </g>
    </g>
</svg>