<svg width="22" height="16" viewBox="0 0 22 16" xmlns="http://www.w3.org/2000/svg"><title>Group 2</title><g fill="none" fill-rule="evenodd"><g stroke="#000" stroke-width=".8" stroke-linecap="round" stroke-linejoin="round"><path d="M9.854 14.766H6.788c-.435 0-.788-.36-.788-.805V3.138c0-.444.353-.805.788-.805h8.562c.435 0 .788.36.788.805v1.855M12.662 2.332H9.476v-.67c0-.365.29-.662.648-.662h1.89c.358 0 .648.297.648.663v.67zM8.21 4.684v7.37M11.158 4.684V6.48M13.958 4.684v.47"/></g><g transform="translate(1 10)"><path d="M4.023 4.905H.3c-.166 0-.3-.15-.3-.334V.366C0 .18.134.03.3.03h4.68" stroke="#000" stroke-width=".8" stroke-linecap="round" stroke-linejoin="round"/><path d="M.08.16s.87 1.89 3.297 1.89c.603 0 1.13-.125 1.58-.313" stroke="#000" stroke-width=".8"/><ellipse fill="#000" cx="3.383" cy="2.363" rx="1" ry="1"/></g><g stroke="#000" stroke-width=".8" stroke-linecap="round" stroke-linejoin="round"><path d="M20.573 15h-9.146c-.236 0-.427-.225-.427-.502V8.19c0-.278.19-.502.427-.502h9.146c.236 0 .427.224.427.502v6.308c0 .277-.19.502-.427.502zM18.778 7.688V15M13.333 7.688V15M17.87 7.66h-3.827v-.607c0-.503.397-.91.887-.91h2.052c.49 0 .887.407.887.91v.608z"/></g></g></svg>