<svg width="20" height="17" viewBox="0 0 20 17" xmlns="http://www.w3.org/2000/svg"><title>Group</title><g stroke="#000" stroke-width=".8" fill="none" fill-rule="evenodd"><path d="M18.47 14.057H5.773l-3.387-.925c-.593 0-1.076-.48-1.076-1.07V9.955c0-.372.097-.797.41-.99.01-.015.46-2.334.46-2.334 0-.116 0-.436.44-.436 1.733 0 3.136.09 4.03-.437.824-.483 4.286-3.037 11.97-2.76.333.013.59 2.76.47 5.52s-.62 5.54-.62 5.54z"/><path stroke-linecap="round" stroke-linejoin="round" d="M6.175 5.954L3.09 1.317.69 2.753"/><path d="M6.208 13.59c0-1.455 1.182-2.64 2.637-2.64 1.456 0 2.64 1.185 2.64 2.64 0 1.456-1.184 2.64-2.64 2.64-1.455 0-2.637-1.184-2.637-2.64z" fill="#FFF"/></g></svg>