<svg width="19" height="14" viewBox="0 0 19 14" xmlns="http://www.w3.org/2000/svg"><title>cashless</title><g fill-rule="nonzero" fill="#000"><path d="M16.875.15H2.15c-1.1 0-2.025.9-2.025 2.025V11.9c0 1.1.9 2.025 2.025 2.025h14.725c1.1 0 2.025-.9 2.025-2.025V2.175c-.025-1.1-.925-2.025-2.025-2.025zm1.25 11.75c0 .7-.575 1.275-1.275 1.275H2.15c-.7 0-1.275-.575-1.275-1.275V4.15h17.25v7.75zm0-8.5H.875V2.175C.875 1.475 1.45.9 2.15.9h14.725c.7 0 1.275.575 1.275 1.275L18.125 3.4z"/><path d="M3.2 7.65h5.25c.2 0 .375-.175.375-.375S8.65 6.9 8.45 6.9H3.2c-.2 0-.375.175-.375.375s.15.375.375.375zM3.2 9.9h2.75c.2 0 .375-.175.375-.375S6.15 9.15 5.95 9.15H3.2c-.2 0-.375.175-.375.375s.15.375.375.375zM12.2 10.475c.375 0 .7-.1 1-.275-.225-.15-.425-.325-.575-.55-.125.05-.275.075-.425.075-.625 0-1.15-.525-1.15-1.15 0-.625.525-1.15 1.15-1.15.15 0 .3.025.425.075.15-.225.35-.4.575-.55-.3-.175-.625-.275-1-.275-1.05 0-1.9.85-1.9 1.9 0 1.05.85 1.9 1.9 1.9z"/><path d="M14.95 10.475c1.05 0 1.9-.85 1.9-1.9 0-1.05-.85-1.9-1.9-1.9-1.05 0-1.9.85-1.9 1.9 0 1.05.85 1.9 1.9 1.9zm0-3.075c.65 0 1.15.525 1.15 1.15 0 .625-.525 1.15-1.15 1.15-.65 0-1.15-.525-1.15-1.15 0-.625.5-1.15 1.15-1.15z"/></g></svg>