<svg id="Layer_1" data-name="Layer 1" xmlns="http://www.w3.org/2000/svg" viewBox="0 0 24 24"><defs><style>.cls-1,.cls-2{fill:none;stroke:#000;stroke-width:0.8px;}.cls-1{stroke-miterlimit:10;}.cls-2{stroke-linejoin:round;}</style></defs><title>icon</title><path class="cls-1" d="M19.84 15.71h.52a5.19 5.19 0 0 0 1.83-.27c.33-.27-.23-.63-.23-.63s.76-1.51.13-2.24c0 0 .36-.4 0-.63a17.82 17.82 0 0 0-4.81-1.76s-3.78-3-6.27-3.1a30.05 30.05 0 0 0-6.79.35c-.32.05-1.89.35-1.12 1 .4.37-1.11 1.61-1.3 3.85 0 0-.46 3 .43 3.38H3m3.26 0h10.26"/><circle class="cls-1" cx="4.63" cy="15.21" r="1.75"/><circle class="cls-1" cx="18.27" cy="15.21" r="1.75"/><path class="cls-2" d="M15.55 10.82s-2-2.06-3.75-2.34a10.86 10.86 0 0 0-2.59-.19l.25 2.53zM7.93 8.29a15.34 15.34 0 0 0-3 .44c-.79.31.31 1.63 1 2.09h2.25z"/></svg>