<svg xmlns="http://www.w3.org/2000/svg" width="20" height="18" viewBox="0 0 20 18">
  <g fill="none" fill-rule="evenodd" transform="translate(-2 -3)">
    <polygon points="0 24 24 24 24 0 0 0"/>
    <g transform="translate(2 3)">
      <path d="M15.9424,6.8579 C15.9424,10.1399 13.2824,12.8009 10.0004,12.8009 C6.7174,12.8009 4.0574,10.1399 4.0574,6.8579 C4.0574,3.5759 6.7174,0.9159 10.0004,0.9159 C13.2824,0.9159 15.9424,3.5759 15.9424,6.8579"/>
      <path stroke="#000" stroke-width=".75" d="M5.72123356,10.982188 C4.69093392,9.91340724 4.0574,8.45960561 4.0574,6.8579 C4.0574,3.5759 6.7174,0.9159 10.0004,0.9159 C13.2824,0.9159 15.9424,3.5759 15.9424,6.8579 L15.9424,6.8579 C15.9424,9.08878369 14.7133817,11.0327424 12.895403,12.0490903"/>
      <path stroke="#000" stroke-linecap="round" stroke-width=".75" d="M8.0713 3.8477L11.9283 3.8477M8.0713 5.5552L11.9283 5.5552"/>
      <path stroke="#000" stroke-linecap="round" stroke-linejoin="round" stroke-width=".75" d="M8.3496,3.8477 L9.3286,3.8477 C10.2116,3.8477 10.9286,4.5647 10.9286,5.4487 L10.9286,5.4487 C10.9286,6.3327 10.2116,7.0497 9.3286,7.0497 L8.5676,7.0497 L10.7536,9.8687"/>
      <g transform="translate(0 10)">
        <path d="M7.8506,3.71 C7.8506,3.71 9.8626,4.41 12.3076,4.231 C15.2466,4.018 14.6606,2.009 12.9896,2.014 C11.3176,2.02 9.3366,1.451 7.1696,1.019 C5.0036,0.585 1.4136,2.368 1.4136,2.368 C-0.0374,3.375 0.0926,5.561 1.6536,6.388 L1.6616,6.392 C3.5176,6.021 8.3446,7.081 9.9556,7.085 C11.2756,7.087 13.1986,6.141 16.4966,4.369 C17.0956,4.047 18.3536,3.283 19.1496,2.795 C19.5566,2.546 19.7116,2.033 19.5156,1.598 C19.3046,1.13 18.7596,0.914 18.2866,1.111 L14.3296,2.754"/>
        <path stroke="#000" stroke-linecap="round" stroke-linejoin="round" stroke-width=".75" d="M7.8506,3.71 C7.8506,3.71 9.8626,4.41 12.3076,4.231 C15.2466,4.018 14.6606,2.009 12.9896,2.014 C11.3176,2.02 9.3366,1.451 7.1696,1.019 C5.0036,0.585 1.4136,2.368 1.4136,2.368 C-0.0374,3.375 0.0926,5.561 1.6536,6.388 L1.6616,6.392 C3.5176,6.021 8.3446,7.081 9.9556,7.085 C11.2756,7.087 13.1986,6.141 16.4966,4.369 C17.0956,4.047 18.3536,3.283 19.1496,2.795 C19.5566,2.546 19.7116,2.033 19.5156,1.598 C19.3046,1.13 18.7596,0.914 18.2866,1.111 L14.3296,2.754"/>
      </g>
    </g>
  </g>
</svg>
