<svg xmlns="http://www.w3.org/2000/svg" width="18" height="20" viewBox="0 0 18 20">
  <g fill="none" fill-rule="evenodd" transform="translate(-3 -2)">
    <polygon points="0 24 24 24 24 0 0 0"/>
    <g stroke-linejoin="round" stroke-width=".75" transform="translate(3 2)">
      <path stroke="#000" d="M17.0791,9.373 C17.0791,13.835 13.4621,17.452 9.0001,17.452 C4.5381,17.452 0.9211,13.835 0.9211,9.373 C0.9211,4.911 4.5381,1.294 9.0001,1.294 C13.4621,1.294 17.0791,4.911 17.0791,9.373 Z"/>
      <path stroke="#000" stroke-linecap="round" d="M6.3428 6.0083L8.0988 6.0083C9.0328 6.0083 9.7898 6.7653 9.7898 7.6993 9.7898 8.6343 9.0328 9.3913 8.0988 9.3913L6.5368 9.3913 9.7918 12.6453M6.1191 6.0083L11.2871 6.0083M6.1191 7.6997L11.2871 7.6997"/>
      <path stroke="#FFF" d="M16.1475,1.603 L6.3425,18.639"/>
      <path stroke="#000" stroke-linecap="round" d="M16.0635,0.4062 L5.0195,19.5932"/>
    </g>
  </g>
</svg>
