<svg width="16" height="21" viewBox="0 0 16 21" xmlns="http://www.w3.org/2000/svg"><title>Group 8</title><g transform="translate(0 1)" stroke="#000" stroke-width=".8" fill="none" fill-rule="evenodd"><ellipse cx="4.09" cy="4.829" rx="2.302" ry="2.277"/><path d="M6.188 15.303c1.075-.286 1.746-1.293 1.554-2.49l-.33-2.072c-.32-1.993-2.23-3.606-4.265-3.58l1.577-.02c-2.04.026-3.824 1.69-4 3.715L.558 12.79c-.107 1.244.677 2.278 1.823 2.534-.027.09-.042.184-.042.282v1.865c0 .55.45.992 1.004.992h1.89c.557 0 1.004-.444 1.004-.99v-1.866c0-.106-.017-.208-.048-.303z"/><ellipse cx="12.047" cy="2.921" rx="2.558" ry="2.53"/><path d="M14.03 13.66c.93-.38 1.54-1.312 1.46-2.4l-.165-2.21c-.14-1.897-1.802-3.448-3.712-3.448h.756c-1.905 0-3.533 1.55-3.624 3.46l-.104 2.187c-.052 1.08.567 2.007 1.49 2.398v3.807c0 .56.45 1.007 1.005 1.007h1.89c.557 0 1.004-.45 1.004-1.007V13.66z"/><g transform="translate(5.65 8.34)" fill="#FFF"><ellipse cx="2.794" cy="1.934" rx="1.79" ry="1.771"/><path d="M4.482 9.407c.792-.292 1.364-1.053 1.364-1.947v-.67c0-1.51-1.232-2.74-2.752-2.74h-.342C1.225 4.05 0 5.275 0 6.79v.67c0 .893.568 1.657 1.364 1.948V9.9c0 .55.45.99 1.004.99h1.11c.557 0 1.004-.443 1.004-.99v-.493z"/></g></g></svg>