<svg width="78" height="32" viewBox="0 0 78 32" xmlns="http://www.w3.org/2000/svg"><title>ola</title><g fill="none" fill-rule="evenodd"><path d="M61.75 31.31H15.836C7.44 31.31.63 24.5.63 16.102.63 7.703 7.44.896 15.837.896H61.75c8.398 0 15.206 6.808 15.206 15.207 0 8.398-6.808 15.206-15.207 15.206" fill="#FEFEFE"/><path d="M15.837 31.31C7.44 31.31.63 24.5.63 16.102.63 7.703 7.44.896 15.837.896H61.75c8.398 0 15.206 6.808 15.206 15.207 0 8.398-6.808 15.206-15.207 15.206H15.836z" stroke="#D1D2D4" stroke-width=".5"/><g fill="#221F20"><path d="M63.155 15.682l3.85 6.938h3.398l-7.24-13.034-7.27 13.034 3.34-.01M42.087 19.578c-1.92-.002-3.474-1.56-3.472-3.48.003-1.92 1.56-3.473 3.48-3.47 1.92.002 3.475 1.56 3.472 3.48-.002 1.92-1.56 3.473-3.48 3.47m.013-9.993c-3.598-.003-6.52 2.91-6.526 6.51-.004 3.6 2.91 6.52 6.508 6.525 3.6.004 6.522-2.91 6.526-6.51.005-3.598-2.91-6.52-6.508-6.525M52.587 19.58l.01-9.994H49.71l-.013 9.334-.003 3.7h4.92l1.747-3.04"/></g><g><path d="M26.395 16.065c-.095-6.333-6.248-10.6-12.25-9.74-1.756.438-3.668 1.338-5.025 2.578-.658.44-.97 1.273-1.628 1.932-2.636 3.954-2.185 9.002 1.11 12.077.41.41.867.816 1.35 1.18-2.756-1.68-3.983-4.236-4.425-7.33 0-1.098.22-2.197.44-3.295C7.503 8.634 12.336 5.12 17.606 6c.88.218 1.758.438 2.637.658 1.098.44 2.196 1.098 3.075 1.976.878.88 1.536 1.978 2.195 3.076.44.878.66 1.976.88 2.855.035.5.032 1 0 1.5m-9.685 9.84c2.354-.377 4.342-1.714 5.955-3.53.44-.657.79-1.27 1.228-1.928.537-1.344.503-2.543.672-3.39.22-1.54-.29-2.775-.73-4.094-.66-1.537-1.533-2.687-3.07-3.566-3.88-2.45-9.155-1.76-11.683 1.902-.01.002-.084.1-.222.287.182-.755.62-1.195 1.06-1.635 1.318-1.098 2.856-1.976 4.612-2.416 1.978-.22 3.955 0 5.712.88 2.636 1.536 4.393 3.953 4.832 6.808v2.636c-.54 4.317-4.173 7.6-8.366 8.046m9.968-11.07c-.04-.54-.174-1.247-.38-1.934-.41-1.38-1.11-2.682-2.116-3.812-.506-.567-1.088-1.09-1.952-1.71-.972-.502-1.533-.82-1.946-1.065-.412-.245-.92-.535-1.578-.755-.796-.192-1.592-.296-2.378-.316-.786-.02-1.563.044-2.32.183-.793.133-1.452.353-2.33.572C9.7 6.877 8.162 8.195 6.844 9.95c-4.613 6.59-.44 15.816 7.25 16.914 1.267.18 2.525.106 3.727-.175l.846-.232.096-.033.97-.375c.05-.02.097-.044.144-.066l.403-.194c.775-.394 1.504-.877 2.17-1.436-.605.568-1.266 1.07-1.973 1.494l.035.032-.002.002c.13-.042.26-.082.393-.114 0 0 0 .22-.023.17-.216.157.122.02.55-.212.434-.234.846-.508 1.23-.837.55-.477 1.043-.99 1.72-1.827.696-1.25 1.575-2.347 1.975-3.815.134-.39.257-.85.343-1.324.085-.473.132-.957.133-1.455.002-.5-.042-1.01-.152-1.634" fill="#221F20"/><path d="M20.926 16.163c0 2.722-2.237 4.93-5 4.93-2.76 0-4.997-2.208-4.997-4.93 0-2.722 2.237-4.928 4.997-4.928 2.762 0 5 2.206 5 4.928" fill="#FEFEFE"/><path d="M20.715 17.017l-.288 1.243c-.198.518-.498 1.04-.904 1.458-.405.42-.916.738-1.425 1.056-.41.213-.923.324-1.333.435-.243.02-.528-.088-.77-.1 2.984-.08 5.04-2.924 4.59-5.74-.22-.822-.646-1.537-1.173-2.25-.21-.306-.627-.505-.94-.81-1.88-1.204-4.35-.956-5.767.614-.194.2-.386.426-.556.662.75-1.126 1.96-1.92 3.418-2.154.515-.008 1.033.086 1.55.18 2.28.684 3.968 2.924 3.597 5.405m-5.508 3.6c-2.048-.22-3.624-1.928-3.846-3.914.19 1.11.843 1.96 1.72 2.713.31.2.77.484 1.083.685.52.198.836.417 1.354.51 0 .002 0 0 .002.002-.105 0-.21.003-.313.004m2.534-7.8c.46.272.524.31.283.14.356.08.566.282.776.484.525.61.95 1.325 1.17 2.146.118.926.03 1.856-.368 2.687-.7 1.25-1.82 2.093-3.157 2.323l-.46.007c.374-.073.62-.315 1.305-.57.735-.277 1.582-1.526 1.982-2.255 1.204-1.98-.2-3.81-1.53-4.962m3.213 2.507c-.068-.37-.176-.68-.287-1.09-.428-.92-1.06-1.632-1.894-2.236-3.13-2.113-7.427-.08-7.88 3.537-.18 1.423.317 2.808 1.21 3.857-.273-.286-.566-.585-.77-.922l-.027.034c.032.086.132.13.156.218 0 0-.103.002-.08-.01-.075-.1-.01.058.103.258.113.2.245.392.403.57.227.254.47.482.87.793.592.318 1.114.72 1.806.898.184.06.402.114.624.15.223.036.45.055.684.05.234-.002.473-.027.765-.084.253-.023.583-.09.904-.193.645-.202 1.25-.54 1.773-1.022.262-.242.62-.552.904-.964.228-.46.256-.692.368-.888.112-.196.244-.436.343-.747.084-.376.127-.75.13-1.12.003-.37-.033-.733-.105-1.087" fill="#D7DF23"/></g><g><path d="M31.185.667V31.31" fill="#FEFEFE"/><path d="M31.185.667V31.31" stroke="#D1D2D4" stroke-width=".5"/></g></g></svg>