<?xml version="1.0" encoding="UTF-8" standalone="no"?>
<svg width="30px" height="30px" viewBox="0 0 30 30" version="1.1" xmlns="http://www.w3.org/2000/svg" xmlns:xlink="http://www.w3.org/1999/xlink">
    <!-- Generator: Sketch 46.1 (44463) - http://www.bohemiancoding.com/sketch -->
    <title>ic_instagram</title>
    <desc>Created with Sketch.</desc>
    <defs></defs>
    <g id="Homepage" stroke="none" stroke-width="1" fill="none" fill-rule="evenodd">
        <g id="Outstation" transform="translate(-501.000000, -5884.000000)" fill-rule="nonzero" fill="#FFFFFF">
            <g id="Footer" transform="translate(0.000000, 5476.000000)">
                <g id="Social-Media" transform="translate(151.000000, 408.000000)">
                    <g id="Logos" transform="translate(260.000000, 0.000000)">
                        <g id="ic_instagram" transform="translate(90.000000, 0.000000)">
                            <path d="M15,10.8088235 C12.6911765,10.8088235 10.8088235,12.6911765 10.8088235,15 C10.8088235,17.3088235 12.6911765,19.1911765 15,19.1911765 C17.3088235,19.1911765 19.1911765,17.3088235 19.1911765,15 C19.1911765,12.6911765 17.3088235,10.8088235 15,10.8088235 Z" id="Shape"></path>
                            <path d="M24.7352941,0.117647059 L5.26470588,0.117647059 C2.42647059,0.117647059 0.117647059,2.42647059 0.117647059,5.26470588 L0.117647059,24.75 C0.117647059,27.5882353 2.42647059,29.8970588 5.26470588,29.8970588 L24.75,29.8970588 C27.5882353,29.8970588 29.8970588,27.5882353 29.8970588,24.75 L29.8970588,5.26470588 C29.8823529,2.42647059 27.5735294,0.117647059 24.7352941,0.117647059 Z M15,23.6029412 C10.2647059,23.6029412 6.39705882,19.75 6.39705882,15 C6.39705882,10.25 10.25,6.39705882 15,6.39705882 C19.75,6.39705882 23.6029412,10.25 23.6029412,15 C23.6029412,19.75 19.7352941,23.6029412 15,23.6029412 Z M26.75,5.38235294 C26.75,6.55882353 25.7941176,7.51470588 24.6176471,7.51470588 L24.6176471,7.51470588 C23.4411765,7.51470588 22.4852941,6.55882353 22.4852941,5.38235294 L22.4852941,5.38235294 C22.4852941,4.20588235 23.4411765,3.25 24.6176471,3.25 L24.6176471,3.25 C25.7941176,3.25 26.75,4.20588235 26.75,5.38235294 L26.75,5.38235294 Z" id="Shape"></path>
                        </g>
                    </g>
                </g>
            </g>
        </g>
    </g>
</svg>