<svg width="21" height="15" viewBox="0 0 21 15" xmlns="http://www.w3.org/2000/svg"><title>Page 1</title><g stroke="#000" stroke-width=".8" fill="none" fill-rule="evenodd" stroke-linecap="round" stroke-linejoin="round"><path d="M20.297 11.47c-.3-.55-.864-.718-1.485-.34l-1.13.575L14.87 6.24c-.422-.954-1.24-1.255-2.07-1.23h-2.723L8.974 1.046l-4.215.06L6.07 6.72c.118.63.458 1.01 1.238 1l5.394.013c.398 0 .764.22.947.572l2.57 5.032c.27.525.914.738 1.446.478l2.073-1.01c.306-.157.81-.697.557-1.338z"/><path d="M2.49 8.884L1.025 2.42c-.128-.62.258-1.23.877-1.384.652-.162 1.308.243 1.45.893l1.388 6.1c.135.61.68 1.047 1.31 1.047h4.85c.686 0 1.243.552 1.243 1.234 0 .683-.557 1.235-1.243 1.235H5.635"/><path d="M4.866 10.676c0 .677-.553 1.226-1.235 1.226-.68 0-1.234-.55-1.234-1.226 0-.677.553-1.226 1.235-1.226.683 0 1.236.55 1.236 1.226z"/></g></svg>