<?xml version="1.0" encoding="UTF-8"?>
<svg width="28px" height="28px" viewBox="0 0 28 28" version="1.1" xmlns="http://www.w3.org/2000/svg" xmlns:xlink="http://www.w3.org/1999/xlink">
    <!-- Generator: Sketch 51.3 (57544) - http://www.bohemiancoding.com/sketch -->
    <title>Icon/Flag/NZ</title>
    <desc>Created with Sketch.</desc>
    <defs>
        <rect id="path-1" x="0" y="0" width="28" height="20" rx="2"></rect>
    </defs>
    <g id="Icon/Flag/NZ" stroke="none" stroke-width="1" fill="none" fill-rule="evenodd">
        <g id="NZ" transform="translate(0.000000, 4.000000)">
            <mask id="mask-2" fill="white">
                <use xlink:href="#path-1"></use>
            </mask>
            <use id="Mask" fill="#FFFFFF" xlink:href="#path-1"></use>
            <rect id="Mask-Copy" fill="#0A17A7" mask="url(#mask-2)" x="0" y="0" width="28" height="20"></rect>
            <path d="M4.33333333,4.15331164 L-0.901085803,-0.333333333 L0.666666667,-0.333333333 L0.860412731,-0.27124449 L5.44015502,3 L6.57106792,3 L12.3333333,-0.601415881 L12.3333333,0.333333333 C12.3333333,0.628978368 12.1628101,0.960008269 11.9158002,1.1364439 L7.66666667,4.1715393 L7.66666667,5.18002169 L11.9660302,8.86519043 C12.3427037,9.18805344 12.1509712,9.66666667 11.6666667,9.66666667 C11.4092185,9.66666667 11.0776031,9.56030345 10.8616414,9.40604508 L6.55984498,6.33333333 L5.42893208,6.33333333 L-0.333333333,9.93474921 L-0.333333333,8.49512737 L4.33333333,5.16179403 L4.33333333,4.15331164 Z" id="Rectangle-36" stroke="#FFFFFF" stroke-width="0.666666667" fill="#FF2E3B" mask="url(#mask-2)"></path>
            <path d="M0,3.33333333 L0,6 L4.66666667,6 L4.66666667,9.33948135 C4.66666667,9.70427573 4.97256724,10 5.33957926,10 L6.66042074,10 C7.0320601,10 7.33333333,9.69934988 7.33333333,9.33948135 L7.33333333,6 L11.9911963,6 C12.3642483,6 12.6666667,5.69409943 12.6666667,5.3270874 L12.6666667,4.00624593 C12.6666667,3.63460657 12.3646425,3.33333333 11.9911963,3.33333333 L7.33333333,3.33333333 L7.33333333,0 L4.66666667,0 L4.66666667,3.33333333 L0,3.33333333 Z" id="Rectangle-2" fill="#FFFFFF" mask="url(#mask-2)"></path>
            <polygon id="Rectangle-36" fill="#FF2E3B" mask="url(#mask-2)" points="0 4 5.33333333 4 5.33333333 3.33333333 5.33333333 0 6.66666667 0 6.66666667 3.33333333 6.66666667 4 12 4 12 5.33333333 6.66666667 5.33333333 6.66666667 6 6.66666667 9.33333333 5.33333333 9.33333333 5.33333333 6 5.33333333 5.33333333 0 5.33333333"></polygon>
            <polygon id="Star-2" stroke="#FFFFFF" stroke-width="0.25" fill="#CA1931" mask="url(#mask-2)" points="20 17.3333333 19.057191 17.6094757 19.3333333 16.6666667 19.057191 15.7238576 20 16 20.942809 15.7238576 20.6666667 16.6666667 20.942809 17.6094757"></polygon>
            <polygon id="Star-2" stroke="#FFFFFF" stroke-width="0.25" fill="#CA1931" mask="url(#mask-2)" points="20 4.66666667 19.057191 4.94280904 19.3333333 4 19.057191 3.05719096 20 3.33333333 20.942809 3.05719096 20.6666667 4 20.942809 4.94280904"></polygon>
            <polygon id="Star-2" stroke="#FFFFFF" stroke-width="0.25" fill="#CA1931" mask="url(#mask-2)" points="24 8.66666667 23.057191 8.94280904 23.3333333 8 23.057191 7.05719096 24 7.33333333 24.942809 7.05719096 24.6666667 8 24.942809 8.94280904"></polygon>
            <polygon id="Star-2" stroke="#FFFFFF" stroke-width="0.25" fill="#CA1931" mask="url(#mask-2)" points="16 10 15.057191 10.2761424 15.3333333 9.33333333 15.057191 8.39052429 16 8.66666667 16.942809 8.39052429 16.6666667 9.33333333 16.942809 10.2761424"></polygon>
        </g>
    </g>
</svg>