<svg id="Layer_1" data-name="Layer 1" xmlns="http://www.w3.org/2000/svg" viewBox="0 0 38 38"><defs><style>.cls-1,.cls-2,.cls-3{fill:none;stroke:#323232;}.cls-1,.cls-3{stroke-linejoin:round;}.cls-1,.cls-2{stroke-width:0.5px;}.cls-2{stroke-linecap:round;stroke-miterlimit:10;}.cls-3{stroke-width:0.75px;}.cls-4{fill:#323232;}</style></defs><title>category_icon</title><path class="cls-1" d="M33.19 20.66a5.36 5.36 0 0 1-3.75-1.54s-.77-.67-.55-.93 2.2 0 3.18.61"/><circle class="cls-1" cx="8.92" cy="24.05" r="2.69"/><path class="cls-2" d="M7.28 20a3.82 3.82 0 0 1 5.82 3"/><circle class="cls-1" cx="8.92" cy="24.05" r="1.53"/><circle class="cls-1" cx="28.1" cy="24.05" r="2.69"/><circle class="cls-1" cx="28.1" cy="24.05" r="1.53"/><path class="cls-3" d="M32.8 20.38c-.08 0-.12-2.55-4.31-3.6a36.26 36.26 0 0 1-6.57-3.13 14 14 0 0 0-7.22-1.6 31.91 31.91 0 0 0-7 .63c-.51.16-.23.51-.23.51-.68.91-1.76 4.55-2 5.15s-.72 1.6-.72 1.6a3.65 3.65 0 0 0-.58 2.47 2.37 2.37 0 0 0 1.93 2.21 2.81 2.81 0 0 1 3.36-3.31 2.79 2.79 0 0 1 2.13 2.12 2.87 2.87 0 0 1 0 1.35h13.85a2.79 2.79 0 1 1 5.38 0h1.26a1.3 1.3 0 0 0 1.3-1.3v-2.31a.83.83 0 0 0-.58-.79z"/><path class="cls-1" d="M14.49 16.74v-3.39l-4.14.23s-1.94.07-2.24 3.16zM15.44 16.76v-3.4h1.46a8.93 8.93 0 0 1 2.77.43 13.13 13.13 0 0 1 4.67 3z"/><path class="cls-2" d="M13.17 22.97H23.5"/><path class="cls-4" d="M23.25 22.95a4.63 4.63 0 0 1 1-2.1 3.5 3.5 0 0 1 1.89-1.18A3.38 3.38 0 0 0 24.42 21a4.27 4.27 0 0 0-.67 2z"/><path class="cls-2" d="M33.19 22.75h-1.65"/></svg>