<svg id="Layer_1" xmlns="http://www.w3.org/2000/svg" viewBox="0 0 38 38"><style>.st0{fill:#FCFCFC;} .st1{fill:#F1F1F1;} .st2{fill:none;stroke:#EDEDED;stroke-width:1.4;stroke-linecap:round;stroke-linejoin:round;} .st3{fill:#EDEDED;} .st4{fill:#CCDB28;} .st5{fill:#E56355;} .st6{fill:#FEFFEF;stroke:#000000;stroke-width:0.5;stroke-linejoin:round;} .st7{fill:#9E6F50;} .st8{fill:#C16B3C;} .st9{fill:#8F4F2C;} .st10{fill:#A9483F;} .st11{fill:#323232;} .st12{fill:#181818;} .st13{fill:#DEDEDE;stroke:#000000;stroke-width:0.35;stroke-linejoin:round;} .st14{fill:#B3BF23;} .st15{fill:none;stroke:#000000;stroke-width:0.5;stroke-linejoin:round;} .st16{fill:none;stroke:#000000;stroke-width:0.5;stroke-linecap:round;stroke-linejoin:round;} .st17{fill:none;stroke:#BABABA;stroke-width:0.5;stroke-linecap:round;stroke-linejoin:round;} .st18{fill:#D5D5D5;stroke:#000000;stroke-width:0.35;stroke-linecap:round;stroke-miterlimit:10;} .st19{fill:none;stroke:#000000;stroke-width:0.35;stroke-linecap:round;stroke-miterlimit:10;} .st20{fill:#F2F2F2;} .st21{opacity:0.51;fill:url(#SVGID_1_);enable-background:new ;}</style><title>category_icon</title><path class="st0" d="M30.5 24.7c.7-1.7-.2-3.7-1.9-4.3-.5-.2-1-.3-1.5-.2-1.2.1-2.2.9-2.7 1.9-.4.8-.5 1.7-.1 2.6H11.6c.7-1.7-.2-3.7-1.9-4.3-.5-.2-1-.3-1.5-.2-1.2.1-2.2.9-2.7 1.9-.4.8-.5 1.7-.1 2.6H3.3c-.5 0-.9-.4-.9-.9v-2.7l1-.9 1-4.1c.2-.8.9-1.4 1.7-1.7l1-.1c4.7-.4 9.4-.2 14 .5.7.1 1.4.3 2 .6.6.3 2.9 2.2 3.4 2.4s4.7.4 7.5 1.6c0 0 1.2.7 1.2 1.3v3.1s-.1 1-1.3 1l-3.4-.1z"/><path class="st1" d="M33.8 24.7c1.3 0 1.3-1 1.3-1v-3.1c0-.6-1.2-1.3-1.2-1.3-2.8-1.3-7-1.5-7.5-1.6s-2.9-2.1-3.4-2.4c-.6-.3-1.3-.5-2-.6-4.6-.7-9.3-.9-14-.5l-1 .1c-.8.3-1.4.9-1.7 1.7l-1 4.1-.7.6 2.6 1.8c0-.2.1-.3.2-.5.3-.6.8-1.1 1.3-1.5 0 0 1.2-2.8 2.6-3.3v-1.9h5.2v2h1l7.6.3s3.2.7 4.6 2.4c1.8.3 3.1 2 2.8 3.8 0 .2-.1.5-.2.7l3.5.2z"/><path class="st2" d="M7.2 18.3s3.2-.5 5 1c.9.7 1.5 1.7 1.8 2.8h7.7"/><path class="st3" d="M20.6 22c.2-.5.4-1 .7-1.4.3-.4.7-.8 1.1-1.1.4-.3.9-.5 1.4-.6.5-.1.9-.1 1.4-.1-.5.1-.9.2-1.3.4s-.7.5-1 .8c-.3.3-.5.7-.6 1.1l-.3 1.2c0 .4-.3.7-.7.8-.4 0-.7-.3-.8-.7v-.2c.1-.1.1-.1.1-.2z"/><path class="st4" d="M33.8 24.7c1.3 0 1.3-1 1.3-1v-2.9h-2.3l-2.3 1.6c.3.7.3 1.5 0 2.3h3.3z"/><path class="st5" d="M7.4 10.5h3.9v2.3H7.4z"/><path class="st6" d="M34 19.4c-.8-.3-1.5-.6-2.3-.8-1 .1 1.2 2.2 1.2 2.2h2.3v-.2c0-.5-1.2-1.2-1.2-1.2z"/><path class="st7" d="M11.3 10.5h2.3v2.3h-2.3z"/><path class="st8" d="M13.6 11.4h6v1.4h-6z"/><path class="st9" d="M13.6 11.4h1.1v1.4h-1.1z"/><path class="st10" d="M10.1 10.5h1.2v2.3h-1.2z"/><circle class="st11" cx="8.4" cy="23.5" r="3.5"/><path class="st12" d="M8.4 21.7c1.6 0 3 1.1 3.4 2.6.5-1.9-.6-3.8-2.5-4.2s-3.8.6-4.2 2.5c-.1.6-.1 1.2 0 1.7.3-1.5 1.7-2.6 3.3-2.6z"/><circle class="st13" cx="8.4" cy="23.5" r="1.7"/><circle class="st11" cx="27.4" cy="23.5" r="3.5"/><path class="st14" d="M33.8 24.7c1.3 0 1.3-1 1.3-1V23h-4.5v.5c0 .4-.1.8-.2 1.2h3.4z"/><path class="st12" d="M27.4 21.7c1.6 0 3 1.1 3.4 2.6.5-1.9-.6-3.8-2.5-4.2s-3.8.6-4.2 2.5c-.1.6-.1 1.2 0 1.7.3-1.5 1.7-2.6 3.3-2.6z"/><circle class="st13" cx="27.4" cy="23.5" r="1.7"/><path class="st4" d="M2.3 23.8c0 .5.4.9.9.9h2.1c-.3-.8-.3-1.8.1-2.6.2-.3.4-.6.7-.9l-2.8-1-1 .9v2.7z"/><path class="st14" d="M3.3 24.7h2.1c-.3-.8-.3-1.8.1-2.6.2-.3.4-.6.7-.9L5 20.8c-.5.6-.9 1.3-1 2-.2 1.2-1.6 1-1.6 1 0 .5.4.9.9.9z"/><path class="st15" d="M30.5 24.7c.7-1.7-.2-3.7-1.9-4.3-.5-.2-1-.3-1.5-.2-1.2.1-2.2.9-2.7 1.9-.4.8-.5 1.7-.1 2.6H11.6c.7-1.7-.2-3.7-1.9-4.3-.5-.2-1-.3-1.5-.2-1.2.1-2.2.9-2.7 1.9-.4.8-.5 1.7-.1 2.6H3.3c-.5 0-.9-.4-.9-.9v-2.7l1-.9 1-4.1c.2-.8.9-1.4 1.7-1.7l1-.1c4.7-.4 9.4-.2 14 .5.7.1 1.4.3 2 .6.6.3 2.9 2.2 3.4 2.4s4.7.4 7.5 1.6c0 0 1.2.7 1.2 1.3v3.1s-.1 1-1.3 1l-3.4-.1z"/><path class="st16" d="M35.2 22.4h-1.9"/><path class="st17" d="M7.2 18.8s2.9-.7 4.7 1 1.6 3.1 1.6 3.1h8.6s.3-2.7 2.5-3.4"/><path class="st18" d="M15.7 17.6l7.6.3-.9-1.1c-.6-.5-1.3-.8-2.1-.8-1.5-.2-3.1-.4-4.6-.5v2.1zM8.4 15.6h-.2c-.9 0-1.7.8-1.8 1.7l2.1.1v-1.8zM9.4 15.5v1.9l5.2.2v-2.1c-1.4-.1-3.2-.1-5.2 0z"/><path class="st16" d="M6.1 12.8h14.6"/><path class="st15" d="M7.7 10.5h5.7c.1 0 .3.1.3.3v2.1H7.4v-2.1c0-.2.1-.3.3-.3zM11.3 12.8v-2.3"/><path class="st15" d="M13.6 11.4h5.7c.1 0 .2.1.2.2v1.2h-5.9v-1.4zM9.4 12.8V14M18.4 12.8v1.5"/><path class="st19" d="M3.3 20.2l2.8 1M32.8 20.8l-2.2 1.6"/><path class="st20" d="M9.8 16.1H13v.6H9.8zM16.1 16.4v.5h4z"/><radialGradient id="SVGID_1_" cx="6.229" cy="-633.747" r="11.332" gradientTransform="matrix(1.05 0 0 -.03 12.44 8.04)" gradientUnits="userSpaceOnUse"><stop offset="0" stop-opacity=".2"/><stop offset=".16" stop-color="#231F20" stop-opacity=".2"/><stop offset=".85" stop-color="#231F20" stop-opacity=".15"/><stop offset=".94" stop-color="#231F20" stop-opacity=".1"/><stop offset=".99" stop-color="#8C8E24" stop-opacity=".04"/><stop offset="1" stop-color="#CFD527" stop-opacity="0"/></radialGradient><path class="st21" d="M35.4 27.1c0 1 3.2 1.7-15.6 1.7S2.3 28 2.3 27.1 1 25.4 19.8 25.4s15.6.7 15.6 1.7z"/></svg>