<svg id="Layer_1" data-name="Layer 1" xmlns="http://www.w3.org/2000/svg" viewBox="0 0 38 38"><defs><style>.cls-1{fill:#fede00;}.cls-2{fill:#bdbdbd;}.cls-3{fill:#069c1a;}.cls-4{fill:#323232;}.cls-5{fill:#fcffdf;}.cls-6{fill:#068817;}.cls-7{fill:#e3e3e3;}.cls-8{fill:none;stroke-width:0.5px;}.cls-10,.cls-8{stroke:#000;stroke-linejoin:round;}.cls-9{fill:#181818;}.cls-10{fill:#dedede;stroke-width:0.35px;}</style></defs><title>e_rickshaw</title><path class="cls-1" d="M32.17 20c-.5-.83-1.58-1.79-4-1.37l.21-1.12 1 .27V15l-1.37.67-.71.08s-1.5-1.54-2.21-1.62-2.08 1-2.08 1a.68.68 0 0 0-.25 1c.38.58 1.54-.5 2.17-.58 0 0 1.38.67 1.58 1.71a5.45 5.45 0 0 1-.33 3c-.37 1-1.12 4.25-4 3.88V21a1.15 1.15 0 0 0-1.25-1.29h-2.51v-6.45a.74.74 0 0 1 .79-.83h9s.46-.33 0-.67a6.18 6.18 0 0 0-3.42-1.08H9s-3.42 0-3.42.83v13s.33 1 1.83.79a2.84 2.84 0 1 1 5.11 0h12.94s.88.25 1-.92c0 0-.3-3.6 3-4a5 5 0 0 1 2.75.54s.46-.04-.04-.92zm-13.9-6.79v10.53H15.8c0-3.5-3.09-5.66-5.5-6.12s-2.78-2.1-2.59-3.82 2.77-1.37 2.77-1.37h7a.74.74 0 0 1 .79.83z"/><path class="cls-2" d="M26.42 24.34s-.3-3.6 3-4a5 5 0 0 1 2.75.54s.5 0 0-.87-1.58-1.79-4-1.37c-.04.03-3.44 4.03-1.75 5.7z"/><path class="cls-3" d="M28.13 18.67l.21-1.12 1 .27V15l-1.37.67-.71.08s-1.5-1.54-2.21-1.62-2.08 1-2.08 1a.68.68 0 0 0-.25 1c.38.58 1.54-.5 2.17-.58 0 0 1.38.67 1.58 1.71a5.45 5.45 0 0 1-.33 3c-.37 1-1.12 4.25-4 3.88V21a1.15 1.15 0 0 0-1.25-1.29h-2.47v-3.25l-.15.08v7.19H15.8a5.85 5.85 0 0 0-2.23-4.54 5 5 0 0 0-4.49-.71 5.16 5.16 0 0 0-3.46 3.06v2.92s.33 1 1.83.79a2.84 2.84 0 1 1 5.11 0h12.9s.88.25 1-.92a4.33 4.33 0 0 1 1-3c.09-.19 1.06-2.72.67-2.66z"/><path class="cls-4" d="M29.29 15l-1.37.67-.71.08s-1.5-1.54-2.21-1.62-2.08 1-2.08 1a.68.68 0 0 0-.25 1c.38.58 1.54-.5 2.17-.58a3.48 3.48 0 0 1 1.48 1.41 20.76 20.76 0 0 0 2 .63l1 .27z"/><path class="cls-5" d="M28.33 17.55v-2.08l.96-.46v2.81l-.96-.27z"/><path class="cls-6" d="M22 20.86v0zM26.42 23.2c-.08 1.17-1 .92-1 .92H23a3.23 3.23 0 0 1-.93 0h-9.2a2.84 2.84 0 0 1-.28 1.14h12.87s.88.25 1-.92z"/><path class="cls-7" d="M30.43 18.73l-1.26 1.59.06.09h.19a5 5 0 0 1 2.75.54s.5 0 0-.87a2.9 2.9 0 0 0-1.74-1.35z"/><path class="cls-6" d="M5.63 23.33v1.14s.33 1 1.83.79a2.84 2.84 0 0 1-.28-1.12 1.45 1.45 0 0 1-1.55-.81zM12.85 22.89a2.84 2.84 0 1 0-5.69 0 2.66 2.66 0 0 0 .07.54 2.84 2.84 0 0 1 5.56 0 2.67 2.67 0 0 0 .06-.54z"/><path class="cls-8" d="M32.17 20c-.5-.83-1.58-1.79-4-1.37l.21-1.12 1 .27V15l-1.37.67-.71.08s-1.5-1.54-2.21-1.62-2.08 1-2.08 1a.68.68 0 0 0-.25 1c.38.58 1.54-.5 2.17-.58 0 0 1.38.67 1.58 1.71a5.45 5.45 0 0 1-.33 3c-.37 1-1.12 4.25-4 3.88V21a1.15 1.15 0 0 0-1.25-1.29h-2.51v-6.45a.74.74 0 0 1 .79-.83h9s.46-.33 0-.67a6.18 6.18 0 0 0-3.42-1.08H9s-3.42 0-3.42.83v13s.33 1 1.83.79a2.84 2.84 0 1 1 5.11 0h12.94s.88.25 1-.92c0 0-.3-3.6 3-4a5 5 0 0 1 2.75.54s.46-.04-.04-.92zm-13.9-6.79v10.53H15.8c0-3.5-3.09-5.66-5.5-6.12s-2.78-2.1-2.59-3.82 2.77-1.37 2.77-1.37h7a.74.74 0 0 1 .79.83z"/><circle class="cls-4" cx="10.01" cy="24.03" r="2.72"/><path class="cls-9" d="M10 22.25a2.71 2.71 0 0 1 2.67 2.25 2.72 2.72 0 1 0-5.34 0A2.71 2.71 0 0 1 10 22.25z"/><circle class="cls-10" cx="10.01" cy="24.03" r="1.26"/><circle class="cls-4" cx="29.96" cy="24.03" r="2.72"/><path class="cls-9" d="M30 22.25a2.71 2.71 0 0 1 2.67 2.25 2.72 2.72 0 1 0-5.34 0A2.71 2.71 0 0 1 30 22.25z"/><circle class="cls-10" cx="29.96" cy="24.03" r="1.26"/><path class="cls-8" d="M5.63 21.55a5.16 5.16 0 0 1 3.46-3.06 5.06 5.06 0 0 1 4.5.72M28.13 18.67l-.74 2.64M26.32 16.92a20.76 20.76 0 0 0 2 .63"/></svg>