<svg id="Layer_1" data-name="Layer 1" xmlns="http://www.w3.org/2000/svg" viewBox="0 0 38 38"><defs><style>.cls-1,.cls-2,.cls-3{fill:none;stroke:#323232;stroke-linejoin:round;}.cls-1{stroke-linecap:round;}.cls-1,.cls-3{stroke-width:0.5px;}.cls-2{stroke-width:0.75px;}</style></defs><title>e_rickshaw</title><path class="cls-1" d="M18.27 23.74V13.26a.74.74 0 0 0-.79-.83h-7s-2.58-.35-2.77 1.37.19 3.34 2.59 3.81 5.5 2.63 5.5 6.13z"/><path class="cls-2" d="M32.17 20c-.5-.83-1.58-1.79-4-1.37l.21-1.12 1 .27V15l-1.37.67-.71.08s-1.5-1.54-2.21-1.62-2.08 1-2.08 1a.68.68 0 0 0-.25 1c.38.58 1.54-.5 2.17-.58 0 0 1.38.67 1.58 1.71a5.45 5.45 0 0 1-.33 3c-.37 1-1.12 4.25-4 3.88V21a1.15 1.15 0 0 0-1.25-1.29h-2.51v-6.45a.74.74 0 0 1 .79-.83h9s.46-.33 0-.67a6.18 6.18 0 0 0-3.42-1.08H9s-3.42 0-3.42.83v13s.33 1 1.83.79a2.84 2.84 0 1 1 5.11 0h12.94s.88.25 1-.92c0 0-.3-3.6 3-4a5 5 0 0 1 2.75.54s.46-.04-.04-.92z"/><circle class="cls-3" cx="10.01" cy="24.03" r="2.72"/><circle class="cls-3" cx="10.01" cy="24.03" r="1.26"/><circle class="cls-3" cx="29.96" cy="24.03" r="2.72"/><circle class="cls-3" cx="29.96" cy="24.03" r="1.26"/><path class="cls-3" d="M5.63 21.55a5.16 5.16 0 0 1 3.46-3.06 5.06 5.06 0 0 1 4.5.72"/></svg>