<svg id="Layer_1" xmlns="http://www.w3.org/2000/svg" viewBox="0 0 38 38"><style>.st0{fill:url(#SVGID_1_);} .st1{fill:#CCDB28;} .st2{fill:#B3BF23;} .st3{fill:#323232;} .st4{fill:#181818;} .st5{fill:#DEDEDE;stroke:#000000;stroke-width:0.5;stroke-linejoin:round;} .st6{fill:none;stroke:url(#SVGID_2_);stroke-width:1.2;stroke-linecap:round;stroke-linejoin:round;} .st7{fill:none;stroke:#7A9E44;stroke-width:0.5;stroke-linecap:round;stroke-linejoin:round;} .st8{fill:#E0E0E0;stroke:#000000;stroke-width:0.5;stroke-miterlimit:10;} .st9{fill:#7A9E44;} .st10{fill:#FDFFE4;stroke:#000000;stroke-width:0.35;stroke-linejoin:round;} .st11{fill:none;stroke:#000000;stroke-width:0.5;stroke-linecap:round;stroke-linejoin:round;} .st12{fill:#1C1C1C;stroke:#000000;stroke-width:0.5;stroke-linejoin:round;} .st13{fill:none;stroke:#000000;stroke-width:0.35;stroke-linejoin:round;} .st14{fill:none;stroke:#000000;stroke-width:0.5;stroke-linejoin:round;} .st15{opacity:0.51;fill:url(#SVGID_3_);enable-background:new ;}</style><title>category_icon</title><linearGradient id="SVGID_1_" gradientUnits="userSpaceOnUse" x1="18.97" y1="15.25" x2="18.97" y2="24.06" gradientTransform="matrix(1 0 0 -1 0 40)"><stop offset="0" stop-color="#86C922"/><stop offset=".42" stop-color="#95D03E"/><stop offset="1" stop-color="#ADDA69"/></linearGradient><path class="st0" d="M3.3 19.4l.4-3.1c0-.2.2-.3.3-.3 1.7 0 9.8.2 16.9.5 3.5.2 6.8.3 9 .6 2.5.3 5.8 2.4 6.4 4.3.1.5.2 1 .2 1.5.1 1-.6 1.8-1.6 1.9H32.6c.7-1.8-.2-3.7-2-4.4-.5-.2-1-.3-1.5-.2-1.2.1-2.3.9-2.8 2-.3.8-.3 1.7 0 2.6H10.2c.7-1.7-.2-3.7-1.9-4.4-.5-.2-1-.3-1.6-.2-1.2.1-2.3.9-2.8 2-.4.8-.5 1.8-.1 2.6h-1c-.8 0-1.4-.6-1.4-1.4v-2c0-.6.3-1.2.9-1.5l1-.5z"/><path class="st1" d="M35.2 19.6h-2.7l-1.2 1c1.4.8 2 2.6 1.4 4.1h2.1c1 0 1.7-.8 1.8-1.7v-.2c0-.5 0-1-.2-1.5-.2-.6-.7-1.2-1.2-1.7zM1.4 21.4v2c0 .8.6 1.4 1.4 1.4h1c-.3-.9-.3-1.8.2-2.6.3-.6.7-1 1.2-1.4l-1.9-1.4-1 .5c-.5.3-.9.8-.9 1.5z"/><path class="st2" d="M2.8 24.8h1c-.3-.9-.3-1.8.1-2.6.3-.6.7-1 1.2-1.4l-.9-.7c-1 .7-1.6 1.8-1.7 3 0 0 .1.5-1.1.3.1.7.7 1.3 1.4 1.4zM31.3 20.6c1.4.8 2 2.6 1.4 4.1h1.5c.2-4.3-1.7-5.1-1.7-5.1l-1.2 1z"/><circle class="st3" cx="7" cy="23.6" r="3.2"/><path class="st4" d="M7 21.5c1.6 0 2.9 1.1 3.2 2.7.3-1.8-.8-3.5-2.6-3.8-1.8-.4-3.5.8-3.8 2.6-.1.4-.1.8 0 1.2.3-1.6 1.6-2.7 3.2-2.7z"/><circle class="st5" cx="7" cy="23.6" r="1.7"/><circle class="st3" cx="29.5" cy="23.6" r="3.2"/><path class="st4" d="M29.5 21.5c1.6 0 2.9 1.1 3.2 2.7.3-1.8-.8-3.5-2.6-3.8-1.8-.3-3.5.8-3.8 2.6-.1.4-.1.8 0 1.2.3-1.6 1.7-2.7 3.2-2.7z"/><circle class="st5" cx="29.5" cy="23.6" r="1.7"/><linearGradient id="SVGID_2_" gradientUnits="userSpaceOnUse" x1="18.56" y1="17.17" x2="18.56" y2="23.302" gradientTransform="matrix(1 0 0 -1 0 40)"><stop offset="0" stop-color="#7DBB1F"/><stop offset=".58" stop-color="#95C64A"/><stop offset="1" stop-color="#A4CD66"/></linearGradient><path class="st6" d="M6.7 17.3s5.4-.3 5.8 4.9h11.1s.5-5.2 6.8-4.2"/><path class="st7" d="M6.9 17.8c2.8 0 5.2 2.2 5.2 5.1h12.1"/><path class="st8" d="M26.8 16.8l-1.1-3.4c1.6 1 3.1 2.2 4.3 3.6"/><path class="st9" d="M23.9 22.8c.1-.8.3-1.5.7-2.2.4-.7.9-1.2 1.6-1.6.6-.4 1.4-.6 2.1-.6h1.1l1.1.1-1.1-.1c-.4 0-.7 0-1.1.1-.7.1-1.4.3-2 .7-1.2.8-1.9 2.2-1.9 3.6 0 .1-.1.2-.2.2s-.3 0-.3-.2z"/><path class="st10" d="M31.6 17.5l.9 2.2h2.7c-1.1-.9-2.3-1.6-3.6-2.2z"/><path class="st11" d="M36.6 22.8h-1.9"/><path class="st12" d="M19.8 16.4s-.2-2.5 1.7-2.6 2.2 2.8 2.2 2.8"/><circle class="st12" cx="21.5" cy="12.6" r="1.2"/><path class="st12" d="M13.7 16.2c0-.6.2-2.3 1.7-2.4s2 1.8 2.1 2.5"/><circle class="st12" cx="15.4" cy="12.6" r="1.2"/><path class="st12" d="M7.8 16c0-.7.3-2.1 1.7-2.2s1.9 1.5 2.1 2.3"/><circle class="st12" cx="9.5" cy="12.6" r="1.2"/><path class="st13" d="M32.5 19.6l-1.2 1M5.1 20.7l-1.8-1.3"/><path class="st14" d="M3.3 19.4l.4-3.1c0-.2.2-.3.3-.3 1.7 0 9.8.2 16.9.5 3.5.2 6.8.3 9 .6 2.5.3 5.8 2.4 6.4 4.3.1.5.2 1 .2 1.5.1 1-.6 1.8-1.6 1.9H32.6c.7-1.8-.2-3.7-2-4.4-.5-.2-1-.3-1.5-.2-1.2.1-2.3.9-2.8 2-.3.8-.3 1.7 0 2.6H10.2c.7-1.7-.2-3.7-1.9-4.4-.5-.2-1-.3-1.6-.2-1.2.1-2.3.9-2.8 2-.4.8-.5 1.8-.1 2.6h-1c-.8 0-1.4-.6-1.4-1.4v-2c0-.6.3-1.2.9-1.5l1-.5z"/><radialGradient id="SVGID_3_" cx="15.548" cy="-633.747" r="11.33" gradientTransform="matrix(1.05 0 0 -.03 2.73 8.04)" gradientUnits="userSpaceOnUse"><stop offset="0" stop-opacity=".2"/><stop offset=".16" stop-color="#231F20" stop-opacity=".2"/><stop offset=".85" stop-color="#231F20" stop-opacity=".15"/><stop offset=".94" stop-color="#231F20" stop-opacity=".1"/><stop offset=".99" stop-color="#8C8E24" stop-opacity=".04"/><stop offset="1" stop-color="#CFD527" stop-opacity="0"/></radialGradient><path class="st15" d="M35.4 27.1c0 1 3.2 1.7-15.6 1.7S2.3 28 2.3 27.1 1 25.4 19.8 25.4s15.6.7 15.6 1.7z"/></svg>