<svg width="59" height="59" viewBox="0 0 59 59" xmlns="http://www.w3.org/2000/svg"><title>Icon</title><g fill="none" fill-rule="evenodd"><path d="M27.39 14.47L21.322 1.31l-2.05 1.45 5.665 12.29c.796-.26 1.615-.457 2.45-.58zM34.062 15.05l5.664-12.29-2.05-1.45-6.065 13.16c.837.123 1.656.32 2.452.58zM43.696 27.39l12.026-6.067-1.326-2.05-11.23 5.665c.24.796.418 1.615.53 2.45zM43.165 34.062l11.23 5.664 1.327-2.05-12.026-6.065c-.112.837-.29 1.656-.53 2.452zM31.61 44.94l6.067 10.614 2.05-1.17-5.665-9.914c-.796.212-1.615.37-2.45.47zM24.938 44.47l-5.664 9.913 2.05 1.17 6.065-10.614c-.837-.1-1.656-.258-2.452-.47zM14.47 31.61L1.31 37.678l1.45 2.05 12.29-5.665c-.26-.796-.457-1.615-.58-2.45zM15.05 24.938L2.76 19.274l-1.45 2.05 13.16 6.065c.123-.837.32-1.656.58-2.452z" fill="#616161" fill-rule="nonzero"/><path d="M56.317 20.76c1.844 5.67 1.844 11.808 0 17.48-1.364 4.2-3.69 8.025-6.87 11.206-3.18 3.18-7.007 5.506-11.207 6.872-5.672 1.843-11.81 1.843-17.48 0-4.2-1.366-8.025-3.69-11.206-6.872-3.18-3.18-5.506-7.005-6.87-11.206-1.845-5.67-1.845-11.807 0-17.48 1.363-4.2 3.69-8.025 6.87-11.207 3.18-3.18 7.006-5.506 11.205-6.87 5.67-1.844 11.81-1.844 17.48 0 4.2 1.365 8.026 3.69 11.206 6.87 3.18 3.182 5.507 7.007 6.87 11.206zM43.634 32.315c.37-1.858.37-3.774 0-5.633-.55-2.773-1.9-5.33-3.943-7.374-2.042-2.043-4.6-3.395-7.374-3.944-1.857-.37-3.773-.37-5.632 0-2.775.55-5.333 1.9-7.375 3.943-2.043 2.04-3.394 4.598-3.946 7.374-.367 1.86-.367 3.774 0 5.632.552 2.776 1.903 5.333 3.945 7.375 2.04 2.043 4.6 3.395 7.374 3.944 1.858.37 3.774.37 5.63 0 2.776-.55 5.334-1.9 7.377-3.942 2.044-2.044 3.395-4.602 3.944-7.376z" stroke="#000" stroke-width="2.6"/></g></svg>