<svg id="Layer_1" data-name="Layer 1" xmlns="http://www.w3.org/2000/svg" viewBox="0 0 38 38"><defs><style>.cls-1,.cls-2,.cls-3,.cls-5{fill:none;stroke:#323232;}.cls-1,.cls-2,.cls-3{stroke-linejoin:round;}.cls-1,.cls-2,.cls-5{stroke-width:0.5px;}.cls-2,.cls-5{stroke-linecap:round;}.cls-3{stroke-width:0.75px;}.cls-4{fill:#323232;}.cls-5{stroke-miterlimit:10;}</style></defs><title>category_icon</title><circle class="cls-1" cx="6.55" cy="23.47" r="3.25"/><circle class="cls-1" cx="6.55" cy="23.47" r="1.74"/><path class="cls-2" d="M3.56 19.08c3.92-2.71 7.85.39 7.85 3.19h14.76"/><circle class="cls-1" cx="30.99" cy="23.47" r="3.25"/><path class="cls-3" d="M.48 20.05a.78.78 0 0 1 .42-.8l.6-2.85h1.58a1.42 1.42 0 0 0 1-.35 22.54 22.54 0 0 1 12-3.32c6.42 0 8.25 1.13 12.88 3.94a6.57 6.57 0 0 0 2 .44 33.08 33.08 0 0 1 4 .7c.54.15 1.69.38 1.54 2.55a1.17 1.17 0 0 1 1 .59v2.63a.63.63 0 0 1-.59.59l-2.76.5a3.4 3.4 0 0 0-3.49-4.59 3.49 3.49 0 0 0-2.79 2 3.19 3.19 0 0 0-.12 2.62h-18a3.4 3.4 0 0 0-3.49-4.59 3.49 3.49 0 0 0-2.79 2 3.19 3.19 0 0 0-.12 2.62L1.46 23.6s-1 .1-1-.73z"/><circle class="cls-1" cx="30.99" cy="23.47" r="1.74"/><path class="cls-4" d="M25.92 22.28a4.38 4.38 0 0 1 .3-1.45A3.71 3.71 0 0 1 27 19.6a3.51 3.51 0 0 1 1.18-.82 5.05 5.05 0 0 1 1.36-.37 5 5 0 0 0-1.31.48 3.32 3.32 0 0 0-1 .87 3.72 3.72 0 0 0-.77 2.49.25.25 0 0 1-.5 0s-.04.04-.04.03z"/><path class="cls-2" d="M.9 19.25s1 .17 1.38-.25-.64-1.72-.94-1.79M35.68 18.04l-1.44.99.84 1.31h1.46M37.39 22.36h-1.46"/><path class="cls-5" d="M11.25 16.38v-1.57a8.9 8.9 0 0 0-3.79 1.46zM12.31 16.38v-1.73a26.06 26.06 0 0 1 5.94-.25v2.2zM19.29 16.6v-2.08a12.65 12.65 0 0 1 6.38 2.23z"/></svg>