<svg width="66" height="48" viewBox="0 0 66 48" xmlns="http://www.w3.org/2000/svg"><title>Icon</title><g stroke="#000" fill="none" fill-rule="evenodd"><path stroke-width="1.95" stroke-linecap="round" stroke-linejoin="round" d="M29.804 19.384l.624-3.932-2.777-2.76 3.807-.6 1.68-3.585 1.73 3.56 3.815.544-2.74 2.802.678 3.923-3.42-1.83z"/><path d="M6.873 37.007s26.12 20.076 52.318-.25c0 0-26.43-9.822-52.317.25z" stroke-width="2.6" stroke-linecap="round" stroke-linejoin="round"/><path d="M59.268 36.373l.767-4.39 3.975-8.48c.672-1.313.282-3.05-.853-3.724-3.407-2.023-6.74-4.09-9.912-6.656-3.243-2.62-6.386-5.443-9.816-7.69C40.256 3.35 36.697 2.14 33.14 2c-3.56.14-7.12 1.35-10.293 3.434-3.428 2.247-6.573 5.07-9.813 7.69-3.172 2.565-6.507 4.633-9.912 6.655-1.135.674-1.527 2.41-.855 3.723l3.975 8.48.7 5.18" stroke-width="2.6" stroke-linecap="round" stroke-linejoin="round"/><path d="M6.242 32.817s25.027-14.787 53.795 0" stroke-width="2.6"/></g></svg>