<svg id="Layer_1" xmlns="http://www.w3.org/2000/svg" viewBox="0 0 38 38"><style>.st0{fill:#FDFDFD;} .st1{fill:#4F4F4F;} .st2{fill:#393939;} .st3{fill:#DEDEDE;stroke:#000000;stroke-width:0.5;stroke-linejoin:round;} .st4{fill:none;} .st5{fill:#DBDBDB;} .st6{fill:#D4E147;} .st7{fill:#BECA43;} .st8{fill:none;stroke:#EDEDED;stroke-width:1.4;stroke-linecap:round;stroke-linejoin:round;} .st9{fill:#EDEDED;} .st10{fill:none;stroke:#E5E5E5;stroke-width:1.4;stroke-linecap:round;stroke-linejoin:round;} .st11{fill:none;stroke:#000000;stroke-width:0.5;stroke-linejoin:round;} .st12{fill:none;stroke:#C9C9C9;stroke-width:0.5;stroke-linecap:round;stroke-miterlimit:10;} .st13{fill:#C9C9C9;} .st14{fill:#FDFFE4;stroke:#000000;stroke-width:0.35;stroke-linejoin:round;} .st15{fill:none;stroke:#000000;stroke-width:0.5;stroke-linecap:round;stroke-linejoin:round;} .st16{fill:none;stroke:#000000;stroke-width:0.35;stroke-linejoin:round;} .st17{fill:#DBDBDB;stroke:#000000;stroke-width:0.35;stroke-linejoin:round;} .st18{opacity:0.51;fill:url(#SVGID_1_);enable-background:new ;}</style><title>category_icon</title><path class="st0" d="M27.8 16.5c-5.6-4.2-9-5.7-13.8-5.8-2.6-.1-5.2.1-7.8.7-.1 0-.2.1-.3.1-3.1 2.3-3.7 9-3.7 9-1-.1-.8.8-.8.8v1.4c0 1.1.9 2 2 2h.3c-.3-.9-.3-1.8.2-2.6.5-1.1 1.6-1.9 2.8-2 1.9-.2 3.5 1.2 3.7 3.1 0 .5 0 1-.2 1.5h16.5c-.3-.9-.3-1.8.1-2.6.5-1.1 1.6-1.9 2.8-2 1.9-.2 3.5 1.2 3.7 3.1 0 .5 0 1-.2 1.5h3c-.6-8.5-8.3-8.2-8.3-8.2z"/><circle class="st1" cx="7" cy="23.6" r="3.3"/><path class="st2" d="M7 21.6c1.5 0 2.9 1.1 3.2 2.6.3-1.8-.8-3.5-2.6-3.8-1.8-.3-3.5.8-3.8 2.6-.1.4-.1.8 0 1.2.3-1.5 1.7-2.6 3.2-2.6z"/><circle class="st1" cx="30" cy="23.6" r="3.2"/><path class="st2" d="M30 21.6c1.5 0 2.9 1.1 3.2 2.6.3-1.8-.8-3.5-2.6-3.8-1.8-.3-3.5.8-3.8 2.6-.1.4-.1.8 0 1.2.3-1.5 1.7-2.6 3.2-2.6z"/><circle class="st3" cx="30" cy="23.6" r="1.7"/><path class="st4" d="M27.8 16.5c-5.6-4.2-9-5.7-13.8-5.8-2.6-.1-5.2.1-7.8.7-.1 0-.2.1-.3.1-3.1 2.3-3.7 9-3.7 9-1-.1-.8.8-.8.8v1.4c0 1.1.9 2 2 2h.3c-.3-.9-.3-1.8.2-2.6.5-1.1 1.6-1.9 2.8-2H7c.3-.8 1.9-4.6 5.3-4.9l2.7.2v-2.7l1.1.2v2.6l6.7.6s4.6 1.5 6.9 4.1c1.9-.1 3.5 1.3 3.6 3.2 0 .5-.1.9-.2 1.4h3c-.6-8.6-8.3-8.3-8.3-8.3z"/><path class="st5" d="M6 12.1c.1 0 .2-.1.3-.1 2.5-.6 5.1-.8 7.7-.7 4.8.2 8.2 1.7 13.8 5.8 4.3 0 7.9 3.3 8.2 7.6h.1c-.7-8.5-8.3-8.3-8.3-8.3-5.6-4.2-9-5.7-13.8-5.8-2.6-.1-5.2.1-7.8.7-.1 0-.2.1-.3.1-3.1 2.3-3.7 9-3.7 9s.7-6 3.8-8.3z"/><path class="st5" d="M23.1 15.5c-2-1.4-4.4-2.3-6.8-2.6V14c1.4.2 2.7.6 3.9 1.3 0 0-3.1-.3-3.9-.3v.4l6.7.6s.9.1.1-.5zM9.3 12.6v.7s3.4 0 4.2.2v1.2l-4.2-.2v.6l5.9.4v-2.7c-2-.3-4-.3-5.9-.2z"/><path class="st6" d="M33.4 24.8h2.8c-.1-1.8-.7-3.5-1.6-4.9h-1.9l-.8.9c1.3.9 1.8 2.5 1.3 4h.2z"/><path class="st7" d="M32.2 20.4c-.1 0-.4.3-.4.3 1.4.8 2 2.6 1.4 4.1h1.4c-.2-3.4-2.4-4.4-2.4-4.4z"/><path class="st6" d="M1.5 21.2v1.5c0 1.1.9 2 2 2h.3c-.3-.9-.3-1.8.2-2.6.1-.3.3-.6.6-.8l-2.2-.9c-1.2-.2-.9.8-.9.8z"/><path class="st7" d="M3.5 20.9c-.8.9-1.3 2-1.5 3.2.4.4.9.6 1.5.6h.3c-.3-.9-.2-1.8.2-2.6.1-.3.3-.6.6-.8l-1.1-.4z"/><path class="st8" d="M11.4 21.7h13.4"/><path class="st9" d="M24.2 21.7s.6-2.9 2.5-3.3h2.9c-2.3 0-4.2 1.8-4.4 4.1l-1-.8z"/><path class="st10" d="M5.7 17.7s4.6-.6 5.8 4"/><path class="st11" d="M27.8 16.5c-5.6-4.2-9-5.7-13.8-5.8-2.6-.1-5.2.1-7.8.7-.1 0-.2.1-.3.1-3.1 2.3-3.7 9-3.7 9-1-.1-.8.8-.8.8v1.4c0 1.1.9 2 2 2h.3c-.3-.9-.3-1.8.2-2.6.5-1.1 1.6-1.9 2.8-2 1.9-.2 3.5 1.2 3.7 3.1 0 .5 0 1-.2 1.5h16.5c-.3-.9-.3-1.8.1-2.6.5-1.1 1.6-1.9 2.8-2 1.9-.2 3.5 1.2 3.7 3.1 0 .5 0 1-.2 1.5h3c-.6-8.5-8.3-8.2-8.3-8.2z"/><circle class="st3" cx="7" cy="23.6" r="1.7"/><path class="st12" d="M5.7 18c2.5-.7 5.1.7 5.9 3.2.1.4.2.9.2 1.3h13.5"/><path class="st13" d="M25 22.5c0-.8.3-1.5.7-2.1.4-.6 1-1.1 1.6-1.4-.6.3-1.1.8-1.4 1.5-.3.6-.4 1.3-.4 2H25z"/><path class="st14" d="M34.5 19.8h-1.9l-.6-2.1c1 .5 1.9 1.2 2.5 2.1z"/><path class="st15" d="M34.7 22.8h1.1"/><path class="st16" d="M9.3 12.6v2.5l5.9.4v-2.7c-2-.3-4-.3-5.9-.2zM16.3 12.9v2.6l6.7.6s.9 0 .2-.6c-2.1-1.4-4.5-2.3-6.9-2.6z"/><path class="st17" d="M8.2 14.9l-2-.1c0-1.1.9-2 2-2v2.1z"/><path class="st16" d="M2.3 20.4l2.2.9M32.7 19.8l-.8.9"/><radialGradient id="SVGID_1_" cx="17.368" cy="-633.747" r="11.33" gradientTransform="matrix(1.05 0 0 -.03 .83 8.04)" gradientUnits="userSpaceOnUse"><stop offset="0" stop-opacity=".2"/><stop offset=".16" stop-color="#231F20" stop-opacity=".2"/><stop offset=".85" stop-color="#231F20" stop-opacity=".15"/><stop offset=".94" stop-color="#231F20" stop-opacity=".1"/><stop offset=".99" stop-color="#8C8E24" stop-opacity=".04"/><stop offset="1" stop-color="#CFD527" stop-opacity="0"/></radialGradient><path class="st18" d="M35.4 27.1c0 1 3.2 1.7-15.6 1.7S2.3 28 2.3 27.1 1 25.4 19.8 25.4s15.6.7 15.6 1.7z"/></svg>