<svg id="Layer_1" data-name="Layer 1" xmlns="http://www.w3.org/2000/svg" viewBox="0 0 38 38"><defs><style>.cls-1,.cls-2,.cls-3{fill:none;stroke:#323232;stroke-linejoin:round;}.cls-1{stroke-width:0.5px;}.cls-2{stroke-width:0.75px;}.cls-3{stroke-width:0.46px;}</style></defs><title>category_icon</title><circle class="cls-1" cx="10.04" cy="24.01" r="2.53"/><path class="cls-2" d="M28.38 17.59a.83.83 0 0 0-.53-.78 15.21 15.21 0 0 0-1.85-3.9s.31-.12.34-.72-1.34-.6-1.34-.6-13.06-.41-14.56-.41a4 4 0 0 0-2.34.66 2.18 2.18 0 0 0-1.44 2 1.6 1.6 0 0 0-.34.91l-.22 3.66c-.5.34-.44 3.56-.44 3.56v2c0 1.22 1.44 1.44 1.44 1.44h.65a2.68 2.68 0 1 1 4.59 0H24a2.55 2.55 0 0 0 2.28-1.22 18.29 18.29 0 0 1 1.62-3 4.28 4.28 0 0 0 .48-1.19s.03-1.78 0-2.41z"/><circle class="cls-1" cx="10.04" cy="24.01" r="1.28"/><path class="cls-1" d="M26.85 23.05l-.18.34h.59zM29.44 23.39h2.22a2.68 2.68 0 0 0-3.57-2.53l-.54.88 1.82 1.49a.55.55 0 0 1 .07.16z"/><path class="cls-3" d="M29 22.73a1.2 1.2 0 0 0-.17 0l.57.46a.67.67 0 0 1-.21.88.76.76 0 0 1-1.1 0l-.32-.29a1.21 1.21 0 0 0 0 .19A1.28 1.28 0 1 0 29 22.73z"/><path class="cls-1" d="M28.39 19a1.26 1.26 0 0 1 .95-.27c.54.08.42.81.42.81v1.27M27.56 21.74l1.82 1.49a.67.67 0 0 1-.21.88.76.76 0 0 1-1.1 0C27.92 24 26.84 23 26.84 23z"/><path class="cls-1" d="M31.42 23.39h-2a.72.72 0 0 1-.28.71.76.76 0 0 1-1.1 0c-.09-.09-.49-.43-.81-.71h-.59l.18-.34.53-1a2.53 2.53 0 1 0 4.06 1.3zM11.66 17.69v-2.47a2 2 0 0 1 2-2h4.6a1.05 1.05 0 0 1 1.05 1.05v8.95h-2.97c-1.25 0-1.41-.91-1.41-.91L14 19a1.74 1.74 0 0 0-1.94-1.31h-6M23.44 13.25h-3.19v7h1.16a.78.78 0 0 1 .78.78v2.74h1s3 0 2.52-5.45-2.27-5.07-2.27-5.07z"/></svg>