<svg width="93" height="32" viewBox="0 0 93 32" version="1.1" xmlns="http://www.w3.org/2000/svg"><title>Ola Logo</title><g stroke="none" stroke-width="1" fill="none" fill-rule="evenodd"><path d="M81.97 14.91l-5.919 10.197-5.05.02L81.97 5.934l10.928 19.193h-5.13L81.97 14.909zm-15.938 5.778h5.656l-2.626 4.439H61.69l.02-5.405V6.052h4.343l-.02 14.636zM50.52 6.053c5.393.02 9.756 4.28 9.736 9.546-.02 5.247-4.383 9.508-9.777 9.508-5.373-.02-9.736-4.28-9.736-9.547.02-5.247 4.383-9.507 9.777-9.507zm-.02 14.616c2.888 0 5.21-2.269 5.21-5.07.021-2.8-2.322-5.089-5.19-5.089-2.869-.02-5.212 2.269-5.212 5.07-.02 2.8 2.323 5.089 5.191 5.089zM32.704 14.084c-.06-.79-.263-1.835-.566-2.84a14.404 14.404 0 0 0-3.171-5.583c-.768-.828-1.636-1.598-2.93-2.505a49.385 49.385 0 0 1-2.908-1.558c-.626-.355-1.374-.79-2.363-1.105A17.068 17.068 0 0 0 17.19.04C16.02 0 14.847.1 13.716.316c-1.192.197-2.182.512-3.495.828-2.97 1.282-5.272 3.215-7.252 5.78-6.908 9.645-.666 23.157 10.868 24.754 1.899.257 3.798.158 5.595-.256l1.273-.335c.04-.02.101-.04.141-.04l1.455-.552c.08-.04.141-.06.222-.099l.606-.276a16.59 16.59 0 0 0 3.252-2.11 18.578 18.578 0 0 1-2.949 2.189l.06.04c.203-.06.384-.119.586-.158 0 0 0 .315-.04.256-.323.237.182.02.828-.316.647-.335 1.273-.75 1.838-1.223.829-.69 1.556-1.44 2.586-2.662 1.05-1.835 2.364-3.433 2.97-5.583.202-.572.383-1.242.505-1.933.12-.69.202-1.4.202-2.13-.02-.73-.101-1.48-.263-2.406zM17.756 30.298c3.535-.553 6.504-2.505 8.928-5.168.667-.967 1.192-1.855 1.838-2.821.808-1.973.748-3.728 1.01-4.97.324-2.25-.444-4.064-1.09-5.997-.99-2.249-2.303-3.925-4.606-5.227C18.018 2.525 10.1 3.53 6.323 8.896c-.02 0-.122.138-.324.414.263-1.104.93-1.755 1.596-2.387 1.98-1.617 4.283-2.9 6.909-3.53 2.97-.316 5.918 0 8.564 1.282 3.96 2.248 6.586 5.78 7.252 9.96v3.867c-.828 6.332-6.282 11.145-12.564 11.796zm14.524-14.4c-.142-9.27-9.373-15.523-18.362-14.26-2.626.65-5.495 1.952-7.535 3.767-.99.65-1.454 1.854-2.444 2.82C-.021 14.005.667 21.402 5.595 25.9a19.107 19.107 0 0 0 2.02 1.736C3.495 25.169 1.636 21.44.99 16.905c0-1.618.323-3.216.666-4.833C3.96 4.99 11.211-.158 19.11 1.144c1.313.316 2.626.651 3.96.967 1.656.65 3.292 1.617 4.605 2.9 1.313 1.281 2.303 2.899 3.293 4.496.666 1.283.99 2.9 1.313 4.182.06.73.06 1.48 0 2.21z" fill="#000"/><path d="M24.078 16.036c0 3.985-3.353 7.22-7.494 7.22-4.14 0-7.494-3.235-7.494-7.22 0-3.984 3.353-7.219 7.494-7.219s7.494 3.235 7.494 7.22z" fill="#FFF"/><path d="M24.119 14.813c-.101-.552-.263-.986-.424-1.597-.647-1.342-1.596-2.387-2.849-3.275C16.16 6.845 9.716 9.823 9.03 15.11c-.262 2.091.485 4.103 1.818 5.642-.404-.415-.848-.848-1.151-1.342l-.04.04c.04.118.202.197.242.315 0 0-.162 0-.121-.02-.121-.137-.02.08.161.375.162.296.364.573.606.829.344.375.707.71 1.313 1.164.89.453 1.677 1.045 2.707 1.321.283.08.606.158.93.217.343.06.666.08 1.03.08.343 0 .707-.04 1.151-.12a8.3 8.3 0 0 0 1.353-.275 7.012 7.012 0 0 0 2.667-1.5c.384-.354.93-.808 1.353-1.4.344-.67.384-1.006.546-1.302.161-.296.363-.631.505-1.085a9.289 9.289 0 0 0 .202-1.637c-.02-.552-.06-1.085-.182-1.598zm-4.808-3.668c.687.394.788.453.424.197.526.118.849.414 1.172.71.788.888 1.434 1.933 1.757 3.136.182 1.361.04 2.722-.545 3.926-1.05 1.834-2.727 3.057-4.727 3.392-.222 0-.464 0-.687.02.566-.099.93-.454 1.96-.829 1.11-.394 2.363-2.228 2.97-3.294 1.777-2.9-.324-5.582-2.324-7.258zm-3.797 11.4c-3.07-.315-5.434-2.82-5.757-5.72.282 1.618 1.252 2.86 2.565 3.965.465.296 1.151.71 1.616 1.006.788.296 1.252.612 2.02.75h-.444zm8.261-5.266c-.14.612-.282 1.203-.424 1.815-.303.75-.747 1.519-1.353 2.13-.606.612-1.374 1.085-2.141 1.539-.606.315-1.374.473-2 .63-.364.04-.788-.118-1.152-.137 4.485-.119 7.555-4.28 6.889-8.403-.324-1.203-.97-2.249-1.758-3.294-.323-.454-.95-.73-1.414-1.184-2.808-1.755-6.524-1.4-8.645.908a9.594 9.594 0 0 0-.829.966c1.132-1.657 2.95-2.82 5.131-3.156.768-.02 1.556.119 2.323.257 3.394 1.025 5.919 4.3 5.373 7.93z" fill="#D7DF23"/></g></svg>