<?xml version="1.0" encoding="UTF-8" standalone="no"?>
<svg width="38px" height="38px" viewBox="0 0 38 38" version="1.1" xmlns="http://www.w3.org/2000/svg" xmlns:xlink="http://www.w3.org/1999/xlink">
    <!-- Generator: Sketch 47.1 (45422) - http://www.bohemiancoding.com/sketch -->
    <title>Category_icon/Bike_inactive</title>
    <desc>Created with Sketch.</desc>
    <defs></defs>
    <g id="Symbols" stroke="none" stroke-width="1" fill="none" fill-rule="evenodd">
        <g id="Category_icon/Bike_inactive">
            <g id="Bike">
                <rect id="Rectangle-6-Copy" fill-opacity="0" fill="#FF0000" x="0" y="0" width="38" height="38"></rect>
                <g transform="translate(5.000000, 11.500000)">
                    <path d="M12.5,12.5 C13.0500705,12.5 13.5,12.0500705 13.5,11.5 C13.5,10.948519 13.0500705,10.5 12.5,10.5 C11.948519,10.5 11.5,10.948519 11.5,11.5 C11.5,12.0500705 11.948519,12.5 12.5,12.5 L12.5,12.5 L12.5,12.5 Z M12.5,10 C13.3270893,10 14,10.6714697 14,11.5 C14,12.3270893 13.3270893,13 12.5,13 C11.6729107,13 11,12.3270893 11,11.5 C11,10.6714697 11.6729107,10 12.5,10 Z M14.3531644,7.93787436 C14.3982079,7.83561349 14.519947,7.79057002 14.6197731,7.8343961 L16.3411644,8.58796132 C16.4434252,8.6330048 16.4896861,8.75109175 16.44586,8.85335262 C16.4129905,8.93004828 16.3375122,8.97509175 16.2608166,8.97509175 C16.2328166,8.97509175 16.2060339,8.97022219 16.1792513,8.95804828 L14.45786,8.20448306 C14.3555992,8.15943958 14.3093383,8.04013523 14.3531644,7.93787436 Z M13.8773748,8.74476966 C13.9212009,8.64250879 14.04294,8.59746531 14.1439835,8.64007401 L15.8678095,9.39485662 C15.9700704,9.4399001 16.0163313,9.55798705 15.9725052,9.66024792 C15.9384182,9.73694357 15.8641574,9.78198705 15.7862443,9.78198705 C15.7594617,9.78198705 15.7314617,9.77711749 15.7058965,9.76494357 L13.9820704,9.01137836 C13.8798095,8.96633488 13.8335487,8.84703053 13.8773748,8.74476966 Z M15.1563446,10.5574091 L13.6212142,9.88662646 C13.5189533,9.84158298 13.4726925,9.72227863 13.5165185,9.62001776 C13.5603446,9.51532211 13.6808664,9.4751482 13.7819098,9.51532211 L15.5045185,10.2688873 C15.5544316,10.2908004 15.5933881,10.3309743 15.611649,10.3808873 C15.6323446,10.4308004 15.6311272,10.4880178 15.6079968,10.535496 L14.8422577,12.2641917 C14.8081707,12.3408873 14.7351272,12.3859308 14.6572142,12.3859308 C14.6304316,12.3859308 14.6012142,12.3786265 14.575649,12.3664525 C14.4733881,12.3214091 14.4283446,12.2021047 14.4733881,12.0998438 L15.1563446,10.5574091 Z" id="Combined-Shape" fill="#343534"></path>
                    <path d="M14.0708145,13.8739447 L13.2718843,14.1735436 C12.5660832,14.438219 11.4428702,14.4655001 10.7298377,14.2374094 L4.88256199,12.3669193 C4.3888635,12.2041195 4.125,11.6569516 4.125,11 C4.125,10.320143 4.42763852,10.0822082 5.09736082,10.1378593 C5.16310977,10.1555358 5.28619659,10.1870823 5.45524408,10.2278689 C5.737974,10.296084 6.04408141,10.3643389 6.3620823,10.428004 C6.77261946,10.5101953 7.17229443,10.5784934 7.56111447,10.6300135 C8.78714655,10.8325298 9.04212183,10.5465147 9.0496673,9.52850244 C9.05026044,9.44847776 9.04970326,9.38157454 9.04772736,9.23801779 C9.04608183,9.11925789 9.0455163,9.06540103 9.0455163,9 C9.0455163,8.7091523 7.83474265,8.11038201 4.46473694,6.72549634 C3.94065416,6.51012735 3.56336549,6.35303333 3.19948973,6.19759967 C2.44026004,5.87328609 1.8353138,5.59566072 1.32770153,5.33307392 C1.00935273,5.16839273 0.712474303,4.70228866 0.539703707,4.20808685 C0.455687671,3.9677631 0.413972213,3.75078007 0.43258823,3.57486584 C0.470787826,3.21389429 0.786865449,3.00493978 1.1442342,3.15384758 C1.82425371,3.43719695 2.67194108,3.77135238 3.65515242,4.1457036 C3.83651398,4.21475582 4.02193539,4.28496358 4.21114867,4.356239 C5.28573231,4.76102771 6.43746627,5.1834774 7.58925465,5.59834599 C7.99242253,5.7435651 8.36677868,5.87745618 8.70270317,5.99687106 C8.90415976,6.06848512 9.04796227,6.11933308 9.16227415,6.16192885 C9.57592131,6.36047949 11.1143913,6.35527861 11.734835,5.73483496 C12.0209255,5.44874446 12.0170094,5.20006586 11.8334418,4.90648134 C11.7968618,4.84797788 11.7676537,4.80911854 11.7083159,4.73568073 L11.4352637,4.3977448 L11.8094734,4.17700676 C13.5880164,3.12788368 15.237101,2.32464208 16.4402878,2.12978458 C17.4995426,1.95893704 18.6347677,2.19919545 19.2435268,2.71483391 C19.6285759,3.04365903 19.875,3.86205837 19.875,4.5 C19.875,5.76268566 19.7847269,6.24560318 19.265165,6.76516504 C18.92959,7.1007401 18.5846348,7.2737531 18.2893835,7.34092873 L16.8592486,12.1183253 L16.8501963,12.1449003 C16.6090863,12.7744654 15.3545656,13.8358354 14.0708145,13.8739447 Z" id="Combined-Shape" stroke="#323232" stroke-width="0.75" stroke-linecap="round" stroke-linejoin="round"></path>
                    <path d="M9.80094903,10.2368741 L18.2180102,7.03037462 L15.9703257,6.3686087 C15.949641,6.3681329 15.949641,6.3681329 15.9230751,6.36730364 C15.8870291,6.36645812 15.8870291,6.36645812 15.8351953,6.36617391 C15.1093883,6.36617391 14.2990466,6.57484193 13.6314028,7.12461299 C13.4323527,7.28894796 13.1202095,7.54317799 12.6393261,7.93307763 C12.4060113,8.12224897 11.4546116,8.89270452 11.2463796,9.06147089 L11.2273658,9.07688137 C10.6546853,9.54104471 10.1802764,9.92671886 9.80094903,10.2368741 Z" id="Path-Copy-11" stroke="#323232" stroke-width="0.5"></path>
                    <path d="M11.8347038,4.69267604 L11.3263408,4.39182892 L11.3213559,4.38917393 C11.1063562,4.27466131 10.7102105,4.14574705 10.4685929,4.11108061 L1.46039602,2.81861609 C1.340528,2.80141784 1.25,2.88072373 1.25,3 L1.25,3.32700597 L9.01285243,6.25033059 C9.03091247,6.25126833 9.06876356,6.25281687 9.12177596,6.25435445 C9.57900635,6.26761605 10.1033396,6.25359639 10.5970721,6.19154819 C11.1759213,6.11880323 11.6151503,5.98772353 11.8438262,5.8047828 C11.9717219,5.70246631 12.0441299,5.59361708 12.0745219,5.47626681 C12.1208045,5.29755978 12.0708914,5.08746232 11.952195,4.87354978 C11.9092442,4.79614457 11.8665992,4.73379613 11.8347038,4.69267604 Z" id="Path" stroke="#323232" stroke-width="0.5"></path>
                    <path d="M0.412304735,7.75 L0.5,7.75 L0.343826238,7.8047828 L0.412304735,7.75 Z M0.71189217,7.51033005 L2.53871945,6.04886822 L2.06896387,5.81399043 L0.71189217,7.51033005 Z" id="Path" stroke="#323232" stroke-width="0.5"></path>
                    <path d="M8.23388619,10.411698 C8.14853815,10.745074 8.14853815,10.745074 8.044354,10.7475715 C8.00271727,10.7529089 8.00271727,10.7529089 7.98293251,10.7525537 C7.94969035,10.7511066 7.94969035,10.7511066 7.91864065,10.7478904 C7.87934011,10.7435966 7.82522588,10.7360464 7.75728728,10.7255221 C7.63417479,10.706451 7.46659414,10.6777042 7.28845081,10.645268 C7.11435575,10.6135689 6.94354556,10.5807717 6.81503548,10.5542909 C6.74643736,10.5401556 6.69072982,10.528001 6.64998628,10.5181959 C6.43571611,10.466631 6.49572603,10.484756 6.4354384,10.3923951 C6.04216391,9.78989713 5.35782587,9.41559689 4.60845906,9.41559689 C3.41779025,9.41559689 2.45192295,10.3530947 2.45192295,11.5008489 C2.45192295,12.6496066 3.41720533,13.5861009 4.60845906,13.5861009 C5.23040773,13.5861009 5.80997469,13.3294797 6.21732998,12.889366 C6.32643367,12.7714884 6.25210455,12.7593897 6.51962896,12.8259029 C6.55805324,12.8354561 6.60922392,12.8498362 6.67146804,12.8684385 C6.78832008,12.903361 6.94143931,12.9523853 7.09449558,13.0038185 C7.25464528,13.0576353 7.40252235,13.1099596 7.51049656,13.1513473 C7.57193839,13.1748987 7.62066908,13.194951 7.65668387,13.2118361 C7.6867299,13.2261965 7.6867299,13.2261965 7.72254806,13.2477321 C7.79176687,13.2593336 7.79176687,13.2593336 7.79812172,13.6108691 C7.0826029,14.6283731 5.89780057,15.25 4.60839504,15.25 C2.48135699,15.25 0.75,13.5710597 0.75,11.5008489 C0.75,9.43035342 2.48165403,7.75 4.60839504,7.75 C6.1912162,7.75 7.65827608,8.88707571 8.23388619,10.411698 Z" id="Combined-Shape" stroke="#323232" stroke-width="0.5"></path>
                    <path d="M25.0851648,14.8984712 C23.2102301,15.7727676 20.9753027,14.9601681 20.1012478,13.0857513 C19.3402184,11.4537185 19.8531705,9.51456941 21.2937169,8.4672215 C21.6481806,8.47170273 21.6481806,8.47170273 21.6513458,8.52817993 C21.6723412,8.55837015 21.6723412,8.55837015 21.6879446,8.58507873 C21.7067475,8.61777923 21.7300175,8.66238081 21.757613,8.7181383 C21.8078918,8.81972795 21.8720565,8.95758208 21.935885,9.10080481 C22.0009518,9.24680615 22.060636,9.38706391 22.1027153,9.49350391 C22.1262753,9.55309933 22.1443435,9.60208423 22.156526,9.64011773 C22.1662859,9.67145135 22.1662859,9.67145135 22.1746145,9.70782756 C22.1954834,9.74504349 22.1954834,9.74504349 22.0975374,9.95772987 C21.4286725,10.5671353 21.223156,11.5505333 21.6107727,12.3817798 C22.0962798,13.4229533 23.3394651,13.8747807 24.3812758,13.3889764 C25.4239968,12.9027476 25.8763111,11.6609234 25.3905636,10.6192344 C25.0313781,9.84895862 24.2438779,9.38082513 23.4074723,9.41717289 C23.1773662,9.32461589 23.1773662,9.32461589 23.1683698,9.27895014 C23.1505179,9.24494616 23.1505179,9.24494616 23.1377089,9.21471585 C23.1225363,9.17806682 23.1049998,9.12946038 23.085025,9.0694918 C23.0490426,8.96146469 23.0053383,8.81681999 22.9631141,8.66674604 C22.9206048,8.51565902 22.8828669,8.37071539 22.8579946,8.26196455 C22.8439808,8.20069121 22.833981,8.15078264 22.8283241,8.11214166 C22.8237923,8.07935066 22.8237923,8.07935066 22.8222473,8.03693946 C22.8002684,7.97425305 22.8002684,7.97425305 23.0463365,7.77704787 C24.6439552,7.58338135 26.208299,8.43573319 26.8986022,9.91609298 C27.7727777,11.7907686 26.9598404,14.0242956 25.0851648,14.8984712 Z" id="Combined-Shape" stroke="#323232" stroke-width="0.5"></path>
                    <path d="M20.6077231,1.75416973 C20.6366494,1.75631967 20.66964,1.75933719 20.7098508,1.76331454 L20.7248622,1.76480504 C20.7467853,1.76698704 20.8618781,1.76699104 20.7982074,1.85242035 C21.0156521,1.55509798 22.1029529,0.890379549 22.4619083,0.835040586 L22.75,0.790626456 L22.75,3.79275638 L22.4608547,3.74691628 C22.3320661,3.72649857 22.0446806,3.65644938 21.6324753,3.54827658 C21.5999946,3.53974495 21.5999946,3.53974495 21.5675781,3.53120018 C21.4494801,3.50004431 21.332862,3.46889907 21.2229429,3.43928704 C21.4380999,4.09371242 21.8442664,5.37353126 22.3970432,7.13344904 L22.4161816,7.19438711 C22.7068611,8.1200145 23.0171193,9.11172422 23.3265936,10.1034292 C23.4349085,10.4505222 23.501895,10.665388 23.6254898,11.0620722 C23.7181398,11.3595941 23.7181398,11.3595941 23.7387165,11.4257408 L23.839586,11.75 L23.0833333,11.75 L19.2692308,2.59615385 L19.26924,2.59617611 C19.2456156,2.53949278 19.1982058,2.43607695 19.1291814,2.30178381 C19.0137635,2.07722817 18.8809365,1.85276185 18.7334144,1.64451203 C18.3330771,1.07937514 17.9076529,0.75 17.5,0.75 C17.2954415,0.75 16.946636,0.851973751 16.5098439,1.03382755 C16.3715436,1.09140744 16.2267074,1.15596555 16.0771441,1.22625753 C15.8484851,1.33372302 15.6201925,1.44908991 15.4033518,1.564457 C15.2734544,1.63356711 15.1766181,1.68710733 15.1410166,1.70643239 C14.9651589,1.82656293 14.7733593,1.74093386 14.6984732,1.57321741 C14.6657889,1.50001686 14.6525711,1.41123332 14.6528209,1.31408419 C14.6533863,1.09414743 14.7109067,0.88953223 14.8762578,0.782772313 C14.9330998,0.750392666 15.0340862,0.694557891 15.1685036,0.623042998 C15.3921875,0.504035085 15.6276855,0.38502698 15.8644703,0.273742471 C16.0204812,0.200420226 16.1720665,0.132853872 16.3176649,0.0722355009 C16.8122627,-0.133685123 17.2101227,-0.25 17.5,-0.25 C17.6696552,-0.25 17.9293225,-0.17934355 18.2820185,-0.0535877641 C18.3433796,-0.0317091152 18.406706,-0.00839806241 18.4716494,0.0161578375 C18.724176,0.111641227 18.953464,0.206865908 19.1767767,0.323223305 L20.6077231,1.75416973 Z" id="Combined-Shape" stroke="#323232" stroke-width="0.5" stroke-linejoin="round"></path>
                </g>
            </g>
        </g>
    </g>
</svg>