<svg id="Layer_1" xmlns="http://www.w3.org/2000/svg" viewBox="0 0 38 38"><style>.st0{fill:#F1F1F1;} .st1{fill:#FCFCFC;} .st2{fill:#CCDB28;} .st3{fill:#4F4F4F;} .st4{fill:#B3BF23;} .st5{fill:#393939;} .st6{fill:#DEDEDE;stroke:#000000;stroke-width:0.35;stroke-linejoin:round;} .st7{fill:#D3D3D3;} .st8{fill:#FCFFDF;stroke:#000000;stroke-width:0.35;stroke-linecap:round;stroke-linejoin:round;} .st9{fill:#FCFFDF;stroke:#000000;stroke-width:0.35;stroke-linejoin:round;} .st10{fill:none;stroke:#000000;stroke-width:0.5;stroke-linejoin:round;} .st11{fill:none;stroke:#EDEDED;stroke-width:1.4;stroke-linecap:round;stroke-linejoin:round;} .st12{fill:none;stroke:#C9C9C9;stroke-width:0.5;stroke-linecap:round;stroke-miterlimit:10;} .st13{fill:#D5D5D5;} .st14{fill:none;stroke:#000000;stroke-width:0.5;stroke-linecap:round;stroke-linejoin:round;} .st15{fill:#D5D5D5;stroke:#000000;stroke-width:0.35;stroke-miterlimit:10;} .st16{fill:none;stroke:#000000;stroke-width:0.35;stroke-miterlimit:10;} .st17{fill:none;stroke:#000000;stroke-width:0.35;stroke-linecap:round;stroke-linejoin:round;} .st18{opacity:0.51;fill:url(#SVGID_1_);enable-background:new ;}</style><title>category_icon</title><path class="st0" d="M13.9 16.6l11.3.1 2.7 1.2c1.6.8 3.1 1.7 4.6 2.6 1.5.8 2.2 2.6 1.5 4.1l2.9-.6c.3 0 .6-.3.6-.6v-2.6c-.2-.4-.6-.6-1-.6.2-2.2-1-2.4-1.5-2.5-1.3-.3-2.7-.5-4-.7-.7 0-1.4-.2-2-.4-4.6-2.8-6.5-3.9-12.9-3.9-4.2-.1-8.4 1.1-12 3.3-.3.2-.6.4-1 .4H1.5l-.6 2.9c-.1.1-.2.1-.3.2.8 1.2 2.1 1.9 3.5 1.9.5-.6 1.3-1 2.1-1.1 0 0 1.8-2.5 7.7-3.7z"/><path class="st1" d="M1.5 23.6s-1 .1-1-.7V20c0-.3.1-.6.4-.8l.6-2.9h1.6c.4 0 .7-.1 1-.4 3.6-2.2 7.8-3.4 12-3.3 6.4 0 8.2 1.1 12.9 3.9.6.3 1.3.4 2 .4 1.3.2 2.7.4 4 .7.5.1 1.7.4 1.5 2.5.4 0 .8.2 1 .6v2.6c0 .3-.3.6-.6.6l-2.9.9c.7-1.7-.2-3.6-1.9-4.3-.5-.2-1-.3-1.5-.2-1.2.1-2.2.8-2.7 1.9-.4.8-.4 1.7-.1 2.6H9.6c.7-1.7-.2-3.6-1.9-4.3-.5-.2-1-.3-1.5-.2-1.2.1-2.2.9-2.7 1.9-.4.8-.4 1.8-.1 2.6l-1.9-1.2z"/><path class="st2" d="M37.5 20.9c-.2-.4-.6-.6-1-.6v-.8c-.6.2-1.2.5-1.7.9l-.3-.4-1.2 1.4c.8.9 1 2.2.5 3.3l2.9-.6c.3 0 .6-.3.6-.6l.2-2.6z"/><circle class="st3" cx="6.5" cy="23.6" r="3.2"/><path class="st4" d="M37.5 23.6V21c-.2-.4-.6-.6-1-.6V20c-.2.1-.4.3-.6.5 0 0 .3 2.9-.3 3.2-.4.2-.9.3-1.4.3 0 .3-.1.6-.2.8l2.9-.6c.4-.1.6-.3.6-.6z"/><path class="st5" d="M6.5 21.6c1.5 0 2.8 1.1 3.1 2.6.3-1.7-.8-3.4-2.5-3.7s-3.4.8-3.7 2.5c-.1.4-.1.8 0 1.2.3-1.5 1.6-2.6 3.1-2.6z"/><circle class="st6" cx="6.5" cy="23.6" r="1.7"/><circle class="st3" cx="30.9" cy="23.6" r="3.2"/><path class="st5" d="M30.9 21.6c1.5 0 2.8 1.1 3.1 2.6.3-1.7-.8-3.4-2.5-3.7-1.7-.3-3.4.8-3.7 2.5-.1.4-.1.8 0 1.2.3-1.5 1.6-2.6 3.1-2.6z"/><circle class="st6" cx="30.9" cy="23.6" r="1.7"/><path class="st7" d="M36.5 20.3c.2-2.2-1-2.4-1.5-2.5-1.3-.3-2.7-.5-4-.7-.7 0-1.4-.2-2-.4-4.6-2.8-6.5-3.9-12.9-3.9-4.3-.1-8.4 1.1-12.1 3.3-.3.2-.6.4-1 .4H1.5l.1.7h1.6c.4 0 .7-.1 1-.4 3.6-2.2 7.7-3.3 11.9-3.2 6.4 0 8.2 1 12.9 3.8.6.3 1.3.4 2 .4 1.3.2 2.7.4 4 .7.5.1 1.5 1.8 1.5 1.8z"/><path class="st8" d="M36.5 20.3c.1-1.7-.6-2.2-1.1-2.4L33.9 19l1 1.5h2.2c-.2-.1-.4-.2-.6-.2z"/><path class="st2" d="M4.7 20.9l-2.5-1.5-1.6.1c-.1.2-.1.4-.1.5v2.8c0 .8 1 .7 1 .7l1.9 1.2c-.3-.7-.3-1.7.1-2.5.3-.5.7-1 1.2-1.3z"/><path class="st4" d="M3.3 20.1s-.6 2.8-1.4 3H.5c.1.6 1 .5 1 .5l1.9 1.2c-.3-.8-.3-1.8.1-2.6.2-.4.5-.8.9-1.1-.3-.3-.7-.7-1.1-1z"/><path class="st9" d="M.6 19.5s1.4.2 1.9-.3S1.7 17 1.4 17"/><path class="st10" d="M1.5 23.6s-1 .1-1-.7V20c0-.3.1-.6.4-.8l.6-2.9h1.6c.4 0 .7-.1 1-.4 3.6-2.2 7.8-3.4 12-3.3 6.4 0 8.2 1.1 12.9 3.9.6.3 1.3.4 2 .4 1.3.2 2.7.4 4 .7.5.1 1.7.4 1.5 2.5.4 0 .8.2 1 .6v2.6c0 .3-.3.6-.6.6l-2.9.9c.7-1.7-.2-3.6-1.9-4.3-.5-.2-1-.3-1.5-.2-1.2.1-2.2.8-2.7 1.9-.4.8-.4 1.7-.1 2.6H9.6c.7-1.7-.2-3.6-1.9-4.3-.5-.2-1-.3-1.5-.2-1.2.1-2.2.9-2.7 1.9-.4.8-.4 1.8-.1 2.6l-1.9-1.2z"/><path class="st11" d="M3.5 18.8c1.7-1.2 3.9-1.3 5.7-.5 1.4.7 2.4 2.1 2.5 3.7h14.1c0-1.8 1.3-3.3 3.1-3.6"/><path class="st12" d="M3.6 19.1c3.9-2.7 7.8.4 7.8 3.2h14.8"/><path class="st13" d="M12.3 14.6v.6c1.4-.2 2.8-.2 4.2-.1v.8l-4.1-.1v.6l5.9.2v-2.2c-2-.1-4-.1-6 .2z"/><path d="M26 22.3c0-.5.1-1 .3-1.4.2-.5.4-.9.7-1.2.3-.4.7-.6 1.2-.8.4-.2.9-.3 1.4-.4-.5.1-.9.2-1.3.5-.4.2-.8.5-1.1.9-.6.7-.9 1.6-.8 2.5l-.4-.1z"/><path class="st14" d="M37.4 22.4h-1.5"/><path class="st15" d="M11.2 16.4v-1.6c-1.4.2-2.7.7-3.8 1.5l3.8.1z"/><path class="st13" d="M19.3 14.5v.9c.8.1 1.6.3 2.4.6h-2.4v.6l6.4.1c-1.9-1.3-4.1-2-6.4-2.2z"/><path class="st16" d="M12.3 16.4v-1.7c2-.3 4-.4 5.9-.2v2.2l-5.9-.3zM19.3 16.6v-2.1c2.3.2 4.5.9 6.4 2.2l-6.4-.1z"/><path class="st17" d="M4.7 20.9l-2.5-1.5M34.6 20.1l-1.2 1.4"/><radialGradient id="SVGID_1_" cx="13.698" cy="-633.747" r="11.33" gradientTransform="matrix(1.05 0 0 -.03 4.67 8.04)" gradientUnits="userSpaceOnUse"><stop offset="0" stop-opacity=".2"/><stop offset=".16" stop-color="#231F20" stop-opacity=".2"/><stop offset=".85" stop-color="#231F20" stop-opacity=".15"/><stop offset=".94" stop-color="#231F20" stop-opacity=".1"/><stop offset=".99" stop-color="#8C8E24" stop-opacity=".04"/><stop offset="1" stop-color="#CFD527" stop-opacity="0"/></radialGradient><path class="st18" d="M35.4 27.1c0 1 3.2 1.7-15.6 1.7S2.3 28 2.3 27.1 1 25.4 19.8 25.4s15.6.7 15.6 1.7z"/></svg>