<svg id="Layer_1" data-name="Layer 1" xmlns="http://www.w3.org/2000/svg" xmlns:xlink="http://www.w3.org/1999/xlink" viewBox="0 0 38 38"><defs><style>.cls-1,.cls-2,.cls-5,.cls-6,.cls-7,.cls-9{fill:none;}.cls-2,.cls-3,.cls-4{clip-rule:evenodd;}.cls-17,.cls-19,.cls-20,.cls-3,.cls-4{fill:#bfbfbf;}.cls-17,.cls-19,.cls-3{opacity:0.36;}.cls-5,.cls-6,.cls-7,.cls-9{stroke:#323232;}.cls-5,.cls-6,.cls-7{stroke-linejoin:round;}.cls-5,.cls-6,.cls-9{stroke-width:0.5px;}.cls-6,.cls-9{stroke-linecap:round;}.cls-7{stroke-width:0.75px;}.cls-8{fill:#323232;}.cls-9{stroke-miterlimit:10;}.cls-10{clip-path:url(#clip-path);}.cls-11{clip-path:url(#clip-path-2);}.cls-12{isolation:isolate;}.cls-13{clip-path:url(#clip-path-3);}.cls-14{fill:#4f4f4f;}.cls-15{clip-path:url(#clip-path-5);}.cls-16{fill:#fff;}.cls-17,.cls-20{fill-rule:evenodd;}.cls-18{clip-path:url(#clip-path-7);}.cls-21{clip-path:url(#clip-path-9);}</style><clipPath id="clip-path"><circle class="cls-1" cx="18.98" cy="20.69" r="2.91"/></clipPath><clipPath id="clip-path-2"><rect class="cls-1" x="-0.49" y="8.33" width="38.74" height="55.01"/></clipPath><clipPath id="clip-path-3"><rect class="cls-1" x="15.98" y="17.73" width="5.91" height="5.91"/></clipPath><clipPath id="clip-path-5"><polygon class="cls-2" points="18.19 19.35 18.19 20.45 18.38 20.69 18.19 20.92 18.19 22.02 20.5 20.69 18.19 19.35"/></clipPath><clipPath id="clip-path-7"><polygon class="cls-3" points="18.19 20.46 20.13 20.69 18.19 20.92 18.38 20.69 18.19 20.46"/></clipPath><clipPath id="clip-path-9"><polygon class="cls-4" points="18.19 20.46 20.14 20.69 18.38 20.69 18.19 20.46"/></clipPath></defs><title>play</title><circle class="cls-5" cx="6.54" cy="23.47" r="3.25"/><circle class="cls-5" cx="6.54" cy="23.47" r="1.74"/><path class="cls-6" d="M3.55,19.08c3.92-2.71,7.85.39,7.85,3.19H26.16"/><circle class="cls-5" cx="30.98" cy="23.47" r="3.25"/><path class="cls-7" d="M.47,20.05a.78.78,0,0,1,.42-.8l.6-2.85H3.08a1.42,1.42,0,0,0,1-.35,22.54,22.54,0,0,1,12-3.32c6.42,0,8.25,1.13,12.88,3.94a6.57,6.57,0,0,0,2,.44,33.08,33.08,0,0,1,4,.7c.54.15,1.69.38,1.54,2.55a1.17,1.17,0,0,1,1,.59v2.63a.63.63,0,0,1-.59.59l-2.76.5a3.4,3.4,0,0,0-3.49-4.59,3.49,3.49,0,0,0-2.79,2,3.19,3.19,0,0,0-.12,2.62h-18a3.4,3.4,0,0,0-3.49-4.59,3.49,3.49,0,0,0-2.79,2,3.19,3.19,0,0,0-.12,2.62L1.45,23.6s-1,.1-1-.73Z"/><circle class="cls-5" cx="30.98" cy="23.47" r="1.74"/><path class="cls-8" d="M25.91,22.28a4.38,4.38,0,0,1,.3-1.45A3.71,3.71,0,0,1,27,19.6a3.51,3.51,0,0,1,1.18-.82,5.05,5.05,0,0,1,1.36-.37,5,5,0,0,0-1.31.48,3.32,3.32,0,0,0-1,.87,3.72,3.72,0,0,0-.77,2.49v0a.25.25,0,1,1-.5,0S25.91,22.29,25.91,22.28Z"/><path class="cls-6" d="M.89,19.25s1,.17,1.38-.25-.64-1.72-.94-1.79"/><polyline class="cls-6" points="35.67 18.04 34.24 19.03 35.08 20.34 36.53 20.34"/><line class="cls-6" x1="37.38" y1="22.36" x2="35.92" y2="22.36"/><path class="cls-9" d="M11.24,16.38V14.81a8.9,8.9,0,0,0-3.79,1.46Z"/><path class="cls-9" d="M12.3,16.38V14.65a26.06,26.06,0,0,1,5.94-.25V16.6Z"/><path class="cls-9" d="M19.28,16.6V14.52a12.65,12.65,0,0,1,6.38,2.23Z"/><g class="cls-10"><g class="cls-11"><g class="cls-12"><g class="cls-13"><g class="cls-13"><rect class="cls-14" x="15.59" y="17.3" width="6.78" height="6.78"/></g><g class="cls-15"><g class="cls-13"><rect class="cls-16" x="17.71" y="18.86" width="3.27" height="3.65"/></g></g><polygon class="cls-17" points="18.19 20.46 20.13 20.69 18.19 20.92 18.38 20.69 18.19 20.46"/><g class="cls-18"><g class="cls-13"><rect class="cls-19" x="17.71" y="19.97" width="2.91" height="1.43"/></g></g><polygon class="cls-20" points="18.19 20.46 20.14 20.69 18.38 20.69 18.19 20.46"/><g class="cls-21"><g class="cls-13"><rect class="cls-19" x="17.71" y="19.97" width="2.91" height="1.2"/></g></g></g></g></g></g></svg>