<svg id="Layer_1" data-name="Layer 1" xmlns="http://www.w3.org/2000/svg" viewBox="0 0 38 38"><defs><style>.cls-1,.cls-2,.cls-4{fill:none;stroke:#323232;stroke-linejoin:round;}.cls-1,.cls-4{stroke-width:0.5px;}.cls-2{stroke-width:0.75px;}.cls-3{fill:#323232;}.cls-4{stroke-linecap:round;}</style></defs><title>category_icon</title><circle class="cls-1" cx="9.55" cy="23.6" r="3.25"/><circle class="cls-1" cx="9.55" cy="23.6" r="1.74"/><circle class="cls-1" cx="30.44" cy="23.6" r="3.25"/><path class="cls-2" d="M33.63 24.79a3.4 3.4 0 0 0-3.49-4.59 3.49 3.49 0 0 0-2.79 2 3.19 3.19 0 0 0-.12 2.62H12.74a3.4 3.4 0 0 0-3.49-4.59 3.49 3.49 0 0 0-2.79 2 3.19 3.19 0 0 0-.12 2.62h-4a5.08 5.08 0 0 1-.87-1.18v-1.39s.64-.12.76-.59a1.25 1.25 0 0 0 0-.79l-.75-2s-.12-.58.64-.61c0 0 4.51-.73 5-.73a3.9 3.9 0 0 0 1.18-.08 13.73 13.73 0 0 1 1.69-2.79l-.25-.75a41.11 41.11 0 0 1 5.26-.8 53.77 53.77 0 0 1 8.91.35s2.4 3.62 2.84 4c0 0 7.8.44 9.14.45a.45.45 0 0 1 .41.48c0 .44-1 3.11-.7 3.47s.8.11.89.37v1.34s-.09 1-.66 1.18z"/><circle class="cls-1" cx="30.44" cy="23.6" r="1.74"/><path class="cls-3" d="M23.86 13.1s1.28.11 1.4.15-.14.27-.87.45z"/><path class="cls-4" d="M14.06 21.86h11.91M11.73 15.19a2.82 2.82 0 0 0-1.34 2.15h1.39zM17.27 14.58a38.54 38.54 0 0 0-4.47.32v2.46h4.47zM23.22 15.44a1.32 1.32 0 0 0-1.17-.7s-1.56-.15-3.76-.16v2.79h6.13z"/><path class="cls-1" d="M34.83 17.87s.44.51.34.88-.58.66-.52 1 1.28.2 1.28.2M2.83 18.15v1.43a.32.32 0 0 1-.42.31h-.58"/></svg>