<svg id="Layer_1" xmlns="http://www.w3.org/2000/svg" viewBox="0 0 38 38"><style>.st0{fill:#FBFBFB;} .st1{fill:#EFEFEF;} .st2{fill:#B3BF23;} .st3{fill:#CCDB28;} .st4{fill:#D5D5D5;} .st5{fill:#FCFFDF;stroke:#000000;stroke-width:0.5;stroke-linejoin:round;} .st6{fill:#EAEAEA;} .st7{fill:none;stroke:#DFDFDF;stroke-width:1.19;stroke-linecap:round;stroke-miterlimit:10;} .st8{fill:#323232;} .st9{fill:#181818;} .st10{fill:#D8D8D8;stroke:#000000;stroke-width:0.45;stroke-linejoin:round;} .st11{fill:none;stroke:#C9C9C9;stroke-width:0.35;stroke-linecap:round;stroke-miterlimit:10;} .st12{fill:none;stroke:#000000;stroke-width:0.5;stroke-linejoin:round;} .st13{fill:none;stroke:#000000;stroke-width:0.35;stroke-miterlimit:10;} .st14{fill:none;stroke:#000000;stroke-width:0.35;stroke-linejoin:round;} .st15{fill:none;stroke:#C9C9C9;stroke-width:0.5;stroke-linecap:round;stroke-miterlimit:10;} .st16{fill:#C9C9C9;} .st17{fill:none;stroke:#000000;stroke-width:0.5;stroke-linecap:round;stroke-miterlimit:10;} .st18{opacity:0.51;fill:url(#SVGID_1_);enable-background:new ;}</style><title>category_icon</title><path class="st0" d="M32.7 20.4c-.1 0-.1-2.5-4.3-3.6-2.3-.8-4.4-1.9-6.5-3.1-2.2-1.2-4.7-1.7-7.1-1.6-2.3 0-4.6.2-6.9.6-.5.2-.2.5-.2.5-.7.9-1.7 4.5-2 5.1S5 20 5 20c-.5.7-.7 1.6-.6 2.5 0 1.1.8 2 1.9 2.2-.3-1.5.7-3 2.2-3.3.4-.1.8-.1 1.2 0 1.1.2 1.9 1 2.1 2.1.1.4.1.9 0 1.3h13.6c-.4-1.5.5-3 1.9-3.4s3 .5 3.4 1.9c.1.5.1 1 0 1.4H32c.7 0 1.3-.6 1.3-1.3v-2.3c0-.2-.3-.6-.6-.7z"/><path class="st1" d="M11.3 18.1c.6-.5 9-1.2 12.8.6 3.5 1.7 4.3 2.6 4.4 2.7.7.1 1.3.4 1.8.9.4 0 .7-.1 1.1-.3.6-.3 1.3-.8 2-1.2-.1-.2-.3-.4-.5-.4-.1 0-.1-2.5-4.3-3.6-2.4-.7-4.6-1.8-6.6-3-2.2-1.2-4.7-1.7-7.2-1.6-2.3 0-4.7.2-6.9.6-.5.2-.2.5-.2.5-.7.9-1.8 4.5-2 5.1S4.9 20 4.9 20c-.2.3-.3.6-.4.9.7.7 1.7 1.1 2.6 1.2.7-.6 1.6-.9 2.5-.7 0 0 1.1-2.9 1.7-3.3z"/><path class="st2" d="M32.7 20.4s0-.2-.1-.4c-.2.2-.3.4-.5.6l-2.3 1.3v.1c.9.7 1.2 1.8.9 2.9H32c.7 0 1.3-.6 1.3-1.3v-2.3c0-.4-.3-.8-.6-.9z"/><path class="st3" d="M31.4 21l-1.6.9v.1c.9.7 1.2 1.8.9 2.9h.7c.4-1.3.4-2.7 0-3.9z"/><path class="st2" d="M4.4 22.5c.1 1.1.8 2 1.9 2.2-.2-1.2.3-2.4 1.4-3L5 20c-.5.7-.7 1.6-.6 2.5z"/><path class="st3" d="M7.7 21.6l-1.4-.8c-.2.7-.2 1.5.1 2.1.3-.5.7-1 1.3-1.3z"/><path class="st4" d="M8.4 14.1l1.7-.3-1.1.7 3.8-.2V16H8.3l-.1.7h6.3v-3.4h.9v.9s3.5 0 5.6 1.8h-5.6v.7h8.8l-.5-.5c1.6.8 3.3 1.5 5 1.9.9.2 1.8.2 2.7.2-.9-.8-2-1.3-3.1-1.5-2.3-.8-4.4-1.9-6.5-3.1-2.2-1.2-4.7-1.7-7.1-1.6-2.3 0-4.6.2-6.9.6-.5.2-.2.5-.2.5-.7.9-1.7 4.5-2 5.1.1.1 1.6-3.4 2.8-4.2z"/><path class="st5" d="M33.1 20.7c-1.4 0-2.7-.5-3.7-1.5 0 0-.8-.7-.5-.9s2.2 0 3.1.6"/><path class="st6" d="M23.5 23h-9.9l-.4-1.3h9.5c.3-.9.9-1.6 1.7-2 1.3-.7 2.1 0 1.5.2-1.4.5-2.3 1.7-2.4 3.1z"/><path class="st7" d="M7.5 19.8c1.8-1.1 4.1-.5 5.2 1.3.3.4.4.9.5 1.4v.2"/><circle class="st8" cx="9" cy="24.1" r="2.7"/><path class="st9" d="M9 22.3c1.3 0 2.4 1 2.7 2.2.3-1.5-.7-2.9-2.2-3.1s-2.9.7-3.1 2.2c-.1.3-.1.6 0 .9.2-1.3 1.3-2.2 2.6-2.2z"/><circle class="st10" cx="9" cy="24.1" r="1.6"/><path class="st11" d="M7.4 20c1.8-1.1 4.1-.5 5.2 1.2.3.5.5 1.1.6 1.8"/><circle class="st8" cx="28" cy="24.1" r="2.7"/><path class="st9" d="M28 22.3c1.3 0 2.4 1 2.7 2.2.3-1.5-.7-2.9-2.2-3.1-1.5-.3-2.9.7-3.1 2.2-.1.3-.1.6 0 .9.2-1.3 1.3-2.2 2.6-2.2z"/><circle class="st10" cx="28" cy="24.1" r="1.6"/><path class="st12" d="M32.7 20.4c-.1 0-.1-2.5-4.3-3.6-2.3-.8-4.4-1.9-6.5-3.1-2.2-1.2-4.7-1.7-7.1-1.6-2.3 0-4.6.2-6.9.6-.5.2-.2.5-.2.5-.7.9-1.7 4.5-2 5.1S5 20 5 20c-.5.7-.7 1.6-.6 2.5 0 1.1.8 2 1.9 2.2-.3-1.5.7-3 2.2-3.3.4-.1.8-.1 1.2 0 1.1.2 1.9 1 2.1 2.1.1.4.1.9 0 1.3h13.6c-.4-1.5.5-3 1.9-3.4s3 .5 3.4 1.9c.1.5.1 1 0 1.4H32c.7 0 1.3-.6 1.3-1.3v-2.3c0-.2-.3-.6-.6-.7z"/><path class="st13" d="M5 20l2.7 1.6"/><path class="st14" d="M14.6 16.8v-3.4l-4.1.2s-1.9.1-2.2 3.1l6.3.1zM15.5 16.9v-3.4h1.4c.9 0 1.9.1 2.8.4 1.7.6 3.3 1.6 4.6 2.9h-8.8z"/><path class="st15" d="M13.2 23h10.3"/><path class="st16" d="M23.2 23c.2-.8.5-1.5 1-2.1.5-.6 1.1-1 1.9-1.2-.7.2-1.3.7-1.7 1.3-.4.6-.6 1.3-.7 2h-.5z"/><path class="st17" d="M33.1 22.8h-1.7"/><path class="st13" d="M29.8 21.9l2.3-1.3"/><radialGradient id="SVGID_1_" cx="19.188" cy="-633.747" r="11.33" gradientTransform="matrix(1.05 0 0 -.03 -1.07 8.04)" gradientUnits="userSpaceOnUse"><stop offset="0" stop-opacity=".2"/><stop offset=".16" stop-color="#231F20" stop-opacity=".2"/><stop offset=".85" stop-color="#231F20" stop-opacity=".15"/><stop offset=".94" stop-color="#231F20" stop-opacity=".1"/><stop offset=".99" stop-color="#8C8E24" stop-opacity=".04"/><stop offset="1" stop-color="#CFD527" stop-opacity="0"/></radialGradient><path class="st18" d="M35.4 27.1c0 1 3.2 1.7-15.6 1.7S2.3 28 2.3 27.1 1 25.4 19.8 25.4s15.6.7 15.6 1.7z"/></svg>