<svg width="38" height="17" viewBox="0 0 38 17" xmlns="http://www.w3.org/2000/svg" xmlns:xlink="http://www.w3.org/1999/xlink"><title>Group 7 Copy</title><defs><path d="M3.5 6.12C1.848 6.12.504 4.778.504 3.125c0-1.654 1.344-3 2.998-3 1.655 0 3 1.346 3 3 0 1.653-1.345 2.997-3 2.997z" id="a"/><filter x="-16.7%" y="-16.7%" width="133.3%" height="133.3%" filterUnits="objectBoundingBox" id="b"><feOffset dy="1" in="SourceAlpha" result="shadowOffsetInner1"/><feComposite in="shadowOffsetInner1" in2="SourceAlpha" operator="arithmetic" k2="-1" k3="1" result="shadowInnerInner1"/><feColorMatrix values="0 0 0 0 0 0 0 0 0 0 0 0 0 0 0 0 0 0 0.5 0" in="shadowInnerInner1"/></filter><path d="M3.5 1.124c-1.103 0-2 .898-2 2 0 1.105.897 2.002 2 2.002 1.102 0 2-.897 2-2 0-1.104-.898-2.002-2-2.002z" id="c"/><path d="M3.5 6.12C1.848 6.12.504 4.778.504 3.125c0-1.654 1.344-3 2.998-3 1.655 0 3 1.346 3 3 0 1.653-1.345 2.997-3 2.997z" id="d"/><filter x="-16.7%" y="-16.7%" width="133.3%" height="133.3%" filterUnits="objectBoundingBox" id="e"><feOffset dy="1" in="SourceAlpha" result="shadowOffsetInner1"/><feComposite in="shadowOffsetInner1" in2="SourceAlpha" operator="arithmetic" k2="-1" k3="1" result="shadowInnerInner1"/><feColorMatrix values="0 0 0 0 0 0 0 0 0 0 0 0 0 0 0 0 0 0 0.5 0" in="shadowInnerInner1"/></filter><path d="M3.5 1.124c-1.103 0-2 .898-2 2 0 1.105.897 2.002 2 2.002 1.102 0 2-.897 2-2 0-1.104-.898-2.002-2-2.002z" id="f"/><linearGradient x1="50%" y1="0%" x2="50%" y2="100%" id="g"><stop stop-color="#FFF" offset="0%"/><stop stop-color="#F9F9F9" offset="100%"/></linearGradient><path d="M3.44 13c-.13-.124-.26-.252-.413-.32-.866-.384-1.743-.744-2.618-1.106-.28-.116-.412-.32-.41-.593.003-.49.006-.98.053-1.467.03-.307.304-.45.583-.52.195-.05.23-.14.228-.312-.008-.883.117-1.77.1-2.655-.01-.502.21-.935.49-1.343.342-.495.533-.985.88-1.476.31-.432.61-.87.893-1.318.152-.243.36-.41.63-.468.582-.127 1.264-.428 1.857-.477 2.115-.177 4.25-.13 6.365 0 2.003.124 3.793.318 5.794.477.933.075 1.967.312 2.892.443.97.138 1.846.532 2.714.948 1.918.922 3.14 2.026 5.037 2.99.528.267 1.09.366 1.654.493 1.845.413 4.326.572 5.91 1.552.166.11.035.573.09.635.717.828.734 2.3.357 3.56-.13.437-.385.81-.92 1.048-.534.24-.87.308-1.352.242h-.996c.083-.278.127-.573.127-.88-.002-1.644-1.345-2.992-2.988-2.998-1.674-.006-3.012 1.323-3.013 2.993 0 .31.044.606.126.885H9.273c.08-.273.123-.564.123-.865-.002-1.644-1.345-2.992-2.988-2.998-1.674-.006-3.01 1.323-3.012 2.993 0 .185.015.366.045.54z" id="h"/><filter x="-5.4%" y="-16%" width="110.9%" height="148.8%" filterUnits="objectBoundingBox" id="i"><feOffset dx="-3" dy="4" in="SourceAlpha" result="shadowOffsetInner1"/><feComposite in="shadowOffsetInner1" in2="SourceAlpha" operator="arithmetic" k2="-1" k3="1" result="shadowInnerInner1"/><feColorMatrix values="0 0 0 0 0.607408588 0 0 0 0 0.607408588 0 0 0 0 0.607408588 0 0 0 0.12 0" in="shadowInnerInner1" result="shadowMatrixInner1"/><feOffset dy="-.5" in="SourceAlpha" result="shadowOffsetInner2"/><feComposite in="shadowOffsetInner2" in2="SourceAlpha" operator="arithmetic" k2="-1" k3="1" result="shadowInnerInner2"/><feColorMatrix values="0 0 0 0 0 0 0 0 0 0 0 0 0 0 0 0 0 0 0.12 0" in="shadowInnerInner2" result="shadowMatrixInner2"/><feMerge><feMergeNode in="shadowMatrixInner1"/><feMergeNode in="shadowMatrixInner2"/></feMerge></filter><path d="M3.44 13c-.13-.124-.26-.252-.413-.32-.866-.384-1.38-.235-2.65-.704-.3-.11-.38-.722-.377-.995.003-.49.006-.98.053-1.467.03-.307.304-.45.583-.52.195-.05.23-.14.228-.312-.008-.883.154-1.758.137-2.642-.01-.502.207-.988.487-1.397.34-.494.5-.943.848-1.434.308-.432.61-.87.892-1.318.152-.243.36-.41.63-.468.582-.127 1.256-.413 1.85-.462 2.114-.177 4.256-.13 6.37 0 2.005.124 3.896.454 5.898.612.932.075 1.866.162 2.79.293.972.138 1.867.528 2.735.944 1.918.92 3.12 2.03 5.017 2.992.528.267 1.09.366 1.654.493 1.845.413 4.326.572 5.91 1.552.166.11.035.573.09.635.717.828.807 2.356.43 3.615-.13.437-.34.814-.875 1.053-.534.24-.987.248-1.47.182h-.996c.083-.278.127-.573.127-.88-.002-1.644-1.345-2.992-2.988-2.998-1.674-.006-3.012 1.323-3.013 2.993 0 .31.044.606.126.885H9.273c.08-.273.123-.564.123-.865-.002-1.644-1.345-2.992-2.988-2.998-1.674-.006-3.01 1.323-3.012 2.993 0 .185.015.366.045.54z" id="j"/><path d="M6.146 16.583l-9.254-3.802c.007-.086.754-4.433.754-4.433h1l1.283.403 5.683 1.805.533 6.028z" id="l"/><filter x="-19.1%" y="-21.2%" width="138.4%" height="144.2%" filterUnits="objectBoundingBox" id="m"><feOffset dx="3" dy="-3" in="SourceAlpha" result="shadowOffsetInner1"/><feComposite in="shadowOffsetInner1" in2="SourceAlpha" operator="arithmetic" k2="-1" k3="1" result="shadowInnerInner1"/><feColorMatrix values="0 0 0 0 0 0 0 0 0 0 0 0 0 0 0 0 0 0 0.12 0" in="shadowInnerInner1"/></filter><path d="M37.645 15.472l-4 .403s-.5-.5-1.5-2.5 3-3.5 3-3.5h2.5v5.597z" id="n"/><filter x="-22.2%" y="-20.8%" width="144.3%" height="141.7%" filterUnits="objectBoundingBox" id="o"><feOffset dx="2" dy="-1" in="SourceAlpha" result="shadowOffsetInner1"/><feComposite in="shadowOffsetInner1" in2="SourceAlpha" operator="arithmetic" k2="-1" k3="1" result="shadowInnerInner1"/><feColorMatrix values="0 0 0 0 0 0 0 0 0 0 0 0 0 0 0 0 0 0 0.12 0" in="shadowInnerInner1"/></filter><path d="M33.302 8.163c-.056 0-.482.473-.482.96 0 0 .415.44 1.775 0 1.36-.443 1.717-1.165 1.717-1.165l-3.01.205z" id="p"/><path d="M3.508 13.297c-.05-.02-.11-.045-.19-.08-.866-.384-2.068-.64-2.944-1.003-.28-.116-.41-.32-.41-.593C-.03 11.13-.1 9.99-.053 9.5c.03-.306.304-.45.584-.52.194-.05.336-.126.334-.3-.008-.883 0-1.402 0-2.286 0-.595.023-1.086.304-1.494.34-.496 1.218-2.034 1.218-2.034s.66-1.085.94-1.533c.154-.243.363-.41.63-.468C4.54.738 5.127.6 5.72.55c2.115-.177 10.354.306 12.355.465.933.075 2.882.17 5.01 1.316 1.78.956 3.536 2.506 5.432 3.47.528.267 1.09.366 1.654.493 1.845.413 4.326.572 5.91 1.552.166.11.035.573.09.635.717.828.89 2.15.512 3.41-.13.436-.5.97-1.01 1.233-.512.264-1.58.413-2.063.346l-.396-.002c.112-.317.173-.66.173-1.018-.002-1.644-1.345-2.992-2.988-2.998-1.674-.006-3.012 1.323-3.013 2.993 0 .35.056.686.16.996l-18.283-.085c.086-.28.132-.58.132-.89-.002-1.644-1.345-2.992-2.988-2.998-1.674-.006-3.01 1.323-3.012 2.993 0 .292.038.572.112.837z" id="q"/><path d="M27.23 11.12l-13.824-.076c-.222-1.398-2.557-3.27-1.727-2.498.683.635 1.085 1.892 1.226 2.998h.5l13.825.077v-.5z" id="t"/><filter x="-6.4%" y="-46.1%" width="112.7%" height="161.4%" filterUnits="objectBoundingBox" id="s"><feMorphology radius=".25" operator="dilate" in="SourceAlpha" result="shadowSpreadOuter1"/><feOffset dy="-.5" in="shadowSpreadOuter1" result="shadowOffsetOuter1"/><feMorphology radius="1.25" in="SourceAlpha" result="shadowInner"/><feOffset dy="-.5" in="shadowInner" result="shadowInner"/><feComposite in="shadowOffsetOuter1" in2="shadowInner" operator="out" result="shadowOffsetOuter1"/><feColorMatrix values="0 0 0 0 0 0 0 0 0 0 0 0 0 0 0 0 0 0 0.26 0" in="shadowOffsetOuter1"/></filter><path d="M8.17 1.65c2.132.032 4.804.21 6.968.38l-.305 4.297-7.376-.175.713-4.503zm-.723-.006c-1.54.002-2.685.1-2.95.366-1.225.955-1.61 4.034-1.61 4.034l3.743.09.817-4.49zm8.444.447c1.853.155 3.178.288 3.178.288 1.362.124 3.33.936 4.39 1.808L26.402 6.6l-10.7-.253.19-4.256z" id="u"/><filter x="-4.3%" y="-25.5%" width="108.5%" height="159.2%" filterUnits="objectBoundingBox" id="v"><feOffset dy="-.5" in="SourceAlpha" result="shadowOffsetInner1"/><feComposite in="shadowOffsetInner1" in2="SourceAlpha" operator="arithmetic" k2="-1" k3="1" result="shadowInnerInner1"/><feColorMatrix values="0 0 0 0 0 0 0 0 0 0 0 0 0 0 0 0 0 0 0.26 0" in="shadowInnerInner1" result="shadowMatrixInner1"/><feMorphology radius="1" in="SourceAlpha" result="shadowSpreadInner2"/><feOffset dx="1" in="shadowSpreadInner2" result="shadowOffsetInner2"/><feComposite in="shadowOffsetInner2" in2="SourceAlpha" operator="arithmetic" k2="-1" k3="1" result="shadowInnerInner2"/><feColorMatrix values="0 0 0 0 0 0 0 0 0 0 0 0 0 0 0 0 0 0 0.12 0" in="shadowInnerInner2" result="shadowMatrixInner2"/><feMerge><feMergeNode in="shadowMatrixInner1"/><feMergeNode in="shadowMatrixInner2"/></feMerge></filter><path d="M11.523 8.087c-.713-.4-1.554-.62-2.487-.62-2.47 0-4.684 1.637-4.684 4.137h.5c0-2 1.942-3.686 4.184-3.686.903 0 2.512.15 2.487.17z" id="x"/><filter x="-13.9%" y="-36.3%" width="127.9%" height="148.3%" filterUnits="objectBoundingBox" id="w"><feMorphology radius=".25" operator="dilate" in="SourceAlpha" result="shadowSpreadOuter1"/><feOffset dy="-.5" in="shadowSpreadOuter1" result="shadowOffsetOuter1"/><feMorphology radius="1.25" in="SourceAlpha" result="shadowInner"/><feOffset dy="-.5" in="shadowInner" result="shadowInner"/><feComposite in="shadowOffsetOuter1" in2="shadowInner" operator="out" result="shadowOffsetOuter1"/><feColorMatrix values="0 0 0 0 0 0 0 0 0 0 0 0 0 0 0 0 0 0 0.26 0" in="shadowOffsetOuter1"/></filter></defs><g fill="none" fill-rule="evenodd"><g transform="matrix(-1 0 0 1 10.46 9.43)"><use fill="#323232" xlink:href="#a"/><use fill="#000" filter="url(#b)" xlink:href="#a"/><path stroke="#323232" stroke-width=".5" d="M3.5 6.37c1.793 0 3.25-1.455 3.25-3.246 0-1.792-1.457-3.25-3.25-3.25C1.71-.126.254 1.33.254 3.124.253 4.914 1.71 6.37 3.5 6.37z"/></g><g transform="matrix(-1 0 0 1 10.46 9.43)"><use fill="#D8D8D8" xlink:href="#c"/><path stroke="#000" stroke-width=".5" d="M3.5 1.374c.964 0 1.75.786 1.75 1.75 0 .967-.785 1.752-1.75 1.752-.966 0-1.75-.785-1.75-1.75 0-.966.785-1.752 1.75-1.752z"/></g><g transform="matrix(-1 0 0 1 34.46 9.43)"><use fill="#323232" xlink:href="#d"/><use fill="#000" filter="url(#e)" xlink:href="#d"/><path stroke="#323232" stroke-width=".5" d="M3.5 6.37c1.793 0 3.25-1.455 3.25-3.246 0-1.792-1.457-3.25-3.25-3.25C1.71-.126.254 1.33.254 3.124.253 4.914 1.71 6.37 3.5 6.37z"/></g><g transform="matrix(-1 0 0 1 34.46 9.43)"><use fill="#D8D8D8" xlink:href="#f"/><path stroke="#000" stroke-width=".5" d="M3.5 1.374c.964 0 1.75.786 1.75 1.75 0 .967-.785 1.752-1.75 1.752-.966 0-1.75-.785-1.75-1.75 0-.966.785-1.752 1.75-1.752z"/></g><g><g transform="translate(.56 .1)"><use fill="url(#g)" xlink:href="#h"/><use fill="#000" filter="url(#i)" xlink:href="#h"/></g><g transform="translate(.56 .1)"><mask id="k" fill="#fff"><use xlink:href="#j"/></mask><g mask="url(#k)"><use fill="#CCDB28" xlink:href="#l"/><use fill="#000" filter="url(#m)" xlink:href="#l"/><path stroke="#000" stroke-width=".25" d="M6.098 16.7l.172-.128-.532-6.028-.087-.108L-.032 8.63l-1.284-.403-1.037-.005-.124.103-.117.687c-.09.515-.177 1.03-.26 1.513 0 .01 0 .01-.003.018-.24 1.4-.37 2.184-.375 2.228l.077.127L6.098 16.7z"/></g><g mask="url(#k)"><use fill="#CCDB28" xlink:href="#n"/><use fill="#000" filter="url(#o)" xlink:href="#n"/><path stroke="#000" stroke-width=".25" d="M37.657 15.596l.113-.124V9.875l-.125-.125h-2.5c-.146.046-.32.12-.547.223-.375.174-.75.374-1.1.598-1.345.86-1.982 1.827-1.465 2.86.44.88.817 1.54 1.133 2.015.192.287.322.45.39.52l.1.035 4-.404z"/></g><path d="M34.827 11.277h1.25c.126 0 .25.08.25.087 0 .01-.123.087-.25.087h-1.25v-.173z" stroke="#323232" stroke-width=".5" mask="url(#k)" transform="matrix(-1 0 0 1 71.15 0)"/><g stroke-linecap="round" stroke-linejoin="round" mask="url(#k)" transform="matrix(-1 0 0 1 69.13 0)"><use fill="#FDFFDF" xlink:href="#p"/><path stroke="#323232" stroke-width=".4" d="M33.292 7.964c-.255.017-.672.68-.672 1.158l.054.136c.04.044.114.097.224.145.384.17.96.17 1.76-.09.367-.12.687-.267.96-.435.494-.3.765-.61.873-.83l.155-.313-.347.023-3.01.206h.004z"/></g><mask id="r" fill="#fff"><use xlink:href="#q"/></mask><path stroke="#000" stroke-width=".5" d="M3.17 12.884c-.31-.124-.67-.24-1.272-.424l-.12-.036c-.663-.2-.984-.307-1.308-.44-.182-.076-.256-.186-.255-.362 0-.158 0-.267-.017-.785l-.008-.28c-.014-.506-.014-.833.005-1.032.014-.14.142-.24.396-.303.326-.08.527-.24.524-.543-.003-.393-.004-.72-.003-1.143.002-.174.002-.174.002-.353.002-.346.002-.542.002-.79 0-.724.055-1.055.26-1.353.12-.175.31-.48.55-.886l.04-.068c.144-.24.294-.497.442-.754.09-.154.158-.274.197-.342l.16-.263.363-.592.006-.01.407-.66c.123-.196.28-.314.47-.356l.21-.046C4.97.898 5.32.834 5.74.8c1.696-.143 8.77.183 12.316.464 2.113.17 3.268.403 4.912 1.287.212.115.43.24.66.38.538.33.823.525 2.005 1.35 1.26.88 1.96 1.33 2.77 1.742.406.206.743.303 1.48.464l.233.05c.383.086.77.16 1.41.27l.558.094c.213.037.39.068.56.1 1.536.282 2.533.58 3.306 1.057-.038-.025-.03.012-.032.09 0 .03-.002.054-.006.11-.02.304-.02.285.068.387.645.744.823 1.97.463 3.173-.127.424-.478.874-.887 1.084-.436.226-1.446.386-1.913.322h-.096c.06-.25.09-.51.09-.772-.002-1.782-1.456-3.242-3.237-3.248-1.81-.007-3.262 1.435-3.263 3.243 0 .254.027.503.08.744l-17.633-.084c.04-.21.062-.423.062-.64-.002-1.783-1.457-3.243-3.237-3.25-1.813-.006-3.263 1.436-3.264 3.244 0 .143.008.285.025.424z"/><g opacity=".26" mask="url(#r)" transform="matrix(-1 0 0 1 38.73 0)"><use fill="#000" filter="url(#s)" xlink:href="#t"/><path stroke="#000" stroke-width=".5" d="M13.406 11.294H13.122c-.04-.265-.092-.524-.156-.774.1.2.166.39.193.563l.032.21h.213zm13.575.075v.25l.253-.25h-.253l-13.573-.076 13.574.075h.25l-.25-.25v.25z"/></g><g mask="url(#r)"><use fill-opacity=".12" fill="#FFF" xlink:href="#u"/><use fill="#000" filter="url(#v)" xlink:href="#u"/><path stroke="#000" stroke-width=".35" d="M8.32 1.827c1.802.033 4.088.165 6.63.364l-.28 3.958-7.01-.166.66-4.155zM7.237 1.82l-.752 4.134-3.396-.08c.02-.126.046-.285.082-.47.098-.5.224-.997.38-1.46.284-.843.637-1.472 1.053-1.796.204-.202 1.143-.316 2.632-.328zm8.82.46c.744.063 1.45.126 2.1.187l.893.085c1.326.12 3.26.918 4.298 1.77l2.55 2.09-10.016-.235.175-3.896z"/></g><g opacity=".26" mask="url(#r)" transform="matrix(-1 0 0 1 15.88 0)"><use fill="#000" filter="url(#w)" xlink:href="#x"/><path stroke="#000" stroke-width=".5" d="M7.008 8.124c-1.33.628-2.292 1.844-2.397 3.23.097-1.462 1.04-2.642 2.398-3.23z"/></g></g></g></g></svg>