<svg id="Layer_1" xmlns="http://www.w3.org/2000/svg" viewBox="0 0 38 38"><style>.st0{fill:#484848;stroke:#000000;stroke-width:0.5;stroke-linejoin:round;} .st1{fill:#353535;} .st2{fill:#FDDD00;} .st3{fill:#DEC200;} .st4{fill:none;stroke:#2E2E2E;stroke-width:0.75;stroke-miterlimit:10;} .st5{fill:none;stroke:#8A8A8A;stroke-width:0.5;stroke-miterlimit:10;} .st6{fill:#FCFFDF;stroke:#000000;stroke-width:0.35;stroke-linecap:round;stroke-miterlimit:10;} .st7{fill:#151515;} .st8{fill:#070707;} .st9{fill:#DEDEDE;stroke:#000000;stroke-width:0.35;stroke-linejoin:round;} .st10{fill:#F6F6F6;} .st11{fill:#D8D8D8;} .st12{fill:none;stroke:#000000;stroke-width:0.5;stroke-linejoin:round;} .st13{fill:none;stroke:#414141;stroke-linecap:round;stroke-miterlimit:10;} .st14{fill:none;stroke:#2E2E2E;stroke-width:0.75;stroke-linecap:round;stroke-miterlimit:10;} .st15{fill:#E0E0E0;stroke:#000000;stroke-width:0.35;stroke-linecap:round;stroke-miterlimit:10;} .st16{fill:none;stroke:#000000;stroke-width:0.35;stroke-linecap:round;stroke-miterlimit:10;} .st17{opacity:0.51;fill:url(#SVGID_1_);enable-background:new ;}</style><title>category_icon</title><path class="st0" d="M33.6 24.8c.7-1.8-.2-3.7-2-4.4-.5-.2-1-.3-1.5-.2-1.2.1-2.3.9-2.8 2-.4.8-.5 1.8-.1 2.6H12.7c.7-1.8-.2-3.7-2-4.4-.5-.2-1-.3-1.5-.2-1.2.1-2.3.9-2.8 2-.4.8-.4 1.8-.1 2.6h-4c-.3-.3-.6-.7-.9-1.2v-1.4s.6-.1.8-.6c.1-.3.1-.5 0-.8l-.8-2s-.1-.6.6-.6c0 0 4.5-.7 5-.7.4 0 .8 0 1.2-.1.5-1 1-1.9 1.7-2.8l-.2-.8c1.7-.4 3.5-.6 5.3-.8 3-.1 6 0 8.9.4 0 0 2.4 3.6 2.8 4 0 0 7.8.4 9.1.5.2 0 .4.2.4.5 0 .4-1 3.1-.7 3.5s.8.1.9.4v1.3s-.1 1-.7 1.2h-2.1z"/><path class="st1" d="M6.5 22.2c.5-1.1 1.6-1.9 2.8-2 1.9-.2 3.5 1.2 3.7 3.1 0 .5 0 1-.2 1.5h14.5c-.3-.9-.3-1.8.1-2.6.5-1.1 1.6-1.9 2.8-2 1.9-.2 3.5 1.2 3.7 3.1 0 .5 0 1-.2 1.5h.9l-.1-1.7s-.1-3.4-4.1-3.4-4 4.4-4 4.4H13.7c.2-2.2-1.5-4.2-3.8-4.3h-.6c-3.9 0-3.9 4.3-3.9 4.3H3.7v.8h2.6c-.3-1-.2-1.9.2-2.7zM7.1 17.5c-.5 0-5 .7-5 .7-.8 0-.6.6-.6.6l.4 1.2 2-.8c1.3-.4 2.6-.7 3.9-.9.6 0 1.1-.4 1.2-1l-.6-.3c0 .1-.1.3-.2.4-.4.1-.7.2-1.1.1z"/><path class="st2" d="M24 13.5c-3-.4-6-.5-9-.3-1.8.1-3.6.4-5.4.8l.2.8c-.7.9-1.2 1.8-1.7 2.8l2.1-.1h14.1l2.4.1c-.3-.5-2.7-4.1-2.7-4.1z"/><path class="st3" d="M10.3 17.4L8.5 17l.4-.9h1.9zM11.7 16.1h1.1v1.2h-1.1zM17.3 16.1h1.1v1.2h-1.1z"/><path class="st4" d="M2.5 19.7h32.4"/><path class="st5" d="M2.8 19.2h32.1"/><path class="st3" d="M26.7 17.3l-2.3.1-.9-1.5 2.2.1z"/><path class="st1" d="M35.8 17.9c-1.6 0-9-.5-9-.5l-.1-.1-1.1.1c.3.6.9 1.1 1.6 1.1 1.2 0 8.3.7 8.3.7l.3-1.3z"/><path class="st6" d="M1.5 18.9l.4 1h.6c.4 0 .4-.3.4-.3v-1.4l-.8.1c-.8 0-.6.6-.6.6z"/><circle class="st7" cx="9.6" cy="23.6" r="3.2"/><path class="st8" d="M9.6 21.5c1.6 0 2.9 1.1 3.2 2.7.3-1.8-.8-3.5-2.6-3.8-1.8-.3-3.5.8-3.8 2.6-.1.4-.1.8 0 1.2.2-1.6 1.6-2.7 3.2-2.7z"/><circle class="st7" cx="30.4" cy="23.6" r="3.3"/><path class="st8" d="M30.4 21.5c1.6 0 2.9 1.1 3.2 2.7.3-1.8-.8-3.5-2.6-3.8-1.8-.3-3.5.8-3.8 2.6-.1.4-.1.8 0 1.2.3-1.6 1.7-2.7 3.2-2.7z"/><circle class="st9" cx="9.6" cy="23.6" r="1.7"/><path class="st10" d="M36.5 22.2c-.1-.3-.6 0-.9-.4 0 0-1.1 0-1.2.8-.1.7-.1 1.4 0 2.2h1.4c.6-.1.7-1.2.7-1.2v-1.4z"/><path class="st11" d="M34.5 24.8h1.4c.6-.1.7-1.2.7-1.2v-.5h-2.1c-.1.6-.1 1.1 0 1.7z"/><path class="st12" d="M33.6 24.8c.7-1.8-.2-3.7-2-4.4-.5-.2-1-.3-1.5-.2-1.2.1-2.3.9-2.8 2-.4.8-.5 1.8-.1 2.6H12.7c.7-1.8-.2-3.7-2-4.4-.5-.2-1-.3-1.5-.2-1.2.1-2.3.9-2.8 2-.4.8-.4 1.8-.1 2.6h-4c-.3-.3-.6-.7-.9-1.2v-1.4s.6-.1.8-.6c.1-.3.1-.5 0-.8l-.8-2s-.1-.6.6-.6c0 0 4.5-.7 5-.7.4 0 .8 0 1.2-.1.5-1 1-1.9 1.7-2.8l-.2-.8c1.7-.4 3.5-.6 5.3-.8 3-.1 6 0 8.9.4 0 0 2.4 3.6 2.8 4 0 0 7.8.4 9.1.5.2 0 .4.2.4.5 0 .4-1 3.1-.7 3.5s.8.1.9.4v1.3s-.1 1-.7 1.2h-2.1z"/><circle class="st9" cx="30.4" cy="23.6" r="1.7"/><path d="M23.9 13.2s1.3.1 1.4.1-.1.3-.9.4l-.5-.5z"/><path class="st13" d="M14.1 21.7H26"/><path class="st14" d="M14.1 21.9H26"/><path class="st15" d="M11.7 15c-.8.5-1.3 1.4-1.3 2.4h1.4l-.1-2.4zM17.3 14.3c-1.5 0-3 .1-4.5.4v2.7h4.5v-3.1zM23.2 15.2c-.2-.5-.7-.8-1.2-.8 0 0-1.6-.2-3.8-.2v3.1h6.1l-1.1-2.1z"/><path class="st6" d="M35.9 17.9h-1.1s.4.5.3.9-.6.7-.5 1 1.3.2 1.3.2c.2-.7.4-1.3.4-1.5.1-.3 0-.5-.4-.6.1 0 .1 0 0 0z"/><path class="st16" d="M8.2 17.5l2.1-.1h14.1l2.4.1M35.6 21.9s-1-.1-1.2.8c-.1.7-.1 1.4 0 2.2"/><path class="st11" d="M3.1 21.7h-.9c-.1.5-.8.6-.8.6v1.3l.9 1.2h1.4v-2.5c0-.5-.6-.6-.6-.6z"/><path class="st10" d="M3.1 21.7h-.9c-.1.5-.8.6-.8.6v.8h2.3v-.9c0-.4-.6-.5-.6-.5z"/><path class="st16" d="M3.1 21.7h-.9c-.1.5-.8.6-.8.6v1.3l.9 1.2h1.4v-2.5c0-.5-.6-.6-.6-.6z"/><radialGradient id="SVGID_1_" cx="8.128" cy="-633.747" r="11.33" gradientTransform="matrix(1.05 0 0 -.03 10.48 8.04)" gradientUnits="userSpaceOnUse"><stop offset="0" stop-opacity=".2"/><stop offset=".16" stop-color="#231F20" stop-opacity=".2"/><stop offset=".85" stop-color="#231F20" stop-opacity=".15"/><stop offset=".94" stop-color="#231F20" stop-opacity=".1"/><stop offset=".99" stop-color="#8C8E24" stop-opacity=".04"/><stop offset="1" stop-color="#CFD527" stop-opacity="0"/></radialGradient><path class="st17" d="M35.4 27.1c0 1 3.2 1.7-15.6 1.7S2.3 28 2.3 27.1 1 25.4 19.8 25.4s15.6.7 15.6 1.7z"/></svg>