<svg id="Layer_1" data-name="Layer 1" xmlns="http://www.w3.org/2000/svg" viewBox="0 0 38 38"><defs><style>.cls-1,.cls-2,.cls-3,.cls-5{fill:none;stroke:#323232;}.cls-1,.cls-2,.cls-3{stroke-linejoin:round;}.cls-1{stroke-width:0.46px;}.cls-2,.cls-5{stroke-width:0.5px;}.cls-3{stroke-width:0.75px;}.cls-4{fill:#323232;}.cls-5{stroke-miterlimit:10;}</style></defs><title>category_icon</title><circle class="cls-1" cx="7.5" cy="23.67" r="3"/><circle class="cls-2" cx="7.5" cy="23.67" r="1.6"/><circle class="cls-1" cx="30" cy="23.67" r="3"/><path class="cls-3" d="M4.56 24.76a2.94 2.94 0 0 1 .11-2.41 3.21 3.21 0 0 1 2.56-1.82 3.13 3.13 0 0 1 3.21 4.23h16.62a2.94 2.94 0 0 1 .11-2.41 3.21 3.21 0 0 1 2.56-1.82 3.13 3.13 0 0 1 3.21 4.23 10.83 10.83 0 0 1 1.64-.13c.48 0 1.46-.33 1.56-.85 0 0-.5-.85-.21-1.13 0 0 .21-.14.21-.93a2.32 2.32 0 0 0-.15-1s-3-2-9.33-2.25c0 0-5-2.25-5.83-2.56a23.77 23.77 0 0 0-10.33-.39 18 18 0 0 0-4.79 1.41 33.12 33.12 0 0 1-3.75 1l.19.72A3.33 3.33 0 0 0 2 19.93a.45.45 0 0 1-.07.3c-.09.09-.29.07-.25.75a19.83 19.83 0 0 0 .32 2.6z"/><circle class="cls-2" cx="30" cy="23.67" r="1.6"/><path class="cls-2" d="M2.84 23.94a4.47 4.47 0 0 1 .47-2.4 4.89 4.89 0 0 1 3.91-2.77A4.8 4.8 0 0 1 11.71 21a4.42 4.42 0 0 0 2.58 1.62"/><path class="cls-4" d="M14.29 22.42l11.67.29-11.67.21v-.5z"/><path class="cls-5" d="M14.54 16.1s.1.45.18.92a8.1 8.1 0 0 0 .35 1.35 4.89 4.89 0 0 1-1.87-.29 25.41 25.41 0 0 0-4-1.16 15.39 15.39 0 0 1 5.34-.82zM16.07 18.38a8.1 8.1 0 0 1-.35-1.38c-.08-.47-.18-.92-.18-.92a16.83 16.83 0 0 1 4.4.44 14.73 14.73 0 0 1 3.84 1.84z"/><path class="cls-2" d="M36 20.67a31.47 31.47 0 0 0-3.67-.67c-.71 0-.23.67.94.85 0 0 .59 1.4 2.87 1a2.61 2.61 0 0 0-.14-1.18z"/></svg>