<svg id="Layer_1" xmlns="http://www.w3.org/2000/svg" viewBox="0 0 38 38"><style>.st0{opacity:0.51;fill:url(#SVGID_1_);enable-background:new ;} .st1{fill:none;stroke:url(#SVGID_2_);stroke-width:1.2;stroke-linecap:round;stroke-linejoin:round;} .st2{fill:#4F4F4F;} .st3{fill:#393939;} .st4{fill:#DEDEDE;stroke:#000000;stroke-width:0.34;stroke-linejoin:round;} .st5{fill:url(#SVGID_3_);} .st6{fill:url(#SVGID_4_);} .st7{fill:#717171;} .st8{fill:#636363;} .st9{fill:none;stroke:#000000;stroke-width:0.35;stroke-linecap:round;stroke-linejoin:round;} .st10{fill:url(#SVGID_5_);} .st11{fill:#5C5E60;} .st12{fill:none;stroke:#000000;stroke-width:0.5;stroke-linejoin:round;} .st13{fill:#717171;stroke:#000000;stroke-width:0.35;stroke-linecap:round;stroke-linejoin:round;} .st14{fill:#A2A2A2;stroke:#000000;stroke-width:0.35;stroke-linecap:round;stroke-miterlimit:10;} .st15{fill:#B9B9B9;} .st16{fill:#FCFFDF;stroke:#000000;stroke-width:0.35;stroke-linecap:round;stroke-linejoin:round;}</style><title>category_icon</title><radialGradient id="SVGID_1_" cx="11.818" cy="-633.747" r="11.33" gradientTransform="matrix(1.05 0 0 -.03 6.63 8.04)" gradientUnits="userSpaceOnUse"><stop offset="0" stop-opacity=".2"/><stop offset=".16" stop-color="#231F20" stop-opacity=".2"/><stop offset=".85" stop-color="#231F20" stop-opacity=".15"/><stop offset=".94" stop-color="#231F20" stop-opacity=".1"/><stop offset=".99" stop-color="#8C8E24" stop-opacity=".04"/><stop offset="1" stop-color="#CFD527" stop-opacity="0"/></radialGradient><path class="st0" d="M35.4 27.1c0 1 3.2 1.7-15.6 1.7S2.3 28 2.3 27.1 1 25.4 19.8 25.4s15.6.7 15.6 1.7z"/><linearGradient id="SVGID_2_" gradientUnits="userSpaceOnUse" x1="7.954" y1="14.8" x2="14.713" y2="22.848" gradientTransform="matrix(1 0 0 -1 0 40)"><stop offset="0" stop-color="#434649"/><stop offset="1" stop-color="#5E6162"/></linearGradient><path class="st1" d="M19.5 21.9s-4.1.1-4.9 0c-1-.2-1.8-.8-2.4-1.6-1-1.4-2.6-2.3-4.3-2.4-1.6 0-3.2.7-4.2 1.9l-.4.6"/><circle class="st2" cx="7.5" cy="23.6" r="3.2"/><path class="st3" d="M4.4 24.2c.4-1.7 2.1-2.8 3.9-2.4 1.2.3 2.2 1.3 2.4 2.5.4-1.7-.7-3.5-2.4-3.9-1.7-.4-3.5.7-3.9 2.4-.2.5-.2 1 0 1.4-.1.1 0 0 0 0z"/><circle class="st4" cx="7.5" cy="23.6" r="1.6"/><linearGradient id="SVGID_3_" gradientUnits="userSpaceOnUse" x1="1.63" y1="20.135" x2="36.15" y2="20.135" gradientTransform="matrix(1 0 0 -1 0 40)"><stop offset="0" stop-color="#54575A"/><stop offset="1" stop-color="#6B6F70"/></linearGradient><path class="st5" d="M4.6 24.7c-.3-.8-.3-1.7.1-2.4.5-1 1.4-1.7 2.6-1.8 1.7-.2 3.2 1.1 3.4 2.8 0 .5 0 1-.2 1.4h16.6c-.3-.8-.3-1.7.1-2.4.5-1 1.4-1.7 2.6-1.8 1.7-.2 3.2 1.1 3.4 2.8 0 .5 0 1-.2 1.4.5-.1 1.1-.1 1.6-.1s1.5-.3 1.6-.9c0 0-.5-.9-.2-1.1 0 0 .2-.1.2-.9 0-.3 0-.7-.2-1 0 0-3-2-9.3-2.2 0 0-5-2.2-5.8-2.6-3.4-.9-6.9-1-10.3-.4-1.7.2-3.3.7-4.8 1.4-1.2.4-2.5.7-3.8 1l.2.7c-.2.4-.2.8-.2 1.3 0 .1 0 .2-.1.3-.1.1-.3.1-.2.8 0 .9.2 1.7.3 2.6l2.6 1.1z"/><linearGradient id="SVGID_4_" gradientUnits="userSpaceOnUse" x1="1.63" y1="20.135" x2="36.15" y2="20.135" gradientTransform="matrix(1 0 0 -1 0 40)"><stop offset="0" stop-color="#54575A"/><stop offset="1" stop-color="#6B6F70"/></linearGradient><path class="st6" d="M4.6 24.7c-.3-.8-.3-1.7.1-2.4.5-1 1.4-1.7 2.6-1.8 1.7-.2 3.2 1.1 3.4 2.8 0 .5 0 1-.2 1.4h16.6c-.3-.8-.3-1.7.1-2.4.5-1 1.4-1.7 2.6-1.8 1.7-.2 3.2 1.1 3.4 2.8 0 .5 0 1-.2 1.4.5-.1 1.1-.1 1.6-.1s1.5-.3 1.6-.9c0 0-.5-.9-.2-1.1 0 0 .2-.1.2-.9 0-.3 0-.7-.2-1 0 0-3-2-9.3-2.2 0 0-5-2.2-5.8-2.6-3.4-.9-6.9-1-10.3-.4-1.7.2-3.3.7-4.8 1.4-1.2.4-2.5.7-3.8 1l.2.7c-.2.4-.2.8-.2 1.3 0 .1 0 .2-.1.3-.1.1-.3.1-.2.8 0 .9.2 1.7.3 2.6l2.6 1.1z"/><path class="st7" d="M34.7 24.5c.5 0 1.5-.3 1.6-.9 0 0-.5-.9-.2-1.2h-3c.3.7.3 1.5 0 2.1.5.1 1.1 0 1.6 0z"/><path class="st8" d="M34.8 23.3c.1.4-.4.7-1.5.7h-.1c0 .2-.1.5-.2.7.6-.1 1.1-.1 1.7-.1.5 0 1.5-.3 1.6-.9 0 0-.5-.9-.2-1.2h-1.3c-.1.3-.1.5 0 .8z"/><path class="st9" d="M35.9 22.6H33"/><linearGradient id="SVGID_5_" gradientUnits="userSpaceOnUse" x1="13.851" y1="14.046" x2="15.091" y2="22.866" gradientTransform="matrix(1 0 0 -1 0 40)"><stop offset="0" stop-color="#383D40"/><stop offset="1" stop-color="#66696B"/></linearGradient><path class="st10" d="M22.9 21.3c-2.1-.9-6.8-2.8-7.5-3s-6.1-1.5-6.1-1.5l-1.7-.7c-.6.2-1.3.4-1.9.7-1.2.4-2.5.7-3.8 1l.2.7c-.1.5-.1.9-.1 1.4 0 .1 0 .2-.1.3-.1.1-.3.1-.2.8 0 .9.2 1.7.3 2.6l2.4 1.1c-.2-.8-.2-1.6.2-2.3.1-.1.1-.3.2-.4.8-1.3 2.3-1.8 3.7-1.3 1.3.4 2.2 1.7 2.2 3.1 0 .3-.1.7-.2 1H27c-.3-.8-.3-1.7.1-2.4-1.4-.2-2.9-.6-4.2-1.1z"/><path class="st11" d="M36 20.6s-3-2-9.3-2.2c0 0-5-2.2-5.8-2.6-3.4-.9-6.9-1-10.3-.4-1.7.2-3.3.7-4.8 1.4-1.2.4-2.5.7-3.8 1l.1.4h1.3c.6 0 1.3-.2 1.8-.5 1.4-.6 2.9-1.1 3.8-1.4.6-.3 1.3-.4 2-.5 3.2-.5 6.5-.3 9.7.5.8.3 6 2.9 6 2.9 3.2 0 6.4.6 9.3 1.8.1-.1.1-.3 0-.4z"/><circle class="st2" cx="30" cy="23.6" r="3.2"/><path class="st3" d="M26.9 24.2c.4-1.7 2.1-2.8 3.9-2.4 1.2.3 2.2 1.3 2.4 2.5.4-1.7-.7-3.5-2.4-3.9-1.7-.4-3.5.7-3.9 2.4-.2.5-.2 1 0 1.4 0 .1 0 0 0 0z"/><circle class="st4" cx="30" cy="23.6" r="1.6"/><path class="st12" d="M4.6 24.7c-.3-.8-.3-1.7.1-2.4.5-1 1.4-1.7 2.6-1.8 1.7-.2 3.2 1.1 3.4 2.8 0 .5 0 1-.2 1.4h16.6c-.3-.8-.3-1.7.1-2.4.5-1 1.4-1.7 2.6-1.8 1.7-.2 3.2 1.1 3.4 2.8 0 .5 0 1-.2 1.4.5-.1 1.1-.1 1.6-.1s1.5-.3 1.6-.9c0 0-.5-.9-.2-1.1 0 0 .2-.1.2-.9 0-.3 0-.7-.2-1 0 0-3-2-9.3-2.2 0 0-5-2.2-5.8-2.6-3.4-.9-6.9-1-10.3-.4-1.7.2-3.3.7-4.8 1.4-1.2.4-2.5.7-3.8 1l.2.7c-.2.4-.2.8-.2 1.3 0 .1 0 .2-.1.3-.1.1-.3.1-.2.8 0 .9.2 1.7.3 2.6l2.6 1.1z"/><path class="st13" d="M1.6 20.9c.1.9.2 1.7.4 2.6l2.5 1.2c-.3-.8-.3-1.7.1-2.4.2-.3.3-.5.4-.7l-1.2-1-2-.4s-.2 0-.2.7z"/><path class="st8" d="M2.8 23.9l1.7.8c-.3-.8-.3-1.7.1-2.4.1-.2.2-.4.4-.6l-1.2-1-.6-.1s.4.9.2 1.2c-.3.6-.5 1.3-.6 2.1z"/><path class="st9" d="M1.6 20.9c.1.9.2 1.7.4 2.6l2.5 1.2c-.3-.8-.3-1.7.1-2.4.2-.3.3-.5.4-.7l-1.2-1-2-.4s-.2 0-.2.7zM3.8 20.6c1.6-2.1 4.5-2.5 6.6-1 .5.4.9.8 1.2 1.4.6.8 1.6 1.4 2.6 1.6"/><path d="M14.3 22.4l11.7.2-11.7.1c-.1 0-.2-.1-.1-.2l.1-.1z"/><path class="st14" d="M14.5 16s.1.5.2.9c.1.5.2.9.4 1.4-.6 0-1.3-.1-1.9-.3-1.3-.5-2.6-.9-4-1.2 1.7-.6 3.5-.8 5.3-.8z"/><path class="st15" d="M11 16.8c1-.2 2-.2 3.1-.2l.3 1.3c-.6-.1-1.1-.3-1.7-.5-.6-.3-1.1-.5-1.7-.6z"/><path class="st14" d="M16.1 18.3c-.2-.4-.3-.9-.4-1.4-.1-.5-.2-.9-.2-.9 1.5 0 3 .1 4.4.4 1.4.4 2.7 1 3.8 1.8l-7.6.1z"/><path class="st15" d="M16.1 16.5l.4 1.4h5.6c-1.8-1.1-3.9-1.5-6-1.4z"/><path class="st16" d="M36 20.6c-1.2-.3-2.4-.5-3.7-.6-.7 0-.2.7.9.9 0 0 .6 1.4 2.9 1 .1-.5 0-.9-.1-1.3z"/></svg>