<svg id="Layer_1" data-name="Layer 1" xmlns="http://www.w3.org/2000/svg" xmlns:xlink="http://www.w3.org/1999/xlink" viewBox="0 0 38 38"><defs><style>.cls-1,.cls-13,.cls-14,.cls-15,.cls-17,.cls-19,.cls-2,.cls-20{fill:none;}.cls-2{clip-rule:evenodd;}.cls-3{fill:#f1f1f1;}.cls-4{fill:#fcfcfc;}.cls-5{fill:#ccdb28;}.cls-6{fill:#4f4f4f;}.cls-7{fill:#b3bf23;}.cls-8{fill:#393939;}.cls-9{fill:#dedede;}.cls-11,.cls-12,.cls-13,.cls-17,.cls-18,.cls-19,.cls-20,.cls-9{stroke:#000;}.cls-11,.cls-12,.cls-13,.cls-14,.cls-17,.cls-20,.cls-9{stroke-linejoin:round;}.cls-11,.cls-12,.cls-18,.cls-19,.cls-20,.cls-9{stroke-width:0.35px;}.cls-10{fill:#d3d3d3;}.cls-11,.cls-12{fill:#fcffdf;}.cls-11,.cls-14,.cls-15,.cls-17,.cls-20{stroke-linecap:round;}.cls-13,.cls-15,.cls-17{stroke-width:0.5px;}.cls-14{stroke:#ededed;stroke-width:1.4px;}.cls-15{stroke:#c9c9c9;}.cls-15,.cls-18,.cls-19{stroke-miterlimit:10;}.cls-16,.cls-18{fill:#d5d5d5;}.cls-21{opacity:0.51;fill:url(#radial-gradient);}.cls-22{clip-path:url(#clip-path);}.cls-23{clip-path:url(#clip-path-2);}.cls-24{isolation:isolate;}.cls-25{clip-path:url(#clip-path-3);}.cls-26,.cls-30{fill:#fe484a;}.cls-27{clip-path:url(#clip-path-5);}.cls-28{fill:#fff;}.cls-29{clip-path:url(#clip-path-7);}.cls-30{opacity:0.36;}.cls-31{clip-path:url(#clip-path-9);}</style><radialGradient id="radial-gradient" cx="-8.71" cy="27.08" r="11.33" gradientTransform="translate(28.08 26.24) scale(1.05 0.03)" gradientUnits="userSpaceOnUse"><stop offset="0" stop-opacity="0.2"/><stop offset="0.16" stop-color="#231f20" stop-opacity="0.2"/><stop offset="0.85" stop-color="#231f20" stop-opacity="0.15"/><stop offset="0.94" stop-color="#231f20" stop-opacity="0.1"/><stop offset="0.99" stop-color="#8c8e24" stop-opacity="0.04"/><stop offset="1" stop-color="#cfd527" stop-opacity="0"/></radialGradient><clipPath id="clip-path"><circle class="cls-1" cx="18.98" cy="20.69" r="2.91"/></clipPath><clipPath id="clip-path-2"><rect class="cls-1" x="-0.49" y="8.33" width="38.74" height="55.01"/></clipPath><clipPath id="clip-path-3"><rect class="cls-1" x="15.98" y="17.73" width="5.91" height="5.91"/></clipPath><clipPath id="clip-path-5"><polygon class="cls-2" points="18.19 19.35 18.19 20.45 18.38 20.69 18.19 20.92 18.19 22.02 20.5 20.69 18.19 19.35"/></clipPath><clipPath id="clip-path-7"><polygon class="cls-2" points="18.19 20.46 20.13 20.69 18.19 20.92 18.38 20.69 18.19 20.46"/></clipPath><clipPath id="clip-path-9"><polygon class="cls-2" points="18.19 20.46 20.14 20.69 18.38 20.69 18.19 20.46"/></clipPath></defs><title>play_32</title><path class="cls-3" d="M13.86,16.6l11.25.15L27.85,18a38.71,38.71,0,0,1,4.6,2.65h0A3.28,3.28,0,0,1,34,24.8l2.91-.65a.63.63,0,0,0,.59-.59V20.94a1.17,1.17,0,0,0-1-.59c.15-2.18-1-2.41-1.54-2.55a33.07,33.07,0,0,0-4-.7,6.57,6.57,0,0,1-2-.44c-4.62-2.81-6.46-3.94-12.87-3.94A22.54,22.54,0,0,0,4.06,16a1.42,1.42,0,0,1-1,.35H1.5L.9,19.25a.66.66,0,0,0-.29.25,4,4,0,0,0,3.5,1.88,3.29,3.29,0,0,1,2.11-1.06S8,17.82,13.86,16.6Z"/><path class="cls-4" d="M1.46,23.6s-1,.1-1-.73V20.05a.78.78,0,0,1,.42-.8l.6-2.85H3.08a1.42,1.42,0,0,0,1-.35,22.54,22.54,0,0,1,12-3.32c6.42,0,8.25,1.13,12.88,3.94a6.57,6.57,0,0,0,2,.44,33.08,33.08,0,0,1,4,.7c.54.15,1.69.38,1.54,2.55a1.17,1.17,0,0,1,1,.59v2.63a.63.63,0,0,1-.59.59L34,24.8a3.31,3.31,0,0,0-3.4-4.48,3.4,3.4,0,0,0-2.72,1.92,3.11,3.11,0,0,0-.12,2.56H9.61a3.31,3.31,0,0,0-3.4-4.48A3.4,3.4,0,0,0,3.5,22.25a3.11,3.11,0,0,0-.12,2.56Z"/><path class="cls-5" d="M37.54,20.94a1.17,1.17,0,0,0-1-.59,4.47,4.47,0,0,0,0-.81,4.92,4.92,0,0,0-1.65.94l-.26-.4-1.18,1.37v0A3.24,3.24,0,0,1,34,24.8l2.91-.65a.63.63,0,0,0,.59-.59Z"/><circle class="cls-6" cx="6.5" cy="23.65" r="3.17"/><path class="cls-7" d="M37.54,23.56V20.94a1.17,1.17,0,0,0-1-.59c0-.13,0-.25,0-.36a4,4,0,0,0-.62.49s.34,2.89-.32,3.17a4.63,4.63,0,0,1-1.38.33,3.47,3.47,0,0,1-.19.83l2.91-.65A.63.63,0,0,0,37.54,23.56Z"/><path class="cls-8" d="M6.5,21.63a3.17,3.17,0,0,1,3.12,2.6,3.17,3.17,0,1,0-6.23,0A3.17,3.17,0,0,1,6.5,21.63Z"/><circle class="cls-9" cx="6.5" cy="23.65" r="1.7"/><circle class="cls-6" cx="30.92" cy="23.65" r="3.17"/><path class="cls-8" d="M30.92,21.63A3.17,3.17,0,0,1,34,24.22a3.17,3.17,0,1,0-6.23,0A3.17,3.17,0,0,1,30.92,21.63Z"/><circle class="cls-9" cx="30.92" cy="23.65" r="1.7"/><path class="cls-10" d="M36.54,20.34c.15-2.18-1-2.41-1.54-2.55a33.07,33.07,0,0,0-4-.7,6.57,6.57,0,0,1-2-.44c-4.62-2.81-6.46-3.94-12.87-3.94A22.54,22.54,0,0,0,4.06,16a1.42,1.42,0,0,1-1,.35H1.5l.08.74H3.16a1.42,1.42,0,0,0,1-.35,22.41,22.41,0,0,1,11.94-3.24c6.42,0,8.25,1,12.88,3.82a6.57,6.57,0,0,0,2,.44,33.07,33.07,0,0,1,4,.7C35.54,18.64,36.54,20.34,36.54,20.34Z"/><path class="cls-11" d="M36.54,20.34c.11-1.7-.56-2.21-1.11-2.42L33.9,19l1,1.47h2.18A1.38,1.38,0,0,0,36.54,20.34Z"/><path class="cls-5" d="M4.66,20.89h0L2.19,19.42.61,19.5h0a.91.91,0,0,0-.13.55v2.82c0,.83,1,.73,1,.73l1.92,1.2a3.12,3.12,0,0,1,.12-2.56A3.55,3.55,0,0,1,4.66,20.89Z"/><path class="cls-7" d="M3.32,20.1h0s-.58,2.83-1.43,3H.5c.14.6,1,.52,1,.52l1.92,1.2a3.12,3.12,0,0,1,.12-2.56,3.52,3.52,0,0,1,.89-1.11A8.53,8.53,0,0,0,3.32,20.1Z"/><path class="cls-12" d="M.61,19.5s1.4.24,1.85-.28S1.73,17.05,1.39,17"/><path class="cls-13" d="M1.46,23.6s-1,.1-1-.73V20.05a.78.78,0,0,1,.42-.8l.6-2.85H3.08a1.42,1.42,0,0,0,1-.35,22.54,22.54,0,0,1,12-3.32c6.42,0,8.25,1.13,12.88,3.94a6.57,6.57,0,0,0,2,.44,33.08,33.08,0,0,1,4,.7c.54.15,1.69.38,1.54,2.55a1.17,1.17,0,0,1,1,.59v2.63a.63.63,0,0,1-.59.59L34,24.8a3.31,3.31,0,0,0-3.4-4.48,3.4,3.4,0,0,0-2.72,1.92,3.11,3.11,0,0,0-.12,2.56H9.61a3.31,3.31,0,0,0-3.4-4.48A3.4,3.4,0,0,0,3.5,22.25a3.11,3.11,0,0,0-.12,2.56Z"/><path class="cls-14" d="M3.48,18.76a5.81,5.81,0,0,1,5.73-.48,4.48,4.48,0,0,1,2.52,3.67H25.88a3.81,3.81,0,0,1,3.06-3.64"/><path class="cls-15" d="M3.56,19.08c3.92-2.71,7.85.39,7.85,3.19H26.17"/><path class="cls-16" d="M12.31,14.65v.58a24.28,24.28,0,0,1,4.15-.14v.79l-4.15-.1v.6l5.94.23V14.4A26.06,26.06,0,0,0,12.31,14.65Z"/><path d="M26,22.28a4.33,4.33,0,0,1,.28-1.43A3.67,3.67,0,0,1,27,19.62a3.48,3.48,0,0,1,1.16-.82,5,5,0,0,1,1.35-.38,5,5,0,0,0-1.32.46,3.35,3.35,0,0,0-1.07.86,3.78,3.78,0,0,0-.82,2.52Z"/><line class="cls-17" x1="37.39" y1="22.36" x2="35.93" y2="22.36"/><path class="cls-18" d="M11.25,16.38V14.81a8.9,8.9,0,0,0-3.79,1.46Z"/><path class="cls-16" d="M19.29,14.52v.85a11.32,11.32,0,0,1,2.4.58h-2.4v.65l6.38.15A12.65,12.65,0,0,0,19.29,14.52Z"/><path class="cls-19" d="M12.31,16.38V14.65a26.06,26.06,0,0,1,5.94-.25V16.6Z"/><path class="cls-19" d="M19.29,16.6V14.52a12.65,12.65,0,0,1,6.38,2.23Z"/><line class="cls-20" x1="4.66" y1="20.89" x2="2.19" y2="19.42"/><line class="cls-20" x1="34.61" y1="20.08" x2="33.43" y2="21.45"/><path class="cls-21" d="M35.42,27.08c0,1,3.2,1.74-15.59,1.74S2.35,28,2.35,27.08,1,25.35,19.83,25.35,35.42,26.13,35.42,27.08Z"/><g class="cls-22"><g class="cls-23"><g class="cls-24"><g class="cls-25"><g class="cls-25"><rect class="cls-26" x="15.59" y="17.3" width="6.78" height="6.78"/></g><g class="cls-27"><g class="cls-25"><rect class="cls-28" x="17.71" y="18.86" width="3.27" height="3.65"/></g></g><g class="cls-29"><g class="cls-25"><rect class="cls-30" x="17.71" y="19.97" width="2.91" height="1.43"/></g></g><g class="cls-31"><g class="cls-25"><rect class="cls-30" x="17.71" y="19.97" width="2.91" height="1.2"/></g></g></g></g></g></g></svg>