<?xml version="1.0" encoding="UTF-8" standalone="no"?>
<svg width="38px" height="38px" viewBox="0 0 38 38" version="1.1" xmlns="http://www.w3.org/2000/svg" xmlns:xlink="http://www.w3.org/1999/xlink">
    <!-- Generator: Sketch 47.1 (45422) - http://www.bohemiancoding.com/sketch -->
    <title>Category_icon/Bike_active</title>
    <desc>Created with Sketch.</desc>
    <defs>
        <path d="M7,2.5 C6.49373324,1.15904794 5.16441912,0 3.60839504,0 C1.61773751,0 -5.32907052e-15,1.5704584 -5.32907052e-15,3.5008489 C-5.32907052e-15,5.43123939 1.61773751,7 3.60839504,7 C4.84776267,7 5.94325735,6.39191558 6.59362259,5.46706326 C6.61906006,5.43088989 5.42242865,5.03581776 5.40080286,5.05918264 C4.95951775,5.53595478 4.31936175,5.8361009 3.60845906,5.8361009 C2.28105074,5.8361009 1.20192295,4.78964364 1.20192295,3.5008489 C1.20192295,2.21362778 2.28105074,1.16559689 3.60845906,1.16559689 C4.46427492,1.16559689 5.21756185,1.6012348 5.64478681,2.25574503 C5.66215991,2.28236068 7.01153616,2.53055591 7,2.5 Z" id="path-1"></path>
        <filter x="-14.3%" y="-14.3%" width="128.6%" height="128.6%" filterUnits="objectBoundingBox" id="filter-2">
            <feOffset dx="0" dy="1" in="SourceAlpha" result="shadowOffsetInner1"></feOffset>
            <feComposite in="shadowOffsetInner1" in2="SourceAlpha" operator="arithmetic" k2="-1" k3="1" result="shadowInnerInner1"></feComposite>
            <feColorMatrix values="0 0 0 0 0   0 0 0 0 0   0 0 0 0 0  0 0 0 0.5 0" type="matrix" in="shadowInnerInner1"></feColorMatrix>
        </filter>
        <path d="M4.97951022,6.67189424 C6.72905082,5.85607006 7.48784938,3.77128814 6.67202521,2.02174754 C6.01608793,0.615085502 4.53937559,-0.152111151 3.07642178,0.0252310209 C3.03208613,0.0306054774 3.35362091,1.16927716 3.39661827,1.16740862 C4.31262072,1.12760181 5.20639943,1.63274274 5.61714052,2.51357985 C6.16114761,3.68020681 5.65498353,5.07088119 4.48693037,5.61555333 C3.3203034,6.15956041 1.92820283,5.65406138 1.38419574,4.48743441 C0.942291003,3.53976665 1.1938487,2.44288028 1.92916563,1.77293013 C1.96083169,1.74407906 1.46929673,0.648657786 1.44073023,0.669427033 C0.113422938,1.63444456 -0.391117427,3.43832021 0.327824794,4.98009678 C1.14364897,6.72963737 3.22996963,7.48771842 4.97951022,6.67189424 Z" id="path-3"></path>
        <filter x="-14.3%" y="-14.3%" width="128.6%" height="128.6%" filterUnits="objectBoundingBox" id="filter-4">
            <feOffset dx="0" dy="1" in="SourceAlpha" result="shadowOffsetInner1"></feOffset>
            <feComposite in="shadowOffsetInner1" in2="SourceAlpha" operator="arithmetic" k2="-1" k3="1" result="shadowInnerInner1"></feComposite>
            <feColorMatrix values="0 0 0 0 0   0 0 0 0 0   0 0 0 0 0  0 0 0 0.5 0" type="matrix" in="shadowInnerInner1"></feColorMatrix>
        </filter>
        <linearGradient x1="50%" y1="0%" x2="50%" y2="100%" id="linearGradient-5">
            <stop stop-color="#FFFFFF" offset="0%"></stop>
            <stop stop-color="#F9F9F9" offset="100%"></stop>
        </linearGradient>
        <path d="M16.5,12.0107826 C16.478087,12.068 15.5,13.5 14,13.5 L13.140213,13.8224201 C12.5104908,14.058566 11.4738623,14.0816948 10.8440924,13.8802388 L5,12.0107826 C4.68340751,11.9063845 4.5,11.5 4.5,11 C4.5,10.5 4.66690576,10.4756777 5,10.5 C5,10.5 6.24233709,10.8339999 7.5,11 C9.60929112,11.3484133 9.4205163,10 9.4205163,9 C9.4205163,8 4.26530787,6.43048817 1.5,5 C1.04409323,4.76416035 0.50576075,3.29406124 1,3.5 C3.84915308,4.68718023 9,6.5 9,6.5 C9.03496785,6.51678457 11,7 12,6 C12.6764595,5.32354054 12.1412701,4.67483923 12,4.5 C12.801463,4.02723472 15.0663183,2.7321865 16.5,2.5 C17.497283,2.33914791 18.506254,2.58178456 19,3 C19.3161093,3.26995177 19.5,4.04122186 19.5,4.5 C19.5,5.32524117 19.5,6 19,6.5 C18.5,7 18,7 18,7 L16.5,12.0107826 Z" id="path-6"></path>
        <filter x="-10.7%" y="-17.3%" width="121.4%" height="134.6%" filterUnits="objectBoundingBox" id="filter-7">
            <feOffset dx="-3" dy="4" in="SourceAlpha" result="shadowOffsetInner1"></feOffset>
            <feComposite in="shadowOffsetInner1" in2="SourceAlpha" operator="arithmetic" k2="-1" k3="1" result="shadowInnerInner1"></feComposite>
            <feColorMatrix values="0 0 0 0 0.607408588   0 0 0 0 0.607408588   0 0 0 0 0.607408588  0 0 0 0.12 0" type="matrix" in="shadowInnerInner1" result="shadowMatrixInner1"></feColorMatrix>
            <feOffset dx="0" dy="1" in="SourceAlpha" result="shadowOffsetInner2"></feOffset>
            <feComposite in="shadowOffsetInner2" in2="SourceAlpha" operator="arithmetic" k2="-1" k3="1" result="shadowInnerInner2"></feComposite>
            <feColorMatrix values="0 0 0 0 0   0 0 0 0 0   0 0 0 0 0  0 0 0 0.12 0" type="matrix" in="shadowInnerInner2" result="shadowMatrixInner2"></feColorMatrix>
            <feMerge>
                <feMergeNode in="shadowMatrixInner1"></feMergeNode>
                <feMergeNode in="shadowMatrixInner2"></feMergeNode>
            </feMerge>
        </filter>
        <path d="M12.5,12.5 C13.0500705,12.5 13.5,12.0500705 13.5,11.5 C13.5,10.948519 13.0500705,10.5 12.5,10.5 C11.948519,10.5 11.5,10.948519 11.5,11.5 C11.5,12.0500705 11.948519,12.5 12.5,12.5 L12.5,12.5 L12.5,12.5 Z M12.5,10 C13.3270893,10 14,10.6714697 14,11.5 C14,12.3270893 13.3270893,13 12.5,13 C11.6729107,13 11,12.3270893 11,11.5 C11,10.6714697 11.6729107,10 12.5,10 Z M14.3531644,7.93787436 C14.3982079,7.83561349 14.519947,7.79057002 14.6197731,7.8343961 L16.3411644,8.58796132 C16.4434252,8.6330048 16.4896861,8.75109175 16.44586,8.85335262 C16.4129905,8.93004828 16.3375122,8.97509175 16.2608166,8.97509175 C16.2328166,8.97509175 16.2060339,8.97022219 16.1792513,8.95804828 L14.45786,8.20448306 C14.3555992,8.15943958 14.3093383,8.04013523 14.3531644,7.93787436 Z M13.8773748,8.74476966 C13.9212009,8.64250879 14.04294,8.59746531 14.1439835,8.64007401 L15.8678095,9.39485662 C15.9700704,9.4399001 16.0163313,9.55798705 15.9725052,9.66024792 C15.9384182,9.73694357 15.8641574,9.78198705 15.7862443,9.78198705 C15.7594617,9.78198705 15.7314617,9.77711749 15.7058965,9.76494357 L13.9820704,9.01137836 C13.8798095,8.96633488 13.8335487,8.84703053 13.8773748,8.74476966 Z M15.1563446,10.5574091 L13.6212142,9.88662646 C13.5189533,9.84158298 13.4726925,9.72227863 13.5165185,9.62001776 C13.5603446,9.51532211 13.6808664,9.4751482 13.7819098,9.51532211 L15.5045185,10.2688873 C15.5544316,10.2908004 15.5933881,10.3309743 15.611649,10.3808873 C15.6323446,10.4308004 15.6311272,10.4880178 15.6079968,10.535496 L14.8422577,12.2641917 C14.8081707,12.3408873 14.7351272,12.3859308 14.6572142,12.3859308 C14.6304316,12.3859308 14.6012142,12.3786265 14.575649,12.3664525 C14.4733881,12.3214091 14.4283446,12.2021047 14.4733881,12.0998438 L15.1563446,10.5574091 Z" id="path-8"></path>
        <filter x="-6.9%" y="-2.4%" width="109.2%" height="109.6%" filterUnits="objectBoundingBox" id="filter-9">
            <feOffset dx="-0.25" dy="0.25" in="SourceAlpha" result="shadowOffsetOuter1"></feOffset>
            <feComposite in="shadowOffsetOuter1" in2="SourceAlpha" operator="out" result="shadowOffsetOuter1"></feComposite>
            <feColorMatrix values="0 0 0 0 0   0 0 0 0 0   0 0 0 0 0  0 0 0 0.12 0" type="matrix" in="shadowOffsetOuter1"></feColorMatrix>
        </filter>
        <path d="M12.0668156,4.46068329 L12.0251737,4.37669683 L2.06284743,3.55534086 L1.86071306,3.85031292 C4.77434813,5.01279889 9,6.5 9,6.5 C9.03496785,6.51678457 11,7 12,6 C12.6764595,5.32354054 12.1412701,4.67483923 12,4.5 C12.0212567,4.48746113 12.0435428,4.47434384 12.0668156,4.46068329 L12.0668156,4.46068329 Z" id="path-10"></path>
        <path d="M19.5,2.5 C19.5,2.5 18.6664402,0.5 17.5,0.5 C16.7554859,0.5 15,1.5 15,1.5 C14.8691334,1.5893966 14.8717201,1.08320842 15,1 C15,1 16.7554859,0 17.5,0 C17.8552822,0 19,0.5 19,0.5 L20.5,2 C20.6727164,1.9988031 20.9539878,2.06172372 21,2 C21.1789565,1.75530435 22.2078261,1.12716507 22.5,1.0821216 L22.5,3.5 C22.2005217,3.45252174 20.8343017,3.07406868 20.8343017,3.07406868 C21.0634444,3.6673521 23.5,11.5 23.5,11.5 L23.25,11.5 L19.5,2.5 Z" id="path-11"></path>
        <linearGradient x1="50%" y1="0%" x2="50%" y2="100%" id="linearGradient-13">
            <stop stop-color="#DDDDDD" offset="0%"></stop>
            <stop stop-color="#FFFFFF" offset="100%"></stop>
        </linearGradient>
        <polygon id="path-14" points="17.0799479 2.53879561 22.6109395 2.53879561 23.2329846 5.52352679 25.0169148 11.3642452 21.2557004 12.0079788"></polygon>
        <filter x="-12.6%" y="-10.6%" width="125.2%" height="121.1%" filterUnits="objectBoundingBox" id="filter-15">
            <feOffset dx="-2" dy="0" in="SourceAlpha" result="shadowOffsetInner1"></feOffset>
            <feComposite in="shadowOffsetInner1" in2="SourceAlpha" operator="arithmetic" k2="-1" k3="1" result="shadowInnerInner1"></feComposite>
            <feColorMatrix values="0 0 0 0 0   0 0 0 0 0   0 0 0 0 0  0 0 0 0.16 0" type="matrix" in="shadowInnerInner1" result="shadowMatrixInner1"></feColorMatrix>
            <feOffset dx="-1" dy="2" in="SourceAlpha" result="shadowOffsetInner2"></feOffset>
            <feComposite in="shadowOffsetInner2" in2="SourceAlpha" operator="arithmetic" k2="-1" k3="1" result="shadowInnerInner2"></feComposite>
            <feColorMatrix values="0 0 0 0 0   0 0 0 0 0   0 0 0 0 0  0 0 0 0.16 0" type="matrix" in="shadowInnerInner2" result="shadowMatrixInner2"></feColorMatrix>
            <feMerge>
                <feMergeNode in="shadowMatrixInner1"></feMergeNode>
                <feMergeNode in="shadowMatrixInner2"></feMergeNode>
            </feMerge>
        </filter>
        <linearGradient x1="0%" y1="65.4095054%" x2="100%" y2="65.4095054%" id="linearGradient-16">
            <stop stop-color="#323232" offset="0%"></stop>
            <stop stop-color="#323232" offset="88.6822411%"></stop>
            <stop stop-color="#FCFFDF" offset="88.898208%"></stop>
            <stop stop-color="#FCFFDF" offset="100%"></stop>
        </linearGradient>
        <polygon id="path-17" points="14.5 -0.5 22.7069075 -0.5 22.7069075 4.36079903 18.4291226 1.210284 14.5 3.5"></polygon>
    </defs>
    <g id="Symbols" stroke="none" stroke-width="1" fill="none" fill-rule="evenodd">
        <g id="Category_icon/Bike_active">
            <g id="Bike">
                <rect id="Rectangle-6-Copy" fill-opacity="0" fill="#FF0000" x="0" y="0" width="38" height="38"></rect>
                <g transform="translate(5.000000, 11.500000)">
                    <g id="back-wheel" transform="translate(1.000000, 8.000000)">
                        <circle id="Oval" stroke="#000000" stroke-width="0.5" fill="#D8D8D8" cx="3.80989551" cy="3.47976808" r="2.375"></circle>
                        <g id="Combined-Shape">
                            <use fill="#323232" fill-rule="evenodd" xlink:href="#path-1"></use>
                            <use fill="black" fill-opacity="1" filter="url(#filter-2)" xlink:href="#path-1"></use>
                            <path stroke="#323232" stroke-width="0.5" d="M7.23388619,2.41169796 C7.14853815,2.74507402 7.14853815,2.74507402 7.044354,2.74757147 C7.00271727,2.75290885 7.00271727,2.75290885 6.98293251,2.75255372 C6.94969035,2.75110665 6.94969035,2.75110665 6.91864065,2.74789035 C6.87934011,2.74359656 6.82522588,2.73604636 6.75728728,2.72552212 C6.63417479,2.706451 6.46659414,2.67770425 6.28845081,2.64526801 C6.11435575,2.61356887 5.94354556,2.58077172 5.81503548,2.55429094 C5.74643736,2.54015561 5.69072982,2.52800104 5.64998628,2.51819595 C5.43571611,2.46663101 5.49572603,2.48475597 5.4354384,2.3923951 C5.04216391,1.78989713 4.35782587,1.41559689 3.60845906,1.41559689 C2.41779025,1.41559689 1.45192295,2.35309471 1.45192295,3.5008489 C1.45192295,4.6496066 2.41720533,5.5861009 3.60845906,5.5861009 C4.23040773,5.5861009 4.80997469,5.32947974 5.21732998,4.88936598 C5.32643367,4.77148844 5.25210455,4.7593897 5.51962896,4.82590288 C5.55805324,4.83545611 5.60922392,4.84983618 5.67146804,4.8684385 C5.78832008,4.90336098 5.94143931,4.95238533 6.09449558,5.00381846 C6.25464528,5.05763527 6.40252235,5.10995961 6.51049656,5.15134733 C6.57193839,5.17489867 6.62066908,5.19495096 6.65668387,5.21183608 C6.6867299,5.22619652 6.6867299,5.22619652 6.72254806,5.2477321 C6.79176687,5.25933359 6.79176687,5.25933359 6.79812172,5.61086906 C6.0826029,6.62837307 4.89780057,7.25 3.60839504,7.25 C1.48135699,7.25 -0.25,5.57105973 -0.25,3.5008489 C-0.25,1.43035342 1.48165403,-0.25 3.60839504,-0.25 C5.1912162,-0.25 6.65827608,0.887075708 7.23388619,2.41169796 Z"></path>
                        </g>
                    </g>
                    <g id="front-wheel" transform="translate(20.000000, 8.000000)">
                        <circle id="Oval" stroke="#000000" stroke-width="0.5" fill="#D8D8D8" cx="3.36302385" cy="3.50986519" r="2.375"></circle>
                        <g id="Combined-Shape">
                            <use fill="#323232" fill-rule="evenodd" xlink:href="#path-3"></use>
                            <use fill="black" fill-opacity="1" filter="url(#filter-4)" xlink:href="#path-3"></use>
                            <path stroke="#323232" stroke-width="0.5" d="M5.08516479,6.89847119 C3.21023011,7.77276759 0.975302715,6.96016806 0.101247847,5.08575135 C-0.659781557,3.45371852 -0.146829509,1.51456941 1.29371689,0.467221501 C1.64818061,0.471702729 1.64818061,0.471702729 1.65134581,0.528179931 C1.67234116,0.558370145 1.67234116,0.558370145 1.68794462,0.58507873 C1.70674746,0.617779234 1.73001753,0.662380809 1.75761303,0.718138297 C1.80789178,0.819727948 1.87205649,0.957582083 1.93588498,1.10080481 C2.00095178,1.24680615 2.06063598,1.38706391 2.10271528,1.49350391 C2.12627534,1.55309933 2.14434351,1.60208423 2.15652604,1.64011773 C2.16628587,1.67145135 2.16628587,1.67145135 2.17461449,1.70782756 C2.19548339,1.74504349 2.19548339,1.74504349 2.0975374,1.95772987 C1.42867252,2.5671353 1.22315604,3.55053326 1.61077268,4.38177985 C2.09627983,5.42295328 3.33946509,5.87478069 4.3812758,5.38897638 C5.4239968,4.90274759 5.87631114,3.66092344 5.39056357,2.61923441 C5.03137807,1.84895862 4.24387793,1.38082513 3.4074723,1.41717289 C3.17736616,1.32461589 3.17736616,1.32461589 3.16836984,1.27895014 C3.15051793,1.24494616 3.15051793,1.24494616 3.1377089,1.21471585 C3.1225363,1.17806682 3.10499977,1.12946038 3.08502501,1.0694918 C3.04904258,0.961464691 3.00533833,0.816819986 2.96311408,0.66674604 C2.9206048,0.515659019 2.8828669,0.370715394 2.85799456,0.261964549 C2.84398077,0.20069121 2.83398103,0.150782639 2.82832415,0.112141662 C2.8237923,0.0793506577 2.8237923,0.0793506577 2.82224727,0.0369394559 C2.80026845,-0.0257469503 2.80026845,-0.0257469503 3.04633653,-0.222952132 C4.64395521,-0.416618649 6.20829905,0.435733188 6.89860215,1.91609298 C7.77277774,3.79076856 6.95984038,6.0242956 5.08516479,6.89847119 Z"></path>
                        </g>
                    </g>
                    <g id="Combined-Shape">
                        <use fill="url(#linearGradient-5)" fill-rule="evenodd" xlink:href="#path-6"></use>
                        <use fill="black" fill-opacity="1" filter="url(#filter-7)" xlink:href="#path-6"></use>
                    </g>
                    <g id="Combined-Shape">
                        <use fill="black" fill-opacity="1" filter="url(#filter-9)" xlink:href="#path-8"></use>
                        <use fill-opacity="0.560000002" fill="#343534" fill-rule="evenodd" xlink:href="#path-8"></use>
                    </g>
                    <path d="M18.1911864,7.23308464 L16.7394991,12.0824777 L16.7334642,12.1001944 C16.5050177,12.6966935 15.2509202,13.75 14.0877809,13.7340823 L13.2279939,14.0565024 C12.5485263,14.3113028 11.4541933,14.3378825 10.7679226,14.1183526 L4.92170799,12.248207 C4.48953504,12.1056956 4.25,11.6089771 4.25,11 C4.25,10.3979119 4.48665857,10.2118506 5.06490721,10.2585729 C5.13165453,10.2765178 5.25577729,10.3083297 5.42592622,10.3493821 C5.71016381,10.417961 6.01784315,10.4865664 6.33754372,10.5505718 C6.7506283,10.6332731 7.15297061,10.702027 7.54074298,10.7533423 C8.85202795,10.9699407 9.1666023,10.6170712 9.17466387,9.52942891 C9.17526566,9.448237 9.17470341,9.38072523 9.17271552,9.23629746 C9.17107462,9.11779461 9.1705163,9.06462482 9.1705163,9 C9.1705163,8.61852436 8.0417235,8.0602965 4.51224958,6.60987822 C3.98865377,6.39470935 3.61183194,6.23780972 3.24859267,6.08264794 C2.49194512,5.75943735 1.88955475,5.48298494 1.38513436,5.22204928 C1.10265515,5.07592336 0.820825945,4.63344682 0.657700886,4.1668356 C0.579254742,3.94244425 0.540641783,3.74159888 0.556894129,3.58802044 C0.586600782,3.30730395 0.818926973,3.15371635 1.09615613,3.26923172 C1.77754337,3.55315099 2.62635564,3.88774985 3.61067432,4.26252269 C3.79217656,4.33162847 3.97773578,4.40188841 4.16708461,4.47321489 C5.24229979,4.87824149 6.39457896,5.30089116 7.5468944,5.7159496 C7.95023277,5.86123013 8.32475191,5.99517949 8.66083472,6.11465066 C8.862419,6.18631011 9.00634441,6.23720153 9.10818277,6.27461924 C9.56450365,6.49365326 11.1581809,6.48826575 11.8232233,5.8232233 C12.1559327,5.49051394 12.151021,5.17861614 11.9394291,4.84021143 C11.8994526,4.7762759 11.8678613,4.73424588 11.805544,4.65712048 L11.6235091,4.43182986 L11.8729823,4.28467117 C13.6369299,3.24415756 15.2785309,2.44456111 16.4601919,2.25318972 C17.4857849,2.0877715 18.584297,2.32025999 19.1623512,2.80988927 C19.5135744,3.10982763 19.75,3.89502111 19.75,4.5 C19.75,5.72933063 19.6639622,6.18959115 19.1767767,6.6767767 C18.8312339,7.02231952 18.4782276,7.18396293 18.1911864,7.23308464 Z" id="Combined-Shape-Copy" stroke="#000000" stroke-width="0.5" stroke-linecap="round" stroke-linejoin="round"></path>
                    <path d="M9.80094903,10.2368741 L18.2180102,7.03037462 L15.9703257,6.3686087 C15.949641,6.3681329 15.949641,6.3681329 15.9230751,6.36730364 C15.8870291,6.36645812 15.8870291,6.36645812 15.8351953,6.36617391 C15.1093883,6.36617391 14.2990466,6.57484193 13.6314028,7.12461299 C13.4323527,7.28894796 13.1202095,7.54317799 12.6393261,7.93307763 C12.4060113,8.12224897 11.4546116,8.89270452 11.2463796,9.06147089 L11.2273658,9.07688137 C10.6546853,9.54104471 10.1802764,9.92671886 9.80094903,10.2368741 Z" id="Path-Copy-11" stroke="#000000" stroke-width="0.5"></path>
                    <path d="M12.1938896,4.62064626 L3.02359923,3.75111634 L2.1700156,3.32947589 L2.04230557,3.80449549 L12.0046318,4.62585146 L11.7853542,4.44731267 L11.9304709,4.94014576 L12.1938896,4.62064626 Z" id="Path" stroke="#323232" stroke-width="0.5"></path>
                    <g id="Combined-Shape">
                        <use fill="#747474" fill-rule="evenodd" xlink:href="#path-10"></use>
                        <path stroke="#000000" stroke-width="0.5" d="M11.6235091,4.43182986 L11.805544,4.65712048 C11.8678613,4.73424588 11.8994526,4.7762759 11.9394291,4.84021143 C12.151021,5.17861614 12.1559327,5.49051394 11.8232233,5.8232233 C11.1581809,6.48826575 9.56450365,6.49365326 9.10818277,6.27461924 C9.00634441,6.23720153 8.862419,6.18631011 8.66083472,6.11465066 C8.32475191,5.99517949 7.95023277,5.86123013 7.5468944,5.7159496 C6.39457896,5.30089116 5.24229979,4.87824149 4.16708461,4.47321489 C3.97773578,4.40188841 3.79217656,4.33162847 3.61067432,4.26252269 C3.22877428,4.11711677 2.86666952,3.97752286 2.52638548,3.84440604 C2.43047287,3.80688568 2.33629382,3.76987989 2.24389367,3.73340356 C2.23438977,3.72965176 2.22490469,3.72590556 2.21543848,3.72216497 C2.12639465,3.68697919 2.03902039,3.65229046 1.95335678,3.61811228 L2.06693837,3.99163214 L2.26907274,3.69666008 L2.04230557,3.80449549 L12.0046318,4.62585146 L12.0251737,4.37669683 L11.8011933,4.48775 L11.8428352,4.57173646 L12.0668156,4.46068329 L11.9402622,4.24508125 C11.905604,4.26544282 11.905604,4.26544282 11.8729823,4.28467117 L11.6235091,4.43182986 Z"></path>
                    </g>
                    <path d="M0.412304735,7.75 L0.5,7.75 L0.343826238,7.8047828 L0.412304735,7.75 Z M0.71189217,7.51033005 L2.53871945,6.04886822 L2.06896387,5.81399043 L0.71189217,7.51033005 Z" id="Path" stroke="#000000" stroke-width="0.5"></path>
                    <mask id="mask-12" fill="white">
                        <use xlink:href="#path-11"></use>
                    </mask>
                    <path stroke="#000000" stroke-width="0.5" d="M20.6077231,1.75416973 C20.6366494,1.75631967 20.66964,1.75933719 20.7098508,1.76331454 L20.7248622,1.76480504 C20.7467853,1.76698704 20.8618781,1.76699104 20.7982074,1.85242035 C21.0156521,1.55509798 22.1029529,0.890379549 22.4619083,0.835040586 L22.75,0.790626456 L22.75,3.79275638 L22.4608547,3.74691628 C22.3320661,3.72649857 22.0446806,3.65644938 21.6324753,3.54827658 C21.5999946,3.53974495 21.5999946,3.53974495 21.5675781,3.53120018 C21.4494801,3.50004431 21.332862,3.46889907 21.2229429,3.43928704 C21.4380999,4.09371242 21.8442664,5.37353126 22.3970432,7.13344904 L22.4161816,7.19438711 C22.7068611,8.1200145 23.0171193,9.11172422 23.3265936,10.1034292 C23.4349085,10.4505222 23.501895,10.665388 23.6254898,11.0620722 C23.7181398,11.3595941 23.7181398,11.3595941 23.7387165,11.4257408 L23.839586,11.75 L23.0833333,11.75 L19.2692308,2.59615385 L19.26924,2.59617611 C19.2456156,2.53949278 19.1982058,2.43607695 19.1291814,2.30178381 C19.0137635,2.07722817 18.8809365,1.85276185 18.7334144,1.64451203 C18.3330771,1.07937514 17.9076529,0.75 17.5,0.75 C17.2954415,0.75 16.946636,0.851973751 16.5098439,1.03382755 C16.3715436,1.09140744 16.2267074,1.15596555 16.0771441,1.22625753 C15.8484851,1.33372302 15.6201925,1.44908991 15.4033518,1.564457 C15.2734544,1.63356711 15.1766181,1.68710733 15.1410166,1.70643239 C14.9651589,1.82656293 14.7733593,1.74093386 14.6984732,1.57321741 C14.6657889,1.50001686 14.6525711,1.41123332 14.6528209,1.31408419 C14.6533863,1.09414743 14.7109067,0.88953223 14.8762578,0.782772313 C14.9330998,0.750392666 15.0340862,0.694557891 15.1685036,0.623042998 C15.3921875,0.504035085 15.6276855,0.38502698 15.8644703,0.273742471 C16.0204812,0.200420226 16.1720665,0.132853872 16.3176649,0.0722355009 C16.8122627,-0.133685123 17.2101227,-0.25 17.5,-0.25 C17.6696552,-0.25 17.9293225,-0.17934355 18.2820185,-0.0535877641 C18.3433796,-0.0317091152 18.406706,-0.00839806241 18.4716494,0.0161578375 C18.724176,0.111641227 18.953464,0.206865908 19.1767767,0.323223305 L20.6077231,1.75416973 Z"></path>
                    <g id="Rectangle" mask="url(#mask-12)">
                        <use fill="url(#linearGradient-13)" fill-rule="evenodd" xlink:href="#path-14"></use>
                        <use fill="black" fill-opacity="1" filter="url(#filter-15)" xlink:href="#path-14"></use>
                    </g>
                    <g id="Rectangle-Copy-2" stroke-linecap="round" stroke-linejoin="round" mask="url(#mask-12)">
                        <use fill="url(#linearGradient-16)" fill-rule="evenodd" xlink:href="#path-17"></use>
                        <path stroke="#323232" stroke-width="0.5" d="M18.4131049,1.50897146 L14.25,3.93504186 L14.25,-0.75 L22.9569075,-0.75 L22.9569075,4.85540393 L18.4131049,1.50897146 Z"></path>
                    </g>
                </g>
            </g>
        </g>
    </g>
</svg>