<svg id="Layer_1" data-name="Layer 1" xmlns="http://www.w3.org/2000/svg" viewBox="0 0 38 38"><defs><style>.cls-1,.cls-2,.cls-3,.cls-5{fill:none;stroke:#323232;}.cls-1,.cls-2,.cls-3{stroke-linejoin:round;}.cls-1,.cls-2,.cls-5{stroke-width:0.5px;}.cls-2,.cls-5{stroke-linecap:round;}.cls-3{stroke-width:0.75px;}.cls-4{fill:#323232;}.cls-5{stroke-miterlimit:10;}</style></defs><title>category_icon</title><circle class="cls-1" cx="6.99" cy="23.57" r="3.25"/><circle class="cls-1" cx="6.99" cy="23.57" r="1.74"/><path class="cls-2" d="M6.86 17.77a5.15 5.15 0 0 1 5.22 5.07h12.1"/><circle class="cls-1" cx="29.52" cy="23.57" r="3.25"/><path class="cls-3" d="M3.29 19.38l.42-3.13a.35.35 0 0 1 .35-.3c1.66 0 9.75.19 16.91.52 3.52.16 6.81.3 9 .58 2.46.31 5.79 2.42 6.44 4.33a4.37 4.37 0 0 1 .15 1.47 1.74 1.74 0 0 1-1.75 1.91h-2.1a3.4 3.4 0 0 0-3.49-4.59 3.49 3.49 0 0 0-2.79 2 3.19 3.19 0 0 0-.12 2.62H10.19a3.4 3.4 0 0 0-3.49-4.63 3.49 3.49 0 0 0-2.79 2 3.19 3.19 0 0 0-.12 2.62h-1a1.42 1.42 0 0 1-1.42-1.42v-2a1.66 1.66 0 0 1 .89-1.47z"/><circle class="cls-1" cx="29.52" cy="23.57" r="1.74"/><path class="cls-4" d="M23.93 22.83a5.79 5.79 0 0 1 .73-2.16 4.45 4.45 0 0 1 1.57-1.61 5.06 5.06 0 0 1 2.12-.65 10.63 10.63 0 0 1 1.11 0l1.09.14-1.09-.08a10.53 10.53 0 0 0-1.09.08 4.88 4.88 0 0 0-2 .74 4.74 4.74 0 0 0-1.94 3.59.25.25 0 0 1-.5 0z"/><path class="cls-2" d="M32.12 17.65l.65 1.69h2.11a17.43 17.43 0 0 0-2.76-1.69zM36.58 22.84h-1.84"/><path class="cls-5" d="M26.8 16.76l-1.09-3.41A16.26 16.26 0 0 1 30 17M19.77 16.41s-.16-2.5 1.66-2.63 2.19 2.8 2.19 2.8"/><circle class="cls-5" cx="21.48" cy="12.56" r="1.21"/><path class="cls-5" d="M13.74 16.18c0-.62.18-2.3 1.66-2.4s2 1.82 2.14 2.54"/><circle class="cls-5" cx="15.45" cy="12.56" r="1.21"/><path class="cls-5" d="M7.78 16c0-.71.29-2.14 1.65-2.23s1.9 1.51 2.1 2.33"/><circle class="cls-5" cx="9.49" cy="12.56" r="1.21"/></svg>