<svg id="Layer_1" data-name="Layer 1" xmlns="http://www.w3.org/2000/svg" viewBox="0 0 38 38"><defs><style>.cls-1,.cls-2,.cls-3{fill:none;stroke:#323232;}.cls-1,.cls-2{stroke-linejoin:round;}.cls-1,.cls-3{stroke-width:0.5px;}.cls-2{stroke-width:0.75px;}.cls-3{stroke-linecap:round;stroke-miterlimit:10;}.cls-4{fill:#323232;}</style></defs><title>category_icon</title><circle class="cls-1" cx="29.97" cy="23.57" r="3.25"/><circle class="cls-1" cx="29.97" cy="23.57" r="1.74"/><circle class="cls-1" cx="7.02" cy="23.57" r="3.25"/><path class="cls-2" d="M27.83 16.46c-5.58-4.17-9-5.67-13.79-5.83a29.56 29.56 0 0 0-7.76.67.79.79 0 0 0-.28.13c-3.06 2.26-3.71 9-3.71 9-1-.12-.83.83-.83.83v1.44a2.05 2.05 0 0 0 2.05 2.05h.32A3.19 3.19 0 0 1 4 22.13a3.49 3.49 0 0 1 2.79-2 3.4 3.4 0 0 1 3.49 4.59h16.49a3.19 3.19 0 0 1 .12-2.62 3.49 3.49 0 0 1 2.79-2 3.4 3.4 0 0 1 3.49 4.59h3c-.71-8.44-8.34-8.23-8.34-8.23z"/><circle class="cls-1" cx="7.02" cy="23.57" r="1.74"/><path class="cls-3" d="M5.69 18a4.72 4.72 0 0 1 6.06 4.53h13.5"/><path class="cls-4" d="M25 22.49a4.58 4.58 0 0 1 .66-2.13A3.31 3.31 0 0 1 27.31 19a3.18 3.18 0 0 0-1.44 1.49 4.23 4.23 0 0 0-.38 2z"/><path class="cls-3" d="M32.2 17.68l.63 2.15h1.71M34.71 22.75h1.13M9.28 12.63v2.47l5.88.41v-2.73a30.73 30.73 0 0 0-5.88-.15zM16.28 12.94v2.56l6.69.59s.91 0 .16-.59a15.6 15.6 0 0 0-6.85-2.56zM8.23 14.91l-2-.09a2 2 0 0 1 2-2z"/></svg>