<svg width="38" height="17" viewBox="0 0 38 17" xmlns="http://www.w3.org/2000/svg" xmlns:xlink="http://www.w3.org/1999/xlink"><title>Group 3</title><defs><path d="M3.97 13.075c-.82-.31-1.832-.545-2.596-.86-.28-.117-.41-.32-.41-.594C.97 11.13.9 9.99.947 9.5c.03-.306.304-.45.584-.52.194-.05.336-.126.334-.3-.008-.883 0-1.402 0-2.286 0-.595.023-1.086.304-1.494.34-.496 1.218-2.034 1.218-2.034s.66-1.085.94-1.533c.154-.243.363-.41.63-.468C5.54.738 6.127.6 6.72.55c2.115-.177 10.354.306 12.355.465.933.075 2.882.17 5.01 1.316 1.78.956 3.536 2.506 5.432 3.47.528.267 1.09.366 1.654.493 1.845.413 4.326.572 5.91 1.552.166.11.035.573.09.635.717.828.89 2.15.512 3.41-.13.436-.5.97-1.01 1.233-.5.258-1.534.406-2.03.35.1-.322.153-.666.152-1.023 0-1.868-1.527-3.4-3.393-3.406-1.9-.007-3.42 1.504-3.42 3.4 0 .348.048.68.14.995l-17.36-.083c.074-.284.113-.583.113-.892-.002-1.906-1.56-3.47-3.463-3.476-1.94-.008-3.49 1.533-3.492 3.47 0 .21.017.415.05.615z" id="a"/></defs><g fill="none" fill-rule="evenodd" opacity=".86"><g stroke="#323232" stroke-width=".5"><path d="M6.957 15.8c-1.792 0-3.25-1.458-3.25-3.25 0-1.79 1.458-3.248 3.25-3.248 1.79 0 3.247 1.457 3.247 3.25 0 1.79-1.455 3.247-3.247 3.247z"/><path d="M6.958 10.802c-.965 0-1.75.786-1.75 1.75 0 .966.785 1.75 1.75 1.75s1.75-.784 1.75-1.75c0-.965-.786-1.75-1.75-1.75z"/></g><g stroke="#323232" stroke-width=".5"><path d="M30.957 15.8c-1.792 0-3.25-1.458-3.25-3.25 0-1.79 1.458-3.248 3.25-3.248 1.79 0 3.247 1.457 3.247 3.25 0 1.79-1.455 3.247-3.247 3.247z"/><path d="M30.958 10.802c-.965 0-1.75.786-1.75 1.75 0 .966.785 1.75 1.75 1.75s1.75-.784 1.75-1.75c0-.965-.786-1.75-1.75-1.75z"/></g><g transform="translate(-.44 .1)"><path d="M37.327 11.277h-1.25c-.126 0-.25.08-.25.087 0 .01.123.087.25.087h1.25v-.173z" stroke="#323232" stroke-width=".5"/><path d="M36.7 7.916c.2.002.227.07.258.255.043.257.04.243.097.358.03.06.053.115.075.172l.042.114c.01.03.02.047.027.06.01.016.026.034.055.058l.14.12-.074.17c-.03.07-.093.146-.197.21-.312.193-.845.193-1.664-.073-.372-.12-.695-.27-.973-.44-.5-.306-.778-.623-.89-.85l-.194-.393.435.032 2.863.206z" stroke="#323232" stroke-width=".5" stroke-linejoin="round"/><mask id="b" fill="#fff"><use xlink:href="#a"/></mask><use stroke="#323232" stroke-width=".75" xlink:href="#a"/><path d="M14.406 11.294H14.122c-.04-.265-.092-.524-.156-.774.1.2.166.39.193.563l.032.21h.213zm13.575.075v.25l.253-.25h-.253l-13.573-.076 13.574.075h.25l-.25-.25v.25z" stroke="#323232" stroke-width=".5" mask="url(#b)" transform="matrix(-1 0 0 1 40.73 0)"/><path d="M9.383 1.903c1.773.035 4.007.164 6.488.357l-.27 3.81-6.85-.16.633-4.007zm-1.236-.007l-.724 3.982L4.177 5.8c.018-.108.04-.237.07-.382.096-.495.22-.99.376-1.45.28-.83.627-1.448 1.03-1.76.183-.184 1.085-.296 2.494-.312zm8.982.466c.713.06 1.393.12 2.02.18.422.04.728.068.893.085 1.31.12 3.232.91 4.257 1.752l2.38 1.953-9.72-.23.17-3.74z" stroke="#323232" stroke-width=".5" mask="url(#b)"/><path d="M8.008 8.124c-1.33.628-2.292 1.844-2.397 3.23.097-1.462 1.04-2.642 2.398-3.23z" stroke="#323232" stroke-width=".5" mask="url(#b)" transform="matrix(-1 0 0 1 17.88 0)"/></g></g></svg>