<svg id="Layer_1" xmlns="http://www.w3.org/2000/svg" viewBox="0 0 38 38"><style>.st0{fill:#069C1A;} .st1{fill:#FEDE00;} .st2{fill:#DFC300;} .st3{fill:#068817;} .st4{fill:#4F4F4F;} .st5{fill:#393939;} .st6{fill:none;stroke:#000000;stroke-width:0.5;stroke-linejoin:round;} .st7{fill:#DEDEDE;stroke:#000000;stroke-width:0.35;stroke-linejoin:round;} .st8{fill:#1D9C25;stroke:#000000;stroke-width:0.35;stroke-linecap:round;stroke-linejoin:round;} .st9{fill:none;stroke:#000000;stroke-width:0.35;stroke-linecap:round;stroke-linejoin:round;} .st10{fill:#D4DB27;stroke:#000000;stroke-width:0.35;stroke-linecap:round;stroke-miterlimit:10;} .st11{fill:none;stroke:#000000;stroke-width:0.35;stroke-linecap:round;stroke-miterlimit:10;} .st12{opacity:0.51;fill:url(#SVGID_1_);enable-background:new ;}</style><title>category_icon</title><path class="st0" d="M28.4 17.6c0-.3-.2-.7-.5-.8-.4-1.4-1.1-2.7-1.8-3.9 0 0 .3-.1.3-.7s-1.4-.6-1.4-.6-13.1-.4-14.6-.4c-.8 0-1.6.2-2.3.7-.8.3-1.4 1.1-1.4 2-.2.3-.3.6-.3.9l-.2 3.7c-.6.3-.5 3.5-.5 3.5v2c0 1.2 1.4 1.4 1.4 1.4h.7c-.8-1.3-.4-2.9.9-3.7s2.9-.4 3.7.9c.5.9.5 1.9 0 2.8H24c.9 0 1.8-.4 2.3-1.2.4-1 1-2.1 1.6-3 .2-.4.4-.8.5-1.2v-2.4z"/><path class="st1" d="M28.4 17.8v-.2c0-.3-.2-.7-.5-.8-.4-1.4-1.1-2.7-1.8-3.9 0 0 .3-.1.3-.7s-1.4-.6-1.4-.6-13.1-.4-14.6-.4c-.8 0-1.6.2-2.3.7-.8.3-1.4 1.1-1.4 2-.2.3-.3.6-.3.9l-.2 2.9"/><path class="st2" d="M12.6 15c0-1.1.9-2 2-2h4.6c.6 0 1 .5 1 1.1v3.5h-1L12.6 15zM6.9 23.9V22s-.1-3.2.4-3.6l.2-3.7c0-.3.1-.6.3-.9 0-.9.6-1.7 1.4-2 .6-.4 1.3-.6 2.1-.6h-.9c-.8 0-1.6.2-2.3.7-.8.3-1.4 1.1-1.4 2-.2.3-.3.6-.3.9l-.2 3.7c-.6.3-.5 3.5-.5 3.5v2c0 1.2 1.4 1.4 1.4 1.4h.7c0-.1-.1-.2-.1-.2-.6-.2-.9-.7-.8-1.3z"/><path class="st2" d="M6.9 23.9V22s-.1-3.2.4-3.6v-.7l.2-2.9c0-.3.1-.6.3-.9 0-.9.6-1.7 1.4-2 .6-.4 1.3-.6 2.1-.6h-.9c-.8 0-1.6.2-2.3.7-.8.3-1.4 1.1-1.4 2-.2.3-.3.6-.3.9l-.2 2.9v.7c-.6.3-.5 3.5-.5 3.5v2c0 1.2 1.4 1.4 1.4 1.4h.7c0-.1-.1-.2-.1-.2-.6-.2-.9-.7-.8-1.3z"/><path class="st3" d="M6.9 23.9V22s-.1-3.2.4-3.6v-.7H6.1v.7c-.5.4-.4 3.6-.4 3.6v2c0 1.2 1.4 1.4 1.4 1.4h.7c0-.1-.1-.2-.1-.2-.5-.2-.8-.7-.8-1.3zM11.3 21.3c-.2 0-.4 0-.6.1 1.4.3 2.3 1.7 2 3.2-.1.3-.2.6-.3.8h1.2c.7-1.3.3-2.9-1-3.6-.4-.3-.9-.4-1.3-.5z"/><circle class="st4" cx="10" cy="24" r="2.9"/><path class="st5" d="M10 22.4c1.3 0 2.5.9 2.8 2.2.4-1.5-.6-3.1-2.1-3.4s-3.1.6-3.4 2.1c-.1.4-.1.9 0 1.3.2-1.2 1.4-2.2 2.7-2.2z"/><path class="st4" d="M27.7 21.4c1.4-.7 3.1 0 3.8 1.4.7 1.4 0 3.1-1.4 3.8s-3.1 0-3.8-1.4c-.1-.3-.2-.5-.2-.8l.3-.3 1.3-2.7z"/><path class="st6" d="M28.4 17.6c0-.3-.2-.7-.5-.8-.4-1.4-1.1-2.7-1.8-3.9 0 0 .3-.1.3-.7s-1.4-.6-1.4-.6-13.1-.4-14.6-.4c-.8 0-1.6.2-2.3.7-.8.3-1.4 1.1-1.4 2-.2.3-.3.6-.3.9l-.2 3.7c-.6.3-.5 3.5-.5 3.5v2c0 1.2 1.4 1.4 1.4 1.4h.7c-.8-1.3-.4-2.9.9-3.7s2.9-.4 3.7.9c.5.9.5 1.9 0 2.8H24c.9 0 1.8-.4 2.3-1.2.4-1 1-2.1 1.6-3 .2-.4.4-.8.5-1.2v-2.4z"/><circle class="st7" cx="10" cy="24" r="1.3"/><circle class="st7" cx="29" cy="24" r="1.3"/><path class="st8" d="M29.8 20.8v-1.3s.1-.7-.4-.8c-.3 0-.7.1-1 .3v1l-.4 1.2 1.8-.4z"/><path class="st0" d="M26.7 23.4h5c0-1.5-1.2-2.7-2.7-2.7-.3 0-.6.1-.9.2l-.5.9-.9 1.6z"/><path class="st3" d="M29 21.4c1.2 0 2.3.8 2.6 2h.1c0-1.5-1.2-2.7-2.7-2.7-.3 0-.6.1-.9.2l-.5.9c.4-.3.9-.5 1.4-.4z"/><path class="st9" d="M26.7 23.4h5c0-1.5-1.2-2.7-2.7-2.7-.3 0-.6.1-.9.2l-.5.9-.9 1.6z"/><path class="st8" d="M27.6 21.7l1.8 1.5c.2.3.1.7-.2.9-.3.3-.8.3-1.1 0-.2-.1-1.3-1.1-1.3-1.1l.8-1.3z"/><path class="st3" d="M20.2 23.4h-1.6l.9-5.7 1 .2v5.3c0 .1-.1.2-.3.2z"/><path class="st10" d="M11.7 17.7v-2.5c0-1.1.9-2 2-2h4.6c.6 0 1 .5 1 1.1v9h-3c-1.2 0-1.4-.9-1.4-.9L14 19c-.2-.9-1.1-1.4-1.9-1.3h-6"/><path class="st2" d="M26.9 18.3v-.4c-.5-5-2.2-4.8-2.2-4.8h-1.2v.1c.4 0 1.7.6 2.1 4.7v.4c.4 4.5-1.6 5.3-2.3 5.4h1c.1 0 3.1 0 2.6-5.4z"/><path class="st3" d="M26.9 17.9v.4c.4 5.4-2.5 5.6-2.5 5.6H23l.4-.2c.7-.1 2.7-.9 2.3-5.4v-.4h1.2z"/><path class="st10" d="M23.4 13.2h-2.7c-.2 0-.5.2-.5.4v6.5h1.2c.4 0 .8.3.8.8v2.7h1s3 0 2.5-5.4-2.3-5-2.3-5z"/><path class="st11" d="M28.4 17.8h-2.7M20.2 17.8h-.9"/><radialGradient id="SVGID_1_" cx="9.988" cy="-633.747" r="11.33" gradientTransform="matrix(1.05 0 0 -.03 8.54 8.04)" gradientUnits="userSpaceOnUse"><stop offset="0" stop-opacity=".2"/><stop offset=".16" stop-color="#231F20" stop-opacity=".2"/><stop offset=".85" stop-color="#231F20" stop-opacity=".15"/><stop offset=".94" stop-color="#231F20" stop-opacity=".1"/><stop offset=".99" stop-color="#8C8E24" stop-opacity=".04"/><stop offset="1" stop-color="#CFD527" stop-opacity="0"/></radialGradient><path class="st12" d="M35.4 27.1c0 1 3.2 1.7-15.6 1.7S2.3 28 2.3 27.1 1 25.4 19.8 25.4s15.6.7 15.6 1.7z"/></svg>