<svg xmlns="http://www.w3.org/2000/svg" width="24" height="24" viewBox="0 0 24 24">
  <g fill="none" fill-rule="evenodd">
    <polygon points="0 24 24 24 24 0 0 0"/>
    <g stroke="#000" stroke-width=".75" transform="translate(2.3 2.3)">
      <g transform="translate(0 5.4)">
        <path d="M4.80211221,7.68292836 C3.43728015,7.68292836 2.3269681,6.57244831 2.3269681,5.20761625 C2.3269681,3.84295219 3.43728015,2.73280815 4.80211221,2.73280815 C6.16677627,2.73280815 7.27708832,3.84295219 7.27708832,5.20761625 C7.27708832,6.57244831 6.16677627,7.68292836 4.80211221,7.68292836 Z M4.6117682,13.1375526 C4.42344019,12.9388086 0,8.23346439 0,5.20778425 C0,2.56430414 2.15090409,0.413568044 4.79472021,0.413568044 C7.43803233,0.413568044 9.58860042,2.56430414 9.58860042,5.20778425 C9.58860042,8.23346439 5.16600023,12.9388086 4.97767222,13.1375526 C4.93012822,13.1879526 4.86393621,13.2163446 4.79472021,13.2163446 C4.72550421,13.2163446 4.6593122,13.1879526 4.6117682,13.1375526 Z"/>
        <path stroke-linecap="round" d="M4.98893061,13.3938854 L15.9667456,13.3938854 L15.9667456,13.3938838 C17.0468535,13.3938838 17.9938944,12.672365 18.2806303,11.6310122 C18.3440188,11.4008012 18.375713,11.1705903 18.375713,10.9403793 C18.375713,10.710159 18.3440162,10.4799387 18.2806226,10.2497184 L18.2806191,10.2497194 C17.9938751,9.20837938 17.0468408,8.48687326 15.966743,8.48687326 L14.0510501,8.48687326 L14.0510501,8.48687326 C13.0745068,8.48687326 12.2828619,7.69522844 12.2828619,6.71868506 L12.2828619,6.71868506 L12.2828619,6.71868506 C12.2828619,5.74214168 13.0745068,4.95049686 14.0510501,4.95049686 L14.6689343,4.95049686"/>
      </g>
      <g stroke-linecap="round" transform="translate(14.4 .9)">
        <path d="M0.375,0.69895923 L0.375,8.49895954"/>
        <polyline stroke-linejoin="round" points=".485 .767 4.147 2.311 .485 4.338"/>
      </g>
    </g>
  </g>
</svg>
