<svg xmlns="http://www.w3.org/2000/svg" width="24" height="24" viewBox="0 0 24 24">
  <g fill="none" fill-rule="evenodd">
    <polygon points="0 24 24 24 24 0 0 0"/>
    <g stroke="#000" stroke-width=".75" transform="translate(6 2)">
      <path stroke-linecap="round" stroke-linejoin="round" d="M9.6357 19.542L2.3647 19.542C1.3577 19.542.5417 18.726.5417 17.719L.5417 2.281C.5417 1.274 1.3577.459 2.3647.459L9.6357.459C10.6427.459 11.4577 1.274 11.4577 2.281L11.4577 17.719C11.4577 18.726 10.6427 19.542 9.6357 19.542zM.542 16.4746L11.458 16.4746M.542 3.5254L11.458 3.5254"/>
      <path stroke-linecap="round" stroke-linejoin="round" d="M6.6338,17.998 C6.6338,18.349 6.3498,18.632 5.9998,18.632 C5.6508,18.632 5.3658,18.349 5.3658,17.998 C5.3658,17.648 5.6508,17.365 5.9998,17.365 C6.3498,17.365 6.6338,17.648 6.6338,17.998 Z"/>
      <path d="M6.02920252,14.2583998 C3.75640257,14.2571998 1.90360261,12.4079999 1.90000261,10.1351999 C1.89880261,9.03119993 2.3272026,7.99439996 3.10600258,7.21319997 C3.88480257,6.43199999 4.92040254,6.0012 6.02440252,6 C8.30320247,6 10.1560024,7.84919996 10.1596024,10.1231999 C10.1608024,11.2259999 9.73240243,12.2627999 8.95360245,13.0439998 C8.17480247,13.8251998 7.13920249,14.2559998 6.03520252,14.2583998 C6.03520252,14.2583998 6.03040252,14.2583998 6.02920252,14.2583998 L6.02920252,14.2583998 Z"/>
      <g stroke-linecap="round" transform="translate(5 6)">
        <path d="M1 .387808672L1 1.38780867M1 7L1 8"/>
      </g>
      <g stroke-linecap="round" transform="rotate(90 .5 9.5)">
        <path d="M1 .387808672L1 1.38780867M1 7L1 8"/>
      </g>
      <g stroke-linecap="round" transform="rotate(130 2.101 8.166)">
        <path d="M1 .387808672L1 1.38780867M1 7L1 8"/>
      </g>
      <g stroke-linecap="round" transform="rotate(-140 4.592 6.09)">
        <path d="M1 .387808672L1 1.38780867M1 7L1 8"/>
      </g>
    </g>
  </g>
</svg>
