<svg xmlns="http://www.w3.org/2000/svg" width="24" height="24" viewBox="0 0 24 24">
  <g fill="none" fill-rule="evenodd">
    <polygon points="0 24 24 24 24 0 0 0"/>
    <g transform="translate(2 3)">
      <path fill="#FFF" d="M4.5508,15.4307 C4.5508,16.3867 3.7758,17.1607 2.8198,17.1607 C1.8628,17.1607 1.0878,16.3867 1.0878,15.4307 C1.0878,14.4747 1.8628,13.6997 2.8198,13.6997 C3.7758,13.6997 4.5508,14.4747 4.5508,15.4307"/>
      <path stroke="#000" stroke-linecap="round" stroke-linejoin="round" stroke-width=".75" d="M4.5508,15.4307 C4.5508,16.3867 3.7758,17.1607 2.8198,17.1607 C1.8628,17.1607 1.0878,16.3867 1.0878,15.4307 C1.0878,14.4747 1.8628,13.6997 2.8198,13.6997 C3.7758,13.6997 4.5508,14.4747 4.5508,15.4307 Z"/>
      <path fill="#FFF" d="M2.8193,15.5088 C2.7753,15.5088 2.7403,15.4738 2.7403,15.4308 C2.7403,15.3868 2.7753,15.3518 2.8193,15.3518 C2.8633,15.3518 2.8983,15.3868 2.8983,15.4308 C2.8983,15.4738 2.8633,15.5088 2.8193,15.5088"/>
      <path fill="#000" d="M2.8193,14.9766 C2.5683,14.9766 2.3653,15.1796 2.3653,15.4306 C2.3653,15.6806 2.5683,15.8836 2.8193,15.8836 C3.0703,15.8836 3.2733,15.6806 3.2733,15.4306 C3.2733,15.1796 3.0703,14.9766 2.8193,14.9766"/>
      <path fill="#FFF" d="M17.8018,15.4307 C17.8018,16.3867 17.0278,17.1607 16.0718,17.1607 C15.1148,17.1607 14.3398,16.3867 14.3398,15.4307 C14.3398,14.4747 15.1148,13.6997 16.0718,13.6997 C17.0278,13.6997 17.8018,14.4747 17.8018,15.4307"/>
      <path stroke="#000" stroke-linecap="round" stroke-linejoin="round" stroke-width=".75" d="M17.8018,15.4307 C17.8018,16.3867 17.0278,17.1607 16.0718,17.1607 C15.1148,17.1607 14.3398,16.3867 14.3398,15.4307 C14.3398,14.4747 15.1148,13.6997 16.0718,13.6997 C17.0278,13.6997 17.8018,14.4747 17.8018,15.4307 Z"/>
      <path fill="#FFF" d="M16.0713,15.5088 C16.0273,15.5088 15.9923,15.4738 15.9923,15.4308 C15.9923,15.3868 16.0273,15.3518 16.0713,15.3518 C16.1143,15.3518 16.1493,15.3868 16.1493,15.4308 C16.1493,15.4738 16.1143,15.5088 16.0713,15.5088"/>
      <path fill="#000" d="M16.0713,14.9766 C15.8203,14.9766 15.6173,15.1796 15.6173,15.4306 C15.6173,15.6806 15.8203,15.8836 16.0713,15.8836 C16.3213,15.8836 16.5243,15.6806 16.5243,15.4306 C16.5243,15.1796 16.3213,14.9766 16.0713,14.9766"/>
      <g transform="translate(4 15)">
        <path fill="#FFF" d="M0.4873,0.8838 L10.2083,0.8838"/>
        <path stroke="#000" stroke-linecap="round" stroke-linejoin="round" stroke-width=".75" d="M0.4873,0.8838 L10.2083,0.8838"/>
      </g>
      <path stroke="#000" stroke-linecap="round" stroke-linejoin="round" stroke-width=".75" d="M18.1943 15.8838L19.5993 15.8838 19.5993 13.9278C19.5993 13.9278 19.6313 12.2318 17.5703 11.8578L15.3853 11.3578 12.7683 9.7518C11.5193 8.9848 10.0833 8.5788 8.6173 8.5788L5.2683 8.5788C3.9403 8.5788 2.6953 9.2308 1.9393 10.3228L1.2693 11.2898C.7033 12.1068.4003 13.0758.4003 14.0708L.4003 15.4308 1.0883 15.8838M15.3857 11.3574L1.2697 11.3574M7.4346 8.5791L7.4346 11.3571M.5771 12.7764L1.5231 12.7764M19.3535 13.0254L17.6745 13.0254"/>
      <g transform="translate(0 17)">
        <path fill="#FFF" d="M0.623,0.9004 L18.674,0.9004"/>
        <path stroke="#000" stroke-linecap="round" stroke-linejoin="round" stroke-width=".75" d="M0.623,0.9004 L18.674,0.9004"/>
      </g>
      <path stroke="#000" stroke-linecap="round" stroke-linejoin="round" stroke-width=".75" d="M18.0156,8.4551 L15.8676,9.7001 L13.7196,8.4551 C12.7386,7.8871 12.1346,6.8391 12.1346,5.7051 L12.1346,1.4851 L15.8676,0.1001 L19.5996,1.4851 L19.5996,5.7051 C19.5996,6.8391 18.9956,7.8871 18.0156,8.4551 Z"/>
      <polyline stroke="#000" stroke-linecap="round" stroke-linejoin="round" stroke-width=".75" points="13.921 4.665 15.275 6.019 17.785 3.508"/>
    </g>
  </g>
</svg>
