<svg id="Layer_1" data-name="Layer 1" xmlns="http://www.w3.org/2000/svg" viewBox="0 0 24 24"><defs><style>.cls-1,.cls-2{fill:none;stroke:#000;stroke-width:0.8px;}.cls-1{stroke-linecap:round;stroke-linejoin:round;}.cls-2{stroke-miterlimit:10;}</style></defs><title>icon</title><path class="cls-1" d="M20.67 15.18h.72a1.37 1.37 0 0 0 1.37-1.37v-.56a1.39 1.39 0 0 0-.68-1.19 11.61 11.61 0 0 0-4.27-1.42 15.14 15.14 0 0 0-6.91-2.85 29.59 29.59 0 0 0-6.9.32.94.94 0 0 0-.53.29 17.43 17.43 0 0 0-1.7 2 1.46 1.46 0 0 0-.23.77v1a.31.31 0 0 0-.3.31v1.62a1 1 0 0 0 1 1h.4m3.05 0h11.68"/><circle class="cls-2" cx="4.23" cy="14.79" r="1.5"/><circle class="cls-2" cx="18.86" cy="14.79" r="1.5"/><path class="cls-1" d="M16.36 11.36l-5.65-.48L10.34 9a7.73 7.73 0 0 1 2.29.36 25.72 25.72 0 0 1 3.73 2zM9 8.88l.34 2-4.57-.29.52-1a1.07 1.07 0 0 1 1-.58z"/></svg>