<svg xmlns="http://www.w3.org/2000/svg" width="20" height="20" viewBox="0 0 20 20">
  <g fill="none" fill-rule="evenodd" transform="translate(-2 -2)">
    <polygon points="0 24 24 24 24 0 0 0"/>
    <g transform="translate(2 2)">
      <path stroke="#231F20" stroke-linecap="round" stroke-linejoin="round" stroke-width=".75" d="M18.1445,17.8447 C13.3897396,17.8447 9.9608763,17.8447 7.58349609,17.8447 M3.89289176,17.7794023 C2.06803259,17.4425776 0.6855,15.8428408 0.6855,13.9197 C0.6855,11.7517 2.4445,9.9937 4.6135,9.9957 C6.3764405,9.99700915 7.36690723,9.99945907 8.09533691,10 M11.8043633,10.0010399 C12.6003937,10.001631 13.7944393,10.0025177 15.3865,10.0037 C17.5555,10.0057 19.3145,8.2487 19.3145,6.0797 C19.3145,4.12231629 17.880973,2.4994494 16.0066207,2.20380107 M12.3999634,2.1557 C10.284962,2.1557 7.25650282,2.1557 3.0265,2.1557"/>
      <path fill="#FFF" d="M18.584,17.8447 C18.584,18.8137 17.798,19.5997 16.829,19.5997 C15.859,19.5997 15.073,18.8137 15.073,17.8447 C15.073,16.8747 15.859,16.0887 16.829,16.0887 C17.798,16.0887 18.584,16.8747 18.584,17.8447"/>
      <path stroke="#231F20" stroke-linecap="round" stroke-linejoin="round" stroke-width=".75" d="M18.584,17.8447 C18.584,18.8137 17.798,19.5997 16.829,19.5997 C15.859,19.5997 15.073,18.8137 15.073,17.8447 C15.073,16.8747 15.859,16.0887 16.829,16.0887 C17.798,16.0887 18.584,16.8747 18.584,17.8447 Z"/>
      <path fill="#FFF" d="M4.7822,2.1558 C4.7822,3.1258 3.9962,3.9108 3.0262,3.9108 C2.0562,3.9108 1.2702,3.1258 1.2702,2.1558 C1.2702,1.1858 2.0562,0.3998 3.0262,0.3998 C3.9962,0.3998 4.7822,1.1858 4.7822,2.1558"/>
      <path stroke="#231F20" stroke-linecap="round" stroke-linejoin="round" stroke-width=".75" d="M4.7822,2.1558 C4.7822,3.1258 3.9962,3.9108 3.0262,3.9108 C2.0562,3.9108 1.2702,3.1258 1.2702,2.1558 C1.2702,1.1858 2.0562,0.3998 3.0262,0.3998 C3.9962,0.3998 4.7822,1.1858 4.7822,2.1558 Z"/>
      <path fill="#FFF" d="M3.4238,2.1558 C3.4238,2.3748 3.2458,2.5528 3.0268,2.5528 C2.8068,2.5528 2.6288,2.3748 2.6288,2.1558 C2.6288,1.9358 2.8068,1.7588 3.0268,1.7588 C3.2458,1.7588 3.4238,1.9358 3.4238,2.1558"/>
      <path stroke="#231F20" stroke-linecap="round" stroke-linejoin="round" stroke-width=".75" d="M3.4238,2.1558 C3.4238,2.3748 3.2458,2.5528 3.0268,2.5528 C2.8068,2.5528 2.6288,2.3748 2.6288,2.1558 C2.6288,1.9358 2.8068,1.7588 3.0268,1.7588 C3.2458,1.7588 3.4238,1.9358 3.4238,2.1558 Z"/>
      <path fill="#FFF" d="M17.2266,17.8447 C17.2266,18.0637 17.0476,18.2417 16.8296,18.2417 C16.6096,18.2417 16.4306,18.0637 16.4306,17.8447 C16.4306,17.6247 16.6096,17.4477 16.8296,17.4477 C17.0476,17.4477 17.2266,17.6247 17.2266,17.8447"/>
      <path stroke="#231F20" stroke-linecap="round" stroke-linejoin="round" stroke-width=".75" d="M17.2266,17.8447 C17.2266,18.0637 17.0476,18.2417 16.8296,18.2417 C16.6096,18.2417 16.4306,18.0637 16.4306,17.8447 C16.4306,17.6247 16.6096,17.4477 16.8296,17.4477 C17.0476,17.4477 17.2266,17.6247 17.2266,17.8447 Z"/>
      <path d="M16.0244,2.1558 C16.0244,3.1258 15.2384,3.9108 14.2684,3.9108 C13.2984,3.9108 12.5124,3.1258 12.5124,2.1558 C12.5124,1.1858 13.2984,0.3998 14.2684,0.3998 C15.2384,0.3998 16.0244,1.1858 16.0244,2.1558"/>
      <path stroke="#231F20" stroke-linecap="round" stroke-linejoin="round" stroke-width=".75" d="M16.0244,2.1558 C16.0244,3.1258 15.2384,3.9108 14.2684,3.9108 C13.2984,3.9108 12.5124,3.1258 12.5124,2.1558 C12.5124,1.1858 13.2984,0.3998 14.2684,0.3998 C15.2384,0.3998 16.0244,1.1858 16.0244,2.1558 Z"/>
      <path d="M7.4873,17.8447 C7.4873,18.8137 6.7013,19.5997 5.7313,19.5997 C4.7613,19.5997 3.9753,18.8137 3.9753,17.8447 C3.9753,16.8747 4.7613,16.0887 5.7313,16.0887 C6.7013,16.0887 7.4873,16.8747 7.4873,17.8447"/>
      <path stroke="#231F20" stroke-linecap="round" stroke-linejoin="round" stroke-width=".75" d="M7.4873,17.8447 C7.4873,18.8137 6.7013,19.5997 5.7313,19.5997 C4.7613,19.5997 3.9753,18.8137 3.9753,17.8447 C3.9753,16.8747 4.7613,16.0887 5.7313,16.0887 C6.7013,16.0887 7.4873,16.8747 7.4873,17.8447 Z"/>
      <path d="M11.7559,10 C11.7559,10.97 10.9699,11.756 9.9999,11.756 C9.0299,11.756 8.2439,10.97 8.2439,10 C8.2439,9.03 9.0299,8.244 9.9999,8.244 C10.9699,8.244 11.7559,9.03 11.7559,10"/>
      <path stroke="#231F20" stroke-linecap="round" stroke-linejoin="round" stroke-width=".75" d="M11.7559,10 C11.7559,10.97 10.9699,11.756 9.9999,11.756 C9.0299,11.756 8.2439,10.97 8.2439,10 C8.2439,9.03 9.0299,8.244 9.9999,8.244 C10.9699,8.244 11.7559,9.03 11.7559,10 Z"/>
    </g>
  </g>
</svg>
