<svg xmlns="http://www.w3.org/2000/svg" width="20" height="16" viewBox="0 0 20 16">
  <g fill="none" fill-rule="evenodd" transform="translate(-2 -4)">
    <polygon points="0 24 24 24 24 0 0 0"/>
    <g stroke="#000" stroke-linejoin="round" stroke-width=".75" transform="translate(2 4)">
      <path d="M17.9775 11.4639C16.1655 10.6029 13.2715 10.0419 9.9995 10.0419 6.7285 10.0419 3.8345 10.6029 2.0225 11.4639L1.9885 10.5059C1.9775 10.2229 2.1235 9.9529 2.3745 9.8219 4.3825 8.7829 7.0595 8.1469 9.9995 8.1469 12.9405 8.1469 15.6175 8.7829 17.6245 9.8219 17.8765 9.9529 18.0225 10.2229 18.0115 10.5059L17.9775 11.4639zM18.0127 11.4639C16.4137 13.4659 13.4277 14.8129 10.0077 14.8129 6.5877 14.8129 3.6017 13.4669 2.0027 11.4649"/>
      <path d="M18.0293,10.042 L19.1923,7.815 C19.5283,7.171 19.2743,6.388 18.6373,6.038 C17.9143,5.642 16.9453,4.994 15.9613,3.988 C13.9913,1.978 12.2103,0.775 10.0003,0.775 C7.7903,0.775 6.0083,1.978 4.0393,3.988 C3.0543,4.994 2.0863,5.642 1.3623,6.038 C0.7253,6.388 0.4713,7.171 0.8073,7.815 L1.9703,10.042"/>
      <path d="M10.0078,2.5156 L10.4018,3.7266 C10.4528,3.8886 10.6038,3.9976 10.7738,3.9976 L12.0468,3.9976 L11.0168,4.7456 C10.8788,4.8456 10.8218,5.0216 10.8738,5.1826 L11.2678,6.3946 L10.2368,5.6456 C10.1008,5.5466 9.9148,5.5466 9.7778,5.6456 L8.7468,6.3946 L9.1408,5.1826 C9.1938,5.0216 9.1358,4.8456 8.9988,4.7456 L7.9688,3.9976 L9.2418,3.9976 C9.4108,3.9976 9.5618,3.8886 9.6138,3.7266 L10.0078,2.5156 Z"/>
    </g>
  </g>
</svg>
