<svg xmlns="http://www.w3.org/2000/svg" width="14" height="20" viewBox="0 0 14 20">
  <g fill="none" fill-rule="evenodd" transform="translate(-5 -2)">
    <polygon points="0 24 24 24 24 0 0 0"/>
    <g stroke="#231F20" stroke-linecap="round" stroke-linejoin="round" stroke-width=".75" transform="translate(5 3)">
      <path d="M1.7373 1.375L1.7373 1.805C1.7373 3.238 2.3093 4.613 3.3283 5.622L6.7373 9 3.3283 12.378C2.3093 13.388 1.7373 14.762 1.7373 16.195L1.7373 16.625 12.2623 16.625 12.2623 16.195C12.2623 14.762 11.6903 13.388 10.6723 12.378L7.2623 9 10.6723 5.622C11.6903 4.613 12.2623 3.238 12.2623 1.805L12.2623 1.375 1.7373 1.375zM13.2627.1665L.7377.1665M13.2627 17.833L.7377 17.833M3.0898 5.0415L10.9098 5.0415"/>
      <path d="M2.167,14.875 L2.87,14.584 C5.53,13.483 8.47,13.483 11.13,14.584 L11.833,14.875"/>
    </g>
  </g>
</svg>
