<svg width="18" height="19" viewBox="0 0 18 19" xmlns="http://www.w3.org/2000/svg"><title>Page 1</title><g fill="none" fill-rule="evenodd"><path d="M13.137 16.912H3.544C1.808 16.912.4 15.505.4 13.77c0-1.737 1.408-3.145 3.144-3.145h10.45c1.736 0 3.143-1.407 3.143-3.143 0-1.736-1.407-3.143-3.144-3.143H4.4" stroke="#000" stroke-width=".8" stroke-linecap="round" stroke-linejoin="round"/><path d="M14.798 16.912l-.105-.16c-.302-.466-.588-.944-.837-1.442-.12-.24-.228-.485-.303-.744-.083-.285-.054-.56.067-.827.157-.346.42-.582.78-.7.355-.116.703-.08 1.03.102.29.16.488.4.595.714.08.232.09.467.022.706-.1.34-.252.656-.417.967-.245.462-.517.91-.807 1.347l-.025.035" fill="#FFF"/><path d="M14.798 16.912l-.105-.16c-.302-.466-.588-.944-.837-1.442-.12-.24-.228-.485-.303-.744-.083-.285-.054-.56.067-.827.157-.346.42-.582.78-.7.355-.116.703-.08 1.03.102.29.16.488.4.595.714.08.232.09.467.022.706-.1.34-.252.656-.417.967-.245.462-.517.91-.807 1.347l-.025.035z" stroke="#000" stroke-width=".8" stroke-linecap="round" stroke-linejoin="round"/><path d="M15.245 14.29c0 .246-.2.445-.446.445-.247 0-.448-.2-.448-.446 0-.247.2-.447.447-.447.245 0 .445.2.445.446" fill="#000"/><path d="M2.777 4.34l-.105-.16c-.303-.468-.59-.945-.837-1.443-.12-.24-.23-.485-.304-.744-.082-.285-.053-.56.07-.828.156-.345.418-.58.778-.698C2.734.35 3.082.385 3.41.57c.288.16.486.4.594.713.08.232.09.467.02.705-.097.34-.25.657-.415.967-.246.464-.518.912-.808 1.35-.006.01-.014.02-.025.034" fill="#FFF"/><path d="M2.777 4.34l-.105-.16c-.303-.468-.59-.945-.837-1.443-.12-.24-.23-.485-.304-.744-.082-.285-.053-.56.07-.828.156-.345.418-.58.778-.698C2.734.35 3.082.385 3.41.57c.288.16.486.4.594.713.08.232.09.467.02.705-.097.34-.25.657-.415.967-.246.464-.518.912-.808 1.35-.006.01-.014.02-.025.034z" stroke="#000" stroke-width=".8" stroke-linecap="round" stroke-linejoin="round"/><path d="M3.224 1.716c0 .246-.2.446-.447.446-.246 0-.446-.2-.446-.446.002-.247.2-.446.447-.446.248 0 .446.2.446.446" fill="#000"/><path d="M11.22 4.34c0 .752-.61 1.363-1.363 1.363-.752 0-1.364-.61-1.364-1.364 0-.754.61-1.365 1.364-1.365.754 0 1.364.61 1.364 1.364" fill="#FFF"/><path d="M11.22 4.34c0 .752-.61 1.363-1.363 1.363-.752 0-1.364-.61-1.364-1.364 0-.754.61-1.365 1.364-1.365.754 0 1.364.61 1.364 1.364z" stroke="#000" stroke-width=".8" stroke-linecap="round" stroke-linejoin="round"/><path d="M6.21 10.626c0 .753-.61 1.364-1.364 1.364-.754 0-1.365-.61-1.365-1.364 0-.753.612-1.364 1.366-1.364.753 0 1.363.61 1.363 1.364" fill="#FFF"/><path d="M6.21 10.626c0 .753-.61 1.364-1.364 1.364-.754 0-1.365-.61-1.365-1.364 0-.753.612-1.364 1.366-1.364.753 0 1.363.61 1.363 1.364z" stroke="#000" stroke-width=".8" stroke-linecap="round" stroke-linejoin="round"/><path d="M11.22 16.912c0 .753-.61 1.364-1.363 1.364-.752 0-1.364-.61-1.364-1.364 0-.753.61-1.364 1.364-1.364.754 0 1.364.61 1.364 1.364" fill="#FFF"/><path d="M11.22 16.912c0 .753-.61 1.364-1.363 1.364-.752 0-1.364-.61-1.364-1.364 0-.753.61-1.364 1.364-1.364.754 0 1.364.61 1.364 1.364z" stroke="#000" stroke-width=".8" stroke-linecap="round" stroke-linejoin="round"/></g></svg>