<?xml version="1.0" encoding="UTF-8" standalone="no"?>
<svg width="62px" height="63px" viewBox="0 0 62 63" version="1.1" xmlns="http://www.w3.org/2000/svg" xmlns:xlink="http://www.w3.org/1999/xlink">
    <!-- Generator: Sketch 43.1 (39012) - http://www.bohemiancoding.com/sketch -->
    <title>sos</title>
    <desc>Created with Sketch.</desc>
    <defs></defs>
    <g id="Page-1" stroke="none" stroke-width="1" fill="none" fill-rule="evenodd">
        <g id="sos" transform="translate(1.000000, 2.000000)" fill-rule="nonzero">
            <circle id="back" stroke="#000000" stroke-width="2.6" fill="#FFFFFF" cx="30" cy="29.5" r="29.5"></circle>
            <path d="M15.25,31.766457 C15.2936846,33.7905117 16.9682622,35.0428045 19.6257441,35.0428045 C22.377876,35.0428045 24.0524536,33.717704 24.0524536,31.5261915 C24.0524536,29.8588947 23.1205147,28.9196751 21.0454947,28.5192326 L19.691271,28.2571248 C18.5845937,28.0387017 18.1186242,27.7037861 18.1186242,27.1286051 C18.1186242,26.429651 18.7374899,25.9855239 19.6767095,25.9855239 C20.6159291,25.9855239 21.322164,26.5024587 21.3804102,27.2450975 L23.8485919,27.2450975 C23.8049073,25.3011313 22.1012066,23.96875 19.6403056,23.96875 C17.1065969,23.96875 15.4611424,25.3156929 15.4611424,27.3688706 C15.4611424,29.0216059 16.4513274,30.0700371 18.3734513,30.4340757 L19.756798,30.710745 C20.9581254,30.9510105 21.416814,31.2640837 21.416814,31.8465455 C21.416814,32.5382189 20.7324215,33.0187498 19.7349557,33.0187498 C18.6282783,33.0187498 17.8637972,32.5309381 17.7982703,31.766457 L15.25,31.766457 Z M30.5194684,23.96875 C27.3668941,23.96875 25.3355586,26.0874547 25.3355586,29.5021369 C25.3355586,32.9240998 27.3450518,35.0428045 30.5194684,35.0428045 C33.6793236,35.0428045 35.6888167,32.9240998 35.6888167,29.5021369 C35.6888167,26.0874547 33.6793236,23.96875 30.5194684,23.96875 L30.5194684,23.96875 Z M30.5194684,26.1821047 C31.9901844,26.1821047 32.9730887,27.4780822 32.9730887,29.5021369 C32.9730887,31.5334723 31.9974652,32.8294497 30.5194684,32.8294497 C29.0269101,32.8294497 28.0585674,31.5334723 28.0585674,29.5021369 C28.0585674,27.4780822 29.0414717,26.1821047 30.5194684,26.1821047 L30.5194684,26.1821047 Z M36.9719218,31.766457 C37.0156064,33.7905117 38.690184,35.0428045 41.3476659,35.0428045 C44.0997977,35.0428045 45.7743753,33.717704 45.7743753,31.5261915 C45.7743753,29.8588947 44.8424365,28.9196751 42.7674164,28.5192326 L41.4131928,28.2571248 C40.3065154,28.0387017 39.840546,27.7037861 39.840546,27.1286051 C39.840546,26.429651 40.4594117,25.9855239 41.3986313,25.9855239 C42.3378509,25.9855239 43.0440858,26.5024587 43.102332,27.2450975 L45.5705137,27.2450975 C45.5268291,25.3011313 43.8231284,23.96875 41.3622274,23.96875 C38.8285187,23.96875 37.1830642,25.3156929 37.1830642,27.3688706 C37.1830642,29.0216059 38.1732492,30.0700371 40.095373,30.4340757 L41.4787198,30.710745 C42.6800472,30.9510105 43.1387358,31.2640837 43.1387358,31.8465455 C43.1387358,32.5382189 42.4543432,33.0187498 41.4568774,33.0187498 C40.3502001,33.0187498 39.585719,32.5309381 39.520192,31.766457 L36.9719218,31.766457 Z" id="SOS-Copy" fill="#000000"></path>
        </g>
    </g>
</svg>