<?xml version="1.0" encoding="UTF-8" standalone="no"?>
<svg width="30px" height="30px" viewBox="0 0 30 30" version="1.1" xmlns="http://www.w3.org/2000/svg" xmlns:xlink="http://www.w3.org/1999/xlink">
    <!-- Generator: Sketch 46.1 (44463) - http://www.bohemiancoding.com/sketch -->
    <title>ic_twitter</title>
    <desc>Created with Sketch.</desc>
    <defs></defs>
    <g id="Homepage" stroke="none" stroke-width="1" fill="none" fill-rule="evenodd">
        <g id="Outstation" transform="translate(-681.000000, -5884.000000)" fill-rule="nonzero" fill="#FFFFFF">
            <g id="Footer" transform="translate(0.000000, 5476.000000)">
                <g id="Social-Media" transform="translate(151.000000, 408.000000)">
                    <g id="Logos" transform="translate(260.000000, 0.000000)">
                        <g id="ic_twitter" transform="translate(270.000000, 0.000000)">
                            <path d="M24.8148148,0 L5.18518519,0 C2.32592593,0 0,2.32592593 0,5.18518519 L0,24.8148148 C0,27.6740741 2.32592593,30 5.18518519,30 L24.8148148,30 C27.6740741,30 30,27.6740741 30,24.8148148 L30,5.18518519 C30,2.32592593 27.6740741,0 24.8148148,0 Z M23.1851852,10.9037037 C23.1851852,10.9037037 23.6740741,16.0740741 20.2962963,19.7333333 C14.0296296,26.5037037 4.71111111,21.7333333 4.71111111,21.7333333 C8.71111111,21.8666667 10.9185185,20.1481481 10.9185185,20.1481481 C8.22222222,19.8074074 7.12592593,17.0518519 7.12592593,17.0518519 C8.22222222,17.3333333 8.91851852,17.0518519 8.91851852,17.0518519 C5.88148148,16.0148148 5.61481481,12.7703704 5.61481481,12.7703704 C6.44444444,13.5259259 7.61481481,13.3185185 7.61481481,13.3185185 C4.72592593,11.3925926 5.82222222,7.24444444 5.82222222,7.24444444 C5.82222222,7.24444444 9.74814815,11.9407407 14.9185185,11.8666667 C14.9185185,11.8666667 14.4296296,8.71111111 17.0518519,7.24444444 C19.6,5.83703704 21.5703704,7.0962963 22.237037,8.2962963 C22.9333333,8.14814815 24.162963,7.65925926 24.9481481,6.97777778 C24.962963,8.26666667 23.4666667,9.3037037 23.4666667,9.3037037 C24.8444444,9.0962963 25.6,8.60740741 25.6,8.60740741 C25.0074074,10.0444444 23.1851852,10.9037037 23.1851852,10.9037037 Z" id="Shape"></path>
                        </g>
                    </g>
                </g>
            </g>
        </g>
    </g>
</svg>