<?xml version="1.0" encoding="UTF-8" standalone="no"?>
<svg width="30px" height="30px" viewBox="0 0 30 30" version="1.1" xmlns="http://www.w3.org/2000/svg" xmlns:xlink="http://www.w3.org/1999/xlink">
    <!-- Generator: Sketch 46.1 (44463) - http://www.bohemiancoding.com/sketch -->
    <title>ic_youtube</title>
    <desc>Created with Sketch.</desc>
    <defs></defs>
    <g id="Homepage" stroke="none" stroke-width="1" fill="none" fill-rule="evenodd">
        <g id="Outstation" transform="translate(-591.000000, -5884.000000)" fill-rule="nonzero" fill="#FFFFFF">
            <g id="Footer" transform="translate(0.000000, 5476.000000)">
                <g id="Social-Media" transform="translate(151.000000, 408.000000)">
                    <g id="Logos" transform="translate(260.000000, 0.000000)">
                        <g id="ic_youtube" transform="translate(180.000000, 0.000000)">
                            <path d="M24.8148148,0 L5.18518519,0 C2.32592593,0 0,2.32592593 0,5.18518519 L0,24.8148148 C0,27.6740741 2.32592593,30 5.18518519,30 L24.8148148,30 C27.6740741,30 30,27.6740741 30,24.8148148 L30,5.18518519 C30,2.32592593 27.6592593,0 24.8148148,0 Z M23.3481481,16.7851852 L12.0592593,23.6148148 C10.6518519,24.4592593 8.87407407,23.4518519 8.87407407,21.8222222 L8.87407407,8.16296296 C8.87407407,6.51851852 10.6666667,5.51111111 12.0592593,6.37037037 L23.3481481,13.2 C24.7111111,14.0148148 24.7111111,15.9703704 23.3481481,16.7851852 Z" id="Shape"></path>
                        </g>
                    </g>
                </g>
            </g>
        </g>
    </g>
</svg>