<svg width="57" height="20" viewBox="0 0 57 20" fill="none" xmlns="http://www.w3.org/2000/svg">
<g clip-path="url(#clip0)">
<path fill-rule="evenodd" clip-rule="evenodd" d="M5.19181 12.9506C4.86604 12.7323 4.42496 12.5417 3.80162 12.5417C3.12862 12.5417 2.58712 12.6813 2.58712 13.3976C2.58712 14.6618 5.04085 14.1899 5.04085 16.897C5.04085 19.3634 3.42115 20.0029 1.95613 20.0029C1.30435 20.0029 0.554775 19.787 0.00189209 19.5417L0.399872 17.729C0.733089 18.0325 1.40609 18.2397 1.95613 18.2397C2.48057 18.2397 3.30212 18.0968 3.30212 17.1814C3.30212 15.7487 0.849704 16.2817 0.849704 13.7669C0.849704 11.4668 2.28234 10.7778 3.664 10.7778C4.44224 10.7778 5.17344 10.8918 5.60205 11.1769L5.19181 12.9506ZM10.1192 19.6979C9.55296 19.8937 9.00139 19.9878 8.41394 19.9878C6.5551 19.9878 5.58476 18.8917 5.58476 16.8005C5.58476 14.3583 6.81918 12.5566 8.49445 12.5566C9.86649 12.5566 10.7414 13.5635 10.7414 15.1451C10.7414 15.6678 10.6819 16.18 10.5393 16.9013H7.22197C7.21191 17.0079 7.20819 17.0606 7.20819 17.1227C7.20819 17.9522 7.70528 18.3712 8.67058 18.3712C9.26547 18.3712 9.80326 18.2322 10.3992 17.92L10.1192 19.6979ZM9.18867 15.4639C9.1959 15.3134 9.20093 15.1937 9.20093 15.1018C9.20093 14.522 8.9084 14.1822 8.41394 14.1822C7.88228 14.1822 7.50443 14.6393 7.35215 15.4562L9.18867 15.4639ZM14.9932 19.6953C14.6499 19.8605 14.1913 19.9696 13.5148 19.9696C12.0599 19.9696 11.1578 18.5158 11.1578 16.7451C11.1578 14.4277 12.4627 12.5796 14.3834 12.5796C14.8024 12.5796 15.4419 12.7605 15.9462 13.053L15.5782 14.7526C15.2212 14.5176 14.8494 14.3691 14.4666 14.3691C13.5767 14.3691 12.9411 15.1845 12.9411 16.646C12.9411 17.4873 13.4019 18.1778 14.1307 18.1778C14.5644 18.1778 14.8693 18.0861 15.2424 17.8679L14.9932 19.6953ZM21.2191 17.9135C21.1337 18.5256 21.0543 19.1205 21.0073 19.7592H19.4049L19.5401 18.609H19.5239C19.022 19.3905 18.5028 19.9224 17.5957 19.9224C16.5893 19.9224 16.044 18.8645 16.044 17.482C16.044 17.0055 16.0738 16.7359 16.1803 15.9918L16.6339 12.6977H18.4172L17.939 16.0017C17.8906 16.357 17.8226 16.7088 17.8226 17.0757C17.8226 17.4921 18.012 17.9135 18.4929 17.8879C19.2239 17.8879 19.6554 16.9939 19.7781 15.9505L20.27 12.6977H21.9962L21.2191 17.9135ZM25.7277 12.6286C25.6767 12.6144 25.6185 12.6084 25.5566 12.6084C25.0164 12.6084 24.6992 12.9209 24.1922 13.7661L24.3397 12.6861H22.8327L21.8153 19.8038H23.4796C24.0782 15.4497 24.2368 14.7003 25.035 14.7003C25.082 14.7003 25.0868 14.7003 25.1562 14.7086C25.3063 13.8477 25.5082 13.2165 25.7883 12.6408L25.7277 12.6286ZM29.9193 19.6979C29.3515 19.8937 28.7988 19.9878 28.2136 19.9878C26.351 19.9878 25.382 18.8917 25.382 16.8005C25.382 14.3583 26.6175 12.5566 28.2917 12.5566C29.6639 12.5566 30.5415 13.5635 30.5415 15.1451C30.5415 15.6678 30.4796 16.18 30.3319 16.9013H27.0214C27.0115 17.0079 27.0054 17.0606 27.0054 17.1227C27.0054 17.9522 27.501 18.3712 28.4667 18.3712C29.0616 18.3712 29.6007 18.2322 30.1969 17.92L29.9193 19.6979ZM28.9835 15.4639C28.9949 15.3134 29.001 15.1937 29.001 15.1018C29.001 14.522 28.7061 14.1822 28.2136 14.1822C27.6819 14.1822 27.3041 14.6393 27.1503 15.4562L28.9835 15.4639ZM36.7501 11.3257L36.4775 13.2217C35.885 12.887 35.4538 12.748 34.9878 12.748C33.7424 12.748 32.8723 14.1032 32.8723 16.029C32.8723 17.3582 33.4547 18.1629 34.425 18.1629C34.839 18.1629 35.2914 18.0215 35.8415 17.7117L35.5529 19.7078C34.937 19.8977 34.5342 19.9631 34.0769 19.9631C32.2824 19.9631 31.1646 18.5123 31.1646 16.185C31.1646 13.053 32.7075 10.8671 34.9173 10.8671C35.2033 10.8671 35.4562 10.9034 35.6656 10.9612L36.3471 11.1544C36.5578 11.2379 36.6013 11.253 36.7501 11.3257ZM40.1346 15.7439C40.1346 17.3573 39.6349 18.3075 38.8481 18.3075C38.2731 18.3248 37.9248 17.6846 37.9248 16.7261C37.9248 15.5934 38.4341 14.3095 39.2507 14.3095C39.9075 14.3095 40.1346 15.0053 40.1346 15.7439ZM41.8877 15.7737C41.8877 13.98 41.0019 12.5846 39.3362 12.5846C37.4192 12.5846 36.1775 14.2815 36.1775 16.7808C36.1775 18.5694 36.9111 20.0327 38.7264 20.0327C40.5582 20.0327 41.8877 18.7355 41.8877 15.7737ZM47.4695 19.7277H45.8969L45.9776 19.0328C45.5201 19.5806 45.0445 19.8233 44.436 19.8233C43.2226 19.8233 42.422 18.6468 42.422 16.8676C42.422 14.5047 43.665 12.5004 45.1348 12.5004C45.7829 12.5004 46.2749 12.8067 46.7298 13.481L47.0965 10.9787H48.7348L47.4695 19.7277ZM45.0084 18.0539C45.7927 18.0539 46.3333 17.0659 46.3333 15.6555C46.3333 14.7484 46.0244 14.2618 45.4521 14.2618C44.6948 14.2618 44.1568 15.2506 44.1568 16.6561C44.1568 17.5829 44.4458 18.0539 45.0084 18.0539ZM53.1491 19.6979C52.5739 19.8937 52.0287 19.9878 51.439 19.9878C49.58 19.9878 48.607 18.8917 48.607 16.8005C48.607 14.3583 49.8451 12.5566 51.5193 12.5566C52.8914 12.5566 53.7648 13.5635 53.7648 15.1451C53.7648 15.6678 53.7081 16.18 53.5606 16.9013H50.2466C50.2355 17.0079 50.2331 17.0606 50.2331 17.1227C50.2331 17.9522 50.7299 18.3712 51.6952 18.3712C52.2914 18.3712 52.8281 18.2322 53.4254 17.92L53.1491 19.6979ZM52.2136 15.4639C52.221 15.3134 52.2258 15.1937 52.2258 15.1018C52.2258 14.522 51.9346 14.1822 51.439 14.1822C50.9074 14.1822 50.5304 14.6393 50.3768 15.4562L52.2136 15.4639ZM54.8104 19.6727H54.5408V18.4928H54.1509V18.2392H55.2003V18.4928H54.8104V19.6727ZM56.5979 19.6727H56.3463V18.4749H56.3428L56.1019 19.6727H55.8378L55.6026 18.4749H55.5989V19.6727H55.3477V18.2392H55.7409L55.9743 19.3695H55.9783L56.208 18.2392H56.5979V19.6727Z" fill="#EE9F2D"/>
<path fill-rule="evenodd" clip-rule="evenodd" d="M7.49563 9.02798H5.71489L6.73467 2.30281L4.45575 9.02798H3.23512L3.08766 2.34241L2.01318 9.02798H0.345123L1.73707 0.276373H4.30348L4.37393 5.69187L6.10653 0.276373H8.87619L7.49563 9.02798ZM12.0845 5.85793C11.8964 5.83561 11.8132 5.8273 11.6857 5.8273C10.6755 5.8273 10.1638 6.19487 10.1638 6.91381C10.1638 7.35664 10.4154 7.6391 10.8046 7.6391C11.5295 7.6391 12.055 6.91381 12.0845 5.85793ZM13.3809 9.02798H11.9049L11.9373 8.28935C11.4872 8.87833 10.8862 9.15182 10.0695 9.15182C9.10045 9.15182 8.43861 8.3587 8.43861 7.2129C8.43861 5.47527 9.59514 4.46664 11.5717 4.46664C11.7734 4.46664 12.0314 4.48218 12.2965 4.51937C12.3523 4.28395 12.3672 4.18244 12.3672 4.05772C12.3672 3.58754 12.0574 3.40901 11.2221 3.40901C10.7177 3.40901 10.139 3.48603 9.73997 3.61249L9.49209 3.68425L9.33587 3.73041L9.58135 2.13434C10.4712 1.85757 11.0573 1.75102 11.7178 1.75102C13.2496 1.75102 14.0613 2.4739 14.0613 3.83784C14.0613 4.19228 14.0353 4.45505 13.9138 5.24991L13.5408 7.77125L13.48 8.22655L13.4342 8.58931L13.4032 8.8372L13.3809 9.02798ZM14.6525 4.16165C14.6525 5.05978 15.0662 5.68115 16.0033 6.14542C16.7207 6.50227 16.8347 6.60641 16.8347 6.93022C16.8347 7.37218 16.5161 7.57718 15.8147 7.57718C15.2857 7.57718 14.7912 7.48857 14.2212 7.2921L13.9744 8.93368L14.055 8.95097L14.3823 9.02032C14.4875 9.04286 14.6424 9.06255 14.847 9.08487C15.2721 9.12469 15.5979 9.1435 15.8285 9.1435C17.6985 9.1435 18.5636 8.38846 18.5636 6.76744C18.5636 5.79361 18.2028 5.21775 17.3119 4.7863C16.5684 4.43186 16.484 4.3485 16.484 4.0179C16.484 3.63218 16.7791 3.43395 17.3515 3.43395C17.7009 3.43395 18.1743 3.47531 18.6266 3.53963L18.8808 1.8963C18.4159 1.81709 17.7258 1.75583 17.3167 1.75583C15.3327 1.75583 14.645 2.84825 14.6525 4.16165ZM21.6789 8.94112C21.1943 9.10215 20.8114 9.17566 20.4001 9.17566C19.4904 9.17566 18.9935 8.62147 18.9935 7.61022C18.9935 7.412 19.0084 7.1978 19.0442 6.97245L19.1545 6.27845L19.2363 5.71156L20.0098 0.855511H21.7818L21.5785 1.91117H22.4906L22.2403 3.64137H21.3306L20.8598 6.61144C20.8438 6.74272 20.83 6.83942 20.83 6.90615C20.83 7.27066 21.016 7.43344 21.4374 7.43344C21.643 7.43344 21.7979 7.412 21.917 7.36736L21.6789 8.94112ZM27.325 8.87833C26.7152 9.06999 26.1254 9.1667 25.4935 9.16429C23.5056 9.16429 22.467 8.07034 22.467 5.97848C22.467 3.53307 23.7883 1.73286 25.5839 1.73286C27.0487 1.73286 27.9893 2.74148 27.9893 4.3229C27.9893 4.84668 27.926 5.35712 27.7674 6.07847H24.2232C24.2084 6.18655 24.2057 6.23622 24.2057 6.29901C24.2057 7.13107 24.7363 7.54984 25.7734 7.54984C26.4092 7.54984 26.9817 7.412 27.6224 7.09716L27.325 8.87833ZM26.3249 4.64102C26.3348 4.49224 26.3374 4.37081 26.3374 4.28067C26.3374 3.69913 26.0237 3.35957 25.4935 3.35957C24.9284 3.35957 24.523 3.81312 24.3569 4.63599L26.3249 4.64102ZM32.3506 1.85254C32.2946 1.84182 32.2327 1.83438 32.1684 1.83438C31.5811 1.83438 31.2488 2.14506 30.7036 2.99287L30.8624 1.91117H29.2475L28.1527 9.02798H29.9439C30.5846 4.67821 30.7482 3.92711 31.6072 3.92711C31.659 3.92711 31.6641 3.92711 31.7371 3.93455C31.8958 3.07711 32.1126 2.44677 32.4115 1.87157L32.3506 1.85254ZM38.2667 0.551392L37.9755 2.44984C37.3423 2.1129 36.8763 1.98075 36.3794 1.98075C35.0522 1.98075 34.1141 3.32981 34.1141 5.2556C34.1141 6.58585 34.7438 7.38727 35.7795 7.38727C36.2195 7.38727 36.7028 7.24594 37.294 6.93613L36.9829 8.93368C36.3287 9.12206 35.9023 9.18901 35.4078 9.18901C33.4857 9.18901 32.2898 7.73909 32.2898 5.41182C32.2898 2.28137 33.9417 0.0952148 36.3053 0.0952148C36.6098 0.0952148 36.8824 0.12497 37.1043 0.189513L37.8392 0.382049C38.0571 0.468909 38.1068 0.482036 38.2667 0.551392ZM41.3377 5.85793C41.1519 5.83561 41.0661 5.8273 40.9412 5.8273C39.9273 5.8273 39.4145 6.19487 39.4145 6.91381C39.4145 7.35664 39.6685 7.6391 40.0575 7.6391C40.7861 7.6391 41.3053 6.91381 41.3377 5.85793ZM42.6351 9.02798H41.1565L41.1915 8.28935C40.7417 8.87833 40.1393 9.15182 39.3237 9.15182C38.3547 9.15182 37.6906 8.3587 37.6906 7.2129C37.6906 5.47527 38.8456 4.46664 40.8259 4.46664C41.0268 4.46664 41.2869 4.48218 41.5508 4.51937C41.6052 4.28395 41.6214 4.18244 41.6214 4.05772C41.6214 3.58754 41.3116 3.40901 40.4763 3.40901C39.9696 3.40901 39.3922 3.48603 38.9966 3.61249L38.7426 3.68425L38.589 3.73041L38.8369 2.13434C39.7278 1.85757 40.3128 1.75102 40.9683 1.75102C42.5027 1.75102 43.3142 2.4739 43.3142 3.83784C43.3142 4.19228 43.2834 4.45505 43.1681 5.24991L42.7924 7.77125L42.7368 8.22655L42.6872 8.58931L42.655 8.8372L42.6351 9.02798ZM47.6143 1.85254C47.5611 1.84182 47.5027 1.83438 47.4349 1.83438C46.8499 1.83438 46.5153 2.14506 45.9675 2.99287L46.1261 1.91117H44.5138L43.4234 9.02798H45.2092C45.8498 4.67821 46.0182 3.92711 46.8709 3.92711C46.9267 3.92711 46.9229 3.92229 46.996 3.93455C47.157 3.07711 47.3752 2.44677 47.6751 1.87157L47.6143 1.85254ZM52.4649 9.02798H50.7782L50.8662 8.3307C50.3754 8.88161 49.8711 9.12206 49.2194 9.12206C47.9156 9.12206 47.0619 7.94716 47.0619 6.16774C47.0619 3.80065 48.389 1.80222 49.9654 1.80222C50.6581 1.80222 51.1823 2.10218 51.6755 2.77627L52.0634 0.276373H53.8207L52.4649 9.02798ZM49.8339 7.35249C50.6667 7.35249 51.2491 6.36355 51.2491 4.95476C51.2491 4.05029 50.9172 3.55779 50.3011 3.55779C49.4933 3.55779 48.9194 4.55088 48.9194 5.95114C48.9194 6.88318 49.2279 7.35249 49.8339 7.35249ZM53.4995 7.99595C53.4995 7.37721 53.9794 6.87662 54.5655 6.87662C55.154 6.87662 55.6288 7.37721 55.6288 7.99595C55.6288 8.61556 55.154 9.11637 54.5655 9.11637C53.9794 9.11637 53.4995 8.61556 53.4995 7.99595ZM54.5655 8.8512C55.0127 8.8512 55.3783 8.467 55.3783 7.99595C55.3783 7.52752 55.0127 7.14661 54.5655 7.14661C54.1192 7.14661 53.7525 7.52752 53.7525 7.99595C53.7525 8.467 54.1192 8.8512 54.5655 8.8512ZM54.4202 8.4867H54.2023V7.50039H54.5977C54.6782 7.50039 54.7685 7.5052 54.8381 7.55487C54.9136 7.61022 54.9571 7.70343 54.9571 7.80276C54.9571 7.91171 54.895 8.01411 54.7959 8.0513L54.967 8.4867H54.7241L54.5804 8.10009H54.4202V8.4867ZM54.4202 7.9325H54.5419C54.5865 7.9325 54.6388 7.93403 54.6758 7.91171C54.713 7.88787 54.7291 7.83995 54.7291 7.79772C54.7291 7.76053 54.7079 7.7159 54.6758 7.69861C54.6434 7.6763 54.5777 7.68111 54.5395 7.68111H54.4202V7.9325Z" fill="#D9222A"/>
</g>
<defs>
<clipPath id="clip0">
<rect width="56.6667" height="20" fill="white"/>
</clipPath>
</defs>
</svg>
