<svg width="47" height="21" viewBox="0 0 47 21" fill="none" xmlns="http://www.w3.org/2000/svg">
<path fill-rule="evenodd" clip-rule="evenodd" d="M35.0004 16.6487C35.1982 16.1189 35.9478 14.0705 35.9478 14.0705C35.9342 14.0963 36.1434 13.538 36.264 13.1925L36.4234 13.988C36.4234 13.988 36.8804 16.1869 36.9759 16.6487H35.0004ZM37.9348 10.7068H36.0962C35.5261 10.7068 35.1003 10.8693 34.8478 11.4726L31.3135 19.9197H33.8139C33.8139 19.9197 34.2223 18.7819 34.3149 18.5335C34.5881 18.5335 37.016 18.5396 37.3618 18.5396C37.4355 18.8612 37.651 19.9197 37.651 19.9197H39.8622L37.9348 10.7068ZM31.8305 10.9254C31.3609 10.7392 30.6186 10.5373 29.6976 10.5373C27.3415 10.5373 25.6898 11.7886 25.6736 13.5798C25.6593 14.9044 26.8569 15.6443 27.7576 16.0851C28.6866 16.5356 28.9971 16.825 28.9944 17.229C28.9857 17.8463 28.2521 18.1283 27.5678 18.1283C26.6164 18.1283 26.11 17.9895 25.33 17.6459L25.0203 17.4986L24.6863 19.5631C25.2449 19.8192 26.2725 20.0414 27.3403 20.0527C29.8393 20.0527 31.4649 18.8147 31.4852 16.905C31.4946 15.8537 30.8587 15.0567 29.4845 14.3988C28.6545 13.9725 28.1416 13.6882 28.1503 13.2558C28.1503 12.8733 28.5793 12.4632 29.5126 12.4632C30.2924 12.4514 30.8529 12.6291 31.2951 12.8177L31.5055 12.9234L31.8305 10.9254ZM20.8154 19.9166L22.3044 10.6986H24.6844L23.1954 19.9166H20.8154ZM18.8187 10.7063L16.4887 16.9892L16.2402 15.712C15.6601 14.1478 14.4042 12.5058 12.9411 11.8392L15.0725 19.9074L17.5925 19.9062L21.3387 10.7063H18.8187ZM3.2881 8.4748H1.77035L0.0197449 0.581367L1.69733 0.301367L2.89519 6.47781L5.94641 0.382852H7.55823L3.2881 8.4748ZM9.0518 3.65266C8.49108 3.65266 7.96783 4.09587 7.72023 5.01881H9.96216C10.0035 4.14278 9.72859 3.65266 9.0518 3.65266ZM11.1815 5.8946H7.56234C7.46296 6.99163 7.97315 7.47038 8.83733 7.47038C9.56175 7.47038 10.1984 7.20175 10.8839 6.76966L10.8786 7.86765C10.2066 8.28765 9.42949 8.55629 8.51888 8.55629C6.94237 8.55629 5.90144 7.65753 6.21432 5.62548C6.49601 3.79194 7.76448 2.6833 9.23532 2.6833C10.9291 2.6833 11.4918 3.95636 11.2459 5.55536C11.228 5.67239 11.1948 5.81239 11.1815 5.8946ZM13.5415 5.20548L13.0431 8.43974H11.6424L12.5102 2.79985H13.7013L13.7023 3.93218C14.1769 3.2786 14.8211 2.72973 15.7043 2.6833L15.7121 4.07266C14.8276 4.13094 14.0318 4.59881 13.5415 5.20548ZM17.4194 1.85418C16.9525 1.85418 16.6295 1.52703 16.701 1.06061C16.7748 0.581367 17.2008 0.242852 17.6682 0.242852C18.123 0.242852 18.4444 0.581367 18.3709 1.06061C18.2991 1.52703 17.8754 1.85418 17.4194 1.85418ZM15.6935 8.43974L16.5622 2.79985H17.963L17.0949 8.43974H15.6935ZM21.8431 1.2584C21.3643 1.2584 21.0749 1.46828 20.9985 1.97121L20.8703 2.79985H21.9446L21.9436 3.94403H20.6948L20.0023 8.43974H18.6129L19.3049 3.94403H18.4877L18.6639 2.79985H19.4812L19.6297 1.83097C19.8224 0.581367 20.6882 0.1147 21.844 0.1147C22.0899 0.1147 22.2725 0.137671 22.4098 0.161367L22.4193 1.30506C22.2836 1.28185 22.0766 1.2584 21.8431 1.2584ZM23.5845 1.85418C23.1176 1.85418 22.7945 1.52703 22.8661 1.06061C22.9398 0.581367 23.3654 0.242852 23.8328 0.242852C24.2879 0.242852 24.6092 0.581367 24.5369 1.06061C24.4646 1.52703 24.04 1.85418 23.5845 1.85418ZM21.8585 8.43974L22.7273 2.79985H24.1273L23.26 8.43974H21.8585ZM27.4295 3.65266C26.8693 3.65266 26.3453 4.09587 26.0999 5.01881H28.3413C28.382 4.14278 28.1073 3.65266 27.4295 3.65266ZM29.5614 5.8946H25.9405C25.8424 6.99163 26.3514 7.47038 27.2146 7.47038C27.9392 7.47038 28.5766 7.20175 29.2616 6.76966L29.2563 7.86765C28.5839 8.28765 27.8077 8.55629 26.8966 8.55629C25.3196 8.55629 24.2806 7.65753 24.5925 5.62548C24.874 3.79194 26.1427 2.6833 27.614 2.6833C29.308 2.6833 29.8705 3.95636 29.6243 5.55536C29.6067 5.67239 29.5723 5.81239 29.5614 5.8946ZM34.1785 4.10748C33.8543 3.94403 33.5977 3.86254 33.1185 3.86254C32.3832 3.86254 31.7543 4.45784 31.5633 5.6956C31.3947 6.79335 31.7833 7.30669 32.4011 7.30669C32.9154 7.30669 33.3591 7.00396 33.8038 6.53705L34.1785 4.10748ZM33.7097 8.43974L33.7136 7.65753C33.2438 8.13629 32.6298 8.55629 31.8481 8.55629C30.6674 8.55629 29.8574 7.68026 30.1509 5.77708C30.4733 3.67539 31.7734 2.74206 33.0803 2.74206C33.6178 2.74206 34.0356 2.83539 34.3563 2.95145L34.7748 0.231246L36.2099 0.00927734L34.9138 8.43974H33.7097ZM39.9875 5.01688C39.6344 5.01688 39.28 5.25601 38.9649 5.57397L38.6672 7.511C38.8764 7.59104 39.0203 7.6261 39.3211 7.6261C39.9933 7.6261 40.4626 7.21891 40.613 6.24641C40.7404 5.42309 40.4652 5.01688 39.9875 5.01688ZM39.2052 8.49294C38.5422 8.49294 38.0013 8.38631 37.4984 8.20907L38.4187 2.22171L39.506 2.05415L39.1088 4.64524C39.4253 4.36233 39.8675 4.07943 40.4065 4.07943C41.3089 4.07943 41.9119 4.75138 41.6921 6.18427C41.4506 7.75836 40.479 8.49294 39.2052 8.49294ZM44.1928 8.66969C43.6509 9.72199 43.1141 10.0491 42.2906 10.0491C42.1056 10.0491 42.0019 10.0312 41.909 10.0044L41.902 9.12935C42.0374 9.16489 42.1844 9.19173 42.3875 9.19173C42.6977 9.19173 42.9666 9.0498 43.1475 8.73981L43.2872 8.45691L42.3885 4.24748L43.5165 4.10579L44.0375 7.14831L45.4518 4.16793H46.5046L44.1928 8.66969Z" fill="#00579F"/>
</svg>
