<svg width="11" height="7" viewBox="0 0 11 7" fill="none" xmlns="http://www.w3.org/2000/svg">
<path d="M10.7523 5.34119C11.1162 5.75668 11.0743 6.38846 10.6588 6.75231C10.2433 7.11616 9.61154 7.0743 9.24769 6.65881L10.7523 5.34119ZM5.62146 1L4.90383 0.303577C5.09834 0.103137 5.36782 -0.00681782 5.64704 0.00032711C5.92626 0.00747252 6.18976 0.131067 6.37377 0.341194L5.62146 1ZM1.71763 6.45863C1.33301 6.85496 0.699915 6.86446 0.303577 6.47983C-0.0927597 6.09521 -0.102255 5.46212 0.282368 5.06578L1.71763 6.45863ZM9.24769 6.65881L4.86915 1.65881L6.37377 0.341194L10.7523 5.34119L9.24769 6.65881ZM6.33909 1.69642L1.71763 6.45863L0.282368 5.06578L4.90383 0.303577L6.33909 1.69642Z" fill="black"/>
</svg>
