<svg width="25" height="21" viewBox="0 0 25 21" fill="none" xmlns="http://www.w3.org/2000/svg">
<path d="M7.79938 20.2219C17.1583 20.2219 22.2764 12.4682 22.2764 5.74494C22.2764 5.52465 22.2719 5.30548 22.2617 5.08716C23.2551 4.36903 24.1188 3.47262 24.8 2.45268C23.8884 2.85772 22.9073 3.13048 21.8781 3.25346C22.9285 2.62361 23.7352 1.62679 24.1157 0.438732C23.1324 1.02176 22.0437 1.44542 20.8849 1.67389C19.9561 0.684975 18.6338 0.0664062 17.1707 0.0664062C14.3605 0.0664062 12.0817 2.34521 12.0817 5.15401C12.0817 5.55342 12.1265 5.94154 12.2134 6.31415C7.98498 6.10175 4.23521 4.07681 1.72596 0.998349C1.28847 1.75005 1.03659 2.62389 1.03659 3.55555C1.03659 5.32071 1.93497 6.87912 3.30101 7.79104C2.46638 7.76537 1.68224 7.53577 0.996536 7.15442C0.995407 7.17557 0.995407 7.19701 0.995407 7.21929C0.995407 9.68369 2.74957 11.7411 5.07745 12.2073C4.65012 12.3238 4.20051 12.3864 3.73623 12.3864C3.40847 12.3864 3.08974 12.3537 2.77975 12.2948C3.42737 14.316 5.30592 15.7873 7.53311 15.8288C5.79136 17.1937 3.59746 18.0069 1.21373 18.0069C0.803321 18.0069 0.398276 17.9835 0 17.9364C2.25172 19.3794 4.92542 20.2219 7.79938 20.2219Z" fill="#707070"/>
</svg>
