<svg width="160" height="53" viewBox="0 0 160 53" fill="none" xmlns="http://www.w3.org/2000/svg">
<path d="M0.333496 12.6477C0.333496 8.71899 0.333496 6.75463 0.97533 5.2051C1.83111 3.13907 3.47256 1.49761 5.5386 0.641834C7.08812 0 9.05249 0 12.9812 0H146.686C150.615 0 152.579 0 154.128 0.641834C156.194 1.49761 157.836 3.13907 158.692 5.2051C159.333 6.75463 159.333 8.71899 159.333 12.6477V40.3523C159.333 44.281 159.333 46.2454 158.692 47.7949C157.836 49.8609 156.194 51.5024 154.128 52.3582C152.579 53 150.615 53 146.686 53H12.9812C9.05249 53 7.08812 53 5.5386 52.3582C3.47256 51.5024 1.83111 49.8609 0.97533 47.7949C0.333496 46.2454 0.333496 44.281 0.333496 40.3523V12.6477Z" fill="#0C0D10"/>
<path d="M108.355 25.4415V28.4771H106.453V30.4678H108.355V37.2319C108.355 39.5416 109.4 40.4655 112.029 40.4655C112.491 40.4655 112.931 40.4105 113.316 40.3445V38.3757C112.986 38.4087 112.777 38.4307 112.414 38.4307C111.237 38.4307 110.72 37.8808 110.72 36.627V30.4678H113.316V28.4771H110.72V25.4415H108.355Z" fill="white"/>
<path d="M120.012 40.6304C123.51 40.6304 125.654 38.2878 125.654 34.4053C125.654 30.5448 123.499 28.1911 120.012 28.1911C116.514 28.1911 114.359 30.5448 114.359 34.4053C114.359 38.2878 116.503 40.6304 120.012 40.6304ZM120.012 38.5297C117.955 38.5297 116.8 37.0229 116.8 34.4053C116.8 31.8096 117.955 30.2918 120.012 30.2918C122.058 30.2918 123.224 31.8096 123.224 34.4053C123.224 37.0119 122.058 38.5297 120.012 38.5297Z" fill="white"/>
<path d="M127.489 40.3995H129.854V33.3274C129.854 31.6446 131.119 30.5118 132.912 30.5118C133.329 30.5118 134.033 30.5888 134.231 30.6548V28.3231C133.978 28.2571 133.527 28.2241 133.175 28.2241C131.614 28.2241 130.283 29.082 129.942 30.2588H129.766V28.4221H127.489V40.3995Z" fill="white"/>
<path d="M140.103 30.2038C141.852 30.2038 142.995 31.4247 143.05 33.3054H137.001C137.133 31.4357 138.354 30.2038 140.103 30.2038ZM143.039 37.1659C142.599 38.1008 141.621 38.6177 140.191 38.6177C138.299 38.6177 137.078 37.2869 137.001 35.1862V35.0542H145.459V34.2293C145.459 30.4678 143.446 28.1911 140.114 28.1911C136.737 28.1911 134.593 30.6218 134.593 34.4493C134.593 38.2768 136.693 40.6304 140.125 40.6304C142.863 40.6304 144.777 39.3106 145.316 37.1659H143.039Z" fill="white"/>
<path d="M92.848 35.9764C93.0304 38.9175 95.4814 40.7985 99.1293 40.7985C103.028 40.7985 105.467 38.8263 105.467 35.68C105.467 33.2063 104.077 31.8383 100.702 31.0518L98.8899 30.6072C96.7467 30.1056 95.8804 29.433 95.8804 28.2588C95.8804 26.7769 97.2255 25.8079 99.2433 25.8079C101.158 25.8079 102.481 26.7541 102.72 28.2702H105.205C105.057 25.5001 102.618 23.5508 99.2775 23.5508C95.6866 23.5508 93.2926 25.5001 93.2926 28.4298C93.2926 30.8466 94.6492 32.2829 97.6245 32.9783L99.7448 33.4913C101.922 34.0043 102.88 34.7566 102.88 36.0106C102.88 37.4698 101.375 38.5299 99.3231 38.5299C97.1229 38.5299 95.5954 37.5382 95.3788 35.9764H92.848Z" fill="white"/>
<path d="M68.3523 28.2241C66.7245 28.2241 65.3167 29.038 64.5908 30.4018H64.4148V28.4221H62.1381V44.3809H64.5028V38.5847H64.6898C65.3167 39.8496 66.6695 40.5975 68.3743 40.5975C71.3989 40.5975 73.3237 38.2108 73.3237 34.4053C73.3237 30.5998 71.3989 28.2241 68.3523 28.2241ZM67.6814 38.4747C65.7017 38.4747 64.4588 36.9129 64.4588 34.4163C64.4588 31.9086 65.7017 30.3468 67.6924 30.3468C69.6941 30.3468 70.893 31.8756 70.893 34.4053C70.893 36.9459 69.6941 38.4747 67.6814 38.4747Z" fill="white"/>
<path d="M81.5981 28.2241C79.9703 28.2241 78.5625 29.038 77.8366 30.4018H77.6606V28.4221H75.3839V44.3809H77.7486V38.5847H77.9356C78.5625 39.8496 79.9153 40.5975 81.6201 40.5975C84.6447 40.5975 86.5694 38.2108 86.5694 34.4053C86.5694 30.5998 84.6447 28.2241 81.5981 28.2241ZM80.9272 38.4747C78.9474 38.4747 77.7046 36.9129 77.7046 34.4163C77.7046 31.9086 78.9474 30.3468 80.9382 30.3468C82.9399 30.3468 84.1387 31.8756 84.1387 34.4053C84.1387 36.9459 82.9399 38.4747 80.9272 38.4747Z" fill="white"/>
<path d="M57.8955 40.3995H60.6086L54.6694 23.9498H51.9221L45.9829 40.3995H48.6048L50.1209 36.0334H56.3907L57.8955 40.3995ZM53.1646 26.9365H53.3584L55.741 33.8903H50.7707L53.1646 26.9365Z" fill="white"/>
<path d="M47.5712 11.5418V19.4773H50.4364C52.801 19.4773 54.1704 18.02 54.1704 15.4848C54.1704 12.9881 52.79 11.5418 50.4364 11.5418H47.5712ZM48.8031 12.6637H50.2989C51.9432 12.6637 52.9165 13.7085 52.9165 15.5013C52.9165 17.3215 51.9597 18.3554 50.2989 18.3554H48.8031V12.6637Z" fill="white"/>
<path d="M58.3641 19.5927C60.1129 19.5927 61.1852 18.4214 61.1852 16.4802C61.1852 14.5499 60.1074 13.3731 58.3641 13.3731C56.6153 13.3731 55.5375 14.5499 55.5375 16.4802C55.5375 18.4214 56.6098 19.5927 58.3641 19.5927ZM58.3641 18.5424C57.3357 18.5424 56.7583 17.789 56.7583 16.4802C56.7583 15.1823 57.3357 14.4234 58.3641 14.4234C59.387 14.4234 59.9699 15.1823 59.9699 16.4802C59.9699 17.7835 59.387 18.5424 58.3641 18.5424Z" fill="white"/>
<path d="M70.3173 13.4886H69.135L68.0681 18.0584H67.9746L66.7428 13.4886H65.6099L64.3781 18.0584H64.2901L63.2178 13.4886H62.0189L63.6687 19.4773H64.884L66.1159 15.0668H66.2094L67.4467 19.4773H68.673L70.3173 13.4886Z" fill="white"/>
<path d="M71.6789 19.4773H72.8613V15.9742C72.8613 15.0393 73.4167 14.4564 74.2911 14.4564C75.1655 14.4564 75.5834 14.9349 75.5834 15.8972V19.4773H76.7657V15.6003C76.7657 14.176 76.0288 13.3731 74.6925 13.3731C73.7906 13.3731 73.1967 13.7745 72.9053 14.4399H72.8173V13.4886H71.6789V19.4773Z" fill="white"/>
<path d="M78.6278 19.4773H79.8101V11.1514H78.6278V19.4773Z" fill="white"/>
<path d="M84.2569 19.5927C86.0056 19.5927 87.078 18.4214 87.078 16.4802C87.078 14.5499 86.0001 13.3731 84.2569 13.3731C82.5081 13.3731 81.4302 14.5499 81.4302 16.4802C81.4302 18.4214 82.5026 19.5927 84.2569 19.5927ZM84.2569 18.5424C83.2285 18.5424 82.6511 17.789 82.6511 16.4802C82.6511 15.1823 83.2285 14.4234 84.2569 14.4234C85.2797 14.4234 85.8626 15.1823 85.8626 16.4802C85.8626 17.7835 85.2797 18.5424 84.2569 18.5424Z" fill="white"/>
<path d="M90.6008 18.5809C89.9574 18.5809 89.49 18.2674 89.49 17.7285C89.49 17.2006 89.8639 16.9201 90.6888 16.8651L92.1516 16.7716V17.2721C92.1516 18.0145 91.4917 18.5809 90.6008 18.5809ZM90.2983 19.5762C91.0847 19.5762 91.7392 19.2353 92.0966 18.6359H92.1901V19.4773H93.3284V15.3858C93.3284 14.121 92.4816 13.3731 90.9803 13.3731C89.6219 13.3731 88.6541 14.033 88.5331 15.0613H89.6769C89.8089 14.6379 90.2654 14.3959 90.9253 14.3959C91.7337 14.3959 92.1516 14.7534 92.1516 15.3858V15.9027L90.5293 15.9962C89.105 16.0842 88.3021 16.7056 88.3021 17.7835C88.3021 18.8778 89.1435 19.5762 90.2983 19.5762Z" fill="white"/>
<path d="M97.3407 19.5762C98.1656 19.5762 98.864 19.1858 99.2215 18.5314H99.3149V19.4773H100.448V11.1514H99.2655V14.4399H99.1775C98.853 13.78 98.1601 13.3896 97.3407 13.3896C95.8284 13.3896 94.855 14.5884 94.855 16.4802C94.855 18.3774 95.8174 19.5762 97.3407 19.5762ZM97.6762 14.4509C98.666 14.4509 99.2875 15.2373 99.2875 16.4857C99.2875 17.7395 98.6715 18.5149 97.6762 18.5149C96.6753 18.5149 96.0759 17.7505 96.0759 16.4802C96.0759 15.2208 96.6808 14.4509 97.6762 14.4509Z" fill="white"/>
<path d="M108.115 19.5927C109.864 19.5927 110.936 18.4214 110.936 16.4802C110.936 14.5499 109.858 13.3731 108.115 13.3731C106.366 13.3731 105.288 14.5499 105.288 16.4802C105.288 18.4214 106.361 19.5927 108.115 19.5927ZM108.115 18.5424C107.087 18.5424 106.509 17.789 106.509 16.4802C106.509 15.1823 107.087 14.4234 108.115 14.4234C109.138 14.4234 109.721 15.1823 109.721 16.4802C109.721 17.7835 109.138 18.5424 108.115 18.5424Z" fill="white"/>
<path d="M112.501 19.4773H113.683V15.9742C113.683 15.0393 114.239 14.4564 115.113 14.4564C115.988 14.4564 116.406 14.9349 116.406 15.8972V19.4773H117.588V15.6003C117.588 14.176 116.851 13.3731 115.515 13.3731C114.613 13.3731 114.019 13.7745 113.727 14.4399H113.639V13.4886H112.501V19.4773Z" fill="white"/>
<path d="M123.033 11.9983V13.5161H122.082V14.5114H123.033V17.8935C123.033 19.0483 123.556 19.5103 124.87 19.5103C125.101 19.5103 125.321 19.4828 125.513 19.4498V18.4654C125.348 18.4819 125.244 18.4929 125.063 18.4929C124.474 18.4929 124.216 18.2179 124.216 17.591V14.5114H125.513V13.5161H124.216V11.9983H123.033Z" fill="white"/>
<path d="M127.101 19.4773H128.283V15.9797C128.283 15.0723 128.822 14.4619 129.79 14.4619C130.626 14.4619 131.071 14.9459 131.071 15.9027V19.4773H132.253V15.6113C132.253 14.187 131.467 13.3786 130.191 13.3786C129.289 13.3786 128.657 13.78 128.365 14.4509H128.272V11.1514H127.101V19.4773Z" fill="white"/>
<path d="M136.519 14.3794C137.393 14.3794 137.965 14.9899 137.992 15.9302H134.968C135.034 14.9954 135.644 14.3794 136.519 14.3794ZM137.987 17.8605C137.767 18.3279 137.277 18.5864 136.563 18.5864C135.617 18.5864 135.006 17.921 134.968 16.8706V16.8046H139.197V16.3922C139.197 14.5114 138.19 13.3731 136.524 13.3731C134.836 13.3731 133.763 14.5884 133.763 16.5022C133.763 18.4159 134.814 19.5927 136.53 19.5927C137.899 19.5927 138.856 18.9328 139.125 17.8605H137.987Z" fill="white"/>
<path d="M33.1524 26.8987C33.1811 24.6713 34.3773 22.5638 36.2749 21.3972C35.0778 19.6875 33.0727 18.6035 30.9866 18.5383C28.7616 18.3047 26.6045 19.8697 25.4707 19.8697C24.315 19.8697 22.5693 18.5614 20.6895 18.6001C18.2392 18.6793 15.9549 20.0724 14.7628 22.2145C12.2003 26.6512 14.1117 33.1716 16.5664 36.7579C17.7946 38.5139 19.2299 40.4755 21.108 40.406C22.9459 40.3298 23.6323 39.234 25.8507 39.234C28.0486 39.234 28.6926 40.406 30.6088 40.3618C32.5809 40.3297 33.8234 38.5979 35.0085 36.8251C35.8909 35.5739 36.5699 34.1909 37.0204 32.7276C34.7028 31.7473 33.1551 29.415 33.1524 26.8987Z" fill="white"/>
<path d="M29.533 16.1798C30.6082 14.8889 31.138 13.2298 31.0097 11.5547C29.3669 11.7272 27.8494 12.5124 26.7597 13.7537C25.694 14.9665 25.1394 16.5964 25.2442 18.2075C26.8876 18.2244 28.5032 17.4606 29.533 16.1798Z" fill="white"/>
<path d="M5.5386 52.3582L5.07764 53.471L5.5386 52.3582ZM0.97533 47.7949L-0.137525 48.2559L0.97533 47.7949ZM158.692 47.7949L159.805 48.2559L158.692 47.7949ZM154.128 52.3582L153.667 51.2453L154.128 52.3582ZM154.128 0.641834L153.667 1.75469L154.128 0.641834ZM158.692 5.2051L159.805 4.74414L158.692 5.2051ZM5.5386 0.641834L5.99956 1.75469L5.5386 0.641834ZM12.9812 1.20455H146.686V-1.20455H12.9812V1.20455ZM158.129 12.6477V40.3523H160.538V12.6477H158.129ZM146.686 51.7955H12.9812V54.2045H146.686V51.7955ZM1.53804 40.3523V12.6477H-0.871049V40.3523H1.53804ZM12.9812 51.7955C11.0004 51.7955 9.57506 51.7948 8.4497 51.718C7.33516 51.642 6.60308 51.4953 5.99956 51.2453L5.07764 53.471C6.02363 53.8629 7.04851 54.0371 8.28571 54.1215C9.5121 54.2052 11.0333 54.2045 12.9812 54.2045V51.7955ZM-0.871049 40.3523C-0.871049 42.3002 -0.871702 43.8214 -0.788026 45.0478C-0.703612 46.285 -0.52937 47.3099 -0.137525 48.2559L2.08818 47.3339C1.8382 46.7304 1.69152 45.9983 1.61548 44.8838C1.53869 43.7584 1.53804 42.3331 1.53804 40.3523H-0.871049ZM5.99956 51.2453C4.22867 50.5118 2.82171 49.1048 2.08818 47.3339L-0.137525 48.2559C0.840508 50.617 2.71646 52.493 5.07764 53.471L5.99956 51.2453ZM158.129 40.3523C158.129 42.3331 158.128 43.7584 158.052 44.8838C157.975 45.9983 157.829 46.7304 157.579 47.3339L159.805 48.2559C160.196 47.3099 160.371 46.285 160.455 45.0478C160.539 43.8214 160.538 42.3002 160.538 40.3523H158.129ZM146.686 54.2045C148.634 54.2045 150.155 54.2052 151.381 54.1215C152.618 54.0371 153.643 53.8629 154.589 53.471L153.667 51.2453C153.064 51.4953 152.332 51.642 151.217 51.718C150.092 51.7948 148.667 51.7955 146.686 51.7955V54.2045ZM157.579 47.3339C156.845 49.1048 155.438 50.5118 153.667 51.2453L154.589 53.471C156.951 52.493 158.826 50.617 159.805 48.2559L157.579 47.3339ZM146.686 1.20455C148.667 1.20455 150.092 1.2052 151.217 1.28198C152.332 1.35803 153.064 1.5047 153.667 1.75469L154.589 -0.471021C153.643 -0.862866 152.618 -1.03711 151.381 -1.12152C150.155 -1.2052 148.634 -1.20455 146.686 -1.20455V1.20455ZM160.538 12.6477C160.538 10.6998 160.539 9.1786 160.455 7.95222C160.371 6.71501 160.196 5.69014 159.805 4.74414L157.579 5.66606C157.829 6.26959 157.975 7.00166 158.052 8.11621C158.128 9.24157 158.129 10.6669 158.129 12.6477H160.538ZM153.667 1.75469C155.438 2.48821 156.845 3.89518 157.579 5.66606L159.805 4.74414C158.826 2.38296 156.951 0.507012 154.589 -0.471021L153.667 1.75469ZM12.9812 -1.20455C11.0333 -1.20455 9.5121 -1.2052 8.28571 -1.12152C7.04851 -1.03711 6.02363 -0.862866 5.07764 -0.471021L5.99956 1.75469C6.60308 1.5047 7.33516 1.35803 8.4497 1.28198C9.57506 1.2052 11.0004 1.20455 12.9812 1.20455V-1.20455ZM1.53804 12.6477C1.53804 10.6669 1.53869 9.24157 1.61548 8.11621C1.69152 7.00166 1.8382 6.26959 2.08818 5.66606L-0.137525 4.74414C-0.52937 5.69014 -0.703612 6.71501 -0.788026 7.95222C-0.871702 9.1786 -0.871049 10.6998 -0.871049 12.6477H1.53804ZM5.07764 -0.471021C2.71646 0.507012 0.840508 2.38296 -0.137525 4.74414L2.08818 5.66606C2.82171 3.89518 4.22867 2.48821 5.99956 1.75469L5.07764 -0.471021Z" fill="#A6A6A6"/>
</svg>
