<svg width="45" height="12" viewBox="0 0 45 12" fill="none" xmlns="http://www.w3.org/2000/svg">
<path fill-rule="evenodd" clip-rule="evenodd" d="M42.4043 0.952148L44.9302 5.97042L39.618 10.9916L42.4043 0.952148Z" fill="#008940"/>
<path fill-rule="evenodd" clip-rule="evenodd" d="M40.6533 0.952148L43.1767 5.97042L37.8674 10.9916L40.6533 0.952148Z" fill="#F36717"/>
<path fill-rule="evenodd" clip-rule="evenodd" d="M0.134918 9.16621L2.65446 0.0878906H6.68246C7.94201 0.0878906 8.78304 0.287152 9.21159 0.698175C9.63558 1.10445 9.71745 1.77133 9.46096 2.70401C9.30679 3.25596 9.07212 3.71783 8.7469 4.08312C8.42724 4.44906 8.00481 4.73868 7.48334 4.951C7.92412 5.05797 8.20507 5.26764 8.33259 5.58501C8.45764 5.90028 8.44349 6.36206 8.28996 6.96687L7.98454 8.23499L7.98235 8.26886C7.89518 8.62447 7.92147 8.81461 8.06487 8.83031L7.97249 9.16621H5.24694C5.25625 8.95344 5.27313 8.76166 5.2913 8.60047C5.3112 8.43608 5.33621 8.31002 5.35976 8.22276L5.61442 7.31555C5.74194 6.84437 5.75033 6.51532 5.63094 6.326C5.51128 6.13122 5.24265 6.0362 4.8183 6.0362H3.67358L2.79996 9.16621H0.134918ZM4.23959 3.99093H5.46719C5.89711 3.99093 6.2133 3.92868 6.40945 3.80181C6.6067 3.6742 6.75193 3.45778 6.83791 3.14506C6.92645 2.82714 6.90491 2.60524 6.77758 2.47946C6.65015 2.35076 6.34684 2.28851 5.86973 2.28851H4.71287L4.23959 3.99093Z" fill="#21317D"/>
<path fill-rule="evenodd" clip-rule="evenodd" d="M16.9414 2.46631L15.0839 9.16547H12.8269L13.1023 8.18441C12.7061 8.57417 12.2998 8.87037 11.89 9.06022C11.4822 9.25236 11.0543 9.34747 10.6028 9.34747C10.2291 9.34747 9.9094 9.27975 9.65045 9.14548C9.38985 9.01112 9.19497 8.80756 9.06435 8.53884C8.94752 8.30344 8.89795 8.01363 8.91685 7.66641C8.93693 7.32521 9.0586 6.74943 9.28278 5.94281L10.2448 2.46631H12.7143L11.7532 5.92611C11.612 6.43361 11.5791 6.78923 11.6478 6.98338C11.7192 7.17807 11.9098 7.27894 12.2184 7.27894C12.5287 7.27894 12.7906 7.16584 13.0072 6.93628C13.2258 6.70827 13.3952 6.36844 13.5228 5.91607L14.475 2.46631H16.9414Z" fill="#21317D"/>
<path fill-rule="evenodd" clip-rule="evenodd" d="M16.044 9.16572L18.5631 0.0874023H22.0247C22.7889 0.0874023 23.3815 0.133498 23.8023 0.232261C24.2231 0.326185 24.5526 0.481359 24.7978 0.697687C25.1052 0.981379 25.294 1.33252 25.3715 1.75523C25.4447 2.17621 25.4014 2.66765 25.2417 3.2447C24.9591 4.25935 24.4653 5.03667 23.7607 5.58078C23.0542 6.11786 22.1792 6.38676 21.1356 6.38676H19.516L18.7458 9.16572H16.044ZM20.1301 4.16935H21.0003C21.5642 4.16935 21.9584 4.10007 22.1909 3.96525C22.4153 3.82998 22.575 3.58745 22.6718 3.2447C22.7693 2.89675 22.7444 2.65304 22.5974 2.51722C22.4552 2.38195 22.0937 2.31276 21.5151 2.31276H20.6463C20.6463 2.31276 20.1301 4.16935 20.1301 4.16935Z" fill="#21317D"/>
<path fill-rule="evenodd" clip-rule="evenodd" d="M28.1469 9.16607L28.172 8.52968C27.7734 8.82825 27.3693 9.0537 26.9647 9.19372C26.5602 9.33776 26.1315 9.41087 25.6717 9.41087C24.9703 9.41087 24.4834 9.2201 24.201 8.85234C23.9234 8.48294 23.8769 7.95545 24.0672 7.27954C24.2496 6.61394 24.5726 6.12423 25.0395 5.80951C25.5035 5.49213 26.2788 5.26595 27.3669 5.12082C27.5046 5.09763 27.6885 5.07937 27.9204 5.05163C28.7252 4.95934 29.1769 4.74484 29.2735 4.39433C29.3245 4.20356 29.294 4.06245 29.1745 3.97564C29.0593 3.88619 28.8449 3.84238 28.536 3.84238C28.2789 3.84238 28.0721 3.89504 27.9033 4.00586C27.7346 4.11712 27.608 4.28106 27.5218 4.50989H25.1151C25.3328 3.75603 25.7771 3.18645 26.443 2.805C27.1079 2.41817 27.9833 2.23096 29.0695 2.23096C29.5795 2.23096 30.0359 2.27915 30.4397 2.38229C30.8447 2.48106 31.1399 2.62345 31.3321 2.79469C31.568 3.00746 31.7077 3.25144 31.7483 3.52017C31.793 3.78962 31.7435 4.17362 31.6033 4.67739L30.5675 8.41248C30.5339 8.53497 30.5269 8.64387 30.5455 8.74345C30.5675 8.83811 30.6083 8.91934 30.6809 8.97731L30.626 9.16607H28.1469ZM28.7459 6.17526C28.4844 6.28032 28.1436 6.38109 27.7205 6.49254C27.0551 6.67035 26.6797 6.90785 26.5999 7.20314C26.5436 7.39281 26.5666 7.53858 26.6593 7.6493C26.7509 7.75418 26.9083 7.8073 27.1319 7.8073C27.5424 7.8073 27.8718 7.70434 28.1175 7.49979C28.3618 7.29186 28.5463 6.96673 28.6748 6.51883C28.6979 6.42289 28.7174 6.35361 28.7297 6.30259C28.7297 6.30259 28.7459 6.17526 28.7459 6.17526Z" fill="#21317D"/>
<path fill-rule="evenodd" clip-rule="evenodd" d="M30.6446 11.8062L31.1924 9.82258H31.8985C32.1354 9.82258 32.3213 9.77594 32.4521 9.69123C32.5856 9.60296 32.6767 9.45391 32.7293 9.25373C32.7557 9.16547 32.7719 9.07182 32.7823 8.96739C32.7897 8.85558 32.7897 8.73792 32.7823 8.60164L32.4056 2.46631H34.905L34.8664 6.5311L37.0479 2.46631H39.3729L35.5151 9.13315C35.0772 9.87844 34.759 10.391 34.5569 10.67C34.3568 10.9457 34.1675 11.1593 33.9852 11.3045C33.7463 11.5057 33.4814 11.6483 33.1947 11.7311C32.9068 11.8161 32.4684 11.8587 31.8805 11.8587C31.7107 11.8587 31.5161 11.8543 31.3052 11.8439C31.0958 11.8356 30.8727 11.8239 30.6446 11.8062Z" fill="#21317D"/>
</svg>
