<svg width="54" height="22" viewBox="0 0 54 22" fill="none" xmlns="http://www.w3.org/2000/svg">
<path fill-rule="evenodd" clip-rule="evenodd" d="M26.5197 0.333984C26.549 0.462394 28.6987 5.87781 29.7674 8.44742C29.9167 8.80635 29.8766 9.05753 29.636 9.32668C29.3666 9.62812 29.1238 9.95431 28.8465 10.2478C28.1818 10.9513 27.6859 11.7761 27.1521 12.5744C27.1112 12.6356 27.063 12.692 27.0182 12.7506C27.0076 12.6747 26.9877 12.5988 26.9876 12.5229C26.9858 10.6996 26.9857 8.87634 26.9863 7.05305C26.9866 6.37003 27.0219 6.54573 26.2281 6.51813H24.2633C23.6365 6.51813 23.6252 6.45078 23.6244 6.87811C23.6215 8.54623 23.6231 10.2143 23.6231 11.8825C23.6231 12.6777 23.6238 13.473 23.6218 14.2683C23.6216 14.3441 23.6312 14.42 23.6218 14.4958C23.5737 14.4668 22.7082 13.6433 22.7082 13.6433C22.6266 13.5523 22.4314 13.5997 22.3697 13.704C22.3534 13.7316 22.3678 13.2454 22.3648 13.1096C22.3617 12.9727 22.3229 12.9145 22.1559 12.9432C21.3432 13.0829 20.5227 13.1977 19.6985 13.1246C19.1551 13.0764 18.6075 13.0135 18.1457 12.6326C17.8102 12.3558 17.61 12.0314 17.5973 11.611C17.5852 11.2075 17.5575 10.7851 17.6547 10.4012C17.9303 9.31262 18.5983 8.94784 19.663 8.84526C20.3396 8.78007 21.0082 8.91317 21.6713 9.04485C21.7167 9.05387 21.7623 9.06119 21.8083 9.06636C22.2242 9.11307 22.2483 9.07912 22.2505 8.61904C22.2529 8.11474 22.2478 7.61039 22.2526 7.10612C22.2541 6.95062 22.2236 6.86222 22.0406 6.83785C21.608 6.78026 21.1814 6.65651 20.7481 6.62978C19.9277 6.57915 19.1034 6.58657 18.2835 6.63357C17.482 6.67951 16.555 6.99965 15.8989 7.49365C15.0238 8.15257 14.7399 8.63854 14.4267 9.24233C14.1507 9.77444 14.0909 11.0843 14.1474 11.9082C14.1706 12.2465 14.2761 12.5821 14.3685 12.912C14.6683 13.9822 15.4141 14.6165 16.4115 15.0078C17.5801 15.4663 18.8002 15.5111 20.0277 15.4547C20.1979 15.4468 20.3049 15.441 20.4082 15.5718C20.7301 15.9795 21.0581 16.3824 21.3767 16.7926C21.5625 17.0319 21.536 17.1034 21.2203 17.2018C20.5692 17.4047 19.9138 17.5938 19.263 17.798C16.8393 18.5586 14.4173 19.325 11.9934 20.0851C10.6561 20.5045 9.31313 20.9062 7.98108 21.3417C7.79272 21.4033 7.72341 21.3526 7.673 21.2231C7.51394 20.8146 7.3736 20.3987 7.22139 19.9874C6.64625 18.4334 6.0732 16.8785 5.48849 15.3281C5.40716 15.1124 5.50192 15.0981 5.66174 15.0982C6.39525 15.0985 7.12879 15.1011 7.86228 15.0967C8.33559 15.0939 8.22432 14.2708 8.22432 14.2708V13.1158C8.22432 12.8328 8.29794 12.7712 8.52581 12.7647C9.1779 12.7462 9.82981 12.716 10.4812 12.6796C10.9614 12.6527 11.4331 12.5398 11.848 12.3074C12.7166 11.8208 13.1626 11.051 13.2014 10.0493C13.2253 9.43181 13.212 8.82903 12.9301 8.24714C12.5799 7.52413 11.9777 7.15604 11.2514 6.98088C10.8283 6.87885 9.94008 6.85075 9.94008 6.85075C9.94008 6.85075 6.96745 6.84941 5.48111 6.85075C4.89839 6.85127 4.96831 6.79452 4.96766 7.3876C4.96558 9.30787 4.96781 11.2282 4.96766 13.1484C4.96766 13.2648 4.97394 13.3818 4.96418 13.4973C4.95909 13.5577 4.9254 13.6156 4.90462 13.6746C4.88583 13.6222 4.86756 13.5697 4.84818 13.5175C4.48985 12.553 0.449249 1.76996 0.449249 1.73115L26.5197 0.333984ZM23.2682 4.07331C23.1693 5.12163 24.1328 6.06721 25.1966 6.04788C26.2821 6.02815 27.1062 5.21195 27.1096 4.11589C27.1129 3.06625 26.235 2.12131 25.2385 2.10185C24.2052 2.08167 23.2701 3.01729 23.2682 4.07331ZM37.4062 10.8575C37.3816 10.8177 37.3507 10.7828 37.3137 10.7526C37.2767 10.7225 37.2347 10.699 37.1881 10.6822C37.1413 10.6654 37.0925 10.657 37.0413 10.657C36.9479 10.657 36.8685 10.6752 36.8032 10.7114C36.738 10.7478 36.6851 10.7965 36.6447 10.8575C36.604 10.9187 36.5746 10.9882 36.556 11.0662C36.5375 11.1442 36.5283 11.2248 36.5283 11.308C36.5283 11.3878 36.5375 11.4653 36.556 11.5406C36.5746 11.6159 36.604 11.6837 36.6447 11.7438C36.6851 11.8041 36.738 11.8524 36.8032 11.8886C36.8685 11.925 36.9479 11.9432 37.0413 11.9432C37.1682 11.9432 37.2674 11.9042 37.3388 11.8262C37.4102 11.7483 37.4539 11.6456 37.4698 11.5179H37.8717C37.8611 11.6366 37.8338 11.7438 37.7897 11.8396C37.7456 11.9352 37.6875 12.0167 37.6152 12.084C37.5429 12.1513 37.4582 12.2027 37.3612 12.2381C37.2643 12.2735 37.1577 12.2912 37.0413 12.2912C36.8967 12.2912 36.7666 12.266 36.6513 12.2155C36.5358 12.165 36.4384 12.0955 36.359 12.0069C36.2798 11.9184 36.2189 11.8142 36.1766 11.6946C36.1342 11.575 36.1131 11.4462 36.1131 11.308C36.1131 11.1664 36.1342 11.0348 36.1766 10.9135C36.2189 10.7921 36.2798 10.6863 36.359 10.5959C36.4384 10.5055 36.5358 10.4347 36.6513 10.3832C36.7666 10.3319 36.8967 10.3062 37.0413 10.3062C37.1454 10.3062 37.2437 10.3212 37.3362 10.3514C37.4287 10.3815 37.5116 10.4254 37.5847 10.4829C37.658 10.5405 37.7183 10.6117 37.766 10.6968C37.8135 10.7819 37.8435 10.8793 37.8558 10.9892H37.4539C37.4468 10.9413 37.4309 10.8975 37.4062 10.8575ZM38.2657 10.9135C38.3081 10.7921 38.3688 10.6863 38.4482 10.5959C38.5275 10.5055 38.625 10.4347 38.7405 10.3832C38.8558 10.3319 38.9859 10.3062 39.1305 10.3062C39.2768 10.3062 39.4072 10.3319 39.5219 10.3832C39.6365 10.4347 39.7335 10.5055 39.8127 10.5959C39.8921 10.6863 39.9529 10.7921 39.9953 10.9135C40.0375 11.0348 40.0587 11.1664 40.0587 11.308C40.0587 11.4462 40.0375 11.575 39.9953 11.6946C39.9529 11.8142 39.8921 11.9184 39.8127 12.0069C39.7335 12.0955 39.6365 12.165 39.5219 12.2155C39.4072 12.266 39.2768 12.2912 39.1305 12.2912C38.9859 12.2912 38.8558 12.266 38.7405 12.2155C38.625 12.165 38.5275 12.0955 38.4482 12.0069C38.3688 11.9184 38.3081 11.8142 38.2657 11.6946C38.2234 11.575 38.2023 11.4462 38.2023 11.308C38.2023 11.1664 38.2234 11.0348 38.2657 10.9135ZM38.6452 11.5406C38.6637 11.6159 38.6932 11.6837 38.7338 11.7438C38.7743 11.8041 38.8272 11.8524 38.8924 11.8886C38.9577 11.925 39.037 11.9432 39.1305 11.9432C39.2239 11.9432 39.3033 11.925 39.3685 11.8886C39.4338 11.8524 39.4866 11.8041 39.5272 11.7438C39.5677 11.6837 39.5973 11.6159 39.6158 11.5406C39.6343 11.4653 39.6436 11.3878 39.6436 11.308C39.6436 11.2248 39.6343 11.1442 39.6158 11.0662C39.5973 10.9882 39.5677 10.9187 39.5272 10.8575C39.4866 10.7965 39.4338 10.7478 39.3685 10.7114C39.3033 10.6752 39.2239 10.657 39.1305 10.657C39.037 10.657 38.9577 10.6752 38.8924 10.7114C38.8272 10.7478 38.7743 10.7965 38.7338 10.8575C38.6932 10.9187 38.6637 10.9882 38.6452 11.0662C38.6267 11.1442 38.6175 11.2248 38.6175 11.308C38.6175 11.3878 38.6267 11.4653 38.6452 11.5406ZM41.0558 10.3514L41.4973 11.6561H41.5027L41.9206 10.3514H42.5049V12.2487H42.1162V10.9041H42.111L41.6481 12.2487H41.3282L40.8653 10.9174H40.8601V12.2487H40.4713V10.3514H41.0558ZM43.851 10.3514C43.9691 10.3514 44.0696 10.3687 44.1525 10.4031C44.2353 10.4377 44.3028 10.4834 44.3548 10.54C44.4067 10.5967 44.4448 10.6615 44.4685 10.734C44.4923 10.8066 44.5042 10.8819 44.5042 10.9599C44.5042 11.0361 44.4923 11.111 44.4685 11.1844C44.4448 11.258 44.4067 11.3232 44.3548 11.3797C44.3028 11.4364 44.2353 11.4821 44.1525 11.5166C44.0696 11.5512 43.9691 11.5684 43.851 11.5684H43.4146V12.2487H42.9994V10.3514H43.851ZM43.7373 11.2443C43.785 11.2443 43.8308 11.2408 43.8748 11.2336C43.9188 11.2265 43.9577 11.2128 43.9911 11.1925C44.0246 11.1721 44.0515 11.1433 44.0718 11.1061C44.092 11.0689 44.1023 11.0201 44.1023 10.9599C44.1023 10.8997 44.092 10.851 44.0718 10.8138C44.0515 10.7766 44.0246 10.7478 43.9911 10.7274C43.9577 10.7071 43.9188 10.6934 43.8748 10.6863C43.8308 10.6791 43.785 10.6756 43.7373 10.6756H43.4146V11.2443H43.7373ZM45.308 10.3514V11.898H46.2283V12.2487H44.8928V10.3514H45.308ZM47.0059 10.3514V12.2487H46.5907V10.3514H47.0059ZM48.4419 10.3514L49.1479 12.2487H48.7168L48.5741 11.8262H47.868L47.7199 12.2487H47.3021L48.0161 10.3514H48.4419ZM48.4657 11.5153L48.2276 10.819H48.2224L47.9764 11.5153H48.4657ZM49.854 10.3514L50.642 11.6242H50.6474V10.3514H51.0361V12.2487H50.6209L49.8354 10.9785H49.8302V12.2487H49.4414V10.3514H49.854ZM51.3825 10.7022V10.3514H52.9296V10.7022H52.3636V12.2487H51.9484V10.7022H51.3825ZM38.5651 3.35104H36.1131H35.9115V3.55358V9.26539V9.46794H36.1131H38.5651C39.0279 9.46794 39.4342 9.3892 39.7831 9.22982C40.131 9.07089 40.4233 8.85129 40.6578 8.57195C40.8908 8.2945 41.0642 7.96603 41.1782 7.58825C41.2903 7.21657 41.346 6.81285 41.346 6.37751C41.346 5.87997 41.2773 5.44297 41.1384 5.06706C40.9988 4.68905 40.8033 4.37124 40.5515 4.11525C40.3 3.85948 40.0014 3.66731 39.658 3.53966C39.3194 3.4138 38.9547 3.35104 38.5651 3.35104V3.35104ZM37.5645 8.00685V4.81212H38.2547C38.5376 4.81212 38.7704 4.85168 38.9531 4.92845C39.1312 5.00318 39.2714 5.10858 39.3771 5.24555C39.4863 5.38728 39.5658 5.55984 39.6151 5.76509C39.6669 5.98052 39.6931 6.22468 39.6931 6.49751C39.6931 6.79008 39.6567 7.03343 39.5859 7.22778C39.5157 7.42068 39.4243 7.57328 39.3127 7.68775C39.2018 7.80144 39.0772 7.88159 38.9374 7.92991C38.7888 7.98124 38.6358 8.00685 38.4776 8.00685H37.5645ZM49.6964 7.76396C49.6434 7.66157 49.6156 7.53066 49.6156 7.36941L49.6156 7.16686H49.4141H48.204H48.0055L48.0024 7.3663C47.9966 7.75031 48.0672 8.0874 48.2163 8.37497C48.3631 8.65856 48.5628 8.89346 48.8138 9.07715C49.0599 9.25771 49.3431 9.38981 49.6617 9.47337C49.9734 9.55511 50.2941 9.59598 50.6241 9.59598C51.0306 9.59598 51.3913 9.54799 51.7063 9.451C52.0246 9.35307 52.2946 9.21455 52.5148 9.03456C52.7376 8.85249 52.907 8.63399 53.021 8.38088C53.1338 8.13014 53.1902 7.85901 53.1902 7.56945C53.1902 7.21211 53.1126 6.91086 52.9537 6.66964C52.8037 6.44215 52.6239 6.25843 52.4148 6.12022C52.2124 5.98684 52.0076 5.88904 51.8 5.82726C51.6064 5.76982 51.4536 5.72975 51.3405 5.70696C50.9885 5.6169 50.7041 5.54315 50.4888 5.48574C50.2784 5.4297 50.1169 5.37479 50.0052 5.32213C49.9128 5.27872 49.8589 5.23746 49.8404 5.20725C49.8194 5.17306 49.8067 5.11872 49.8067 5.04157C49.8067 4.95662 49.8231 4.8942 49.8525 4.8499C49.8901 4.79313 49.9378 4.7462 49.9971 4.70779C50.0582 4.66812 50.1269 4.64011 50.2043 4.62363C50.2911 4.60531 50.3782 4.59612 50.465 4.59612C50.6057 4.59612 50.7343 4.60818 50.8507 4.632C50.9574 4.65399 51.0501 4.69036 51.1295 4.74074C51.2009 4.78613 51.2583 4.84858 51.3033 4.93094C51.3487 5.01446 51.3773 5.12742 51.3863 5.27037L51.3983 5.46011H51.5875H52.7976H52.9991V5.25757C52.9991 4.89515 52.9295 4.58095 52.7878 4.31728C52.6481 4.05769 52.4586 3.84327 52.2206 3.6757C51.9871 3.51157 51.7213 3.39331 51.4241 3.32076C51.1347 3.25028 50.8335 3.21508 50.5207 3.21508C50.2481 3.21508 49.9757 3.25213 49.7038 3.32602C49.4263 3.40154 49.1764 3.51836 48.9549 3.67646C48.7296 3.83734 48.5467 4.03906 48.4078 4.28004C48.2645 4.52809 48.1935 4.81789 48.1935 5.14548C48.1935 5.43878 48.2497 5.69415 48.3647 5.90933C48.4763 6.11838 48.6237 6.29398 48.8059 6.43426C48.9808 6.56914 49.1784 6.67861 49.3981 6.76274C49.6074 6.84312 49.8222 6.91093 50.0421 6.96596C50.2448 7.02367 50.4518 7.07772 50.6574 7.12661C50.8503 7.17254 51.0213 7.22557 51.1702 7.28552C51.3062 7.34017 51.4125 7.40629 51.4906 7.48265C51.5485 7.53929 51.577 7.61189 51.577 7.71345C51.577 7.81343 51.5538 7.88743 51.5096 7.94302C51.4546 8.01215 51.386 8.0663 51.3018 8.10655C51.2087 8.15118 51.1088 8.1813 51.0012 8.197C50.8835 8.21431 50.7738 8.22285 50.6719 8.22285C50.5244 8.22285 50.3821 8.20497 50.2446 8.16929C50.1143 8.13545 50.0032 8.08463 49.9102 8.01719C49.8219 7.95324 49.751 7.86966 49.6965 7.7641L49.6964 7.76396ZM43.7837 7.76396C43.7307 7.66157 43.7029 7.53066 43.7029 7.36941V7.16686H43.5014H42.2913H42.0928L42.0897 7.3663C42.0839 7.75031 42.1545 8.0874 42.3036 8.37497C42.4504 8.65856 42.6501 8.89346 42.9011 9.07715C43.1472 9.25771 43.4304 9.38981 43.749 9.47337C44.0606 9.55511 44.3814 9.59598 44.7114 9.59598C45.1179 9.59598 45.4786 9.54799 45.7936 9.451C46.1119 9.35307 46.3819 9.21455 46.6021 9.03456C46.8249 8.85249 46.9943 8.63399 47.1083 8.38088C47.2211 8.13014 47.2775 7.85901 47.2775 7.56945C47.2775 7.21211 47.1999 6.91086 47.041 6.66964C46.891 6.44215 46.7112 6.25843 46.5021 6.12022C46.2997 5.98684 46.0949 5.88904 45.8873 5.82726C45.6937 5.76982 45.5409 5.72975 45.4278 5.70696C45.0758 5.6169 44.7914 5.54315 44.5761 5.48574C44.3657 5.4297 44.2042 5.37479 44.0925 5.32213C44.0001 5.27872 43.9462 5.23746 43.9277 5.20725C43.9067 5.17306 43.894 5.11872 43.894 5.04157C43.894 4.95662 43.9103 4.8942 43.9398 4.8499C43.9774 4.79313 44.0251 4.7462 44.0844 4.70779C44.1455 4.66812 44.2142 4.64011 44.2916 4.62363C44.3784 4.60531 44.4655 4.59612 44.5523 4.59612C44.693 4.59612 44.8216 4.60818 44.938 4.632C45.0447 4.65399 45.1374 4.69036 45.2168 4.74074C45.2882 4.78613 45.3456 4.84858 45.3906 4.93094C45.436 5.01446 45.4646 5.12742 45.4736 5.27037L45.4856 5.46011H45.6748H46.8849H47.0864V5.25757C47.0864 4.89515 47.0168 4.58095 46.8751 4.31728C46.7354 4.05769 46.5459 3.84327 46.3079 3.6757C46.0744 3.51157 45.8086 3.39331 45.5114 3.32076C45.222 3.25028 44.9208 3.21508 44.608 3.21508C44.3354 3.21508 44.063 3.25213 43.7911 3.32602C43.5136 3.40154 43.2637 3.51836 43.0422 3.67646C42.8169 3.83734 42.634 4.03906 42.4951 4.28004C42.3518 4.52809 42.2808 4.81789 42.2808 5.14548C42.2808 5.43878 42.337 5.69415 42.452 5.90933C42.5636 6.11838 42.711 6.29398 42.8932 6.43426C43.0681 6.56914 43.2656 6.67861 43.4854 6.76274C43.6947 6.84312 43.9095 6.91093 44.1294 6.96596C44.3321 7.02367 44.5391 7.07772 44.7447 7.12661C44.9376 7.17254 45.1086 7.22557 45.2575 7.28552C45.3935 7.34017 45.4998 7.40629 45.5779 7.48265C45.6358 7.53929 45.6643 7.61189 45.6643 7.71345C45.6643 7.81343 45.6411 7.88743 45.5969 7.94302C45.5419 8.01215 45.4733 8.0663 45.3891 8.10655C45.296 8.15118 45.1961 8.1813 45.0885 8.197C44.9708 8.21431 44.8611 8.22285 44.7592 8.22285C44.6117 8.22285 44.4694 8.20497 44.3319 8.16929C44.2016 8.13545 44.0905 8.08463 43.9975 8.01719C43.9092 7.95324 43.8383 7.86966 43.7838 7.7641L43.7837 7.76396ZM8.2264 8.9453C8.22541 8.80493 8.28202 8.73719 8.4302 8.73713C8.9077 8.73691 9.32356 8.73742 9.78633 8.73713C10.385 8.73675 10.5694 9.46228 10.5354 9.86579C10.4976 10.3138 10.1847 10.809 9.69772 10.8111C9.32356 10.8128 8.87881 10.8109 8.45053 10.8111C8.27397 10.8112 8.21857 10.7377 8.22432 10.5691C8.23353 10.2988 8.2283 9.21594 8.2264 8.9453ZM29.3462 14.6419C29.3773 14.5647 29.3905 14.5127 29.417 14.4688C29.7631 13.8948 30.1075 13.3198 30.46 12.7498C30.6313 12.4727 30.8193 12.206 30.9985 11.9338C31.0548 11.8483 31.0789 11.6886 31.1702 11.9297C31.3794 12.4822 31.6194 13.0229 31.8432 13.5698C31.897 13.7013 31.9752 13.8173 31.7338 13.8895C30.9728 14.1171 30.2215 14.3773 29.4663 14.6244C29.4482 14.6303 29.4282 14.6302 29.3462 14.6419ZM25.1728 15.9694C25.1244 15.9406 25.0777 15.9129 25.0311 15.8852C25.0808 15.8633 25.1309 15.8233 25.1803 15.8245C25.23 15.8257 25.279 15.8677 25.3282 15.8919C25.2787 15.9166 25.2292 15.9413 25.1728 15.9694Z" fill="#16656D"/>
</svg>
