<?xml version="1.0" encoding="utf-8"?>
<!-- Generator: Adobe Illustrator 26.2.0, SVG Export Plug-In . SVG Version: 6.00 Build 0)  -->
<svg version="1.1" xmlns="http://www.w3.org/2000/svg" xmlns:xlink="http://www.w3.org/1999/xlink" x="0px" y="0px"
	 viewBox="0 0 482.42 103.11" style="enable-background:new 0 0 482.42 103.11;" xml:space="preserve">
<style type="text/css">
	.st0{fill:#FFFFFF;}
	.st1{fill:none;}
	.st2{fill:#00B0F0;}
	.st3{fill:#012A72;}
	.st4{fill:#2B8B4B;}
	.st5{fill:#D9782D;}
</style>
<g id="Layer_6">
</g>
<g id="Layer_1">
	<g id="Layer_3">
	</g>
</g>
<g id="Layer_4">
</g>
<g id="Layer_2">
</g>
<g id="Layer_5">
	<rect class="st0" width="482.42" height="103.11"/>
	<g>
		<g id="XMLID_00000150814520550907606640000001179541632666505647_">
			<g id="XMLID_00000044892348973717660750000014872117783886060161_">
				<path id="XMLID_00000008127514695127137450000005057731622038385803_" class="st1" d="M42.09,43.95h-5.15v10.03l5.15-0.01
					c1.05,0,1.9-0.85,1.9-1.9v-1.22v-3.79v-1.22C43.99,44.8,43.14,43.95,42.09,43.95z"/>
				<path id="XMLID_00000106825604414389112240000012001733362764470433_" class="st2" d="M206.6,39.86
					c-1.65-4.73-6.15-8.12-11.44-8.12h-0.11c-3.44,0-6.54,1.43-8.74,3.73c-2.21-2.3-5.31-3.73-8.74-3.73h-0.11
					c-3.02,0-5.78,1.11-7.9,2.94v-0.93c-0.07-0.93-0.83-1.66-1.78-1.66h-8.11c-0.99,0-1.79,0.8-1.79,1.8v44.05
					c0,0.99,0.8,1.8,1.79,1.8h8.11c0.91,0,1.65-0.68,1.77-1.55l-0.01-31.62c0-0.11,0.01-0.21,0.02-0.32
					c0.13-1.41,1.16-2.57,2.8-2.72h0.3h0.85h0.34c0.68,0.06,1.26,0.3,1.71,0.66c0.71,0.56,1.1,1.43,1.1,2.37l0.03,31.47
					c0,0.99,0.8,1.8,1.79,1.8h8.11c0.96,0,1.74-0.76,1.78-1.71l-0.01-31.59c0-1.04,0.48-1.98,1.32-2.53
					c0.41-0.27,0.91-0.45,1.49-0.5h0.3h0.85h0.34c1.75,0.15,2.81,1.48,2.81,3.03l0.03,31.42c0,0.99,0.8,1.8,1.79,1.8h8.11
					c0.99,0,1.79-0.8,1.79-1.8c0,0,0-31.29,0-33.8C207.21,41.85,206.95,40.87,206.6,39.86z"/>
				<path id="XMLID_00000001633294906411365080000004937173285170189232_" class="st2" d="M151.69,32.21h-4.64v-7.52h0l0-0.01
					c0-0.91-0.73-1.65-1.64-1.65c-0.11,0-0.21,0.01-0.31,0.03c-5.15,1.41-4.11,8.54-13.5,9.14h-0.21h-0.7
					c-0.13,0-0.27,0.02-0.39,0.05h-0.01l0.01,0c-0.8,0.18-1.4,0.89-1.4,1.75v8.11c0,0.99,0.8,1.8,1.79,1.8h4.89l0,34.39
					c0,0.98,0.79,1.78,1.77,1.78h8.02c0.98,0,1.77-0.79,1.77-1.78l0-34.39h4.54c0.99,0,1.79-0.8,1.79-1.8V34
					C153.48,33.01,152.67,32.21,151.69,32.21z"/>
				<path id="XMLID_00000090988207931165494720000012643576995261464219_" class="st3" d="M122.5,32.21h-8.11
					c-0.99,0-1.79,0.8-1.79,1.79v16.77c-0.02,1.04-0.86,1.87-1.9,1.87h-3.4c-1.05,0-1.9-0.85-1.9-1.9L105.37,34
					c0-0.99-0.8-1.79-1.79-1.79h-8.11c-0.99,0-1.79,0.8-1.79,1.79v18.38c0,6.98,4.98,11.96,11.97,11.96c0,0,5.24,0,5.4,0.03
					c0.95,0.11,1.68,0.9,1.68,1.88c0,0.97-0.72,1.75-1.66,1.87c-0.04,0.01-0.09,0.02-0.14,0.02l-11.86,0.04
					c-0.99,0-1.79,0.8-1.79,1.79v8.11c0,0.99,0.8,1.79,1.79,1.79h13.26c6.99,0,11.97-4.98,11.97-11.96V34
					C124.3,33.01,123.49,32.21,122.5,32.21z"/>
				<path id="XMLID_00000131363266576712795680000016375989880648618134_" class="st3" d="M44.7,32.21H26.97
					c-0.97,0-1.76,0.79-1.76,1.76v7.95c0,0.02,0,0.03,0,0.03c0,0.05,0,0.09,0,0.13v25.49v10.48c0,0.98,0.73,1.77,1.64,1.8h0.15h8.11
					c0.99,0,1.79-0.8,1.79-1.79l0.03-12.33h7.76c6.5,0,11.02-4.5,11.02-11.02V43.25C55.72,36.73,51.2,32.21,44.7,32.21z
					 M43.99,47.07v3.79v1.22c0,1.05-0.85,1.9-1.9,1.9l-5.15,0.01V43.95h5.15c1.05,0,1.9,0.85,1.9,1.9V47.07z"/>
				<path id="XMLID_00000030473819888169065730000012464798062419104447_" class="st3" d="M76.35,32.25H65.1
					c-0.99,0-1.8,0.76-1.8,1.68v3.15l0.01,0.06c0,0.02-0.01,0.04-0.01,0.04v4.35c0,0.99,0.86,1.78,1.91,1.78l10.72,0
					c0.84,0.13,1.52,0.75,1.61,1.71v1.05c-0.1,0.92-0.76,1.59-1.57,1.67h-5.3c-7.06,0-12.09,4.69-12.09,11.27v9.19v0.25
					c0,6.55,4.32,11.2,11.33,11.2h14.71c2.64,0,4.78-2,4.78-4.46V44.43C89.39,36.97,85.55,32.25,76.35,32.25z M77.64,66.11v1.27
					c0,0.1-0.01,0.2-0.03,0.3c-0.02,0.09-0.04,0.18-0.07,0.26v0c-0.25,0.71-0.96,1.22-1.81,1.22h-3.38c-1.06,0-1.91-0.8-1.91-1.78
					v-1.53l0-0.06l0-4.07l0-0.01v-0.45v-0.82l0-0.01c0-0.98,0.86-1.78,1.91-1.78h3.38c1.06,0,1.91,0.8,1.91,1.78V66.11z"/>
			</g>
		</g>
		<g id="XMLID_00000172420821251265358980000013975516673247211140_">
			<g id="XMLID_00000000919352425247292050000002192080436420126630_">
				<path id="XMLID_00000137096446368252840870000002615408135616504492_" d="M416.53,79.45h-9.28l12.91-46.61h9.28L416.53,79.45z"
					/>
				<g id="XMLID_00000112602908713270876010000015629959052074291082_">
					<path id="XMLID_00000072964229359201788580000004694934963090271108_" d="M411.71,34.32c-0.64-0.89-1.64-1.33-2.98-1.33h-51.02
						l-2.53,9.13h9.28v-0.01h37.13l-2.7,9.76h-37.13l0-0.02h-9.28l-7.7,27.81h9.29l5.17-18.66h41.74c1.3,0,2.53-0.44,3.68-1.33
						c1.15-0.89,1.91-1.99,2.27-3.3l5.17-18.67C412.48,36.33,412.35,35.21,411.71,34.32z"/>
				</g>
				<path id="XMLID_00000103952745198897146680000015066757685455842202_" d="M339.37,76.54c-0.51,1.85-2.19,3.12-4.11,3.12h-47.88
					c-1.3,0-2.27-0.44-2.91-1.33c-0.64-0.89-0.77-1.99-0.41-3.3l11.68-42.05h9.29l-10.43,37.56h37.15l10.43-37.56h9.29L339.37,76.54
					z"/>
			</g>
			<g id="XMLID_00000091010112782910685450000003930993028260879507_">
				<polygon id="XMLID_00000076596895651256018530000010436994771443401875_" class="st4" points="445.46,32.93 457.21,56.3 
					432.52,79.65 				"/>
				<polygon id="XMLID_00000025430413767114514060000009030513098892991414_" class="st5" points="437.23,32.93 448.97,56.3 
					424.26,79.65 				"/>
			</g>
		</g>
		<polygon class="st2" points="221.96,69.61 220.74,74.46 272.15,74.46 273.37,69.61 		"/>
		<polygon class="st3" points="220.74,74.46 219.52,79.32 270.94,79.32 272.15,74.46 		"/>
		<g>
			<path d="M223.94,59.32l4.71-22.16c0.35-1.63,0.94-2.98,1.78-4.06c0.84-1.08,1.86-1.88,3.07-2.42c1.2-0.54,2.52-0.8,3.95-0.8
				c0.93,0,1.8,0.07,2.6,0.21c0.8,0.14,1.39,0.27,1.77,0.38l-2.12,4.92c-0.23-0.08-0.51-0.15-0.86-0.21
				c-0.34-0.05-0.67-0.08-0.98-0.08c-0.79,0-1.36,0.17-1.73,0.52c-0.37,0.35-0.61,0.82-0.74,1.43l-4.73,22.27H223.94z M239.16,38.23
				l-1.05,4.94h-13.57l1.05-4.94H239.16z"/>
			<path d="M246.98,59.72c-2.22,0-4.02-0.46-5.42-1.37c-1.39-0.91-2.35-2.18-2.85-3.82c-0.51-1.63-0.53-3.53-0.07-5.69
				c0.46-2.17,1.29-4.07,2.5-5.71c1.2-1.63,2.7-2.91,4.48-3.82s3.78-1.37,6-1.37c2.22,0,4.02,0.46,5.41,1.37
				c1.39,0.91,2.35,2.18,2.86,3.82c0.51,1.63,0.53,3.54,0.07,5.71c-0.46,2.16-1.29,4.06-2.49,5.69c-1.2,1.63-2.7,2.91-4.48,3.82
				C251.2,59.27,249.2,59.72,246.98,59.72z M248.1,54.65c0.81,0,1.54-0.25,2.2-0.74c0.66-0.49,1.24-1.18,1.72-2.06
				c0.48-0.88,0.85-1.9,1.09-3.05c0.25-1.17,0.32-2.2,0.21-3.08c-0.11-0.88-0.39-1.57-0.85-2.06c-0.45-0.49-1.08-0.74-1.89-0.74
				c-0.83,0-1.59,0.25-2.27,0.74c-0.68,0.49-1.26,1.18-1.74,2.06c-0.48,0.88-0.85,1.9-1.1,3.08c-0.25,1.15-0.31,2.17-0.2,3.05
				c0.11,0.88,0.4,1.57,0.87,2.06C246.62,54.41,247.27,54.65,248.1,54.65z"/>
			<path d="M261.17,59.32l4.48-21.09h6.52l-0.82,3.84h0.22c0.68-1.39,1.53-2.43,2.54-3.11c1.02-0.68,2.1-1.02,3.25-1.02
				c0.31,0,0.63,0.02,0.95,0.06c0.32,0.04,0.61,0.1,0.88,0.19l-1.24,5.84c-0.3-0.11-0.7-0.2-1.2-0.26c-0.5-0.06-0.96-0.1-1.36-0.1
				c-0.8,0-1.55,0.18-2.26,0.53c-0.71,0.35-1.31,0.84-1.81,1.47c-0.5,0.63-0.83,1.36-1.01,2.2l-2.43,11.45H261.17z"/>
		</g>
	</g>
</g>
</svg>
