<svg width="26" height="25" viewBox="0 0 26 25" fill="none" xmlns="http://www.w3.org/2000/svg">
<path d="M13.2 2.27333C16.5067 2.27333 16.92 2.27333 18.2634 2.37667C21.6734 2.48 23.2234 4.13333 23.3267 7.44C23.43 8.78333 23.43 9.09333 23.43 12.4C23.43 15.7067 23.43 16.12 23.3267 17.36C23.2234 20.6667 21.57 22.32 18.2634 22.4233C16.92 22.5267 16.61 22.5267 13.2 22.5267C9.89338 22.5267 9.48005 22.5267 8.24005 22.4233C4.83005 22.32 3.28005 20.6667 3.17672 17.36C3.07338 16.0167 3.07338 15.7067 3.07338 12.4C3.07338 9.09333 3.07338 8.68 3.17672 7.44C3.28005 4.13333 4.93338 2.48 8.24005 2.37667C9.48005 2.27333 9.89338 2.27333 13.2 2.27333ZM13.2 0C9.79005 0 9.37671 0 8.13671 0.103333C3.59005 0.31 1.11005 2.79 0.903382 7.33667C0.800049 8.57667 0.800049 8.99 0.800049 12.4C0.800049 15.81 0.800049 16.2233 0.903382 17.4633C1.11005 22.01 3.59005 24.49 8.13671 24.6967C9.37671 24.8 9.79005 24.8 13.2 24.8C16.61 24.8 17.0234 24.8 18.2634 24.6967C22.81 24.49 25.29 22.01 25.4967 17.4633C25.6 16.2233 25.6 15.81 25.6 12.4C25.6 8.99 25.6 8.57667 25.4967 7.33667C25.29 2.79 22.81 0.31 18.2634 0.103333C17.0234 0 16.61 0 13.2 0ZM13.2 5.99333C9.68672 5.99333 6.79338 8.88667 6.79338 12.4C6.79338 15.9133 9.68672 18.8067 13.2 18.8067C16.7134 18.8067 19.6067 15.9133 19.6067 12.4C19.6067 8.88667 16.7134 5.99333 13.2 5.99333ZM13.2 16.5333C10.9267 16.5333 9.06672 14.6733 9.06672 12.4C9.06672 10.1267 10.9267 8.26667 13.2 8.26667C15.4734 8.26667 17.3334 10.1267 17.3334 12.4C17.3334 14.6733 15.4734 16.5333 13.2 16.5333ZM19.8134 4.34C18.9867 4.34 18.3667 4.96 18.3667 5.78667C18.3667 6.61333 18.9867 7.23333 19.8134 7.23333C20.64 7.23333 21.26 6.61333 21.26 5.78667C21.26 4.96 20.64 4.34 19.8134 4.34Z" fill="#707070"/>
</svg>
