<svg viewBox="0 0 640 196" xmlns="http://www.w3.org/2000/svg"><path d="M62.008 66.59v-4.04C48.53 62.55 34.3 65.43 34.3 81.32c0 8.05 4.17 13.5 11.32 13.5 5.25 0 9.94-3.22 12.9-8.46 3.672-6.45 3.488-12.51 3.488-19.77m18.798 45.43c-1.232 1.1-3.015 1.18-4.405.45-6.186-5.14-7.287-7.53-10.695-12.43C55.48 110.48 48.24 113.6 34.98 113.6c-15.68 0-27.9-9.68-27.9-29.05 0-15.13 8.21-25.43 19.88-30.47 10.12-4.45 24.25-5.24 35.048-6.47V45.2c0-4.44.34-9.68-2.254-13.51-2.284-3.43-6.634-4.85-10.464-4.85-7.1 0-13.45 3.65-14.99 11.2-.32 1.68-1.55 3.33-3.23 3.41l-18.09-1.94c-1.52-.34-3.2-1.58-2.78-3.91C14.37 13.68 34.17 7.08 51.89 7.08c9.07 0 20.92 2.41 28.077 9.28 9.07 8.46 8.206 19.76 8.206 32.06v29.05c0 8.73 3.618 12.56 7.026 17.28 1.205 1.67 1.467 3.69-.05 4.95-3.802 3.17-10.566 9.07-14.29 12.37h-.05m225.57-45.48v-4.04c-13.51 0-27.74 2.88-27.74 18.77 0 8.05 4.19 13.5 11.35 13.5 5.22 0 9.94-3.22 12.9-8.46 3.67-6.45 3.49-12.51 3.49-19.77m18.79 45.43c-1.23 1.1-3.01 1.18-4.4.45-6.19-5.14-7.32-7.53-10.7-12.43-10.22 10.44-17.48 13.56-30.72 13.56-15.71 0-27.9-9.68-27.9-29.05 0-15.13 8.18-25.43 19.87-30.47 10.12-4.45 24.25-5.24 35.06-6.47V45.2c0-4.44.34-9.68-2.29-13.51-2.25-3.43-6.6-4.85-10.46-4.85-7.1 0-13.42 3.65-14.97 11.2-.31 1.68-1.54 3.33-3.25 3.41l-18.06-1.94c-1.52-.34-3.23-1.58-2.78-3.91 4.14-21.92 23.96-28.52 41.69-28.52 9.07 0 20.92 2.41 28.07 9.28 9.08 8.46 8.21 19.76 8.21 32.06v29.05c0 8.73 3.62 12.56 7.03 17.28 1.18 1.67 1.44 3.69-.1 4.95-3.8 3.17-10.57 9.07-14.29 12.37m229.55.21h-18.56c-1.87-.13-3.36-1.62-3.36-3.46V13.13c.16-1.75 1.71-3.12 3.6-3.12h17.27c1.63.1 2.97 1.18 3.33 2.68v14.63h.34c5.22-13.09 12.53-19.33 25.41-19.33 8.36 0 16.51 3.02 21.76 11.28 4.87 7.65 4.87 20.52 4.87 29.78v60.22c-.21 1.68-1.75 3.01-3.59 3.01h-18.69c-1.7-.13-3.12-1.39-3.3-3.01V57.31c0-10.46 1.2-25.77-11.67-25.77-4.54 0-8.7 3.04-10.78 7.65-2.62 5.85-2.96 11.67-2.96 18.12v51.51c0 1.92-1.65 3.46-3.64 3.46M476.23 7.99c27.66 0 42.63 23.76 42.63 53.96 0 29.18-16.54 52.33-42.63 52.33-27.16 0-41.94-23.76-41.94-53.35 0-29.79 14.97-52.94 41.94-52.94m.16 19.54c-13.74 0-14.6 18.71-14.6 30.38 0 11.69-.18 36.65 14.44 36.65 14.45 0 15.13-20.13 15.13-32.4 0-8.08-.34-17.72-2.78-25.38-2.09-6.66-6.26-9.25-12.19-9.25m-344.67 84.75h-18.64c-1.78-.13-3.2-1.46-3.33-3.17V13.45c0-1.92 1.6-3.44 3.59-3.44h17.38c1.81.1 3.25 1.47 3.38 3.2v12.51h.34c4.54-12.09 13.06-17.73 24.54-17.73 11.67 0 18.96 5.64 24.2 17.73 4.51-12.09 14.76-17.73 25.75-17.73 7.81 0 16.36 3.23 21.57 10.46 5.9 8.05 4.7 19.75 4.7 30v60.37c0 1.92-1.6 3.46-3.6 3.46h-18.61c-1.86-.13-3.36-1.62-3.36-3.46v-50.7c0-4.04.37-14.1-.52-17.93-1.39-6.43-5.56-8.23-10.96-8.23-4.51 0-9.23 3.01-11.14 7.83-1.91 4.83-1.73 12.9-1.73 18.33v50.7c0 1.92-1.6 3.46-3.59 3.46h-18.61c-1.89-.13-3.36-1.62-3.36-3.46v-50.7c0-10.67 1.75-26.37-11.49-26.37-13.39 0-12.87 15.31-12.87 26.37v50.7c0 1.92-1.6 3.46-3.59 3.46M355.22 26.9V13.21c0-2.07 1.57-3.46 3.46-3.46h61.27c1.96 0 3.54 1.42 3.54 3.46v11.72c0 1.97-1.68 4.54-4.62 8.6l-31.75 45.33c11.8-.29 24.25 1.47 34.95 7.5 2.41 1.36 3.07 3.35 3.25 5.32v14.6c0 1.99-2.2 4.33-4.51 3.12-18.85-9.88-43.89-10.96-64.73.11-2.12 1.15-4.35-1.16-4.35-3.15V92.49c0-2.23 0-6.03 2.26-9.41l36.78-52.75h-32.01c-1.97 0-3.54-1.39-3.54-3.43m40.06 105.47c-4.46-5.72-29.58-2.7-40.85-1.37-3.43.42-3.96-2.57-.86-4.72 20-14.07 52.82-10.01 56.65-5.29 3.83 4.74-1 37.65-19.79 53.35-2.89 2.41-5.64 1.13-4.36-2.07 4.23-10.54 13.69-34.16 9.21-39.9m-14.55 16.64c5.79-4.3.84-10.69-5.09-8.18-39.22 16.65-81.87 24.67-120.65 24.67-57.49 0-113.15-15.75-158.166-41.94-3.932-2.31-6.87 1.73-3.59 4.69 41.706 37.67 96.846 60.33 158.086 60.33 43.68 0 94.41-13.77 129.41-39.57z"/></svg>
