<svg xmlns="http://www.w3.org/2000/svg" width="2500" height="1198" viewBox="-0.1 0 679.9 325.8"><g fill="#212121"><path d="M17.6 191.4V10c0-6-3.1-10-8.899-10C3.1 0 0 4 0 10v188.701C0 205.1 3.1 208 9.3 208h100.8c6 0 10-2.5 10-8.299 0-5.801-3.899-8.301-10-8.301H17.6zM171.3 17.4h99.8c6 0 10-2.5 10-8.3 0-5.8-3.899-8.3-10-8.3H163c-6.2 0-9.3 2.9-9.3 9.3v188.5c0 6.399 3.1 9.3 9.3 9.3h108.1c6 0 10-2.5 10-8.3s-3.899-8.3-10-8.3h-99.8V17.4zM406.9 25.5l76.2 175.8c1.7 4.1 4.6 7.5 8.5 7.5 4.6 0 12.2-4.801 8.3-13.5l-82-187c-1.7-3.5-4.1-8.3-10.8-8.3-6.6 0-9.1 4.8-10.8 8.3l-82 187c-3.9 8.699 3.7 13.5 8.3 13.5 3.899 0 6.8-3.301 8.5-7.5l75.8-175.8z"/><path d="M380 130.3c0 5.8 3.899 8.3 9.899 8.3h34.4c6 0 10-2.5 10-8.3 0-5.8-3.9-8.3-10-8.3h-34.4c-5.999 0-9.899 2.5-9.899 8.3M558.5 17.4h48.1c13.9 0 26.1.2 36.4 6 11.6 6.4 18.6 18.9 18.6 33.1 0 14.3-7 26.7-18.6 33.1-10.301 5.6-22.601 6-36.4 6h-21.7c-6 0-10 2.5-10 8.3 0 5.8 3.9 8.3 10 8.3h20.7c13.1 0 30 0 45.6-8.3 17.6-9.3 28.6-25.7 28.6-47.4 0-20.9-10.3-37.9-28.4-47.4C635.9.8 618.7.8 605.6.8h-55.3c-6.2 0-9.3 2.9-9.3 9.3v188.7c0 6 3.1 9.9 8.899 9.9 5.601 0 8.7-3.9 8.7-9.9V17.4h-.099z"/></g><path fill="#5EAA02" d="M623.1 283.1l28.9 37.7c2 2.6 3.399 4 5.699 4 3 0 3.9-2.2 3.9-4.4v-44.199c0-2.301-1.3-3.9-3.5-3.9s-3.5 1.6-3.5 3.9l.1 37.1L625.8 275.6c-1.601-2.101-2.8-3.3-5.3-3.3-3.4 0-4.4 2.3-4.4 4.4v44.2c0 2.301 1.2 3.9 3.5 3.9 2.2 0 3.5-1.6 3.5-3.9v-37.8zM527 298.5c0 11.4-7.801 20.701-19.5 20.701-11.601 0-19.5-9.301-19.5-20.701 0-11.399 7.8-20.699 19.5-20.699C519.199 277.8 527 287.1 527 298.5m-46.5 0c0 15.301 11.399 27.301 27 27.301 15.6 0 27-11.9 27-27.301 0-15.399-11.4-27.299-27-27.299-15.6.099-27 12-27 27.299m-85.1 26.3c2.2 0 3.5-1.6 3.5-3.9v-44.699c0-2.301-1.3-3.9-3.5-3.9-2.3 0-3.6 1.6-3.6 3.9V320.9c0 2.301 1.3 3.9 3.6 3.9m-110.6-3.9c0 2.301 1.3 3.9 3.6 3.9 2.2 0 3.5-1.6 3.5-3.9v-41.8h16.4c2.2 0 3.6-1.101 3.6-3.3 0-2.1-1.399-3.301-3.6-3.301h-39.8c-2.2 0-3.601 1.201-3.601 3.301s1.4 3.3 3.601 3.3h16.4v41.8h-.1zm-101.4-22.4c0 11.4-7.8 20.701-19.5 20.701-11.6 0-19.5-9.301-19.5-20.701 0-11.399 7.801-20.699 19.5-20.699 11.7-.001 19.5 9.299 19.5 20.699m-46.5 0c0 15.301 11.4 27.301 27 27.301 15.601 0 27-11.9 27-27.301 0-15.399-11.399-27.299-27-27.299-15.6.099-27 12-27 27.299m-109.2 8.8l-16.101-29.6c-2-3.701-3.6-5.5-6.899-5.5-4 0-4.801 2.699-4.801 4.799v43.9c0 2.301 1.2 3.9 3.5 3.9 2.2 0 3.5-1.6 3.5-3.9l-.1-38.3 16.5 31c1.1 2.101 2.2 3.399 4.2 3.399s3.2-1.299 4.3-3.399l16.5-31-.1 38.3c0 2.301 1.3 3.9 3.5 3.9 2.3 0 3.5-1.6 3.5-3.9V277c0-2.1-.801-4.799-4.801-4.799-3.3 0-4.699 1.799-6.699 5.5L27.7 307.3zM187.6 104c0 5.8 3.9 8.3 9.9 8.3h44.1c6 0 9.9-2.5 9.9-8.3s-3.9-8.3-9.9-8.3h-44.1c-6 0-9.9 2.5-9.9 8.3"/></svg>
