<?xml version="1.0" ?><!DOCTYPE svg  PUBLIC '-//W3C//DTD SVG 1.1//EN'  'http://www.w3.org/Graphics/SVG/1.1/DTD/svg11.dtd'><svg enable-background="new 0 0 1000 1000" height="1000px" id="Layer_1" version="1.1" viewBox="0 0 1000 1000" width="1000px" xml:space="preserve" xmlns="http://www.w3.org/2000/svg" xmlns:xlink="http://www.w3.org/1999/xlink"><g><g><defs><circle cx="500" cy="500" id="SVGID_1_" r="500"/></defs><clipPath id="SVGID_2_"><use overflow="visible" xlink:href="#SVGID_1_"/></clipPath><rect clip-path="url(#SVGID_2_)" fill="#FFFFFF" height="1000" width="2744.442" x="-550.649"/><rect clip-path="url(#SVGID_2_)" fill="#B22234" height="111.111" width="2744.442" x="-550.649"/><rect clip-path="url(#SVGID_2_)" fill="#B22234" height="111.112" width="2744.442" x="-550.649" y="222.222"/><rect clip-path="url(#SVGID_2_)" fill="#B22234" height="111.113" width="2744.442" x="-550.649" y="444.444"/><rect clip-path="url(#SVGID_2_)" fill="#B22234" height="111.111" width="2744.442" x="-550.649" y="666.667"/><rect clip-path="url(#SVGID_2_)" fill="#B22234" height="111.111" width="2744.442" x="-550.649" y="888.889"/><rect clip-path="url(#SVGID_2_)" fill="#3C3B6E" height="555.557" width="1097.775" x="-550.649"/><polygon clip-path="url(#SVGID_2_)" fill="#FFFFFF" points="362.243,44.172 352.254,74.926 319.923,74.926 346.076,93.924      336.092,124.664 362.243,105.666 388.393,124.664 378.407,93.921 404.548,74.926 372.231,74.926    "/><polygon clip-path="url(#SVGID_2_)" fill="#FFFFFF" points="271.236,122.178 261.25,152.919 228.928,152.919 255.08,171.918      245.086,202.659 271.24,183.659 297.387,202.659 287.4,171.918 313.553,152.919 281.223,152.919    "/><polygon clip-path="url(#SVGID_2_)" fill="#FFFFFF" points="453.233,122.178 443.247,152.919 410.928,152.919 437.078,171.917      427.083,202.659 453.238,183.659 479.384,202.659 469.398,171.92 495.553,152.919 463.229,152.919    "/><path clip-path="url(#SVGID_2_)" d="M-365.758,244.668l-0.003-0.002l0.002-0.003l0,0l0.002,0.005     L-365.758,244.668z" fill="#FFFFFF"/><path clip-path="url(#SVGID_2_)" d="M-183.76,244.668l-0.001,0l0.003-0.005l0,0l0,0.003L-183.76,244.668z" fill="#FFFFFF"/><path clip-path="url(#SVGID_2_)" d="M180.243,200.173l-9.987,30.741h-32.33l26.155,19l-9.988,30.75l26.146-18.999     l26.153,18.999l-9.996-30.75l26.154-19h-32.322L180.243,200.173z M180.237,244.668l-0.001,0l0.003-0.005l0,0l0.001,0.003     L180.237,244.668z" fill="#FFFFFF"/><path clip-path="url(#SVGID_2_)" d="M362.243,200.173l-9.987,30.741h-32.333l26.157,19.001l-9.988,30.749     l26.15-18.997l26.15,18.997l-9.99-30.752l26.145-18.998h-32.318L362.243,200.173z M362.243,244.668l-0.003-0.002l0.002-0.003l0,0     l0.003,0.005L362.243,244.668z" fill="#FFFFFF"/><polygon clip-path="url(#SVGID_2_)" fill="#FFFFFF" points="89.236,278.181 79.251,308.919 46.931,308.919 73.074,327.916      63.086,358.659 89.236,339.66 115.386,358.659 105.4,327.92 131.555,308.919 99.223,308.919    "/><polygon clip-path="url(#SVGID_2_)" fill="#FFFFFF" points="271.236,278.181 261.25,308.919 228.928,308.919 255.081,327.918      245.086,358.659 271.24,339.658 297.387,358.659 287.4,327.918 313.553,308.919 281.223,308.919    "/><polygon clip-path="url(#SVGID_2_)" fill="#FFFFFF" points="453.233,278.181 443.247,308.919 410.928,308.919 437.078,327.916      427.083,358.659 453.238,339.658 479.384,358.659 469.397,327.92 495.553,308.919 463.229,308.919    "/><polygon clip-path="url(#SVGID_2_)" fill="#FFFFFF" points="190.229,386.915 180.243,356.176 170.256,386.915 137.926,386.915      164.079,405.915 154.092,436.652 180.239,417.653 206.392,436.652 196.399,405.914 222.55,386.915    "/><polygon clip-path="url(#SVGID_2_)" fill="#FFFFFF" points="372.229,386.915 362.243,356.176 352.256,386.915 319.923,386.915      346.079,405.917 336.092,436.652 362.243,417.656 388.393,436.652 378.406,405.912 404.548,386.915    "/><polygon clip-path="url(#SVGID_2_)" fill="#FFFFFF" points="99.223,464.92 89.236,434.182 79.25,464.92 46.931,464.92      73.073,483.919 63.086,514.66 89.236,495.661 115.386,514.66 105.4,483.923 131.555,464.92    "/><polygon clip-path="url(#SVGID_2_)" fill="#FFFFFF" points="281.223,464.92 271.236,434.182 261.25,464.92 228.928,464.92      255.081,483.921 245.086,514.66 271.24,495.659 297.387,514.66 287.4,483.921 313.553,464.92    "/><polygon clip-path="url(#SVGID_2_)" fill="#FFFFFF" points="463.229,464.92 453.233,434.182 443.247,464.92 410.928,464.92      437.078,483.919 427.083,514.66 453.238,495.659 479.384,514.66 469.397,483.923 495.553,464.92    "/></g></g></svg>
