<?xml version="1.0" encoding="utf-8"?>
<!-- Generator: Adobe Illustrator 24.1.3, SVG Export Plug-In . SVG Version: 6.00 Build 0)  -->
<svg version="1.1" id="Layer_1" xmlns="http://www.w3.org/2000/svg" xmlns:xlink="http://www.w3.org/1999/xlink" x="0px" y="0px"
	 viewBox="0 0 82 82" style="enable-background:new 0 0 82 82;" xml:space="preserve">
<style type="text/css">
	.st0{fill:none;stroke:#738F93;stroke-width:4;stroke-miterlimit:10;}
	.st1{fill:#738F93;}
</style>
<path class="st0" d="M42.1,3.2c-0.4-0.2-0.9-0.2-1.4,0l-33.3,12c-0.9,0.3-1.4,1.2-1.3,2.1l5,44.2c0.1,0.6,0.5,1.2,1,1.5l28.2,15.4
	c0.6,0.3,1.3,0.3,1.9,0l28.2-15.4c0.6-0.3,1-0.9,1-1.5l5-44.2c0.1-0.9-0.4-1.8-1.3-2.1L42.1,3.2z"/>
<path class="st1" d="M41.4,10.2L19,60h8.5l4.5-11.1h9.5h9.5L55.4,60h8.5L41.4,10.2z M41.4,41.9H35l6.5-15.4l6.5,15.4H41.4z"/>
</svg>
