<?xml version="1.0" encoding="utf-8"?>
<!-- Generator: Adobe Illustrator 24.1.3, SVG Export Plug-In . SVG Version: 6.00 Build 0)  -->
<svg version="1.1" id="Layer_1" xmlns="http://www.w3.org/2000/svg" xmlns:xlink="http://www.w3.org/1999/xlink" x="0px" y="0px"
	 viewBox="0 0 82 82" style="enable-background:new 0 0 82 82;" xml:space="preserve">
<style type="text/css">
	.st0{fill:none;stroke:#738F93;stroke-width:4;}
	.st1{fill:#738F93;}
</style>
<path class="st0" d="M74.6,25.3c0-1.3-0.3-2.4-0.8-3.4c-0.5-1-1.4-1.7-2.4-2.4c-9-5.2-18-10.4-27-15.6c-2.4-1.4-4.8-1.4-7.2,0.1
	c-3.6,2.1-21.5,12.4-26.9,15.5C8.1,20.8,7,22.8,7,25.3v31.3C7,57.9,7.3,59,7.8,60c0.5,1,1.4,1.8,2.5,2.5
	c5.4,3.1,23.3,13.4,26.9,15.5c2.4,1.4,4.8,1.5,7.2,0.1c9-5.2,18-10.4,27-15.6c1.1-0.6,1.9-1.5,2.5-2.5c0.5-1,0.8-2.1,0.8-3.3V25.3z"
	/>
<path class="st0" d="M50.5,46.5c-1.9,3.4-5.6,5.7-9.7,5.7c-4.2,0-7.8-2.3-9.7-5.6c-0.9-1.6-1.5-3.5-1.5-5.5c0-6.2,5-11.2,11.2-11.2
	c4.1,0,7.7,2.2,9.7,5.6l9.8-5.6c-3.9-6.7-11.1-11.2-19.4-11.2c-12.4,0-22.4,10.1-22.4,22.4c0,4.1,1.1,7.9,3,11.2
	c3.9,6.7,11.2,11.3,19.5,11.3c8.3,0,15.6-4.6,19.5-11.3L50.5,46.5z"/>
<path class="st1" d="M69.6,37.5H58.8v2.2h10.8V37.5z M69.6,42.4H58.8v2.2h10.8V42.4z"/>
<path class="st1" d="M60.6,35.7h2.2v10.8h-2.2V35.7z"/>
<path class="st1" d="M65.6,35.7h2.2v10.8h-2.2V35.7z"/>
</svg>
