<?xml version="1.0" encoding="utf-8"?>
<!-- Generator: Adobe Illustrator 24.1.3, SVG Export Plug-In . SVG Version: 6.00 Build 0)  -->
<svg version="1.1" id="Layer_1" xmlns="http://www.w3.org/2000/svg" xmlns:xlink="http://www.w3.org/1999/xlink" x="0px" y="0px"
	 viewBox="0 0 82 82" style="enable-background:new 0 0 82 82;" xml:space="preserve">
<style type="text/css">
	.st0{fill:none;stroke:#738F93;stroke-width:4;}
	.st1{fill:#738F93;}
</style>
<path class="st0" d="M41.2,78.9c-0.3,0.1-0.7,0.1-1.1,0l-25.5-7.1c-0.8-0.2-1.4-0.9-1.5-1.7L7.4,5.2C7.3,4,8.2,3,9.4,3H72
	c1.2,0,2.1,1,2,2.2L68.2,70c-0.1,0.8-0.7,1.5-1.5,1.7L41.2,78.9z"/>
<path class="st1" d="M40.7,17h-21l0.7,8.4h20.3h11.8L51.7,34h-11H21.2l0.7,8.4h18.8H51l-1,10.8l-9.3,2.6l-9.4-2.6l-0.6-6.7h-8.4
	l1.2,13.2l17.2,4.8l17.2-4.8l0.1-1.4l2-22.1l0.2-2.2l1.5-17H40.7z"/>
</svg>
