<svg width="24" height="24" viewBox="0 0 24 24" fill="none" xmlns="http://www.w3.org/2000/svg">
<g clip-path="url(#clip0)">
<path d="M1.98071 9.70432C1.93433 9.70432 1.92273 9.68104 1.94592 9.64612L2.18944 9.33186C2.21263 9.29694 2.27061 9.27367 2.31699 9.27367H6.45675C6.50314 9.27367 6.51473 9.30858 6.49154 9.3435L6.29441 9.64612C6.27122 9.68104 6.21324 9.71596 6.17845 9.71596L1.98071 9.70432Z" fill="#738F93"/>
<path d="M0.229733 10.7751C0.18335 10.7751 0.171754 10.7518 0.194946 10.7169L0.438461 10.4026C0.461653 10.3677 0.519633 10.3444 0.566017 10.3444H5.85378C5.90016 10.3444 5.92335 10.3793 5.91176 10.4143L5.81899 10.6936C5.80739 10.7402 5.76101 10.7634 5.71463 10.7634L0.229733 10.7751Z" fill="#738F93"/>
<path d="M3.03589 11.8459C2.9895 11.8459 2.97791 11.811 3.0011 11.7761L3.16344 11.4851C3.18663 11.4502 3.23302 11.4152 3.2794 11.4152H5.5986C5.64498 11.4152 5.66817 11.4502 5.66817 11.4967L5.64498 11.7761C5.64498 11.8226 5.5986 11.8575 5.56381 11.8575L3.03589 11.8459Z" fill="#738F93"/>
<path d="M15.0726 9.49478C14.342 9.68101 13.8434 9.82068 13.1244 10.0069C12.9505 10.0535 12.9389 10.0651 12.7882 9.89052C12.6142 9.69265 12.4867 9.56462 12.2432 9.44823C11.5126 9.08741 10.8053 9.19216 10.1443 9.62282C9.35576 10.1349 8.9499 10.8915 8.9615 11.8343C8.97309 12.7654 9.61087 13.5336 10.527 13.6616C11.3155 13.7664 11.9764 13.487 12.4983 12.8934C12.6026 12.7654 12.6954 12.6257 12.8114 12.4628C12.3939 12.4628 11.8721 12.4628 10.5733 12.4628C10.3298 12.4628 10.2718 12.3115 10.353 12.1136C10.5038 11.7528 10.7821 11.1476 10.9444 10.8449C10.9792 10.7751 11.0604 10.6587 11.2343 10.6587C11.8257 10.6587 14.0057 10.6587 15.4552 10.6587C15.432 10.973 15.432 11.2872 15.3857 11.6015C15.2581 12.4395 14.945 13.2077 14.4348 13.8828C13.5999 14.9885 12.5099 15.6752 11.1299 15.8614C9.99354 16.0127 8.93831 15.7916 8.01063 15.0932C7.15253 14.4414 6.6655 13.5801 6.53794 12.5093C6.38719 11.2407 6.75826 10.1 7.5236 9.09905C8.34691 8.01661 9.43693 7.32989 10.7705 7.08547C11.8605 6.8876 12.9041 7.01563 13.8434 7.65579C14.458 8.06316 14.8986 8.62184 15.1885 9.29692C15.2581 9.40167 15.2117 9.45987 15.0726 9.49478Z" fill="#738F93"/>
<path d="M18.9112 15.9312C17.8559 15.908 16.8935 15.6053 16.0818 14.907C15.3976 14.3134 14.9685 13.5568 14.8294 12.6606C14.6207 11.3454 14.9801 10.1815 15.7687 9.14559C16.6152 8.02823 17.6356 7.44627 19.0155 7.20184C20.1983 6.99234 21.3115 7.10873 22.3204 7.79544C23.2365 8.42396 23.8047 9.27362 23.9554 10.391C24.1526 11.9623 23.7003 13.2426 22.6219 14.3367C21.8566 15.1165 20.9173 15.6053 19.8389 15.8265C19.5258 15.8847 19.2127 15.8963 18.9112 15.9312ZM21.671 11.229C21.6594 11.0777 21.6594 10.9613 21.6362 10.8449C21.4275 9.69263 20.3723 9.04084 19.2707 9.2969C18.1922 9.54132 17.4965 10.228 17.2414 11.3221C17.0326 12.23 17.4733 13.1495 18.3082 13.5219C18.946 13.8013 19.5837 13.7664 20.1983 13.4521C21.1144 12.9749 21.613 12.23 21.671 11.229Z" fill="#738F93"/>
</g>
<defs>
<clipPath id="clip0">
<rect width="24" height="24" fill="white"/>
</clipPath>
</defs>
</svg>
