<svg width="24" height="24" viewBox="0 0 24 24" fill="none" xmlns="http://www.w3.org/2000/svg">
<path d="M9.26943 18.0573L10.2275 17.4758L9.17363 17.7666C8.50297 17.9604 8.11973 18.2512 8.02393 18.5419C8.02393 18.6388 8.02393 18.9296 8.31135 19.1234C8.79039 19.5111 10.0359 19.8987 11.5688 19.8987C12.7185 19.8987 14.0599 19.7049 15.3054 19.1234L15.5928 19.0265L15.3054 18.9296C14.6347 18.6388 14.1557 18.3481 14.1557 18.3481H14.0599C12.2395 18.6388 11.3772 18.6388 9.74848 18.445C9.07782 18.3481 9.07782 18.2512 9.07782 18.2512C9.07782 18.2512 9.17363 18.1542 9.26943 18.0573Z" fill="#738F93" stroke="#738F93" stroke-width="0.2"/>
<path d="M18.8503 20.1894C18.9461 19.9955 18.8503 19.7048 18.3713 19.511L17.4132 19.1233L18.1796 19.8017C18.1796 19.8017 18.2754 19.8986 18.2754 19.9955C18.2754 20.0925 18.1796 20.2863 17.6048 20.3832C15.3054 21.0616 7.83233 21.3524 5.72455 20.3832C5.62874 20.3832 5.62874 20.3832 5.62874 20.3832C5.62874 20.2863 6.2994 19.9955 6.87425 19.8986C7.35329 19.8017 7.54491 19.8017 7.54491 19.8017H8.02395L7.64072 19.511C7.06587 19.1233 5.24551 19.6079 4.47904 20.0925C4.09581 20.3832 4 20.577 4 20.8678C4.09581 21.1585 4.47904 21.3524 5.1497 21.4493C7.16168 21.74 9.07784 21.9339 10.8982 21.9339C15.4012 21.9339 18.6587 21.0616 18.8503 20.1894Z" fill="#738F93" stroke="#738F93" stroke-width="0.2"/>
<path d="M9.36524 15.2467L8.59877 15.5374C7.64069 15.8282 7.25745 16.2158 7.35326 16.6035C7.54488 17.185 9.07781 17.5727 10.994 17.5727C12.4311 17.5727 14.0598 17.3788 15.5928 16.8943L15.976 16.7973L15.5928 16.6035C15.1137 16.4097 14.8263 16.1189 14.8263 16.1189L14.7305 16.022H14.6347C12.2395 16.5066 10.8024 16.5066 9.07781 16.3128C8.50296 16.2158 8.40716 16.1189 8.40716 16.1189C8.40716 16.022 8.50296 15.8282 8.59877 15.8282L9.36524 15.2467C9.55686 15.2467 9.74847 15.2467 10.0359 15.2467C11.9521 15.2467 14.0598 15.0528 15.497 14.6652C15.8802 14.3744 16.4551 14.1806 16.4551 14.1806L17.6048 13.696L16.3593 13.8898C16.3593 13.8898 14.7305 14.1806 13.1976 14.2775C12.8143 14.2775 12.4311 14.3744 12.0479 14.3744L12.6227 14.0837C12.7185 14.0837 14.0598 13.3084 14.3473 12.1454C14.4431 11.6608 14.3473 11.2731 14.0598 10.7885L13.964 10.5947C13.5808 10.0132 13.1976 9.4317 13.2934 8.94712C13.485 8.17179 14.5389 7.29954 16.7425 5.94271L17.6048 5.45813L16.6467 5.74888C16.4551 5.74888 12.6227 6.71804 11.9521 8.94712C11.6646 9.81936 11.9521 10.7885 12.8143 11.7577C13.1018 12.0484 13.1976 12.3392 13.1976 12.7269C13.1018 13.3084 12.6227 13.7929 12.6227 13.7929L11.9521 14.3744C10.4191 14.4713 9.07781 14.4713 8.31135 14.3744C7.7365 14.2775 7.64069 14.1806 7.64069 14.1806C7.7365 13.9868 8.69458 13.5991 9.74847 13.4053L10.7066 13.2114L9.74847 13.1145C9.65266 13.1145 8.21554 13.0176 6.39518 13.8898C6.01195 14.0837 5.91614 14.2775 5.91614 14.4713C5.91614 14.9559 7.44907 15.1498 9.36524 15.2467Z" fill="#738F93"/>
<path d="M9.36524 15.2467L8.59877 15.5374C7.64069 15.8282 7.25745 16.2158 7.35326 16.6035C7.54488 17.185 9.07781 17.5727 10.994 17.5727C12.4311 17.5727 14.0598 17.3788 15.5928 16.8943L15.976 16.7973L15.5928 16.6035C15.1137 16.4097 14.8263 16.1189 14.8263 16.1189L14.7305 16.022H14.6347C12.2395 16.5066 10.8024 16.5066 9.07781 16.3128C8.50296 16.2158 8.40716 16.1189 8.40716 16.1189C8.40716 16.022 8.50296 15.8282 8.59877 15.8282L9.36524 15.2467ZM9.36524 15.2467C9.55686 15.2467 9.74847 15.2467 10.0359 15.2467C11.9521 15.2467 14.0598 15.0528 15.497 14.6652C15.8802 14.3744 16.4551 14.1806 16.4551 14.1806L17.6048 13.696L16.3593 13.8898C16.3593 13.8898 14.7305 14.1806 13.1976 14.2775C12.8143 14.2775 12.4311 14.3744 12.0479 14.3744L12.6227 14.0837C12.7185 14.0837 14.0598 13.3084 14.3473 12.1454C14.4431 11.6608 14.3473 11.2731 14.0598 10.7885L13.964 10.5947C13.5808 10.0132 13.1976 9.4317 13.2934 8.94712C13.485 8.17179 14.5389 7.29954 16.7425 5.94271L17.6048 5.45813L16.6467 5.74888C16.4551 5.74888 12.6227 6.71804 11.9521 8.94712C11.6646 9.81936 11.9521 10.7885 12.8143 11.7577C13.1018 12.0484 13.1976 12.3392 13.1976 12.7269C13.1018 13.3084 12.6227 13.7929 12.6227 13.7929L11.9521 14.3744C10.4191 14.4713 9.07781 14.4713 8.31135 14.3744C7.7365 14.2775 7.64069 14.1806 7.64069 14.1806C7.7365 13.9868 8.69458 13.5991 9.74847 13.4053L10.7066 13.2114L9.74847 13.1145C9.65266 13.1145 8.21554 13.0176 6.39518 13.8898C6.01195 14.0837 5.91614 14.2775 5.91614 14.4713C5.91614 14.9559 7.44907 15.1498 9.36524 15.2467Z" stroke="#738F93" stroke-width="0.2"/>
<path d="M16.6468 13.3083L16.4552 13.696L16.8384 13.5022C16.8384 13.5022 16.9342 13.4052 17.2217 13.4052C17.7965 13.3083 18.3714 13.5991 18.563 14.1806C18.8504 15.0528 17.9881 16.1189 16.2636 16.9911H16.1678V17.0881L15.7845 17.4757L16.3594 17.2819C18.9462 16.6035 19.6169 15.4405 19.8085 14.859C19.9043 14.2775 19.8085 13.696 19.3295 13.3083C18.7546 12.8237 17.8923 12.6299 17.1259 12.9207C16.8384 13.1145 16.6468 13.3083 16.6468 13.3083Z" fill="#738F93" stroke="#738F93" stroke-width="0.2"/>
<path d="M11.8563 13.3084L12.3353 13.793L12.0479 13.2115C11.8563 12.8238 11.5689 12.3392 11.2815 11.9515C10.3234 10.5947 9.46109 9.3348 11.9521 7.29956C13.6767 5.94273 14.5389 4.5859 14.6347 3.32599C14.7306 2.163 14.0599 1.48458 14.0599 1.48458L13.7725 1L13.8683 1.48458C14.4431 3.71366 12.9102 4.87665 11.3773 6.13656C10.6108 6.81498 9.84433 7.39648 9.36528 8.17181C8.31139 9.81938 9.94013 11.5639 11.8563 13.3084Z" fill="#738F93" stroke="#738F93" stroke-width="0.2"/>
<path d="M19.5209 20.6739C19.5209 20.6739 19.1377 21.3523 16.455 21.8369C13.1017 22.5153 9.17358 22.3215 6.87418 22.0307L6.39514 21.9338L6.87418 22.3215C6.96999 22.3215 7.44903 22.8061 9.94005 22.903C10.6107 22.903 11.3772 22.9999 12.1436 22.9999C15.6886 22.9999 19.8083 22.5153 19.9041 20.8677L19.9999 20.0924L19.5209 20.6739Z" fill="#738F93" stroke="#738F93" stroke-width="0.2"/>
</svg>
