<svg width="24" height="24" viewBox="0 0 24 24" fill="none" xmlns="http://www.w3.org/2000/svg">
<path d="M3 2L4.63636 19.9818L11.7818 22L18.9727 19.9727L20.5909 2.00909L3 2ZM11.1364 17.6455L5.97273 16.2545L5.96364 14.1455L9.36364 15.0727L9.39091 5.85455H11.1455V17.6455H11.1364ZM17.6545 19L11.8727 20.5818L11.8091 3.6H19.0182L17.6545 19Z" fill="#738F93"/>
<path d="M18.0818 7.95449L18.2363 5.85449L12.6 5.88177L12.6727 13.5272L16.0818 12.9454L16.0272 14.6454L12.6 15.5636L12.6363 17.6454L17.3727 16.409L17.8454 10.6545L14.3454 11.0454V7.97267L18.0818 7.95449Z" fill="#738F93"/>
</svg>
