<?xml version="1.0" encoding="utf-8"?>
<!-- Generator: Adobe Illustrator 24.1.3, SVG Export Plug-In . SVG Version: 6.00 Build 0)  -->
<svg version="1.1" id="Layer_1" xmlns="http://www.w3.org/2000/svg" xmlns:xlink="http://www.w3.org/1999/xlink" x="0px" y="0px"
	 viewBox="0 0 82 82" style="enable-background:new 0 0 82 82;" xml:space="preserve">
<style type="text/css">
	.st0{fill:#738F93;}
</style>
<path class="st0" d="M41.1,79c-1.1,0-2-0.3-3-0.8l-9.4-5.5c-1.4-0.8-0.7-1-0.3-1.2c1.8-0.7,2.2-0.8,4.2-1.9c0.2-0.1,0.5-0.1,0.7,0.1
	l7.2,4.3c0.3,0.2,0.6,0.2,0.9,0l28.1-16.1c0.3-0.2,0.4-0.5,0.4-0.8V24.9c0-0.3-0.2-0.6-0.5-0.8L41.6,8.1c-0.3-0.2-0.6-0.2-0.9,0
	L12.5,24.2c-0.3,0.2-0.5,0.5-0.5,0.8V57c0,0.3,0.2,0.6,0.5,0.8l7.7,4.4c4.2,2.1,6.7-0.4,6.7-2.9V27.7c0-0.5,0.4-0.8,0.9-0.8h3.6
	c0.5,0,0.8,0.4,0.9,0.8v31.7c0,5.5-3.1,8.7-8.4,8.7c-1.6,0-2.9,0-6.5-1.7l-7.4-4.2c-1.7-1-2.9-3-2.9-5.1V24.9c0-2.1,1.2-4.1,3-5
	L38.1,3.7c1.8-1,4-1,6,0l28.1,16.1c1.8,1,3,2.9,3,5v32.1c0,2.1-1.2,4-3,5L44,78.2C43.1,78.7,42.1,79,41.1,79z M49.8,56.9
	c-12.4,0-15-5.6-15-10.3c0-0.5,0.4-0.8,0.9-0.8h3.7c0.4,0,0.8,0.3,0.8,0.7c0.6,3.7,2.2,5.5,9.6,5.5c6,0,8.5-1.3,8.5-4.5
	c0-1.8-0.7-3.1-9.9-4c-7.7-0.8-12.5-2.5-12.5-8.6c0-5.6,4.8-8.9,12.8-8.9c9,0,13.4,3.1,14,9.8c0,0.2-0.1,0.5-0.2,0.7
	c-0.1,0.2-0.4,0.3-0.6,0.3h-3.7c-0.4,0-0.7-0.3-0.8-0.7c-0.9-3.9-3-5.1-8.7-5.1c-6.4,0-7.2,2.3-7.2,3.9c0,2,0.9,2.7,9.6,3.8
	c8.6,1.1,12.8,2.8,12.8,8.7C63.9,53.4,58.8,56.9,49.8,56.9z"/>
</svg>
