<svg width="24" height="24" viewBox="0 0 24 24" fill="none" xmlns="http://www.w3.org/2000/svg">
<path d="M11.6346 23L1.08118 16.9115C0.999999 16.9115 1 16.8303 1 16.7491V12.7713C1 12.6901 0.999999 12.6901 1.08118 12.6089C1.16236 12.5278 1.16236 12.6089 1.24354 12.6089L11.7158 18.6163C11.7969 18.6163 11.7969 18.6975 11.7969 18.7786V22.8376C11.7969 22.9188 11.7969 23 11.6346 23Z" fill="#738F93"/>
<path d="M22.1876 12.9017H22.0252L11.6342 18.7467C11.553 18.7467 11.553 18.8278 11.553 18.909V22.8057C11.553 22.8868 11.553 22.8868 11.6342 22.968H11.7965L22.1876 17.0419C22.2688 17.0419 22.2688 16.9607 22.2688 16.8795V12.9829L22.1876 12.9017ZM11.7154 10.7098H11.553L8.06226 12.7393C7.98108 12.7393 7.98108 12.8205 7.98108 12.9017C7.98108 12.9829 7.98108 12.9829 8.06226 13.0641L11.553 15.0936H11.7154C11.7965 15.0936 11.7965 15.0124 11.7965 14.9312V10.8722C11.7965 10.791 11.7965 10.791 11.7154 10.7098Z" fill="#738F93"/>
<path d="M11.634 15.0935C11.4716 15.0124 11.4716 15.0124 11.4716 14.9312V10.8722C11.4716 10.791 11.4718 10.791 11.553 10.7098H11.7154L15.2059 12.7393C15.2871 12.7393 15.2871 12.8205 15.2871 12.9017C15.2871 12.9829 15.2871 12.9829 15.2059 13.064C15.2059 13.064 11.634 15.0935 11.634 15.0935ZM11.7963 11.1969V14.6876L14.8812 12.9017L11.7963 11.1969Z" fill="#738F93"/>
<path d="M11.6346 18.941L1.08118 12.8525C0.999999 12.8525 1 12.7714 1 12.6902C1 12.609 0.999999 12.609 1.08118 12.5278L9.44272 7.73819H9.60508L11.6346 8.87471V6.68285C11.6346 6.60167 11.6346 6.60167 11.7158 6.52049H11.8781L22.188 12.6902C22.2692 12.6902 22.2692 12.7714 22.2692 12.8525C22.2692 12.9337 22.2692 12.9337 22.188 13.0149L11.6346 18.941ZM1.48708 12.7714L11.6346 18.6975L21.7821 12.8525L11.8781 7.16993V9.36179C11.8781 9.44297 11.8781 9.44297 11.7969 9.52415H11.6346L9.44272 8.30645L1.48708 12.7714Z" fill="#738F93"/>
<path d="M15.311 3.11055H15.1487L11.6579 5.14005C11.5768 5.14005 11.5768 5.22123 11.5768 5.30241V9.36141C11.5768 9.44259 11.5768 9.44259 11.6579 9.52377H11.8203L15.311 7.49427C15.3922 7.49427 15.3922 7.41309 15.3922 7.33191V3.27291C15.3922 3.19173 15.3922 3.11055 15.311 3.11055Z" fill="#738F93"/>
<path d="M11.7621 5.38372L8.19015 3.35422C8.10897 3.35422 8.10897 3.27304 8.10897 3.19186C8.10897 3.11068 8.10897 3.11068 8.19015 3.0295L11.6809 1H11.8433L15.334 3.0295C15.4152 3.0295 15.4152 3.11068 15.4152 3.19186C15.4152 3.27304 15.4152 3.27304 15.334 3.35422L11.7621 5.38372ZM8.51487 3.27304L11.6809 5.14018L14.8469 3.27304L11.6809 1.4059L8.51487 3.27304Z" fill="#738F93"/>
<path d="M11.7963 9.44259L8.2244 7.41309C8.14322 7.41309 8.14322 7.41309 8.14322 7.33191V3.27291C8.14322 3.19173 8.14322 3.19173 8.2244 3.11055H8.38676L11.8775 5.14005C11.9587 5.14005 11.9587 5.22123 11.9587 5.30241V9.36141C11.9587 9.36141 11.8775 9.44259 11.7963 9.44259ZM8.46795 7.16955L11.634 9.03669V5.30241L8.46795 3.43527V7.16955Z" fill="#738F93"/>
</svg>
