<svg width="24" height="24" viewBox="0 0 24 24" fill="none" xmlns="http://www.w3.org/2000/svg">
<path d="M9.57708 11.6734H14.3954C15.7372 11.6734 16.7931 10.5507 16.7931 9.21872V4.67543C16.7931 3.38272 15.6975 2.41033 14.3872 2.1946C13.5593 2.05896 12.7034 1.99685 11.8772 2.00012C11.0527 2.00339 10.2893 2.07366 9.59525 2.1946C7.55455 2.55087 7.2092 3.29774 7.2092 4.67543V6.44372H12.0011V7.09743H5.35357C3.95234 7.09743 2.72461 7.93255 2.33961 9.5178C1.89677 11.3351 1.87694 12.4464 2.33961 14.3438C2.6833 15.7558 3.50124 16.7397 4.90246 16.7397H6.54659V14.6069C6.54825 13.0315 7.93956 11.6734 9.57708 11.6734ZM9.27304 5.28175C8.77236 5.28175 8.36753 4.87645 8.36753 4.37636C8.36753 3.873 8.77236 3.46443 9.27304 3.46443C9.77041 3.46443 10.1785 3.873 10.1785 4.37636C10.1785 4.87645 9.77041 5.28175 9.27304 5.28175ZM21.6313 9.5178C21.2843 8.13683 20.6233 7.09743 19.2188 7.09743H17.454V9.21872C17.454 10.8612 16.0016 12.1637 14.3954 12.1637H9.57708C8.25682 12.1637 7.2092 13.3616 7.2092 14.669V19.2123C7.2092 20.505 8.32456 21.265 9.59856 21.636C11.1254 22.0805 12.5712 22.1606 14.3988 21.636C15.6133 21.2879 16.7931 20.5884 16.7931 19.2123V17.3934H12.0011V16.7397H19.2188C20.62 16.7397 21.1438 15.7951 21.6313 14.3438C22.1336 12.8485 22.1121 11.4348 21.6313 9.5178ZM14.6978 18.6044C15.1985 18.6044 15.6033 19.0097 15.6033 19.5114C15.6033 20.0148 15.1985 20.4233 14.6978 20.4233C14.2005 20.4233 13.7923 20.0148 13.7923 19.5114C13.7923 19.0097 14.2005 18.6044 14.6978 18.6044Z" fill="#738F93"/>
</svg>
