<?xml version="1.0" encoding="utf-8"?>
<!-- Generator: Adobe Illustrator 24.1.3, SVG Export Plug-In . SVG Version: 6.00 Build 0)  -->
<svg version="1.1" id="Layer_1" xmlns="http://www.w3.org/2000/svg" xmlns:xlink="http://www.w3.org/1999/xlink" x="0px" y="0px"
	 viewBox="0 0 82 82" style="enable-background:new 0 0 82 82;" xml:space="preserve">
<style type="text/css">
	.st0{fill:none;stroke:#738F93;stroke-width:4;}
	.st1{fill-rule:evenodd;clip-rule:evenodd;fill:#FFFFFF;stroke:#738F93;stroke-width:4;}
</style>
<path class="st0" d="M42.3,59C21.7,59,5,47.8,5,34C5,20.2,21.7,9,42.3,9s37.3,11.2,37.3,25C79.7,47.8,62.9,59,42.3,59z M48,18.8
	c-15.7,0-28.4,7.7-28.4,17.1S32.4,53,48,53c15.7,0,27.2-5.2,27.2-17.1C75.3,24,63.7,18.8,48,18.8z"/>
<path class="st1" d="M61.9,53.5c0,0,2.4,0.7,3.8,1.4c0.5,0.2,1.3,0.7,1.9,1.4c0.6,0.6,0.9,1.3,0.9,1.3l9.5,16.1l-15.4,0l-7.2-13.5
	c0,0-1.5-2.5-2.4-3.3C52.3,56.3,52,56,51.3,56c-0.5,0-3.7,0-3.7,0l0,17.6l-13.6,0V28.6h27.4c0,0,12.5,0.2,12.5,12.1
	S61.9,53.5,61.9,53.5z M56,38.4l-8.3,0l0,7.7l8.3,0c0,0,3.8,0,3.8-3.9C59.8,38.2,56,38.4,56,38.4z"/>
</svg>
