<svg width="24" height="24" viewBox="0 0 24 24" fill="none" xmlns="http://www.w3.org/2000/svg">
<path d="M11.9799 13.992C13.0889 13.992 13.9879 13.093 13.9879 11.984C13.9879 10.875 13.0889 9.97595 11.9799 9.97595C10.8709 9.97595 9.97192 10.875 9.97192 11.984C9.97192 13.093 10.8709 13.992 11.9799 13.992Z" fill="#738F93"/>
<path d="M11.98 16.5841C9.15999 16.5841 6.69599 16.2521 4.85199 15.6201C3.65599 15.2121 2.63999 14.6681 1.91599 14.0481C1.14799 13.3921 0.73999 12.6761 0.73999 11.9841C0.73999 10.6561 2.19599 9.35607 4.63999 8.50807C6.63999 7.81207 9.24799 7.42407 11.976 7.42407C14.656 7.42407 17.228 7.80007 19.216 8.48807C20.38 8.88807 21.36 9.40807 22.056 9.98407C22.812 10.6161 23.212 11.3081 23.212 11.9841C23.212 13.3641 21.584 14.7601 18.96 15.6281C17.104 16.2441 14.624 16.5841 11.98 16.5841ZM11.98 8.38407C9.39199 8.38407 6.83199 8.76007 4.95999 9.41207C2.71199 10.1961 1.70399 11.2681 1.70399 11.9841C1.70399 12.7281 2.78799 13.9001 5.16399 14.7121C6.90799 15.3081 9.26799 15.6241 11.98 15.6241C14.524 15.6241 16.896 15.3041 18.66 14.7161C21.128 13.8961 22.256 12.7241 22.256 11.9841C22.256 11.6041 21.968 11.1561 21.444 10.7201C20.84 10.2161 19.96 9.75607 18.908 9.39207C17.016 8.74407 14.556 8.38407 11.98 8.38407Z" fill="#738F93" stroke="#738F93" stroke-width="0.4"/>
<path d="M7.42393 21.9921C7.01593 21.9921 6.65593 21.9041 6.35193 21.7281C5.20393 21.0641 4.80393 19.1521 5.28793 16.6121C5.68393 14.5281 6.65193 12.0801 8.01593 9.71606C9.35593 7.39606 10.9639 5.35605 12.5519 3.97605C13.4799 3.16805 14.4199 2.57605 15.2679 2.26405C16.1919 1.92405 16.9919 1.92405 17.5759 2.26005C18.7719 2.94805 19.1679 5.06005 18.6079 7.76406C18.2119 9.68406 17.2679 12.0001 15.9479 14.2921C14.5399 16.7321 13.0199 18.7001 11.5519 19.9841C10.5999 20.8161 9.61993 21.4241 8.72393 21.7401C8.25593 21.9081 7.81593 21.9921 7.42393 21.9921ZM8.42793 9.95606L8.84393 10.1961C7.55193 12.4361 6.59593 14.8401 6.22793 16.7921C5.78393 19.1321 6.21193 20.5401 6.82793 20.8961C6.97993 20.9841 7.17993 21.0321 7.42393 21.0321C8.21993 21.0321 9.47193 20.5281 10.9199 19.2641C12.3079 18.0521 13.7599 16.1641 15.1159 13.8161C16.3879 11.6121 17.2919 9.39606 17.6679 7.57606C18.1919 5.02805 17.7399 3.46805 17.0959 3.09605C16.7679 2.90805 16.2359 2.93205 15.5959 3.16805C14.8559 3.44005 14.0199 3.97205 13.1799 4.70405C11.6719 6.01605 10.1319 7.96806 8.84393 10.2001L8.42793 9.95606Z" fill="#738F93" stroke="#738F93" stroke-width="0.4"/>
<path d="M16.5359 22.004C15.4479 22.004 14.0679 21.348 12.6279 20.108C11.0199 18.724 9.38394 16.664 8.01595 14.3C6.67195 11.98 5.71195 9.568 5.30795 7.5C5.07195 6.292 5.02795 5.18399 5.17995 4.29199C5.34795 3.31999 5.74395 2.62799 6.33195 2.28799C7.52395 1.59599 9.55194 2.30799 11.6159 4.14399C13.0799 5.44399 14.6159 7.42 15.9399 9.708C17.3519 12.148 18.2999 14.448 18.6759 16.36C18.9199 17.6 18.9599 18.752 18.7879 19.688C18.6039 20.684 18.1879 21.392 17.5879 21.74C17.2879 21.916 16.9319 22.004 16.5359 22.004ZM8.84794 13.82C10.1439 16.06 11.7519 18.088 13.2559 19.38C15.0599 20.932 16.4919 21.268 17.1119 20.908C17.7559 20.536 18.2279 19.012 17.7399 16.548C17.3799 14.74 16.4719 12.54 15.1119 10.192C13.8359 7.988 12.3679 6.09599 10.9799 4.86399C9.03594 3.13599 7.45995 2.74799 6.81595 3.11999C6.48795 3.30799 6.24395 3.78399 6.12795 4.45599C5.99595 5.23199 6.03595 6.22399 6.25195 7.316C6.63595 9.28 7.55595 11.588 8.84794 13.82Z" fill="#738F93" stroke="#738F93" stroke-width="0.4"/>
</svg>
