<?xml version="1.0" encoding="utf-8"?>
<!-- Generator: Adobe Illustrator 24.1.3, SVG Export Plug-In . SVG Version: 6.00 Build 0)  -->
<svg version="1.1" id="Layer_1" xmlns="http://www.w3.org/2000/svg" xmlns:xlink="http://www.w3.org/1999/xlink" x="0px" y="0px"
	 viewBox="0 0 82 82" style="enable-background:new 0 0 82 82;" xml:space="preserve">
<style type="text/css">
	.st0{fill:none;stroke:#738F93;stroke-width:4;}
	.st1{fill:#738F93;}
</style>
<path class="st0" d="M32.5,5.6C32.8,4.1,34.2,3,35.7,3h10.5c1.6,0,2.9,1.1,3.3,2.6l0.6,3.1c0.1,0.4,0.3,0.7,0.7,0.8
	c4.7,1.5,9,3.9,12.6,7.3c0.3,0.3,0.7,0.3,1,0.2l2.9-1c1.5-0.5,3.1,0.1,3.9,1.5l5.2,9.1c0.8,1.4,0.5,3.1-0.7,4.1l-2.3,2.1
	c-0.3,0.2-0.4,0.6-0.3,1c0.6,2.4,0.8,4.9,0.8,7.3c0,2.4-0.3,4.8-0.8,7.3c-0.1,0.4,0,0.7,0.3,1l2.3,2.1c1.2,1,1.5,2.8,0.7,4.1
	l-5.3,9.1c-0.8,1.4-2.4,2-3.9,1.5l-2.9-1c-0.4-0.1-0.7,0-1,0.2c-3.6,3.3-7.9,5.8-12.6,7.3c-0.4,0.1-0.6,0.4-0.7,0.8l-0.6,3.1
	c-0.3,1.5-1.7,2.6-3.3,2.6H35.7c-1.6,0-2.9-1.1-3.3-2.6l-0.6-3.1c-0.1-0.4-0.3-0.7-0.7-0.8c-4.7-1.5-9-3.9-12.6-7.3
	c-0.3-0.3-0.7-0.3-1-0.2l-2.9,1c-1.5,0.5-3.1-0.1-3.9-1.5l-5.2-9.1c-0.8-1.4-0.5-3.1,0.7-4.1l2.3-2.1c0.3-0.2,0.4-0.6,0.3-1
	c-0.6-2.4-0.8-4.9-0.8-7.3c0-2.4,0.3-4.8,0.8-7.3c0.1-0.4,0-0.7-0.3-1l-2.3-2.1c-1.2-1-1.5-2.8-0.7-4.1l5.2-9.1
	c0.8-1.4,2.4-2,3.9-1.5l2.9,1c0.4,0.1,0.7,0,1-0.2c3.6-3.3,7.9-5.8,12.6-7.3c0.4-0.1,0.6-0.4,0.7-0.8L32.5,5.6z"/>
<path class="st1" d="M26.9,29c0.8,0,1.5,0.5,1.7,1.2L34.7,50c0.1,0.2,0.1,0.4,0.1,0.5v1c0,1-0.8,1.7-1.7,1.7c-1,0-1.7-0.8-1.7-1.7
	v-0.8l-0.8-2.7h-7.1l-0.8,2.7v0.8c0,1-0.8,1.7-1.7,1.7c-1,0-1.7-0.8-1.7-1.7v-1c0-0.2,0-0.4,0.1-0.5l6.1-19.8
	C25.4,29.5,26.1,29,26.9,29z M39.9,29h7c2.9,0,5.2,2.3,5.2,5.2v5.2c0,2.9-2.3,5.2-5.2,5.2h-5.2v7c0,1-0.8,1.7-1.7,1.7
	c-1,0-1.7-0.8-1.7-1.7V30.7C38.2,29.8,39,29,39.9,29z M57.4,29h3.5c1,0,1.7,0.8,1.7,1.7c0,1-0.8,1.7-1.7,1.7v17.4
	c1,0,1.7,0.8,1.7,1.7s-0.8,1.7-1.7,1.7h-3.5c-1,0-1.7-0.8-1.7-1.7s0.8-1.7,1.7-1.7V32.5c-1,0-1.7-0.8-1.7-1.7
	C55.7,29.8,56.4,29,57.4,29z M41.7,32.5v8.7h5.2c1,0,1.7-0.8,1.7-1.7v-5.2c0-1-0.8-1.7-1.7-1.7H41.7z M26.9,36.7l-2.5,8h4.9
	L26.9,36.7z"/>
</svg>
