<svg width="24" height="24" viewBox="0 0 24 24" fill="none" xmlns="http://www.w3.org/2000/svg">
<path d="M16.9 5.8H20L16.2 2V5.1C16.2 5.5 16.5 5.8 16.9 5.8Z" fill="#738F93"/>
<path d="M12.4 15H11.6C11.2 15 10.9 15.3 10.9 15.7V17.8C10.9 18.2 11.2 18.5 11.6 18.5H12.2L11.5 17.8L12 17.2L13 18.2C13.1 18.1 13.1 17.9 13.1 17.8V15.7C13.1 15.3 12.7 15 12.4 15Z" fill="#738F93"/>
<path d="M15 5.1V2H5.9C4.8 2 4 2.8 4 3.9V20.1C4 21.1 4.8 22 5.9 22H18.1C19.1 22 20 21.2 20 20.1V7H16.9C15.8 7 15 6.2 15 5.1ZM7.4 16.4H8.1C8.9 16.4 9.5 17 9.5 17.8C9.5 18.6 8.9 19.2 8.1 19.2H7.4C6.6 19.2 6 18.6 6 17.8H6.7C6.7 18.2 7 18.5 7.4 18.5H8.1C8.5 18.5 8.8 18.2 8.8 17.8C8.8 17.4 8.5 17.1 8.1 17.1H7.4C6.6 17.1 6 16.5 6 15.7C6 14.9 6.6 14.3 7.4 14.3H8.1C8.9 14.3 9.5 14.9 9.5 15.7H8.8C8.8 15.3 8.5 15 8.1 15H7.4C7 15 6.7 15.3 6.7 15.7C6.7 16.1 7 16.4 7.4 16.4ZM13.5 19.7L12.9 19.1C12.8 19.2 12.6 19.2 12.4 19.2H11.7C10.9 19.2 10.3 18.6 10.3 17.8V15.7C10.3 14.9 10.9 14.3 11.7 14.3H12.4C13.2 14.3 13.8 14.9 13.8 15.7V17.8C13.8 18.2 13.7 18.5 13.5 18.7L14 19.2L13.5 19.7ZM18 19.2H14.5V14.3H15.2V18.5H18V19.2Z" fill="#738F93"/>
</svg>
