<svg width="895" height="1000" viewBox="0 0 895 1000" fill="none" xmlns="http://www.w3.org/2000/svg">
<g opacity="0.1">
<path fill-rule="evenodd" clip-rule="evenodd" d="M248.203 529.534C231.681 409.845 308.611 291.71 428.395 253.368C485.189 235.233 563.152 243.005 620.979 272.539C676.74 301.036 729.92 368.912 746.959 432.642C757.801 471.503 756.252 536.787 743.861 576.684C707.719 694.3 582.772 772.539 464.02 752.332C346.818 732.124 264.725 647.668 248.203 529.534ZM529.076 486.008C547.663 423.833 563.152 372.021 563.152 370.466C563.152 366.321 517.717 367.358 515.135 371.503C511.005 378.756 439.238 615.026 439.238 621.243C439.238 625.389 446.982 626.943 463.504 625.907C484.157 624.352 488.287 622.28 491.385 611.399C493.266 604.792 507.569 557.35 524.149 502.351L529.076 486.008ZM434.075 459.585V434.715C434.075 420.725 432.526 409.326 430.46 409.845C427.879 409.845 401.031 424.352 369.536 441.969C328.836 465.361 317.302 471.99 313.464 481.687C311.946 485.521 311.632 489.835 311.193 495.855L309.644 517.098L366.438 548.705C397.416 565.803 425.297 580.311 428.395 580.311C431.493 580.311 434.075 570.466 434.075 556.995C434.075 534.197 433.558 533.679 403.096 517.098C386.058 507.772 372.117 498.446 372.117 496.373C372.117 494.301 386.058 485.492 403.096 476.166L434.075 459.585ZM697.393 493.782C697.393 478.238 694.295 475.648 652.474 451.813C644.925 447.639 637.146 443.326 629.714 439.206C612.237 429.516 596.675 420.888 590.517 417.617L573.478 408.808V460.622L636.468 495.855L606.006 513.471C589.484 522.798 574.511 532.642 572.446 535.751C566.766 544.041 567.283 574.093 573.478 577.72C579.158 581.347 687.067 525.389 693.262 516.062C695.328 512.953 697.393 503.109 697.393 493.782Z" fill="url(#paint0_linear_869_1148)"/>
<path fill-rule="evenodd" clip-rule="evenodd" d="M40.1296 140.415C-8.40356 90.1554 -12.534 58.0311 25.6729 19.6891C43.7438 2.07254 48.3906 0 72.1409 0C105.701 0 114.478 4.66321 151.136 40.4145L181.082 69.4301L205.349 45.5959C231.681 19.6891 259.562 5.18135 282.796 5.18135C316.872 5.18135 335.976 16.0622 391.221 66.8394C421.683 94.8187 452.145 120.207 458.341 123.316C474.863 132.124 524.945 131.088 544.049 121.244C553.342 116.58 580.707 93.2642 604.973 69.4301C683.453 -6.73575 728.888 -13.9896 787.747 41.9689C802.72 55.9585 816.66 67.3575 819.758 67.3575C822.34 67.3575 832.666 59.0674 842.476 48.7047C876.553 12.4352 897.721 0 926.118 0C956.581 0 982.913 13.9896 990.657 35.2332C1008.21 80.829 1002.53 101.036 960.711 142.487C943.673 159.585 929.733 175.648 929.733 178.756C929.733 181.865 939.542 193.782 950.901 204.663C975.168 227.979 991.173 259.585 991.69 282.383C991.69 318.653 981.364 337.306 932.314 388.083C867.775 455.44 856.416 479.275 868.292 526.425C873.455 546.632 883.781 561.658 924.053 606.218C979.815 667.357 986.527 678.756 986.527 715.544C986.527 747.15 976.717 767.357 947.287 797.927L924.569 821.762L958.13 854.922C980.847 877.72 993.755 894.819 997.369 907.772C1009.76 954.922 975.684 1000 927.151 1000C901.852 1000 891.526 993.782 853.835 956.995L821.307 925.389L794.459 951.813C730.953 1014.51 687.583 1009.84 606.006 931.088C552.31 879.275 533.722 868.394 498.613 868.394C463.504 868.394 445.95 878.756 390.188 933.161C364.373 958.549 334.427 982.383 324.1 987.047C283.828 1004.15 245.105 993.264 205.865 954.404L181.082 930.57L159.397 951.813C123.772 986.01 99.5053 1000 75.755 1000C24.124 1000 -15.6319 943.005 6.05314 900C9.151 893.782 25.6729 874.093 42.7112 856.995L73.6898 824.87L45.2927 793.782C18.9609 765.285 5.53683 738.342 5.53683 715.026C5.53683 687.565 19.4772 664.767 70.0756 608.808C127.386 545.596 138.745 523.834 132.033 487.565C126.353 457.513 114.995 440.933 65.4288 389.119C19.4772 340.933 5.53683 316.58 5.53683 287.047C5.53683 261.658 18.4446 236.269 45.2927 207.254L74.2061 175.648L40.1296 140.415ZM765.546 406.736C731.986 316.062 650.925 244.56 558.505 224.87C360.242 182.902 180.05 370.466 230.648 566.321C267.823 710.881 412.39 804.663 552.826 775.129C651.441 754.404 730.953 686.01 765.546 593.264C782.068 548.186 782.068 451.295 765.546 406.736Z" fill="url(#paint1_linear_869_1148)"/>
</g>
<defs>
<linearGradient id="paint0_linear_869_1148" x1="500" y1="0" x2="500" y2="1000" gradientUnits="userSpaceOnUse">
<stop stop-color="#FF8500"/>
<stop offset="1" stop-color="#FF6701"/>
</linearGradient>
<linearGradient id="paint1_linear_869_1148" x1="500" y1="0" x2="500" y2="1000" gradientUnits="userSpaceOnUse">
<stop stop-color="#FF8500"/>
<stop offset="1" stop-color="#FF6701"/>
</linearGradient>
</defs>
</svg>
