<?xml version="1.0" encoding="utf-8"?>
<!-- Generator: Adobe Illustrator 23.0.1, SVG Export Plug-In . SVG Version: 6.00 Build 0)  -->
<svg version="1.1" id="corporate" xmlns="http://www.w3.org/2000/svg" xmlns:xlink="http://www.w3.org/1999/xlink" x="0px" y="0px"
	 viewBox="0 0 164 35" style="enable-background:new 0 0 164 35;" xml:space="preserve">
<style type="text/css">
	.st0{fill:none;}
	.st1{fill:#ED1B2F;}
	.st2{fill:#231F20;}
</style>
<g>
	<rect x="-17.97" y="-17.96" class="st0" width="199.94" height="70.92"/>
	<g>
		<g>
			<path class="st1" d="M128.62,18.95v-2.48l2.5-0.28c0.87-0.1,1.24-0.89,1.34-1.08l6.24-10.15c0.51-0.8,0.01-1.5-0.64-1.58
				L134.77,3V0.49h14.22c0.79,0,1.3,0.55,1.63,1.02l8.3,12.69c0.65,1.02,1.16,1.81,1.99,1.92l2.61,0.29v2.54h-15.98v-2.5l2.03-0.25
				c0.97-0.11,1.77-0.55,0.97-1.74l-0.77-1.16h-11.34l-0.87,1.41c-0.54,0.86,0,1.38,0.83,1.49l2.03,0.25v2.5H128.62 M140.47,10.04
				h7.17l-3.62-5.69L140.47,10.04"/>
			<path class="st1" d="M118.02,0.49H99.74V3l2.3,0.23c0.85,0.13,1.19,0.75,1.19,1.58c0,0.83,0,9.21,0,9.94
				c0,0.69-0.29,1.34-1.05,1.45l-2.46,0.32v2.42l18.29,0.01c8.42,0,12.04-4.09,12.04-9.5C130.06,4.6,126.44,0.49,118.02,0.49
				 M115.2,15.41h-4.71V4.02h4.71c4.49,0,6.39,1.04,6.39,5.68C121.59,14.38,119.7,15.41,115.2,15.41"/>
			<path class="st1" d="M0.48,18.95h14.79v-2.46l-2.53-0.29c-0.58-0.08-1.16-0.44-1.16-1.67v-2.97h11.38v2.82
				c0,0.84-0.14,1.63-1.13,1.74l-2.57,0.29v2.54h14.79v-2.54l-2.61-0.29c-0.51-0.07-1.09-0.48-1.09-1.52V5
				c0-0.98,0.36-1.64,1.12-1.71L34.05,3V0.49H19.26v2.48l2.57,0.32c0.87,0.11,1.13,0.8,1.13,1.71v2.87H11.58V4.96
				c0-1.09,0.43-1.6,1.19-1.67L15.27,3V0.49H0.51V3l2.47,0.29c0.98,0.11,1.23,0.83,1.2,1.77v9.36c0,1.04-0.29,1.67-1.23,1.78
				l-2.47,0.29V18.95"/>
			<path class="st1" d="M34.78,9.63c0-5.79,4.68-9.86,15.12-9.86c10.37,0,15.05,4.06,15.05,9.86c0,5.95-4.68,9.97-15.05,9.97
				C39.46,19.6,34.78,15.58,34.78,9.63 M49.86,3.33c-4.2,0-6.59,1.56-6.59,6.34c0,4.86,2.39,6.42,6.59,6.42c4.2,0,6.6-1.56,6.6-6.42
				C56.46,4.89,54.07,3.33,49.86,3.33"/>
			<path class="st1" d="M65.77,18.95h11.82v-2.46l-2.54-0.29c-0.72-0.08-1.16-0.69-1.16-1.52V5.29l9.83,12.94
				c0.33,0.43,0.94,0.72,1.53,0.72h9.27V4.96c0-0.66,0.17-1.55,1.12-1.67L98.21,3V0.49H86.4v2.48l2.58,0.32
				c0.9,0.11,1.12,0.87,1.12,1.74v9.14L80.34,1.3c-0.36-0.47-0.83-0.81-1.52-0.81H65.77V3l2.47,0.29c0.87,0.13,1.2,0.57,1.2,1.77
				v9.36c0,1.11-0.3,1.64-1.23,1.78l-2.43,0.29V18.95"/>
		</g>
		<g>
			<polygon class="st2" points="6.47,26.82 10.21,26.82 10.21,34.5 11.57,34.5 11.57,26.82 15.27,26.82 15.27,25.8 6.47,25.8 			"/>
			<path class="st2" d="M20.73,27.69c-1.19,0-2.17,0.48-2.76,1.34V25.8h-1.31v8.7h1.31v-3.1c0-2.08,1.33-2.82,2.57-2.82
				c1.31,0,2.01,0.76,2.01,2.2v3.71h1.31v-3.77C23.85,28.77,22.74,27.69,20.73,27.69z"/>
			<path class="st2" d="M52.67,28.37c-0.7-0.63-1.72-0.95-3.06-0.95c-1.27,0-2.31,0.34-3.02,1c-0.68,0.63-1.05,1.53-1.05,2.62
				c0,1.15,0.35,2.05,1.05,2.67c0.7,0.63,1.71,0.94,3.02,0.94c2.63,0,4.08-1.28,4.08-3.62C53.7,29.88,53.35,28.99,52.67,28.37z
				 M52.32,31.03c0,0.77-0.24,1.43-0.69,1.9c-0.48,0.5-1.17,0.77-2.01,0.77c-0.83,0-1.53-0.27-2-0.77c-0.45-0.47-0.68-1.13-0.68-1.9
				c0-1.67,1-2.67,2.68-2.67C51.33,28.37,52.32,29.34,52.32,31.03z"/>
			<path class="st2" d="M91.66,28.37c-0.69-0.63-1.72-0.95-3.06-0.95c-1.27,0-2.32,0.34-3.03,1c-0.69,0.63-1.06,1.53-1.06,2.62
				c0,2.33,1.45,3.62,4.08,3.62c1.31,0,2.33-0.32,3.03-0.94c0.7-0.62,1.05-1.52,1.05-2.67C92.69,29.88,92.34,28.99,91.66,28.37z
				 M86.6,29.11c0.47-0.49,1.16-0.74,2.01-0.74c1.72,0,2.71,0.97,2.71,2.67c0,0.76-0.24,1.42-0.7,1.9c-0.48,0.5-1.18,0.77-2.01,0.77
				c-1.64,0-2.7-1.05-2.7-2.67C85.91,30.24,86.15,29.58,86.6,29.11z"/>
			<path class="st2" d="M118.05,27.51c-1.31,0.1-2.01,0.93-2.45,1.74v-1.68h-1.17v6.94h1.33v-3.65c0.03-0.67,0.29-1.22,0.76-1.63
				c0.47-0.41,1.06-0.62,1.78-0.62l0.64-0.01v-1.08l-0.02,0C118.72,27.49,118.2,27.5,118.05,27.51z"/>
			<path class="st2" d="M41,25.79c-0.01,0-3.96,0.01-3.96,0.01v8.7h1.35v-3.34h2.79c1.17,0,2.08-0.26,2.7-0.78
				c0.57-0.48,0.87-1.17,0.87-2c0-0.69-0.21-1.25-0.63-1.67C43.51,26.1,42.46,25.79,41,25.79z M43.31,28.39
				c0,1.23-0.7,1.78-2.25,1.78h-2.67v-3.38h2.58C42.57,26.79,43.31,27.3,43.31,28.39z"/>
			<path class="st2" d="M111.34,26.93c-0.85-0.75-2.15-1.13-3.88-1.13h-3.88v8.71h3.93c1.61,0,2.87-0.38,3.74-1.13
				c0.87-0.76,1.32-1.84,1.32-3.24C112.57,28.73,112.15,27.65,111.34,26.93z M104.95,26.8h2.19c1.58,0,2.6,0.27,3.22,0.85
				c0.55,0.52,0.79,1.29,0.79,2.51c0,2.26-1.25,3.36-3.81,3.36h-2.39V26.8z"/>
			<path class="st2" d="M135.31,33.03v-2.88c0-0.72-0.02-1.32-0.72-1.92c-0.6-0.51-1.62-0.8-2.65-0.8c-1.05,0-2.84,0.3-3.18,1.74
				h1.43c0.21-0.46,0.88-0.81,1.75-0.81c1.24,0,2.09,0.55,2.09,1.61v0.23h-0.7c-0.12,0-0.26,0-0.4,0c-1.21,0-3.04,0.05-3.92,0.95
				c-0.33,0.34-0.5,0.77-0.5,1.28c0,1.3,1.12,2.21,2.77,2.21c1.3,0,2.09-0.22,2.8-1.17c0,0,0.01,0.59,0.07,1.03
				c0.15,0,1.26,0,1.26,0S135.31,33.75,135.31,33.03z M134.04,31.42c0,1.53-0.79,2.3-2.43,2.3c-1.11,0-1.72-0.47-1.72-1.29
				c0-0.28,0.09-0.52,0.28-0.71c0.54-0.54,1.7-0.6,2.57-0.6c0.14,0,0.27,0,0.39,0c0.09,0,0.18,0,0.26,0h0.64V31.42z"/>
			<path class="st2" d="M145.75,27.44c-1.45,0-2.18,0.92-2.52,1.67c-0.39-1.01-1.28-1.67-2.33-1.67c-1.1,0-1.92,0.53-2.42,1.45
				c0,0-0.01-0.64-0.06-1.32c-0.35,0-0.35,0-1.23,0c0.04,0.52,0.04,1.15,0.04,1.69v5.25h1.31v-3.34c0-1.9,1.05-2.77,2.08-2.77
				c1.08,0,1.58,0.82,1.58,2.57v3.53h1.3v-3.34c0-1.01,0.27-1.77,0.79-2.25c0.51-0.47,1.09-0.52,1.25-0.52
				c0.63,0,1.04,0.21,1.3,0.66c0.24,0.41,0.34,1.04,0.34,1.98v3.47h1.31v-3.98c0-1.04-0.26-1.84-0.78-2.35
				C147.25,27.71,146.59,27.44,145.75,27.44z"/>
			<path class="st2" d="M155.25,30.73l-2.18-0.45c-1.03-0.21-1.49-0.49-1.49-0.95c0-0.63,0.82-0.96,2-0.96c0.98,0,1.67,0.26,1.9,0.8
				h1.42c-0.1-0.61-0.44-1.05-1.04-1.34c-0.68-0.33-1.64-0.4-2.24-0.4c-0.92,0-1.7,0.17-2.26,0.49c-0.65,0.37-1.08,0.92-1.08,1.62
				c0,0.92,0.67,1.47,1.9,1.74l2.06,0.44c0.71,0.15,1.44,0.35,1.44,0.95c0,0.72-0.76,1.07-2.12,1.07c-1.13,0-1.82-0.33-2.05-1h-1.43
				c0.27,1.59,1.93,1.92,3.32,1.92c2.47,0,3.67-0.71,3.67-2.17C157.06,31.51,156.54,31,155.25,30.73z"/>
			<path class="st2" d="M97.38,25.67c-0.71,0-1.33,0.07-1.85,0.5c-0.22,0.18-0.44,0.47-0.57,0.87c-0.12,0.37-0.15,0.76-0.17,1.41
				h-1.42v0.94h1.42l0,5.11h1.33V29.4h2.4v-0.94c0,0-2.14,0-2.4,0c0-0.97,0.05-1.28,0.33-1.55c0.19-0.18,0.47-0.3,1.11-0.3
				c0.38,0,0.79,0.04,1.04,0.12c0-0.14,0-0.85,0-0.96C98.25,25.71,97.85,25.67,97.38,25.67z"/>
			<path class="st2" d="M64.22,30.64c-0.26,0.84-0.54,1.78-0.88,2.95h-0.01c-0.28-0.94-0.58-1.91-0.88-2.88l-0.92-2.82l0-0.01H59.5
				l-0.92,2.83c-0.31,0.94-0.61,1.91-0.88,2.88h-0.01c-0.34-1.18-0.62-2.11-0.88-2.95l-0.86-2.75l0-0.01H54.5l2.15,6.62l0,0.01h2.02
				l0.95-2.87c0.08-0.24,0.15-0.49,0.23-0.73c0.22-0.69,0.44-1.4,0.65-2.11h0.01c0.22,0.74,0.46,1.49,0.68,2.21
				c0.07,0.21,0.13,0.42,0.2,0.64l0.95,2.85l0,0.01h2.02l2.14-6.61l0.01-0.02h-1.45L64.22,30.64z"/>
			<path class="st2" d="M80.01,27.51c-1.31,0.1-2.01,0.93-2.45,1.74v-1.68h-1.17v6.94h1.33v-3.65c0.03-0.67,0.29-1.22,0.76-1.63
				c0.47-0.41,1.06-0.62,1.78-0.62l0.64-0.01v-1.08l-0.02,0C80.67,27.49,80.16,27.5,80.01,27.51z"/>
			<path class="st2" d="M73.7,28.38c-0.61-0.61-1.5-0.96-2.64-0.96c-2.38,0-3.75,1.39-3.75,3.74c0,1.04,0.34,1.91,0.97,2.51
				c0.65,0.61,1.62,0.98,2.77,0.98c0.87,0,1.66-0.22,2.24-0.55c0.56-0.32,1.02-0.77,1.21-1.37h-1.45c-0.35,0.65-1.13,0.99-2.07,0.99
				c-0.96,0-1.69-0.44-2.08-1.22c-0.16-0.31-0.27-0.71-0.3-1.1h6.02V31C74.62,29.87,74.31,28.99,73.7,28.38z M68.63,30.47
				c0.01-0.12,0.04-0.26,0.07-0.39c0.28-1.12,1.1-1.73,2.33-1.73c1.59,0,2.19,1.11,2.22,2.12H68.63z"/>
			<path class="st2" d="M126.01,28.38c-0.61-0.61-1.5-0.96-2.64-0.96c-2.38,0-3.75,1.39-3.75,3.74c0,1.04,0.34,1.91,0.98,2.51
				c0.65,0.61,1.62,0.98,2.77,0.98c0.87,0,1.66-0.22,2.24-0.55c0.56-0.32,1.02-0.77,1.21-1.37h-1.45c-0.35,0.65-1.13,0.99-2.07,0.99
				c-0.96,0-1.69-0.44-2.08-1.22c-0.16-0.31-0.27-0.71-0.3-1.1c0,0,5.84,0,6.02,0c0.01-0.23,0.01-0.49-0.03-0.87
				C126.84,29.88,126.66,29.03,126.01,28.38z M120.94,30.47c0.01-0.12,0.04-0.26,0.07-0.39c0.28-1.12,1.1-1.73,2.33-1.73
				c1.59,0,2.19,1.11,2.22,2.12H120.94z"/>
			<path class="st2" d="M31.82,28.38c-0.61-0.61-1.5-0.96-2.64-0.96c-2.38,0-3.75,1.39-3.75,3.74c0,1.04,0.34,1.91,0.98,2.51
				c0.65,0.61,1.62,0.98,2.77,0.98c0.87,0,1.66-0.22,2.24-0.55c0.56-0.32,1.02-0.77,1.21-1.37h-1.45c-0.35,0.65-1.13,0.99-2.07,0.99
				c-0.96,0-1.69-0.44-2.08-1.22c-0.16-0.31-0.27-0.71-0.3-1.1h6.02V31C32.74,29.87,32.43,28.99,31.82,28.38z M26.75,30.47
				c0.01-0.12,0.04-0.26,0.07-0.39c0.28-1.12,1.1-1.73,2.33-1.73c1.59,0,2.19,1.11,2.22,2.12H26.75z"/>
		</g>
	</g>
</g>
</svg>
