<svg width="10" height="10" viewBox="0 0 10 10" fill="none" xmlns="http://www.w3.org/2000/svg">
<path d="M9.21387 5.05906V4.84646C9.22543 2.44882 7.34104 0.5 5.00578 0.5C2.67052 0.5 0.786127 2.46063 0.786127 4.85827V5.07087C0.312139 5.3189 0 5.81496 0 6.38189V8.03543C0 8.83858 0.647399 9.5 1.43353 9.5H2.57803C2.91329 9.5 3.17919 9.21654 3.17919 8.88583V5.51969C3.17919 5.17717 2.90173 4.90551 2.57803 4.90551H2V4.84646C2 3.13386 3.34104 1.72835 5.00578 1.72835C6.67052 1.72835 8.01156 3.13386 8.01156 4.84646V4.90551H7.43353C7.09827 4.90551 6.83237 5.18898 6.83237 5.51969V8.87402C6.83237 9.21654 7.10983 9.48819 7.43353 9.48819H8.56647C9.3526 9.48819 10 8.82677 10 8.02362V6.37008C10 5.80315 9.68786 5.30709 9.21387 5.05906Z" fill="#1DA1F2"/>
</svg>
