<?xml version="1.0" encoding="UTF-8"?>
<svg width="171px" height="171px" viewBox="0 0 171 171" version="1.1" xmlns="http://www.w3.org/2000/svg" xmlns:xlink="http://www.w3.org/1999/xlink">
    <!-- Generator: sketchtool 58 (101010) - https://sketch.com -->
    <title>8A716EDA-5710-4E36-AFB8-D0AFB9130991</title>
    <desc>Created with sketchtool.</desc>
    <g id="Page-1" stroke="none" stroke-width="1" fill="none" fill-rule="evenodd">
        <g id="Desktop-assets-exported" transform="translate(-150.000000, -3127.000000)" fill="#D2D2D2">
            <path d="M153,3292 C154.656854,3292 156,3293.34315 156,3295 C156,3296.65685 154.656854,3298 153,3298 C151.343146,3298 150,3296.65685 150,3295 C150,3293.34315 151.343146,3292 153,3292 Z M164,3292 C165.656854,3292 167,3293.34315 167,3295 C167,3296.65685 165.656854,3298 164,3298 C162.343146,3298 161,3296.65685 161,3295 C161,3293.34315 162.343146,3292 164,3292 Z M175,3292 C176.656854,3292 178,3293.34315 178,3295 C178,3296.65685 176.656854,3298 175,3298 C173.343146,3298 172,3296.65685 172,3295 C172,3293.34315 173.343146,3292 175,3292 Z M186,3292 C187.656854,3292 189,3293.34315 189,3295 C189,3296.65685 187.656854,3298 186,3298 C184.343146,3298 183,3296.65685 183,3295 C183,3293.34315 184.343146,3292 186,3292 Z M197,3292 C198.656854,3292 200,3293.34315 200,3295 C200,3296.65685 198.656854,3298 197,3298 C195.343146,3298 194,3296.65685 194,3295 C194,3293.34315 195.343146,3292 197,3292 Z M208,3292 C209.656854,3292 211,3293.34315 211,3295 C211,3296.65685 209.656854,3298 208,3298 C206.343146,3298 205,3296.65685 205,3295 C205,3293.34315 206.343146,3292 208,3292 Z M219,3292 C220.656854,3292 222,3293.34315 222,3295 C222,3296.65685 220.656854,3298 219,3298 C217.343146,3298 216,3296.65685 216,3295 C216,3293.34315 217.343146,3292 219,3292 Z M230,3292 C231.656854,3292 233,3293.34315 233,3295 C233,3296.65685 231.656854,3298 230,3298 C228.343146,3298 227,3296.65685 227,3295 C227,3293.34315 228.343146,3292 230,3292 Z M241,3292 C242.656854,3292 244,3293.34315 244,3295 C244,3296.65685 242.656854,3298 241,3298 C239.343146,3298 238,3296.65685 238,3295 C238,3293.34315 239.343146,3292 241,3292 Z M252,3292 C253.656854,3292 255,3293.34315 255,3295 C255,3296.65685 253.656854,3298 252,3298 C250.343146,3298 249,3296.65685 249,3295 C249,3293.34315 250.343146,3292 252,3292 Z M263,3292 C264.656854,3292 266,3293.34315 266,3295 C266,3296.65685 264.656854,3298 263,3298 C261.343146,3298 260,3296.65685 260,3295 C260,3293.34315 261.343146,3292 263,3292 Z M274,3292 C275.656854,3292 277,3293.34315 277,3295 C277,3296.65685 275.656854,3298 274,3298 C272.343146,3298 271,3296.65685 271,3295 C271,3293.34315 272.343146,3292 274,3292 Z M285,3292 C286.656854,3292 288,3293.34315 288,3295 C288,3296.65685 286.656854,3298 285,3298 C283.343146,3298 282,3296.65685 282,3295 C282,3293.34315 283.343146,3292 285,3292 Z M296,3292 C297.656854,3292 299,3293.34315 299,3295 C299,3296.65685 297.656854,3298 296,3298 C294.343146,3298 293,3296.65685 293,3295 C293,3293.34315 294.343146,3292 296,3292 Z M307,3292 C308.656854,3292 310,3293.34315 310,3295 C310,3296.65685 308.656854,3298 307,3298 C305.343146,3298 304,3296.65685 304,3295 C304,3293.34315 305.343146,3292 307,3292 Z M318,3292 C319.656854,3292 321,3293.34315 321,3295 C321,3296.65685 319.656854,3298 318,3298 C316.343146,3298 315,3296.65685 315,3295 C315,3293.34315 316.343146,3292 318,3292 Z M241,3281 C242.656854,3281 244,3282.34315 244,3284 C244,3285.65685 242.656854,3287 241,3287 C239.343146,3287 238,3285.65685 238,3284 C238,3282.34315 239.343146,3281 241,3281 Z M252,3281 C253.656854,3281 255,3282.34315 255,3284 C255,3285.65685 253.656854,3287 252,3287 C250.343146,3287 249,3285.65685 249,3284 C249,3282.34315 250.343146,3281 252,3281 Z M263,3281 C264.656854,3281 266,3282.34315 266,3284 C266,3285.65685 264.656854,3287 263,3287 C261.343146,3287 260,3285.65685 260,3284 C260,3282.34315 261.343146,3281 263,3281 Z M274,3281 C275.656854,3281 277,3282.34315 277,3284 C277,3285.65685 275.656854,3287 274,3287 C272.343146,3287 271,3285.65685 271,3284 C271,3282.34315 272.343146,3281 274,3281 Z M285,3281 C286.656854,3281 288,3282.34315 288,3284 C288,3285.65685 286.656854,3287 285,3287 C283.343146,3287 282,3285.65685 282,3284 C282,3282.34315 283.343146,3281 285,3281 Z M296,3281 C297.656854,3281 299,3282.34315 299,3284 C299,3285.65685 297.656854,3287 296,3287 C294.343146,3287 293,3285.65685 293,3284 C293,3282.34315 294.343146,3281 296,3281 Z M307,3281 C308.656854,3281 310,3282.34315 310,3284 C310,3285.65685 308.656854,3287 307,3287 C305.343146,3287 304,3285.65685 304,3284 C304,3282.34315 305.343146,3281 307,3281 Z M318,3281 C319.656854,3281 321,3282.34315 321,3284 C321,3285.65685 319.656854,3287 318,3287 C316.343146,3287 315,3285.65685 315,3284 C315,3282.34315 316.343146,3281 318,3281 Z M153,3281 C154.656854,3281 156,3282.34315 156,3284 C156,3285.65685 154.656854,3287 153,3287 C151.343146,3287 150,3285.65685 150,3284 C150,3282.34315 151.343146,3281 153,3281 Z M164,3281 C165.656854,3281 167,3282.34315 167,3284 C167,3285.65685 165.656854,3287 164,3287 C162.343146,3287 161,3285.65685 161,3284 C161,3282.34315 162.343146,3281 164,3281 Z M175,3281 C176.656854,3281 178,3282.34315 178,3284 C178,3285.65685 176.656854,3287 175,3287 C173.343146,3287 172,3285.65685 172,3284 C172,3282.34315 173.343146,3281 175,3281 Z M186,3281 C187.656854,3281 189,3282.34315 189,3284 C189,3285.65685 187.656854,3287 186,3287 C184.343146,3287 183,3285.65685 183,3284 C183,3282.34315 184.343146,3281 186,3281 Z M197,3281 C198.656854,3281 200,3282.34315 200,3284 C200,3285.65685 198.656854,3287 197,3287 C195.343146,3287 194,3285.65685 194,3284 C194,3282.34315 195.343146,3281 197,3281 Z M208,3281 C209.656854,3281 211,3282.34315 211,3284 C211,3285.65685 209.656854,3287 208,3287 C206.343146,3287 205,3285.65685 205,3284 C205,3282.34315 206.343146,3281 208,3281 Z M219,3281 C220.656854,3281 222,3282.34315 222,3284 C222,3285.65685 220.656854,3287 219,3287 C217.343146,3287 216,3285.65685 216,3284 C216,3282.34315 217.343146,3281 219,3281 Z M230,3281 C231.656854,3281 233,3282.34315 233,3284 C233,3285.65685 231.656854,3287 230,3287 C228.343146,3287 227,3285.65685 227,3284 C227,3282.34315 228.343146,3281 230,3281 Z M153,3270 C154.656854,3270 156,3271.34315 156,3273 C156,3274.65685 154.656854,3276 153,3276 C151.343146,3276 150,3274.65685 150,3273 C150,3271.34315 151.343146,3270 153,3270 Z M164,3270 C165.656854,3270 167,3271.34315 167,3273 C167,3274.65685 165.656854,3276 164,3276 C162.343146,3276 161,3274.65685 161,3273 C161,3271.34315 162.343146,3270 164,3270 Z M175,3270 C176.656854,3270 178,3271.34315 178,3273 C178,3274.65685 176.656854,3276 175,3276 C173.343146,3276 172,3274.65685 172,3273 C172,3271.34315 173.343146,3270 175,3270 Z M186,3270 C187.656854,3270 189,3271.34315 189,3273 C189,3274.65685 187.656854,3276 186,3276 C184.343146,3276 183,3274.65685 183,3273 C183,3271.34315 184.343146,3270 186,3270 Z M197,3270 C198.656854,3270 200,3271.34315 200,3273 C200,3274.65685 198.656854,3276 197,3276 C195.343146,3276 194,3274.65685 194,3273 C194,3271.34315 195.343146,3270 197,3270 Z M208,3270 C209.656854,3270 211,3271.34315 211,3273 C211,3274.65685 209.656854,3276 208,3276 C206.343146,3276 205,3274.65685 205,3273 C205,3271.34315 206.343146,3270 208,3270 Z M219,3270 C220.656854,3270 222,3271.34315 222,3273 C222,3274.65685 220.656854,3276 219,3276 C217.343146,3276 216,3274.65685 216,3273 C216,3271.34315 217.343146,3270 219,3270 Z M230,3270 C231.656854,3270 233,3271.34315 233,3273 C233,3274.65685 231.656854,3276 230,3276 C228.343146,3276 227,3274.65685 227,3273 C227,3271.34315 228.343146,3270 230,3270 Z M241,3270 C242.656854,3270 244,3271.34315 244,3273 C244,3274.65685 242.656854,3276 241,3276 C239.343146,3276 238,3274.65685 238,3273 C238,3271.34315 239.343146,3270 241,3270 Z M252,3270 C253.656854,3270 255,3271.34315 255,3273 C255,3274.65685 253.656854,3276 252,3276 C250.343146,3276 249,3274.65685 249,3273 C249,3271.34315 250.343146,3270 252,3270 Z M263,3270 C264.656854,3270 266,3271.34315 266,3273 C266,3274.65685 264.656854,3276 263,3276 C261.343146,3276 260,3274.65685 260,3273 C260,3271.34315 261.343146,3270 263,3270 Z M274,3270 C275.656854,3270 277,3271.34315 277,3273 C277,3274.65685 275.656854,3276 274,3276 C272.343146,3276 271,3274.65685 271,3273 C271,3271.34315 272.343146,3270 274,3270 Z M285,3270 C286.656854,3270 288,3271.34315 288,3273 C288,3274.65685 286.656854,3276 285,3276 C283.343146,3276 282,3274.65685 282,3273 C282,3271.34315 283.343146,3270 285,3270 Z M296,3270 C297.656854,3270 299,3271.34315 299,3273 C299,3274.65685 297.656854,3276 296,3276 C294.343146,3276 293,3274.65685 293,3273 C293,3271.34315 294.343146,3270 296,3270 Z M307,3270 C308.656854,3270 310,3271.34315 310,3273 C310,3274.65685 308.656854,3276 307,3276 C305.343146,3276 304,3274.65685 304,3273 C304,3271.34315 305.343146,3270 307,3270 Z M318,3270 C319.656854,3270 321,3271.34315 321,3273 C321,3274.65685 319.656854,3276 318,3276 C316.343146,3276 315,3274.65685 315,3273 C315,3271.34315 316.343146,3270 318,3270 Z M241,3259 C242.656854,3259 244,3260.34315 244,3262 C244,3263.65685 242.656854,3265 241,3265 C239.343146,3265 238,3263.65685 238,3262 C238,3260.34315 239.343146,3259 241,3259 Z M263,3259 C264.656854,3259 266,3260.34315 266,3262 C266,3263.65685 264.656854,3265 263,3265 C261.343146,3265 260,3263.65685 260,3262 C260,3260.34315 261.343146,3259 263,3259 Z M274,3259 C275.656854,3259 277,3260.34315 277,3262 C277,3263.65685 275.656854,3265 274,3265 C272.343146,3265 271,3263.65685 271,3262 C271,3260.34315 272.343146,3259 274,3259 Z M285,3259 C286.656854,3259 288,3260.34315 288,3262 C288,3263.65685 286.656854,3265 285,3265 C283.343146,3265 282,3263.65685 282,3262 C282,3260.34315 283.343146,3259 285,3259 Z M296,3259 C297.656854,3259 299,3260.34315 299,3262 C299,3263.65685 297.656854,3265 296,3265 C294.343146,3265 293,3263.65685 293,3262 C293,3260.34315 294.343146,3259 296,3259 Z M307,3259 C308.656854,3259 310,3260.34315 310,3262 C310,3263.65685 308.656854,3265 307,3265 C305.343146,3265 304,3263.65685 304,3262 C304,3260.34315 305.343146,3259 307,3259 Z M318,3259 C319.656854,3259 321,3260.34315 321,3262 C321,3263.65685 319.656854,3265 318,3265 C316.343146,3265 315,3263.65685 315,3262 C315,3260.34315 316.343146,3259 318,3259 Z M153,3259 C154.656854,3259 156,3260.34315 156,3262 C156,3263.65685 154.656854,3265 153,3265 C151.343146,3265 150,3263.65685 150,3262 C150,3260.34315 151.343146,3259 153,3259 Z M164,3259 C165.656854,3259 167,3260.34315 167,3262 C167,3263.65685 165.656854,3265 164,3265 C162.343146,3265 161,3263.65685 161,3262 C161,3260.34315 162.343146,3259 164,3259 Z M175,3259 C176.656854,3259 178,3260.34315 178,3262 C178,3263.65685 176.656854,3265 175,3265 C173.343146,3265 172,3263.65685 172,3262 C172,3260.34315 173.343146,3259 175,3259 Z M186,3259 C187.656854,3259 189,3260.34315 189,3262 C189,3263.65685 187.656854,3265 186,3265 C184.343146,3265 183,3263.65685 183,3262 C183,3260.34315 184.343146,3259 186,3259 Z M197,3259 C198.656854,3259 200,3260.34315 200,3262 C200,3263.65685 198.656854,3265 197,3265 C195.343146,3265 194,3263.65685 194,3262 C194,3260.34315 195.343146,3259 197,3259 Z M208,3259 C209.656854,3259 211,3260.34315 211,3262 C211,3263.65685 209.656854,3265 208,3265 C206.343146,3265 205,3263.65685 205,3262 C205,3260.34315 206.343146,3259 208,3259 Z M219,3259 C220.656854,3259 222,3260.34315 222,3262 C222,3263.65685 220.656854,3265 219,3265 C217.343146,3265 216,3263.65685 216,3262 C216,3260.34315 217.343146,3259 219,3259 Z M230,3259 C231.656854,3259 233,3260.34315 233,3262 C233,3263.65685 231.656854,3265 230,3265 C228.343146,3265 227,3263.65685 227,3262 C227,3260.34315 228.343146,3259 230,3259 Z M252,3259 C253.656854,3259 255,3260.34315 255,3262 C255,3263.65685 253.656854,3265 252,3265 C250.343146,3265 249,3263.65685 249,3262 C249,3260.34315 250.343146,3259 252,3259 Z M219,3248 C220.656854,3248 222,3249.34315 222,3251 C222,3252.65685 220.656854,3254 219,3254 C217.343146,3254 216,3252.65685 216,3251 C216,3249.34315 217.343146,3248 219,3248 Z M164,3248 C165.656854,3248 167,3249.34315 167,3251 C167,3252.65685 165.656854,3254 164,3254 C162.343146,3254 161,3252.65685 161,3251 C161,3249.34315 162.343146,3248 164,3248 Z M241,3248 C242.656854,3248 244,3249.34315 244,3251 C244,3252.65685 242.656854,3254 241,3254 C239.343146,3254 238,3252.65685 238,3251 C238,3249.34315 239.343146,3248 241,3248 Z M252,3248 C253.656854,3248 255,3249.34315 255,3251 C255,3252.65685 253.656854,3254 252,3254 C250.343146,3254 249,3252.65685 249,3251 C249,3249.34315 250.343146,3248 252,3248 Z M263,3248 C264.656854,3248 266,3249.34315 266,3251 C266,3252.65685 264.656854,3254 263,3254 C261.343146,3254 260,3252.65685 260,3251 C260,3249.34315 261.343146,3248 263,3248 Z M274,3248 C275.656854,3248 277,3249.34315 277,3251 C277,3252.65685 275.656854,3254 274,3254 C272.343146,3254 271,3252.65685 271,3251 C271,3249.34315 272.343146,3248 274,3248 Z M318,3248 C319.656854,3248 321,3249.34315 321,3251 C321,3252.65685 319.656854,3254 318,3254 C316.343146,3254 315,3252.65685 315,3251 C315,3249.34315 316.343146,3248 318,3248 Z M175,3248 C176.656854,3248 178,3249.34315 178,3251 C178,3252.65685 176.656854,3254 175,3254 C173.343146,3254 172,3252.65685 172,3251 C172,3249.34315 173.343146,3248 175,3248 Z M197,3248 C198.656854,3248 200,3249.34315 200,3251 C200,3252.65685 198.656854,3254 197,3254 C195.343146,3254 194,3252.65685 194,3251 C194,3249.34315 195.343146,3248 197,3248 Z M296,3248 C297.656854,3248 299,3249.34315 299,3251 C299,3252.65685 297.656854,3254 296,3254 C294.343146,3254 293,3252.65685 293,3251 C293,3249.34315 294.343146,3248 296,3248 Z M153,3248 C154.656854,3248 156,3249.34315 156,3251 C156,3252.65685 154.656854,3254 153,3254 C151.343146,3254 150,3252.65685 150,3251 C150,3249.34315 151.343146,3248 153,3248 Z M307,3248 C308.656854,3248 310,3249.34315 310,3251 C310,3252.65685 308.656854,3254 307,3254 C305.343146,3254 304,3252.65685 304,3251 C304,3249.34315 305.343146,3248 307,3248 Z M186,3248 C187.656854,3248 189,3249.34315 189,3251 C189,3252.65685 187.656854,3254 186,3254 C184.343146,3254 183,3252.65685 183,3251 C183,3249.34315 184.343146,3248 186,3248 Z M285,3248 C286.656854,3248 288,3249.34315 288,3251 C288,3252.65685 286.656854,3254 285,3254 C283.343146,3254 282,3252.65685 282,3251 C282,3249.34315 283.343146,3248 285,3248 Z M208,3248 C209.656854,3248 211,3249.34315 211,3251 C211,3252.65685 209.656854,3254 208,3254 C206.343146,3254 205,3252.65685 205,3251 C205,3249.34315 206.343146,3248 208,3248 Z M230,3248 C231.656854,3248 233,3249.34315 233,3251 C233,3252.65685 231.656854,3254 230,3254 C228.343146,3254 227,3252.65685 227,3251 C227,3249.34315 228.343146,3248 230,3248 Z M318,3237 C319.656854,3237 321,3238.34315 321,3240 C321,3241.65685 319.656854,3243 318,3243 C316.343146,3243 315,3241.65685 315,3240 C315,3238.34315 316.343146,3237 318,3237 Z M186,3237 C187.656854,3237 189,3238.34315 189,3240 C189,3241.65685 187.656854,3243 186,3243 C184.343146,3243 183,3241.65685 183,3240 C183,3238.34315 184.343146,3237 186,3237 Z M241,3237 C242.656854,3237 244,3238.34315 244,3240 C244,3241.65685 242.656854,3243 241,3243 C239.343146,3243 238,3241.65685 238,3240 C238,3238.34315 239.343146,3237 241,3237 Z M197,3237 C198.656854,3237 200,3238.34315 200,3240 C200,3241.65685 198.656854,3243 197,3243 C195.343146,3243 194,3241.65685 194,3240 C194,3238.34315 195.343146,3237 197,3237 Z M263,3237 C264.656854,3237 266,3238.34315 266,3240 C266,3241.65685 264.656854,3243 263,3243 C261.343146,3243 260,3241.65685 260,3240 C260,3238.34315 261.343146,3237 263,3237 Z M208,3237 C209.656854,3237 211,3238.34315 211,3240 C211,3241.65685 209.656854,3243 208,3243 C206.343146,3243 205,3241.65685 205,3240 C205,3238.34315 206.343146,3237 208,3237 Z M285,3237 C286.656854,3237 288,3238.34315 288,3240 C288,3241.65685 286.656854,3243 285,3243 C283.343146,3243 282,3241.65685 282,3240 C282,3238.34315 283.343146,3237 285,3237 Z M175,3237 C176.656854,3237 178,3238.34315 178,3240 C178,3241.65685 176.656854,3243 175,3243 C173.343146,3243 172,3241.65685 172,3240 C172,3238.34315 173.343146,3237 175,3237 Z M307,3237 C308.656854,3237 310,3238.34315 310,3240 C310,3241.65685 308.656854,3243 307,3243 C305.343146,3243 304,3241.65685 304,3240 C304,3238.34315 305.343146,3237 307,3237 Z M252,3237 C253.656854,3237 255,3238.34315 255,3240 C255,3241.65685 253.656854,3243 252,3243 C250.343146,3243 249,3241.65685 249,3240 C249,3238.34315 250.343146,3237 252,3237 Z M219,3237 C220.656854,3237 222,3238.34315 222,3240 C222,3241.65685 220.656854,3243 219,3243 C217.343146,3243 216,3241.65685 216,3240 C216,3238.34315 217.343146,3237 219,3237 Z M274,3237 C275.656854,3237 277,3238.34315 277,3240 C277,3241.65685 275.656854,3243 274,3243 C272.343146,3243 271,3241.65685 271,3240 C271,3238.34315 272.343146,3237 274,3237 Z M164,3237 C165.656854,3237 167,3238.34315 167,3240 C167,3241.65685 165.656854,3243 164,3243 C162.343146,3243 161,3241.65685 161,3240 C161,3238.34315 162.343146,3237 164,3237 Z M296,3237 C297.656854,3237 299,3238.34315 299,3240 C299,3241.65685 297.656854,3243 296,3243 C294.343146,3243 293,3241.65685 293,3240 C293,3238.34315 294.343146,3237 296,3237 Z M153,3237 C154.656854,3237 156,3238.34315 156,3240 C156,3241.65685 154.656854,3243 153,3243 C151.343146,3243 150,3241.65685 150,3240 C150,3238.34315 151.343146,3237 153,3237 Z M230,3237 C231.656854,3237 233,3238.34315 233,3240 C233,3241.65685 231.656854,3243 230,3243 C228.343146,3243 227,3241.65685 227,3240 C227,3238.34315 228.343146,3237 230,3237 Z M230,3226 C231.656854,3226 233,3227.34315 233,3229 C233,3230.65685 231.656854,3232 230,3232 C228.343146,3232 227,3230.65685 227,3229 C227,3227.34315 228.343146,3226 230,3226 Z M296,3226 C297.656854,3226 299,3227.34315 299,3229 C299,3230.65685 297.656854,3232 296,3232 C294.343146,3232 293,3230.65685 293,3229 C293,3227.34315 294.343146,3226 296,3226 Z M318,3226 C319.656854,3226 321,3227.34315 321,3229 C321,3230.65685 319.656854,3232 318,3232 C316.343146,3232 315,3230.65685 315,3229 C315,3227.34315 316.343146,3226 318,3226 Z M241,3226 C242.656854,3226 244,3227.34315 244,3229 C244,3230.65685 242.656854,3232 241,3232 C239.343146,3232 238,3230.65685 238,3229 C238,3227.34315 239.343146,3226 241,3226 Z M208,3226 C209.656854,3226 211,3227.34315 211,3229 C211,3230.65685 209.656854,3232 208,3232 C206.343146,3232 205,3230.65685 205,3229 C205,3227.34315 206.343146,3226 208,3226 Z M263,3226 C264.656854,3226 266,3227.34315 266,3229 C266,3230.65685 264.656854,3232 263,3232 C261.343146,3232 260,3230.65685 260,3229 C260,3227.34315 261.343146,3226 263,3226 Z M219,3226 C220.656854,3226 222,3227.34315 222,3229 C222,3230.65685 220.656854,3232 219,3232 C217.343146,3232 216,3230.65685 216,3229 C216,3227.34315 217.343146,3226 219,3226 Z M285,3226 C286.656854,3226 288,3227.34315 288,3229 C288,3230.65685 286.656854,3232 285,3232 C283.343146,3232 282,3230.65685 282,3229 C282,3227.34315 283.343146,3226 285,3226 Z M197,3226 C198.656854,3226 200,3227.34315 200,3229 C200,3230.65685 198.656854,3232 197,3232 C195.343146,3232 194,3230.65685 194,3229 C194,3227.34315 195.343146,3226 197,3226 Z M153,3226 C154.656854,3226 156,3227.34315 156,3229 C156,3230.65685 154.656854,3232 153,3232 C151.343146,3232 150,3230.65685 150,3229 C150,3227.34315 151.343146,3226 153,3226 Z M164,3226 C165.656854,3226 167,3227.34315 167,3229 C167,3230.65685 165.656854,3232 164,3232 C162.343146,3232 161,3230.65685 161,3229 C161,3227.34315 162.343146,3226 164,3226 Z M175,3226 C176.656854,3226 178,3227.34315 178,3229 C178,3230.65685 176.656854,3232 175,3232 C173.343146,3232 172,3230.65685 172,3229 C172,3227.34315 173.343146,3226 175,3226 Z M252,3226 C253.656854,3226 255,3227.34315 255,3229 C255,3230.65685 253.656854,3232 252,3232 C250.343146,3232 249,3230.65685 249,3229 C249,3227.34315 250.343146,3226 252,3226 Z M274,3226 C275.656854,3226 277,3227.34315 277,3229 C277,3230.65685 275.656854,3232 274,3232 C272.343146,3232 271,3230.65685 271,3229 C271,3227.34315 272.343146,3226 274,3226 Z M307,3226 C308.656854,3226 310,3227.34315 310,3229 C310,3230.65685 308.656854,3232 307,3232 C305.343146,3232 304,3230.65685 304,3229 C304,3227.34315 305.343146,3226 307,3226 Z M186,3226 C187.656854,3226 189,3227.34315 189,3229 C189,3230.65685 187.656854,3232 186,3232 C184.343146,3232 183,3230.65685 183,3229 C183,3227.34315 184.343146,3226 186,3226 Z M252,3215 C253.656854,3215 255,3216.34315 255,3218 C255,3219.65685 253.656854,3221 252,3221 C250.343146,3221 249,3219.65685 249,3218 C249,3216.34315 250.343146,3215 252,3215 Z M241,3215 C242.656854,3215 244,3216.34315 244,3218 C244,3219.65685 242.656854,3221 241,3221 C239.343146,3221 238,3219.65685 238,3218 C238,3216.34315 239.343146,3215 241,3215 Z M230,3215 C231.656854,3215 233,3216.34315 233,3218 C233,3219.65685 231.656854,3221 230,3221 C228.343146,3221 227,3219.65685 227,3218 C227,3216.34315 228.343146,3215 230,3215 Z M263,3215 C264.656854,3215 266,3216.34315 266,3218 C266,3219.65685 264.656854,3221 263,3221 C261.343146,3221 260,3219.65685 260,3218 C260,3216.34315 261.343146,3215 263,3215 Z M219,3215 C220.656854,3215 222,3216.34315 222,3218 C222,3219.65685 220.656854,3221 219,3221 C217.343146,3221 216,3219.65685 216,3218 C216,3216.34315 217.343146,3215 219,3215 Z M285,3215 C286.656854,3215 288,3216.34315 288,3218 C288,3219.65685 286.656854,3221 285,3221 C283.343146,3221 282,3219.65685 282,3218 C282,3216.34315 283.343146,3215 285,3215 Z M153,3215 C154.656854,3215 156,3216.34315 156,3218 C156,3219.65685 154.656854,3221 153,3221 C151.343146,3221 150,3219.65685 150,3218 C150,3216.34315 151.343146,3215 153,3215 Z M274,3215 C275.656854,3215 277,3216.34315 277,3218 C277,3219.65685 275.656854,3221 274,3221 C272.343146,3221 271,3219.65685 271,3218 C271,3216.34315 272.343146,3215 274,3215 Z M186,3215 C187.656854,3215 189,3216.34315 189,3218 C189,3219.65685 187.656854,3221 186,3221 C184.343146,3221 183,3219.65685 183,3218 C183,3216.34315 184.343146,3215 186,3215 Z M307,3215 C308.656854,3215 310,3216.34315 310,3218 C310,3219.65685 308.656854,3221 307,3221 C305.343146,3221 304,3219.65685 304,3218 C304,3216.34315 305.343146,3215 307,3215 Z M175,3215 C176.656854,3215 178,3216.34315 178,3218 C178,3219.65685 176.656854,3221 175,3221 C173.343146,3221 172,3219.65685 172,3218 C172,3216.34315 173.343146,3215 175,3215 Z M318,3215 C319.656854,3215 321,3216.34315 321,3218 C321,3219.65685 319.656854,3221 318,3221 C316.343146,3221 315,3219.65685 315,3218 C315,3216.34315 316.343146,3215 318,3215 Z M208,3215 C209.656854,3215 211,3216.34315 211,3218 C211,3219.65685 209.656854,3221 208,3221 C206.343146,3221 205,3219.65685 205,3218 C205,3216.34315 206.343146,3215 208,3215 Z M296,3215 C297.656854,3215 299,3216.34315 299,3218 C299,3219.65685 297.656854,3221 296,3221 C294.343146,3221 293,3219.65685 293,3218 C293,3216.34315 294.343146,3215 296,3215 Z M197,3215 C198.656854,3215 200,3216.34315 200,3218 C200,3219.65685 198.656854,3221 197,3221 C195.343146,3221 194,3219.65685 194,3218 C194,3216.34315 195.343146,3215 197,3215 Z M164,3215 C165.656854,3215 167,3216.34315 167,3218 C167,3219.65685 165.656854,3221 164,3221 C162.343146,3221 161,3219.65685 161,3218 C161,3216.34315 162.343146,3215 164,3215 Z M164,3204 C165.656854,3204 167,3205.34315 167,3207 C167,3208.65685 165.656854,3210 164,3210 C162.343146,3210 161,3208.65685 161,3207 C161,3205.34315 162.343146,3204 164,3204 Z M296,3204 C297.656854,3204 299,3205.34315 299,3207 C299,3208.65685 297.656854,3210 296,3210 C294.343146,3210 293,3208.65685 293,3207 C293,3205.34315 294.343146,3204 296,3204 Z M186,3204 C187.656854,3204 189,3205.34315 189,3207 C189,3208.65685 187.656854,3210 186,3210 C184.343146,3210 183,3208.65685 183,3207 C183,3205.34315 184.343146,3204 186,3204 Z M208,3204 C209.656854,3204 211,3205.34315 211,3207 C211,3208.65685 209.656854,3210 208,3210 C206.343146,3210 205,3208.65685 205,3207 C205,3205.34315 206.343146,3204 208,3204 Z M230,3204 C231.656854,3204 233,3205.34315 233,3207 C233,3208.65685 231.656854,3210 230,3210 C228.343146,3210 227,3208.65685 227,3207 C227,3205.34315 228.343146,3204 230,3204 Z M274,3204 C275.656854,3204 277,3205.34315 277,3207 C277,3208.65685 275.656854,3210 274,3210 C272.343146,3210 271,3208.65685 271,3207 C271,3205.34315 272.343146,3204 274,3204 Z M219,3204 C220.656854,3204 222,3205.34315 222,3207 C222,3208.65685 220.656854,3210 219,3210 C217.343146,3210 216,3208.65685 216,3207 C216,3205.34315 217.343146,3204 219,3204 Z M241,3204 C242.656854,3204 244,3205.34315 244,3207 C244,3208.65685 242.656854,3210 241,3210 C239.343146,3210 238,3208.65685 238,3207 C238,3205.34315 239.343146,3204 241,3204 Z M285,3204 C286.656854,3204 288,3205.34315 288,3207 C288,3208.65685 286.656854,3210 285,3210 C283.343146,3210 282,3208.65685 282,3207 C282,3205.34315 283.343146,3204 285,3204 Z M175,3204 C176.656854,3204 178,3205.34315 178,3207 C178,3208.65685 176.656854,3210 175,3210 C173.343146,3210 172,3208.65685 172,3207 C172,3205.34315 173.343146,3204 175,3204 Z M318,3204 C319.656854,3204 321,3205.34315 321,3207 C321,3208.65685 319.656854,3210 318,3210 C316.343146,3210 315,3208.65685 315,3207 C315,3205.34315 316.343146,3204 318,3204 Z M252,3204 C253.656854,3204 255,3205.34315 255,3207 C255,3208.65685 253.656854,3210 252,3210 C250.343146,3210 249,3208.65685 249,3207 C249,3205.34315 250.343146,3204 252,3204 Z M307,3204 C308.656854,3204 310,3205.34315 310,3207 C310,3208.65685 308.656854,3210 307,3210 C305.343146,3210 304,3208.65685 304,3207 C304,3205.34315 305.343146,3204 307,3204 Z M263,3204 C264.656854,3204 266,3205.34315 266,3207 C266,3208.65685 264.656854,3210 263,3210 C261.343146,3210 260,3208.65685 260,3207 C260,3205.34315 261.343146,3204 263,3204 Z M197,3204 C198.656854,3204 200,3205.34315 200,3207 C200,3208.65685 198.656854,3210 197,3210 C195.343146,3210 194,3208.65685 194,3207 C194,3205.34315 195.343146,3204 197,3204 Z M153,3204 C154.656854,3204 156,3205.34315 156,3207 C156,3208.65685 154.656854,3210 153,3210 C151.343146,3210 150,3208.65685 150,3207 C150,3205.34315 151.343146,3204 153,3204 Z M153,3193 C154.656854,3193 156,3194.34315 156,3196 C156,3197.65685 154.656854,3199 153,3199 C151.343146,3199 150,3197.65685 150,3196 C150,3194.34315 151.343146,3193 153,3193 Z M318,3193 C319.656854,3193 321,3194.34315 321,3196 C321,3197.65685 319.656854,3199 318,3199 C316.343146,3199 315,3197.65685 315,3196 C315,3194.34315 316.343146,3193 318,3193 Z M274,3193 C275.656854,3193 277,3194.34315 277,3196 C277,3197.65685 275.656854,3199 274,3199 C272.343146,3199 271,3197.65685 271,3196 C271,3194.34315 272.343146,3193 274,3193 Z M241,3193 C242.656854,3193 244,3194.34315 244,3196 C244,3197.65685 242.656854,3199 241,3199 C239.343146,3199 238,3197.65685 238,3196 C238,3194.34315 239.343146,3193 241,3193 Z M252,3193 C253.656854,3193 255,3194.34315 255,3196 C255,3197.65685 253.656854,3199 252,3199 C250.343146,3199 249,3197.65685 249,3196 C249,3194.34315 250.343146,3193 252,3193 Z M219,3193 C220.656854,3193 222,3194.34315 222,3196 C222,3197.65685 220.656854,3199 219,3199 C217.343146,3199 216,3197.65685 216,3196 C216,3194.34315 217.343146,3193 219,3193 Z M307,3193 C308.656854,3193 310,3194.34315 310,3196 C310,3197.65685 308.656854,3199 307,3199 C305.343146,3199 304,3197.65685 304,3196 C304,3194.34315 305.343146,3193 307,3193 Z M296,3193 C297.656854,3193 299,3194.34315 299,3196 C299,3197.65685 297.656854,3199 296,3199 C294.343146,3199 293,3197.65685 293,3196 C293,3194.34315 294.343146,3193 296,3193 Z M263,3193 C264.656854,3193 266,3194.34315 266,3196 C266,3197.65685 264.656854,3199 263,3199 C261.343146,3199 260,3197.65685 260,3196 C260,3194.34315 261.343146,3193 263,3193 Z M186,3193 C187.656854,3193 189,3194.34315 189,3196 C189,3197.65685 187.656854,3199 186,3199 C184.343146,3199 183,3197.65685 183,3196 C183,3194.34315 184.343146,3193 186,3193 Z M285,3193 C286.656854,3193 288,3194.34315 288,3196 C288,3197.65685 286.656854,3199 285,3199 C283.343146,3199 282,3197.65685 282,3196 C282,3194.34315 283.343146,3193 285,3193 Z M197,3193 C198.656854,3193 200,3194.34315 200,3196 C200,3197.65685 198.656854,3199 197,3199 C195.343146,3199 194,3197.65685 194,3196 C194,3194.34315 195.343146,3193 197,3193 Z M208,3193 C209.656854,3193 211,3194.34315 211,3196 C211,3197.65685 209.656854,3199 208,3199 C206.343146,3199 205,3197.65685 205,3196 C205,3194.34315 206.343146,3193 208,3193 Z M164,3193 C165.656854,3193 167,3194.34315 167,3196 C167,3197.65685 165.656854,3199 164,3199 C162.343146,3199 161,3197.65685 161,3196 C161,3194.34315 162.343146,3193 164,3193 Z M230,3193 C231.656854,3193 233,3194.34315 233,3196 C233,3197.65685 231.656854,3199 230,3199 C228.343146,3199 227,3197.65685 227,3196 C227,3194.34315 228.343146,3193 230,3193 Z M175,3193 C176.656854,3193 178,3194.34315 178,3196 C178,3197.65685 176.656854,3199 175,3199 C173.343146,3199 172,3197.65685 172,3196 C172,3194.34315 173.343146,3193 175,3193 Z M186,3182 C187.656854,3182 189,3183.34315 189,3185 C189,3186.65685 187.656854,3188 186,3188 C184.343146,3188 183,3186.65685 183,3185 C183,3183.34315 184.343146,3182 186,3182 Z M219,3182 C220.656854,3182 222,3183.34315 222,3185 C222,3186.65685 220.656854,3188 219,3188 C217.343146,3188 216,3186.65685 216,3185 C216,3183.34315 217.343146,3182 219,3182 Z M263,3182 C264.656854,3182 266,3183.34315 266,3185 C266,3186.65685 264.656854,3188 263,3188 C261.343146,3188 260,3186.65685 260,3185 C260,3183.34315 261.343146,3182 263,3182 Z M164,3182 C165.656854,3182 167,3183.34315 167,3185 C167,3186.65685 165.656854,3188 164,3188 C162.343146,3188 161,3186.65685 161,3185 C161,3183.34315 162.343146,3182 164,3182 Z M307,3182 C308.656854,3182 310,3183.34315 310,3185 C310,3186.65685 308.656854,3188 307,3188 C305.343146,3188 304,3186.65685 304,3185 C304,3183.34315 305.343146,3182 307,3182 Z M153,3182 C154.656854,3182 156,3183.34315 156,3185 C156,3186.65685 154.656854,3188 153,3188 C151.343146,3188 150,3186.65685 150,3185 C150,3183.34315 151.343146,3182 153,3182 Z M252,3182 C253.656854,3182 255,3183.34315 255,3185 C255,3186.65685 253.656854,3188 252,3188 C250.343146,3188 249,3186.65685 249,3185 C249,3183.34315 250.343146,3182 252,3182 Z M230,3182 C231.656854,3182 233,3183.34315 233,3185 C233,3186.65685 231.656854,3188 230,3188 C228.343146,3188 227,3186.65685 227,3185 C227,3183.34315 228.343146,3182 230,3182 Z M296,3182 C297.656854,3182 299,3183.34315 299,3185 C299,3186.65685 297.656854,3188 296,3188 C294.343146,3188 293,3186.65685 293,3185 C293,3183.34315 294.343146,3182 296,3182 Z M318,3182 C319.656854,3182 321,3183.34315 321,3185 C321,3186.65685 319.656854,3188 318,3188 C316.343146,3188 315,3186.65685 315,3185 C315,3183.34315 316.343146,3182 318,3182 Z M208,3182 C209.656854,3182 211,3183.34315 211,3185 C211,3186.65685 209.656854,3188 208,3188 C206.343146,3188 205,3186.65685 205,3185 C205,3183.34315 206.343146,3182 208,3182 Z M285,3182 C286.656854,3182 288,3183.34315 288,3185 C288,3186.65685 286.656854,3188 285,3188 C283.343146,3188 282,3186.65685 282,3185 C282,3183.34315 283.343146,3182 285,3182 Z M197,3182 C198.656854,3182 200,3183.34315 200,3185 C200,3186.65685 198.656854,3188 197,3188 C195.343146,3188 194,3186.65685 194,3185 C194,3183.34315 195.343146,3182 197,3182 Z M175,3182 C176.656854,3182 178,3183.34315 178,3185 C178,3186.65685 176.656854,3188 175,3188 C173.343146,3188 172,3186.65685 172,3185 C172,3183.34315 173.343146,3182 175,3182 Z M241,3182 C242.656854,3182 244,3183.34315 244,3185 C244,3186.65685 242.656854,3188 241,3188 C239.343146,3188 238,3186.65685 238,3185 C238,3183.34315 239.343146,3182 241,3182 Z M274,3182 C275.656854,3182 277,3183.34315 277,3185 C277,3186.65685 275.656854,3188 274,3188 C272.343146,3188 271,3186.65685 271,3185 C271,3183.34315 272.343146,3182 274,3182 Z M186,3171 C187.656854,3171 189,3172.34315 189,3174 C189,3175.65685 187.656854,3177 186,3177 C184.343146,3177 183,3175.65685 183,3174 C183,3172.34315 184.343146,3171 186,3171 Z M241,3171 C242.656854,3171 244,3172.34315 244,3174 C244,3175.65685 242.656854,3177 241,3177 C239.343146,3177 238,3175.65685 238,3174 C238,3172.34315 239.343146,3171 241,3171 Z M252,3171 C253.656854,3171 255,3172.34315 255,3174 C255,3175.65685 253.656854,3177 252,3177 C250.343146,3177 249,3175.65685 249,3174 C249,3172.34315 250.343146,3171 252,3171 Z M318,3171 C319.656854,3171 321,3172.34315 321,3174 C321,3175.65685 319.656854,3177 318,3177 C316.343146,3177 315,3175.65685 315,3174 C315,3172.34315 316.343146,3171 318,3171 Z M208,3171 C209.656854,3171 211,3172.34315 211,3174 C211,3175.65685 209.656854,3177 208,3177 C206.343146,3177 205,3175.65685 205,3174 C205,3172.34315 206.343146,3171 208,3171 Z M230,3171 C231.656854,3171 233,3172.34315 233,3174 C233,3175.65685 231.656854,3177 230,3177 C228.343146,3177 227,3175.65685 227,3174 C227,3172.34315 228.343146,3171 230,3171 Z M274,3171 C275.656854,3171 277,3172.34315 277,3174 C277,3175.65685 275.656854,3177 274,3177 C272.343146,3177 271,3175.65685 271,3174 C271,3172.34315 272.343146,3171 274,3171 Z M175,3171 C176.656854,3171 178,3172.34315 178,3174 C178,3175.65685 176.656854,3177 175,3177 C173.343146,3177 172,3175.65685 172,3174 C172,3172.34315 173.343146,3171 175,3171 Z M153,3171 C154.656854,3171 156,3172.34315 156,3174 C156,3175.65685 154.656854,3177 153,3177 C151.343146,3177 150,3175.65685 150,3174 C150,3172.34315 151.343146,3171 153,3171 Z M219,3171 C220.656854,3171 222,3172.34315 222,3174 C222,3175.65685 220.656854,3177 219,3177 C217.343146,3177 216,3175.65685 216,3174 C216,3172.34315 217.343146,3171 219,3171 Z M197,3171 C198.656854,3171 200,3172.34315 200,3174 C200,3175.65685 198.656854,3177 197,3177 C195.343146,3177 194,3175.65685 194,3174 C194,3172.34315 195.343146,3171 197,3171 Z M263,3171 C264.656854,3171 266,3172.34315 266,3174 C266,3175.65685 264.656854,3177 263,3177 C261.343146,3177 260,3175.65685 260,3174 C260,3172.34315 261.343146,3171 263,3171 Z M285,3171 C286.656854,3171 288,3172.34315 288,3174 C288,3175.65685 286.656854,3177 285,3177 C283.343146,3177 282,3175.65685 282,3174 C282,3172.34315 283.343146,3171 285,3171 Z M307,3171 C308.656854,3171 310,3172.34315 310,3174 C310,3175.65685 308.656854,3177 307,3177 C305.343146,3177 304,3175.65685 304,3174 C304,3172.34315 305.343146,3171 307,3171 Z M296,3171 C297.656854,3171 299,3172.34315 299,3174 C299,3175.65685 297.656854,3177 296,3177 C294.343146,3177 293,3175.65685 293,3174 C293,3172.34315 294.343146,3171 296,3171 Z M164,3171 C165.656854,3171 167,3172.34315 167,3174 C167,3175.65685 165.656854,3177 164,3177 C162.343146,3177 161,3175.65685 161,3174 C161,3172.34315 162.343146,3171 164,3171 Z M241,3160 C242.656854,3160 244,3161.34315 244,3163 C244,3164.65685 242.656854,3166 241,3166 C239.343146,3166 238,3164.65685 238,3163 C238,3161.34315 239.343146,3160 241,3160 Z M252,3160 C253.656854,3160 255,3161.34315 255,3163 C255,3164.65685 253.656854,3166 252,3166 C250.343146,3166 249,3164.65685 249,3163 C249,3161.34315 250.343146,3160 252,3160 Z M285,3160 C286.656854,3160 288,3161.34315 288,3163 C288,3164.65685 286.656854,3166 285,3166 C283.343146,3166 282,3164.65685 282,3163 C282,3161.34315 283.343146,3160 285,3160 Z M219,3160 C220.656854,3160 222,3161.34315 222,3163 C222,3164.65685 220.656854,3166 219,3166 C217.343146,3166 216,3164.65685 216,3163 C216,3161.34315 217.343146,3160 219,3160 Z M230,3160 C231.656854,3160 233,3161.34315 233,3163 C233,3164.65685 231.656854,3166 230,3166 C228.343146,3166 227,3164.65685 227,3163 C227,3161.34315 228.343146,3160 230,3160 Z M153,3160 C154.656854,3160 156,3161.34315 156,3163 C156,3164.65685 154.656854,3166 153,3166 C151.343146,3166 150,3164.65685 150,3163 C150,3161.34315 151.343146,3160 153,3160 Z M307,3160 C308.656854,3160 310,3161.34315 310,3163 C310,3164.65685 308.656854,3166 307,3166 C305.343146,3166 304,3164.65685 304,3163 C304,3161.34315 305.343146,3160 307,3160 Z M197,3160 C198.656854,3160 200,3161.34315 200,3163 C200,3164.65685 198.656854,3166 197,3166 C195.343146,3166 194,3164.65685 194,3163 C194,3161.34315 195.343146,3160 197,3160 Z M186,3160 C187.656854,3160 189,3161.34315 189,3163 C189,3164.65685 187.656854,3166 186,3166 C184.343146,3166 183,3164.65685 183,3163 C183,3161.34315 184.343146,3160 186,3160 Z M164,3160 C165.656854,3160 167,3161.34315 167,3163 C167,3164.65685 165.656854,3166 164,3166 C162.343146,3166 161,3164.65685 161,3163 C161,3161.34315 162.343146,3160 164,3160 Z M175,3160 C176.656854,3160 178,3161.34315 178,3163 C178,3164.65685 176.656854,3166 175,3166 C173.343146,3166 172,3164.65685 172,3163 C172,3161.34315 173.343146,3160 175,3160 Z M296,3160 C297.656854,3160 299,3161.34315 299,3163 C299,3164.65685 297.656854,3166 296,3166 C294.343146,3166 293,3164.65685 293,3163 C293,3161.34315 294.343146,3160 296,3160 Z M318,3160 C319.656854,3160 321,3161.34315 321,3163 C321,3164.65685 319.656854,3166 318,3166 C316.343146,3166 315,3164.65685 315,3163 C315,3161.34315 316.343146,3160 318,3160 Z M208,3160 C209.656854,3160 211,3161.34315 211,3163 C211,3164.65685 209.656854,3166 208,3166 C206.343146,3166 205,3164.65685 205,3163 C205,3161.34315 206.343146,3160 208,3160 Z M274,3160 C275.656854,3160 277,3161.34315 277,3163 C277,3164.65685 275.656854,3166 274,3166 C272.343146,3166 271,3164.65685 271,3163 C271,3161.34315 272.343146,3160 274,3160 Z M263,3160 C264.656854,3160 266,3161.34315 266,3163 C266,3164.65685 264.656854,3166 263,3166 C261.343146,3166 260,3164.65685 260,3163 C260,3161.34315 261.343146,3160 263,3160 Z M285,3149 C286.656854,3149 288,3150.34315 288,3152 C288,3153.65685 286.656854,3155 285,3155 C283.343146,3155 282,3153.65685 282,3152 C282,3150.34315 283.343146,3149 285,3149 Z M208,3149 C209.656854,3149 211,3150.34315 211,3152 C211,3153.65685 209.656854,3155 208,3155 C206.343146,3155 205,3153.65685 205,3152 C205,3150.34315 206.343146,3149 208,3149 Z M252,3149 C253.656854,3149 255,3150.34315 255,3152 C255,3153.65685 253.656854,3155 252,3155 C250.343146,3155 249,3153.65685 249,3152 C249,3150.34315 250.343146,3149 252,3149 Z M164,3149 C165.656854,3149 167,3150.34315 167,3152 C167,3153.65685 165.656854,3155 164,3155 C162.343146,3155 161,3153.65685 161,3152 C161,3150.34315 162.343146,3149 164,3149 Z M296,3149 C297.656854,3149 299,3150.34315 299,3152 C299,3153.65685 297.656854,3155 296,3155 C294.343146,3155 293,3153.65685 293,3152 C293,3150.34315 294.343146,3149 296,3149 Z M263,3149 C264.656854,3149 266,3150.34315 266,3152 C266,3153.65685 264.656854,3155 263,3155 C261.343146,3155 260,3153.65685 260,3152 C260,3150.34315 261.343146,3149 263,3149 Z M175,3149 C176.656854,3149 178,3150.34315 178,3152 C178,3153.65685 176.656854,3155 175,3155 C173.343146,3155 172,3153.65685 172,3152 C172,3150.34315 173.343146,3149 175,3149 Z M307,3149 C308.656854,3149 310,3150.34315 310,3152 C310,3153.65685 308.656854,3155 307,3155 C305.343146,3155 304,3153.65685 304,3152 C304,3150.34315 305.343146,3149 307,3149 Z M153,3149 C154.656854,3149 156,3150.34315 156,3152 C156,3153.65685 154.656854,3155 153,3155 C151.343146,3155 150,3153.65685 150,3152 C150,3150.34315 151.343146,3149 153,3149 Z M197,3149 C198.656854,3149 200,3150.34315 200,3152 C200,3153.65685 198.656854,3155 197,3155 C195.343146,3155 194,3153.65685 194,3152 C194,3150.34315 195.343146,3149 197,3149 Z M219,3149 C220.656854,3149 222,3150.34315 222,3152 C222,3153.65685 220.656854,3155 219,3155 C217.343146,3155 216,3153.65685 216,3152 C216,3150.34315 217.343146,3149 219,3149 Z M318,3149 C319.656854,3149 321,3150.34315 321,3152 C321,3153.65685 319.656854,3155 318,3155 C316.343146,3155 315,3153.65685 315,3152 C315,3150.34315 316.343146,3149 318,3149 Z M230,3149 C231.656854,3149 233,3150.34315 233,3152 C233,3153.65685 231.656854,3155 230,3155 C228.343146,3155 227,3153.65685 227,3152 C227,3150.34315 228.343146,3149 230,3149 Z M186,3149 C187.656854,3149 189,3150.34315 189,3152 C189,3153.65685 187.656854,3155 186,3155 C184.343146,3155 183,3153.65685 183,3152 C183,3150.34315 184.343146,3149 186,3149 Z M274,3149 C275.656854,3149 277,3150.34315 277,3152 C277,3153.65685 275.656854,3155 274,3155 C272.343146,3155 271,3153.65685 271,3152 C271,3150.34315 272.343146,3149 274,3149 Z M241,3149 C242.656854,3149 244,3150.34315 244,3152 C244,3153.65685 242.656854,3155 241,3155 C239.343146,3155 238,3153.65685 238,3152 C238,3150.34315 239.343146,3149 241,3149 Z M296,3138 C297.656854,3138 299,3139.34315 299,3141 C299,3142.65685 297.656854,3144 296,3144 C294.343146,3144 293,3142.65685 293,3141 C293,3139.34315 294.343146,3138 296,3138 Z M307,3138 C308.656854,3138 310,3139.34315 310,3141 C310,3142.65685 308.656854,3144 307,3144 C305.343146,3144 304,3142.65685 304,3141 C304,3139.34315 305.343146,3138 307,3138 Z M318,3138 C319.656854,3138 321,3139.34315 321,3141 C321,3142.65685 319.656854,3144 318,3144 C316.343146,3144 315,3142.65685 315,3141 C315,3139.34315 316.343146,3138 318,3138 Z M164,3138 C165.656854,3138 167,3139.34315 167,3141 C167,3142.65685 165.656854,3144 164,3144 C162.343146,3144 161,3142.65685 161,3141 C161,3139.34315 162.343146,3138 164,3138 Z M186,3138 C187.656854,3138 189,3139.34315 189,3141 C189,3142.65685 187.656854,3144 186,3144 C184.343146,3144 183,3142.65685 183,3141 C183,3139.34315 184.343146,3138 186,3138 Z M252,3138 C253.656854,3138 255,3139.34315 255,3141 C255,3142.65685 253.656854,3144 252,3144 C250.343146,3144 249,3142.65685 249,3141 C249,3139.34315 250.343146,3138 252,3138 Z M263,3138 C264.656854,3138 266,3139.34315 266,3141 C266,3142.65685 264.656854,3144 263,3144 C261.343146,3144 260,3142.65685 260,3141 C260,3139.34315 261.343146,3138 263,3138 Z M274,3138 C275.656854,3138 277,3139.34315 277,3141 C277,3142.65685 275.656854,3144 274,3144 C272.343146,3144 271,3142.65685 271,3141 C271,3139.34315 272.343146,3138 274,3138 Z M285,3138 C286.656854,3138 288,3139.34315 288,3141 C288,3142.65685 286.656854,3144 285,3144 C283.343146,3144 282,3142.65685 282,3141 C282,3139.34315 283.343146,3138 285,3138 Z M230,3138 C231.656854,3138 233,3139.34315 233,3141 C233,3142.65685 231.656854,3144 230,3144 C228.343146,3144 227,3142.65685 227,3141 C227,3139.34315 228.343146,3138 230,3138 Z M241,3138 C242.656854,3138 244,3139.34315 244,3141 C244,3142.65685 242.656854,3144 241,3144 C239.343146,3144 238,3142.65685 238,3141 C238,3139.34315 239.343146,3138 241,3138 Z M219,3138 C220.656854,3138 222,3139.34315 222,3141 C222,3142.65685 220.656854,3144 219,3144 C217.343146,3144 216,3142.65685 216,3141 C216,3139.34315 217.343146,3138 219,3138 Z M197,3138 C198.656854,3138 200,3139.34315 200,3141 C200,3142.65685 198.656854,3144 197,3144 C195.343146,3144 194,3142.65685 194,3141 C194,3139.34315 195.343146,3138 197,3138 Z M175,3138 C176.656854,3138 178,3139.34315 178,3141 C178,3142.65685 176.656854,3144 175,3144 C173.343146,3144 172,3142.65685 172,3141 C172,3139.34315 173.343146,3138 175,3138 Z M208,3138 C209.656854,3138 211,3139.34315 211,3141 C211,3142.65685 209.656854,3144 208,3144 C206.343146,3144 205,3142.65685 205,3141 C205,3139.34315 206.343146,3138 208,3138 Z M153,3138 C154.656854,3138 156,3139.34315 156,3141 C156,3142.65685 154.656854,3144 153,3144 C151.343146,3144 150,3142.65685 150,3141 C150,3139.34315 151.343146,3138 153,3138 Z M153,3127 C154.656854,3127 156,3128.34315 156,3130 C156,3131.65685 154.656854,3133 153,3133 C151.343146,3133 150,3131.65685 150,3130 C150,3128.34315 151.343146,3127 153,3127 Z M274,3127 C275.656854,3127 277,3128.34315 277,3130 C277,3131.65685 275.656854,3133 274,3133 C272.343146,3133 271,3131.65685 271,3130 C271,3128.34315 272.343146,3127 274,3127 Z M285,3127 C286.656854,3127 288,3128.34315 288,3130 C288,3131.65685 286.656854,3133 285,3133 C283.343146,3133 282,3131.65685 282,3130 C282,3128.34315 283.343146,3127 285,3127 Z M296,3127 C297.656854,3127 299,3128.34315 299,3130 C299,3131.65685 297.656854,3133 296,3133 C294.343146,3133 293,3131.65685 293,3130 C293,3128.34315 294.343146,3127 296,3127 Z M307,3127 C308.656854,3127 310,3128.34315 310,3130 C310,3131.65685 308.656854,3133 307,3133 C305.343146,3133 304,3131.65685 304,3130 C304,3128.34315 305.343146,3127 307,3127 Z M318,3127 C319.656854,3127 321,3128.34315 321,3130 C321,3131.65685 319.656854,3133 318,3133 C316.343146,3133 315,3131.65685 315,3130 C315,3128.34315 316.343146,3127 318,3127 Z M164,3127 C165.656854,3127 167,3128.34315 167,3130 C167,3131.65685 165.656854,3133 164,3133 C162.343146,3133 161,3131.65685 161,3130 C161,3128.34315 162.343146,3127 164,3127 Z M175,3127 C176.656854,3127 178,3128.34315 178,3130 C178,3131.65685 176.656854,3133 175,3133 C173.343146,3133 172,3131.65685 172,3130 C172,3128.34315 173.343146,3127 175,3127 Z M186,3127 C187.656854,3127 189,3128.34315 189,3130 C189,3131.65685 187.656854,3133 186,3133 C184.343146,3133 183,3131.65685 183,3130 C183,3128.34315 184.343146,3127 186,3127 Z M197,3127 C198.656854,3127 200,3128.34315 200,3130 C200,3131.65685 198.656854,3133 197,3133 C195.343146,3133 194,3131.65685 194,3130 C194,3128.34315 195.343146,3127 197,3127 Z M208,3127 C209.656854,3127 211,3128.34315 211,3130 C211,3131.65685 209.656854,3133 208,3133 C206.343146,3133 205,3131.65685 205,3130 C205,3128.34315 206.343146,3127 208,3127 Z M219,3127 C220.656854,3127 222,3128.34315 222,3130 C222,3131.65685 220.656854,3133 219,3133 C217.343146,3133 216,3131.65685 216,3130 C216,3128.34315 217.343146,3127 219,3127 Z M230,3127 C231.656854,3127 233,3128.34315 233,3130 C233,3131.65685 231.656854,3133 230,3133 C228.343146,3133 227,3131.65685 227,3130 C227,3128.34315 228.343146,3127 230,3127 Z M241,3127 C242.656854,3127 244,3128.34315 244,3130 C244,3131.65685 242.656854,3133 241,3133 C239.343146,3133 238,3131.65685 238,3130 C238,3128.34315 239.343146,3127 241,3127 Z M252,3127 C253.656854,3127 255,3128.34315 255,3130 C255,3131.65685 253.656854,3133 252,3133 C250.343146,3133 249,3131.65685 249,3130 C249,3128.34315 250.343146,3127 252,3127 Z M263,3127 C264.656854,3127 266,3128.34315 266,3130 C266,3131.65685 264.656854,3133 263,3133 C261.343146,3133 260,3131.65685 260,3130 C260,3128.34315 261.343146,3127 263,3127 Z" id="Combined-Shape-2"></path>
        </g>
    </g>
</svg>