<?xml version="1.0" encoding="UTF-8"?>
<svg width="171px" height="259px" viewBox="0 0 171 259" version="1.1" xmlns="http://www.w3.org/2000/svg" xmlns:xlink="http://www.w3.org/1999/xlink">
    <!-- Generator: sketchtool 58 (101010) - https://sketch.com -->
    <title>31B64F27-7580-4ED0-8DC0-9CFF604707D5</title>
    <desc>Created with sketchtool.</desc>
    <g id="Page-1" stroke="none" stroke-width="1" fill="none" fill-rule="evenodd">
        <g id="Desktop-assets-exported" transform="translate(-1068.000000, -3652.000000)" fill="#FAEFCA">
            <path d="M1071,3905 C1072.65685,3905 1074,3906.34315 1074,3908 C1074,3909.65685 1072.65685,3911 1071,3911 C1069.34315,3911 1068,3909.65685 1068,3908 C1068,3906.34315 1069.34315,3905 1071,3905 Z M1082,3905 C1083.65685,3905 1085,3906.34315 1085,3908 C1085,3909.65685 1083.65685,3911 1082,3911 C1080.34315,3911 1079,3909.65685 1079,3908 C1079,3906.34315 1080.34315,3905 1082,3905 Z M1093,3905 C1094.65685,3905 1096,3906.34315 1096,3908 C1096,3909.65685 1094.65685,3911 1093,3911 C1091.34315,3911 1090,3909.65685 1090,3908 C1090,3906.34315 1091.34315,3905 1093,3905 Z M1104,3905 C1105.65685,3905 1107,3906.34315 1107,3908 C1107,3909.65685 1105.65685,3911 1104,3911 C1102.34315,3911 1101,3909.65685 1101,3908 C1101,3906.34315 1102.34315,3905 1104,3905 Z M1115,3905 C1116.65685,3905 1118,3906.34315 1118,3908 C1118,3909.65685 1116.65685,3911 1115,3911 C1113.34315,3911 1112,3909.65685 1112,3908 C1112,3906.34315 1113.34315,3905 1115,3905 Z M1126,3905 C1127.65685,3905 1129,3906.34315 1129,3908 C1129,3909.65685 1127.65685,3911 1126,3911 C1124.34315,3911 1123,3909.65685 1123,3908 C1123,3906.34315 1124.34315,3905 1126,3905 Z M1137,3905 C1138.65685,3905 1140,3906.34315 1140,3908 C1140,3909.65685 1138.65685,3911 1137,3911 C1135.34315,3911 1134,3909.65685 1134,3908 C1134,3906.34315 1135.34315,3905 1137,3905 Z M1148,3905 C1149.65685,3905 1151,3906.34315 1151,3908 C1151,3909.65685 1149.65685,3911 1148,3911 C1146.34315,3911 1145,3909.65685 1145,3908 C1145,3906.34315 1146.34315,3905 1148,3905 Z M1159,3905 C1160.65685,3905 1162,3906.34315 1162,3908 C1162,3909.65685 1160.65685,3911 1159,3911 C1157.34315,3911 1156,3909.65685 1156,3908 C1156,3906.34315 1157.34315,3905 1159,3905 Z M1170,3905 C1171.65685,3905 1173,3906.34315 1173,3908 C1173,3909.65685 1171.65685,3911 1170,3911 C1168.34315,3911 1167,3909.65685 1167,3908 C1167,3906.34315 1168.34315,3905 1170,3905 Z M1181,3905 C1182.65685,3905 1184,3906.34315 1184,3908 C1184,3909.65685 1182.65685,3911 1181,3911 C1179.34315,3911 1178,3909.65685 1178,3908 C1178,3906.34315 1179.34315,3905 1181,3905 Z M1192,3905 C1193.65685,3905 1195,3906.34315 1195,3908 C1195,3909.65685 1193.65685,3911 1192,3911 C1190.34315,3911 1189,3909.65685 1189,3908 C1189,3906.34315 1190.34315,3905 1192,3905 Z M1203,3905 C1204.65685,3905 1206,3906.34315 1206,3908 C1206,3909.65685 1204.65685,3911 1203,3911 C1201.34315,3911 1200,3909.65685 1200,3908 C1200,3906.34315 1201.34315,3905 1203,3905 Z M1214,3905 C1215.65685,3905 1217,3906.34315 1217,3908 C1217,3909.65685 1215.65685,3911 1214,3911 C1212.34315,3911 1211,3909.65685 1211,3908 C1211,3906.34315 1212.34315,3905 1214,3905 Z M1225,3905 C1226.65685,3905 1228,3906.34315 1228,3908 C1228,3909.65685 1226.65685,3911 1225,3911 C1223.34315,3911 1222,3909.65685 1222,3908 C1222,3906.34315 1223.34315,3905 1225,3905 Z M1236,3905 C1237.65685,3905 1239,3906.34315 1239,3908 C1239,3909.65685 1237.65685,3911 1236,3911 C1234.34315,3911 1233,3909.65685 1233,3908 C1233,3906.34315 1234.34315,3905 1236,3905 Z M1159,3894 C1160.65685,3894 1162,3895.34315 1162,3897 C1162,3898.65685 1160.65685,3900 1159,3900 C1157.34315,3900 1156,3898.65685 1156,3897 C1156,3895.34315 1157.34315,3894 1159,3894 Z M1170,3894 C1171.65685,3894 1173,3895.34315 1173,3897 C1173,3898.65685 1171.65685,3900 1170,3900 C1168.34315,3900 1167,3898.65685 1167,3897 C1167,3895.34315 1168.34315,3894 1170,3894 Z M1181,3894 C1182.65685,3894 1184,3895.34315 1184,3897 C1184,3898.65685 1182.65685,3900 1181,3900 C1179.34315,3900 1178,3898.65685 1178,3897 C1178,3895.34315 1179.34315,3894 1181,3894 Z M1192,3894 C1193.65685,3894 1195,3895.34315 1195,3897 C1195,3898.65685 1193.65685,3900 1192,3900 C1190.34315,3900 1189,3898.65685 1189,3897 C1189,3895.34315 1190.34315,3894 1192,3894 Z M1203,3894 C1204.65685,3894 1206,3895.34315 1206,3897 C1206,3898.65685 1204.65685,3900 1203,3900 C1201.34315,3900 1200,3898.65685 1200,3897 C1200,3895.34315 1201.34315,3894 1203,3894 Z M1214,3894 C1215.65685,3894 1217,3895.34315 1217,3897 C1217,3898.65685 1215.65685,3900 1214,3900 C1212.34315,3900 1211,3898.65685 1211,3897 C1211,3895.34315 1212.34315,3894 1214,3894 Z M1225,3894 C1226.65685,3894 1228,3895.34315 1228,3897 C1228,3898.65685 1226.65685,3900 1225,3900 C1223.34315,3900 1222,3898.65685 1222,3897 C1222,3895.34315 1223.34315,3894 1225,3894 Z M1236,3894 C1237.65685,3894 1239,3895.34315 1239,3897 C1239,3898.65685 1237.65685,3900 1236,3900 C1234.34315,3900 1233,3898.65685 1233,3897 C1233,3895.34315 1234.34315,3894 1236,3894 Z M1071,3894 C1072.65685,3894 1074,3895.34315 1074,3897 C1074,3898.65685 1072.65685,3900 1071,3900 C1069.34315,3900 1068,3898.65685 1068,3897 C1068,3895.34315 1069.34315,3894 1071,3894 Z M1082,3894 C1083.65685,3894 1085,3895.34315 1085,3897 C1085,3898.65685 1083.65685,3900 1082,3900 C1080.34315,3900 1079,3898.65685 1079,3897 C1079,3895.34315 1080.34315,3894 1082,3894 Z M1093,3894 C1094.65685,3894 1096,3895.34315 1096,3897 C1096,3898.65685 1094.65685,3900 1093,3900 C1091.34315,3900 1090,3898.65685 1090,3897 C1090,3895.34315 1091.34315,3894 1093,3894 Z M1104,3894 C1105.65685,3894 1107,3895.34315 1107,3897 C1107,3898.65685 1105.65685,3900 1104,3900 C1102.34315,3900 1101,3898.65685 1101,3897 C1101,3895.34315 1102.34315,3894 1104,3894 Z M1115,3894 C1116.65685,3894 1118,3895.34315 1118,3897 C1118,3898.65685 1116.65685,3900 1115,3900 C1113.34315,3900 1112,3898.65685 1112,3897 C1112,3895.34315 1113.34315,3894 1115,3894 Z M1126,3894 C1127.65685,3894 1129,3895.34315 1129,3897 C1129,3898.65685 1127.65685,3900 1126,3900 C1124.34315,3900 1123,3898.65685 1123,3897 C1123,3895.34315 1124.34315,3894 1126,3894 Z M1137,3894 C1138.65685,3894 1140,3895.34315 1140,3897 C1140,3898.65685 1138.65685,3900 1137,3900 C1135.34315,3900 1134,3898.65685 1134,3897 C1134,3895.34315 1135.34315,3894 1137,3894 Z M1148,3894 C1149.65685,3894 1151,3895.34315 1151,3897 C1151,3898.65685 1149.65685,3900 1148,3900 C1146.34315,3900 1145,3898.65685 1145,3897 C1145,3895.34315 1146.34315,3894 1148,3894 Z M1071,3883 C1072.65685,3883 1074,3884.34315 1074,3886 C1074,3887.65685 1072.65685,3889 1071,3889 C1069.34315,3889 1068,3887.65685 1068,3886 C1068,3884.34315 1069.34315,3883 1071,3883 Z M1082,3883 C1083.65685,3883 1085,3884.34315 1085,3886 C1085,3887.65685 1083.65685,3889 1082,3889 C1080.34315,3889 1079,3887.65685 1079,3886 C1079,3884.34315 1080.34315,3883 1082,3883 Z M1093,3883 C1094.65685,3883 1096,3884.34315 1096,3886 C1096,3887.65685 1094.65685,3889 1093,3889 C1091.34315,3889 1090,3887.65685 1090,3886 C1090,3884.34315 1091.34315,3883 1093,3883 Z M1104,3883 C1105.65685,3883 1107,3884.34315 1107,3886 C1107,3887.65685 1105.65685,3889 1104,3889 C1102.34315,3889 1101,3887.65685 1101,3886 C1101,3884.34315 1102.34315,3883 1104,3883 Z M1115,3883 C1116.65685,3883 1118,3884.34315 1118,3886 C1118,3887.65685 1116.65685,3889 1115,3889 C1113.34315,3889 1112,3887.65685 1112,3886 C1112,3884.34315 1113.34315,3883 1115,3883 Z M1126,3883 C1127.65685,3883 1129,3884.34315 1129,3886 C1129,3887.65685 1127.65685,3889 1126,3889 C1124.34315,3889 1123,3887.65685 1123,3886 C1123,3884.34315 1124.34315,3883 1126,3883 Z M1137,3883 C1138.65685,3883 1140,3884.34315 1140,3886 C1140,3887.65685 1138.65685,3889 1137,3889 C1135.34315,3889 1134,3887.65685 1134,3886 C1134,3884.34315 1135.34315,3883 1137,3883 Z M1148,3883 C1149.65685,3883 1151,3884.34315 1151,3886 C1151,3887.65685 1149.65685,3889 1148,3889 C1146.34315,3889 1145,3887.65685 1145,3886 C1145,3884.34315 1146.34315,3883 1148,3883 Z M1159,3883 C1160.65685,3883 1162,3884.34315 1162,3886 C1162,3887.65685 1160.65685,3889 1159,3889 C1157.34315,3889 1156,3887.65685 1156,3886 C1156,3884.34315 1157.34315,3883 1159,3883 Z M1170,3883 C1171.65685,3883 1173,3884.34315 1173,3886 C1173,3887.65685 1171.65685,3889 1170,3889 C1168.34315,3889 1167,3887.65685 1167,3886 C1167,3884.34315 1168.34315,3883 1170,3883 Z M1181,3883 C1182.65685,3883 1184,3884.34315 1184,3886 C1184,3887.65685 1182.65685,3889 1181,3889 C1179.34315,3889 1178,3887.65685 1178,3886 C1178,3884.34315 1179.34315,3883 1181,3883 Z M1192,3883 C1193.65685,3883 1195,3884.34315 1195,3886 C1195,3887.65685 1193.65685,3889 1192,3889 C1190.34315,3889 1189,3887.65685 1189,3886 C1189,3884.34315 1190.34315,3883 1192,3883 Z M1203,3883 C1204.65685,3883 1206,3884.34315 1206,3886 C1206,3887.65685 1204.65685,3889 1203,3889 C1201.34315,3889 1200,3887.65685 1200,3886 C1200,3884.34315 1201.34315,3883 1203,3883 Z M1214,3883 C1215.65685,3883 1217,3884.34315 1217,3886 C1217,3887.65685 1215.65685,3889 1214,3889 C1212.34315,3889 1211,3887.65685 1211,3886 C1211,3884.34315 1212.34315,3883 1214,3883 Z M1225,3883 C1226.65685,3883 1228,3884.34315 1228,3886 C1228,3887.65685 1226.65685,3889 1225,3889 C1223.34315,3889 1222,3887.65685 1222,3886 C1222,3884.34315 1223.34315,3883 1225,3883 Z M1236,3883 C1237.65685,3883 1239,3884.34315 1239,3886 C1239,3887.65685 1237.65685,3889 1236,3889 C1234.34315,3889 1233,3887.65685 1233,3886 C1233,3884.34315 1234.34315,3883 1236,3883 Z M1159,3872 C1160.65685,3872 1162,3873.34315 1162,3875 C1162,3876.65685 1160.65685,3878 1159,3878 C1157.34315,3878 1156,3876.65685 1156,3875 C1156,3873.34315 1157.34315,3872 1159,3872 Z M1170,3872 C1171.65685,3872 1173,3873.34315 1173,3875 C1173,3876.65685 1171.65685,3878 1170,3878 C1168.34315,3878 1167,3876.65685 1167,3875 C1167,3873.34315 1168.34315,3872 1170,3872 Z M1181,3872 C1182.65685,3872 1184,3873.34315 1184,3875 C1184,3876.65685 1182.65685,3878 1181,3878 C1179.34315,3878 1178,3876.65685 1178,3875 C1178,3873.34315 1179.34315,3872 1181,3872 Z M1192,3872 C1193.65685,3872 1195,3873.34315 1195,3875 C1195,3876.65685 1193.65685,3878 1192,3878 C1190.34315,3878 1189,3876.65685 1189,3875 C1189,3873.34315 1190.34315,3872 1192,3872 Z M1203,3872 C1204.65685,3872 1206,3873.34315 1206,3875 C1206,3876.65685 1204.65685,3878 1203,3878 C1201.34315,3878 1200,3876.65685 1200,3875 C1200,3873.34315 1201.34315,3872 1203,3872 Z M1214,3872 C1215.65685,3872 1217,3873.34315 1217,3875 C1217,3876.65685 1215.65685,3878 1214,3878 C1212.34315,3878 1211,3876.65685 1211,3875 C1211,3873.34315 1212.34315,3872 1214,3872 Z M1225,3872 C1226.65685,3872 1228,3873.34315 1228,3875 C1228,3876.65685 1226.65685,3878 1225,3878 C1223.34315,3878 1222,3876.65685 1222,3875 C1222,3873.34315 1223.34315,3872 1225,3872 Z M1236,3872 C1237.65685,3872 1239,3873.34315 1239,3875 C1239,3876.65685 1237.65685,3878 1236,3878 C1234.34315,3878 1233,3876.65685 1233,3875 C1233,3873.34315 1234.34315,3872 1236,3872 Z M1071,3872 C1072.65685,3872 1074,3873.34315 1074,3875 C1074,3876.65685 1072.65685,3878 1071,3878 C1069.34315,3878 1068,3876.65685 1068,3875 C1068,3873.34315 1069.34315,3872 1071,3872 Z M1082,3872 C1083.65685,3872 1085,3873.34315 1085,3875 C1085,3876.65685 1083.65685,3878 1082,3878 C1080.34315,3878 1079,3876.65685 1079,3875 C1079,3873.34315 1080.34315,3872 1082,3872 Z M1093,3872 C1094.65685,3872 1096,3873.34315 1096,3875 C1096,3876.65685 1094.65685,3878 1093,3878 C1091.34315,3878 1090,3876.65685 1090,3875 C1090,3873.34315 1091.34315,3872 1093,3872 Z M1104,3872 C1105.65685,3872 1107,3873.34315 1107,3875 C1107,3876.65685 1105.65685,3878 1104,3878 C1102.34315,3878 1101,3876.65685 1101,3875 C1101,3873.34315 1102.34315,3872 1104,3872 Z M1115,3872 C1116.65685,3872 1118,3873.34315 1118,3875 C1118,3876.65685 1116.65685,3878 1115,3878 C1113.34315,3878 1112,3876.65685 1112,3875 C1112,3873.34315 1113.34315,3872 1115,3872 Z M1126,3872 C1127.65685,3872 1129,3873.34315 1129,3875 C1129,3876.65685 1127.65685,3878 1126,3878 C1124.34315,3878 1123,3876.65685 1123,3875 C1123,3873.34315 1124.34315,3872 1126,3872 Z M1137,3872 C1138.65685,3872 1140,3873.34315 1140,3875 C1140,3876.65685 1138.65685,3878 1137,3878 C1135.34315,3878 1134,3876.65685 1134,3875 C1134,3873.34315 1135.34315,3872 1137,3872 Z M1148,3872 C1149.65685,3872 1151,3873.34315 1151,3875 C1151,3876.65685 1149.65685,3878 1148,3878 C1146.34315,3878 1145,3876.65685 1145,3875 C1145,3873.34315 1146.34315,3872 1148,3872 Z M1225,3861 C1226.65685,3861 1228,3862.34315 1228,3864 C1228,3865.65685 1226.65685,3867 1225,3867 C1223.34315,3867 1222,3865.65685 1222,3864 C1222,3862.34315 1223.34315,3861 1225,3861 Z M1071,3861 C1072.65685,3861 1074,3862.34315 1074,3864 C1074,3865.65685 1072.65685,3867 1071,3867 C1069.34315,3867 1068,3865.65685 1068,3864 C1068,3862.34315 1069.34315,3861 1071,3861 Z M1082,3861 C1083.65685,3861 1085,3862.34315 1085,3864 C1085,3865.65685 1083.65685,3867 1082,3867 C1080.34315,3867 1079,3865.65685 1079,3864 C1079,3862.34315 1080.34315,3861 1082,3861 Z M1093,3861 C1094.65685,3861 1096,3862.34315 1096,3864 C1096,3865.65685 1094.65685,3867 1093,3867 C1091.34315,3867 1090,3865.65685 1090,3864 C1090,3862.34315 1091.34315,3861 1093,3861 Z M1104,3861 C1105.65685,3861 1107,3862.34315 1107,3864 C1107,3865.65685 1105.65685,3867 1104,3867 C1102.34315,3867 1101,3865.65685 1101,3864 C1101,3862.34315 1102.34315,3861 1104,3861 Z M1115,3861 C1116.65685,3861 1118,3862.34315 1118,3864 C1118,3865.65685 1116.65685,3867 1115,3867 C1113.34315,3867 1112,3865.65685 1112,3864 C1112,3862.34315 1113.34315,3861 1115,3861 Z M1126,3861 C1127.65685,3861 1129,3862.34315 1129,3864 C1129,3865.65685 1127.65685,3867 1126,3867 C1124.34315,3867 1123,3865.65685 1123,3864 C1123,3862.34315 1124.34315,3861 1126,3861 Z M1137,3861 C1138.65685,3861 1140,3862.34315 1140,3864 C1140,3865.65685 1138.65685,3867 1137,3867 C1135.34315,3867 1134,3865.65685 1134,3864 C1134,3862.34315 1135.34315,3861 1137,3861 Z M1148,3861 C1149.65685,3861 1151,3862.34315 1151,3864 C1151,3865.65685 1149.65685,3867 1148,3867 C1146.34315,3867 1145,3865.65685 1145,3864 C1145,3862.34315 1146.34315,3861 1148,3861 Z M1159,3861 C1160.65685,3861 1162,3862.34315 1162,3864 C1162,3865.65685 1160.65685,3867 1159,3867 C1157.34315,3867 1156,3865.65685 1156,3864 C1156,3862.34315 1157.34315,3861 1159,3861 Z M1170,3861 C1171.65685,3861 1173,3862.34315 1173,3864 C1173,3865.65685 1171.65685,3867 1170,3867 C1168.34315,3867 1167,3865.65685 1167,3864 C1167,3862.34315 1168.34315,3861 1170,3861 Z M1181,3861 C1182.65685,3861 1184,3862.34315 1184,3864 C1184,3865.65685 1182.65685,3867 1181,3867 C1179.34315,3867 1178,3865.65685 1178,3864 C1178,3862.34315 1179.34315,3861 1181,3861 Z M1192,3861 C1193.65685,3861 1195,3862.34315 1195,3864 C1195,3865.65685 1193.65685,3867 1192,3867 C1190.34315,3867 1189,3865.65685 1189,3864 C1189,3862.34315 1190.34315,3861 1192,3861 Z M1203,3861 C1204.65685,3861 1206,3862.34315 1206,3864 C1206,3865.65685 1204.65685,3867 1203,3867 C1201.34315,3867 1200,3865.65685 1200,3864 C1200,3862.34315 1201.34315,3861 1203,3861 Z M1214,3861 C1215.65685,3861 1217,3862.34315 1217,3864 C1217,3865.65685 1215.65685,3867 1214,3867 C1212.34315,3867 1211,3865.65685 1211,3864 C1211,3862.34315 1212.34315,3861 1214,3861 Z M1236,3861 C1237.65685,3861 1239,3862.34315 1239,3864 C1239,3865.65685 1237.65685,3867 1236,3867 C1234.34315,3867 1233,3865.65685 1233,3864 C1233,3862.34315 1234.34315,3861 1236,3861 Z M1225,3850 C1226.65685,3850 1228,3851.34315 1228,3853 C1228,3854.65685 1226.65685,3856 1225,3856 C1223.34315,3856 1222,3854.65685 1222,3853 C1222,3851.34315 1223.34315,3850 1225,3850 Z M1148,3850 C1149.65685,3850 1151,3851.34315 1151,3853 C1151,3854.65685 1149.65685,3856 1148,3856 C1146.34315,3856 1145,3854.65685 1145,3853 C1145,3851.34315 1146.34315,3850 1148,3850 Z M1071,3850 C1072.65685,3850 1074,3851.34315 1074,3853 C1074,3854.65685 1072.65685,3856 1071,3856 C1069.34315,3856 1068,3854.65685 1068,3853 C1068,3851.34315 1069.34315,3850 1071,3850 Z M1082,3850 C1083.65685,3850 1085,3851.34315 1085,3853 C1085,3854.65685 1083.65685,3856 1082,3856 C1080.34315,3856 1079,3854.65685 1079,3853 C1079,3851.34315 1080.34315,3850 1082,3850 Z M1093,3850 C1094.65685,3850 1096,3851.34315 1096,3853 C1096,3854.65685 1094.65685,3856 1093,3856 C1091.34315,3856 1090,3854.65685 1090,3853 C1090,3851.34315 1091.34315,3850 1093,3850 Z M1104,3850 C1105.65685,3850 1107,3851.34315 1107,3853 C1107,3854.65685 1105.65685,3856 1104,3856 C1102.34315,3856 1101,3854.65685 1101,3853 C1101,3851.34315 1102.34315,3850 1104,3850 Z M1115,3850 C1116.65685,3850 1118,3851.34315 1118,3853 C1118,3854.65685 1116.65685,3856 1115,3856 C1113.34315,3856 1112,3854.65685 1112,3853 C1112,3851.34315 1113.34315,3850 1115,3850 Z M1236,3850 C1237.65685,3850 1239,3851.34315 1239,3853 C1239,3854.65685 1237.65685,3856 1236,3856 C1234.34315,3856 1233,3854.65685 1233,3853 C1233,3851.34315 1234.34315,3850 1236,3850 Z M1137,3850 C1138.65685,3850 1140,3851.34315 1140,3853 C1140,3854.65685 1138.65685,3856 1137,3856 C1135.34315,3856 1134,3854.65685 1134,3853 C1134,3851.34315 1135.34315,3850 1137,3850 Z M1159,3850 C1160.65685,3850 1162,3851.34315 1162,3853 C1162,3854.65685 1160.65685,3856 1159,3856 C1157.34315,3856 1156,3854.65685 1156,3853 C1156,3851.34315 1157.34315,3850 1159,3850 Z M1170,3850 C1171.65685,3850 1173,3851.34315 1173,3853 C1173,3854.65685 1171.65685,3856 1170,3856 C1168.34315,3856 1167,3854.65685 1167,3853 C1167,3851.34315 1168.34315,3850 1170,3850 Z M1181,3850 C1182.65685,3850 1184,3851.34315 1184,3853 C1184,3854.65685 1182.65685,3856 1181,3856 C1179.34315,3856 1178,3854.65685 1178,3853 C1178,3851.34315 1179.34315,3850 1181,3850 Z M1192,3850 C1193.65685,3850 1195,3851.34315 1195,3853 C1195,3854.65685 1193.65685,3856 1192,3856 C1190.34315,3856 1189,3854.65685 1189,3853 C1189,3851.34315 1190.34315,3850 1192,3850 Z M1203,3850 C1204.65685,3850 1206,3851.34315 1206,3853 C1206,3854.65685 1204.65685,3856 1203,3856 C1201.34315,3856 1200,3854.65685 1200,3853 C1200,3851.34315 1201.34315,3850 1203,3850 Z M1214,3850 C1215.65685,3850 1217,3851.34315 1217,3853 C1217,3854.65685 1215.65685,3856 1214,3856 C1212.34315,3856 1211,3854.65685 1211,3853 C1211,3851.34315 1212.34315,3850 1214,3850 Z M1126,3850 C1127.65685,3850 1129,3851.34315 1129,3853 C1129,3854.65685 1127.65685,3856 1126,3856 C1124.34315,3856 1123,3854.65685 1123,3853 C1123,3851.34315 1124.34315,3850 1126,3850 Z M1214,3839 C1215.65685,3839 1217,3840.34315 1217,3842 C1217,3843.65685 1215.65685,3845 1214,3845 C1212.34315,3845 1211,3843.65685 1211,3842 C1211,3840.34315 1212.34315,3839 1214,3839 Z M1225,3839 C1226.65685,3839 1228,3840.34315 1228,3842 C1228,3843.65685 1226.65685,3845 1225,3845 C1223.34315,3845 1222,3843.65685 1222,3842 C1222,3840.34315 1223.34315,3839 1225,3839 Z M1236,3839 C1237.65685,3839 1239,3840.34315 1239,3842 C1239,3843.65685 1237.65685,3845 1236,3845 C1234.34315,3845 1233,3843.65685 1233,3842 C1233,3840.34315 1234.34315,3839 1236,3839 Z M1148,3839 C1149.65685,3839 1151,3840.34315 1151,3842 C1151,3843.65685 1149.65685,3845 1148,3845 C1146.34315,3845 1145,3843.65685 1145,3842 C1145,3840.34315 1146.34315,3839 1148,3839 Z M1071,3839 C1072.65685,3839 1074,3840.34315 1074,3842 C1074,3843.65685 1072.65685,3845 1071,3845 C1069.34315,3845 1068,3843.65685 1068,3842 C1068,3840.34315 1069.34315,3839 1071,3839 Z M1126,3839 C1127.65685,3839 1129,3840.34315 1129,3842 C1129,3843.65685 1127.65685,3845 1126,3845 C1124.34315,3845 1123,3843.65685 1123,3842 C1123,3840.34315 1124.34315,3839 1126,3839 Z M1137,3839 C1138.65685,3839 1140,3840.34315 1140,3842 C1140,3843.65685 1138.65685,3845 1137,3845 C1135.34315,3845 1134,3843.65685 1134,3842 C1134,3840.34315 1135.34315,3839 1137,3839 Z M1170,3839 C1171.65685,3839 1173,3840.34315 1173,3842 C1173,3843.65685 1171.65685,3845 1170,3845 C1168.34315,3845 1167,3843.65685 1167,3842 C1167,3840.34315 1168.34315,3839 1170,3839 Z M1192,3839 C1193.65685,3839 1195,3840.34315 1195,3842 C1195,3843.65685 1193.65685,3845 1192,3845 C1190.34315,3845 1189,3843.65685 1189,3842 C1189,3840.34315 1190.34315,3839 1192,3839 Z M1115,3839 C1116.65685,3839 1118,3840.34315 1118,3842 C1118,3843.65685 1116.65685,3845 1115,3845 C1113.34315,3845 1112,3843.65685 1112,3842 C1112,3840.34315 1113.34315,3839 1115,3839 Z M1159,3839 C1160.65685,3839 1162,3840.34315 1162,3842 C1162,3843.65685 1160.65685,3845 1159,3845 C1157.34315,3845 1156,3843.65685 1156,3842 C1156,3840.34315 1157.34315,3839 1159,3839 Z M1093,3839 C1094.65685,3839 1096,3840.34315 1096,3842 C1096,3843.65685 1094.65685,3845 1093,3845 C1091.34315,3845 1090,3843.65685 1090,3842 C1090,3840.34315 1091.34315,3839 1093,3839 Z M1181,3839 C1182.65685,3839 1184,3840.34315 1184,3842 C1184,3843.65685 1182.65685,3845 1181,3845 C1179.34315,3845 1178,3843.65685 1178,3842 C1178,3840.34315 1179.34315,3839 1181,3839 Z M1104,3839 C1105.65685,3839 1107,3840.34315 1107,3842 C1107,3843.65685 1105.65685,3845 1104,3845 C1102.34315,3845 1101,3843.65685 1101,3842 C1101,3840.34315 1102.34315,3839 1104,3839 Z M1203,3839 C1204.65685,3839 1206,3840.34315 1206,3842 C1206,3843.65685 1204.65685,3845 1203,3845 C1201.34315,3845 1200,3843.65685 1200,3842 C1200,3840.34315 1201.34315,3839 1203,3839 Z M1082,3839 C1083.65685,3839 1085,3840.34315 1085,3842 C1085,3843.65685 1083.65685,3845 1082,3845 C1080.34315,3845 1079,3843.65685 1079,3842 C1079,3840.34315 1080.34315,3839 1082,3839 Z M1104,3828 C1105.65685,3828 1107,3829.34315 1107,3831 C1107,3832.65685 1105.65685,3834 1104,3834 C1102.34315,3834 1101,3832.65685 1101,3831 C1101,3829.34315 1102.34315,3828 1104,3828 Z M1203,3828 C1204.65685,3828 1206,3829.34315 1206,3831 C1206,3832.65685 1204.65685,3834 1203,3834 C1201.34315,3834 1200,3832.65685 1200,3831 C1200,3829.34315 1201.34315,3828 1203,3828 Z M1071,3828 C1072.65685,3828 1074,3829.34315 1074,3831 C1074,3832.65685 1072.65685,3834 1071,3834 C1069.34315,3834 1068,3832.65685 1068,3831 C1068,3829.34315 1069.34315,3828 1071,3828 Z M1214,3828 C1215.65685,3828 1217,3829.34315 1217,3831 C1217,3832.65685 1215.65685,3834 1214,3834 C1212.34315,3834 1211,3832.65685 1211,3831 C1211,3829.34315 1212.34315,3828 1214,3828 Z M1126,3828 C1127.65685,3828 1129,3829.34315 1129,3831 C1129,3832.65685 1127.65685,3834 1126,3834 C1124.34315,3834 1123,3832.65685 1123,3831 C1123,3829.34315 1124.34315,3828 1126,3828 Z M1225,3828 C1226.65685,3828 1228,3829.34315 1228,3831 C1228,3832.65685 1226.65685,3834 1225,3834 C1223.34315,3834 1222,3832.65685 1222,3831 C1222,3829.34315 1223.34315,3828 1225,3828 Z M1148,3828 C1149.65685,3828 1151,3829.34315 1151,3831 C1151,3832.65685 1149.65685,3834 1148,3834 C1146.34315,3834 1145,3832.65685 1145,3831 C1145,3829.34315 1146.34315,3828 1148,3828 Z M1192,3828 C1193.65685,3828 1195,3829.34315 1195,3831 C1195,3832.65685 1193.65685,3834 1192,3834 C1190.34315,3834 1189,3832.65685 1189,3831 C1189,3829.34315 1190.34315,3828 1192,3828 Z M1093,3828 C1094.65685,3828 1096,3829.34315 1096,3831 C1096,3832.65685 1094.65685,3834 1093,3834 C1091.34315,3834 1090,3832.65685 1090,3831 C1090,3829.34315 1091.34315,3828 1093,3828 Z M1115,3828 C1116.65685,3828 1118,3829.34315 1118,3831 C1118,3832.65685 1116.65685,3834 1115,3834 C1113.34315,3834 1112,3832.65685 1112,3831 C1112,3829.34315 1113.34315,3828 1115,3828 Z M1159,3828 C1160.65685,3828 1162,3829.34315 1162,3831 C1162,3832.65685 1160.65685,3834 1159,3834 C1157.34315,3834 1156,3832.65685 1156,3831 C1156,3829.34315 1157.34315,3828 1159,3828 Z M1137,3828 C1138.65685,3828 1140,3829.34315 1140,3831 C1140,3832.65685 1138.65685,3834 1137,3834 C1135.34315,3834 1134,3832.65685 1134,3831 C1134,3829.34315 1135.34315,3828 1137,3828 Z M1181,3828 C1182.65685,3828 1184,3829.34315 1184,3831 C1184,3832.65685 1182.65685,3834 1181,3834 C1179.34315,3834 1178,3832.65685 1178,3831 C1178,3829.34315 1179.34315,3828 1181,3828 Z M1082,3828 C1083.65685,3828 1085,3829.34315 1085,3831 C1085,3832.65685 1083.65685,3834 1082,3834 C1080.34315,3834 1079,3832.65685 1079,3831 C1079,3829.34315 1080.34315,3828 1082,3828 Z M1170,3828 C1171.65685,3828 1173,3829.34315 1173,3831 C1173,3832.65685 1171.65685,3834 1170,3834 C1168.34315,3834 1167,3832.65685 1167,3831 C1167,3829.34315 1168.34315,3828 1170,3828 Z M1236,3828 C1237.65685,3828 1239,3829.34315 1239,3831 C1239,3832.65685 1237.65685,3834 1236,3834 C1234.34315,3834 1233,3832.65685 1233,3831 C1233,3829.34315 1234.34315,3828 1236,3828 Z M1137,3817 C1138.65685,3817 1140,3818.34315 1140,3820 C1140,3821.65685 1138.65685,3823 1137,3823 C1135.34315,3823 1134,3821.65685 1134,3820 C1134,3818.34315 1135.34315,3817 1137,3817 Z M1192,3817 C1193.65685,3817 1195,3818.34315 1195,3820 C1195,3821.65685 1193.65685,3823 1192,3823 C1190.34315,3823 1189,3821.65685 1189,3820 C1189,3818.34315 1190.34315,3817 1192,3817 Z M1071,3817 C1072.65685,3817 1074,3818.34315 1074,3820 C1074,3821.65685 1072.65685,3823 1071,3823 C1069.34315,3823 1068,3821.65685 1068,3820 C1068,3818.34315 1069.34315,3817 1071,3817 Z M1115,3817 C1116.65685,3817 1118,3818.34315 1118,3820 C1118,3821.65685 1116.65685,3823 1115,3823 C1113.34315,3823 1112,3821.65685 1112,3820 C1112,3818.34315 1113.34315,3817 1115,3817 Z M1126,3817 C1127.65685,3817 1129,3818.34315 1129,3820 C1129,3821.65685 1127.65685,3823 1126,3823 C1124.34315,3823 1123,3821.65685 1123,3820 C1123,3818.34315 1124.34315,3817 1126,3817 Z M1214,3817 C1215.65685,3817 1217,3818.34315 1217,3820 C1217,3821.65685 1215.65685,3823 1214,3823 C1212.34315,3823 1211,3821.65685 1211,3820 C1211,3818.34315 1212.34315,3817 1214,3817 Z M1236,3817 C1237.65685,3817 1239,3818.34315 1239,3820 C1239,3821.65685 1237.65685,3823 1236,3823 C1234.34315,3823 1233,3821.65685 1233,3820 C1233,3818.34315 1234.34315,3817 1236,3817 Z M1181,3817 C1182.65685,3817 1184,3818.34315 1184,3820 C1184,3821.65685 1182.65685,3823 1181,3823 C1179.34315,3823 1178,3821.65685 1178,3820 C1178,3818.34315 1179.34315,3817 1181,3817 Z M1104,3817 C1105.65685,3817 1107,3818.34315 1107,3820 C1107,3821.65685 1105.65685,3823 1104,3823 C1102.34315,3823 1101,3821.65685 1101,3820 C1101,3818.34315 1102.34315,3817 1104,3817 Z M1159,3817 C1160.65685,3817 1162,3818.34315 1162,3820 C1162,3821.65685 1160.65685,3823 1159,3823 C1157.34315,3823 1156,3821.65685 1156,3820 C1156,3818.34315 1157.34315,3817 1159,3817 Z M1082,3817 C1083.65685,3817 1085,3818.34315 1085,3820 C1085,3821.65685 1083.65685,3823 1082,3823 C1080.34315,3823 1079,3821.65685 1079,3820 C1079,3818.34315 1080.34315,3817 1082,3817 Z M1148,3817 C1149.65685,3817 1151,3818.34315 1151,3820 C1151,3821.65685 1149.65685,3823 1148,3823 C1146.34315,3823 1145,3821.65685 1145,3820 C1145,3818.34315 1146.34315,3817 1148,3817 Z M1225,3817 C1226.65685,3817 1228,3818.34315 1228,3820 C1228,3821.65685 1226.65685,3823 1225,3823 C1223.34315,3823 1222,3821.65685 1222,3820 C1222,3818.34315 1223.34315,3817 1225,3817 Z M1203,3817 C1204.65685,3817 1206,3818.34315 1206,3820 C1206,3821.65685 1204.65685,3823 1203,3823 C1201.34315,3823 1200,3821.65685 1200,3820 C1200,3818.34315 1201.34315,3817 1203,3817 Z M1093,3817 C1094.65685,3817 1096,3818.34315 1096,3820 C1096,3821.65685 1094.65685,3823 1093,3823 C1091.34315,3823 1090,3821.65685 1090,3820 C1090,3818.34315 1091.34315,3817 1093,3817 Z M1170,3817 C1171.65685,3817 1173,3818.34315 1173,3820 C1173,3821.65685 1171.65685,3823 1170,3823 C1168.34315,3823 1167,3821.65685 1167,3820 C1167,3818.34315 1168.34315,3817 1170,3817 Z M1159,3806 C1160.65685,3806 1162,3807.34315 1162,3809 C1162,3810.65685 1160.65685,3812 1159,3812 C1157.34315,3812 1156,3810.65685 1156,3809 C1156,3807.34315 1157.34315,3806 1159,3806 Z M1093,3806 C1094.65685,3806 1096,3807.34315 1096,3809 C1096,3810.65685 1094.65685,3812 1093,3812 C1091.34315,3812 1090,3810.65685 1090,3809 C1090,3807.34315 1091.34315,3806 1093,3806 Z M1104,3806 C1105.65685,3806 1107,3807.34315 1107,3809 C1107,3810.65685 1105.65685,3812 1104,3812 C1102.34315,3812 1101,3810.65685 1101,3809 C1101,3807.34315 1102.34315,3806 1104,3806 Z M1137,3806 C1138.65685,3806 1140,3807.34315 1140,3809 C1140,3810.65685 1138.65685,3812 1137,3812 C1135.34315,3812 1134,3810.65685 1134,3809 C1134,3807.34315 1135.34315,3806 1137,3806 Z M1115,3806 C1116.65685,3806 1118,3807.34315 1118,3809 C1118,3810.65685 1116.65685,3812 1115,3812 C1113.34315,3812 1112,3810.65685 1112,3809 C1112,3807.34315 1113.34315,3806 1115,3806 Z M1082,3806 C1083.65685,3806 1085,3807.34315 1085,3809 C1085,3810.65685 1083.65685,3812 1082,3812 C1080.34315,3812 1079,3810.65685 1079,3809 C1079,3807.34315 1080.34315,3806 1082,3806 Z M1148,3806 C1149.65685,3806 1151,3807.34315 1151,3809 C1151,3810.65685 1149.65685,3812 1148,3812 C1146.34315,3812 1145,3810.65685 1145,3809 C1145,3807.34315 1146.34315,3806 1148,3806 Z M1203,3806 C1204.65685,3806 1206,3807.34315 1206,3809 C1206,3810.65685 1204.65685,3812 1203,3812 C1201.34315,3812 1200,3810.65685 1200,3809 C1200,3807.34315 1201.34315,3806 1203,3806 Z M1225,3806 C1226.65685,3806 1228,3807.34315 1228,3809 C1228,3810.65685 1226.65685,3812 1225,3812 C1223.34315,3812 1222,3810.65685 1222,3809 C1222,3807.34315 1223.34315,3806 1225,3806 Z M1192,3806 C1193.65685,3806 1195,3807.34315 1195,3809 C1195,3810.65685 1193.65685,3812 1192,3812 C1190.34315,3812 1189,3810.65685 1189,3809 C1189,3807.34315 1190.34315,3806 1192,3806 Z M1126,3806 C1127.65685,3806 1129,3807.34315 1129,3809 C1129,3810.65685 1127.65685,3812 1126,3812 C1124.34315,3812 1123,3810.65685 1123,3809 C1123,3807.34315 1124.34315,3806 1126,3806 Z M1236,3806 C1237.65685,3806 1239,3807.34315 1239,3809 C1239,3810.65685 1237.65685,3812 1236,3812 C1234.34315,3812 1233,3810.65685 1233,3809 C1233,3807.34315 1234.34315,3806 1236,3806 Z M1170,3806 C1171.65685,3806 1173,3807.34315 1173,3809 C1173,3810.65685 1171.65685,3812 1170,3812 C1168.34315,3812 1167,3810.65685 1167,3809 C1167,3807.34315 1168.34315,3806 1170,3806 Z M1214,3806 C1215.65685,3806 1217,3807.34315 1217,3809 C1217,3810.65685 1215.65685,3812 1214,3812 C1212.34315,3812 1211,3810.65685 1211,3809 C1211,3807.34315 1212.34315,3806 1214,3806 Z M1071,3806 C1072.65685,3806 1074,3807.34315 1074,3809 C1074,3810.65685 1072.65685,3812 1071,3812 C1069.34315,3812 1068,3810.65685 1068,3809 C1068,3807.34315 1069.34315,3806 1071,3806 Z M1181,3806 C1182.65685,3806 1184,3807.34315 1184,3809 C1184,3810.65685 1182.65685,3812 1181,3812 C1179.34315,3812 1178,3810.65685 1178,3809 C1178,3807.34315 1179.34315,3806 1181,3806 Z M1148,3795 C1149.65685,3795 1151,3796.34315 1151,3798 C1151,3799.65685 1149.65685,3801 1148,3801 C1146.34315,3801 1145,3799.65685 1145,3798 C1145,3796.34315 1146.34315,3795 1148,3795 Z M1126,3795 C1127.65685,3795 1129,3796.34315 1129,3798 C1129,3799.65685 1127.65685,3801 1126,3801 C1124.34315,3801 1123,3799.65685 1123,3798 C1123,3796.34315 1124.34315,3795 1126,3795 Z M1115,3795 C1116.65685,3795 1118,3796.34315 1118,3798 C1118,3799.65685 1116.65685,3801 1115,3801 C1113.34315,3801 1112,3799.65685 1112,3798 C1112,3796.34315 1113.34315,3795 1115,3795 Z M1236,3795 C1237.65685,3795 1239,3796.34315 1239,3798 C1239,3799.65685 1237.65685,3801 1236,3801 C1234.34315,3801 1233,3799.65685 1233,3798 C1233,3796.34315 1234.34315,3795 1236,3795 Z M1181,3795 C1182.65685,3795 1184,3796.34315 1184,3798 C1184,3799.65685 1182.65685,3801 1181,3801 C1179.34315,3801 1178,3799.65685 1178,3798 C1178,3796.34315 1179.34315,3795 1181,3795 Z M1192,3795 C1193.65685,3795 1195,3796.34315 1195,3798 C1195,3799.65685 1193.65685,3801 1192,3801 C1190.34315,3801 1189,3799.65685 1189,3798 C1189,3796.34315 1190.34315,3795 1192,3795 Z M1203,3795 C1204.65685,3795 1206,3796.34315 1206,3798 C1206,3799.65685 1204.65685,3801 1203,3801 C1201.34315,3801 1200,3799.65685 1200,3798 C1200,3796.34315 1201.34315,3795 1203,3795 Z M1214,3795 C1215.65685,3795 1217,3796.34315 1217,3798 C1217,3799.65685 1215.65685,3801 1214,3801 C1212.34315,3801 1211,3799.65685 1211,3798 C1211,3796.34315 1212.34315,3795 1214,3795 Z M1137,3795 C1138.65685,3795 1140,3796.34315 1140,3798 C1140,3799.65685 1138.65685,3801 1137,3801 C1135.34315,3801 1134,3799.65685 1134,3798 C1134,3796.34315 1135.34315,3795 1137,3795 Z M1082,3795 C1083.65685,3795 1085,3796.34315 1085,3798 C1085,3799.65685 1083.65685,3801 1082,3801 C1080.34315,3801 1079,3799.65685 1079,3798 C1079,3796.34315 1080.34315,3795 1082,3795 Z M1159,3795 C1160.65685,3795 1162,3796.34315 1162,3798 C1162,3799.65685 1160.65685,3801 1159,3801 C1157.34315,3801 1156,3799.65685 1156,3798 C1156,3796.34315 1157.34315,3795 1159,3795 Z M1104,3795 C1105.65685,3795 1107,3796.34315 1107,3798 C1107,3799.65685 1105.65685,3801 1104,3801 C1102.34315,3801 1101,3799.65685 1101,3798 C1101,3796.34315 1102.34315,3795 1104,3795 Z M1170,3795 C1171.65685,3795 1173,3796.34315 1173,3798 C1173,3799.65685 1171.65685,3801 1170,3801 C1168.34315,3801 1167,3799.65685 1167,3798 C1167,3796.34315 1168.34315,3795 1170,3795 Z M1093,3795 C1094.65685,3795 1096,3796.34315 1096,3798 C1096,3799.65685 1094.65685,3801 1093,3801 C1091.34315,3801 1090,3799.65685 1090,3798 C1090,3796.34315 1091.34315,3795 1093,3795 Z M1225,3795 C1226.65685,3795 1228,3796.34315 1228,3798 C1228,3799.65685 1226.65685,3801 1225,3801 C1223.34315,3801 1222,3799.65685 1222,3798 C1222,3796.34315 1223.34315,3795 1225,3795 Z M1071,3795 C1072.65685,3795 1074,3796.34315 1074,3798 C1074,3799.65685 1072.65685,3801 1071,3801 C1069.34315,3801 1068,3799.65685 1068,3798 C1068,3796.34315 1069.34315,3795 1071,3795 Z M1170,3784 C1171.65685,3784 1173,3785.34315 1173,3787 C1173,3788.65685 1171.65685,3790 1170,3790 C1168.34315,3790 1167,3788.65685 1167,3787 C1167,3785.34315 1168.34315,3784 1170,3784 Z M1126,3784 C1127.65685,3784 1129,3785.34315 1129,3787 C1129,3788.65685 1127.65685,3790 1126,3790 C1124.34315,3790 1123,3788.65685 1123,3787 C1123,3785.34315 1124.34315,3784 1126,3784 Z M1137,3784 C1138.65685,3784 1140,3785.34315 1140,3787 C1140,3788.65685 1138.65685,3790 1137,3790 C1135.34315,3790 1134,3788.65685 1134,3787 C1134,3785.34315 1135.34315,3784 1137,3784 Z M1181,3784 C1182.65685,3784 1184,3785.34315 1184,3787 C1184,3788.65685 1182.65685,3790 1181,3790 C1179.34315,3790 1178,3788.65685 1178,3787 C1178,3785.34315 1179.34315,3784 1181,3784 Z M1159,3784 C1160.65685,3784 1162,3785.34315 1162,3787 C1162,3788.65685 1160.65685,3790 1159,3790 C1157.34315,3790 1156,3788.65685 1156,3787 C1156,3785.34315 1157.34315,3784 1159,3784 Z M1236,3784 C1237.65685,3784 1239,3785.34315 1239,3787 C1239,3788.65685 1237.65685,3790 1236,3790 C1234.34315,3790 1233,3788.65685 1233,3787 C1233,3785.34315 1234.34315,3784 1236,3784 Z M1104,3784 C1105.65685,3784 1107,3785.34315 1107,3787 C1107,3788.65685 1105.65685,3790 1104,3790 C1102.34315,3790 1101,3788.65685 1101,3787 C1101,3785.34315 1102.34315,3784 1104,3784 Z M1071,3784 C1072.65685,3784 1074,3785.34315 1074,3787 C1074,3788.65685 1072.65685,3790 1071,3790 C1069.34315,3790 1068,3788.65685 1068,3787 C1068,3785.34315 1069.34315,3784 1071,3784 Z M1082,3784 C1083.65685,3784 1085,3785.34315 1085,3787 C1085,3788.65685 1083.65685,3790 1082,3790 C1080.34315,3790 1079,3788.65685 1079,3787 C1079,3785.34315 1080.34315,3784 1082,3784 Z M1093,3784 C1094.65685,3784 1096,3785.34315 1096,3787 C1096,3788.65685 1094.65685,3790 1093,3790 C1091.34315,3790 1090,3788.65685 1090,3787 C1090,3785.34315 1091.34315,3784 1093,3784 Z M1148,3784 C1149.65685,3784 1151,3785.34315 1151,3787 C1151,3788.65685 1149.65685,3790 1148,3790 C1146.34315,3790 1145,3788.65685 1145,3787 C1145,3785.34315 1146.34315,3784 1148,3784 Z M1192,3784 C1193.65685,3784 1195,3785.34315 1195,3787 C1195,3788.65685 1193.65685,3790 1192,3790 C1190.34315,3790 1189,3788.65685 1189,3787 C1189,3785.34315 1190.34315,3784 1192,3784 Z M1203,3784 C1204.65685,3784 1206,3785.34315 1206,3787 C1206,3788.65685 1204.65685,3790 1203,3790 C1201.34315,3790 1200,3788.65685 1200,3787 C1200,3785.34315 1201.34315,3784 1203,3784 Z M1214,3784 C1215.65685,3784 1217,3785.34315 1217,3787 C1217,3788.65685 1215.65685,3790 1214,3790 C1212.34315,3790 1211,3788.65685 1211,3787 C1211,3785.34315 1212.34315,3784 1214,3784 Z M1225,3784 C1226.65685,3784 1228,3785.34315 1228,3787 C1228,3788.65685 1226.65685,3790 1225,3790 C1223.34315,3790 1222,3788.65685 1222,3787 C1222,3785.34315 1223.34315,3784 1225,3784 Z M1115,3784 C1116.65685,3784 1118,3785.34315 1118,3787 C1118,3788.65685 1116.65685,3790 1115,3790 C1113.34315,3790 1112,3788.65685 1112,3787 C1112,3785.34315 1113.34315,3784 1115,3784 Z M1137,3773 C1138.65685,3773 1140,3774.34315 1140,3776 C1140,3777.65685 1138.65685,3779 1137,3779 C1135.34315,3779 1134,3777.65685 1134,3776 C1134,3774.34315 1135.34315,3773 1137,3773 Z M1093,3773 C1094.65685,3773 1096,3774.34315 1096,3776 C1096,3777.65685 1094.65685,3779 1093,3779 C1091.34315,3779 1090,3777.65685 1090,3776 C1090,3774.34315 1091.34315,3773 1093,3773 Z M1126,3773 C1127.65685,3773 1129,3774.34315 1129,3776 C1129,3777.65685 1127.65685,3779 1126,3779 C1124.34315,3779 1123,3777.65685 1123,3776 C1123,3774.34315 1124.34315,3773 1126,3773 Z M1082,3773 C1083.65685,3773 1085,3774.34315 1085,3776 C1085,3777.65685 1083.65685,3779 1082,3779 C1080.34315,3779 1079,3777.65685 1079,3776 C1079,3774.34315 1080.34315,3773 1082,3773 Z M1225,3773 C1226.65685,3773 1228,3774.34315 1228,3776 C1228,3777.65685 1226.65685,3779 1225,3779 C1223.34315,3779 1222,3777.65685 1222,3776 C1222,3774.34315 1223.34315,3773 1225,3773 Z M1071,3773 C1072.65685,3773 1074,3774.34315 1074,3776 C1074,3777.65685 1072.65685,3779 1071,3779 C1069.34315,3779 1068,3777.65685 1068,3776 C1068,3774.34315 1069.34315,3773 1071,3773 Z M1159,3773 C1160.65685,3773 1162,3774.34315 1162,3776 C1162,3777.65685 1160.65685,3779 1159,3779 C1157.34315,3779 1156,3777.65685 1156,3776 C1156,3774.34315 1157.34315,3773 1159,3773 Z M1170,3773 C1171.65685,3773 1173,3774.34315 1173,3776 C1173,3777.65685 1171.65685,3779 1170,3779 C1168.34315,3779 1167,3777.65685 1167,3776 C1167,3774.34315 1168.34315,3773 1170,3773 Z M1236,3773 C1237.65685,3773 1239,3774.34315 1239,3776 C1239,3777.65685 1237.65685,3779 1236,3779 C1234.34315,3779 1233,3777.65685 1233,3776 C1233,3774.34315 1234.34315,3773 1236,3773 Z M1115,3773 C1116.65685,3773 1118,3774.34315 1118,3776 C1118,3777.65685 1116.65685,3779 1115,3779 C1113.34315,3779 1112,3777.65685 1112,3776 C1112,3774.34315 1113.34315,3773 1115,3773 Z M1214,3773 C1215.65685,3773 1217,3774.34315 1217,3776 C1217,3777.65685 1215.65685,3779 1214,3779 C1212.34315,3779 1211,3777.65685 1211,3776 C1211,3774.34315 1212.34315,3773 1214,3773 Z M1192,3773 C1193.65685,3773 1195,3774.34315 1195,3776 C1195,3777.65685 1193.65685,3779 1192,3779 C1190.34315,3779 1189,3777.65685 1189,3776 C1189,3774.34315 1190.34315,3773 1192,3773 Z M1181,3773 C1182.65685,3773 1184,3774.34315 1184,3776 C1184,3777.65685 1182.65685,3779 1181,3779 C1179.34315,3779 1178,3777.65685 1178,3776 C1178,3774.34315 1179.34315,3773 1181,3773 Z M1104,3773 C1105.65685,3773 1107,3774.34315 1107,3776 C1107,3777.65685 1105.65685,3779 1104,3779 C1102.34315,3779 1101,3777.65685 1101,3776 C1101,3774.34315 1102.34315,3773 1104,3773 Z M1203,3773 C1204.65685,3773 1206,3774.34315 1206,3776 C1206,3777.65685 1204.65685,3779 1203,3779 C1201.34315,3779 1200,3777.65685 1200,3776 C1200,3774.34315 1201.34315,3773 1203,3773 Z M1148,3773 C1149.65685,3773 1151,3774.34315 1151,3776 C1151,3777.65685 1149.65685,3779 1148,3779 C1146.34315,3779 1145,3777.65685 1145,3776 C1145,3774.34315 1146.34315,3773 1148,3773 Z M1115,3762 C1116.65685,3762 1118,3763.34315 1118,3765 C1118,3766.65685 1116.65685,3768 1115,3768 C1113.34315,3768 1112,3766.65685 1112,3765 C1112,3763.34315 1113.34315,3762 1115,3762 Z M1159,3762 C1160.65685,3762 1162,3763.34315 1162,3765 C1162,3766.65685 1160.65685,3768 1159,3768 C1157.34315,3768 1156,3766.65685 1156,3765 C1156,3763.34315 1157.34315,3762 1159,3762 Z M1225,3762 C1226.65685,3762 1228,3763.34315 1228,3765 C1228,3766.65685 1226.65685,3768 1225,3768 C1223.34315,3768 1222,3766.65685 1222,3765 C1222,3763.34315 1223.34315,3762 1225,3762 Z M1236,3762 C1237.65685,3762 1239,3763.34315 1239,3765 C1239,3766.65685 1237.65685,3768 1236,3768 C1234.34315,3768 1233,3766.65685 1233,3765 C1233,3763.34315 1234.34315,3762 1236,3762 Z M1148,3762 C1149.65685,3762 1151,3763.34315 1151,3765 C1151,3766.65685 1149.65685,3768 1148,3768 C1146.34315,3768 1145,3766.65685 1145,3765 C1145,3763.34315 1146.34315,3762 1148,3762 Z M1203,3762 C1204.65685,3762 1206,3763.34315 1206,3765 C1206,3766.65685 1204.65685,3768 1203,3768 C1201.34315,3768 1200,3766.65685 1200,3765 C1200,3763.34315 1201.34315,3762 1203,3762 Z M1104,3762 C1105.65685,3762 1107,3763.34315 1107,3765 C1107,3766.65685 1105.65685,3768 1104,3768 C1102.34315,3768 1101,3766.65685 1101,3765 C1101,3763.34315 1102.34315,3762 1104,3762 Z M1137,3762 C1138.65685,3762 1140,3763.34315 1140,3765 C1140,3766.65685 1138.65685,3768 1137,3768 C1135.34315,3768 1134,3766.65685 1134,3765 C1134,3763.34315 1135.34315,3762 1137,3762 Z M1093,3762 C1094.65685,3762 1096,3763.34315 1096,3765 C1096,3766.65685 1094.65685,3768 1093,3768 C1091.34315,3768 1090,3766.65685 1090,3765 C1090,3763.34315 1091.34315,3762 1093,3762 Z M1071,3762 C1072.65685,3762 1074,3763.34315 1074,3765 C1074,3766.65685 1072.65685,3768 1071,3768 C1069.34315,3768 1068,3766.65685 1068,3765 C1068,3763.34315 1069.34315,3762 1071,3762 Z M1170,3762 C1171.65685,3762 1173,3763.34315 1173,3765 C1173,3766.65685 1171.65685,3768 1170,3768 C1168.34315,3768 1167,3766.65685 1167,3765 C1167,3763.34315 1168.34315,3762 1170,3762 Z M1181,3762 C1182.65685,3762 1184,3763.34315 1184,3765 C1184,3766.65685 1182.65685,3768 1181,3768 C1179.34315,3768 1178,3766.65685 1178,3765 C1178,3763.34315 1179.34315,3762 1181,3762 Z M1126,3762 C1127.65685,3762 1129,3763.34315 1129,3765 C1129,3766.65685 1127.65685,3768 1126,3768 C1124.34315,3768 1123,3766.65685 1123,3765 C1123,3763.34315 1124.34315,3762 1126,3762 Z M1082,3762 C1083.65685,3762 1085,3763.34315 1085,3765 C1085,3766.65685 1083.65685,3768 1082,3768 C1080.34315,3768 1079,3766.65685 1079,3765 C1079,3763.34315 1080.34315,3762 1082,3762 Z M1192,3762 C1193.65685,3762 1195,3763.34315 1195,3765 C1195,3766.65685 1193.65685,3768 1192,3768 C1190.34315,3768 1189,3766.65685 1189,3765 C1189,3763.34315 1190.34315,3762 1192,3762 Z M1214,3762 C1215.65685,3762 1217,3763.34315 1217,3765 C1217,3766.65685 1215.65685,3768 1214,3768 C1212.34315,3768 1211,3766.65685 1211,3765 C1211,3763.34315 1212.34315,3762 1214,3762 Z M1170,3751 C1171.65685,3751 1173,3752.34315 1173,3754 C1173,3755.65685 1171.65685,3757 1170,3757 C1168.34315,3757 1167,3755.65685 1167,3754 C1167,3752.34315 1168.34315,3751 1170,3751 Z M1082,3751 C1083.65685,3751 1085,3752.34315 1085,3754 C1085,3755.65685 1083.65685,3757 1082,3757 C1080.34315,3757 1079,3755.65685 1079,3754 C1079,3752.34315 1080.34315,3751 1082,3751 Z M1236,3751 C1237.65685,3751 1239,3752.34315 1239,3754 C1239,3755.65685 1237.65685,3757 1236,3757 C1234.34315,3757 1233,3755.65685 1233,3754 C1233,3752.34315 1234.34315,3751 1236,3751 Z M1148,3751 C1149.65685,3751 1151,3752.34315 1151,3754 C1151,3755.65685 1149.65685,3757 1148,3757 C1146.34315,3757 1145,3755.65685 1145,3754 C1145,3752.34315 1146.34315,3751 1148,3751 Z M1192,3751 C1193.65685,3751 1195,3752.34315 1195,3754 C1195,3755.65685 1193.65685,3757 1192,3757 C1190.34315,3757 1189,3755.65685 1189,3754 C1189,3752.34315 1190.34315,3751 1192,3751 Z M1203,3751 C1204.65685,3751 1206,3752.34315 1206,3754 C1206,3755.65685 1204.65685,3757 1203,3757 C1201.34315,3757 1200,3755.65685 1200,3754 C1200,3752.34315 1201.34315,3751 1203,3751 Z M1225,3751 C1226.65685,3751 1228,3752.34315 1228,3754 C1228,3755.65685 1226.65685,3757 1225,3757 C1223.34315,3757 1222,3755.65685 1222,3754 C1222,3752.34315 1223.34315,3751 1225,3751 Z M1159,3751 C1160.65685,3751 1162,3752.34315 1162,3754 C1162,3755.65685 1160.65685,3757 1159,3757 C1157.34315,3757 1156,3755.65685 1156,3754 C1156,3752.34315 1157.34315,3751 1159,3751 Z M1137,3751 C1138.65685,3751 1140,3752.34315 1140,3754 C1140,3755.65685 1138.65685,3757 1137,3757 C1135.34315,3757 1134,3755.65685 1134,3754 C1134,3752.34315 1135.34315,3751 1137,3751 Z M1071,3751 C1072.65685,3751 1074,3752.34315 1074,3754 C1074,3755.65685 1072.65685,3757 1071,3757 C1069.34315,3757 1068,3755.65685 1068,3754 C1068,3752.34315 1069.34315,3751 1071,3751 Z M1104,3751 C1105.65685,3751 1107,3752.34315 1107,3754 C1107,3755.65685 1105.65685,3757 1104,3757 C1102.34315,3757 1101,3755.65685 1101,3754 C1101,3752.34315 1102.34315,3751 1104,3751 Z M1214,3751 C1215.65685,3751 1217,3752.34315 1217,3754 C1217,3755.65685 1215.65685,3757 1214,3757 C1212.34315,3757 1211,3755.65685 1211,3754 C1211,3752.34315 1212.34315,3751 1214,3751 Z M1126,3751 C1127.65685,3751 1129,3752.34315 1129,3754 C1129,3755.65685 1127.65685,3757 1126,3757 C1124.34315,3757 1123,3755.65685 1123,3754 C1123,3752.34315 1124.34315,3751 1126,3751 Z M1093,3751 C1094.65685,3751 1096,3752.34315 1096,3754 C1096,3755.65685 1094.65685,3757 1093,3757 C1091.34315,3757 1090,3755.65685 1090,3754 C1090,3752.34315 1091.34315,3751 1093,3751 Z M1115,3751 C1116.65685,3751 1118,3752.34315 1118,3754 C1118,3755.65685 1116.65685,3757 1115,3757 C1113.34315,3757 1112,3755.65685 1112,3754 C1112,3752.34315 1113.34315,3751 1115,3751 Z M1181,3751 C1182.65685,3751 1184,3752.34315 1184,3754 C1184,3755.65685 1182.65685,3757 1181,3757 C1179.34315,3757 1178,3755.65685 1178,3754 C1178,3752.34315 1179.34315,3751 1181,3751 Z M1192,3740 C1193.65685,3740 1195,3741.34315 1195,3743 C1195,3744.65685 1193.65685,3746 1192,3746 C1190.34315,3746 1189,3744.65685 1189,3743 C1189,3741.34315 1190.34315,3740 1192,3740 Z M1214,3740 C1215.65685,3740 1217,3741.34315 1217,3743 C1217,3744.65685 1215.65685,3746 1214,3746 C1212.34315,3746 1211,3744.65685 1211,3743 C1211,3741.34315 1212.34315,3740 1214,3740 Z M1181,3740 C1182.65685,3740 1184,3741.34315 1184,3743 C1184,3744.65685 1182.65685,3746 1181,3746 C1179.34315,3746 1178,3744.65685 1178,3743 C1178,3741.34315 1179.34315,3740 1181,3740 Z M1203,3740 C1204.65685,3740 1206,3741.34315 1206,3743 C1206,3744.65685 1204.65685,3746 1203,3746 C1201.34315,3746 1200,3744.65685 1200,3743 C1200,3741.34315 1201.34315,3740 1203,3740 Z M1225,3740 C1226.65685,3740 1228,3741.34315 1228,3743 C1228,3744.65685 1226.65685,3746 1225,3746 C1223.34315,3746 1222,3744.65685 1222,3743 C1222,3741.34315 1223.34315,3740 1225,3740 Z M1082,3740 C1083.65685,3740 1085,3741.34315 1085,3743 C1085,3744.65685 1083.65685,3746 1082,3746 C1080.34315,3746 1079,3744.65685 1079,3743 C1079,3741.34315 1080.34315,3740 1082,3740 Z M1159,3740 C1160.65685,3740 1162,3741.34315 1162,3743 C1162,3744.65685 1160.65685,3746 1159,3746 C1157.34315,3746 1156,3744.65685 1156,3743 C1156,3741.34315 1157.34315,3740 1159,3740 Z M1115,3740 C1116.65685,3740 1118,3741.34315 1118,3743 C1118,3744.65685 1116.65685,3746 1115,3746 C1113.34315,3746 1112,3744.65685 1112,3743 C1112,3741.34315 1113.34315,3740 1115,3740 Z M1071,3740 C1072.65685,3740 1074,3741.34315 1074,3743 C1074,3744.65685 1072.65685,3746 1071,3746 C1069.34315,3746 1068,3744.65685 1068,3743 C1068,3741.34315 1069.34315,3740 1071,3740 Z M1148,3740 C1149.65685,3740 1151,3741.34315 1151,3743 C1151,3744.65685 1149.65685,3746 1148,3746 C1146.34315,3746 1145,3744.65685 1145,3743 C1145,3741.34315 1146.34315,3740 1148,3740 Z M1104,3740 C1105.65685,3740 1107,3741.34315 1107,3743 C1107,3744.65685 1105.65685,3746 1104,3746 C1102.34315,3746 1101,3744.65685 1101,3743 C1101,3741.34315 1102.34315,3740 1104,3740 Z M1093,3740 C1094.65685,3740 1096,3741.34315 1096,3743 C1096,3744.65685 1094.65685,3746 1093,3746 C1091.34315,3746 1090,3744.65685 1090,3743 C1090,3741.34315 1091.34315,3740 1093,3740 Z M1126,3740 C1127.65685,3740 1129,3741.34315 1129,3743 C1129,3744.65685 1127.65685,3746 1126,3746 C1124.34315,3746 1123,3744.65685 1123,3743 C1123,3741.34315 1124.34315,3740 1126,3740 Z M1236,3740 C1237.65685,3740 1239,3741.34315 1239,3743 C1239,3744.65685 1237.65685,3746 1236,3746 C1234.34315,3746 1233,3744.65685 1233,3743 C1233,3741.34315 1234.34315,3740 1236,3740 Z M1170,3740 C1171.65685,3740 1173,3741.34315 1173,3743 C1173,3744.65685 1171.65685,3746 1170,3746 C1168.34315,3746 1167,3744.65685 1167,3743 C1167,3741.34315 1168.34315,3740 1170,3740 Z M1137,3740 C1138.65685,3740 1140,3741.34315 1140,3743 C1140,3744.65685 1138.65685,3746 1137,3746 C1135.34315,3746 1134,3744.65685 1134,3743 C1134,3741.34315 1135.34315,3740 1137,3740 Z M1137,3729 C1138.65685,3729 1140,3730.34315 1140,3732 C1140,3733.65685 1138.65685,3735 1137,3735 C1135.34315,3735 1134,3733.65685 1134,3732 C1134,3730.34315 1135.34315,3729 1137,3729 Z M1203,3729 C1204.65685,3729 1206,3730.34315 1206,3732 C1206,3733.65685 1204.65685,3735 1203,3735 C1201.34315,3735 1200,3733.65685 1200,3732 C1200,3730.34315 1201.34315,3729 1203,3729 Z M1104,3729 C1105.65685,3729 1107,3730.34315 1107,3732 C1107,3733.65685 1105.65685,3735 1104,3735 C1102.34315,3735 1101,3733.65685 1101,3732 C1101,3730.34315 1102.34315,3729 1104,3729 Z M1082,3729 C1083.65685,3729 1085,3730.34315 1085,3732 C1085,3733.65685 1083.65685,3735 1082,3735 C1080.34315,3735 1079,3733.65685 1079,3732 C1079,3730.34315 1080.34315,3729 1082,3729 Z M1214,3729 C1215.65685,3729 1217,3730.34315 1217,3732 C1217,3733.65685 1215.65685,3735 1214,3735 C1212.34315,3735 1211,3733.65685 1211,3732 C1211,3730.34315 1212.34315,3729 1214,3729 Z M1126,3729 C1127.65685,3729 1129,3730.34315 1129,3732 C1129,3733.65685 1127.65685,3735 1126,3735 C1124.34315,3735 1123,3733.65685 1123,3732 C1123,3730.34315 1124.34315,3729 1126,3729 Z M1148,3729 C1149.65685,3729 1151,3730.34315 1151,3732 C1151,3733.65685 1149.65685,3735 1148,3735 C1146.34315,3735 1145,3733.65685 1145,3732 C1145,3730.34315 1146.34315,3729 1148,3729 Z M1192,3729 C1193.65685,3729 1195,3730.34315 1195,3732 C1195,3733.65685 1193.65685,3735 1192,3735 C1190.34315,3735 1189,3733.65685 1189,3732 C1189,3730.34315 1190.34315,3729 1192,3729 Z M1093,3729 C1094.65685,3729 1096,3730.34315 1096,3732 C1096,3733.65685 1094.65685,3735 1093,3735 C1091.34315,3735 1090,3733.65685 1090,3732 C1090,3730.34315 1091.34315,3729 1093,3729 Z M1236,3729 C1237.65685,3729 1239,3730.34315 1239,3732 C1239,3733.65685 1237.65685,3735 1236,3735 C1234.34315,3735 1233,3733.65685 1233,3732 C1233,3730.34315 1234.34315,3729 1236,3729 Z M1170,3729 C1171.65685,3729 1173,3730.34315 1173,3732 C1173,3733.65685 1171.65685,3735 1170,3735 C1168.34315,3735 1167,3733.65685 1167,3732 C1167,3730.34315 1168.34315,3729 1170,3729 Z M1225,3729 C1226.65685,3729 1228,3730.34315 1228,3732 C1228,3733.65685 1226.65685,3735 1225,3735 C1223.34315,3735 1222,3733.65685 1222,3732 C1222,3730.34315 1223.34315,3729 1225,3729 Z M1181,3729 C1182.65685,3729 1184,3730.34315 1184,3732 C1184,3733.65685 1182.65685,3735 1181,3735 C1179.34315,3735 1178,3733.65685 1178,3732 C1178,3730.34315 1179.34315,3729 1181,3729 Z M1115,3729 C1116.65685,3729 1118,3730.34315 1118,3732 C1118,3733.65685 1116.65685,3735 1115,3735 C1113.34315,3735 1112,3733.65685 1112,3732 C1112,3730.34315 1113.34315,3729 1115,3729 Z M1071,3729 C1072.65685,3729 1074,3730.34315 1074,3732 C1074,3733.65685 1072.65685,3735 1071,3735 C1069.34315,3735 1068,3733.65685 1068,3732 C1068,3730.34315 1069.34315,3729 1071,3729 Z M1159,3729 C1160.65685,3729 1162,3730.34315 1162,3732 C1162,3733.65685 1160.65685,3735 1159,3735 C1157.34315,3735 1156,3733.65685 1156,3732 C1156,3730.34315 1157.34315,3729 1159,3729 Z M1159,3718 C1160.65685,3718 1162,3719.34315 1162,3721 C1162,3722.65685 1160.65685,3724 1159,3724 C1157.34315,3724 1156,3722.65685 1156,3721 C1156,3719.34315 1157.34315,3718 1159,3718 Z M1225,3718 C1226.65685,3718 1228,3719.34315 1228,3721 C1228,3722.65685 1226.65685,3724 1225,3724 C1223.34315,3724 1222,3722.65685 1222,3721 C1222,3719.34315 1223.34315,3718 1225,3718 Z M1214,3718 C1215.65685,3718 1217,3719.34315 1217,3721 C1217,3722.65685 1215.65685,3724 1214,3724 C1212.34315,3724 1211,3722.65685 1211,3721 C1211,3719.34315 1212.34315,3718 1214,3718 Z M1181,3718 C1182.65685,3718 1184,3719.34315 1184,3721 C1184,3722.65685 1182.65685,3724 1181,3724 C1179.34315,3724 1178,3722.65685 1178,3721 C1178,3719.34315 1179.34315,3718 1181,3718 Z M1071,3718 C1072.65685,3718 1074,3719.34315 1074,3721 C1074,3722.65685 1072.65685,3724 1071,3724 C1069.34315,3724 1068,3722.65685 1068,3721 C1068,3719.34315 1069.34315,3718 1071,3718 Z M1236,3718 C1237.65685,3718 1239,3719.34315 1239,3721 C1239,3722.65685 1237.65685,3724 1236,3724 C1234.34315,3724 1233,3722.65685 1233,3721 C1233,3719.34315 1234.34315,3718 1236,3718 Z M1192,3718 C1193.65685,3718 1195,3719.34315 1195,3721 C1195,3722.65685 1193.65685,3724 1192,3724 C1190.34315,3724 1189,3722.65685 1189,3721 C1189,3719.34315 1190.34315,3718 1192,3718 Z M1115,3718 C1116.65685,3718 1118,3719.34315 1118,3721 C1118,3722.65685 1116.65685,3724 1115,3724 C1113.34315,3724 1112,3722.65685 1112,3721 C1112,3719.34315 1113.34315,3718 1115,3718 Z M1126,3718 C1127.65685,3718 1129,3719.34315 1129,3721 C1129,3722.65685 1127.65685,3724 1126,3724 C1124.34315,3724 1123,3722.65685 1123,3721 C1123,3719.34315 1124.34315,3718 1126,3718 Z M1082,3718 C1083.65685,3718 1085,3719.34315 1085,3721 C1085,3722.65685 1083.65685,3724 1082,3724 C1080.34315,3724 1079,3722.65685 1079,3721 C1079,3719.34315 1080.34315,3718 1082,3718 Z M1148,3718 C1149.65685,3718 1151,3719.34315 1151,3721 C1151,3722.65685 1149.65685,3724 1148,3724 C1146.34315,3724 1145,3722.65685 1145,3721 C1145,3719.34315 1146.34315,3718 1148,3718 Z M1093,3718 C1094.65685,3718 1096,3719.34315 1096,3721 C1096,3722.65685 1094.65685,3724 1093,3724 C1091.34315,3724 1090,3722.65685 1090,3721 C1090,3719.34315 1091.34315,3718 1093,3718 Z M1104,3718 C1105.65685,3718 1107,3719.34315 1107,3721 C1107,3722.65685 1105.65685,3724 1104,3724 C1102.34315,3724 1101,3722.65685 1101,3721 C1101,3719.34315 1102.34315,3718 1104,3718 Z M1203,3718 C1204.65685,3718 1206,3719.34315 1206,3721 C1206,3722.65685 1204.65685,3724 1203,3724 C1201.34315,3724 1200,3722.65685 1200,3721 C1200,3719.34315 1201.34315,3718 1203,3718 Z M1170,3718 C1171.65685,3718 1173,3719.34315 1173,3721 C1173,3722.65685 1171.65685,3724 1170,3724 C1168.34315,3724 1167,3722.65685 1167,3721 C1167,3719.34315 1168.34315,3718 1170,3718 Z M1137,3718 C1138.65685,3718 1140,3719.34315 1140,3721 C1140,3722.65685 1138.65685,3724 1137,3724 C1135.34315,3724 1134,3722.65685 1134,3721 C1134,3719.34315 1135.34315,3718 1137,3718 Z M1071,3707 C1072.65685,3707 1074,3708.34315 1074,3710 C1074,3711.65685 1072.65685,3713 1071,3713 C1069.34315,3713 1068,3711.65685 1068,3710 C1068,3708.34315 1069.34315,3707 1071,3707 Z M1170,3707 C1171.65685,3707 1173,3708.34315 1173,3710 C1173,3711.65685 1171.65685,3713 1170,3713 C1168.34315,3713 1167,3711.65685 1167,3710 C1167,3708.34315 1168.34315,3707 1170,3707 Z M1148,3707 C1149.65685,3707 1151,3708.34315 1151,3710 C1151,3711.65685 1149.65685,3713 1148,3713 C1146.34315,3713 1145,3711.65685 1145,3710 C1145,3708.34315 1146.34315,3707 1148,3707 Z M1214,3707 C1215.65685,3707 1217,3708.34315 1217,3710 C1217,3711.65685 1215.65685,3713 1214,3713 C1212.34315,3713 1211,3711.65685 1211,3710 C1211,3708.34315 1212.34315,3707 1214,3707 Z M1236,3707 C1237.65685,3707 1239,3708.34315 1239,3710 C1239,3711.65685 1237.65685,3713 1236,3713 C1234.34315,3713 1233,3711.65685 1233,3710 C1233,3708.34315 1234.34315,3707 1236,3707 Z M1126,3707 C1127.65685,3707 1129,3708.34315 1129,3710 C1129,3711.65685 1127.65685,3713 1126,3713 C1124.34315,3713 1123,3711.65685 1123,3710 C1123,3708.34315 1124.34315,3707 1126,3707 Z M1104,3707 C1105.65685,3707 1107,3708.34315 1107,3710 C1107,3711.65685 1105.65685,3713 1104,3713 C1102.34315,3713 1101,3711.65685 1101,3710 C1101,3708.34315 1102.34315,3707 1104,3707 Z M1082,3707 C1083.65685,3707 1085,3708.34315 1085,3710 C1085,3711.65685 1083.65685,3713 1082,3713 C1080.34315,3713 1079,3711.65685 1079,3710 C1079,3708.34315 1080.34315,3707 1082,3707 Z M1225,3707 C1226.65685,3707 1228,3708.34315 1228,3710 C1228,3711.65685 1226.65685,3713 1225,3713 C1223.34315,3713 1222,3711.65685 1222,3710 C1222,3708.34315 1223.34315,3707 1225,3707 Z M1093,3707 C1094.65685,3707 1096,3708.34315 1096,3710 C1096,3711.65685 1094.65685,3713 1093,3713 C1091.34315,3713 1090,3711.65685 1090,3710 C1090,3708.34315 1091.34315,3707 1093,3707 Z M1159,3707 C1160.65685,3707 1162,3708.34315 1162,3710 C1162,3711.65685 1160.65685,3713 1159,3713 C1157.34315,3713 1156,3711.65685 1156,3710 C1156,3708.34315 1157.34315,3707 1159,3707 Z M1192,3707 C1193.65685,3707 1195,3708.34315 1195,3710 C1195,3711.65685 1193.65685,3713 1192,3713 C1190.34315,3713 1189,3711.65685 1189,3710 C1189,3708.34315 1190.34315,3707 1192,3707 Z M1137,3707 C1138.65685,3707 1140,3708.34315 1140,3710 C1140,3711.65685 1138.65685,3713 1137,3713 C1135.34315,3713 1134,3711.65685 1134,3710 C1134,3708.34315 1135.34315,3707 1137,3707 Z M1181,3707 C1182.65685,3707 1184,3708.34315 1184,3710 C1184,3711.65685 1182.65685,3713 1181,3713 C1179.34315,3713 1178,3711.65685 1178,3710 C1178,3708.34315 1179.34315,3707 1181,3707 Z M1203,3707 C1204.65685,3707 1206,3708.34315 1206,3710 C1206,3711.65685 1204.65685,3713 1203,3713 C1201.34315,3713 1200,3711.65685 1200,3710 C1200,3708.34315 1201.34315,3707 1203,3707 Z M1115,3707 C1116.65685,3707 1118,3708.34315 1118,3710 C1118,3711.65685 1116.65685,3713 1115,3713 C1113.34315,3713 1112,3711.65685 1112,3710 C1112,3708.34315 1113.34315,3707 1115,3707 Z M1148,3696 C1149.65685,3696 1151,3697.34315 1151,3699 C1151,3700.65685 1149.65685,3702 1148,3702 C1146.34315,3702 1145,3700.65685 1145,3699 C1145,3697.34315 1146.34315,3696 1148,3696 Z M1170,3696 C1171.65685,3696 1173,3697.34315 1173,3699 C1173,3700.65685 1171.65685,3702 1170,3702 C1168.34315,3702 1167,3700.65685 1167,3699 C1167,3697.34315 1168.34315,3696 1170,3696 Z M1159,3696 C1160.65685,3696 1162,3697.34315 1162,3699 C1162,3700.65685 1160.65685,3702 1159,3702 C1157.34315,3702 1156,3700.65685 1156,3699 C1156,3697.34315 1157.34315,3696 1159,3696 Z M1181,3696 C1182.65685,3696 1184,3697.34315 1184,3699 C1184,3700.65685 1182.65685,3702 1181,3702 C1179.34315,3702 1178,3700.65685 1178,3699 C1178,3697.34315 1179.34315,3696 1181,3696 Z M1203,3696 C1204.65685,3696 1206,3697.34315 1206,3699 C1206,3700.65685 1204.65685,3702 1203,3702 C1201.34315,3702 1200,3700.65685 1200,3699 C1200,3697.34315 1201.34315,3696 1203,3696 Z M1236,3696 C1237.65685,3696 1239,3697.34315 1239,3699 C1239,3700.65685 1237.65685,3702 1236,3702 C1234.34315,3702 1233,3700.65685 1233,3699 C1233,3697.34315 1234.34315,3696 1236,3696 Z M1192,3696 C1193.65685,3696 1195,3697.34315 1195,3699 C1195,3700.65685 1193.65685,3702 1192,3702 C1190.34315,3702 1189,3700.65685 1189,3699 C1189,3697.34315 1190.34315,3696 1192,3696 Z M1093,3696 C1094.65685,3696 1096,3697.34315 1096,3699 C1096,3700.65685 1094.65685,3702 1093,3702 C1091.34315,3702 1090,3700.65685 1090,3699 C1090,3697.34315 1091.34315,3696 1093,3696 Z M1071,3696 C1072.65685,3696 1074,3697.34315 1074,3699 C1074,3700.65685 1072.65685,3702 1071,3702 C1069.34315,3702 1068,3700.65685 1068,3699 C1068,3697.34315 1069.34315,3696 1071,3696 Z M1104,3696 C1105.65685,3696 1107,3697.34315 1107,3699 C1107,3700.65685 1105.65685,3702 1104,3702 C1102.34315,3702 1101,3700.65685 1101,3699 C1101,3697.34315 1102.34315,3696 1104,3696 Z M1225,3696 C1226.65685,3696 1228,3697.34315 1228,3699 C1228,3700.65685 1226.65685,3702 1225,3702 C1223.34315,3702 1222,3700.65685 1222,3699 C1222,3697.34315 1223.34315,3696 1225,3696 Z M1214,3696 C1215.65685,3696 1217,3697.34315 1217,3699 C1217,3700.65685 1215.65685,3702 1214,3702 C1212.34315,3702 1211,3700.65685 1211,3699 C1211,3697.34315 1212.34315,3696 1214,3696 Z M1082,3696 C1083.65685,3696 1085,3697.34315 1085,3699 C1085,3700.65685 1083.65685,3702 1082,3702 C1080.34315,3702 1079,3700.65685 1079,3699 C1079,3697.34315 1080.34315,3696 1082,3696 Z M1137,3696 C1138.65685,3696 1140,3697.34315 1140,3699 C1140,3700.65685 1138.65685,3702 1137,3702 C1135.34315,3702 1134,3700.65685 1134,3699 C1134,3697.34315 1135.34315,3696 1137,3696 Z M1115,3696 C1116.65685,3696 1118,3697.34315 1118,3699 C1118,3700.65685 1116.65685,3702 1115,3702 C1113.34315,3702 1112,3700.65685 1112,3699 C1112,3697.34315 1113.34315,3696 1115,3696 Z M1126,3696 C1127.65685,3696 1129,3697.34315 1129,3699 C1129,3700.65685 1127.65685,3702 1126,3702 C1124.34315,3702 1123,3700.65685 1123,3699 C1123,3697.34315 1124.34315,3696 1126,3696 Z M1159,3685 C1160.65685,3685 1162,3686.34315 1162,3688 C1162,3689.65685 1160.65685,3691 1159,3691 C1157.34315,3691 1156,3689.65685 1156,3688 C1156,3686.34315 1157.34315,3685 1159,3685 Z M1170,3685 C1171.65685,3685 1173,3686.34315 1173,3688 C1173,3689.65685 1171.65685,3691 1170,3691 C1168.34315,3691 1167,3689.65685 1167,3688 C1167,3686.34315 1168.34315,3685 1170,3685 Z M1203,3685 C1204.65685,3685 1206,3686.34315 1206,3688 C1206,3689.65685 1204.65685,3691 1203,3691 C1201.34315,3691 1200,3689.65685 1200,3688 C1200,3686.34315 1201.34315,3685 1203,3685 Z M1137,3685 C1138.65685,3685 1140,3686.34315 1140,3688 C1140,3689.65685 1138.65685,3691 1137,3691 C1135.34315,3691 1134,3689.65685 1134,3688 C1134,3686.34315 1135.34315,3685 1137,3685 Z M1148,3685 C1149.65685,3685 1151,3686.34315 1151,3688 C1151,3689.65685 1149.65685,3691 1148,3691 C1146.34315,3691 1145,3689.65685 1145,3688 C1145,3686.34315 1146.34315,3685 1148,3685 Z M1071,3685 C1072.65685,3685 1074,3686.34315 1074,3688 C1074,3689.65685 1072.65685,3691 1071,3691 C1069.34315,3691 1068,3689.65685 1068,3688 C1068,3686.34315 1069.34315,3685 1071,3685 Z M1225,3685 C1226.65685,3685 1228,3686.34315 1228,3688 C1228,3689.65685 1226.65685,3691 1225,3691 C1223.34315,3691 1222,3689.65685 1222,3688 C1222,3686.34315 1223.34315,3685 1225,3685 Z M1115,3685 C1116.65685,3685 1118,3686.34315 1118,3688 C1118,3689.65685 1116.65685,3691 1115,3691 C1113.34315,3691 1112,3689.65685 1112,3688 C1112,3686.34315 1113.34315,3685 1115,3685 Z M1104,3685 C1105.65685,3685 1107,3686.34315 1107,3688 C1107,3689.65685 1105.65685,3691 1104,3691 C1102.34315,3691 1101,3689.65685 1101,3688 C1101,3686.34315 1102.34315,3685 1104,3685 Z M1082,3685 C1083.65685,3685 1085,3686.34315 1085,3688 C1085,3689.65685 1083.65685,3691 1082,3691 C1080.34315,3691 1079,3689.65685 1079,3688 C1079,3686.34315 1080.34315,3685 1082,3685 Z M1093,3685 C1094.65685,3685 1096,3686.34315 1096,3688 C1096,3689.65685 1094.65685,3691 1093,3691 C1091.34315,3691 1090,3689.65685 1090,3688 C1090,3686.34315 1091.34315,3685 1093,3685 Z M1214,3685 C1215.65685,3685 1217,3686.34315 1217,3688 C1217,3689.65685 1215.65685,3691 1214,3691 C1212.34315,3691 1211,3689.65685 1211,3688 C1211,3686.34315 1212.34315,3685 1214,3685 Z M1236,3685 C1237.65685,3685 1239,3686.34315 1239,3688 C1239,3689.65685 1237.65685,3691 1236,3691 C1234.34315,3691 1233,3689.65685 1233,3688 C1233,3686.34315 1234.34315,3685 1236,3685 Z M1126,3685 C1127.65685,3685 1129,3686.34315 1129,3688 C1129,3689.65685 1127.65685,3691 1126,3691 C1124.34315,3691 1123,3689.65685 1123,3688 C1123,3686.34315 1124.34315,3685 1126,3685 Z M1192,3685 C1193.65685,3685 1195,3686.34315 1195,3688 C1195,3689.65685 1193.65685,3691 1192,3691 C1190.34315,3691 1189,3689.65685 1189,3688 C1189,3686.34315 1190.34315,3685 1192,3685 Z M1181,3685 C1182.65685,3685 1184,3686.34315 1184,3688 C1184,3689.65685 1182.65685,3691 1181,3691 C1179.34315,3691 1178,3689.65685 1178,3688 C1178,3686.34315 1179.34315,3685 1181,3685 Z M1071,3674 C1072.65685,3674 1074,3675.34315 1074,3677 C1074,3678.65685 1072.65685,3680 1071,3680 C1069.34315,3680 1068,3678.65685 1068,3677 C1068,3675.34315 1069.34315,3674 1071,3674 Z M1203,3674 C1204.65685,3674 1206,3675.34315 1206,3677 C1206,3678.65685 1204.65685,3680 1203,3680 C1201.34315,3680 1200,3678.65685 1200,3677 C1200,3675.34315 1201.34315,3674 1203,3674 Z M1126,3674 C1127.65685,3674 1129,3675.34315 1129,3677 C1129,3678.65685 1127.65685,3680 1126,3680 C1124.34315,3680 1123,3678.65685 1123,3677 C1123,3675.34315 1124.34315,3674 1126,3674 Z M1170,3674 C1171.65685,3674 1173,3675.34315 1173,3677 C1173,3678.65685 1171.65685,3680 1170,3680 C1168.34315,3680 1167,3678.65685 1167,3677 C1167,3675.34315 1168.34315,3674 1170,3674 Z M1082,3674 C1083.65685,3674 1085,3675.34315 1085,3677 C1085,3678.65685 1083.65685,3680 1082,3680 C1080.34315,3680 1079,3678.65685 1079,3677 C1079,3675.34315 1080.34315,3674 1082,3674 Z M1214,3674 C1215.65685,3674 1217,3675.34315 1217,3677 C1217,3678.65685 1215.65685,3680 1214,3680 C1212.34315,3680 1211,3678.65685 1211,3677 C1211,3675.34315 1212.34315,3674 1214,3674 Z M1181,3674 C1182.65685,3674 1184,3675.34315 1184,3677 C1184,3678.65685 1182.65685,3680 1181,3680 C1179.34315,3680 1178,3678.65685 1178,3677 C1178,3675.34315 1179.34315,3674 1181,3674 Z M1093,3674 C1094.65685,3674 1096,3675.34315 1096,3677 C1096,3678.65685 1094.65685,3680 1093,3680 C1091.34315,3680 1090,3678.65685 1090,3677 C1090,3675.34315 1091.34315,3674 1093,3674 Z M1225,3674 C1226.65685,3674 1228,3675.34315 1228,3677 C1228,3678.65685 1226.65685,3680 1225,3680 C1223.34315,3680 1222,3678.65685 1222,3677 C1222,3675.34315 1223.34315,3674 1225,3674 Z M1159,3674 C1160.65685,3674 1162,3675.34315 1162,3677 C1162,3678.65685 1160.65685,3680 1159,3680 C1157.34315,3680 1156,3678.65685 1156,3677 C1156,3675.34315 1157.34315,3674 1159,3674 Z M1115,3674 C1116.65685,3674 1118,3675.34315 1118,3677 C1118,3678.65685 1116.65685,3680 1115,3680 C1113.34315,3680 1112,3678.65685 1112,3677 C1112,3675.34315 1113.34315,3674 1115,3674 Z M1137,3674 C1138.65685,3674 1140,3675.34315 1140,3677 C1140,3678.65685 1138.65685,3680 1137,3680 C1135.34315,3680 1134,3678.65685 1134,3677 C1134,3675.34315 1135.34315,3674 1137,3674 Z M1236,3674 C1237.65685,3674 1239,3675.34315 1239,3677 C1239,3678.65685 1237.65685,3680 1236,3680 C1234.34315,3680 1233,3678.65685 1233,3677 C1233,3675.34315 1234.34315,3674 1236,3674 Z M1148,3674 C1149.65685,3674 1151,3675.34315 1151,3677 C1151,3678.65685 1149.65685,3680 1148,3680 C1146.34315,3680 1145,3678.65685 1145,3677 C1145,3675.34315 1146.34315,3674 1148,3674 Z M1104,3674 C1105.65685,3674 1107,3675.34315 1107,3677 C1107,3678.65685 1105.65685,3680 1104,3680 C1102.34315,3680 1101,3678.65685 1101,3677 C1101,3675.34315 1102.34315,3674 1104,3674 Z M1192,3674 C1193.65685,3674 1195,3675.34315 1195,3677 C1195,3678.65685 1193.65685,3680 1192,3680 C1190.34315,3680 1189,3678.65685 1189,3677 C1189,3675.34315 1190.34315,3674 1192,3674 Z M1203,3663 C1204.65685,3663 1206,3664.34315 1206,3666 C1206,3667.65685 1204.65685,3669 1203,3669 C1201.34315,3669 1200,3667.65685 1200,3666 C1200,3664.34315 1201.34315,3663 1203,3663 Z M1148,3663 C1149.65685,3663 1151,3664.34315 1151,3666 C1151,3667.65685 1149.65685,3669 1148,3669 C1146.34315,3669 1145,3667.65685 1145,3666 C1145,3664.34315 1146.34315,3663 1148,3663 Z M1159,3663 C1160.65685,3663 1162,3664.34315 1162,3666 C1162,3667.65685 1160.65685,3669 1159,3669 C1157.34315,3669 1156,3667.65685 1156,3666 C1156,3664.34315 1157.34315,3663 1159,3663 Z M1214,3663 C1215.65685,3663 1217,3664.34315 1217,3666 C1217,3667.65685 1215.65685,3669 1214,3669 C1212.34315,3669 1211,3667.65685 1211,3666 C1211,3664.34315 1212.34315,3663 1214,3663 Z M1082,3663 C1083.65685,3663 1085,3664.34315 1085,3666 C1085,3667.65685 1083.65685,3669 1082,3669 C1080.34315,3669 1079,3667.65685 1079,3666 C1079,3664.34315 1080.34315,3663 1082,3663 Z M1104,3663 C1105.65685,3663 1107,3664.34315 1107,3666 C1107,3667.65685 1105.65685,3669 1104,3669 C1102.34315,3669 1101,3667.65685 1101,3666 C1101,3664.34315 1102.34315,3663 1104,3663 Z M1170,3663 C1171.65685,3663 1173,3664.34315 1173,3666 C1173,3667.65685 1171.65685,3669 1170,3669 C1168.34315,3669 1167,3667.65685 1167,3666 C1167,3664.34315 1168.34315,3663 1170,3663 Z M1181,3663 C1182.65685,3663 1184,3664.34315 1184,3666 C1184,3667.65685 1182.65685,3669 1181,3669 C1179.34315,3669 1178,3667.65685 1178,3666 C1178,3664.34315 1179.34315,3663 1181,3663 Z M1192,3663 C1193.65685,3663 1195,3664.34315 1195,3666 C1195,3667.65685 1193.65685,3669 1192,3669 C1190.34315,3669 1189,3667.65685 1189,3666 C1189,3664.34315 1190.34315,3663 1192,3663 Z M1071,3663 C1072.65685,3663 1074,3664.34315 1074,3666 C1074,3667.65685 1072.65685,3669 1071,3669 C1069.34315,3669 1068,3667.65685 1068,3666 C1068,3664.34315 1069.34315,3663 1071,3663 Z M1225,3663 C1226.65685,3663 1228,3664.34315 1228,3666 C1228,3667.65685 1226.65685,3669 1225,3669 C1223.34315,3669 1222,3667.65685 1222,3666 C1222,3664.34315 1223.34315,3663 1225,3663 Z M1236,3663 C1237.65685,3663 1239,3664.34315 1239,3666 C1239,3667.65685 1237.65685,3669 1236,3669 C1234.34315,3669 1233,3667.65685 1233,3666 C1233,3664.34315 1234.34315,3663 1236,3663 Z M1137,3663 C1138.65685,3663 1140,3664.34315 1140,3666 C1140,3667.65685 1138.65685,3669 1137,3669 C1135.34315,3669 1134,3667.65685 1134,3666 C1134,3664.34315 1135.34315,3663 1137,3663 Z M1115,3663 C1116.65685,3663 1118,3664.34315 1118,3666 C1118,3667.65685 1116.65685,3669 1115,3669 C1113.34315,3669 1112,3667.65685 1112,3666 C1112,3664.34315 1113.34315,3663 1115,3663 Z M1093,3663 C1094.65685,3663 1096,3664.34315 1096,3666 C1096,3667.65685 1094.65685,3669 1093,3669 C1091.34315,3669 1090,3667.65685 1090,3666 C1090,3664.34315 1091.34315,3663 1093,3663 Z M1126,3663 C1127.65685,3663 1129,3664.34315 1129,3666 C1129,3667.65685 1127.65685,3669 1126,3669 C1124.34315,3669 1123,3667.65685 1123,3666 C1123,3664.34315 1124.34315,3663 1126,3663 Z M1071,3652 C1072.65685,3652 1074,3653.34315 1074,3655 C1074,3656.65685 1072.65685,3658 1071,3658 C1069.34315,3658 1068,3656.65685 1068,3655 C1068,3653.34315 1069.34315,3652 1071,3652 Z M1214,3652 C1215.65685,3652 1217,3653.34315 1217,3655 C1217,3656.65685 1215.65685,3658 1214,3658 C1212.34315,3658 1211,3656.65685 1211,3655 C1211,3653.34315 1212.34315,3652 1214,3652 Z M1225,3652 C1226.65685,3652 1228,3653.34315 1228,3655 C1228,3656.65685 1226.65685,3658 1225,3658 C1223.34315,3658 1222,3656.65685 1222,3655 C1222,3653.34315 1223.34315,3652 1225,3652 Z M1236,3652 C1237.65685,3652 1239,3653.34315 1239,3655 C1239,3656.65685 1237.65685,3658 1236,3658 C1234.34315,3658 1233,3656.65685 1233,3655 C1233,3653.34315 1234.34315,3652 1236,3652 Z M1082,3652 C1083.65685,3652 1085,3653.34315 1085,3655 C1085,3656.65685 1083.65685,3658 1082,3658 C1080.34315,3658 1079,3656.65685 1079,3655 C1079,3653.34315 1080.34315,3652 1082,3652 Z M1093,3652 C1094.65685,3652 1096,3653.34315 1096,3655 C1096,3656.65685 1094.65685,3658 1093,3658 C1091.34315,3658 1090,3656.65685 1090,3655 C1090,3653.34315 1091.34315,3652 1093,3652 Z M1104,3652 C1105.65685,3652 1107,3653.34315 1107,3655 C1107,3656.65685 1105.65685,3658 1104,3658 C1102.34315,3658 1101,3656.65685 1101,3655 C1101,3653.34315 1102.34315,3652 1104,3652 Z M1115,3652 C1116.65685,3652 1118,3653.34315 1118,3655 C1118,3656.65685 1116.65685,3658 1115,3658 C1113.34315,3658 1112,3656.65685 1112,3655 C1112,3653.34315 1113.34315,3652 1115,3652 Z M1126,3652 C1127.65685,3652 1129,3653.34315 1129,3655 C1129,3656.65685 1127.65685,3658 1126,3658 C1124.34315,3658 1123,3656.65685 1123,3655 C1123,3653.34315 1124.34315,3652 1126,3652 Z M1137,3652 C1138.65685,3652 1140,3653.34315 1140,3655 C1140,3656.65685 1138.65685,3658 1137,3658 C1135.34315,3658 1134,3656.65685 1134,3655 C1134,3653.34315 1135.34315,3652 1137,3652 Z M1148,3652 C1149.65685,3652 1151,3653.34315 1151,3655 C1151,3656.65685 1149.65685,3658 1148,3658 C1146.34315,3658 1145,3656.65685 1145,3655 C1145,3653.34315 1146.34315,3652 1148,3652 Z M1159,3652 C1160.65685,3652 1162,3653.34315 1162,3655 C1162,3656.65685 1160.65685,3658 1159,3658 C1157.34315,3658 1156,3656.65685 1156,3655 C1156,3653.34315 1157.34315,3652 1159,3652 Z M1170,3652 C1171.65685,3652 1173,3653.34315 1173,3655 C1173,3656.65685 1171.65685,3658 1170,3658 C1168.34315,3658 1167,3656.65685 1167,3655 C1167,3653.34315 1168.34315,3652 1170,3652 Z M1181,3652 C1182.65685,3652 1184,3653.34315 1184,3655 C1184,3656.65685 1182.65685,3658 1181,3658 C1179.34315,3658 1178,3656.65685 1178,3655 C1178,3653.34315 1179.34315,3652 1181,3652 Z M1192,3652 C1193.65685,3652 1195,3653.34315 1195,3655 C1195,3656.65685 1193.65685,3658 1192,3658 C1190.34315,3658 1189,3656.65685 1189,3655 C1189,3653.34315 1190.34315,3652 1192,3652 Z M1203,3652 C1204.65685,3652 1206,3653.34315 1206,3655 C1206,3656.65685 1204.65685,3658 1203,3658 C1201.34315,3658 1200,3656.65685 1200,3655 C1200,3653.34315 1201.34315,3652 1203,3652 Z" id="Combined-Shape-1"></path>
        </g>
    </g>
</svg>