<svg width="135" height="40" viewBox="0 0 135 40" fill="none" xmlns="http://www.w3.org/2000/svg">
<rect x="0.44" y="0.44" width="134.12" height="39.12" rx="6.56" fill="white" stroke="#333333" stroke-width="0.88"/>
<path d="M47.42 10.24C47.42 11.08 47.17 11.75 46.67 12.24C46.11 12.83 45.37 13.13 44.47 13.13C43.6 13.13 42.87 12.83 42.26 12.23C41.65 11.63 41.35 10.88 41.35 9.99999C41.35 9.10999 41.65 8.36999 42.26 7.76999C42.87 7.16999 43.6 6.87 44.47 6.87C44.9 6.87 45.31 6.95 45.7 7.12C46.09 7.29 46.4 7.51 46.64 7.79L46.11 8.31999C45.71 7.84999 45.17 7.60999 44.47 7.60999C43.84 7.60999 43.29 7.82999 42.83 8.27999C42.37 8.71999 42.14 9.29999 42.14 10.01C42.14 10.72 42.37 11.3 42.83 11.74C43.29 12.18 43.84 12.41 44.47 12.41C45.14 12.41 45.7 12.19 46.15 11.74C46.44 11.45 46.61 11.04 46.65 10.52H44.47V9.79999H47.38C47.4 9.94999 47.42 10.1 47.42 10.24Z" fill="#333333" stroke="#333333" stroke-width="0.2" stroke-miterlimit="10"/>
<path d="M52.03 7.74H49.3V9.64H51.76V10.36H49.3V12.26H52.03V13H48.53V7H52.03V7.74V7.74Z" fill="#333333" stroke="#333333" stroke-width="0.2" stroke-miterlimit="10"/>
<path d="M55.28 13H54.51V7.74H52.83V7H56.95V7.74H55.27V13H55.28Z" fill="#333333" stroke="#333333" stroke-width="0.2" stroke-miterlimit="10"/>
<path d="M59.94 13V7H60.71V13H59.94Z" fill="#333333" stroke="#333333" stroke-width="0.2" stroke-miterlimit="10"/>
<path d="M64.13 13H63.36V7.74H61.68V7H65.8V7.74H64.12V13H64.13Z" fill="#333333" stroke="#333333" stroke-width="0.2" stroke-miterlimit="10"/>
<path d="M73.61 12.22C73.02 12.83 72.29 13.13 71.41 13.13C70.53 13.13 69.8 12.83 69.21 12.22C68.62 11.61 68.33 10.87 68.33 9.99999C68.33 9.12999 68.62 8.37999 69.21 7.77999C69.8 7.16999 70.53 6.87 71.41 6.87C72.28 6.87 73.01 7.16999 73.61 7.77999C74.2 8.38999 74.5 9.12999 74.5 9.99999C74.49 10.88 74.2 11.62 73.61 12.22ZM69.78 11.72C70.22 12.17 70.77 12.39 71.41 12.39C72.05 12.39 72.6 12.17 73.04 11.72C73.48 11.27 73.71 10.7 73.71 9.99999C73.71 9.29999 73.49 8.72999 73.04 8.27999C72.6 7.82999 72.05 7.60999 71.41 7.60999C70.77 7.60999 70.22 7.82999 69.78 8.27999C69.34 8.72999 69.11 9.29999 69.11 9.99999C69.11 10.7 69.34 11.27 69.78 11.72Z" fill="#333333" stroke="#333333" stroke-width="0.2" stroke-miterlimit="10"/>
<path d="M75.58 13V7H76.52L79.44 11.67H79.47L79.44 10.51V7H80.21V13H79.41L76.36 8.11H76.33L76.36 9.27V13H75.58Z" fill="#333333" stroke="#333333" stroke-width="0.2" stroke-miterlimit="10"/>
<path d="M68.14 21.75C65.79 21.75 63.87 23.54 63.87 26C63.87 28.45 65.79 30.25 68.14 30.25C70.49 30.25 72.41 28.45 72.41 26C72.41 23.54 70.49 21.75 68.14 21.75ZM68.14 28.58C66.85 28.58 65.74 27.52 65.74 26C65.74 24.47 66.85 23.42 68.14 23.42C69.43 23.42 70.54 24.47 70.54 26C70.54 27.52 69.42 28.58 68.14 28.58ZM58.82 21.75C56.47 21.75 54.55 23.54 54.55 26C54.55 28.45 56.47 30.25 58.82 30.25C61.17 30.25 63.09 28.45 63.09 26C63.09 23.54 61.17 21.75 58.82 21.75ZM58.82 28.58C57.53 28.58 56.42 27.52 56.42 26C56.42 24.47 57.53 23.42 58.82 23.42C60.11 23.42 61.22 24.47 61.22 26C61.22 27.52 60.11 28.58 58.82 28.58ZM47.74 23.06V24.86H52.06C51.93 25.87 51.59 26.62 51.08 27.13C50.45 27.76 49.47 28.45 47.75 28.45C45.09 28.45 43.01 26.31 43.01 23.65C43.01 20.99 45.09 18.85 47.75 18.85C49.18 18.85 50.23 19.41 51 20.14L52.27 18.87C51.19 17.84 49.76 17.05 47.74 17.05C44.1 17.05 41.04 20.01 41.04 23.66C41.04 27.3 44.1 30.27 47.74 30.27C49.71 30.27 51.19 29.63 52.35 28.42C53.54 27.23 53.91 25.55 53.91 24.2C53.91 23.78 53.88 23.39 53.81 23.07H47.74V23.06ZM93.05 24.46C92.7 23.51 91.62 21.75 89.41 21.75C87.22 21.75 85.4 23.47 85.4 26C85.4 28.38 87.2 30.25 89.62 30.25C91.57 30.25 92.7 29.06 93.16 28.37L91.71 27.4C91.23 28.11 90.57 28.58 89.62 28.58C88.67 28.58 87.99 28.14 87.56 27.29L93.25 24.94L93.05 24.46ZM87.25 25.88C87.2 24.24 88.52 23.4 89.47 23.4C90.21 23.4 90.84 23.77 91.05 24.3L87.25 25.88ZM82.63 30H84.5V17.5H82.63V30ZM79.57 22.7H79.5C79.08 22.2 78.28 21.75 77.26 21.75C75.13 21.75 73.18 23.62 73.18 26.02C73.18 28.4 75.13 30.26 77.26 30.26C78.27 30.26 79.08 29.81 79.5 29.29H79.56V29.9C79.56 31.53 78.69 32.4 77.29 32.4C76.15 32.4 75.44 31.58 75.15 30.89L73.52 31.57C73.99 32.7 75.23 34.08 77.29 34.08C79.48 34.08 81.33 32.79 81.33 29.65V22.01H79.56V22.7H79.57ZM77.42 28.58C76.13 28.58 75.05 27.5 75.05 26.02C75.05 24.52 76.13 23.43 77.42 23.43C78.69 23.43 79.69 24.53 79.69 26.02C79.7 27.5 78.7 28.58 77.42 28.58ZM101.81 17.5H97.34V30H99.21V25.26H101.82C103.89 25.26 105.92 23.76 105.92 21.38C105.92 19 103.87 17.5 101.81 17.5ZM101.85 23.52H99.2V19.23H101.85C103.25 19.23 104.04 20.39 104.04 21.37C104.04 22.35 103.25 23.52 101.85 23.52ZM113.39 21.73C112.04 21.73 110.64 22.33 110.06 23.64L111.72 24.33C112.07 23.64 112.73 23.41 113.42 23.41C114.38 23.41 115.37 23.99 115.38 25.02V25.15C115.04 24.96 114.32 24.67 113.43 24.67C111.64 24.67 109.83 25.65 109.83 27.48C109.83 29.15 111.29 30.23 112.93 30.23C114.18 30.23 114.88 29.67 115.31 29.01H115.37V29.98H117.17V25.19C117.18 22.97 115.52 21.73 113.39 21.73ZM113.16 28.58C112.55 28.58 111.7 28.27 111.7 27.52C111.7 26.56 112.76 26.19 113.68 26.19C114.5 26.19 114.89 26.37 115.38 26.61C115.24 27.76 114.24 28.58 113.16 28.58ZM123.74 22L121.6 27.42H121.54L119.32 22H117.31L120.64 29.58L118.74 33.79H120.69L125.82 22H123.74ZM106.94 30H108.81V17.5H106.94V30Z" fill="#333333"/>
<path d="M10.44 7.53997C10.15 7.84997 9.98001 8.32997 9.98001 8.93997V31.06C9.98001 31.68 10.15 32.16 10.44 32.46L10.51 32.53L22.9 20.15V20V19.85L10.51 7.46997L10.44 7.53997Z" fill="url(#paint0_linear)"/>
<path d="M27.03 24.28L22.9 20.15V20V19.85L27.03 15.72L27.12 15.77L32.01 18.55C33.41 19.34 33.41 20.64 32.01 21.44L27.12 24.22L27.03 24.28Z" fill="url(#paint1_linear)"/>
<path d="M27.12 24.22L22.9 20L10.44 32.46C10.9 32.95 11.66 33.01 12.52 32.52L27.12 24.22Z" fill="url(#paint2_linear)"/>
<path d="M27.12 15.78L12.51 7.47999C11.65 6.98999 10.89 7.04999 10.43 7.53999L22.9 20L27.12 15.78Z" fill="url(#paint3_linear)"/>
<path opacity="0.2" d="M27.03 24.13L12.51 32.38C11.7 32.84 10.97 32.81 10.51 32.39L10.44 32.46L10.51 32.53C10.98 32.95 11.7 32.98 12.51 32.52L27.12 24.22L27.03 24.13Z" fill="white"/>
<path opacity="0.12" d="M10.44 32.32C10.15 32.01 9.98001 31.53 9.98001 30.92V31.07C9.98001 31.69 10.15 32.17 10.44 32.47L10.51 32.4L10.44 32.32Z" fill="white"/>
<path opacity="0.12" d="M32.01 21.3L27.02 24.13L27.11 24.22L32 21.44C32.7 21.04 33.05 20.52 33.05 20C33 20.47 32.65 20.94 32.01 21.3Z" fill="white"/>
<path opacity="0.25" d="M12.51 7.62L32.01 18.7C32.64 19.06 33 19.52 33.06 20C33.06 19.48 32.71 18.95 32.01 18.56L12.51 7.48C11.11 6.69 9.97 7.35 9.97 8.95V9.1C9.97 7.49 11.12 6.83 12.51 7.62Z" fill="#333333"/>
<defs>
<linearGradient id="paint0_linear" x1="21.7997" y1="8.70967" x2="5.01731" y2="25.4921" gradientUnits="userSpaceOnUse">
<stop stop-color="#00A0FF"/>
<stop offset="0.00657445" stop-color="#00A1FF"/>
<stop offset="0.2601" stop-color="#00BEFF"/>
<stop offset="0.5122" stop-color="#00D2FF"/>
<stop offset="0.7604" stop-color="#00DFFF"/>
<stop offset="1" stop-color="#00E3FF"/>
</linearGradient>
<linearGradient id="paint1_linear" x1="33.8344" y1="20.0014" x2="9.6375" y2="20.0014" gradientUnits="userSpaceOnUse">
<stop stop-color="#FFE000"/>
<stop offset="0.4087" stop-color="#FFBD00"/>
<stop offset="0.7754" stop-color="#FFA500"/>
<stop offset="1" stop-color="#FF9C00"/>
</linearGradient>
<linearGradient id="paint2_linear" x1="24.827" y1="22.2961" x2="2.0687" y2="45.0544" gradientUnits="userSpaceOnUse">
<stop stop-color="#FF3A44"/>
<stop offset="1" stop-color="#C31162"/>
</linearGradient>
<linearGradient id="paint3_linear" x1="7.29729" y1="0.176187" x2="17.4599" y2="10.3387" gradientUnits="userSpaceOnUse">
<stop stop-color="#32A071"/>
<stop offset="0.0685" stop-color="#2DA771"/>
<stop offset="0.4762" stop-color="#15CF74"/>
<stop offset="0.8009" stop-color="#06E775"/>
<stop offset="1" stop-color="#00F076"/>
</linearGradient>
</defs>
</svg>
