<?xml version="1.0" encoding="utf-8"?>
<!-- Generator: Adobe Illustrator 18.1.1, SVG Export Plug-In . SVG Version: 6.00 Build 0)  -->
<svg version="1.1" id="Livello_1" xmlns="http://www.w3.org/2000/svg" xmlns:xlink="http://www.w3.org/1999/xlink" x="0px" y="0px"
	 viewBox="0 0 100 100" enable-background="new 0 0 100 100" xml:space="preserve">
<g>
	<path fill="#75C2AC" d="M80.7,0H19.3C8.7,0,0,8.7,0,19.3v20.4v40.9C0,91.3,8.7,100,19.3,100h61.3c10.7,0,19.3-8.7,19.3-19.3V39.7
		V19.3C100,8.7,91.3,0,80.7,0z M86.2,11.5l2.2,0v2.2v14.7l-16.9,0.1l-0.1-16.9L86.2,11.5z M35.7,39.7c3.2-4.4,8.4-7.3,14.3-7.3
		s11.1,2.9,14.3,7.3c2.1,2.9,3.3,6.4,3.3,10.3c0,9.7-7.9,17.6-17.6,17.6c-9.7,0-17.6-7.9-17.6-17.6C32.4,46.2,33.6,42.6,35.7,39.7z
		 M90.3,80.7c0,5.3-4.3,9.6-9.6,9.6H19.3c-5.3,0-9.6-4.3-9.6-9.6V39.7h14.9c-1.3,3.2-2,6.6-2,10.3c0,15.1,12.3,27.3,27.3,27.3
		c15.1,0,27.3-12.3,27.3-27.3c0-3.6-0.7-7.1-2-10.3h14.9V80.7z"/>
</g>
</svg>
