<?xml version="1.0" encoding="utf-8"?>
<!-- Generator: Adobe Illustrator 18.1.1, SVG Export Plug-In . SVG Version: 6.00 Build 0)  -->
<svg version="1.1" id="Livello_1" xmlns="http://www.w3.org/2000/svg" xmlns:xlink="http://www.w3.org/1999/xlink" x="0px" y="0px"
	 viewBox="286.6 251.3 268.9 93" enable-background="new 286.6 251.3 268.9 93" xml:space="preserve">
<g id="Layer_2" display="none">
	<rect x="0" y="0" display="inline" fill="#151316" width="841.9" height="595.3"/>
</g>
<g id="Layer_1">
	<g>
		<g>
			<g>
				<path fill="#FFFFFF" d="M555.1,290.7c-1.2-1.3-2.2-2.8-2.8-4.3l-0.1-0.2c0,0-0.3-0.4-0.8-0.2l-0.2,0.1c-0.9,0.4-3.5,1-3.9,1
					c-0.1,0-2.3-1.5-2.3-1.5c-1.5-0.9-3.1-1.9-4.7-2.8l-0.3-0.2l-0.3,0.2c-0.2,0.1-0.4,0.3-0.6,0.5c-0.9,0.8-2.1,1.3-2,1.3
					c-1.7,0.5-3.2-0.5-3.2-0.5c-2.3-1.3-2.2-4.1-2.2-4.1l2.3-10.3v-0.1c0,0,0.2-0.8-0.3-0.9h-0.4c-3,0.2-6.1,0.2-9.1,0.1h-3.5
					c0,0-1.8,0.3-1.9,2.2c-0.1,0.3-0.1,0.5-0.2,0.7l0,0c-2.2-1.2-4.4-2.3-7-2.9c-12.9-4-21.1,8.1-21.1,8.1c-0.6,0.7-1,1.4-1.4,2.1
					c-1.2,1.8-1.8,2.4-1.8,2.4c-0.6,0.4-10.2,6.3-10.2,6.3s-2.4-8.2-10.5-10.9c-9.2-2.4-18.7,0.4-26.7,8l-0.1,0.1v0.1
					c-0.2,0.6-0.7,3.2-0.7,3.2c-2.4,1.6-4.9,3.3-7.2,5c-3,2.1-9.2,6.4-9.2,6.4s-1.6-7.6-7.5-12.7c-0.7-0.5-2.2-1.6-3.4-1.7h-0.2
					l-0.2,0.2c0,0-32.6,28.1-32.5,28.1c-3.6,2.3-7.4,1.1-7.4,1.1l12.6-10.9l0.8-0.7l0.4-0.3l-0.2-0.4c-0.8-1.6-1.7-3.4-2.9-4.8
					c-3.9-5.3-11.7-7.6-18.8-5.4c-7,2.1-11.5,8.9-12.8,14.7c0,0.1-27,17.6-27,17.4c0.1-4.1,0.9-8,2.4-11.6
					c3.9-9.8,14.4-17.2,24.1-17h0.1c0.4-0.1,0.7-0.3,0.8-0.6c0.2-0.3,0.2-0.8,0-1.2l-0.1-0.2c-2.9-3.6-5.5-7.6-8.3-12.8l-0.2-0.4
					l-0.4,0.1c-4.2,0.7-8.2,3.2-10.8,5.3c-10.3,8.5-15.8,20.4-16.5,35.2c0,0.5-7.5-13-9.2-22c-1.9-8.6,0.4-18.5,5.9-25.2
					c0.5-0.8,1.2-1.5,1.8-2.1c0.8-0.9,1.6-1.8,2.2-2.8l0.2-0.4l-0.3-0.3c-4.5-4.8-7.5-8.9-9.2-13c-0.2-0.5-0.4-0.9-0.5-1.4
					c-0.3-0.7-0.5-1.5-0.9-2.1l-0.3-0.4l-0.5,0.2c-1.8,0.7-3.6,1.9-5.5,3.6c-8.3,7.8-12.3,17.2-11.7,27.9c0.9,16.1,9.3,31.6,25,47.1
					l-14.7,2.8l-0.3,0.1l-0.1,0.3c-0.8,3.3-2.6,6.3-5.3,9.3l0,0l0,0c-0.2,0.2-0.4,0.6-0.3,1.1c0.1,0.2,0.3,0.4,0.5,0.5l0.1,0.1h0.2
					L434,316.4l-0.9,5.9l0.7-0.1c2.7-0.4,5.3-0.9,7.9-1.5l3.5-0.7l0.8-0.2l0.1-0.5l1-5.5L554.3,293h0.2l0.4-0.1
					c0.9-0.2,0.6-1.7,0.6-1.7L555.1,290.7z M519.7,289.4c0,0,1.9,1.7,2.8,2.1l-4.3,0.8C519.4,291,519.7,289.4,519.7,289.4z
					 M507.7,287.6c-1,1-2.5,1.4-4.1,1c-1.4-0.4-2.7-1.3-3.3-2.9l-0.1-0.5c-0.4-1.2-0.3-3,0.8-4c1.2-1.1,3.1-1.4,4.7-0.6
					c1.1,0.5,2.1,1.6,2.6,2.6C508.9,284.6,508.7,286.6,507.7,287.6z M473.1,300.6c0.1-0.1,2.5-1.4,3.5-4.5c0-0.1,10.5-7.1,10.5-7.1
					s2.3,6.3,5.6,7.9L473.1,300.6z M460.9,295.5c-1,1.2-2.4,1.8-4.1,1.7c-1.9-0.3-3.7-1.6-4.6-3.6c-0.7-1.8-0.6-4.3,0.9-5.6
					c1.5-1.1,4-1.1,5.7,0c1.6,1.1,2.5,3,2.5,3C461.9,292.3,461.7,294.3,460.9,295.5z M452.8,304.3l-4.1,0.8c0-0.3,0.5-2.5,0.6-3
					C449.3,302.1,451.1,304,452.8,304.3z M437,297.9c0,0-0.1,0.7-0.2,1.6c-0.3,2.5-1.3,7.9-1.3,7.9c-5.2,1.1-9.8,1.9-14.3,2.7
					c0,0,0.7-1.8,1.2-2.8C422.5,307.2,434.5,299.5,437,297.9z M398.1,311.9L398.1,311.9c0.5,1.5,1.5,2,1.6,2l-12.8,2.4l15.9-14.3
					l0.8,1.4c0,0,2.4,4.1-3,5.1C399.3,309,397.6,309.6,398.1,311.9z M332.8,326.2l17.8-11.6c0,0,2,5,6,7.3L332.8,326.2z
					 M370.9,305.5l-7.8,6.5c0,0-0.1,0.1-0.2-0.2c0,0-1.2-2.4,0.1-4.4c1.4-2.1,3.9-3.1,6.6-2.5C369.6,305,370.5,305.2,370.9,305.5z"
					/>
			</g>
		</g>
		<g>
			<g>
				<g>
					<g>
						<path fill="#FFFFFF" d="M549.9,273.7c0.8-0.1,1.4-0.6,1.4-1.5c0-1.3-1.2-1.6-2.3-1.6h-2v5.2h1.1v-2h0.7l1.4,2h1.4L549.9,273.7
							z M548.1,273.1v-1.8h0.8c0.9,0,1.3,0.3,1.3,0.9s-0.4,0.9-1.2,0.9H548.1z"/>
					</g>
				</g>
			</g>
			<g>
				<g>
					<g>
						<g>
							<path fill="#FFFFFF" d="M545,273.2c0-2.2,1.8-4,4-4c2.2,0,4,1.8,4,4s-1.8,4-4,4C546.9,277.2,545,275.4,545,273.2z
								 M549.1,277.8c2.5,0,4.5-2,4.5-4.5s-2-4.5-4.5-4.5c-2.5,0-4.5,2-4.5,4.5C544.5,275.7,546.6,277.8,549.1,277.8z"/>
						</g>
					</g>
				</g>
			</g>
		</g>
	</g>
</g>
</svg>
