<svg width="178" height="178" viewBox="0 0 178 178" fill="none" xmlns="http://www.w3.org/2000/svg">
<rect width="178" height="178" fill="white"/>
<path fill-rule="evenodd" clip-rule="evenodd" d="M121.376 66.2909C121.057 66.0466 120.667 65.9141 120.267 65.9138C120.047 65.9138 119.826 65.9547 119.615 66.0356C115.67 67.5533 111.665 68.7058 108.008 69.563C107.262 69.7381 106.66 70.2958 106.41 70.9639C103.745 78.3066 96.9429 85.2974 89.8056 92.6207C89.5191 92.8944 89.118 93.2554 88.4647 93.2554C87.8129 93.2554 87.4151 92.9052 87.1237 92.6207C79.9875 85.2974 73.1844 78.3319 70.5202 70.9881C70.2701 70.32 69.6671 69.7624 68.9228 69.5873C65.2641 68.7295 61.2478 67.5415 57.3075 66.0242C57.0989 65.9441 56.8775 65.9028 56.6542 65.9025C56.2565 65.9014 55.8697 66.0329 55.5542 66.2764C55.3096 66.4645 55.1164 66.7119 54.9925 66.9955C54.8686 67.2791 54.8181 67.5896 54.8458 67.8982C55.4509 74.0038 57.8478 79.9725 62.1753 86.2279C66.2431 92.1083 71.5489 97.5512 76.6786 102.815C86.1304 112.515 95.0595 121.676 95.8429 132.299C95.8769 132.761 96.0835 133.194 96.4212 133.509C96.7589 133.825 97.2028 134 97.6637 134H108.768C109.015 134 109.26 133.949 109.487 133.851C109.715 133.752 109.92 133.609 110.09 133.428C110.261 133.248 110.393 133.035 110.48 132.801C110.566 132.568 110.604 132.32 110.593 132.071C110.243 124.969 107.586 117.856 102.471 110.329C101.39 108.746 100.249 107.206 99.049 105.713C98.5617 105.1 98.7663 104.34 99.1401 103.956C99.508 103.577 99.8791 103.198 100.251 102.814C105.381 97.5501 110.686 92.1072 114.755 86.2263C119.082 79.9709 121.479 74.0372 122.084 67.9327C122.145 67.3195 121.867 66.6681 121.376 66.2904L121.376 66.2909ZM137.554 44.9375C137.338 44.6473 137.058 44.4115 136.736 44.2488C136.414 44.0861 136.059 44.001 135.698 44C135.324 44 134.953 44.0948 134.628 44.2732C121.017 51.7694 105.24 55.7349 88.9991 55.7387C72.7592 55.7338 56.9808 51.7694 43.3708 44.2726C43.0423 44.094 42.6748 44.0004 42.3014 44C41.5731 44 40.8801 44.3502 40.4458 44.9353C39.8016 45.7974 39.7818 47.2435 40.878 48.1045C47.6951 53.2177 55.2094 57.2101 63.2131 59.9397C71.5093 62.7716 80.1835 64.2096 88.9959 64.2134H89.0023C97.8152 64.2096 106.49 62.7716 114.786 59.9397C122.79 57.2091 130.304 53.2177 137.129 48.0981C138.218 47.2425 138.197 45.7963 137.554 44.937V44.9375ZM76.5484 111.078C76.286 110.801 75.9005 110.519 75.2525 110.519C74.4235 110.519 73.9314 111.095 73.7456 111.381C69.0748 118.532 66.6624 125.282 66.3287 132.064C66.3046 132.564 66.4878 133.061 66.8321 133.427C67.0041 133.607 67.2103 133.751 67.4384 133.849C67.6666 133.947 67.9121 133.998 68.1602 133.998H79.2464C80.1996 133.998 81.0028 133.248 81.0735 132.29C81.3145 129.022 82.3266 125.745 84.1677 122.301C84.806 121.11 84.3102 119.991 83.9428 119.513C82.1156 117.122 79.8783 114.572 76.549 111.077L76.5484 111.078ZM88.4754 71.764C91.9551 71.764 93.9735 71.5539 94.683 71.5539C95.5414 71.5539 96.3624 72.2619 96.3624 73.2532C96.3624 73.5431 96.2944 73.7489 96.2269 73.9321C95.7653 75.1735 93.6618 79.6401 89.7461 83.472C89.307 83.9014 88.809 83.9817 88.4663 83.9817H88.4609C88.1198 83.9817 87.6218 83.9009 87.1832 83.472C83.2664 79.6401 81.1624 75.1735 80.7019 73.9321C80.6339 73.7489 80.5659 73.5431 80.5659 73.2532C80.5659 72.2619 81.3873 71.5539 82.2463 71.5539C82.9558 71.5539 84.9737 71.764 88.4529 71.764H88.4754" fill="#59AFE1"/>
</svg>
