<svg width="178" height="178" viewBox="0 0 178 178" fill="none" xmlns="http://www.w3.org/2000/svg">
<rect width="178" height="178" fill="white"/>
<path d="M80.6974 111.792V76.9142L68.9576 81.4967C68.9576 81.4967 66.0877 87.3521 66.6095 96.0078C66.8704 102.882 71.0445 110.774 74.1752 114.338L80.6974 111.792ZM112.264 40C114.873 40.2546 119.308 41.5274 122.439 44.0733C125.83 47.1283 126.613 51.9653 125.57 56.2932C124.526 60.112 123.221 62.1485 119.047 64.9489C114.873 67.7494 111.743 68.004 111.743 68.004V84.8063L119.83 90.9162L111.743 98.0446V120.957C111.743 120.957 118.526 115.611 123.743 105.173C123.743 105.173 124.004 104.664 124.526 103.391C125.048 106.191 124.787 112.047 121.395 119.175C118.786 124.776 114.352 129.867 108.351 132.922C98.1767 138.268 90.35 138.778 82.2626 137.25C72.6099 135.468 63.7398 130.376 58.0003 121.466C53.8262 115.101 52 107.973 52 100.081C52.261 84.5516 64.5225 71.3135 78.6102 66.2219C80.4364 65.7127 80.9581 65.2036 83.3062 64.9489C82.2626 65.7127 80.9581 66.4764 79.3929 67.4947C74.9578 70.2952 71.0445 75.8959 69.2183 80.2238L96.3505 68.7677V104.664L74.6969 115.101C77.3058 118.411 84.8715 123.248 91.3937 124.012C102.351 125.285 109.655 121.211 109.655 121.211V97.7899L101.568 90.9162L109.655 84.8063V68.004C104.96 67.4947 98.4374 65.4582 95.3068 64.6943C90.35 63.6761 74.1752 59.3482 71.5663 58.839C68.9576 58.5843 65.8269 58.5843 64.0008 60.112C62.1746 61.6394 60.8701 64.6943 61.6527 67.2401C62.1746 68.7677 63.2181 69.5315 64.0008 70.2952C64.0008 70.2952 62.9571 70.2952 61.3919 69.2768C58.2612 67.4947 55.9133 64.1852 55.6524 59.8573C55.5001 57.1933 56.0423 54.5349 57.2285 52.1307C58.4147 49.7265 60.2062 47.6552 62.4354 46.11C66.6095 43.5642 71.3055 42.0367 76.784 42.8004C84.8715 43.8188 95.5678 48.1467 105.22 50.4378C108.873 51.2016 111.743 51.4562 114.352 50.1832C115.656 49.4195 117.743 47.1283 115.917 44.3279C113.83 41.0184 109.916 41.0184 106.525 40.5091C109.655 40 110.177 40 112.264 40Z" fill="#333333"/>
</svg>
