<svg width="178" height="178" viewBox="0 0 178 178" fill="none" xmlns="http://www.w3.org/2000/svg">
<rect width="178" height="178" fill="white"/>
<path fill-rule="evenodd" clip-rule="evenodd" d="M76.8313 41.03C71.5798 41.0339 67.3297 45.2956 67.3336 50.5471C67.3297 55.7986 71.5837 60.0603 76.8351 60.0642H86.3367V50.551C86.3406 45.2995 82.0866 41.0378 76.8313 41.03C76.8351 41.03 76.8351 41.03 76.8313 41.03V41.03ZM76.8313 66.4141H51.5016C46.2501 66.418 41.9961 70.6797 42 75.9312C41.9922 81.1826 46.2462 85.4443 51.4977 85.4521H76.8313C82.0827 85.4482 86.3367 81.1865 86.3328 75.935C86.3367 70.6797 82.0827 66.418 76.8313 66.4141V66.4141Z" fill="#36C5F0"/>
<path fill-rule="evenodd" clip-rule="evenodd" d="M137 75.9312C137.004 70.6797 132.75 66.418 127.498 66.4141C122.247 66.418 117.993 70.6797 117.997 75.9312V85.4521H127.498C132.75 85.4482 137.004 81.1865 137 75.9312ZM111.666 75.9312V50.5471C111.67 45.2995 107.42 41.0378 102.169 41.03C96.9172 41.0339 92.6633 45.2956 92.6672 50.5471V75.9312C92.6594 81.1826 96.9134 85.4443 102.165 85.4521C107.416 85.4482 111.67 81.1865 111.666 75.9312Z" fill="#2EB67D"/>
<path fill-rule="evenodd" clip-rule="evenodd" d="M102.165 136.22C107.416 136.216 111.67 131.955 111.666 126.703C111.67 121.452 107.416 117.19 102.165 117.186H92.6633V126.703C92.6594 131.951 96.9134 136.212 102.165 136.22ZM102.165 110.832H127.498C132.75 110.828 137.004 106.567 137 101.315C137.008 96.0637 132.754 91.802 127.502 91.7943H102.169C96.9173 91.7981 92.6633 96.0599 92.6672 101.311C92.6633 106.567 96.9134 110.828 102.165 110.832V110.832Z" fill="#ECB22E"/>
<path fill-rule="evenodd" clip-rule="evenodd" d="M42 101.315C41.9961 106.567 46.2501 110.828 51.5016 110.832C56.753 110.828 61.007 106.567 61.0031 101.315V91.7981H51.5016C46.2501 91.802 41.9961 96.0637 42 101.315ZM67.3336 101.315V126.699C67.3258 131.951 71.5798 136.212 76.8313 136.22C82.0827 136.216 86.3367 131.955 86.3328 126.703V101.323C86.3406 96.0715 82.0866 91.8098 76.8351 91.802C71.5798 91.802 67.3297 96.0637 67.3336 101.315C67.3336 101.319 67.3336 101.315 67.3336 101.315Z" fill="#E01E5A"/>
</svg>
