<svg width="178" height="178" viewBox="0 0 178 178" fill="none" xmlns="http://www.w3.org/2000/svg">
<rect width="178" height="178" fill="white"/>
<path d="M138 58.3516C134.395 59.938 130.519 61.0098 126.453 61.4919C130.603 59.0238 133.792 55.1155 135.293 50.4582C131.408 52.744 127.105 54.4034 122.525 55.2977C118.858 51.4215 113.632 49 107.849 49C96.7459 49 87.7431 57.9292 87.7431 68.9431C87.7431 70.5062 87.9209 72.0285 88.2639 73.4881C71.5539 72.6565 56.7392 64.7164 46.8226 52.6502C45.0919 55.5957 44.1002 59.0214 44.1002 62.6765C44.1002 69.5959 47.6497 75.7001 53.0446 79.2765C49.7489 79.173 46.6487 78.2757 43.938 76.7821C43.9357 76.8652 43.9357 76.9488 43.9357 77.0329C43.9357 86.6955 50.8663 94.7557 60.0641 96.5891C58.377 97.045 56.6007 97.2885 54.7671 97.2885C53.4716 97.2885 52.2123 97.1631 50.9844 96.9308C53.5431 104.854 60.9681 110.62 69.7666 110.78C62.8855 116.13 54.2164 119.318 44.7961 119.318C43.1732 119.318 41.5729 119.223 40 119.039C48.8979 124.698 59.4663 128 70.8206 128C107.802 128 128.026 97.6107 128.026 71.2552C128.026 70.3905 128.007 69.5307 127.968 68.6748C131.896 65.8635 135.304 62.3513 138 58.3516H138Z" fill="#2AA9E0"/>
</svg>
