<svg xmlns="http://www.w3.org/2000/svg" width="40" height="15" viewBox="0 0 40 15">
    <path fill="#FFAA05" fill-rule="evenodd" d="M19.083.884c7.292.115 10.69 2.846 10.192 8.193-.498 5.361-4.211 7.083-11.138 5.165a.512.512 0 01-.372-.437l-.002-.09.8-12.353a.512.512 0 01.52-.478zM8.4.959l.092.014 2.43.617a.512.512 0 01.327.734L8.744 7.087l3.362 5.796a.512.512 0 01-.275.74l-2.708.938a.512.512 0 01-.597-.205l-2.774-4.274-1.197 1.78v2.361a.512.512 0 01-.468.51l-2.565.222a.513.513 0 01-.555-.47L.001 2.253a.512.512 0 01.462-.55l3.02-.284a.512.512 0 01.557.453l.515 4.63 3.38-5.307a.512.512 0 01.558-.22zm7.064 3.453a.512.512 0 01.496.527l-.26 8.682a.512.512 0 01-.512.497h-2.05a.512.512 0 01-.512-.5l-.197-8.683v-.011c0-.283.228-.512.511-.512zM30.11 3.409c1.146-2.477 4.113-3.133 8.9-1.968.274.067.442.34.378.613l-.467 2.015a.512.512 0 01-.682.362c-1.715-.657-3.06-.87-4.034-.64-1.613.38-.983 1.712.563 2.016 1.547.304 5.694.37 5.19 5.112-.327 3.07-3.68 3.93-10.061 2.58a.512.512 0 01-.375-.675l.87-2.402.006-.018a.512.512 0 01.666-.282c2.709 1.096 4.293 1.247 4.755.45.733-1.265-.991-1.239-2.47-1.634-1.48-.395-5.016-1.688-3.239-5.529zm-8.133.826a.512.512 0 00-.556.486l-.299 6.328a.512.512 0 00.427.529c2.782.467 4.253-.584 4.414-3.151.16-2.547-1.168-3.944-3.986-4.192zM14.197 0c.983 0 1.78.79 1.78 1.765 0 .974-.797 1.764-1.78 1.764s-1.78-.79-1.78-1.764c0-.975.797-1.765 1.78-1.765z"/>
</svg>