<?xml version="1.0" encoding="UTF-8" standalone="no"?>
<!-- Created with Inkscape (http://www.inkscape.org/) -->

<svg
   xmlns:dc="http://purl.org/dc/elements/1.1/"
   xmlns:cc="http://creativecommons.org/ns#"
   xmlns:rdf="http://www.w3.org/1999/02/22-rdf-syntax-ns#"
   xmlns:svg="http://www.w3.org/2000/svg"
   xmlns="http://www.w3.org/2000/svg"
   xmlns:sodipodi="http://sodipodi.sourceforge.net/DTD/sodipodi-0.dtd"
   xmlns:inkscape="http://www.inkscape.org/namespaces/inkscape"
   width="1000.0007"
   height="289.19437"
   viewBox="0 0 264.58352 76.516013"
   version="1.1"
   id="svg9357"
   inkscape:version="0.92.3 (2405546, 2018-03-11)"
   sodipodi:docname="Disney+_Hotstar_logo.svg">
  <defs
     id="defs9351">
    <linearGradient
       y2="84.295403"
       x2="189.4962"
       y1="184.4834"
       x1="930.50293"
       gradientUnits="userSpaceOnUse"
       id="SVGID_1_"
       gradientTransform="matrix(0.1408262,0,0,0.1408262,-193.4907,46.079183)">
      <stop
         id="stop4543"
         style="stop-color:#101C50"
         offset="0" />
      <stop
         id="stop4545"
         style="stop-color:#0D267A"
         offset="0.236" />
      <stop
         id="stop4547"
         style="stop-color:#085AA4"
         offset="0.4973" />
      <stop
         id="stop4549"
         style="stop-color:#058BBF"
         offset="0.6549" />
      <stop
         id="stop4551"
         style="stop-color:#B1FFFF"
         offset="1" />
    </linearGradient>
  </defs>
  <sodipodi:namedview
     id="base"
     pagecolor="#ffffff"
     bordercolor="#666666"
     borderopacity="1.0"
     inkscape:pageopacity="0.0"
     inkscape:pageshadow="2"
     inkscape:zoom="0.5"
     inkscape:cx="212.15276"
     inkscape:cy="325.41532"
     inkscape:document-units="px"
     inkscape:current-layer="layer1"
     showgrid="false"
     units="px"
     inkscape:window-width="1366"
     inkscape:window-height="705"
     inkscape:window-x="-8"
     inkscape:window-y="-8"
     inkscape:window-maximized="1" />
  <metadata
     id="metadata9354">
    <rdf:RDF>
      <cc:Work
         rdf:about="">
        <dc:format>image/svg+xml</dc:format>
        <dc:type
           rdf:resource="http://purl.org/dc/dcmitype/StillImage" />
        <dc:title></dc:title>
      </cc:Work>
    </rdf:RDF>
  </metadata>
  <g
     inkscape:label="Layer 1"
     inkscape:groupmode="layer"
     id="layer1"
     transform="translate(193.49113,-47.362826)">
    <path
       style="stroke-width:1.68031204"
       d="m 47.13114,89.468731 c 2.88678,0 5.31147,1.070362 6.84559,3.316942 h 0.0706 V 90.00475 h 3.70844 v 19.75375 h -3.70844 v -3.06657 h -0.0706 c -1.3913,2.35244 -3.88823,3.56562 -6.70444,3.56562 -5.77523,0 -10.48179,-4.35033 -10.48179,-10.05499 0,-6.311247 4.52844,-10.733829 10.34064,-10.733829 z m -58.95878,0 c 5.4542898,0 10.5893198,4.279752 10.5187498,10.555719 -0.0722,5.38036 -4.66622,10.42634 -11.1757498,10.22638 -5.51983,-0.16803 -10.21126,-4.91155 -10.14741,-10.433057 0.0706,-5.95671 4.78889,-10.349042 10.80441,-10.349042 z m 29.88098,0 c 3.28166,0 5.95503,2.283542 6.06257,5.776912 h -3.70844 c -0.17812,-1.4249 -0.99811,-2.38772 -2.53224,-2.38772 -1.42658,0 -2.31715,0.96282 -2.31715,2.10207 0,1.67695 1.71392,2.176 3.67316,2.78259 2.78092,0.85528 5.34844,2.530547 5.34844,6.203717 0,3.81431 -2.7826,6.31125 -6.63219,6.31125 -3.56562,0 -6.9901,-2.42469 -6.9901,-6.9901 h 3.71013 c 0.17811,2.39108 1.38961,3.60259 3.35054,3.60259 1.71223,0 2.85317,-1.10564 2.85317,-2.71034 0,-1.35434 -1.03339,-2.2449 -3.35222,-2.99432 -4.84939,-1.534127 -5.66937,-3.637867 -5.66937,-5.884447 0,-3.49505 2.95902,-5.812202 6.2037,-5.812202 z m -61.63888,-6.096169 c 2.0483,0 3.70845,1.660146 3.70845,3.708445 v 5.027496 h 0.0722 c 1.17622,-1.747525 3.06657,-2.638089 5.52655,-2.638089 4.70655,0 8.23689,2.994309 8.23689,8.414999 V 109.7585 H -29.7499 V 99.026343 c 0,-4.24279 -1.63998,-6.16842 -4.91995,-6.16842 -3.24637,0 -5.20729,2.35243 -5.20729,6.20371 V 109.7585 h -3.70845 z m 50.1925998,0 v 6.632188 h 3.24637 v 3.387513 h -3.24805 V 109.7585 c -2.04662,0 -3.70845,-1.66015 -3.70845,-3.70845 V 93.392263 h -1.53076 V 90.00475 h 1.53076 v -6.632188 h 3.70845 z m 25.7591802,0 v 6.632188 h 3.24636 v 3.387513 H 32.36792 V 109.7585 c -2.0483,0 -3.70845,-1.66015 -3.70845,-3.70845 V 93.392263 H 27.12703 V 90.00475 h 1.53244 v -6.632188 h 3.70845 z m 38.72615,6.097852 v 3.814309 c -3.2094,0.10754 -4.84938,2.06678 -4.84938,5.38539 v 7.379937 c 0,2.0483 -1.66015,3.70845 -3.70845,3.70845 V 90.00475 h 3.45976 v 1.781133 h 0.0706 c 0.89056,-1.317367 2.42469,-2.172646 5.02749,-2.315469 z m -83.09814,3.387509 c -4.25287,0 -7.85042,4.12517 -6.70277,8.722497 0.77967,3.11698 3.62107,5.37532 6.83383,5.28794 3.7924598,-0.10586 6.8556698,-3.13546 6.8556698,-7.057307 0,-3.85296 -3.10185,-6.95313 -6.9867298,-6.95313 z m 59.24276,0 c -3.91514,0 -7.07412,3.53537 -6.71117,7.712627 0.30077,3.44464 3.11529,6.22892 6.57002,6.29781 3.91848,0.079 7.0237,-3.16234 7.0237,-6.951447 0,-3.85128 -2.7826,-7.05899 -6.88255,-7.05899 z"
       id="path2"
       inkscape:connector-curvature="0" />
    <path
       id="path4541"
       d="m -129.5573,99.218683 c 0.0779,0.0107 0.0948,0.0138 0.17068,0.0237 1.26828,0.17237 2.51459,0.40094 3.46855,0.827357 0.88411,0.39037 1.40234,0.88438 1.87552,1.76497 0.71948,1.33532 0.76638,3.20605 0.11618,4.62192 -0.4857,1.05352 -1.5519,1.93692 -2.52529,2.40517 -1.01086,0.49008 -2.00677,0.72343 -3.14902,0.85383 -1.99775,0.21997 -4.15536,-0.19392 -5.953,-1.06338 -1.06352,-0.51937 -2.36222,-1.41375 -3.01734,-2.566 -0.48177,-0.8441 -0.46642,-1.94241 0.1197,-2.7447 0.93424,-1.2787 2.93524,-1.56021 4.44236,-1.50684 1.149,0.0445 3.21788,0.39966 4.30886,0.78778 0.30235,0.10928 1.41756,0.54373 1.61218,0.743 0.13702,0.13858 0.22588,0.33996 0.16434,0.52613 -0.24926,0.76244 -2.10197,1.16435 -2.63696,1.24505 -1.43221,0.2194 -2.17535,-0.32264 -3.80358,-0.96551 -0.40417,-0.15829 -0.94283,-0.3339 -1.35433,-0.37192 -0.73919,-0.0704 -1.63203,0.1366 -1.77314,0.94354 -0.0701,0.41585 0.41755,0.80482 0.78947,0.96831 0.8734,0.37516 1.58345,0.51008 2.44306,0.52163 2.53937,0.0418 5.39321,-0.37629 7.47026,-1.84792 0.28433,-0.20294 0.56359,-0.49994 0.56654,-0.87439 0.009,-0.75611 -1.31658,-1.21844 -1.31658,-1.21844 -1.39911,-0.5833 -3.98425,-0.8672 -5.31604,-0.97691 -1.39757,-0.12097 -3.59657,-0.30193 -4.12452,-0.37966 -0.54359,-0.0776 -1.13407,-0.1873 -1.60486,-0.39826 -0.4729,-0.21364 -0.93551,-0.691737 -1.07281,-1.220677 -0.24349,-0.95354 0.0672,-2.12352 0.59667,-2.88525 1.38785,-1.99523 4.63882,-2.75301 7.06751,-3.05396 2.35067,-0.29249 6.15087,-0.28954 8.45971,0.93734 0.35643,0.19111 0.53852,0.36883 0.46402,0.7499 -0.1504,0.7154 -0.68807,1.17646 -1.33982,1.37855 -0.68371,0.21758 -2.09803,0.30236 -2.71921,0.3415 -2.78358,0.15604 -6.14735,0.0742 -8.79868,0.79722 -0.20772,0.0592 -0.56654,0.15603 -0.68315,0.2863 -0.41501,0.4505 0.77032,0.57922 1.02423,0.63076 0.0755,0.018 0.0901,0.0206 0.16885,0.0292 l 5.85964,0.69075 m -16.55961,-12.412024 c 0,0 0.45275,-0.679058 0.83214,-1.194202 0.69075,-0.938182 1.94086,-2.23928 2.88229,-3.044801 0.28799,-0.246029 0.62752,-0.524721 0.62752,-0.524721 0,0 -0.53106,0.05493 -0.832,0.116461 -0.71427,0.138999 -1.76159,0.835103 -2.2849,1.284897 -0.86355,0.7392 -1.81314,1.94087 -1.38349,3.008615 0.0624,0.150824 0.15844,0.353751 0.15844,0.353751 m 4.80048,1.284618 c 1.36418,-0.09407 2.64204,-0.486832 3.83174,-1.146743 1.16675,-0.652873 2.88286,-1.925945 2.70485,-3.422501 -0.054,-0.484444 -0.37122,-0.850167 -0.77159,-1.020851 -0.52035,-0.225459 -0.79172,-0.189132 -1.45642,0.0084 -0.48289,0.141248 -0.70047,0.227015 -1.15647,0.487962 -1.33827,0.777502 -3.23576,2.441503 -4.2659,3.769496 -0.23772,0.313196 -0.47853,0.663435 -0.66696,0.903539 -0.11885,0.148012 -0.21124,0.283906 -0.19969,0.320099 0.0412,0.150545 1.4477,0.136745 1.98044,0.100552 m -3.47334,2.551205 c -0.14068,0.148856 -0.28953,0.507682 -0.44388,0.767505 -0.0825,0.138993 -0.23532,0.317983 -0.33643,0.389803 -0.35503,0.26109 -0.65583,0.2732 -0.9986,-0.0285 -0.48064,-0.425153 -0.75863,-1.082668 -0.77835,-1.722307 -0.0103,-0.279117 0.0376,-0.587949 -0.0152,-0.823265 -0.0875,-0.397273 -0.48501,-0.806511 -0.69934,-1.18632 -0.25166,-0.447407 -0.45529,-1.227588 -0.48064,-1.731319 -0.0863,-1.570638 0.74159,-3.017487 1.81708,-4.158596 1.0831,-1.153931 2.50008,-2.112957 4.04115,-2.76583 1.45671,-0.613582 3.59135,-1.031832 5.191,-0.477821 0.52077,0.178425 1.2463,0.621609 1.6109,1.085908 0.0775,0.09633 0.14055,0.200539 0.21998,0.251517 0.0711,0.04534 0.25715,0.06325 0.40515,0.09041 0.51022,0.08844 1.24477,0.474728 1.54487,0.732017 0.60287,0.520073 0.93311,1.017187 1.0859,1.738642 0.30644,1.451637 -0.5295,3.044236 -1.48163,4.013544 -1.63034,1.668224 -3.24041,2.84117 -5.32604,3.657677 -0.91608,0.357842 -2.34279,0.692166 -3.38208,0.598651 -0.32278,-0.02674 -0.65429,-0.111812 -0.96861,-0.132655 -0.1604,-0.01378 -0.7468,-0.165051 -0.80947,-0.207722 -0.0777,-0.0597 -0.17814,-0.111672 -0.19575,-0.09139 m 1.86271,3.218449 c 0.0635,0.0107 0.16139,0.0391 0.2456,0.0715 0.73117,0.27814 1.03198,0.95481 1.21209,1.69809 0.41741,1.72596 0.59556,5.544317 0.66499,7.038917 0.051,1.12182 0.079,2.22547 0.12603,3.33434 0.0398,0.93903 0.11478,2.18745 -0.081,3.06719 -0.0711,0.31644 -0.28278,0.68442 -0.58584,0.87284 -0.34713,0.22223 -1.13731,0.23913 -1.57162,0.14956 -1.07056,-0.22138 -1.4184,-0.90973 -1.5712,-1.96847 -0.36319,-2.52627 -0.18828,-7.48435 0.026,-9.576457 0.0713,-0.69104 0.33151,-2.90511 0.69231,-3.83343 0.12322,-0.31306 0.38558,-0.94354 0.84255,-0.85411 m -32.56802,4.20324 c 0,0 -1.59331,0.1128 -2.68993,0.23447 -1.39516,0.15026 -4.01664,0.60288 -5.52982,1.14323 -0.45388,0.16251 -1.37587,0.54838 -1.456,1.015067 -0.0842,0.48374 0.21602,0.862 0.54992,1.25335 0.19308,0.2273 1.28589,1.27857 1.59233,1.53402 1.28447,1.0724 3.88905,2.72627 5.80739,3.5294 0.65907,0.27264 1.74935,0.66301 1.74935,0.66301 0,0 -0.081,-3.10438 -0.0665,-6.16228 0.008,-1.613157 0.0433,-3.210267 0.0433,-3.210267 m 29.21496,1.23546 c 0.0913,0.833967 -0.12308,2.410807 -0.16026,2.618807 -0.0679,0.47937 -0.42938,1.58514 -0.48937,1.72005 -0.29179,0.67202 -0.5795,1.22265 -0.88438,1.77188 -0.52247,0.94029 -1.76484,2.43094 -2.50235,3.06888 -2.74259,2.37053 -6.98822,3.72021 -10.63055,4.16479 -2.4715,0.29856 -5.3114,0.25476 -7.9302,-0.22982 -0.90129,-0.16392 -2.24251,-0.47304 -2.24251,-0.47304 0,0 0.004,0.53627 -0.0386,0.9134 -0.0208,0.17209 -0.1504,0.62499 -0.22307,0.77173 -0.1904,0.39333 -0.50303,0.59625 -0.95761,0.68357 -0.54867,0.10182 -1.13056,0.13576 -1.63754,-0.081 -0.83242,-0.35023 -1.13125,-1.129 -1.2763,-2.02719 -0.11731,-0.71835 -0.24011,-1.96706 -0.24011,-1.96706 0,0 -0.62273,-0.29489 -1.14196,-0.55401 -1.59486,-0.78581 -3.10959,-1.73794 -4.43476,-2.7171 -0.36713,-0.27405 -1.94439,-1.595 -2.29251,-1.92299 -0.97621,-0.92677 -1.8544,-1.84876 -2.52248,-3.03184 -0.51936,-0.92425 -0.66893,-1.74456 -0.27391,-2.723857 0.54472,-1.36503 2.50178,-2.39278 3.84118,-2.97848 0.98311,-0.43402 4.04002,-1.4322 5.30985,-1.61724 0.59978,-0.0858 1.53008,-0.25236 1.58726,-0.28954 0.0234,-0.0179 0.0396,-0.0331 0.0564,-0.0524 0.0293,-0.0413 0.0787,-1.39249 0.0691,-1.88679 -0.0124,-0.48599 0.35967,-3.677956 0.47923,-4.352936 0.0624,-0.365025 0.33883,-1.770187 0.62104,-2.139008 0.18463,-0.249262 0.51107,-0.229124 0.77723,-0.06549 1.45642,0.90566 1.89889,4.046505 2.00719,5.644604 0.0648,0.97367 0.097,2.43826 0.097,2.43826 0,0 1.67076,-0.0494 2.69851,-0.0203 0.99874,0.0232 2.09958,0.18082 3.1362,0.34601 1.32715,0.21279 3.91398,0.77708 5.39759,1.52923 1.22167,0.61936 2.36518,1.66288 2.73569,2.76724 0.34418,1.01239 0.29264,1.713007 -0.23166,2.626687 -0.5895,1.03169 -1.70456,1.79849 -2.83512,1.86256 -0.33643,0.0194 -1.60274,-0.14885 -1.9924,-0.4505 -0.1528,-0.12027 -0.14492,-0.33728 -0.0347,-0.48444 0.0418,-0.0517 0.63372,-0.36643 0.98311,-0.55007 0.17519,-0.0952 0.3201,-0.19786 0.45684,-0.32249 0.29024,-0.2556 0.55147,-0.53697 0.52232,-0.86679 -0.0401,-0.428107 -0.49317,-0.692157 -0.92494,-0.861997 -2.02593,-0.80481 -6.07088,-1.4729 -8.02555,-1.58851 -0.76511,-0.0449 -1.85341,-0.0834 -1.85341,-0.0834 l 0.23011,10.793767 c 0,0 0.89974,0.17138 1.6088,0.2863 0.40685,0.0617 2.1307,0.21687 2.5888,0.22814 3.48799,0.0921 7.38099,-0.22026 10.58197,-1.73076 1.4053,-0.66132 2.69457,-1.48473 3.67063,-2.59937 1.28645,-1.47487 1.96016,-3.49334 1.78188,-5.601647 -0.19547,-2.30251 -1.81596,-5.0358 -3.11001,-6.70008 -3.41912,-4.397021 -9.27988,-8.014003 -14.43609,-10.134561 -5.26409,-2.163516 -10.46678,-3.408137 -16.05349,-3.616563 -1.44023,-0.05335 -4.58051,0.01931 -6.1679,0.458393 -0.22673,0.06393 -0.4553,0.140264 -0.66583,0.187577 -0.16632,0.04071 -0.42839,0.150825 -0.50035,0.208985 -0.0399,0.03226 -0.0793,0.0769 -0.0793,0.0769 0,0 0.0979,0.05405 0.19138,0.09365 0.16815,0.07337 0.87594,0.117306 1.24223,0.184338 0.3277,0.06167 0.66892,0.233773 0.80398,0.473883 0.12829,0.228279 0.14434,0.408254 -0.009,0.598651 -0.35967,0.437404 -1.71344,0.363614 -2.30955,0.26926 -0.6195,-0.09872 -1.39081,-0.288268 -1.53247,-0.827634 -0.16435,-0.635269 0.13744,-1.258002 0.46345,-1.8337 0.65499,-1.151817 1.59317,-1.750893 2.96707,-2.126053 1.95143,-0.536971 4.41547,-0.912411 6.25818,-0.982822 4.1707,-0.157588 8.11807,0.571749 12.15908,1.798631 2.31278,0.699342 5.34069,1.872847 7.55743,2.940166 1.59064,0.76694 4.09678,2.177316 5.50462,3.099025 0.44402,0.293057 3.04241,2.202236 3.44601,2.537824 0.842,0.688362 1.94327,1.677808 2.74076,2.469109 1.5429,1.528952 3.46193,3.872581 4.3942,5.732751 0.22434,0.44543 0.39812,0.88368 0.68751,1.39995 0.0996,0.17688 0.52543,1.23477 0.59627,1.54036 0.0701,0.30235 0.17293,0.7468 0.18743,0.76441 0.0206,0.16237 0.21801,1.07126 0.20251,1.42163 m 52.43284,-2.38658 c -1.95312,0.45036 -7.08919,0.70047 -7.08919,0.70047 l -0.64766,2.02874 c 0,0 2.56669,-0.21913 4.43391,-0.0241 0,0 0.60499,-0.0703 0.6761,0.686807 0.0241,0.7061 -0.06,1.46375 -0.06,1.46375 0,0 -0.0387,0.45839 -0.68836,0.57499 -0.70399,0.11731 -5.53222,0.30404 -5.53222,0.30404 l -0.78186,2.64444 c 0,0 -0.29053,0.61133 0.36065,0.43685 0.60499,-0.16195 5.66403,-1.11126 6.32296,-0.97466 0.7061,0.17533 1.48754,1.11675 1.26166,1.97466 -0.26926,1.06338 -5.31858,4.28365 -8.39352,4.05889 0,0 -1.61585,0.10422 -2.98158,-2.07647 -1.27194,-2.07804 0.48205,-6.01273 0.48205,-6.01273 0,0 -0.80397,-1.83679 -0.22138,-2.45938 0,0 0.34672,-0.314607 1.35743,-0.385727 l 1.23758,-2.56036 c 0,0 -1.40967,0.097 -2.24829,-0.94002 -0.78117,-0.9838 -0.84665,-1.436 -0.24772,-1.70765 0.64048,-0.3163 6.51096,-1.3877 10.55056,-1.25181 0,0 1.4039,-0.13787 2.62148,2.2973 3.4e-4,1.4e-4 0.59007,0.98494 -0.41262,1.22195 m -15.19388,9.844597 c -0.51767,1.21772 -1.88524,2.51727 -3.58417,1.70949 -1.67709,-0.80947 -4.34842,-6.27691 -4.34842,-6.27691 0,0 -1.0141,-2.03874 -1.20914,-1.98621 0,0 -0.21912,-0.398117 -0.35348,1.82975 -0.13969,2.21844 0.0269,6.5442 -0.85805,7.22509 -0.83834,0.68273 -1.85341,0.41094 -2.37982,-0.3867 -0.47853,-0.78581 -0.67766,-2.65303 -0.41656,-5.93245 0.30685,-3.285757 1.07013,-6.781627 2.04536,-7.870207 0.97381,-1.08127 1.75568,-0.29631 2.06042,-0.0116 0,0 1.30265,1.18069 3.45081,4.64769 l 0.37911,0.641317 c 0,0 1.95213,3.27548 2.15604,3.26787 0,0 0.15956,0.15055 0.30179,0.0424 0.2049,-0.0585 0.12224,-1.10886 0.12224,-1.10886 0,0 -0.40502,-3.569667 -2.18591,-9.611667 0,0 -0.26926,-0.75343 -0.0872,-1.459382 0.18082,-0.713422 0.89594,-0.378539 0.89594,-0.378539 0,0 2.76019,1.387841 4.10002,5.881741 1.33094,4.495317 0.43655,8.550267 -0.089,9.777147 m 29.70658,-2.69148 c -1.25645,2.19224 -4.80358,6.78262 -9.51759,5.69882 -1.5567,3.77499 -2.8644,7.59377 -3.6122,13.30793 0,0 -0.16434,1.11041 -1.08717,0.72469 -0.91453,-0.3201 -2.42095,-1.8406 -2.72569,-3.94412 -0.32785,-2.76315 0.90227,-7.43421 3.41644,-12.79025 -0.73328,-1.1921 -1.23321,-2.89525 -0.80525,-5.32042 0,0 0.63147,-4.503477 5.15438,-8.562517 0,0 0.54218,-0.46824 0.85651,-0.32404 0.34629,0.1452 0.18589,1.61063 -0.0889,2.32321 -0.28546,0.7085 -2.29899,4.19437 -2.29899,4.19437 0,0 -1.25603,2.355037 -0.90256,4.212537 2.37208,-3.646977 7.76432,-11.001207 11.10655,-8.682077 1.12266,0.80327 1.6402,2.5505 1.6402,4.43321 6.3e-4,1.653717 -0.39812,3.411367 -1.13577,4.728657 m -0.97536,-5.775847 c 0,0 -0.18603,-1.44994 -1.60359,0.14745 -1.21927,1.34799 -3.41841,3.873557 -5.18874,7.303947 1.8575,-0.20856 3.64909,-1.21632 4.19085,-1.72962 0.88073,-0.78145 2.93242,-2.90159 2.60148,-5.721777 m 26.94386,-0.33009 h -8.63941 c -0.17223,-2.93637 -0.52669,-5.79669 -1.08394,-8.742491 -0.0572,-0.304888 -0.32249,-0.525985 -0.63132,-0.525985 h -1.99171 c -0.17336,0 -0.33742,0.07788 -0.44979,0.213774 -0.11267,0.138149 -0.15675,0.3139 -0.12365,0.485994 0.56598,2.850598 0.92438,5.656278 1.10126,8.571518 h -8.3117 c -0.38727,0 -0.70188,0.31362 -0.70188,0.69935 v 1.796367 c 0,0.38657 0.31461,0.70245 0.70188,0.70245 h 8.4307 c 0.005,0.44332 0.01,0.84031 0.01,1.21279 0,2.58895 -0.11168,4.72162 -0.37262,7.12834 -0.0206,0.18604 0.0403,0.37123 0.16631,0.50768 0.12223,0.13759 0.29841,0.21603 0.4812,0.21603 h 1.84722 c 0.36066,0 0.65921,-0.27123 0.6954,-0.6302 0.25236,-2.42305 0.36051,-4.5822 0.36051,-7.22199 0,-0.37108 -0.004,-0.76948 -0.009,-1.21279 h 8.5214 c 0.38628,0 0.70159,-0.31588 0.70159,-0.70245 v -1.796367 c -1.4e-4,-0.38742 -0.31545,-0.70202 -0.70173,-0.70202"
       inkscape:connector-curvature="0"
       style="fill:#101c50;stroke-width:0.14082621" />
    <path
       id="path4554"
       d="m -168.88653,73.888414 c -0.12238,0.18195 -0.15196,0.405154 -0.0817,0.614844 0.0734,0.209272 0.23293,0.368403 0.4391,0.44065 l 1.54867,0.521196 c 0.0936,0.02928 0.18673,0.04465 0.27799,0.04465 0.287,0 0.5564,-0.142093 0.71595,-0.380653 5.07285,-7.45238 11.93841,-13.657326 19.85566,-17.944068 8.17355,-4.426167 17.43414,-6.767403 26.78345,-6.767403 11.29257,0 22.18829,3.331101 31.51,9.632509 9.09554,6.1465 16.15939,14.721971 20.42811,24.799632 0.12744,0.30165 0.42206,0.49613 0.74849,0.49613 h 1.84961 c 0.21293,0 0.41347,-0.107309 0.53401,-0.285455 0.12111,-0.177721 0.14379,-0.403466 0.0634,-0.6033 -4.40166,-10.835588 -11.84489,-20.07252 -21.52796,-26.708671 -9.91247,-6.793873 -21.53317,-10.385649 -33.60563,-10.385649 -19.95803,0 -38.47795,9.916421 -49.53914,26.525598"
       inkscape:connector-curvature="0"
       style="fill:url(#SVGID_1_);stroke-width:0.14082621" />
  </g>
</svg>
