<svg xmlns="http://www.w3.org/2000/svg" viewBox="0 0 251.003 184.278">
    <defs>
        <style>
            .cls-1{fill:none}.cls-2{fill:#eaeaea}.cls-3{fill:#f6f6f7}.cls-4{clip-path:url(#clip-path)}.cls-5{fill:#f0dcbe}.cls-6{fill:#ebd2af}.cls-7{fill:#d2b493}.cls-10,.cls-8{fill:#6f7284}.cls-8,.cls-9{opacity:.46}
        </style>
        <clipPath id="clip-path">
            <path id="Path_67" d="M299 361.2a36.709 36.709 0 0 1-3.18 14.29c-2.25 5-6.77 11.58-18 18.53-4.26 2.63-24.57 14.28-62.47 14.29-17.42 0-32.53.44-50.29-6.88-10.11-4.16-16.68-8.93-27-16.41-13.93-10.09-22.23-18.82-37.58-34.94-9.05-9.51-13.48-14.9-17.48-22.23-6.6-12-7.28-20.32-7.41-22.23-.32-4.72-.82-12.06 3.17-19.59 8.28-15.62 28.06-17.32 30.18-17.47 2.32-.17 4.72.07 9.52.53 22.91 2.21 28.86 7 39.18 4.76a33.14 33.14 0 0 0 15.88-9c4.74-4.78 5.42-8.58 12.17-16.41a78.4 78.4 0 0 1 8.47-8.47c15.25-12.32 37.92-8.13 41.82-7.41 7.59 1.41 19.37 3.58 27.53 13.77 2.07 2.57 5.71 6.62 6.35 12.7a25 25 0 0 1-1.86 11.38c-1.26 3.43-2.13 4-4.23 7.94-2.89 5.42-6.84 12.84-5.3 20.12a18.141 18.141 0 0 0 3.71 7.41c11.62 15.53 22.29 22.37 29.11 32.82 3.05 4.63 6.52 11.8 7.71 22.5z" class="cls-1" data-name="Path 67"/>
        </clipPath>
    </defs>
    <g id="Group_30" data-name="Group 30" transform="translate(-55 -224.037)">
        <path id="Path_59" d="M299 361.2a36.709 36.709 0 0 1-3.18 14.29c-2.25 5-6.77 11.58-18 18.53-4.26 2.63-24.57 14.28-62.47 14.29-17.42 0-32.53.44-50.29-6.88-10.11-4.16-16.68-8.93-27-16.41-13.93-10.09-22.23-18.82-37.58-34.94-9.05-9.51-13.48-14.9-17.48-22.23-6.6-12-7.28-20.32-7.41-22.23-.32-4.72-.82-12.06 3.17-19.59 8.28-15.62 28.06-17.32 30.18-17.47 2.32-.17 4.72.07 9.52.53 22.91 2.21 28.86 7 39.18 4.76a33.14 33.14 0 0 0 15.88-9c4.74-4.78 5.42-8.58 12.17-16.41a78.4 78.4 0 0 1 8.47-8.47c15.25-12.32 37.92-8.13 41.82-7.41 7.59 1.41 19.37 3.58 27.53 13.77 2.07 2.57 5.71 6.62 6.35 12.7a25 25 0 0 1-1.86 11.38c-1.26 3.43-2.13 4-4.23 7.94-2.89 5.42-6.84 12.84-5.3 20.12a18.141 18.141 0 0 0 3.71 7.41c11.62 15.53 22.29 22.37 29.11 32.82 3.05 4.63 6.52 11.8 7.71 22.5z" class="cls-2" data-name="Path 59"/>
        <path id="Path_60" d="M61 272a6 6 0 0 1-6-6" class="cls-3" data-name="Path 60"/>
        <g id="Group_3" class="cls-4" data-name="Group 3">
            <g id="Group_2" data-name="Group 2">
                <path id="Path_61" d="M185.22 276.82l-70.13 32.37 70.13 32.37 70.14-32.37z" class="cls-5" data-name="Path 61"/>
                <path id="Path_62" d="M253.79 393.53l-68.56 31.65v-83.62l70.13-32.37v81.9a2.68 2.68 0 0 1-1.57 2.44z" class="cls-6" data-name="Path 62"/>
                <path id="Path_63" d="M116.66 393.53l68.56 31.65v-83.62l-70.13-32.37v81.9a2.68 2.68 0 0 0 1.57 2.44z" class="cls-7" data-name="Path 63"/>
                <path id="Path_64" d="M255.36 309.19l-70.14 32.37 12.54 37.6a2.7 2.7 0 0 0 3.69 1.6l65.21-30.1a2.69 2.69 0 0 0 1.42-3.3z" class="cls-5" data-name="Path 64"/>
                <path id="Path_65" d="M115.09 309.19l70.14 32.37-12.54 37.6a2.7 2.7 0 0 1-3.69 1.6l-65.21-30.1a2.71 2.71 0 0 1-1.43-3.3z" class="cls-6" data-name="Path 65"/>
                <path id="Path_66" d="M255.36 309.19l-70.14-32.37v64.74z" class="cls-7" data-name="Path 66"/>
            </g>
        </g>
        <path id="Path_68" d="M302.46 231.55c4 1.48 4.68 4.91 1.7 7.88a10.31 10.31 0 0 1-5 2.61 3.748 3.748 0 0 1-1.05.15 3.7 3.7 0 0 1-3.72-3.7 23.8 23.8 0 0 1 .8-4.35 19.213 19.213 0 0 1-2.3-1.07 2 2 0 0 1-1-2.47 2.07 2.07 0 0 1 2-1.46h1.87a25.914 25.914 0 0 1 1.07-3.95 1.53 1.53 0 0 1 2.93-.12 8.551 8.551 0 0 1 .78 3.18 14.4 14.4 0 0 1-.21 2.62 15.138 15.138 0 0 1 2.13.68zm-.36 7.79a4.3 4.3 0 0 0 2.73-3.66c.11-1.59-.88-2.41-2.57-3.05-.41 2.37-.93 4.37-.16 6.71zm-3.33-8.42c.52-2 1.3-3.87-.17-5.81-1.46.78-1.38 2.08-1.45 3.29a2.09 2.09 0 0 0 1.62 2.47zm-1.77 1.59a2.55 2.55 0 0 0-2.52-2.3c-.4 0-1.25.4-1.25.65a2 2 0 0 0 .65 1.55 3.06 3.06 0 0 0 3.12.09zm2.74.24a9 9 0 0 0-.67 6.67c.15.6.32 1.26 1.06 1zm-3.35 3.19c-1.25 1.87-1.3 2.51.12 4.66z" class="cls-8" data-name="Path 68"/>
        <g id="Group_5" class="cls-9" data-name="Group 5">
            <g id="Group_4" data-name="Group 4">
                <path id="Path_69" d="M196.59 329.59l.31-1.47z" class="cls-10" data-name="Path 69"/>
                <path id="Path_70" d="M197.59 325.18l.77-2.93a.053.053 0 0 1 .08.07l-.82 2.9s-.04-.02-.03-.04z" class="cls-10" data-name="Path 70"/>
                <path id="Path_71" d="M199.22 319.35l.93-2.88a.115.115 0 0 1 .22.07l-1 2.85a.078.078 0 1 1-.15-.04z" class="cls-10" data-name="Path 71"/>
                <path id="Path_72" d="M201.17 313.62l1.09-2.82a.16.16 0 0 1 .21-.09.15.15 0 0 1 .09.21l-1.13 2.79a.138.138 0 0 1-.26-.09z" class="cls-10" data-name="Path 72"/>
                <path id="Path_73" d="M203.43 308l1.24-2.76a.213.213 0 1 1 .39.17l-1.29 2.73a.2.2 0 0 1-.25.09.18.18 0 0 1-.09-.23z" class="cls-10" data-name="Path 73"/>
                <path id="Path_74" d="M206 302.52l1.39-2.69a.26.26 0 1 1 .46.24l-1.43 2.66a.24.24 0 0 1-.32.1.23.23 0 0 1-.1-.31z" class="cls-10" data-name="Path 74"/>
                <path id="Path_75" d="M208.86 297.18l1.55-2.6a.285.285 0 1 1 .49.29l-1.57 2.58a.29.29 0 0 1-.38.09.28.28 0 0 1-.09-.36z" class="cls-10" data-name="Path 75"/>
                <path id="Path_76" d="M212 292l1.7-2.5a.32.32 0 0 1 .44-.09.31.31 0 0 1 .08.44l-1.72 2.48a.3.3 0 1 1-.5-.33z" class="cls-10" data-name="Path 76"/>
                <path id="Path_77" d="M215.53 287.07l1.87-2.39a.342.342 0 0 1 .54.42l-1.88 2.35a.34.34 0 0 1-.47.06.33.33 0 0 1-.06-.44z" class="cls-10" data-name="Path 77"/>
                <path id="Path_78" d="M219.36 282.36l2.06-2.24a.37.37 0 0 1 .52 0 .38.38 0 0 1 0 .52l-2 2.19a.35.35 0 0 1-.51 0 .36.36 0 0 1-.07-.47z" class="cls-10" data-name="Path 78"/>
                <path id="Path_79" d="M223.57 278l2.27-2a.41.41 0 0 1 .57 0 .4.4 0 0 1 0 .56l-2.26 2a.39.39 0 1 1-.52-.57z" class="cls-10" data-name="Path 79"/>
                <path id="Path_80" d="M228.23 274.05c.82-.61 1.66-1.18 2.53-1.72a.422.422 0 0 1 .44.72c-.84.53-1.67 1.08-2.48 1.67a.42.42 0 0 1-.49-.67z" class="cls-10" data-name="Path 80"/>
                <path id="Path_81" d="M233.43 270.84a25.439 25.439 0 0 1 2.84-1.2.45.45 0 0 1 .55.27.42.42 0 0 1-.27.55 25.188 25.188 0 0 0-2.74 1.15.43.43 0 0 1-.57-.2.42.42 0 0 1 .19-.57z" class="cls-10" data-name="Path 81"/>
                <path id="Path_82" d="M239.26 268.86a18.79 18.79 0 0 1 3.07-.25.45.45 0 1 1 0 .89 18 18 0 0 0-2.95.22.42.42 0 0 1-.5-.35.43.43 0 0 1 .35-.51z" class="cls-10" data-name="Path 82"/>
                <path id="Path_83" d="M245.36 268.57l3 .07a.45.45 0 1 1-.02.9l-3-.08a.45.45 0 1 1 0-.89z" class="cls-10" data-name="Path 83"/>
                <path id="Path_84" d="M251.44 268.87c1 .1 2 .25 3 .43a.463.463 0 0 1-.17.91c-1-.18-2-.33-3-.43a.47.47 0 0 1-.41-.51.45.45 0 0 1 .58-.4z" class="cls-10" data-name="Path 84"/>
                <path id="Path_85" d="M257.46 270a21.833 21.833 0 0 1 2.89 1.07.472.472 0 1 1-.39.86 20.457 20.457 0 0 0-2.77-1 .47.47 0 0 1 .27-.89z" class="cls-10" data-name="Path 85"/>
                <path id="Path_86" d="M263.05 272.63a12.23 12.23 0 0 1 2.3 2.13.483.483 0 0 1-.74.62 11.07 11.07 0 0 0-2.12-2 .48.48 0 0 1 .56-.77z" class="cls-10" data-name="Path 86"/>
                <path id="Path_87" d="M267 277.45a21.442 21.442 0 0 1 1 2.91.492.492 0 0 1-.95.26 19.513 19.513 0 0 0-1-2.78.49.49 0 0 1 .25-.64.48.48 0 0 1 .7.25z" class="cls-10" data-name="Path 87"/>
                <path id="Path_88" d="M268.69 283.37a28.417 28.417 0 0 1 .32 3.05.5.5 0 1 1-1 .05 26.825 26.825 0 0 0-.31-3 .51.51 0 0 1 .42-.57.5.5 0 0 1 .57.47z" class="cls-10" data-name="Path 88"/>
                <path id="Path_89" d="M269 289.5a21.364 21.364 0 0 1-.42 3.07.49.49 0 0 1-.58.37.48.48 0 0 1-.37-.58 20.465 20.465 0 0 0 .38-2.92.5.5 0 1 1 1 .06z" class="cls-10" data-name="Path 89"/>
                <path id="Path_90" d="M267.52 295.54c-.13.23-.28.46-.44.69a4.048 4.048 0 0 1-.56.65 5.17 5.17 0 0 1-1.46.81.474.474 0 1 1-.35-.88 4.571 4.571 0 0 0 1.18-.65 3 3 0 0 0 .41-.49 5.271 5.271 0 0 0 .37-.59.481.481 0 1 1 .85.45z" class="cls-10" data-name="Path 90"/>
                <path id="Path_91" d="M262.05 298.48c-1 .18-2 .29-3 .37a.47.47 0 0 1-.07-.93c1-.08 2-.19 2.95-.36a.47.47 0 0 1 .16.92z" class="cls-10" data-name="Path 91"/>
                <path id="Path_92" d="M256 299a23.165 23.165 0 0 1-3-.13.45.45 0 0 1-.42-.49.46.46 0 0 1 .49-.42c1 .08 2 .11 3 .11a.47.47 0 0 1 0 .93z" class="cls-10" data-name="Path 92"/>
                <path id="Path_93" d="M249.86 298.48c-1-.16-2-.36-3-.62a.444.444 0 0 1 .22-.86c1 .24 1.94.44 2.92.59a.46.46 0 0 1 .38.51.45.45 0 0 1-.52.38z" class="cls-10" data-name="Path 93"/>
                <path id="Path_94" d="M243.93 296.92a17 17 0 0 1-2.77-1.38.433.433 0 0 1 .45-.74 17.471 17.471 0 0 0 2.64 1.3.44.44 0 1 1-.32.82z" class="cls-10" data-name="Path 94"/>
                <path id="Path_95" d="M238.71 293.59A9.11 9.11 0 0 1 237 291a.41.41 0 0 1 .22-.56.42.42 0 0 1 .56.22 8 8 0 0 0 1.6 2.36.43.43 0 0 1 0 .61.42.42 0 0 1-.6 0z" class="cls-10" data-name="Path 95"/>
                <path id="Path_96" d="M236.12 288a24.079 24.079 0 0 1-.35-3.06.41.41 0 0 1 .82 0 24.076 24.076 0 0 0 .36 2.94.423.423 0 0 1-.83.16z" class="cls-10" data-name="Path 96"/>
                <path id="Path_97" d="M235.78 281.85c.06-1 .17-2 .32-3a.384.384 0 1 1 .76.11c-.14 1-.23 2-.28 3a.4.4 0 0 1-.8 0z" class="cls-10" data-name="Path 97"/>
                <path id="Path_98" d="M236.68 275.81c.23-1 .49-2 .79-2.94a.36.36 0 0 1 .45-.24.37.37 0 0 1 .25.45c-.29 1-.54 1.92-.76 2.9a.38.38 0 0 1-.45.28.37.37 0 0 1-.28-.45z" class="cls-10" data-name="Path 98"/>
                <path id="Path_99" d="M238.46 270l1.15-2.81a.34.34 0 1 1 .63.25l-1.12 2.78a.36.36 0 0 1-.46.2.35.35 0 0 1-.19-.46z" class="cls-10" data-name="Path 99"/>
                <path id="Path_100" d="M240.92 264.43l1.45-2.67a.32.32 0 0 1 .56.3l-1.41 2.66a.33.33 0 0 1-.44.14.34.34 0 0 1-.14-.45z" class="cls-10" data-name="Path 100"/>
                <path id="Path_101" d="M244 259.17l1.72-2.51a.29.29 0 0 1 .4-.07.28.28 0 0 1 .08.4l-1.68 2.5a.29.29 0 0 1-.42.08.3.3 0 0 1-.08-.42z" class="cls-10" data-name="Path 101"/>
                <path id="Path_102" d="M247.53 254.25l2-2.3a.265.265 0 1 1 .38.37L248 254.6a.28.28 0 0 1-.39 0 .29.29 0 0 1 0-.4z" class="cls-10" data-name="Path 102"/>
                <path id="Path_103" d="M251.62 249.76c.72-.7 1.48-1.38 2.26-2a.24.24 0 0 1 .34 0 .25.25 0 0 1 0 .34c-.76.65-1.5 1.33-2.21 2a.27.27 0 0 1-.37 0 .26.26 0 0 1 0-.37z" class="cls-10" data-name="Path 103"/>
                <path id="Path_104" d="M256.29 245.88c.83-.58 1.69-1.13 2.57-1.63a.2.2 0 1 1 .2.35c-.86.51-1.7 1.05-2.51 1.64a.222.222 0 0 1-.26-.36z" class="cls-10" data-name="Path 104"/>
                <path id="Path_105" d="M261.55 242.84q1.38-.65 2.79-1.2a.18.18 0 0 1 .22.1.16.16 0 0 1-.1.21c-.93.38-1.85.79-2.75 1.23a.19.19 0 1 1-.16-.34z" class="cls-10" data-name="Path 105"/>
                <path id="Path_106" d="M267.19 240.62l2.91-.85a.14.14 0 0 1 .17.09.13.13 0 0 1-.09.16l-2.88.88a.15.15 0 0 1-.19-.1.14.14 0 0 1 .1-.18z" class="cls-10" data-name="Path 106"/>
                <path id="Path_107" d="M273.05 239.06l3-.58a.09.09 0 0 1 .11.07.1.1 0 0 1-.08.12l-2.95.62a.12.12 0 0 1-.14-.09.11.11 0 0 1 .08-.14z" class="cls-10" data-name="Path 107"/>
                <path id="Path_108" d="M279 238l3-.39s.07 0 .07.06 0 .06-.05.07l-3 .42s-.09 0-.09-.07a.08.08 0 0 1 .07-.09z" class="cls-10" data-name="Path 108"/>
                <path id="Path_109" d="M285 237.29l3-.28-3 .32a.07.07 0 0 1 0-.05z" class="cls-10" data-name="Path 109"/>
                <path id="Path_110" d="M291 236.69a14.746 14.746 0 0 0 1.48-.25c-.49.12-1 .2-1.47.27z" class="cls-10" data-name="Path 110"/>
            </g>
        </g>
        <g id="Group_6" class="cls-9" data-name="Group 6">
            <path id="Path_111" d="M183 243.5l-.5 19-.5-19a.49.49 0 0 1 .49-.51.5.5 0 0 1 .51.48z" class="cls-10" data-name="Path 111"/>
        </g>
        <g id="Group_7" class="cls-9" data-name="Group 7">
            <path id="Path_112" d="M154.64 248.71l13.08 13.79-13.79-13.08a.5.5 0 1 1 .69-.73z" class="cls-10" data-name="Path 112"/>
        </g>
        <g id="Group_8" class="cls-9" data-name="Group 8">
            <path id="Path_113" d="M211.07 249.42l-13.79 13.08 13.08-13.79a.5.5 0 1 1 .73.69z" class="cls-10" data-name="Path 113"/>
        </g>
    </g>
</svg>
