<svg id="Layer_1" xmlns="http://www.w3.org/2000/svg" viewBox="0 0 384.13 384.07" width="316px" height="316px"><defs><style>.cls-1{fill:#df1f25;}.cls-2{fill:#fefefe;}</style></defs><path class="cls-1" d="M256.29,448A191.91,191.91,0,0,1,64,255.31C64,149.37,150.28,63.87,257.08,63.92c105.76,0,191.14,86.49,191.05,193.43C448,362.14,361.66,448,256.29,448ZM213.6,196.06c-12.62,0-24.93-.1-37.24,0-8.58.09-13.44,5.74-12.65,14.29.43,4.65.82,9.29,1.22,13.94q5,57,10,114c.63,7.18,5.22,11.55,12.51,11.57q68.51.11,137,0c7.4,0,12-4.73,12.62-12.12.46-5.64.87-11.29,1.36-16.93,3.2-36.33,6.49-72.65,9.59-109,.95-11-3.64-15.74-14.68-15.75H301.48c-5-28.74-21.22-43.79-46.17-43.15C238.35,153.34,215.6,166.32,213.6,196.06Z" transform="translate(-64 -63.92)"/><path class="cls-2" d="M213.6,196.06c2-29.74,24.75-42.72,41.71-43.15,24.95-.64,41.21,14.41,46.17,43.15H333.3c11,0,15.63,4.71,14.68,15.75-3.1,36.34-6.39,72.66-9.59,109-.49,5.64-.9,11.29-1.36,16.93-.59,7.39-5.22,12.11-12.62,12.12q-68.51.13-137,0c-7.29,0-11.88-4.39-12.51-11.57q-5-57-10-114c-.4-4.65-.79-9.29-1.22-13.94-.79-8.55,4.07-14.2,12.65-14.29C188.67,196,201,196.06,213.6,196.06ZM289.89,302c14.47.05,24.1-9.09,24.08-22.85,0-13.56-9.59-22.81-23.62-22.85-14.3,0-24.17,9.37-24.09,22.95S275.68,301.9,289.89,302Zm-87.41-19.81c-3.43,1.55-5.61,4.92-4.78,8.55.73,3.17,3,7.53,5.64,8.39a46.74,46.74,0,0,0,17.93,2.37c10.07-.8,15.95-6.45,16.84-16.58,1-11.55.78-23.24.54-34.85,0-2-2.48-5.35-4.36-5.8-7.56-1.83-13.4-.83-13.17,9.14.19,8.47.13,17,0,25.44-.13,6.75-4.14,9.74-10.56,7.7C207.77,285.63,205.35,283.74,202.48,282.14Zm78.94-86.35c-.77-14.51-11.69-25.2-24.71-24.67a24.46,24.46,0,0,0-23.37,24.67ZM245,278.9c0,5-.14,10,0,15s2.38,7,7.52,7.22c6,.21,8.9-1.48,9.08-6.65q.53-15.44,0-30.89c-.17-5.27-2.78-6.85-9-6.68-5.16.13-7.43,2.09-7.63,7.1S245,273.91,245,278.9Zm8.64-26.68c5.56-.06,8.68-2.95,8.63-8s-3.33-7.78-8.89-7.82c-5.34,0-9,3.11-9.05,7.82C244.25,249.15,247.89,252.28,253.63,252.22Z" transform="translate(-64 -63.92)"/><path class="cls-1" d="M289.89,302c-14.21-.05-23.55-9-23.63-22.75s9.79-23,24.09-22.95c14,0,23.6,9.29,23.62,22.85C314,292.86,304.36,302,289.89,302Zm9.54-22.86c0-5.78-4-10-9.43-10-5.25.06-9.1,4.12-9.19,9.67-.09,5.95,3.62,10.08,9.13,10.16S299.42,284.86,299.43,279.09Z" transform="translate(-64 -63.92)"/><path class="cls-1" d="M202.48,282.14c2.87,1.6,5.29,3.49,8,4.36,6.42,2,10.43-.95,10.56-7.7.17-8.48.23-17,0-25.44-.23-10,5.61-11,13.17-9.14,1.88.45,4.32,3.76,4.36,5.8.24,11.61.47,23.3-.54,34.85-.89,10.13-6.77,15.78-16.84,16.58a46.74,46.74,0,0,1-17.93-2.37c-2.6-.86-4.91-5.22-5.64-8.39C196.87,287.06,199.05,283.69,202.48,282.14Z" transform="translate(-64 -63.92)"/><path class="cls-1" d="M281.42,195.79H233.34a24.46,24.46,0,0,1,23.37-24.67C269.73,170.59,280.65,181.28,281.42,195.79Z" transform="translate(-64 -63.92)"/><path class="cls-1" d="M245,278.9c0-5-.15-10,0-14.95s2.47-7,7.63-7.1c6.2-.17,8.81,1.41,9,6.68q.5,15.44,0,30.89c-.18,5.17-3,6.86-9.08,6.65-5.14-.18-7.34-2.14-7.52-7.22S245,283.88,245,278.9Z" transform="translate(-64 -63.92)"/><path class="cls-1" d="M253.63,252.22c-5.74.06-9.38-3.07-9.31-8,.07-4.71,3.71-7.86,9.05-7.82,5.56,0,8.84,2.92,8.89,7.82S259.19,252.16,253.63,252.22Z" transform="translate(-64 -63.92)"/><path class="cls-2" d="M299.43,279.09c0,5.77-4,9.94-9.49,9.87s-9.22-4.21-9.13-10.16c.09-5.55,3.94-9.61,9.19-9.67C295.41,269.06,299.43,273.31,299.43,279.09Z" transform="translate(-64 -63.92)"/></svg>