<?xml version="1.0" encoding="utf-8"?>
<!-- Generator: Adobe Illustrator 24.2.0, SVG Export Plug-In . SVG Version: 6.00 Build 0)  -->
<svg version="1.1" xmlns="http://www.w3.org/2000/svg" xmlns:xlink="http://www.w3.org/1999/xlink" x="0px" y="0px"
	 viewBox="0 0 192.76 85.04" style="enable-background:new 0 0 192.76 85.04;" xml:space="preserve">
<g id="Layer_1">
	<g>
		<path d="M16.92,21.2H28.3v18.64C24.5,40.61,21.59,41,18.4,41C5.92,41,1.52,33.85,1.52,22.08c0-12.65,6.1-19.8,18.26-19.8
			c1.54,0,4.45,0.11,8.08,0.66v11.93h-2.64l-1.49-4.56C22.3,5.97,20.6,3.82,17.9,3.82c-4.67,0-7.15,6.32-7.15,18.15
			c0,11.88,0.99,17.49,7.09,17.49c0.83,0,1.81-0.11,2.75-0.38V25.21l-3.68-2.53V21.2z M28.08,71.24c0,7.48-5.11,11.77-14.13,11.77
			c-2.47,0-6.1-0.38-9.51-0.94V67.45h2.64l1.1,3.46c2.47,7.97,4.23,10.61,7.37,10.61c3.3,0,5.66-2.91,5.66-6.76
			c0-3.13-1.48-5.33-4.67-7.04l-5.5-2.97C6.8,62.5,4.49,58.98,4.49,54.69c0-6.49,5.33-10.39,14.08-10.39c1.98,0,4.29,0.17,7.97,0.66
			v11.93H23.9l-1.48-4.56c-1.49-4.84-3.08-6.6-5.99-6.6c-3.25,0-5.17,2.09-5.17,5.11c0,2.69,1.49,4.62,4.4,6.27l5.55,3.13
			C25.88,62.88,28.08,66.4,28.08,71.24z M52.39,79.88l1.1,1.65v0.83h-8.41l-0.39-3.19c-0.88,2.42-3.19,3.85-6.16,3.85
			c-4.4,0-7.15-2.75-7.15-7.26c0-4.4,2.47-7.31,10.06-10.28l3.24-1.26v-4.12c0-3.63-0.66-5.11-2.69-5.11
			c-1.65,0-2.58,0.88-4.18,4.89L36,64.37h-2.47V55.4c3.24-0.99,6.49-1.65,9.29-1.65c6.21,0,9.57,2.97,9.57,8.36V79.88z M55.57,26.37
			c0,9.35-5,14.63-11.44,14.63C37.7,41,32.7,35.72,32.7,26.37s5-14.63,11.44-14.63C50.57,11.74,55.57,17.02,55.57,26.37z
			 M44.69,75.26v-9.51l-1.04,0.44c-3.25,1.32-4.46,4.29-4.46,8.63c0,3.25,0.77,5.11,2.58,5.11S44.69,78.17,44.69,75.26z
			 M47.49,26.37c0-10.56-0.88-13.36-3.35-13.36s-3.35,2.8-3.35,13.36s0.88,13.36,3.35,13.36S47.49,36.93,47.49,26.37z M75.1,75.53
			l0.99,0.5c-1.76,5.06-4.01,6.98-8.36,6.98c-7.09,0-11.05-5.33-11.05-14.63c0-9.29,4.62-14.63,12.15-14.63
			c2.03,0,4.73,0.33,7.04,1.26v9.35h-2.58l-1.04-3.52c-1.38-4.67-2.14-5.88-3.52-5.88c-2.2,0-3.96,2.86-3.96,13.75
			c0,8.74,1.32,11.93,4.67,11.93C71.69,80.65,73.61,79.22,75.1,75.53z M68.99,40.34h-9.9v-0.82l1.1-1.65V7.18l-1.1-1.65V4.7
			l8.8-0.66v33.82l1.1,1.65V40.34z M82.52,41c-6.05,0-9.68-5.5-9.68-14.9c0-9.35,3.79-14.35,9.62-14.35c2.97,0,4.62,1.15,5.33,3.46
			V7.18l-1.1-1.65V4.7l8.8-0.66v33.82l1.1,1.65v0.82h-7.81l-0.6-4.18C87.31,39.73,85.66,41,82.52,41z M101.82,79.88l1.1,1.65v0.83
			h-9.9v-0.83l1.1-1.65v-19.8c0-2.36-0.71-3.79-2.42-3.79c-2.04,0-3.52,1.71-3.52,5.06v18.53l1.1,1.65v0.83h-9.9v-0.83l1.1-1.65
			V49.19l-1.1-1.65v-0.82l8.8-0.66v11.38c0.99-2.36,3.24-3.68,6.43-3.68c4.51,0,7.2,2.86,7.2,8.41V79.88z M80.93,26.2
			c0,9.9,0.88,12.92,3.3,12.92c3.02,0,3.57-4.34,3.57-13.03c0-8.41-0.6-12.59-3.52-12.59C81.81,13.5,80.93,16.47,80.93,26.2z
			 M136.14,37.86l1.1,1.65v0.82h-9.9v-0.82l1.1-1.65v-20.4c0-1.98-0.66-3.19-2.2-3.19c-1.92,0-3.46,1.71-3.46,5v18.59l1.1,1.65v0.82
			h-9.9v-0.82l1.1-1.65v-20.4c0-1.98-0.66-3.19-2.2-3.19c-1.92,0-3.46,1.71-3.46,5v18.59l1.1,1.65v0.82h-9.9v-0.82l1.1-1.65V15.48
			l-1.1-1.32v-0.82l7.92-0.94h0.66l0.22,3.08c0.93-2.42,3.24-3.74,6.38-3.74c3.35,0,5.55,1.65,6.54,4.62
			c0.82-2.86,3.41-4.62,6.71-4.62c4.34,0,7.09,2.86,7.09,8.41V37.86z M125.86,74.27c0,4.78-3.08,8.74-10.5,8.74
			c-1.92,0-4.51-0.22-8.52-0.94V71.85h2.25l0.71,2.2c1.76,5.61,3.46,7.7,6.16,7.7c2.53,0,4.18-1.82,4.18-4.62
			c0-2.31-1.16-3.9-3.9-5.39l-4.73-2.53c-3.02-1.65-4.67-4.23-4.67-7.42c0-5,3.91-8.03,10.39-8.03c1.87,0,4.29,0.27,6.93,0.82v8.03
			h-2.25l-1.16-2.92c-1.32-3.52-2.58-4.67-4.67-4.67c-2.25,0-3.57,1.32-3.57,3.52c0,1.87,1.1,3.13,3.79,4.67l4.67,2.64
			C124.15,67.67,125.86,70.25,125.86,74.27z M161.44,37.86l1.1,1.65v0.82h-8.41l-0.38-3.19c-0.88,2.42-3.19,3.85-6.16,3.85
			c-4.4,0-7.15-2.75-7.15-7.26c0-4.4,2.47-7.31,10.06-10.28l3.24-1.26v-4.12c0-3.63-0.66-5.11-2.69-5.11
			c-1.65,0-2.58,0.88-4.18,4.89l-1.81,4.51h-2.48v-8.96c3.25-0.99,6.49-1.65,9.29-1.65c6.21,0,9.57,2.97,9.57,8.36V37.86z
			 M153.74,33.24v-9.51l-1.04,0.44c-3.24,1.32-4.45,4.29-4.45,8.63c0,3.25,0.77,5.12,2.58,5.12
			C152.64,37.92,153.74,36.16,153.74,33.24z M189.7,39.51v0.82h-9.9v-0.82l1.1-1.65v-19.8c0-2.37-0.71-3.79-2.42-3.79
			c-2.04,0-3.52,1.71-3.52,5.06v18.53l1.1,1.65v0.82h-9.9v-0.82l1.1-1.65V15.48l-1.1-1.32v-0.82l7.92-0.94h0.66l0.22,3.08
			c0.93-2.42,3.19-3.74,6.43-3.74c4.51,0,7.2,2.86,7.2,8.41v17.71L189.7,39.51z"/>
	</g>
</g>
<g id="Layer_2">
</g>
</svg>
