<?xml version="1.0" encoding="utf-8"?>
<!-- Generator: Adobe Illustrator 19.1.0, SVG Export Plug-In . SVG Version: 6.00 Build 0)  -->
<svg version="1.1" id="Layer_1" xmlns="http://www.w3.org/2000/svg" xmlns:xlink="http://www.w3.org/1999/xlink" x="0px" y="0px"
	 width="40px" height="40px" viewBox="-702 200.4 40 40" style="enable-background:new -702 200.4 40 40;" xml:space="preserve">
<style type="text/css">
	.st0{fill:#D70F64;}
</style>
<title>ic_social_linkedin_white</title>
<path class="st0" d="M-687.5,215.5h-4.3c-0.3,0-0.5,0.2-0.5,0.5v12.9c0,0.3,0.2,0.5,0.5,0.5h4.3c0.3,0,0.5-0.2,0.5-0.5V216
	C-687,215.8-687.2,215.5-687.5,215.5z M-688,228.4h-3.3v-11.9h3.3V228.4z"/>
<path class="st0" d="M-676.9,215.2c-0.6,0-1.1,0.1-1.6,0.2c-0.5,0.1-0.9,0.4-1.3,0.7l-0.4,0.4V216c0-0.3-0.2-0.5-0.5-0.5h-4.3
	c-0.1,0-0.3,0.1-0.4,0.2c-0.1,0.1-0.1,0.2-0.1,0.4v0.6c0,0.4,0,1.7,0,3.8c0,2.1,0,5,0,8.4c0,0.1,0.1,0.3,0.1,0.4
	c0.1,0.1,0.2,0.1,0.4,0.2h4.3c0.3,0,0.5-0.2,0.5-0.5v-7.2c0-0.3,0-0.6,0.1-0.9c0.1-0.4,0.4-0.7,0.7-0.9c0.3-0.2,0.7-0.4,1.1-0.3
	c0.5,0,0.9,0.2,1.2,0.6c0.3,0.6,0.5,1.2,0.4,1.9v6.9c0,0.3,0.2,0.5,0.5,0.5h4.3c0.3,0,0.5-0.2,0.5-0.5v-7.4c0.1-1.7-0.4-3.4-1.5-4.7
	C-674,215.8-675.4,215.2-676.9,215.2z M-672.5,228.4h-3.3V222c0-0.8-0.2-1.7-0.6-2.4c-0.5-0.7-1.2-1.1-2.1-1c-0.6,0-1.2,0.2-1.7,0.6
	c-0.4,0.4-0.8,0.8-1,1.3c-0.1,0.4-0.2,0.8-0.2,1.2v6.7h-3.3c0-3.2,0-5.9,0-7.9c0-2.2,0-3.5,0-3.9v-0.1h3.3v1.2
	c-0.1,0.1-0.1,0.3,0,0.4c0.2,0.2,0.5,0.3,0.7,0.1c0.1-0.1,0.2-0.1,0.2-0.2c0.1-0.2,0.3-0.4,0.4-0.5c0.2-0.2,0.4-0.4,0.7-0.6
	c0.3-0.2,0.6-0.4,1-0.5c0.4-0.1,0.9-0.2,1.4-0.2c1.2-0.1,2.4,0.4,3.2,1.3c0.9,1.1,1.3,2.6,1.2,4L-672.5,228.4L-672.5,228.4z"/>
<path class="st0" d="M-689.6,209.3c-0.8,0-1.5,0.2-2.1,0.8c-0.6,0.5-0.9,1.2-0.8,2c0,0.7,0.3,1.4,0.8,1.9c0.6,0.5,1.3,0.8,2.1,0.8
	c0.8,0,1.5-0.3,2.1-0.8c0.6-0.5,0.8-1.2,0.8-2c0-0.7-0.3-1.4-0.8-1.9C-688.1,209.6-688.8,209.3-689.6,209.3z M-688.2,213.3
	c-0.4,0.4-0.9,0.5-1.5,0.5c-0.5,0-1-0.1-1.4-0.5c-0.3-0.3-0.5-0.8-0.5-1.2c0-0.5,0.2-0.9,0.5-1.2c0.4-0.3,0.9-0.5,1.4-0.5
	c0.5,0,1,0.1,1.4,0.5c0.3,0.3,0.5,0.8,0.5,1.2C-687.7,212.5-687.9,213-688.2,213.3L-688.2,213.3z"/>
<path class="st0" d="M-682,200.4c-11,0-20,9-20,20s9,20,20,20s20-9,20-20S-671,200.4-682,200.4z M-682,239.4c-10.5,0-19-8.5-19-19
	s8.5-19,19-19l0,0c10.5,0,19,8.5,19,19l0,0C-663,230.9-671.5,239.4-682,239.4z"/>
</svg>
