<?xml version="1.0" encoding="utf-8"?>
<!-- Generator: Adobe Illustrator 19.1.0, SVG Export Plug-In . SVG Version: 6.00 Build 0)  -->
<svg version="1.1" id="Layer_1" xmlns="http://www.w3.org/2000/svg" xmlns:xlink="http://www.w3.org/1999/xlink" x="0px" y="0px"
	 width="40px" height="40px" viewBox="-702 200.4 40 40" style="enable-background:new -702 200.4 40 40;" xml:space="preserve">
<style type="text/css">
	.st0{fill:#D70F64;}
</style>
<title>ic_social_facebook_color</title>
<path class="st0" d="M-677.3,209.9h-3c-3,0.1-5.4,2.6-5.3,5.6c0,0,0,0.1,0,0.1v0.8h-2.2c-0.6,0-1,0.4-1,1v3.1c0,0.6,0.4,1,1,1h2.2
	v8.3c0,0.6,0.4,1,1,1h3.5c0.6,0,1-0.4,1-1v-8.3h2.2c0.5,0,0.9-0.3,1-0.8l0.6-3.1c0.1-0.5-0.3-1.1-0.8-1.2c-0.1,0-0.1,0-0.2,0h-2.8
	v-1.2c0,0,0-0.1,0-0.1h2.8c0.6,0,1-0.4,1-1v-3.3C-676.3,210.4-676.7,209.9-677.3,209.9C-677.3,209.9-677.3,209.9-677.3,209.9z
	 M-677.3,214.2h-3c-0.5,0.1-0.8,0.6-0.8,1.1v2.2h3.8l-0.6,3.1h-3.2v9.3h-3.5v-9.3h-3.2v-3.1h3.2v-1.8c-0.2-2.5,1.7-4.6,4.2-4.7
	c0,0,0.1,0,0.1,0h3V214.2L-677.3,214.2z"/>
<path class="st0" d="M-682,200.4c-11,0-20,9-20,20s9,20,20,20s20-9,20-20l0,0C-662,209.3-671,200.4-682,200.4z M-682,239.4
	c-10.5,0-19-8.5-19-19s8.5-19,19-19s19,8.5,19,19l0,0C-663,230.9-671.5,239.4-682,239.4z"/>
</svg>
