<?xml version="1.0" encoding="utf-8"?>
<!-- Generator: Adobe Illustrator 22.0.1, SVG Export Plug-In . SVG Version: 6.00 Build 0)  -->
<svg fill="#000000" width="52" height="52" version="1.1" id="lni_lni-facebook-original" xmlns="http://www.w3.org/2000/svg" xmlns:xlink="http://www.w3.org/1999/xlink"
	 x="0px" y="0px" viewBox="0 0 64 64" style="enable-background:new 0 0 64 64;" xml:space="preserve">
<path d="M59.5,1h-55C2.5,1,1,2.6,1,4.5v55c0,2,1.6,3.5,3.5,3.5h29.6V38.9h-8v-9.3h8v-6.9c0-8,4.8-12.4,12-12.4
	c2.4,0,4.8,0.1,7.2,0.4V19h-4.8c-3.8,0-4.6,1.8-4.6,4.5v5.9H53l-1.3,9.4h-8v23.8h15.8c2,0,3.5-1.5,3.5-3.5V4.5
	C62.9,2.5,61.3,1,59.5,1z"/>
</svg>
