<?xml version="1.0" encoding="utf-8"?>
<!-- Generator: Adobe Illustrator 22.0.1, SVG Export Plug-In . SVG Version: 6.00 Build 0)  -->
<svg fill="#000000" width="52" height="52" version="1.1" id="lni_lni-github-original" xmlns="http://www.w3.org/2000/svg" xmlns:xlink="http://www.w3.org/1999/xlink"
	 x="0px" y="0px" viewBox="0 0 64 64" style="enable-background:new 0 0 64 64;" xml:space="preserve">
<path d="M32,1.8c-17,0-31,13.8-31,31C1,46.4,9.9,58,22.3,62.2c1.6,0.3,2.1-0.7,2.1-1.4c0-0.7,0-2.7-0.1-5.4
	c-8.6,2-10.4-4.2-10.4-4.2c-1.4-3.5-3.5-4.5-3.5-4.5c-2.8-2,0.1-2,0.1-2c3.1,0.1,4.8,3.2,4.8,3.2c2.7,4.8,7.3,3.4,9,2.5
	c0.3-2,1.1-3.4,2-4.2c-6.8-0.7-14.1-3.4-14.1-15.2c0-3.4,1.3-6.1,3.2-8.2c-0.3-0.7-1.4-3.9,0.3-8.2c0,0,2.7-0.8,8.6,3.2
	c2.5-0.7,5.1-1.1,7.8-1.1c2.7,0,5.4,0.3,7.8,1.1c5.9-3.9,8.5-3.2,8.5-3.2c1.7,4.2,0.7,7.5,0.3,8.2c2,2.1,3.2,4.9,3.2,8.2
	c0,11.8-7.3,14.5-14.1,15.2c1.1,1,2.1,3,2.1,5.8c0,4.2-0.1,7.5-0.1,8.5c0,0.8,0.6,1.7,2.1,1.4C54.1,57.8,63,46.3,63,32.6
	C62.9,15.6,49,1.8,32,1.8z"/>
</svg>
