<?xml version="1.0" encoding="utf-8"?>
<!-- Generator: Adobe Illustrator 22.0.1, SVG Export Plug-In . SVG Version: 6.00 Build 0)  -->
<svg fill="#000000" width="52" height="52" version="1.1" id="lni_lni-linkedin-original" xmlns="http://www.w3.org/2000/svg" xmlns:xlink="http://www.w3.org/1999/xlink"
	 x="0px" y="0px" viewBox="0 0 64 64" style="enable-background:new 0 0 64 64;" xml:space="preserve">
<path d="M58.5,1H5.6C3.1,1,1.1,3,1.1,5.5v53c0,2.4,2,4.5,4.5,4.5h52.7c2.5,0,4.5-2,4.5-4.5V5.4C63,3,61,1,58.5,1z M19.4,53.7h-9.1
	V24.2h9.1V53.7z M14.8,20.1c-3,0-5.3-2.4-5.3-5.3s2.4-5.3,5.3-5.3s5.3,2.4,5.3,5.3S17.9,20.1,14.8,20.1z M53.9,53.7h-9.1V39.4
	c0-3.4-0.1-7.9-4.8-7.9c-4.8,0-5.5,3.8-5.5,7.6v14.6h-9.1V24.2h8.9v4.1h0.1c1.3-2.4,4.2-4.8,8.7-4.8c9.3,0,11,6,11,14.2v16H53.9z"/>
</svg>
