<svg width="336" height="117" viewBox="0 0 336 117" fill="none" xmlns="http://www.w3.org/2000/svg">
<path d="M221 95C228.732 95 235 88.732 235 81C235 73.268 228.732 67 221 67C213.268 67 207 73.268 207 81C207 88.732 213.268 95 221 95Z" fill="#BDBBB6"/>
<path d="M215.824 77.8097C215.831 77.7281 215.82 77.6458 215.791 77.5693C215.761 77.4928 215.715 77.4241 215.654 77.3685L214.382 75.8412V75.6121H218.319L221.365 82.2727L224.037 75.6036H227.788V75.8327L226.702 76.8679C226.656 76.9035 226.621 76.9507 226.601 77.0044C226.58 77.0581 226.574 77.1165 226.583 77.1733V84.8097C226.574 84.8666 226.58 84.9249 226.601 84.9786C226.621 85.0324 226.656 85.0795 226.702 85.1152L227.762 86.1503V86.3794H222.442V86.1503L223.537 85.0897C223.639 84.9794 223.639 84.9455 223.639 84.7842V78.6242L220.576 86.3624H220.168L216.63 78.6242V83.8085C216.616 83.9158 216.626 84.0249 216.66 84.1277C216.694 84.2305 216.75 84.3244 216.825 84.4024L218.259 86.0994V86.3285H214.212V86.0994L215.637 84.4024C215.713 84.3251 215.769 84.231 215.802 84.1278C215.834 84.0246 215.842 83.9152 215.824 83.8085V77.8097Z" fill="white"/>
<path d="M185 95C192.732 95 199 88.732 199 81C199 73.268 192.732 67 185 67C177.268 67 171 73.268 171 81C171 88.732 177.268 95 185 95Z" fill="#BDBBB6"/>
<path d="M187.873 74.0701H182.376C181.158 74.0731 179.992 74.5595 179.133 75.4223C178.274 76.2852 177.792 77.4539 177.795 78.6715V84.193C177.792 85.4106 178.274 86.5793 179.133 87.4422C179.992 88.3051 181.158 88.7915 182.376 88.7944H187.873C189.091 88.7915 190.257 88.3051 191.117 87.4422C191.976 86.5793 192.457 85.4106 192.454 84.193V78.6715C192.457 77.4539 191.976 76.2852 191.117 75.4223C190.257 74.5595 189.091 74.0731 187.873 74.0701V74.0701ZM191.08 84.1922C191.081 85.0442 190.744 85.8617 190.143 86.4655C189.541 87.0692 188.725 87.4098 187.873 87.4125H182.376C181.524 87.4098 180.708 87.0692 180.106 86.4655C179.505 85.8617 179.168 85.0442 179.169 84.1922V78.6715C179.168 77.8195 179.505 77.0019 180.106 76.3982C180.708 75.7945 181.524 75.4539 182.376 75.4511H187.873C188.725 75.4539 189.541 75.7945 190.143 76.3982C190.744 77.0019 191.081 77.8195 191.08 78.6715V84.1922Z" fill="white"/>
<path d="M185.125 77.7514C184.397 77.7491 183.685 77.9627 183.079 78.3653C182.473 78.7679 182 79.3413 181.719 80.013C181.439 80.6847 181.365 81.4244 181.505 82.1384C181.646 82.8525 181.995 83.5088 182.509 84.0242C183.023 84.5396 183.678 84.891 184.391 85.0339C185.105 85.1767 185.845 85.1046 186.517 84.8267C187.19 84.5487 187.765 84.0774 188.17 83.4725C188.574 82.8676 188.79 82.1562 188.79 81.4284C188.79 80.4553 188.404 79.5218 187.717 78.8326C187.03 78.1434 186.098 77.7546 185.125 77.7514ZM185.125 83.733C184.67 83.7348 184.224 83.6015 183.845 83.3499C183.465 83.0983 183.169 82.7397 182.993 82.3195C182.818 81.8994 182.771 81.4366 182.858 80.9897C182.946 80.5429 183.164 80.1322 183.486 79.8095C183.807 79.4869 184.217 79.2669 184.663 79.1773C185.11 79.0878 185.573 79.1328 185.994 79.3067C186.415 79.4805 186.774 79.7753 187.028 80.1538C187.281 80.5323 187.416 80.9774 187.416 81.4327C187.416 82.0413 187.175 82.6252 186.746 83.0564C186.317 83.4876 185.734 83.7309 185.125 83.733Z" fill="white"/>
<path d="M189.064 77.9661C189.334 77.9661 189.553 77.7463 189.553 77.4752C189.553 77.2041 189.334 76.9844 189.064 76.9844C188.795 76.9844 188.576 77.2041 188.576 77.4752C188.576 77.7463 188.795 77.9661 189.064 77.9661Z" fill="white"/>
<path d="M257 95C264.732 95 271 88.732 271 81C271 73.268 264.732 67 257 67C249.268 67 243 73.268 243 81C243 88.732 249.268 95 257 95Z" fill="#BDBBB6"/>
<path d="M263.779 85.9382H262.863C262.852 86.2015 262.738 86.4501 262.546 86.6308C262.355 86.8115 262.1 86.9101 261.836 86.9054C261.501 86.8709 261.181 86.7494 260.907 86.553C260.633 86.3565 260.415 86.0919 260.275 85.7854C261.011 85.2252 261.606 84.5008 262.013 83.67C262.419 82.8392 262.626 81.9249 262.617 81C262.632 79.7705 262.281 78.5642 261.609 77.5344C260.938 76.5046 259.975 75.6978 258.843 75.2164C257.712 74.7349 256.463 74.6007 255.255 74.8306C254.047 75.0606 252.935 75.6443 252.059 76.5078C251.184 77.3712 250.585 78.4754 250.338 79.68C250.092 80.8847 250.209 82.1354 250.675 83.2733C251.141 84.4113 251.934 85.3851 252.955 86.0711C253.975 86.7571 255.176 87.1243 256.406 87.126C256.947 87.124 257.486 87.0527 258.01 86.9139C258.269 87.4905 258.688 87.9808 259.217 88.3267C259.747 88.6725 260.364 88.8595 260.996 88.8654C261.378 88.8788 261.758 88.8111 262.111 88.6668C262.465 88.5224 262.783 88.3047 263.046 88.028C263.309 87.7514 263.511 87.422 263.637 87.0617C263.763 86.7015 263.812 86.3185 263.779 85.9382ZM259.24 84.1394C258.959 83.6311 258.544 83.2101 258.039 82.9227C257.535 82.6353 256.961 82.4926 256.38 82.5103C255.607 82.4843 254.849 82.7339 254.242 83.2145L254.616 83.9697C254.819 83.8839 255.039 83.8433 255.26 83.8509C256.372 83.8509 256.957 84.8182 257.433 85.7685H257.424C257.093 85.8604 256.75 85.9061 256.406 85.9042C254.056 85.9042 253.012 84.2072 253.012 80.9915C253.012 77.7757 254.03 76.0703 256.406 76.0703C258.782 76.0703 259.8 77.7672 259.8 80.9915C259.835 82.0684 259.644 83.1407 259.24 84.1394Z" fill="white"/>
<path d="M113 95C120.732 95 127 88.732 127 81C127 73.268 120.732 67 113 67C105.268 67 99 73.268 99 81C99 88.732 105.268 95 113 95Z" fill="#BDBBB6"/>
<path d="M115.197 81.4515H113.522V87.5895H110.983V81.4515H109.775V79.294H110.983V77.8985C110.955 77.5545 111.002 77.2086 111.121 76.8847C111.24 76.5608 111.428 76.2666 111.672 76.0226C111.916 75.7786 112.21 75.5905 112.534 75.4715C112.858 75.3524 113.204 75.3052 113.548 75.3331L115.429 75.3408V77.435H114.061C113.985 77.4303 113.909 77.4428 113.838 77.4714C113.767 77.5001 113.703 77.5442 113.652 77.6006C113.6 77.657 113.561 77.7242 113.539 77.7974C113.517 77.8705 113.511 77.9477 113.523 78.0233V79.2932H115.42L115.197 81.4515Z" fill="white"/>
<g clip-path="url(#clip0)">
<path d="M77 95C79.7689 95 82.4757 94.1789 84.778 92.6406C87.0803 91.1022 88.8747 88.9157 89.9343 86.3576C90.9939 83.7994 91.2712 80.9845 90.731 78.2687C90.1908 75.553 88.8574 73.0584 86.8995 71.1005C84.9416 69.1426 82.447 67.8092 79.7313 67.269C77.0155 66.7288 74.2006 67.0061 71.6424 68.0657C69.0843 69.1253 66.8978 70.9197 65.3594 73.222C63.8211 75.5243 63 78.2311 63 81C63 84.713 64.475 88.274 67.1005 90.8995C69.726 93.525 73.287 95 77 95Z" fill="#BDBBB6"/>
<path d="M69.788 80.703L77.8741 77.3685C78.6717 77.0206 81.3783 75.9091 81.3783 75.9091C81.3783 75.9091 82.6341 75.4255 82.5238 76.6049C82.5238 77.0885 82.2098 78.794 81.9383 80.6267C81.5226 83.2315 81.0898 86.0824 81.0898 86.0824C81.0898 86.0824 81.022 86.88 80.4365 87.0158C79.8032 87.0049 79.1914 86.7841 78.6971 86.3879C78.5614 86.2861 76.0923 84.6909 75.1929 83.9612C75.1001 83.9012 75.0238 83.8189 74.9709 83.7218C74.9181 83.6248 74.8904 83.516 74.8904 83.4055C74.8904 83.2949 74.9181 83.1862 74.9709 83.0891C75.0238 82.992 75.1001 82.9097 75.1929 82.8497C76.4401 81.7043 77.9335 80.3043 78.8414 79.3794C79.2571 78.9637 79.6898 77.9964 77.9335 79.1758C75.4729 80.8727 73.0462 82.4679 73.0462 82.4679C72.7926 82.5755 72.5199 82.6309 72.2444 82.6309C71.9689 82.6309 71.6962 82.5755 71.4426 82.4679C70.4074 82.1624 69.1941 81.7382 69.1941 81.7382C69.1941 81.7382 68.3456 81.2206 69.7795 80.6691L69.788 80.703Z" fill="white"/>
</g>
<path d="M41 95C48.732 95 55 88.732 55 81C55 73.268 48.732 67 41 67C33.268 67 27 73.268 27 81C27 88.732 33.268 95 41 95Z" fill="#BDBBB6"/>
<path d="M45.0721 75.7453H37.3761C37.015 75.7469 36.6578 75.8196 36.3248 75.9592C35.9919 76.0989 35.6897 76.3028 35.4356 76.5593C35.1815 76.8158 34.9804 77.1199 34.8438 77.4541C34.7072 77.7884 34.6379 78.1463 34.6397 78.5073V82.3947C34.6378 82.7558 34.7071 83.1138 34.8436 83.4482C34.9801 83.7825 35.1811 84.0867 35.4353 84.3433C35.6894 84.5998 35.9916 84.8038 36.3246 84.9436C36.6576 85.0833 37.0149 85.156 37.3761 85.1576H45.0721C45.4332 85.156 45.7904 85.0833 46.1234 84.9437C46.4563 84.804 46.7585 84.6001 47.0126 84.3436C47.2667 84.0871 47.4678 83.783 47.6044 83.4487C47.7409 83.1145 47.8103 82.7566 47.8085 82.3956V78.5073C47.8103 78.1463 47.7409 77.7884 47.6044 77.4541C47.4678 77.1199 47.2667 76.8158 47.0126 76.5593C46.7585 76.3028 46.4563 76.0989 46.1234 75.9592C45.7904 75.8196 45.4332 75.7469 45.0721 75.7453ZM43.2234 80.6409L39.6208 82.375C39.5986 82.3856 39.5742 82.3904 39.5497 82.389C39.5252 82.3875 39.5014 82.3798 39.4807 82.3666C39.46 82.3534 39.443 82.3352 39.4313 82.3136C39.4196 82.2921 39.4136 82.2679 39.4138 82.2433V78.6655C39.4137 78.6408 39.4199 78.6164 39.4318 78.5948C39.4438 78.5731 39.4611 78.5549 39.4821 78.5418C39.5032 78.5288 39.5272 78.5214 39.5519 78.5203C39.5766 78.5192 39.6012 78.5244 39.6233 78.5356L43.2225 80.3783C43.2467 80.3908 43.267 80.4097 43.2811 80.4329C43.2952 80.4562 43.3026 80.4829 43.3024 80.5101C43.3022 80.5373 43.2945 80.5639 43.2801 80.587C43.2657 80.6101 43.2452 80.6287 43.2208 80.6409H43.2234Z" fill="#F8F8F8"/>
<path d="M149 95C156.732 95 163 88.732 163 81C163 73.268 156.732 67 149 67C141.268 67 135 73.268 135 81C135 88.732 141.268 95 149 95Z" fill="#BDBBB6"/>
<path d="M157.185 77.2837C156.647 77.5224 156.075 77.6789 155.49 77.748C156.107 77.3795 156.568 76.7992 156.789 76.1156C156.209 76.4593 155.575 76.7014 154.914 76.8313C154.469 76.358 153.881 76.0445 153.24 75.9395C152.599 75.8344 151.941 75.9436 151.368 76.2502C150.795 76.5567 150.34 77.0435 150.072 77.6352C149.804 78.2269 149.738 78.8905 149.885 79.5232C148.712 79.4644 147.564 79.1595 146.516 78.6283C145.468 78.0971 144.543 77.3514 143.802 76.4397C143.424 77.0895 143.309 77.8586 143.478 78.5907C143.648 79.3227 144.09 79.9626 144.715 80.3801C144.246 80.3656 143.788 80.2389 143.379 80.0107C143.379 80.0235 143.379 80.0355 143.379 80.0483C143.379 80.7298 143.615 81.3902 144.046 81.9177C144.478 82.4451 145.078 82.807 145.746 82.942C145.312 83.0601 144.856 83.0777 144.414 82.9933C144.602 83.5802 144.969 84.0936 145.463 84.4616C145.958 84.8296 146.555 85.0338 147.171 85.0456C145.932 86.0128 144.36 86.4508 142.799 86.2641C144.067 87.0769 145.531 87.5333 147.037 87.5854C148.542 87.6374 150.034 87.2833 151.356 86.56C152.677 85.8367 153.78 84.7711 154.547 83.4749C155.315 82.1786 155.72 80.6997 155.719 79.1932C155.719 79.0649 155.719 78.9366 155.71 78.8118C156.288 78.3944 156.787 77.8772 157.183 77.2845L157.185 77.2837Z" fill="white"/>
<path d="M293 95C300.732 95 307 88.732 307 81C307 73.268 300.732 67 293 67C285.268 67 279 73.268 279 81C279 88.732 285.268 95 293 95Z" fill="#BDBBB6"/>
<path d="M299.306 81.667V86.0093H296.789V81.9586C296.789 80.941 296.426 80.2484 295.514 80.2484C295.23 80.25 294.954 80.3394 294.723 80.5042C294.492 80.6691 294.317 80.9014 294.223 81.1693C294.158 81.3671 294.129 81.5751 294.138 81.7833V86.0127H291.622C291.622 86.0127 291.656 79.1512 291.622 78.4406H294.14V79.5138C294.135 79.5224 294.128 79.5309 294.123 79.5386H294.14V79.5138C294.368 79.1179 294.7 78.792 295.1 78.5714C295.5 78.3509 295.952 78.2441 296.409 78.2628C298.065 78.2628 299.307 79.3454 299.307 81.6704L299.306 81.667ZM288.988 74.7876C288.809 74.7725 288.628 74.7945 288.457 74.8523C288.287 74.9101 288.13 75.0024 287.996 75.1235C287.863 75.2445 287.756 75.3918 287.682 75.556C287.608 75.7202 287.569 75.8979 287.567 76.078C287.564 76.2581 287.599 76.4367 287.669 76.6028C287.739 76.7688 287.842 76.9187 287.972 77.0432C288.102 77.1676 288.257 77.2639 288.426 77.326C288.595 77.3881 288.775 77.4147 288.955 77.4042H288.971C289.151 77.42 289.333 77.3982 289.505 77.3401C289.677 77.2821 289.835 77.1892 289.969 77.0671C290.103 76.9451 290.21 76.7966 290.284 76.631C290.358 76.4655 290.396 76.2864 290.398 76.1052C290.399 75.9239 290.362 75.7444 290.291 75.5779C290.219 75.4113 290.114 75.2615 289.981 75.1377C289.849 75.0139 289.692 74.9189 289.521 74.8586C289.35 74.7984 289.169 74.7742 288.988 74.7876ZM287.713 86.0093H290.23V78.4372H287.713V86.0093Z" fill="white"/>
<path d="M221 48C228.732 48 235 41.732 235 34C235 26.268 228.732 20 221 20C213.268 20 207 26.268 207 34C207 41.732 213.268 48 221 48Z" fill="#12100E"/>
<path d="M215.824 30.8097C215.831 30.7281 215.82 30.6458 215.791 30.5693C215.761 30.4928 215.715 30.4241 215.654 30.3685L214.382 28.8412V28.6121H218.319L221.365 35.2727L224.037 28.6036H227.788V28.8327L226.702 29.8679C226.656 29.9035 226.621 29.9507 226.601 30.0044C226.58 30.0581 226.574 30.1165 226.583 30.1733V37.8097C226.574 37.8666 226.58 37.9249 226.601 37.9786C226.621 38.0324 226.656 38.0795 226.702 38.1152L227.762 39.1503V39.3794H222.442V39.1503L223.537 38.0897C223.639 37.9794 223.639 37.9455 223.639 37.7842V31.6242L220.576 39.3624H220.168L216.63 31.6242V36.8085C216.616 36.9158 216.626 37.0249 216.66 37.1277C216.694 37.2305 216.75 37.3244 216.825 37.4024L218.259 39.0994V39.3285H214.212V39.0994L215.637 37.4024C215.713 37.3251 215.769 37.231 215.802 37.1278C215.834 37.0246 215.842 36.9152 215.824 36.8085V30.8097Z" fill="white"/>
<path d="M185 48C192.732 48 199 41.732 199 34C199 26.268 192.732 20 185 20C177.268 20 171 26.268 171 34C171 41.732 177.268 48 185 48Z" fill="url(#paint0_linear)"/>
<path d="M187.873 27.0701H182.376C181.158 27.0731 179.992 27.5595 179.133 28.4223C178.274 29.2852 177.792 30.4539 177.795 31.6715V37.193C177.792 38.4106 178.274 39.5793 179.133 40.4422C179.992 41.3051 181.158 41.7915 182.376 41.7944H187.873C189.091 41.7915 190.257 41.3051 191.117 40.4422C191.976 39.5793 192.457 38.4106 192.454 37.193V31.6715C192.457 30.4539 191.976 29.2852 191.117 28.4223C190.257 27.5595 189.091 27.0731 187.873 27.0701V27.0701ZM191.08 37.1922C191.081 38.0442 190.744 38.8617 190.143 39.4655C189.541 40.0692 188.725 40.4098 187.873 40.4125H182.376C181.524 40.4098 180.708 40.0692 180.106 39.4655C179.505 38.8617 179.168 38.0442 179.169 37.1922V31.6715C179.168 30.8195 179.505 30.0019 180.106 29.3982C180.708 28.7945 181.524 28.4539 182.376 28.4511H187.873C188.725 28.4539 189.541 28.7945 190.143 29.3982C190.744 30.0019 191.081 30.8195 191.08 31.6715V37.1922Z" fill="white"/>
<path d="M185.125 30.7514C184.397 30.7491 183.685 30.9627 183.079 31.3653C182.473 31.7679 182 32.3413 181.719 33.013C181.439 33.6847 181.365 34.4244 181.505 35.1384C181.646 35.8525 181.995 36.5088 182.509 37.0242C183.023 37.5396 183.678 37.891 184.391 38.0339C185.105 38.1767 185.845 38.1046 186.517 37.8267C187.19 37.5487 187.765 37.0774 188.17 36.4725C188.574 35.8676 188.79 35.1562 188.79 34.4284C188.79 33.4553 188.404 32.5218 187.717 31.8326C187.03 31.1434 186.098 30.7546 185.125 30.7514ZM185.125 36.733C184.67 36.7348 184.224 36.6015 183.845 36.3499C183.465 36.0983 183.169 35.7397 182.993 35.3195C182.818 34.8994 182.771 34.4366 182.858 33.9897C182.946 33.5429 183.164 33.1322 183.486 32.8095C183.807 32.4869 184.217 32.2669 184.663 32.1773C185.11 32.0878 185.573 32.1328 185.994 32.3067C186.415 32.4805 186.774 32.7753 187.028 33.1538C187.281 33.5323 187.416 33.9774 187.416 34.4327C187.416 35.0413 187.175 35.6252 186.746 36.0564C186.317 36.4876 185.734 36.7309 185.125 36.733Z" fill="white"/>
<path d="M189.064 30.9661C189.334 30.9661 189.553 30.7463 189.553 30.4752C189.553 30.2041 189.334 29.9844 189.064 29.9844C188.795 29.9844 188.576 30.2041 188.576 30.4752C188.576 30.7463 188.795 30.9661 189.064 30.9661Z" fill="white"/>
<path d="M257 48C264.732 48 271 41.732 271 34C271 26.268 264.732 20 257 20C249.268 20 243 26.268 243 34C243 41.732 249.268 48 257 48Z" fill="#B92B27"/>
<path d="M263.779 38.9382H262.863C262.852 39.2015 262.738 39.4501 262.546 39.6308C262.355 39.8115 262.1 39.9101 261.836 39.9054C261.501 39.8709 261.181 39.7494 260.907 39.553C260.633 39.3565 260.415 39.0919 260.275 38.7854C261.011 38.2252 261.606 37.5008 262.013 36.67C262.419 35.8392 262.626 34.9249 262.617 34C262.632 32.7705 262.281 31.5642 261.609 30.5344C260.938 29.5046 259.975 28.6978 258.843 28.2164C257.712 27.7349 256.463 27.6007 255.255 27.8306C254.047 28.0606 252.935 28.6443 252.059 29.5078C251.184 30.3712 250.585 31.4754 250.338 32.68C250.092 33.8847 250.209 35.1354 250.675 36.2733C251.141 37.4113 251.934 38.3851 252.955 39.0711C253.975 39.7571 255.176 40.1243 256.406 40.126C256.947 40.124 257.486 40.0527 258.01 39.9139C258.269 40.4905 258.688 40.9808 259.217 41.3267C259.747 41.6725 260.364 41.8595 260.996 41.8654C261.378 41.8788 261.758 41.8111 262.111 41.6668C262.465 41.5224 262.783 41.3047 263.046 41.028C263.309 40.7514 263.511 40.422 263.637 40.0617C263.763 39.7015 263.812 39.3185 263.779 38.9382ZM259.24 37.1394C258.959 36.6311 258.544 36.2101 258.039 35.9227C257.535 35.6353 256.961 35.4926 256.38 35.5103C255.607 35.4843 254.849 35.7339 254.242 36.2145L254.616 36.9697C254.819 36.8839 255.039 36.8433 255.26 36.8509C256.372 36.8509 256.957 37.8182 257.433 38.7685H257.424C257.093 38.8604 256.75 38.9061 256.406 38.9042C254.056 38.9042 253.012 37.2072 253.012 33.9915C253.012 30.7757 254.03 29.0703 256.406 29.0703C258.782 29.0703 259.8 30.7672 259.8 33.9915C259.835 35.0684 259.644 36.1407 259.24 37.1394Z" fill="white"/>
<path d="M113 48C120.732 48 127 41.732 127 34C127 26.268 120.732 20 113 20C105.268 20 99 26.268 99 34C99 41.732 105.268 48 113 48Z" fill="#3B5A9F"/>
<path d="M115.197 34.4515H113.522V40.5895H110.983V34.4515H109.775V32.294H110.983V30.8985C110.955 30.5545 111.002 30.2086 111.121 29.8847C111.24 29.5608 111.428 29.2666 111.672 29.0226C111.916 28.7786 112.21 28.5905 112.534 28.4715C112.858 28.3524 113.204 28.3052 113.548 28.3331L115.429 28.3408V30.435H114.061C113.985 30.4303 113.909 30.4428 113.838 30.4714C113.767 30.5001 113.703 30.5442 113.652 30.6006C113.6 30.657 113.561 30.7242 113.539 30.7974C113.517 30.8705 113.511 30.9477 113.523 31.0233V32.2932H115.42L115.197 34.4515Z" fill="white"/>
<g clip-path="url(#clip1)">
<path d="M77 48C79.7689 48 82.4757 47.1789 84.778 45.6406C87.0803 44.1022 88.8747 41.9157 89.9343 39.3576C90.9939 36.7994 91.2712 33.9845 90.731 31.2687C90.1908 28.553 88.8574 26.0584 86.8995 24.1005C84.9416 22.1426 82.447 20.8092 79.7313 20.269C77.0155 19.7288 74.2006 20.0061 71.6424 21.0657C69.0843 22.1253 66.8978 23.9197 65.3594 26.222C63.8211 28.5243 63 31.2311 63 34C63 37.713 64.475 41.274 67.1005 43.8995C69.726 46.525 73.287 48 77 48Z" fill="#34AADF"/>
<path d="M69.788 33.703L77.8741 30.3685C78.6717 30.0206 81.3783 28.9091 81.3783 28.9091C81.3783 28.9091 82.6341 28.4255 82.5238 29.6049C82.5238 30.0885 82.2098 31.794 81.9383 33.6267C81.5226 36.2315 81.0898 39.0824 81.0898 39.0824C81.0898 39.0824 81.022 39.88 80.4365 40.0158C79.8032 40.0049 79.1914 39.7841 78.6971 39.3879C78.5614 39.2861 76.0923 37.6909 75.1929 36.9612C75.1001 36.9012 75.0238 36.8189 74.9709 36.7218C74.9181 36.6248 74.8904 36.516 74.8904 36.4055C74.8904 36.2949 74.9181 36.1862 74.9709 36.0891C75.0238 35.992 75.1001 35.9097 75.1929 35.8497C76.4401 34.7043 77.9335 33.3043 78.8414 32.3794C79.2571 31.9637 79.6898 30.9964 77.9335 32.1758C75.4729 33.8727 73.0462 35.4679 73.0462 35.4679C72.7926 35.5755 72.5199 35.6309 72.2444 35.6309C71.9689 35.6309 71.6962 35.5755 71.4426 35.4679C70.4074 35.1624 69.1941 34.7382 69.1941 34.7382C69.1941 34.7382 68.3456 34.2206 69.7795 33.6691L69.788 33.703Z" fill="white"/>
</g>
<path d="M41 48C48.732 48 55 41.732 55 34C55 26.268 48.732 20 41 20C33.268 20 27 26.268 27 34C27 41.732 33.268 48 41 48Z" fill="#E02E2F"/>
<path d="M45.0721 28.7453H37.3761C37.015 28.7469 36.6578 28.8196 36.3248 28.9592C35.9919 29.0989 35.6897 29.3028 35.4356 29.5593C35.1815 29.8158 34.9804 30.1199 34.8438 30.4541C34.7072 30.7884 34.6379 31.1463 34.6397 31.5073V35.3947C34.6378 35.7558 34.7071 36.1138 34.8436 36.4482C34.9801 36.7825 35.1811 37.0867 35.4353 37.3433C35.6894 37.5998 35.9916 37.8038 36.3246 37.9436C36.6576 38.0833 37.0149 38.156 37.3761 38.1576H45.0721C45.4332 38.156 45.7904 38.0833 46.1234 37.9437C46.4563 37.804 46.7585 37.6001 47.0126 37.3436C47.2667 37.0871 47.4678 36.783 47.6044 36.4487C47.7409 36.1145 47.8103 35.7566 47.8085 35.3956V31.5073C47.8103 31.1463 47.7409 30.7884 47.6044 30.4541C47.4678 30.1199 47.2667 29.8158 47.0126 29.5593C46.7585 29.3028 46.4563 29.0989 46.1234 28.9592C45.7904 28.8196 45.4332 28.7469 45.0721 28.7453ZM43.2234 33.6409L39.6208 35.375C39.5986 35.3856 39.5742 35.3904 39.5497 35.389C39.5252 35.3875 39.5014 35.3798 39.4807 35.3666C39.46 35.3534 39.443 35.3352 39.4313 35.3136C39.4196 35.2921 39.4136 35.2679 39.4138 35.2433V31.6655C39.4137 31.6408 39.4199 31.6164 39.4318 31.5948C39.4438 31.5731 39.4611 31.5549 39.4821 31.5418C39.5032 31.5288 39.5272 31.5214 39.5519 31.5203C39.5766 31.5192 39.6012 31.5244 39.6233 31.5356L43.2225 33.3783C43.2467 33.3908 43.267 33.4097 43.2811 33.4329C43.2952 33.4562 43.3026 33.4829 43.3024 33.5101C43.3022 33.5373 43.2945 33.5639 43.2801 33.587C43.2657 33.6101 43.2452 33.6287 43.2208 33.6409H43.2234Z" fill="#F8F8F8"/>
<path d="M149 48C156.732 48 163 41.732 163 34C163 26.268 156.732 20 149 20C141.268 20 135 26.268 135 34C135 41.732 141.268 48 149 48Z" fill="#55ACEE"/>
<path d="M157.185 30.2837C156.647 30.5224 156.075 30.6789 155.49 30.748C156.107 30.3795 156.568 29.7992 156.789 29.1156C156.209 29.4593 155.575 29.7014 154.914 29.8313C154.469 29.358 153.881 29.0445 153.24 28.9395C152.599 28.8344 151.941 28.9436 151.368 29.2502C150.795 29.5567 150.34 30.0435 150.072 30.6352C149.804 31.2269 149.738 31.8905 149.885 32.5232C148.712 32.4644 147.564 32.1595 146.516 31.6283C145.468 31.0971 144.543 30.3514 143.802 29.4397C143.424 30.0895 143.309 30.8586 143.478 31.5907C143.648 32.3227 144.09 32.9626 144.715 33.3801C144.246 33.3656 143.788 33.2389 143.379 33.0107C143.379 33.0235 143.379 33.0355 143.379 33.0483C143.379 33.7298 143.615 34.3902 144.046 34.9177C144.478 35.4451 145.078 35.807 145.746 35.942C145.312 36.0601 144.856 36.0777 144.414 35.9933C144.602 36.5802 144.969 37.0936 145.463 37.4616C145.958 37.8296 146.555 38.0338 147.171 38.0456C145.932 39.0128 144.36 39.4508 142.799 39.2641C144.067 40.0769 145.531 40.5333 147.037 40.5854C148.542 40.6374 150.034 40.2833 151.356 39.56C152.677 38.8367 153.78 37.7711 154.547 36.4749C155.315 35.1786 155.72 33.6997 155.719 32.1932C155.719 32.0649 155.719 31.9366 155.71 31.8118C156.288 31.3944 156.787 30.8772 157.183 30.2845L157.185 30.2837Z" fill="white"/>
<path d="M293 48C300.732 48 307 41.732 307 34C307 26.268 300.732 20 293 20C285.268 20 279 26.268 279 34C279 41.732 285.268 48 293 48Z" fill="#288BBB"/>
<path d="M299.306 34.667V39.0093H296.789V34.9586C296.789 33.941 296.426 33.2484 295.514 33.2484C295.23 33.25 294.954 33.3394 294.723 33.5042C294.492 33.6691 294.317 33.9014 294.223 34.1693C294.158 34.3671 294.129 34.5751 294.138 34.7833V39.0127H291.622C291.622 39.0127 291.656 32.1512 291.622 31.4406H294.14V32.5138C294.135 32.5224 294.128 32.5309 294.123 32.5386H294.14V32.5138C294.368 32.1179 294.7 31.792 295.1 31.5714C295.5 31.3509 295.952 31.2441 296.409 31.2628C298.065 31.2628 299.307 32.3454 299.307 34.6704L299.306 34.667ZM288.988 27.7876C288.809 27.7725 288.628 27.7945 288.457 27.8523C288.287 27.9101 288.13 28.0024 287.996 28.1235C287.863 28.2445 287.756 28.3918 287.682 28.556C287.608 28.7202 287.569 28.8979 287.567 29.078C287.564 29.2581 287.599 29.4367 287.669 29.6028C287.739 29.7688 287.842 29.9187 287.972 30.0432C288.102 30.1676 288.257 30.2639 288.426 30.326C288.595 30.3881 288.775 30.4147 288.955 30.4042H288.971C289.151 30.42 289.333 30.3982 289.505 30.3401C289.677 30.2821 289.835 30.1892 289.969 30.0671C290.103 29.9451 290.21 29.7966 290.284 29.631C290.358 29.4655 290.396 29.2864 290.398 29.1052C290.399 28.9239 290.362 28.7444 290.291 28.5779C290.219 28.4113 290.114 28.2615 289.981 28.1377C289.849 28.0139 289.692 27.9189 289.521 27.8586C289.35 27.7984 289.169 27.7742 288.988 27.7876ZM287.713 39.0093H290.23V31.4372H287.713V39.0093Z" fill="white"/>
<defs>
<linearGradient id="paint0_linear" x1="193.652" y1="25.628" x2="176.292" y2="45.284" gradientUnits="userSpaceOnUse">
<stop stop-color="#C01C9B"/>
<stop offset="0.522" stop-color="#FF4F5F"/>
<stop offset="1" stop-color="#EFE072"/>
</linearGradient>
<clipPath id="clip0">
<rect width="28" height="28" fill="white" transform="translate(63 67)"/>
</clipPath>
<clipPath id="clip1">
<rect width="28" height="28" fill="white" transform="translate(63 20)"/>
</clipPath>
</defs>
</svg>
