<?xml version="1.0" encoding="utf-8"?>
<!-- Generator: Adobe Illustrator 22.1.0, SVG Export Plug-In . SVG Version: 6.00 Build 0)  -->
<svg version="1.1"
	 id="svg10" xmlns:cc="http://creativecommons.org/ns#" xmlns:dc="http://purl.org/dc/elements/1.1/" xmlns:rdf="http://www.w3.org/1999/02/22-rdf-syntax-ns#" xmlns:svg="http://www.w3.org/2000/svg"
	 xmlns="http://www.w3.org/2000/svg" xmlns:xlink="http://www.w3.org/1999/xlink" x="0px" y="0px" viewBox="0 0 1233.4 229"
	 style="enable-background:new 0 0 1233.4 229;" xml:space="preserve">
<path d="M106,0c10.5,0,20.2,0.8,29.1,3.2c8.9,1.6,16.2,4.9,22.7,8.9s11.3,9.7,14.6,17c3.2,7.3,4.9,16.2,4.9,25.9
	c0,11.3-2.4,21-8.1,28.3c-4.9,7.3-12.9,13.8-22.7,18.6c13.8,4,24.3,11.3,30.7,21s10.5,21.8,10.5,35.6c0,11.3-2.4,21-6.5,29.1
	c-4,8.1-10.5,15.4-17.8,20.2c-7.3,4.9-16.2,8.9-25.9,11.3c-9.7,2.4-19.4,4-29.1,4L0,223.3V0H106z M99.5,90.6
	c8.9,0,16.2-2.4,21.8-6.5s8.1-11.3,8.1-20.2c0-4.9-0.8-9.7-2.4-12.9c-1.6-3.2-4-5.7-7.3-8.1c-3.2-1.6-6.5-3.2-10.5-4
	c-4-0.8-8.1-0.8-12.9-0.8H49.4v52.6C49.4,90.6,99.5,90.6,99.5,90.6z M101.9,186.1c4.9,0,9.7-0.8,13.8-1.6c4-0.8,8.1-2.4,11.3-4.9
	s5.7-4.9,8.1-8.9c1.6-4,3.2-8.9,3.2-14.6c0-11.3-3.2-19.4-9.7-25.1c-6.5-4.9-15.4-7.3-25.9-7.3H49.4v62.3H101.9z"/>
<path d="M258.1,185.3c6.5,6.5,16.2,9.7,29.1,9.7c8.9,0,17-2.4,23.5-6.5c6.5-4.9,10.5-9.7,12.1-14.6h39.6
	c-6.5,19.4-16.2,33.2-29.1,42.1c-12.9,8.1-28.3,12.9-46.9,12.9c-12.9,0-24.3-2.4-34.8-6.5c-10.5-4-18.6-9.7-25.9-17.8
	c-7.3-7.3-12.9-16.2-16.2-26.7c-4-10.5-5.7-21.8-5.7-34.8c0-12.1,1.6-23.5,5.7-34s9.7-19.4,17-27.5c7.3-7.3,16.2-13.8,25.9-17.8
	c10.5-4,21-6.5,34-6.5c13.8,0,25.9,2.4,36.4,8.1c10.5,5.7,18.6,12.1,25.1,21.8c6.5,8.9,11.3,19.4,14.6,30.7
	c1.6,11.3,2.4,22.7,1.6,35.6H246.8C246.8,166.7,251.6,178.8,258.1,185.3z M309.1,100.3c-5.7-5.7-14.6-8.9-25.1-8.9
	c-7.3,0-12.9,1.6-17.8,4c-4.9,2.4-8.1,5.7-11.3,8.9c-3.2,3.2-4.9,7.3-5.7,11.3c-0.8,4-1.6,7.3-1.6,10.5h72.8
	C318.8,114.1,314.7,106,309.1,100.3z M237.9,15.4h90.6v21.8h-90.6V15.4z"/>
<path d="M427.2,0v84.1h0.8c5.7-9.7,12.9-16.2,21.8-20.2c8.9-4,17-6.5,25.9-6.5c12.1,0,21.8,1.6,29.1,4.9c7.3,3.2,13.8,8.1,17.8,13.8
	c4,5.7,7.3,12.9,8.9,21c1.6,8.1,2.4,17,2.4,27.5v99.5h-44.5v-91.4c0-13.8-2.4-23.5-6.5-29.9S471.7,93,461.2,93
	c-12.1,0-21,4-25.9,10.5c-5.7,7.3-8.1,19.4-8.1,35.6v85h-44.5V0C382.7,0,427.2,0,427.2,0z"/>
<path d="M566.4,85.8c4.9-7.3,10.5-12.1,17.8-17c7.3-4,15.4-7.3,24.3-8.9c8.9-1.6,17.8-2.4,26.7-2.4c8.1,0,16.2,0.8,25.1,1.6
	c8.1,0.8,16.2,3.2,22.7,6.5c7.3,3.2,12.1,8.1,17,13.8c4,5.7,6.5,13.8,6.5,23.5v85c0,7.3,0.8,14.6,1.6,21c0.8,6.5,3.2,12.1,5.7,15.4
	h-45.3c-1.6-1.6-2.4-4.9-3.2-7.3c-0.8-2.4-0.8-5.7-0.8-8.1c-7.3,7.3-15.4,12.1-25.1,15.4c-9.7,3.2-19.4,4-29.1,4
	c-8.1,0-14.6-0.8-21.8-3.2c-6.5-1.6-12.1-4.9-17.8-8.9c-4.9-4-8.9-8.9-12.1-15.4c-2.4-6.5-4-12.9-4-21.8c0-8.9,1.6-17,4.9-22.7
	c3.2-5.7,7.3-10.5,12.1-14.6c4.9-3.2,11.3-6.5,17.8-8.1c6.5-1.6,12.9-3.2,20.2-4c6.5-0.8,12.9-1.6,19.4-2.4c6.5-0.8,12.1-1.6,17-2.4
	c4.9-1.6,8.9-3.2,12.1-5.7c3.2-2.4,4-5.7,4-10.5c0-4.9-0.8-8.9-2.4-11.3c-1.6-2.4-4-4.9-6.5-6.5c-2.4-1.6-5.7-2.4-8.9-3.2
	c-3.2-0.8-7.3-0.8-11.3-0.8c-8.9,0-15.4,1.6-20.2,5.7c-4.9,4-8.1,10.5-8.9,18.6h-44.5C559.1,101.1,562.3,92.2,566.4,85.8z
	 M654.6,148.9c-2.4,0.8-5.7,1.6-8.9,2.4s-6.5,0.8-10.5,1.6c-3.2,0.8-7.3,0.8-10.5,1.6s-6.5,1.6-9.7,2.4c-3.2,0.8-6.5,2.4-8.1,4
	c-2.4,1.6-4,4-5.7,6.5c-2.4,3.2-2.4,6.5-2.4,10.5c0,4,0.8,7.3,2.4,9.7c1.6,2.4,3.2,4.9,5.7,6.5c2.4,1.6,5.7,2.4,8.9,3.2
	c3.2,0.8,6.5,0.8,10.5,0.8c8.9,0,15.4-1.6,20.2-4c4.9-3.2,8.1-6.5,10.5-10.5c2.4-4,4-8.1,4-12.1c0.8-4,0.8-7.3,0.8-9.7v-17
	C659.4,146.4,657,148.1,654.6,148.9z"/>
<path d="M773.5,61.5v22.7h0.8c5.7-9.7,12.9-16.2,21.8-20.2s18.6-6.5,27.5-6.5c12.1,0,21.8,1.6,29.1,4.9c8.1,3.2,13.8,8.1,17.8,13.8
	c4,5.7,7.3,12.9,9.7,21c1.6,8.1,2.4,17,2.4,27.5v99.5h-44.5v-91.4c0-13.8-2.4-23.5-6.5-29.9c-4-6.5-11.3-10.5-22.7-10.5
	c-12.1,0-21,4.9-26.7,12.1c-5.7,7.3-8.1,19.4-8.1,35.6v85h-44.5V61.5C729.8,61.5,773.5,61.5,773.5,61.5z"/>
<path d="M982.3,90.6c-7.3,0-12.9,1.6-17.8,4.9c-4.9,3.2-8.9,7.3-12.1,12.9c-3.2,4.9-4.9,10.5-6.5,17c-1.6,6.5-1.6,12.1-1.6,18.6
	c0,5.7,0.8,12.1,1.6,17.8c1.6,6.5,3.2,11.3,6.5,16.2c3.2,4.9,6.5,8.9,11.3,12.1c4.9,3.2,10.5,4.9,17.8,4.9c10.5,0,18.6-3.2,25.1-8.9
	c5.7-5.7,9.7-13.8,10.5-24.3h42.9c-3.2,21.8-11.3,38-25.1,49.4c-13.8,11.3-31.6,17-53.4,17c-12.1,0-23.5-2.4-33.2-6.5
	c-10.5-4-18.6-9.7-25.9-17c-7.3-7.3-12.9-16.2-17-25.9c-4-10.5-5.7-21-5.7-33.2c0-12.9,1.6-24.3,5.7-34.8c4-10.5,8.9-20.2,16.2-28.3
	c7.3-8.1,16.2-13.8,25.9-18.6c10.5-4,21.8-6.5,34.8-6.5c9.7,0,18.6,1.6,27.5,4c8.9,2.4,17,6.5,23.5,11.3c7.3,4.9,12.9,11.3,17,19.4
	c4,7.3,6.5,17,7.3,27.5h-43.7C1012.2,100.3,1001.7,90.6,982.3,90.6z"/>
<path d="M1127.1,185.3c6.5,6.5,17,9.7,29.1,9.7c8.9,0,17-2.4,23.5-6.5c6.5-4.9,10.5-9.7,12.1-14.6h38.8
	c-6.5,19.4-16.2,33.2-29.1,42.1c-12.9,8.1-28.3,12.9-46.9,12.9c-12.9,0-24.3-2.4-34.8-6.5c-10.5-4-18.6-9.7-25.9-17.8
	c-7.3-7.3-12.9-16.2-16.2-26.7c-4-10.5-5.7-21.8-5.7-34.8c0-12.1,1.6-23.5,5.7-34c4-10.5,9.7-19.4,17-27.5
	c7.3-7.3,16.2-13.8,25.9-17.8c10.5-4,21.8-6.5,34-6.5c13.8,0,25.9,2.4,35.6,8.1c10.5,5.7,18.6,12.1,25.1,21.8
	c6.5,8.9,11.3,19.4,14.6,30.7c3.2,11.3,4,23.5,3.2,36.4h-117.3C1115.8,166.7,1120.6,178.8,1127.1,185.3L1127.1,185.3z M1178.9,100.3
	c-5.7-5.7-14.6-8.9-25.1-8.9c-7.3,0-12.9,1.6-17.8,4c-4.9,2.4-8.9,5.7-11.3,8.9c-2.4,3.2-4.9,7.3-5.7,11.3c-0.8,4-1.6,7.3-1.6,10.5
	h72.8C1187.8,114.1,1183.7,106,1178.9,100.3L1178.9,100.3z"/>
</svg>
