<?xml version="1.0" encoding="UTF-8" standalone="no"?>
<svg
   xmlns:dc="http://purl.org/dc/elements/1.1/"
   xmlns:cc="http://creativecommons.org/ns#"
   xmlns:rdf="http://www.w3.org/1999/02/22-rdf-syntax-ns#"
   xmlns:svg="http://www.w3.org/2000/svg"
   xmlns="http://www.w3.org/2000/svg"
   xmlns:sodipodi="http://sodipodi.sourceforge.net/DTD/sodipodi-0.dtd"
   xmlns:inkscape="http://www.inkscape.org/namespaces/inkscape"
   width="236"
   height="300"
   viewBox="0 0 768 979"
   version="1.0"
   id="svg2"
   sodipodi:version="0.32"
   inkscape:version="0.46"
   sodipodi:docname="Hindustan_Petroleum_Logo.svg"
   inkscape:output_extension="org.inkscape.output.svg.inkscape">
  <metadata
     id="metadata52">
    <rdf:RDF>
      <cc:Work
         rdf:about="">
        <dc:format>image/svg+xml</dc:format>
        <dc:type
           rdf:resource="http://purl.org/dc/dcmitype/StillImage" />
      </cc:Work>
    </rdf:RDF>
  </metadata>
  <defs
     id="defs50">
    <inkscape:perspective
       sodipodi:type="inkscape:persp3d"
       inkscape:vp_x="0 : 611.875 : 1"
       inkscape:vp_y="0 : 1000 : 0"
       inkscape:vp_z="960 : 611.875 : 1"
       inkscape:persp3d-origin="480 : 407.91667 : 1"
       id="perspective54" />
  </defs>
  <sodipodi:namedview
     inkscape:window-height="669"
     inkscape:window-width="640"
     inkscape:pageshadow="2"
     inkscape:pageopacity="0.0"
     guidetolerance="10.0"
     gridtolerance="10.0"
     objecttolerance="10.0"
     borderopacity="1.0"
     bordercolor="#666666"
     pagecolor="#ffffff"
     id="base"
     showgrid="false"
     inkscape:zoom="0.37752809"
     inkscape:cx="480"
     inkscape:cy="611.875"
     inkscape:window-x="92"
     inkscape:window-y="95"
     inkscape:current-layer="svg2" />
  <g
     id="#cc0113ff">
    <path
       d="M 0,0 L 0.06,0 C 0.05,0.02 0.02,0.05 0,0.06 L 0,0 z"
       id="path5"
       style="opacity:1;fill:#cc0113" />
    <path
       d="M 43.44,233.39 C 43.46,191.52 43.3,149.65 43.52,107.78 C 59.67,108 75.84,107.44 91.98,108.13 C 100.96,107.65 109.97,107.6 118.94,108.14 C 131.32,107.7 143.67,108.25 156.05,107.8 C 166.38,107.47 176.7,108.64 187.02,107.83 C 198.35,107.8 209.67,107.83 220.99,108.22 C 223.33,108.19 225.66,108.08 227.99,107.85 C 238.65,107.84 249.32,107.76 259.99,107.87 C 267.6,108.73 275.22,107.22 282.84,108.09 C 289.57,108.22 296.3,107.52 303.04,108.13 C 314.04,107.14 325.06,108.73 336.05,107.81 C 344.71,108.53 353.37,107.34 362.02,108.02 C 368.74,108.57 375.45,107.53 382.16,108.09 C 388.43,107.33 394.7,108.52 400.97,107.91 C 407.93,107.74 414.91,107.7 421.87,108.11 C 426.57,107.93 431.29,107.58 435.99,108.02 C 443.34,108.62 450.69,107.64 458.05,107.8 C 462.04,107.73 466.03,108.38 470.03,108.09 C 476.69,107.42 483.35,108.52 490.02,108.18 C 507.99,107.17 525.98,108.53 543.94,107.91 C 550.25,108.38 556.57,108.21 562.88,107.87 C 570.93,108.48 578.99,107.39 587.06,107.91 C 593.38,108.56 599.71,107.35 606.03,108.16 C 615.35,107.88 624.7,107.55 634.03,107.99 C 637.95,108.42 641.87,107.73 645.8,107.81 C 654.54,108.22 663.29,107.41 672.03,108.09 C 683.66,107.57 695.31,107.89 706.95,107.84 C 712.81,108.29 718.7,108.32 724.56,107.68 C 725.86,114.09 724.05,120.59 725.12,127.04 C 725.3,146.69 725.14,166.35 725.2,186 C 725.04,196.95 725.58,207.92 724.76,218.85 C 724.55,223.76 725.33,228.64 725.28,233.55 C 719.22,234.87 713.08,233.35 706.98,233.94 C 701.33,234.61 695.67,233.49 690.02,234.07 C 680.36,233.35 670.68,234.88 661.03,233.74 C 652.71,234.48 644.37,234.06 636.04,234.15 C 585.68,234.17 535.33,234.07 484.98,234.11 C 465.33,233.44 445.66,233.85 426,233.74 C 298.48,233.55 170.96,233.44 43.44,233.39 M 75.31,120.29 C 70.2,125.27 70.4,133.6 73.51,139.59 C 71.91,139.63 70.32,139.67 68.72,139.72 C 68.68,143.6 68.65,147.48 68.69,151.36 C 71.03,151.34 73.37,151.33 75.72,151.35 C 75.89,165.26 75.76,179.17 75.8,193.08 C 75.57,196.25 79.11,197.21 81.12,198.84 C 83.88,200.59 86.63,202.34 89.43,204.01 C 89.62,186.3 89.46,168.58 89.52,150.86 C 100.37,150.97 111.26,150.55 122.09,151.22 C 115.09,153.06 107.64,150.75 100.64,152.6 C 98.13,154.21 96.66,157.18 96.53,160.12 C 96.73,162.37 97.84,164.4 98.61,166.49 L 99.33,166.35 C 99.86,167.22 100.4,168.09 100.94,168.95 C 98.86,171.63 96.17,174.39 96.22,178.02 C 96.01,180.76 97.06,183.35 97.96,185.88 C 103.01,193.01 110.39,197.89 118.07,201.77 C 120.19,202.75 122.19,204.27 124.55,204.58 C 126.46,204.18 127.87,202.37 127.7,200.39 C 126.72,198.95 125.84,197.46 124.99,195.95 C 119.4,193.25 113.62,190.02 110.61,184.32 C 110.61,182.71 110.6,181.11 110.59,179.51 C 111.65,178.57 112.72,177.64 113.8,176.72 C 118.8,175.77 123.96,175.39 128.89,176.98 C 125.73,179.51 120.43,178.57 118.87,182.99 C 118.62,183.84 118.38,184.7 118.16,185.56 C 120.21,187.98 122.27,190.39 124.23,192.88 C 126.77,192.73 129.45,192.34 131.45,190.62 C 135.26,187.48 139.33,183.28 138.71,177.91 C 138.84,172.57 133.69,169.65 130.16,166.57 C 122.73,163.44 114.37,166.37 106.71,164.14 C 115.62,163.57 124.59,163.97 133.53,163.67 C 133.52,159.58 133.53,155.49 133.51,151.4 C 139.02,151.35 144.56,151.58 150.05,150.92 C 163.52,150.74 177,150.77 190.45,151.69 C 189.87,152.09 188.72,152.9 188.14,153.3 C 184.37,153.29 180.6,153.18 176.84,153.36 C 174.01,153.31 171.85,155.34 169.65,156.82 C 169.52,157.47 169.27,158.77 169.14,159.42 C 161.74,159.88 154.32,159.47 146.92,159.64 C 144.9,159.58 143.08,160.55 141.3,161.38 C 140.96,163.23 140.06,165.18 140.79,167.06 C 142.84,172.75 146.75,177.79 151.65,181.3 C 153.98,183.13 156.8,181.69 159.31,181.14 C 160.04,178.03 160.28,174.83 160.36,171.64 C 162.01,171.71 163.67,171.7 165.32,171.91 C 166.81,175 167.47,178.52 169.69,181.24 C 172.06,184.66 175.62,186.91 179.09,189.07 C 184.21,191.28 189.87,190.91 195.3,190.6 C 195.84,191.29 196.9,192.68 197.43,193.37 C 191.08,193.66 185.12,196.1 179.78,199.42 C 180.05,199.46 180.59,199.52 180.86,199.56 C 182.71,202.5 184.9,205.22 187,207.99 C 189.41,207.47 191.79,206.82 194.2,206.29 C 195.43,205.3 196.67,204.31 197.9,203.33 C 198.91,203.32 200.93,203.3 201.94,203.3 C 201.86,204.64 201.77,205.99 201.67,207.34 C 200.7,208.24 199.75,209.16 198.8,210.09 C 189.09,213.65 177.79,211.49 169.3,205.81 C 166.55,204.38 166.4,200.98 165.38,198.4 C 163.18,200.3 160.88,202.07 158.59,203.84 C 158.61,204.67 158.63,205.49 158.65,206.32 C 162.54,212.78 169.71,215.84 176,219.39 C 186.07,223.93 198.66,225.87 208.35,219.38 C 213.75,215.8 215.58,208.98 214.48,202.85 C 213.75,201.62 213.04,200.39 212.31,199.16 C 212.33,198.66 212.36,197.65 212.38,197.14 C 209.01,193.7 205.94,189.98 202.66,186.45 C 203.5,185.39 204.33,184.32 205.16,183.25 C 205.54,182.18 205.94,181.13 206.36,180.08 C 207.13,176.2 205.59,172.61 203.27,169.58 C 200.51,168.38 197.38,166.88 194.42,168.42 C 190.12,169.85 188.96,174.71 188.4,178.68 C 184.25,178.76 180.12,178.12 176.44,176.14 C 176.15,173.01 176.62,169.89 177.48,166.88 C 178.06,166.52 179.21,165.79 179.78,165.42 C 187.32,165.38 194.85,165.43 202.39,165.4 C 202.41,160.72 202.41,156.05 202.4,151.38 C 208.89,151.37 215.37,151.36 221.86,151.39 C 221.88,154.39 221.87,157.39 221.87,160.39 C 218.89,160.34 216.05,161.2 213.52,162.75 C 212.02,168.35 214.57,173.73 217.94,178.07 C 224.02,186.7 231.29,194.42 238.83,201.78 C 242.01,200.17 245.16,198.51 248.35,196.91 C 239.69,192.03 233.46,184.19 227,176.86 C 228.5,175.53 229.99,174.17 231.37,172.7 C 232.47,172.44 233.61,172.29 234.65,172.88 C 237.58,174.23 240.72,174.97 243.89,175.54 C 248.02,185.68 255.1,194.16 261.91,202.59 C 262.22,202.52 262.86,202.38 263.17,202.31 C 264.39,201.43 265.62,200.56 266.87,199.71 C 266.53,197.46 266.06,195.24 265.43,193.06 C 262.76,189.95 260.37,186.6 258.26,183.09 C 255.75,178.75 253.58,173.5 255.79,168.58 C 262.35,167.78 268.97,168.49 275.54,167.79 C 275.69,176.91 275.65,186.02 275.6,195.14 C 279.97,198.11 284.51,200.85 288.75,204.01 C 289.57,200.09 289.31,196.09 289.34,192.13 C 289.32,178.55 289.34,164.98 289.37,151.41 C 292.05,151.39 294.72,151.4 297.41,151.44 C 297.39,166.06 297.33,180.67 297.43,195.29 C 301.92,198.12 306.45,200.92 310.64,204.2 C 311.97,186.44 310.31,168.6 311.37,150.83 C 322.46,150.73 333.51,151.7 344.61,151.4 C 344.62,154.15 344.62,156.9 344.63,159.66 C 337.05,159.65 329.46,159.54 321.88,159.68 C 319.6,159.56 317.93,161.25 316.37,162.64 C 315.76,168.82 320.01,173.86 323.74,178.28 C 325.97,180.42 328.58,182.2 331.75,182.52 C 332.43,182.21 333.8,181.59 334.48,181.28 C 336.29,178.43 335.91,174.94 336.2,171.73 C 338.98,171.73 341.76,171.74 344.54,171.72 C 344.57,172.8 344.6,173.87 344.64,174.95 C 344.96,181.91 343.78,189.04 345.39,195.87 C 349.83,198.42 353.98,201.46 358.33,204.16 C 358.46,186.57 358.35,168.98 358.39,151.39 C 361.53,151.34 364.68,151.33 367.83,151.35 C 367.87,147.6 367.88,143.85 367.88,140.11 C 294.59,140.11 221.29,140.12 148,140.1 C 142.03,139.53 136.03,139.79 130.04,139.58 C 127.61,136.49 124.76,133.77 121.92,131.06 C 116.35,126.38 110.52,121.96 103.99,118.69 C 99.24,116.62 94.21,115.18 88.99,115.16 C 84.01,115.11 78.71,116.41 75.31,120.29 M 395.49,116.4 C 396.04,118.23 396.58,120.08 397.15,121.91 C 397.88,124.89 398.73,127.84 399.6,130.78 C 401.72,130.16 403.84,129.54 405.93,128.82 C 407.95,128.36 409.98,127.89 412.01,127.48 C 415.45,131.44 418.6,135.64 422.11,139.55 C 421.49,139.58 420.26,139.62 419.64,139.65 C 410.7,140.13 401.76,140.04 392.82,140.3 C 392.86,143.66 392.85,147.02 392.84,150.38 C 393.76,150.75 394.69,151.12 395.63,151.48 C 396.38,151.43 397.89,151.33 398.64,151.28 C 399.23,157.99 396.86,165.73 401.42,171.47 C 404.72,176.28 409.1,180.25 414.12,183.2 C 417.93,184.17 421.88,183.92 425.75,183.45 C 426.3,186.96 426.14,190.51 425.72,194.03 C 425.98,194.5 426.48,195.43 426.74,195.9 C 431.14,198.46 435.4,201.27 439.64,204.08 C 439.86,186.53 439.64,168.96 439.73,151.4 C 450.7,151.3 461.63,150.59 472.61,150.82 C 472.74,152.62 472.82,154.43 472.87,156.24 C 468,158.01 463.08,159.65 458.11,161.11 C 455.15,162.45 452.32,164.04 449.54,165.7 C 447.35,168.32 446.71,171.71 446.64,175.03 C 448.23,183.34 454.44,189.93 462.05,193.26 C 460.86,195.95 459.56,198.6 458.19,201.2 C 456.45,204.48 454.74,207.76 453.02,211.05 C 452.43,212.21 451.85,213.37 451.28,214.54 C 456.21,214.27 461.11,213.57 466.05,213.26 C 467.71,209.06 469.54,204.93 471.65,200.94 C 472.34,202.66 473.04,204.38 473.74,206.11 C 474.64,208.18 475.49,210.28 476.28,212.4 C 481.22,213.06 486.16,213.83 491.16,213.66 C 490.41,212.45 489.69,211.24 489,210.01 C 486.59,204.99 484.01,200.06 481.54,195.07 C 486.6,194.18 491.21,191.87 495.95,190.01 C 493.43,185.13 490.48,180.5 487.97,175.63 C 486.05,177.85 484.27,180.49 481.33,181.42 C 474.04,184.32 465.04,184.92 458.37,180.18 C 457.83,177.83 458.4,175.74 460.59,174.54 C 463.96,173.23 467.36,172.01 470.8,170.91 C 474.98,169.64 479.1,168.15 483.06,166.29 C 483.54,165.96 484.49,165.29 484.96,164.96 C 485.34,164.51 486.1,163.61 486.47,163.16 C 486.59,159.24 486.57,155.32 486.56,151.39 C 489.9,151.38 493.25,151.38 496.6,151.4 C 496.67,158.25 496.47,165.12 496.98,171.97 C 496.33,179.59 496.8,187.25 496.55,194.89 C 498.35,196.29 500.24,197.57 502.18,198.79 C 503.15,199.52 504.13,200.25 505.11,201 C 506.83,201.89 508.57,202.76 510.34,203.58 C 510.49,186.18 510.31,168.79 510.44,151.39 C 513.38,151.37 516.33,151.39 519.28,151.51 C 519.39,155.95 518.58,160.39 519.02,164.83 C 519.87,175.12 517.7,185.48 519.48,195.72 C 523.93,198.38 528.27,201.22 532.5,204.23 C 532.72,186.62 532.51,169.01 532.59,151.4 C 533.8,151.4 535.01,151.4 536.23,151.41 C 542.15,151.35 548.04,150.48 553.97,150.89 C 561.79,151.67 569.65,151.25 577.49,151.44 C 577.45,152.72 577.4,154 577.37,155.28 C 572.07,155.22 566.47,155.34 561.98,158.56 C 560.35,157.26 558.67,156.02 556.99,154.79 C 550.8,152.47 542.93,154.62 539.23,160.22 C 536.74,164.05 537.26,168.8 537.67,173.12 C 542.25,184 549.59,193.73 558.61,201.33 C 559.56,201.4 560.52,201.47 561.48,201.56 C 562.25,200.35 564.08,199.31 563.4,197.65 C 562.03,191.73 556.56,188.25 554.04,182.94 C 551.54,178.63 550.88,173.58 551.26,168.69 C 551.83,168.17 552.95,167.13 553.52,166.61 C 554.9,166.56 556.29,166.51 557.68,166.46 C 558.51,170.61 558.24,174.85 558.34,179.05 C 562.75,181.68 567.17,184.29 571.57,186.94 C 571.99,180.58 571.02,174.12 572.32,167.84 C 573.59,167.48 574.87,167.1 576.14,166.7 C 576.48,166.93 577.15,167.39 577.48,167.62 C 577.44,176.82 577.53,186.03 577.48,195.23 C 581.86,198.23 586.42,200.95 590.7,204.1 C 591.13,186.53 590.4,168.95 591.35,151.39 C 595.9,151.38 600.45,151.38 605.01,151.34 C 606.12,151.37 607.24,151.41 608.37,151.45 C 608.77,153.31 609.19,155.17 609.55,157.05 C 609.14,157.6 608.33,158.7 607.92,159.25 C 604.24,160.42 600.4,160.85 596.56,160.69 C 595.61,169.42 600.43,177.61 606.67,183.32 C 613.13,188.96 622.63,189.7 630.34,186.3 C 630.34,189.29 630.35,192.3 630.37,195.3 C 634.82,198.19 639.26,201.12 643.74,203.98 C 643.77,200.93 643.83,197.88 643.79,194.82 L 644.28,194.22 C 644.23,188.18 643.39,182.16 644.04,176.13 C 644.82,167.9 643.13,159.64 644.23,151.43 C 646.65,151.39 649.07,151.37 651.5,151.31 L 651.39,151.46 C 652.2,151.43 653.81,151.38 654.61,151.35 C 654.69,154.67 654.68,158.01 655.22,161.3 C 653.24,162.01 651.29,162.76 649.36,163.58 C 649.25,166.57 648.4,169.99 650.35,172.6 C 653.82,177.47 658.99,182.35 665.46,181.67 C 667.64,179.72 667.9,176.81 668.4,174.11 C 671.01,174.24 673.64,174.3 676.26,174.39 C 676.23,181.47 676.01,188.56 676.42,195.63 C 680.97,198.21 685.27,201.2 689.56,204.2 C 690.42,186.61 690.06,169.01 690.18,151.4 C 693.31,151.36 696.45,151.33 699.58,151.38 C 699.58,147.65 699.56,143.93 699.62,140.21 C 664.11,139.97 628.59,140.2 593.07,140.1 C 586.6,139.54 580.11,139.79 573.63,139.65 C 570.21,136.3 567.02,132.69 563.34,129.62 C 554.42,122.29 544.02,115.13 532,115.15 C 525.12,114.88 517.59,118.39 515.39,125.3 C 514.86,130.07 514.54,135.18 516.65,139.64 C 515.21,139.66 513.77,139.67 512.35,139.68 C 508.24,132.72 503.33,126.19 497.62,120.47 C 496.21,119.21 494.74,117.52 492.69,117.56 C 487.79,117.35 482.93,118.25 478.05,118.6 C 479.07,123.43 480.47,128.17 481.74,132.94 C 486.09,132.18 490.19,130.18 494.67,130.2 C 497.14,133.38 499.62,136.56 502.32,139.57 C 500.87,139.61 499.43,139.65 498,139.72 C 492,139.71 486,139.65 480.01,139.76 C 463.89,140.8 447.75,139.53 431.62,139.69 C 427.41,132.35 422.39,125.51 416.74,119.23 C 414.85,117.34 412.69,115.75 410.29,114.57 C 405.41,115.67 400.36,115.28 395.49,116.4 z"
       id="path7"
       style="opacity:1;fill:#cc0113" />
    <path
       d="M 83.45,130.92 C 87.56,126.76 93.78,126.82 99.14,127.76 C 106.31,129.21 112.1,134.18 116.68,139.64 C 105.89,140.05 95.13,139.73 84.34,139.63 C 83.21,136.85 83.1,133.86 83.45,130.92 z"
       id="path9"
       style="opacity:1;fill:#cc0113" />
    <path
       d="M 528.99,128.63 C 535.48,126.39 542.97,126.84 548.98,130.25 C 553.25,132.58 556.84,135.93 560.06,139.55 C 549.25,139.96 538.45,139.75 527.64,139.69 C 526.51,137.2 526.13,134.49 526.35,131.78 C 527.24,130.74 528.12,129.69 528.99,128.63 z"
       id="path11"
       style="opacity:1;fill:#cc0113" />
    <path
       d="M 236.37,151.34 C 243.56,151.42 250.77,151.56 257.94,150.84 C 263.82,151.29 269.72,151.43 275.63,151.41 C 275.64,152.84 275.66,154.26 275.68,155.68 C 269.05,155.83 262.41,155.64 255.79,155.78 C 252.61,155.85 249.83,157.52 247.13,159.01 C 246.08,160.48 245.03,161.94 243.99,163.42 C 241.23,163.77 238.46,163.92 235.69,163.8 C 236.54,159.7 236.52,155.5 236.37,151.34 z"
       id="path13"
       style="opacity:1;fill:#cc0113" />
    <path
       d="M 619.16,151.38 C 622.9,151.34 626.64,151.38 630.39,151.45 C 630.35,158.05 630.35,164.66 630.38,171.26 C 626.46,173.15 622.65,175.95 618.09,175.67 C 614.91,175.89 611.99,174.54 609.28,173.08 C 610.82,172.37 612.43,171.67 613.99,170.94 C 615.33,169.96 616.67,168.98 618.02,167.99 C 618.37,167.52 619.08,166.59 619.43,166.13 C 621.61,161.42 621.11,156.06 619.16,151.38 z"
       id="path15"
       style="opacity:1;fill:#cc0113" />
    <path
       d="M 412.14,158.97 C 411.74,156.44 411.94,153.89 412.26,151.38 C 416.77,151.34 421.27,151.35 425.78,151.37 C 425.79,157.28 425.96,163.19 425.66,169.1 C 421.6,171.13 417.12,172.06 412.59,171.35 C 412.07,167.24 412.23,163.1 412.14,158.97 z"
       id="path17"
       style="opacity:1;fill:#cc0113" />
    <path
       d="M 667.77,151.42 C 670.59,151.36 673.41,151.38 676.24,151.47 C 676.29,155.22 676.27,158.99 675.59,162.69 L 674.35,161.73 C 672.31,161.95 670.27,162.15 668.25,162.33 C 667.77,158.71 667.76,155.06 667.77,151.42 z"
       id="path19"
       style="opacity:1;fill:#cc0113" />
    <path
       d="M 246.62,394.36 C 268.87,394.22 291.13,394.2 313.38,394.37 C 313.31,404.78 313.31,415.19 313.41,425.6 C 309.1,425.71 304.79,425.73 300.48,425.65 C 300.32,426.22 300,427.36 299.83,427.93 C 300.49,437.17 300.14,446.44 299.72,455.68 C 314.71,456.22 329.7,456.07 344.7,456.09 C 344.95,446.13 344.78,436.18 344.81,426.22 C 340.5,425.38 336.1,425.76 331.74,425.68 C 331.71,415.27 331.7,404.87 331.76,394.47 C 332.28,394.43 333.34,394.34 333.87,394.3 C 353.9,394.24 373.92,394.28 393.95,394.27 C 395.44,394.28 396.93,394.28 398.43,394.3 C 398.37,404.75 398.31,415.2 398.45,425.66 C 394.05,425.66 389.65,425.7 385.25,425.65 C 384.5,456.26 385.03,486.89 384.89,517.51 C 389.38,517.54 393.88,517.52 398.38,517.55 C 398.39,528.57 398.36,539.59 398.39,550.6 C 376.17,550.65 353.96,550.57 331.75,550.51 C 331.7,539.52 331.72,528.52 331.74,517.53 C 336.28,517.53 340.82,517.59 345.36,517.44 C 345.37,511.61 344.43,505.81 344.89,499.98 C 345.24,496.47 345.3,492.94 345.32,489.41 C 334.87,489.26 324.43,488.51 313.99,489 C 309.24,489.39 304.47,489.17 299.72,489.34 C 300.73,497.22 299.62,505.13 299.78,513.03 C 299.77,514.5 299.77,515.98 299.77,517.46 C 304.3,517.56 308.83,517.53 313.36,517.56 C 313.34,528.57 313.35,539.57 313.33,550.57 C 306.19,550.39 299.09,551.36 291.95,551.12 C 281.97,551.12 271.99,551.13 262,551.13 C 256.9,550.63 251.78,550.6 246.65,550.59 C 246.68,539.58 246.66,528.56 246.65,517.54 C 251.02,517.53 255.4,517.52 259.77,517.6 C 260.45,499.08 259.9,480.53 260.08,462 C 260.23,450.1 259.58,438.19 260.13,426.3 C 255.63,425.82 251.12,425.65 246.6,425.54 C 246.7,415.15 246.69,404.75 246.62,394.36 z"
       id="path21"
       style="opacity:1;fill:#cc0113" />
    <path
       d="M 412.4,394.51 C 441.61,394.48 470.82,394.5 500.03,394.5 C 507.35,393.84 514.41,396.21 521.1,398.9 C 522.49,399.52 523.9,400.11 525.32,400.7 C 534.07,405.24 541.88,412.41 545.19,421.9 C 547.79,429.24 548.78,437.2 548.04,444.95 C 547.4,451.1 544.72,456.74 542.18,462.29 L 541.85,462.55 C 538.01,468.95 533.01,474.58 527.16,479.21 C 522.15,482.54 516.72,485.16 511.09,487.24 C 503.53,489.23 495.7,488.24 488.02,489.14 C 480.53,489.29 473.04,489.28 465.56,489.48 C 465.62,498.87 465.6,508.26 465.55,517.66 C 469.91,517.74 474.27,517.71 478.64,517.73 C 480.01,524.48 478.37,531.27 478.94,538.05 C 478.73,542.28 478.51,546.54 479.2,550.75 C 461.48,551.24 443.74,550.51 426.03,551.19 C 421.48,551.21 416.94,551.18 412.39,551.21 C 412.31,540.04 412.29,528.86 412.41,517.69 C 416.81,517.7 421.21,517.72 425.62,517.69 C 425.67,487.21 425.7,456.72 425.6,426.24 C 421.17,426.19 416.72,426.33 412.32,425.79 C 412.42,415.36 412.23,404.93 412.4,394.51 M 465.55,426.22 C 465.61,436.69 465.64,447.17 465.53,457.64 C 476.03,457.9 486.52,457.68 497.02,457.79 C 499.22,458.03 501.18,457 503.08,456.04 C 506.01,453.56 508.68,450.74 510.39,447.26 C 510.81,442.45 510.85,437.54 509.34,432.9 C 506.99,430.7 504.55,428.61 501.92,426.77 C 499.96,426.37 497.96,426.1 495.96,426.15 C 485.82,426.21 475.68,426.12 465.55,426.22 z"
       id="path23"
       style="opacity:1;fill:#cc0113" />
  </g>
  <g
     id="#010269ff">
    <path
       d="M 0.06,0 L 768,0 L 768,979 L 0,979 L 0,0.06 C 0.02,0.05 0.05,0.02 0.06,0 M 17.4,17.13 C 17.42,331.89 17.37,646.65 17.43,961.4 C 261.88,961.4 506.33,961.38 750.78,961.41 C 750.98,862.28 750.81,763.14 750.87,664 C 750.83,448.38 750.94,232.75 750.81,17.13 C 506.34,17.13 261.87,17.11 17.4,17.13 z"
       id="path26"
       style="opacity:1;fill:#010269" />
    <path
       d="M 327.07,313.93 C 366.87,305.59 408.47,305.95 448.08,315.19 C 487.38,324.22 524.51,342.17 556.28,366.95 C 584.68,389.23 608.83,416.96 626.76,448.31 C 653.81,495.34 666.6,550.52 662.75,604.64 C 616.51,602.26 569.56,609.84 526.83,627.84 C 491.66,642.81 459.84,666.12 436.37,696.42 C 410.21,729.74 394.63,770.37 387.35,811.85 C 384.9,824.92 383.61,838.16 382.11,851.35 C 381.03,827.77 376.88,804.35 370.61,781.61 C 359.88,742.75 340.41,705.9 311.97,677.09 C 286.08,650.57 253.22,631.39 218.2,619.65 C 194.58,611.62 169.91,606.89 145.07,604.78 C 132.26,603.96 119.38,603.23 106.56,604.26 C 105.54,582.47 106.23,560.53 110.08,539.03 C 118.52,489.57 140.76,442.57 173.65,404.68 C 213.01,358.72 267.83,326.28 327.07,313.93 M 296.2,334.9 C 248.13,351.66 205.18,382.7 174.04,422.95 C 145.68,459.12 127.28,502.81 120.55,548.24 C 135.76,549.16 150.96,550.71 165.96,553.45 C 204.28,560.15 241.65,574.07 273.7,596.34 C 306.7,619.16 333.92,650.19 352.43,685.78 C 369.73,718.77 379.15,755.54 382,792.59 C 389.76,741.1 406.08,689.72 437.26,647.43 C 459.83,616.4 490.61,591.53 525.53,575.68 C 564.09,557.81 606.78,550.66 649.02,549.6 C 644.34,515.7 632.97,482.77 615.83,453.16 C 597.54,421.47 572.58,393.68 543.17,371.92 C 507.2,345.3 464.4,327.89 419.99,322.2 C 403.44,319.75 386.67,319.84 369.99,320.28 C 344.86,321.54 319.92,326.54 296.2,334.9 z"
       id="path28"
       style="opacity:1;fill:#010269" />
    <path
       d="M 619.93,615.95 C 633.82,614.59 647.77,614.5 661.7,614.86 C 661.48,623.95 659.55,632.91 657.9,641.83 C 644.6,709.25 604.85,770.88 549.3,811.25 C 534.81,822.04 519.1,831.11 502.83,838.92 C 468.24,854.97 430.39,864.03 392.25,864.92 C 394.08,823.34 401.7,781.42 419.69,743.64 C 435.69,709.66 460.69,679.84 491.93,658.9 C 529.67,633.22 574.77,619.99 619.93,615.95 M 502.15,699.87 C 482.65,710.52 465.48,725.23 451.6,742.55 C 426.32,774.22 411.82,813.13 403.71,852.49 C 440.99,849.88 477.72,839.39 510.62,821.64 C 567.17,791.54 612.12,740.33 634.56,680.31 C 589.91,673.8 542.22,677.8 502.15,699.87 z"
       id="path30"
       style="opacity:1;fill:#010269" />
    <path
       d="M 107.39,614.65 C 150.29,612.97 193.73,620.1 233.38,636.73 C 268.09,651.45 299.48,674.69 322.06,705.04 C 345.88,736.46 359.94,774.34 366.95,812.89 C 370.04,830.04 371.82,847.4 372.59,864.79 C 331,863.03 289.81,851.84 253.16,832.06 C 221.13,814.98 192.58,791.44 169.5,763.44 C 134.7,721.42 112.84,668.93 107.39,614.65 M 134.95,680.02 C 154.66,733.77 192.82,780.36 240.99,811.17 C 275.94,833.57 316.22,847.75 357.57,851.72 C 355.58,825.15 350.39,798.37 338.45,774.37 C 329.37,755.93 315.78,740.01 300,726.97 C 286.06,715.61 271.75,704.47 255.74,696.14 C 237.57,686.46 217.48,680.4 196.99,678.37 C 176.34,675.82 155.51,677.62 134.95,680.02 z"
       id="path32"
       style="opacity:1;fill:#010269" />
  </g>
  <g
     id="#fdfdfdff">
    <path
       d="M 17.4,17.13 C 261.87,17.11 506.34,17.13 750.81,17.13 C 750.94,232.75 750.83,448.38 750.87,664 C 750.81,763.14 750.98,862.28 750.78,961.41 C 506.33,961.38 261.88,961.4 17.43,961.4 C 17.37,646.65 17.42,331.89 17.4,17.13 M 43.44,233.39 C 170.96,233.44 298.48,233.55 426,233.74 C 445.66,233.85 465.33,233.44 484.98,234.11 C 535.33,234.07 585.68,234.17 636.04,234.15 C 644.37,234.06 652.71,234.48 661.03,233.74 C 670.68,234.88 680.36,233.35 690.02,234.07 C 695.67,233.49 701.33,234.61 706.98,233.94 C 713.08,233.35 719.22,234.87 725.28,233.55 C 725.33,228.64 724.55,223.76 724.76,218.85 C 725.58,207.92 725.04,196.95 725.2,186 C 725.14,166.35 725.3,146.69 725.12,127.04 C 724.05,120.59 725.86,114.09 724.56,107.68 C 718.7,108.32 712.81,108.29 706.95,107.84 C 695.31,107.89 683.66,107.57 672.03,108.09 C 663.29,107.41 654.54,108.22 645.8,107.81 C 641.87,107.73 637.95,108.42 634.03,107.99 C 624.7,107.55 615.35,107.88 606.03,108.16 C 599.71,107.35 593.38,108.56 587.06,107.91 C 578.99,107.39 570.93,108.48 562.88,107.87 C 556.57,108.21 550.25,108.38 543.94,107.91 C 525.98,108.53 507.99,107.17 490.02,108.18 C 483.35,108.52 476.69,107.42 470.03,108.09 C 466.03,108.38 462.04,107.73 458.05,107.8 C 450.69,107.64 443.34,108.62 435.99,108.02 C 431.29,107.58 426.57,107.93 421.87,108.11 C 414.91,107.7 407.93,107.74 400.97,107.91 C 394.7,108.52 388.43,107.33 382.16,108.09 C 375.45,107.53 368.74,108.57 362.02,108.02 C 353.37,107.34 344.71,108.53 336.05,107.81 C 325.06,108.73 314.04,107.14 303.04,108.13 C 296.3,107.52 289.57,108.22 282.84,108.09 C 275.22,107.22 267.6,108.73 259.99,107.87 C 249.32,107.76 238.65,107.84 227.99,107.85 C 225.66,108.08 223.33,108.19 220.99,108.22 C 209.67,107.83 198.35,107.8 187.02,107.83 C 176.7,108.64 166.38,107.47 156.05,107.8 C 143.67,108.25 131.32,107.7 118.94,108.14 C 109.97,107.6 100.96,107.65 91.98,108.13 C 75.84,107.44 59.67,108 43.52,107.78 C 43.3,149.65 43.46,191.52 43.44,233.39 M 327.07,313.93 C 267.83,326.28 213.01,358.72 173.65,404.68 C 140.76,442.57 118.52,489.57 110.08,539.03 C 106.23,560.53 105.54,582.47 106.56,604.26 C 119.38,603.23 132.26,603.96 145.07,604.78 C 169.91,606.89 194.58,611.62 218.2,619.65 C 253.22,631.39 286.08,650.57 311.97,677.09 C 340.41,705.9 359.88,742.75 370.61,781.61 C 376.88,804.35 381.03,827.77 382.11,851.35 C 383.61,838.16 384.9,824.92 387.35,811.85 C 394.63,770.37 410.21,729.74 436.37,696.42 C 459.84,666.12 491.66,642.81 526.83,627.84 C 569.56,609.84 616.51,602.26 662.75,604.64 C 666.6,550.52 653.81,495.34 626.76,448.31 C 608.83,416.96 584.68,389.23 556.28,366.95 C 524.51,342.17 487.38,324.22 448.08,315.19 C 408.47,305.95 366.87,305.59 327.07,313.93 M 619.93,615.95 C 574.77,619.99 529.67,633.22 491.93,658.9 C 460.69,679.84 435.69,709.66 419.69,743.64 C 401.7,781.42 394.08,823.34 392.25,864.92 C 430.39,864.03 468.24,854.97 502.83,838.92 C 519.1,831.11 534.81,822.04 549.3,811.25 C 604.85,770.88 644.6,709.25 657.9,641.83 C 659.55,632.91 661.48,623.95 661.7,614.86 C 647.77,614.5 633.82,614.59 619.93,615.95 M 107.39,614.65 C 112.84,668.93 134.7,721.42 169.5,763.44 C 192.58,791.44 221.13,814.98 253.16,832.06 C 289.81,851.84 331,863.03 372.59,864.79 C 371.82,847.4 370.04,830.04 366.95,812.89 C 359.94,774.34 345.88,736.46 322.06,705.04 C 299.48,674.69 268.09,651.45 233.38,636.73 C 193.73,620.1 150.29,612.97 107.39,614.65 z"
       id="path35"
       style="opacity:1;fill:#fdfdfd" />
    <path
       d="M 75.31,120.29 C 78.71,116.41 84.01,115.11 88.99,115.16 C 94.21,115.18 99.24,116.62 103.99,118.69 C 110.52,121.96 116.35,126.38 121.92,131.06 C 124.76,133.77 127.61,136.49 130.04,139.58 C 136.03,139.79 142.03,139.53 148,140.1 C 221.29,140.12 294.59,140.11 367.88,140.11 C 367.88,143.85 367.87,147.6 367.83,151.35 C 364.68,151.33 361.53,151.34 358.39,151.39 C 358.35,168.98 358.46,186.57 358.33,204.16 C 353.98,201.46 349.83,198.42 345.39,195.87 C 343.78,189.04 344.96,181.91 344.64,174.95 C 344.6,173.87 344.57,172.8 344.54,171.72 C 341.76,171.74 338.98,171.73 336.2,171.73 C 335.91,174.94 336.29,178.43 334.48,181.28 C 333.8,181.59 332.43,182.21 331.75,182.52 C 328.58,182.2 325.97,180.42 323.74,178.28 C 320.01,173.86 315.76,168.82 316.37,162.64 C 317.93,161.25 319.6,159.56 321.88,159.68 C 329.46,159.54 337.05,159.65 344.63,159.66 C 344.62,156.9 344.62,154.15 344.61,151.4 C 333.51,151.7 322.46,150.73 311.37,150.83 C 310.31,168.6 311.97,186.44 310.64,204.2 C 306.45,200.92 301.92,198.12 297.43,195.29 C 297.33,180.67 297.39,166.06 297.41,151.44 C 294.72,151.4 292.05,151.39 289.37,151.41 C 289.34,164.98 289.32,178.55 289.34,192.13 C 289.31,196.09 289.57,200.09 288.75,204.01 C 284.51,200.85 279.97,198.11 275.6,195.14 C 275.65,186.02 275.69,176.91 275.54,167.79 C 268.97,168.49 262.35,167.78 255.79,168.58 C 253.58,173.5 255.75,178.75 258.26,183.09 C 260.37,186.6 262.76,189.95 265.43,193.06 C 266.06,195.24 266.53,197.46 266.87,199.71 C 265.62,200.56 264.39,201.43 263.17,202.31 C 262.86,202.38 262.22,202.52 261.91,202.59 C 255.1,194.16 248.02,185.68 243.89,175.54 C 240.72,174.97 237.58,174.23 234.65,172.88 C 233.61,172.29 232.47,172.44 231.37,172.7 C 229.99,174.17 228.5,175.53 227,176.86 C 233.46,184.19 239.69,192.03 248.35,196.91 C 245.16,198.51 242.01,200.17 238.83,201.78 C 231.29,194.42 224.02,186.7 217.94,178.07 C 214.57,173.73 212.02,168.35 213.52,162.75 C 216.05,161.2 218.89,160.34 221.87,160.39 C 221.87,157.39 221.88,154.39 221.86,151.39 C 215.37,151.36 208.89,151.37 202.4,151.38 C 202.41,156.05 202.41,160.72 202.39,165.4 C 194.85,165.43 187.32,165.38 179.78,165.42 C 179.21,165.79 178.06,166.52 177.48,166.88 C 176.62,169.89 176.15,173.01 176.44,176.14 C 180.12,178.12 184.25,178.76 188.4,178.68 C 188.96,174.71 190.12,169.85 194.42,168.42 C 197.38,166.88 200.51,168.38 203.27,169.58 C 205.59,172.61 207.13,176.2 206.36,180.08 C 205.94,181.13 205.54,182.18 205.16,183.25 C 204.33,184.32 203.5,185.39 202.66,186.45 C 205.94,189.98 209.01,193.7 212.38,197.14 C 212.36,197.65 212.33,198.66 212.31,199.16 C 213.04,200.39 213.75,201.62 214.48,202.85 C 215.58,208.98 213.75,215.8 208.35,219.38 C 198.66,225.87 186.07,223.93 176,219.39 C 169.71,215.84 162.54,212.78 158.65,206.32 C 158.63,205.49 158.61,204.67 158.59,203.84 C 160.88,202.07 163.18,200.3 165.38,198.4 C 166.4,200.98 166.55,204.38 169.3,205.81 C 177.79,211.49 189.09,213.65 198.8,210.09 C 199.75,209.16 200.7,208.24 201.67,207.34 C 201.77,205.99 201.86,204.64 201.94,203.3 C 200.93,203.3 198.91,203.32 197.9,203.33 C 196.67,204.31 195.43,205.3 194.2,206.29 C 191.79,206.82 189.41,207.47 187,207.99 C 184.9,205.22 182.71,202.5 180.86,199.56 C 180.59,199.52 180.05,199.46 179.78,199.42 C 185.12,196.1 191.08,193.66 197.43,193.37 C 196.9,192.68 195.84,191.29 195.3,190.6 C 189.87,190.91 184.21,191.28 179.09,189.07 C 175.62,186.91 172.06,184.66 169.69,181.24 C 167.47,178.52 166.81,175 165.32,171.91 C 163.67,171.7 162.01,171.71 160.36,171.64 C 160.28,174.83 160.04,178.03 159.31,181.14 C 156.8,181.69 153.98,183.13 151.65,181.3 C 146.75,177.79 142.84,172.75 140.79,167.06 C 140.06,165.18 140.96,163.23 141.3,161.38 C 143.08,160.55 144.9,159.58 146.92,159.64 C 154.32,159.47 161.74,159.88 169.14,159.42 C 169.27,158.77 169.52,157.47 169.65,156.82 C 171.85,155.34 174.01,153.31 176.84,153.36 C 180.6,153.18 184.37,153.29 188.14,153.3 C 188.72,152.9 189.87,152.09 190.45,151.69 C 177,150.77 163.52,150.74 150.05,150.92 C 144.56,151.58 139.02,151.35 133.51,151.4 C 133.53,155.49 133.52,159.58 133.53,163.67 C 124.59,163.97 115.62,163.57 106.71,164.14 C 114.37,166.37 122.73,163.44 130.16,166.57 C 133.69,169.65 138.84,172.57 138.71,177.91 C 139.33,183.28 135.26,187.48 131.45,190.62 C 129.45,192.34 126.77,192.73 124.23,192.88 C 122.27,190.39 120.21,187.98 118.16,185.56 C 118.38,184.7 118.62,183.84 118.87,182.99 C 120.43,178.57 125.73,179.51 128.89,176.98 C 123.96,175.39 118.8,175.77 113.8,176.72 C 112.72,177.64 111.65,178.57 110.59,179.51 C 110.6,181.11 110.61,182.71 110.61,184.32 C 113.62,190.02 119.4,193.25 124.99,195.95 C 125.84,197.46 126.72,198.95 127.7,200.39 C 127.87,202.37 126.46,204.18 124.55,204.58 C 122.19,204.27 120.19,202.75 118.07,201.77 C 110.39,197.89 103.01,193.01 97.96,185.88 C 97.06,183.35 96.01,180.76 96.22,178.02 C 96.17,174.39 98.86,171.63 100.94,168.95 C 100.4,168.09 99.86,167.22 99.33,166.35 L 98.61,166.49 C 97.84,164.4 96.73,162.37 96.53,160.12 C 96.66,157.18 98.13,154.21 100.64,152.6 C 107.64,150.75 115.09,153.06 122.09,151.22 C 111.26,150.55 100.37,150.97 89.52,150.86 C 89.46,168.58 89.62,186.3 89.43,204.01 C 86.63,202.34 83.88,200.59 81.12,198.84 C 79.11,197.21 75.57,196.25 75.8,193.08 C 75.76,179.17 75.89,165.26 75.72,151.35 C 73.37,151.33 71.03,151.34 68.69,151.36 C 68.65,147.48 68.68,143.6 68.72,139.72 C 70.32,139.67 71.91,139.63 73.51,139.59 C 70.4,133.6 70.2,125.27 75.31,120.29 M 83.45,130.92 C 83.1,133.86 83.21,136.85 84.34,139.63 C 95.13,139.73 105.89,140.05 116.68,139.64 C 112.1,134.18 106.31,129.21 99.14,127.76 C 93.78,126.82 87.56,126.76 83.45,130.92 M 236.37,151.34 C 236.52,155.5 236.54,159.7 235.69,163.8 C 238.46,163.92 241.23,163.77 243.99,163.42 C 245.03,161.94 246.08,160.48 247.13,159.01 C 249.83,157.52 252.61,155.85 255.79,155.78 C 262.41,155.64 269.05,155.83 275.68,155.68 C 275.66,154.26 275.64,152.84 275.63,151.41 C 269.72,151.43 263.82,151.29 257.94,150.84 C 250.77,151.56 243.56,151.42 236.37,151.34 z"
       id="path37"
       style="opacity:1;fill:#fdfdfd" />
    <path
       d="M 395.49,116.4 C 400.36,115.28 405.41,115.67 410.29,114.57 C 412.69,115.75 414.85,117.34 416.74,119.23 C 422.39,125.51 427.41,132.35 431.62,139.69 C 447.75,139.53 463.89,140.8 480.01,139.76 C 486,139.65 492,139.71 498,139.72 C 499.43,139.65 500.87,139.61 502.32,139.57 C 499.62,136.56 497.14,133.38 494.67,130.2 C 490.19,130.18 486.09,132.18 481.74,132.94 C 480.47,128.17 479.07,123.43 478.05,118.6 C 482.93,118.25 487.79,117.35 492.69,117.56 C 494.74,117.52 496.21,119.21 497.62,120.47 C 503.33,126.19 508.24,132.72 512.35,139.68 C 513.77,139.67 515.21,139.66 516.65,139.64 C 514.54,135.18 514.86,130.07 515.39,125.3 C 517.59,118.39 525.12,114.88 532,115.15 C 544.02,115.13 554.42,122.29 563.34,129.62 C 567.02,132.69 570.21,136.3 573.63,139.65 C 580.11,139.79 586.6,139.54 593.07,140.1 C 628.59,140.2 664.11,139.97 699.62,140.21 C 699.56,143.93 699.58,147.65 699.58,151.38 C 696.45,151.33 693.31,151.36 690.18,151.4 C 690.06,169.01 690.42,186.61 689.56,204.2 C 685.27,201.2 680.97,198.21 676.42,195.63 C 676.01,188.56 676.23,181.47 676.26,174.39 C 673.64,174.3 671.01,174.24 668.4,174.11 C 667.9,176.81 667.64,179.72 665.46,181.67 C 658.99,182.35 653.82,177.47 650.35,172.6 C 648.4,169.99 649.25,166.57 649.36,163.58 C 651.29,162.76 653.24,162.01 655.22,161.3 C 654.68,158.01 654.69,154.67 654.61,151.35 C 653.81,151.38 652.2,151.43 651.39,151.46 L 651.5,151.31 C 649.07,151.37 646.65,151.39 644.23,151.43 C 643.13,159.64 644.82,167.9 644.04,176.13 C 643.39,182.16 644.23,188.18 644.28,194.22 L 643.79,194.82 C 643.83,197.88 643.77,200.93 643.74,203.98 C 639.26,201.12 634.82,198.19 630.37,195.3 C 630.35,192.3 630.34,189.29 630.34,186.3 C 622.63,189.7 613.13,188.96 606.67,183.32 C 600.43,177.61 595.61,169.42 596.56,160.69 C 600.4,160.85 604.24,160.42 607.92,159.25 C 608.33,158.7 609.14,157.6 609.55,157.05 C 609.19,155.17 608.77,153.31 608.37,151.45 C 607.24,151.41 606.12,151.37 605.01,151.34 C 600.45,151.38 595.9,151.38 591.35,151.39 C 590.4,168.95 591.13,186.53 590.7,204.1 C 586.42,200.95 581.86,198.23 577.48,195.23 C 577.53,186.03 577.44,176.82 577.48,167.62 C 577.15,167.39 576.48,166.93 576.14,166.7 C 574.87,167.1 573.59,167.48 572.32,167.84 C 571.02,174.12 571.99,180.58 571.57,186.94 C 567.17,184.29 562.75,181.68 558.34,179.05 C 558.24,174.85 558.51,170.61 557.68,166.46 C 556.29,166.51 554.9,166.56 553.52,166.61 C 552.95,167.13 551.83,168.17 551.26,168.69 C 550.88,173.58 551.54,178.63 554.04,182.94 C 556.56,188.25 562.03,191.73 563.4,197.65 C 564.08,199.31 562.25,200.35 561.48,201.56 C 560.52,201.47 559.56,201.4 558.61,201.33 C 549.59,193.73 542.25,184 537.67,173.12 C 537.26,168.8 536.74,164.05 539.23,160.22 C 542.93,154.62 550.8,152.47 556.99,154.79 C 558.67,156.02 560.35,157.26 561.98,158.56 C 566.47,155.34 572.07,155.22 577.37,155.28 C 577.4,154 577.45,152.72 577.49,151.44 C 569.65,151.25 561.79,151.67 553.97,150.89 C 548.04,150.48 542.15,151.35 536.23,151.41 C 535.01,151.4 533.8,151.4 532.59,151.4 C 532.51,169.01 532.72,186.62 532.5,204.23 C 528.27,201.22 523.93,198.38 519.48,195.72 C 517.7,185.48 519.87,175.12 519.02,164.83 C 518.58,160.39 519.39,155.95 519.28,151.51 C 516.33,151.39 513.38,151.37 510.44,151.39 C 510.31,168.79 510.49,186.18 510.34,203.58 C 508.57,202.76 506.83,201.89 505.11,201 C 504.13,200.25 503.15,199.52 502.18,198.79 C 500.24,197.57 498.35,196.29 496.55,194.89 C 496.8,187.25 496.33,179.59 496.98,171.97 C 496.47,165.12 496.67,158.25 496.6,151.4 C 493.25,151.38 489.9,151.38 486.56,151.39 C 486.57,155.32 486.59,159.24 486.47,163.16 C 486.1,163.61 485.34,164.51 484.96,164.96 C 484.49,165.29 483.54,165.96 483.06,166.29 C 479.1,168.15 474.98,169.64 470.8,170.91 C 467.36,172.01 463.96,173.23 460.59,174.54 C 458.4,175.74 457.83,177.83 458.37,180.18 C 465.04,184.92 474.04,184.32 481.33,181.42 C 484.27,180.49 486.05,177.85 487.97,175.63 C 490.48,180.5 493.43,185.13 495.95,190.01 C 491.21,191.87 486.6,194.18 481.54,195.07 C 484.01,200.06 486.59,204.99 489,210.01 C 489.69,211.24 490.41,212.45 491.16,213.66 C 486.16,213.83 481.22,213.06 476.28,212.4 C 475.49,210.28 474.64,208.18 473.74,206.11 C 473.04,204.38 472.34,202.66 471.65,200.94 C 469.54,204.93 467.71,209.06 466.05,213.26 C 461.11,213.57 456.21,214.27 451.28,214.54 C 451.85,213.37 452.43,212.21 453.02,211.05 C 454.74,207.76 456.45,204.48 458.19,201.2 C 459.56,198.6 460.86,195.95 462.05,193.26 C 454.44,189.93 448.23,183.34 446.64,175.03 C 446.71,171.71 447.35,168.32 449.54,165.7 C 452.32,164.04 455.15,162.45 458.11,161.11 C 463.08,159.65 468,158.01 472.87,156.24 C 472.82,154.43 472.74,152.62 472.61,150.82 C 461.63,150.59 450.7,151.3 439.73,151.4 C 439.64,168.96 439.86,186.53 439.64,204.08 C 435.4,201.27 431.14,198.46 426.74,195.9 C 426.48,195.43 425.98,194.5 425.72,194.03 C 426.14,190.51 426.3,186.96 425.75,183.45 C 421.88,183.92 417.93,184.17 414.12,183.2 C 409.1,180.25 404.72,176.28 401.42,171.47 C 396.86,165.73 399.23,157.99 398.64,151.28 C 397.89,151.33 396.38,151.43 395.63,151.48 C 394.69,151.12 393.76,150.75 392.84,150.38 C 392.85,147.02 392.86,143.66 392.82,140.3 C 401.76,140.04 410.7,140.13 419.64,139.65 C 420.26,139.62 421.49,139.58 422.11,139.55 C 418.6,135.64 415.45,131.44 412.01,127.48 C 409.98,127.89 407.95,128.36 405.93,128.82 C 403.84,129.54 401.72,130.16 399.6,130.78 C 398.73,127.84 397.88,124.89 397.15,121.91 C 396.58,120.08 396.04,118.23 395.49,116.4 M 528.99,128.63 C 528.12,129.69 527.24,130.74 526.35,131.78 C 526.13,134.49 526.51,137.2 527.64,139.69 C 538.45,139.75 549.25,139.96 560.06,139.55 C 556.84,135.93 553.25,132.58 548.98,130.25 C 542.97,126.84 535.48,126.39 528.99,128.63 M 619.16,151.38 C 621.11,156.06 621.61,161.42 619.43,166.13 C 619.08,166.59 618.37,167.52 618.02,167.99 C 616.67,168.98 615.33,169.96 613.99,170.94 C 612.43,171.67 610.82,172.37 609.28,173.08 C 611.99,174.54 614.91,175.89 618.09,175.67 C 622.65,175.95 626.46,173.15 630.38,171.26 C 630.35,164.66 630.35,158.05 630.39,151.45 C 626.64,151.38 622.9,151.34 619.16,151.38 M 412.14,158.97 C 412.23,163.1 412.07,167.24 412.59,171.35 C 417.12,172.06 421.6,171.13 425.66,169.1 C 425.96,163.19 425.79,157.28 425.78,151.37 C 421.27,151.35 416.77,151.34 412.26,151.38 C 411.94,153.89 411.74,156.44 412.14,158.97 M 667.77,151.42 C 667.76,155.06 667.77,158.71 668.25,162.33 C 670.27,162.15 672.31,161.95 674.35,161.73 L 675.59,162.69 C 676.27,158.99 676.29,155.22 676.24,151.47 C 673.41,151.38 670.59,151.36 667.77,151.42 z"
       id="path39"
       style="opacity:1;fill:#fdfdfd" />
    <path
       d="M 296.2,334.9 C 319.92,326.54 344.86,321.54 369.99,320.28 C 386.67,319.84 403.44,319.75 419.99,322.2 C 464.4,327.89 507.2,345.3 543.17,371.92 C 572.58,393.68 597.54,421.47 615.83,453.16 C 632.97,482.77 644.34,515.7 649.02,549.6 C 606.78,550.66 564.09,557.81 525.53,575.68 C 490.61,591.53 459.83,616.4 437.26,647.43 C 406.08,689.72 389.76,741.1 382,792.59 C 379.15,755.54 369.73,718.77 352.43,685.78 C 333.92,650.19 306.7,619.16 273.7,596.34 C 241.65,574.07 204.28,560.15 165.96,553.45 C 150.96,550.71 135.76,549.16 120.55,548.24 C 127.28,502.81 145.68,459.12 174.04,422.95 C 205.18,382.7 248.13,351.66 296.2,334.9 M 246.62,394.36 C 246.69,404.75 246.7,415.15 246.6,425.54 C 251.12,425.65 255.63,425.82 260.13,426.3 C 259.58,438.19 260.23,450.1 260.08,462 C 259.9,480.53 260.45,499.08 259.77,517.6 C 255.4,517.52 251.02,517.53 246.65,517.54 C 246.66,528.56 246.68,539.58 246.65,550.59 C 251.78,550.6 256.9,550.63 262,551.13 C 271.99,551.13 281.97,551.12 291.95,551.12 C 299.09,551.36 306.19,550.39 313.33,550.57 C 313.35,539.57 313.34,528.57 313.36,517.56 C 308.83,517.53 304.3,517.56 299.77,517.46 C 299.77,515.98 299.77,514.5 299.78,513.03 C 299.62,505.13 300.73,497.22 299.72,489.34 C 304.47,489.17 309.24,489.39 313.99,489 C 324.43,488.51 334.87,489.26 345.32,489.41 C 345.3,492.94 345.24,496.47 344.89,499.98 C 344.43,505.81 345.37,511.61 345.36,517.44 C 340.82,517.59 336.28,517.53 331.74,517.53 C 331.72,528.52 331.7,539.52 331.75,550.51 C 353.96,550.57 376.17,550.65 398.39,550.6 C 398.36,539.59 398.39,528.57 398.38,517.55 C 393.88,517.52 389.38,517.54 384.89,517.51 C 385.03,486.89 384.5,456.26 385.25,425.65 C 389.65,425.7 394.05,425.66 398.45,425.66 C 398.31,415.2 398.37,404.75 398.43,394.3 C 396.93,394.28 395.44,394.28 393.95,394.27 C 373.92,394.28 353.9,394.24 333.87,394.3 C 333.34,394.34 332.28,394.43 331.76,394.47 C 331.7,404.87 331.71,415.27 331.74,425.68 C 336.1,425.76 340.5,425.38 344.81,426.22 C 344.78,436.18 344.95,446.13 344.7,456.09 C 329.7,456.07 314.71,456.22 299.72,455.68 C 300.14,446.44 300.49,437.17 299.83,427.93 C 300,427.36 300.32,426.22 300.48,425.65 C 304.79,425.73 309.1,425.71 313.41,425.6 C 313.31,415.19 313.31,404.78 313.38,394.37 C 291.13,394.2 268.87,394.22 246.62,394.36 M 412.4,394.51 C 412.23,404.93 412.42,415.36 412.32,425.79 C 416.72,426.33 421.17,426.19 425.6,426.24 C 425.7,456.72 425.67,487.21 425.62,517.69 C 421.21,517.72 416.81,517.7 412.41,517.69 C 412.29,528.86 412.31,540.04 412.39,551.21 C 416.94,551.18 421.48,551.21 426.03,551.19 C 443.74,550.51 461.48,551.24 479.2,550.75 C 478.51,546.54 478.73,542.28 478.94,538.05 C 478.37,531.27 480.01,524.48 478.64,517.73 C 474.27,517.71 469.91,517.74 465.55,517.66 C 465.6,508.26 465.62,498.87 465.56,489.48 C 473.04,489.28 480.53,489.29 488.02,489.14 C 495.7,488.24 503.53,489.23 511.09,487.24 C 516.72,485.16 522.15,482.54 527.16,479.21 C 533.01,474.58 538.01,468.95 541.85,462.55 L 542.18,462.29 C 544.72,456.74 547.4,451.1 548.04,444.95 C 548.78,437.2 547.79,429.24 545.19,421.9 C 541.88,412.41 534.07,405.24 525.32,400.7 C 523.9,400.11 522.49,399.52 521.1,398.9 C 514.41,396.21 507.35,393.84 500.03,394.5 C 470.82,394.5 441.61,394.48 412.4,394.51 z"
       id="path41"
       style="opacity:1;fill:#fdfdfd" />
    <path
       d="M 465.55,426.22 C 475.68,426.12 485.82,426.21 495.96,426.15 C 497.96,426.1 499.96,426.37 501.92,426.77 C 504.55,428.61 506.99,430.7 509.34,432.9 C 510.85,437.54 510.81,442.45 510.39,447.26 C 508.68,450.74 506.01,453.56 503.08,456.04 C 501.18,457 499.22,458.03 497.02,457.79 C 486.52,457.68 476.03,457.9 465.53,457.64 C 465.64,447.17 465.61,436.69 465.55,426.22 z"
       id="path43"
       style="opacity:1;fill:#fdfdfd" />
    <path
       d="M 134.95,680.02 C 155.51,677.62 176.34,675.82 196.99,678.37 C 217.48,680.4 237.57,686.46 255.74,696.14 C 271.75,704.47 286.06,715.61 300,726.97 C 315.78,740.01 329.37,755.93 338.45,774.37 C 350.39,798.37 355.58,825.15 357.57,851.72 C 316.22,847.75 275.94,833.57 240.99,811.17 C 192.82,780.36 154.66,733.77 134.95,680.02 z"
       id="path45"
       style="opacity:1;fill:#fdfdfd" />
    <path
       d="M 502.15,699.87 C 542.22,677.8 589.91,673.8 634.56,680.31 C 612.12,740.33 567.17,791.54 510.62,821.64 C 477.72,839.39 440.99,849.88 403.71,852.49 C 411.82,813.13 426.32,774.22 451.6,742.55 C 465.48,725.23 482.65,710.52 502.15,699.87 z"
       id="path47"
       style="opacity:1;fill:#fdfdfd" />
  </g>
</svg>
