<?xml version="1.0" encoding="UTF-8" ?>
<!DOCTYPE svg PUBLIC "-//W3C//DTD SVG 1.1//EN" "http://www.w3.org/Graphics/SVG/1.1/DTD/svg11.dtd">
<svg width="333pt" height="169pt" viewBox="0 0 756 383" version="1.1" xmlns="http://www.w3.org/2000/svg">
<g id="#ffffffff">
</g>
<g id="#000000ff">
<path fill="#000000" opacity="1.00" d=" M 3.01 2.25 C 29.01 2.26 55.01 2.25 81.01 2.26 C 94.36 2.37 107.83 7.16 117.60 16.38 C 125.71 23.90 130.87 34.79 130.52 45.95 C 130.84 56.07 127.66 66.41 121.12 74.22 C 115.91 80.63 108.61 85.02 100.89 87.74 C 108.96 90.04 116.73 94.50 121.50 101.58 C 125.26 106.90 126.68 113.49 126.74 119.92 C 126.75 131.78 126.76 143.64 126.73 155.50 C 115.74 155.48 104.75 155.50 93.76 155.49 C 93.74 145.97 93.78 136.45 93.75 126.93 C 93.52 120.13 91.97 112.88 87.05 107.88 C 81.84 102.67 74.17 101.10 67.07 100.78 C 59.63 100.69 52.20 100.77 44.76 100.75 C 44.79 91.90 44.68 83.06 44.82 74.21 C 55.54 74.31 66.26 74.22 76.98 74.26 C 84.47 74.25 91.70 69.62 94.88 62.83 C 99.23 53.89 97.92 41.62 90.03 35.02 C 85.56 31.36 79.65 29.96 73.97 29.99 C 60.72 30.02 47.48 29.98 34.24 30.01 C 34.25 62.67 34.24 95.33 34.24 128.00 C 23.83 128.00 13.41 128.00 3.00 128.00 C 3.00 86.08 2.99 44.17 3.01 2.25 Z" />
<path fill="#000000" opacity="1.00" d=" M 398.01 2.25 C 408.75 2.26 419.49 2.26 430.24 2.25 C 430.24 35.25 430.25 68.25 430.24 101.25 C 438.49 101.26 446.74 101.25 455.00 101.26 C 465.55 101.41 475.05 92.39 476.06 82.00 C 477.80 71.05 470.27 59.10 459.11 57.14 C 453.20 56.30 447.20 56.94 441.26 56.75 C 441.25 47.83 441.26 38.92 441.25 30.01 C 448.17 29.98 455.09 30.02 462.01 29.99 C 476.52 29.69 490.70 37.28 499.20 48.93 C 507.74 60.49 510.59 75.78 507.80 89.78 C 503.86 107.27 488.87 120.57 472.10 125.65 C 463.67 128.40 454.70 128.29 445.94 128.24 C 429.96 128.24 413.98 128.24 398.00 128.24 C 398.00 86.24 397.99 44.25 398.01 2.25 Z" />
<path fill="#000000" opacity="1.00" d=" M 651.25 2.26 C 662.08 2.25 672.91 2.25 683.75 2.26 C 683.75 22.25 683.74 42.25 683.75 62.25 C 690.53 62.01 697.41 62.85 704.13 61.61 C 710.43 60.31 715.53 55.46 717.71 49.49 C 720.31 43.24 720.12 36.34 720.34 29.71 C 730.98 29.82 741.62 29.72 752.27 29.76 C 752.00 40.12 752.09 51.18 746.68 60.41 C 742.05 68.47 733.31 72.93 724.77 75.68 C 734.88 78.52 744.72 84.62 749.24 94.45 C 754.50 104.87 752.69 116.78 753.00 128.00 C 742.25 128.00 731.50 128.00 720.76 128.00 C 720.14 118.71 722.67 108.55 717.67 100.09 C 713.81 93.10 705.74 89.58 698.05 89.08 C 693.29 88.88 688.51 89.06 683.75 89.00 C 683.74 102.00 683.74 115.00 683.75 127.99 C 672.91 128.00 662.08 128.00 651.25 127.99 C 651.26 86.08 651.25 44.17 651.25 2.26 Z" />
<path fill="#000000" opacity="1.00" d=" M 564.57 29.67 C 580.50 26.87 597.67 28.27 612.11 35.96 C 623.13 41.82 631.75 52.06 635.29 64.06 C 639.65 78.89 637.88 95.90 628.86 108.69 C 621.26 119.68 609.00 126.80 596.11 129.69 C 581.08 133.02 564.84 131.97 550.81 125.38 C 537.35 119.13 526.37 107.09 522.70 92.56 C 518.93 77.59 521.76 60.69 531.47 48.49 C 539.60 38.28 551.86 31.98 564.57 29.67 M 572.51 54.60 C 560.91 57.50 552.29 69.17 553.12 81.13 C 553.59 89.65 558.49 97.83 565.87 102.15 C 573.19 106.72 582.78 107.14 590.52 103.34 C 602.43 97.84 608.66 82.73 603.66 70.51 C 599.28 58.30 584.98 50.93 572.51 54.60 Z" />
<path fill="#000000" opacity="1.00" d=" M 148.94 52.84 C 157.40 39.22 172.87 30.29 188.93 30.03 C 209.79 29.96 230.64 30.02 251.49 30.00 C 251.34 39.57 251.80 49.21 251.27 58.72 C 244.48 69.52 237.53 80.23 230.69 91.00 C 220.33 90.97 209.98 91.05 199.63 90.96 C 206.48 79.57 213.36 68.19 220.12 56.75 C 211.76 56.73 203.40 56.77 195.03 56.73 C 187.47 56.48 180.14 60.86 176.24 67.25 C 171.56 74.67 171.84 84.90 177.04 92.00 C 181.23 98.10 188.60 101.64 195.95 101.51 C 214.46 101.51 232.98 101.50 251.49 101.51 C 251.49 110.42 251.50 119.33 251.49 128.24 C 233.66 128.25 215.83 128.24 198.00 128.25 C 190.68 128.26 183.19 128.33 176.13 126.11 C 162.16 122.03 150.42 111.21 145.04 97.71 C 139.12 83.27 140.54 66.03 148.94 52.84 Z" />
<path fill="#000000" opacity="1.00" d=" M 286.50 39.49 C 294.66 33.35 304.82 30.11 315.00 30.00 C 335.50 29.99 356.00 30.00 376.49 30.00 C 376.51 39.56 376.46 49.12 376.52 58.68 C 369.63 69.45 362.76 80.24 355.85 91.00 C 345.51 90.99 335.18 91.00 324.84 91.00 C 331.59 79.54 338.52 68.19 345.32 56.75 C 336.19 56.77 327.06 56.68 317.93 56.78 C 305.80 57.76 296.25 70.17 298.27 82.15 C 299.60 92.52 308.94 101.17 319.44 101.45 C 338.54 101.58 357.64 101.48 376.73 101.50 C 376.76 110.41 376.73 119.32 376.75 128.24 C 356.21 128.19 335.67 128.36 315.13 128.16 C 302.49 128.15 289.89 123.02 281.05 113.95 C 270.53 103.74 265.26 88.54 266.86 74.01 C 268.15 60.42 275.47 47.53 286.50 39.49 Z" />
<path fill="#000000" opacity="1.00" d=" M 541.96 195.02 C 612.26 187.25 682.80 181.71 753.37 177.18 C 715.21 186.90 676.92 196.26 639.12 207.39 C 586.04 222.54 534.28 241.86 483.16 262.56 C 456.41 246.77 429.56 231.16 402.83 215.34 C 448.84 206.32 495.39 200.33 541.96 195.02 Z" />
<path fill="#000000" opacity="1.00" d=" M 33.60 181.49 C 121.57 181.60 209.55 181.36 297.50 181.61 C 316.72 191.28 335.25 202.31 354.00 212.86 C 426.64 254.59 498.89 297.01 570.78 340.01 C 588.06 350.37 605.35 360.70 622.45 371.36 C 626.20 373.82 630.16 375.99 633.64 378.84 C 555.96 346.20 478.97 311.83 400.21 281.85 C 333.06 256.15 264.50 234.13 194.81 216.45 C 156.34 206.58 117.55 198.00 78.60 190.24 C 63.64 187.15 48.51 184.77 33.60 181.49 Z" />
<path fill="#000000" opacity="1.00" d=" M 130.11 310.12 C 166.65 286.16 207.00 268.61 248.06 254.02 C 272.53 260.62 296.58 268.77 320.69 276.58 C 288.63 289.29 257.82 305.45 230.07 326.01 C 212.33 339.35 195.24 354.00 181.74 371.73 C 141.92 371.75 102.10 371.77 62.29 371.72 C 81.20 347.53 104.49 326.96 130.11 310.12 Z" />
<path fill="#000000" opacity="1.00" d=" M 251.69 344.79 C 279.20 319.78 311.24 300.05 345.13 284.94 C 364.27 291.63 383.27 298.74 402.19 306.04 C 385.82 317.69 369.52 329.72 355.91 344.61 C 348.07 353.01 341.14 362.21 334.73 371.73 C 298.71 371.77 262.69 371.72 226.67 371.76 C 233.93 361.83 242.70 353.13 251.69 344.79 Z" />
</g>
</svg>
