<?xml version="1.0" encoding="UTF-8" standalone="no"?>
<!-- Created with Inkscape (http://www.inkscape.org/) -->

<svg
   xmlns:dc="http://purl.org/dc/elements/1.1/"
   xmlns:cc="http://creativecommons.org/ns#"
   xmlns:rdf="http://www.w3.org/1999/02/22-rdf-syntax-ns#"
   xmlns:svg="http://www.w3.org/2000/svg"
   xmlns="http://www.w3.org/2000/svg"
   xmlns:sodipodi="http://sodipodi.sourceforge.net/DTD/sodipodi-0.dtd"
   xmlns:inkscape="http://www.inkscape.org/namespaces/inkscape"
   width="203.87587"
   height="60.76704"
   viewBox="0 0 53.942157 16.077945"
   version="1.1"
   id="svg971"
   inkscape:version="0.92.0 r15299"
   sodipodi:docname="swiggy.svg">
  <defs
     id="defs965" />
  <sodipodi:namedview
     id="base"
     pagecolor="#ffffff"
     bordercolor="#666666"
     borderopacity="1.0"
     inkscape:pageopacity="0.0"
     inkscape:pageshadow="2"
     inkscape:zoom="4.4433245"
     inkscape:cx="100.93793"
     inkscape:cy="29.383521"
     inkscape:document-units="mm"
     inkscape:current-layer="layer1"
     showgrid="false"
     fit-margin-top="0"
     fit-margin-left="0"
     fit-margin-right="0"
     fit-margin-bottom="0"
     units="px"
     inkscape:window-width="1280"
     inkscape:window-height="744"
     inkscape:window-x="-4"
     inkscape:window-y="-4"
     inkscape:window-maximized="1" />
  <metadata
     id="metadata968">
    <rdf:RDF>
      <cc:Work
         rdf:about="">
        <dc:format>image/svg+xml</dc:format>
        <dc:type
           rdf:resource="http://purl.org/dc/dcmitype/StillImage" />
        <dc:title></dc:title>
      </cc:Work>
    </rdf:RDF>
  </metadata>
  <g
     inkscape:label="Layer 1"
     inkscape:groupmode="layer"
     id="layer1"
     transform="translate(-197.05553,-262.99407)">
    <path
       id="path945"
       d="m 202.59179,278.80743 c -0.01,-0.007 -0.021,-0.0166 -0.0326,-0.0267 -0.18735,-0.23215 -1.34591,-1.68349 -2.5264,-3.54498 -0.35408,-0.59315 -0.58401,-1.05576 -0.53986,-1.17539 0.11549,-0.31104 2.1735,-0.48128 2.8073,-0.1993 0.19274,0.0856 0.18788,0.1989 0.18788,0.26489 0,0.28475 -0.0141,1.0488 -0.0141,1.0488 1.3e-4,0.15789 0.1285,0.28593 0.28655,0.28567 0.15832,0 0.28616,-0.12857 0.28563,-0.28685 l -0.003,-1.90382 h -5.3e-4 c 0,-0.16525 -0.18039,-0.20653 -0.21429,-0.21297 -0.33082,-0.002 -1.00259,-0.004 -1.7239,-0.004 -1.5916,0 -1.94725,0.0653 -2.21764,-0.11148 -0.58585,-0.38308 -1.54377,-2.96498 -1.56611,-4.41763 -0.0318,-2.04935 1.18247,-3.82355 2.89231,-4.70263 0.71434,-0.35968 1.52117,-0.56239 2.37334,-0.56239 2.70627,0 4.93495,2.04264 5.23148,4.67069 2.7e-4,0.002 2.7e-4,0.005 8e-4,0.007 0.0544,0.63535 -3.44728,0.77036 -4.13994,0.58552 -0.10616,-0.0284 -0.13336,-0.13711 -0.13336,-0.18391 -7.9e-4,-0.48312 -0.004,-1.8427 -0.004,-1.8427 -5.3e-4,-0.15801 -0.12889,-0.28619 -0.28694,-0.28579 h -2.7e-4 c -0.15779,2.6e-4 -0.28589,0.1287 -0.28589,0.28698 l 0.006,2.50447 c 0.005,0.15775 0.1373,0.20034 0.17356,0.20744 0.39389,1.3e-4 1.31503,-7.9e-4 2.17297,-7.9e-4 1.15961,0 1.64665,0.13436 1.97078,0.38111 0.21547,0.16433 0.2989,0.47891 0.22598,0.88776 -0.65022,3.63701 -4.77033,8.14298 -4.9251,8.33083 z m 11.17413,-8.48843 c 1.03952,0.44553 1.68357,0.93982 1.68357,2.02477 0,1.10835 -0.83955,1.82429 -2.13855,1.82429 -1.05266,0 -1.89759,-0.47681 -2.31842,-1.30844 l -0.0681,-0.13409 1.23765,-0.71712 0.0811,0.13252 c 0.27866,0.45551 0.59018,0.64968 1.04214,0.64968 0.38956,0 0.65128,-0.17261 0.65128,-0.42975 0,-0.28488 -0.18946,-0.39162 -0.77504,-0.64797 l -0.29759,-0.12765 c -0.79423,-0.33851 -1.52998,-0.80888 -1.52998,-1.94813 0,-1.02382 0.78476,-1.73884 1.9085,-1.73884 0.85137,0 1.43485,0.32958 1.8365,1.03684 l 0.0745,0.13133 -1.19915,0.77063 -0.0826,-0.1479 c -0.20049,-0.35862 -0.38929,-0.43053 -0.6292,-0.43053 -0.25082,0 -0.41242,0.13829 -0.41242,0.35284 0,0.24649 0.11904,0.35468 0.63787,0.57948 z m 8.76047,0.20978 0.87371,-2.43624 h 1.49962 l -2.2225,6.17605 h -0.33306 l -1.34815,-2.89241 c -0.0627,-0.13252 -0.12731,-0.29711 -0.18302,-0.44789 -0.057,0.15105 -0.12323,0.31603 -0.18604,0.44854 l -1.40082,2.89176 h -0.33083 l -2.25811,-6.17605 h 1.60197 l 0.8833,2.43624 c 0.0564,0.15538 0.11418,0.34482 0.16476,0.52058 0.06,-0.18141 0.13217,-0.37729 0.20759,-0.53518 l 1.16013,-2.47252 h 0.32097 l 1.17813,2.47279 c 0.0751,0.15775 0.14755,0.35376 0.20733,0.53518 0.0508,-0.17603 0.10905,-0.36547 0.16502,-0.52085 z m 4.12216,3.56248 v -6.12491 h 1.51356 v 6.12491 z m 6.47614,-2.05787 v -1.36877 h 2.81045 v 2.74504 l -0.0581,0.0479 c -0.3215,0.26397 -1.17392,0.71055 -2.32867,0.71055 -1.94804,0 -3.30801,-1.29082 -3.30801,-3.13904 0,-1.81403 1.31228,-3.13075 3.1204,-3.13075 0.99432,0 1.72311,0.28028 2.22763,0.857 l 0.0985,0.11266 -1.03164,1.02132 -0.11207,-0.11542 c -0.28813,-0.2971 -0.58663,-0.48115 -1.18246,-0.48115 -0.92614,0 -1.57308,0.71397 -1.57308,1.73635 0,1.06496 0.69082,1.7533 1.76069,1.7533 0.35487,0 0.72433,-0.0611 0.9758,-0.15881 v -0.59013 z m 7.67011,0 v -1.36877 h 2.81045 v 2.74504 l -0.0581,0.0479 c -0.32176,0.26397 -1.17392,0.71055 -2.3284,0.71055 -1.94805,0 -3.30827,-1.29082 -3.30827,-3.13904 0,-1.81403 1.31253,-3.13075 3.12013,-3.13075 0.99484,0 1.72363,0.28028 2.22789,0.857 l 0.0988,0.11266 -1.03137,1.02132 -0.11233,-0.11542 c -0.28827,-0.2971 -0.5869,-0.48115 -1.183,-0.48115 -0.92587,0 -1.57281,0.71397 -1.57281,1.73635 0,1.06496 0.69109,1.7533 1.76096,1.7533 0.35487,0 0.72406,-0.0611 0.97553,-0.15881 v -0.59013 z m 8.35629,-4.06702 h 1.58201 l -2.1714,4.0757 v 2.04922 H 247.04 v -1.9622 l -2.31316,-4.16272 h 1.68803 l 1.06908,1.95286 c 0.11496,0.21244 0.23504,0.49324 0.32583,0.7212 0.0867,-0.22612 0.20142,-0.50442 0.31559,-0.71936 z"
       inkscape:connector-curvature="0"
       style="fill:#fc8019;fill-opacity:1;stroke-width:0.26458332" />
  </g>
</svg>
