<?xml version="1.0" encoding="UTF-8" standalone="no"?>
<svg
   id="Diagram"
   width="87.71mm"
   height="69.99mm"
   viewBox="0 0 248.61 198.39"
   version="1.1"
   xmlns="http://www.w3.org/2000/svg"
   xmlns:svg="http://www.w3.org/2000/svg">
  <defs
     id="defs4">
    <style
       id="style2">
      .cls-1 {
        fill: #6aaa64;
      }

      .cls-2 {
        fill: #fff;
      }

      .cls-3 {
        fill: #c9b458;
      }

      .cls-4 {
        fill: #787c7e;
      }
    </style>
  </defs>
  <g
     id="S">
    <rect
       class="cls-1"
       x="202.14"
       y="151.92"
       width="46.47"
       height="46.47"
       id="rect6" />
    <path
       class="cls-2"
       d="M217.67,178.41l3.38-.33a4.07,4.07,0,0,0,1.24,2.5,3.72,3.72,0,0,0,2.51.8,3.85,3.85,0,0,0,2.52-.71,2.12,2.12,0,0,0,.85-1.66,1.56,1.56,0,0,0-.35-1,2.94,2.94,0,0,0-1.25-.74c-.41-.14-1.33-.39-2.78-.75a9.41,9.41,0,0,1-3.91-1.7,4.46,4.46,0,0,1-1.58-3.46,4.37,4.37,0,0,1,.74-2.45,4.58,4.58,0,0,1,2.14-1.74,8.58,8.58,0,0,1,3.38-.6,7.22,7.22,0,0,1,4.87,1.42,5,5,0,0,1,1.72,3.78l-3.47.15a3,3,0,0,0-1-1.9,3.48,3.48,0,0,0-2.2-.58,4,4,0,0,0-2.37.62,1.27,1.27,0,0,0-.55,1.07,1.31,1.31,0,0,0,.52,1,9,9,0,0,0,3.18,1.15,17.32,17.32,0,0,1,3.75,1.23,4.87,4.87,0,0,1,1.9,1.75,5.18,5.18,0,0,1,.68,2.74,5,5,0,0,1-.82,2.76,4.9,4.9,0,0,1-2.32,1.92,9.68,9.68,0,0,1-3.74.62,7.45,7.45,0,0,1-5-1.5A6.59,6.59,0,0,1,217.67,178.41Z"
       id="path8" />
  </g>
  <g
     id="U">
    <rect
       class="cls-1"
       x="151.66"
       y="151.92"
       width="46.47"
       height="46.47"
       id="rect11" />
    <path
       class="cls-2"
       d="M168,166.82h3.47v9.31a18.74,18.74,0,0,0,.13,2.87,2.79,2.79,0,0,0,1.06,1.69,3.67,3.67,0,0,0,2.29.64,3.45,3.45,0,0,0,2.23-.61,2.35,2.35,0,0,0,.9-1.48,19.6,19.6,0,0,0,.15-2.92v-9.5h3.47v9a22.92,22.92,0,0,1-.28,4.37,4.75,4.75,0,0,1-1,2.16,5.14,5.14,0,0,1-2,1.4,8.71,8.71,0,0,1-3.3.52,9.54,9.54,0,0,1-3.74-.57,5.29,5.29,0,0,1-2-1.47,4.71,4.71,0,0,1-1-1.91A21.25,21.25,0,0,1,168,176Z"
       id="path13" />
  </g>
  <g
     id="B">
    <rect
       class="cls-1"
       x="101.11"
       y="151.92"
       width="46.47"
       height="46.47"
       id="rect16" />
    <path
       class="cls-2"
       d="M117.4,166.82h6.87a20.27,20.27,0,0,1,3,.17,4.36,4.36,0,0,1,3.11,2.14,3.92,3.92,0,0,1,.53,2,4.06,4.06,0,0,1-2.42,3.73,4.61,4.61,0,0,1,2.42,1.56,4.15,4.15,0,0,1,.84,2.59,5,5,0,0,1-.55,2.28,4.51,4.51,0,0,1-1.48,1.77,4.94,4.94,0,0,1-2.33.81c-.58.07-2,.1-4.18.12H117.4Zm3.47,2.86v4h2.27q2,0,2.52-.06a2.3,2.3,0,0,0,1.4-.61,1.82,1.82,0,0,0,.51-1.34,1.91,1.91,0,0,0-.44-1.3,2,2,0,0,0-1.31-.6c-.34,0-1.33-.06-3-.06Zm0,6.83v4.6h3.21a15.55,15.55,0,0,0,2.38-.11,2,2,0,0,0,1.74-2.14,2.25,2.25,0,0,0-.37-1.32,2.07,2.07,0,0,0-1.09-.78,11.38,11.38,0,0,0-3.07-.25Z"
       id="path18" />
  </g>
  <g
     id="E">
    <rect
       class="cls-1"
       x="50.55"
       y="151.92"
       width="46.47"
       height="46.47"
       id="rect21" />
    <path
       class="cls-2"
       d="M67.53,184V166.82H80.27v2.91H71v3.81h8.63v2.89H71v4.68h9.6V184Z"
       id="path23" />
  </g>
  <g
     id="R">
    <rect
       class="cls-1"
       y="151.92"
       width="46.47"
       height="46.47"
       id="rect26" />
    <path
       class="cls-2"
       d="M16.33,184V166.82h7.3a12.43,12.43,0,0,1,4,.46,4,4,0,0,1,2,1.65,5,5,0,0,1,.75,2.71,4.59,4.59,0,0,1-1.14,3.19,5.47,5.47,0,0,1-3.4,1.59,8,8,0,0,1,1.86,1.44,19.1,19.1,0,0,1,2,2.79L31.77,184H27.63l-2.51-3.74a22.27,22.27,0,0,0-1.83-2.52,2.72,2.72,0,0,0-1-.72,5.73,5.73,0,0,0-1.75-.19h-.7V184Zm3.47-9.91h2.56a13.06,13.06,0,0,0,3.12-.22,1.87,1.87,0,0,0,1-.72,2.23,2.23,0,0,0,.36-1.29,2,2,0,0,0-.47-1.4,2.13,2.13,0,0,0-1.3-.68c-.29,0-1.13-.05-2.54-.05H19.8Z"
       id="path28" />
  </g>
  <g
     id="S-2"
     data-name="S">
    <rect
       class="cls-1"
       x="202.14"
       y="101.28"
       width="46.47"
       height="46.47"
       id="rect31" />
    <path
       class="cls-2"
       d="M218.24,127.52l3.38-.33a4.09,4.09,0,0,0,1.23,2.49,3.75,3.75,0,0,0,2.52.8,3.88,3.88,0,0,0,2.52-.71,2.09,2.09,0,0,0,.85-1.66,1.54,1.54,0,0,0-.36-1,2.8,2.8,0,0,0-1.24-.75c-.41-.14-1.34-.39-2.78-.75a9.46,9.46,0,0,1-3.92-1.7,4.46,4.46,0,0,1-1.58-3.45,4.39,4.39,0,0,1,.75-2.46,4.65,4.65,0,0,1,2.14-1.74,8.55,8.55,0,0,1,3.38-.6,7.28,7.28,0,0,1,4.87,1.42,5,5,0,0,1,1.72,3.79l-3.47.15a3,3,0,0,0-1-1.91,3.51,3.51,0,0,0-2.19-.58,3.93,3.93,0,0,0-2.37.63,1.23,1.23,0,0,0-.55,1.06,1.3,1.3,0,0,0,.51,1,9.1,9.1,0,0,0,3.19,1.15,16.7,16.7,0,0,1,3.75,1.24,4.84,4.84,0,0,1,1.89,1.75,5.39,5.39,0,0,1-.13,5.5,4.87,4.87,0,0,1-2.32,1.91,9.71,9.71,0,0,1-3.74.63,7.4,7.4,0,0,1-5-1.51A6.52,6.52,0,0,1,218.24,127.52Z"
       id="path33" />
  </g>
  <g
     id="E-2"
     data-name="E">
    <rect
       class="cls-3"
       x="151.66"
       y="101.28"
       width="46.47"
       height="46.47"
       id="rect36" />
    <path
       class="cls-2"
       d="M168.64,133.11V115.93h12.74v2.9h-9.27v3.81h8.62v2.9h-8.62v4.67h9.6v2.9Z"
       id="path38" />
  </g>
  <g
     id="L">
    <rect
       class="cls-4"
       x="101.11"
       y="101.28"
       width="46.47"
       height="46.47"
       id="rect41" />
    <path
       class="cls-2"
       d="M119,133.11v-17h3.47v14.14h8.63v2.9Z"
       id="path43" />
  </g>
  <g
     id="U-2"
     data-name="U">
    <rect
       class="cls-3"
       x="50.55"
       y="101.28"
       width="46.47"
       height="46.47"
       id="rect46" />
    <path
       class="cls-2"
       d="M66.85,115.93h3.47v9.3a20.69,20.69,0,0,0,.12,2.87,2.83,2.83,0,0,0,1.07,1.7,3.71,3.71,0,0,0,2.29.63,3.5,3.5,0,0,0,2.22-.6,2.44,2.44,0,0,0,.91-1.48,19.69,19.69,0,0,0,.15-2.92v-9.5h3.47v9a23.88,23.88,0,0,1-.28,4.37,5,5,0,0,1-1,2.16,5.4,5.4,0,0,1-2,1.4,9,9,0,0,1-3.31.52,9.49,9.49,0,0,1-3.73-.57,5.27,5.27,0,0,1-2-1.48,4.65,4.65,0,0,1-1-1.9,20.68,20.68,0,0,1-.34-4.36Z"
       id="path48" />
  </g>
  <g
     id="R-2"
     data-name="R">
    <rect
       class="cls-1"
       y="101.28"
       width="46.47"
       height="46.47"
       id="rect51" />
    <path
       class="cls-2"
       d="M16.33,133.11V115.93h7.3a12.43,12.43,0,0,1,4,.46,4,4,0,0,1,2,1.65,4.92,4.92,0,0,1,.75,2.7,4.59,4.59,0,0,1-1.14,3.2,5.44,5.44,0,0,1-3.4,1.58A8.31,8.31,0,0,1,27.7,127a20.32,20.32,0,0,1,2,2.79l2.09,3.36H27.63l-2.51-3.74a23.83,23.83,0,0,0-1.83-2.53,2.69,2.69,0,0,0-1-.71,5.67,5.67,0,0,0-1.75-.2h-.7v7.18Zm3.47-9.92h2.56a13.28,13.28,0,0,0,3.12-.21,1.79,1.79,0,0,0,1-.73,2.18,2.18,0,0,0,.36-1.29,2.08,2.08,0,0,0-.47-1.4,2.12,2.12,0,0,0-1.3-.67c-.29,0-1.13-.06-2.54-.06H19.8Z"
       id="path53" />
  </g>
  <g
     id="E-3"
     data-name="E">
    <rect
       class="cls-3"
       x="202.14"
       y="50.64"
       width="46.47"
       height="46.47"
       id="rect56" />
    <path
       class="cls-2"
       d="M219.12,82.47V65.29h12.74v2.9h-9.27V72h8.62v2.9h-8.62v4.67h9.6v2.9Z"
       id="path58" />
  </g>
  <g
     id="T">
    <rect
       class="cls-4"
       x="151.66"
       y="50.64"
       width="46.47"
       height="46.47"
       id="rect61" />
    <path
       class="cls-2"
       d="M173.18,82.47V68.19h-5.1v-2.9h13.65v2.9h-5.08V82.47Z"
       id="path63" />
  </g>
  <g
     id="U-3"
     data-name="U">
    <rect
       class="cls-3"
       x="101.11"
       y="50.64"
       width="46.47"
       height="46.47"
       id="rect66" />
    <path
       class="cls-2"
       d="M117.4,65.29h3.47v9.3a18.56,18.56,0,0,0,.13,2.87,2.79,2.79,0,0,0,1.06,1.7,3.73,3.73,0,0,0,2.29.63,3.53,3.53,0,0,0,2.23-.6,2.38,2.38,0,0,0,.9-1.48,19.69,19.69,0,0,0,.15-2.92v-9.5h3.47v9a23,23,0,0,1-.28,4.37,5,5,0,0,1-1,2.16,5.32,5.32,0,0,1-2,1.4,8.76,8.76,0,0,1-3.31.52,9.49,9.49,0,0,1-3.73-.57,5.27,5.27,0,0,1-2-1.48,4.78,4.78,0,0,1-1-1.9,20.62,20.62,0,0,1-.34-4.36Z"
       id="path68" />
  </g>
  <g
     id="O">
    <rect
       class="cls-4"
       x="50.55"
       y="50.64"
       width="46.47"
       height="46.47"
       id="rect71" />
    <path
       class="cls-2"
       d="M65.5,74a10.93,10.93,0,0,1,.78-4.4,8.41,8.41,0,0,1,1.6-2.36,6.78,6.78,0,0,1,2.22-1.55A9.55,9.55,0,0,1,73.81,65a8.06,8.06,0,0,1,6.07,2.36,9,9,0,0,1,2.28,6.55,9,9,0,0,1-2.26,6.51,8,8,0,0,1-6.05,2.35,8.08,8.08,0,0,1-6.09-2.34A8.86,8.86,0,0,1,65.5,74Zm3.57-.12a6.45,6.45,0,0,0,1.35,4.43,4.4,4.4,0,0,0,3.42,1.5,4.34,4.34,0,0,0,3.41-1.49,6.6,6.6,0,0,0,1.33-4.48,6.44,6.44,0,0,0-1.3-4.41,4.79,4.79,0,0,0-6.89,0A6.46,6.46,0,0,0,69.07,73.86Z"
       id="path73" />
  </g>
  <g
     id="R-3"
     data-name="R">
    <rect
       class="cls-1"
       y="50.64"
       width="46.47"
       height="46.47"
       id="rect76" />
    <path
       class="cls-2"
       d="M16.33,82.47V65.29h7.3a12.43,12.43,0,0,1,4,.46,4,4,0,0,1,2,1.65,4.92,4.92,0,0,1,.75,2.7,4.59,4.59,0,0,1-1.14,3.2,5.41,5.41,0,0,1-3.4,1.58,8.06,8.06,0,0,1,1.86,1.45,19.45,19.45,0,0,1,2,2.78l2.09,3.36H27.63l-2.51-3.74a23.83,23.83,0,0,0-1.83-2.53,2.69,2.69,0,0,0-1-.71,5.67,5.67,0,0,0-1.75-.2h-.7v7.18Zm3.47-9.92h2.56a13.28,13.28,0,0,0,3.12-.21,1.83,1.83,0,0,0,1-.73,2.17,2.17,0,0,0,.36-1.28,2.09,2.09,0,0,0-.47-1.41,2.12,2.12,0,0,0-1.3-.67c-.29,0-1.13-.06-2.54-.06H19.8Z"
       id="path78" />
  </g>
  <g
     id="E-4"
     data-name="E">
    <rect
       class="cls-3"
       x="202.14"
       width="46.47"
       height="46.47"
       id="rect81" />
    <path
       class="cls-2"
       d="M219.12,31.28V14.1h12.74V17h-9.27v3.81h8.62v2.9h-8.62v4.67h9.6v2.9Z"
       id="path83" />
  </g>
  <g
     id="S-3"
     data-name="S">
    <rect
       class="cls-3"
       x="151.66"
       width="46.47"
       height="46.47"
       id="rect86" />
    <path
       class="cls-2"
       d="M167.76,25.69l3.38-.33a4.15,4.15,0,0,0,1.23,2.5,3.75,3.75,0,0,0,2.52.79,3.83,3.83,0,0,0,2.52-.71,2.09,2.09,0,0,0,.85-1.66,1.54,1.54,0,0,0-.36-1,2.79,2.79,0,0,0-1.25-.75c-.4-.14-1.33-.39-2.77-.75a9.33,9.33,0,0,1-3.92-1.7,4.46,4.46,0,0,1-1.58-3.45,4.39,4.39,0,0,1,.75-2.46,4.65,4.65,0,0,1,2.14-1.74,8.55,8.55,0,0,1,3.38-.6,7.28,7.28,0,0,1,4.87,1.42A5,5,0,0,1,181.24,19l-3.47.15a2.93,2.93,0,0,0-1-1.9,3.47,3.47,0,0,0-2.19-.58,3.93,3.93,0,0,0-2.37.62,1.23,1.23,0,0,0-.55,1.06,1.33,1.33,0,0,0,.51,1.05,9.16,9.16,0,0,0,3.19,1.14,16.41,16.41,0,0,1,3.74,1.24,4.8,4.8,0,0,1,1.9,1.75,5.39,5.39,0,0,1-.13,5.5A4.87,4.87,0,0,1,178.59,31a9.71,9.71,0,0,1-3.74.63,7.45,7.45,0,0,1-5-1.5A6.56,6.56,0,0,1,167.76,25.69Z"
       id="path88" />
  </g>
  <g
     id="I">
    <rect
       class="cls-4"
       x="101.11"
       width="46.47"
       height="46.47"
       id="rect91" />
    <path
       class="cls-2"
       d="M122.65,31.28V14.1h3.47V31.28Z"
       id="path93" />
  </g>
  <g
     id="R-4"
     data-name="R">
    <rect
       class="cls-3"
       x="50.55"
       width="46.47"
       height="46.47"
       id="rect96" />
    <path
       class="cls-2"
       d="M66.88,31.28V14.1h7.3a12.43,12.43,0,0,1,4,.46,3.93,3.93,0,0,1,2,1.65,4.94,4.94,0,0,1,.75,2.7,4.63,4.63,0,0,1-1.13,3.2,5.41,5.41,0,0,1-3.4,1.58,7.78,7.78,0,0,1,1.85,1.45,19.1,19.1,0,0,1,2,2.79l2.1,3.35H78.18l-2.51-3.74A23.83,23.83,0,0,0,73.84,25a2.73,2.73,0,0,0-1-.71,5.73,5.73,0,0,0-1.75-.19h-.7v7.17Zm3.47-9.92h2.57A13.23,13.23,0,0,0,76,21.15a1.89,1.89,0,0,0,1-.72,2.3,2.3,0,0,0,.35-1.29,2.09,2.09,0,0,0-.46-1.4,2.16,2.16,0,0,0-1.31-.68c-.28,0-1.13-.06-2.53-.06H70.35Z"
       id="path98" />
  </g>
  <g
     id="A">
    <rect
       class="cls-4"
       width="46.47"
       height="46.47"
       id="rect101" />
    <path
       class="cls-2"
       d="M32.25,31.28H28.48L27,27.37H20.11L18.7,31.28H15L21.71,14.1h3.67Zm-6.38-6.8L23.5,18.11l-2.32,6.37Z"
       id="path103" />
  </g>
</svg>
