<svg xmlns="http://www.w3.org/2000/svg" viewBox="0 0 112.378 30"><defs><style>.a{fill:#00a84f;}.b{fill:#006cb7;}.c{fill:#fff;}</style></defs><g transform="translate(-132 -15)"><g transform="translate(132 15)"><path class="a" d="M0,23.248H71.1V16.6l7.343,13.891V23.248h33.937V38.329H0V23.248" transform="translate(0 -8.329)"/><path class="b" d="M78.442,14.984h33.937V0H0V14.984H71.1V8.335l7.343,13.892V14.984"/></g><g transform="translate(137.281 20.567)"><path class="c" d="M45.982,38.463a5.232,5.232,0,0,0,0-10.463,5.232,5.232,0,0,0,0,10.463" transform="translate(-25.753 -19.729)"/><path class="c" d="M64.247,12.4H49.2a15.075,15.075,0,0,1,7.523,13.054L64.247,12.4" transform="translate(-30.072 -11.902)"/><path class="c" d="M34.047,12.4H19a14.972,14.972,0,0,1,7.523,13.054L34.047,12.4" transform="translate(-14.815 -11.902)"/><path class="c" d="M15.782,38.463A5.232,5.232,0,1,0,10.6,33.231a5.189,5.189,0,0,0,5.182,5.232" transform="translate(-10.6 -19.729)"/><path class="c" d="M123.909,20.817c0,1.2-.1,2.491-.149,2.89-.3,3.637-1.246,6.427-5.73,6.427-4.335,0-5.481-2.94-5.68-6.427,0-.2-.149-1.345-.149-2.94a26.111,26.111,0,0,1,.149-2.94c.249-3.239,1.2-6.427,5.68-6.427,4.783,0,5.481,3.039,5.73,6.427a29.08,29.08,0,0,1,.149,2.989m-3.338-.05c0-1.644-.1-2.441-.1-2.94,0-1.694-.448-3.288-2.342-3.288-1.993,0-2.342,1.594-2.342,3.288,0,.448-.1,1.3-.1,2.94,0,1.545.1,2.591.1,2.94.05,2.441.847,3.288,2.292,3.288,1.495,0,2.342-.847,2.392-3.338C120.471,23.308,120.57,22.511,120.57,20.767Z" transform="translate(-61.842 -11.4)"/><path class="c" d="M96.868,12.4l-2.89,6.278L91.337,12.4H87.8l4.534,10.513v7.324h3.239V22.863L100.356,12.4H96.868" transform="translate(-49.538 -11.902)"/><path class="c" d="M166.1,12.4V30.237h9.417V27h-6.178V22.863h5.63V19.624h-5.63V15.639h6.178V12.4H166.1" transform="translate(-89.017 -11.902)"/><path class="c" d="M194.772,21.269l4.285-8.869H195.47l-2.491,5.132L190.487,12.4H186.9l4.285,8.869L186.9,30.237h3.538l2.541-5.231,2.541,5.231h3.587l-4.335-8.968" transform="translate(-99.533 -11.902)"/><path class="c" d="M147.323,12.4v9.716L142.64,12.4H139.8V30.237h3.239V20.571l4.634,9.666h2.89V12.4h-3.239" transform="translate(-75.759 -11.902)"/><path class="c" d="M212.2,45a1.1,1.1,0,1,1,1.1,1.1,1.106,1.106,0,0,1-1.1-1.1m1.1,1a1,1,0,1,0-1-1A1,1,0,0,0,213.3,45.993ZM213,44.5v.448h.4a.183.183,0,0,0,.2-.2c0-.2-.1-.249-.2-.249Zm-.149-.1h.548c.2,0,.349.05.4.3a.355.355,0,0,1-.149.3c.1.1.149.1.149.3,0,.149,0,.2.05.249v.05H213.6c0-.05-.05-.1-.05-.149,0-.149.05-.349-.2-.349h-.4v.5H212.8V44.4Z" transform="translate(-112.228 -27.707)"/></g></g></svg>
