<svg xmlns="http://www.w3.org/2000/svg" viewBox="0 0 539.66872 67">
  <defs>
    <style>
      .cls-1 {
        fill: #fff;
      }
    </style>
  </defs>
  <title>Sm-Atlasssian-horizontal-white-rgb</title>
  <g id="Layer_2" data-name="Layer 2">
    <g id="Layer_1-2" data-name="Layer 1">
      <g>
        <g id="Layer_2-2" data-name="Layer 2">
          <g id="Blue">
            <path class="cls-1" d="M296.30874,27.06c0,8,3.73,14.42,18.31,17.23,8.7,1.82,10.52,3.23,10.52,6.13s-1.82,4.64-8,4.64a44.89,44.89,0,0,1-21.13-5.72v13.1c4.39,2.15,10.19,4.56,21,4.56,15.25,0,21.3-6.79,21.3-16.9m0,0c0-9.53-5.05-14-19.31-17.07-7.87-1.74-9.78-3.48-9.78-6,0-3.15,2.82-4.47,8-4.47,6.3,0,12.51,1.91,18.4,4.56V14.63a41.58,41.58,0,0,0-18-3.73c-14.09,0-21.38,6.13-21.38,16.16"/>
            <polygon class="cls-1" points="492.189 11.73 492.189 66.17 503.789 66.17 503.789 24.66 508.679 35.68 525.089 66.17 539.669 66.17 539.669 11.73 528.069 11.73 528.069 46.87 523.679 36.67 510.499 11.73 492.189 11.73"/>
            <rect class="cls-1" x="405.72872" y="11.73" width="12.67999" height="54.44"/>
            <path class="cls-1" d="M391.09871,50.1c0-9.53-5.05-14-19.31-17.07-7.87-1.74-9.78-3.48-9.78-6,0-3.15,2.82-4.47,8-4.47,6.3,0,12.51,1.91,18.4,4.56V14.63a41.58,41.58,0,0,0-18-3.73c-14.09,0-21.38,6.13-21.38,16.16,0,8,3.73,14.42,18.31,17.23,8.7,1.82,10.52,3.23,10.52,6.13s-1.82,4.64-8,4.64a44.89,44.89,0,0,1-21.13-5.72v13.1c4.39,2.15,10.19,4.56,21,4.56,15.25,0,21.3-6.79,21.3-16.9"/>
            <polygon class="cls-1" points="197.829 11.73 197.829 66.17 223.889 66.17 227.989 54.41 210.589 54.41 210.589 11.73 197.829 11.73"/>
            <polygon class="cls-1" points="146.339 11.73 146.339 23.5 160.429 23.5 160.429 66.17 173.189 66.17 173.189 23.5 188.269 23.5 188.269 11.73 146.339 11.73"/>
            <path class="cls-1" d="M127.83872,11.73h-16.72l-19,54.44h14.55l2.66-9.17a36,36,0,0,0,20.34,0l2.69,9.17h14.5Zm-8.36,35.46a24.76021,24.76021,0,0,1-7-1l7-23.77,7,23.77A24.76021,24.76021,0,0,1,119.47872,47.19Z"/>
            <path class="cls-1" d="M268.80874,11.73h-16.72l-19,54.44h14.5l2.71-9.17a36,36,0,0,0,20.3,0l2.69,9.17h14.5Zm-8.36,35.46a24.76011,24.76011,0,0,1-7-1l7-23.77,7,23.77a24.76047,24.76047,0,0,1-7,1Z"/>
            <path class="cls-1" d="M464.08874,11.73h-16.72l-19,54.44h14.5l2.71-9.17a36,36,0,0,0,20.3,0l2.69,9.17h14.5Zm-8.36,35.46a24.76011,24.76011,0,0,1-7-1l7-23.77,7,23.77a24.76047,24.76047,0,0,1-7,1Z"/>
          </g>
        </g>
        <g>
          <path class="cls-1" d="M19.03621,30.87471v-.00035a1.63558,1.63558,0,0,0-1.3973-.56329,1.34758,1.34758,0,0,0-1.00013.8029L.15276,64.06755a1.44419,1.44419,0,0,0,1.29135,2.09117H24.39916a1.38882,1.38882,0,0,0,1.28587-.80051C30.50792,55.40617,27.52327,39.94113,19.03621,30.87471Z"/>
          <path class="cls-1" d="M66.05034,64.07917C65.74135,63.4605,35.16265,2.27609,34.41067.75471A1.30175,1.30175,0,0,0,33.31074.001L33.25878,0a1.57888,1.57888,0,0,0-1.30023.81213L31.95718.8135c-8.28881,13.13084-9.22809,28.98486-2.51159,42.41L40.51124,65.35342a1.43819,1.43819,0,0,0,1.29544.81658H64.75831a1.44375,1.44375,0,0,0,1.292-2.09083Z"/>
        </g>
      </g>
    </g>
  </g>
</svg>
