<svg fill="none" height="161" viewBox="0 0 134 161" width="134" xmlns="http://www.w3.org/2000/svg" xmlns:xlink="http://www.w3.org/1999/xlink"><linearGradient id="a" gradientUnits="userSpaceOnUse" x1="24.02" x2="109.506" y1="136.651" y2="51.1647"><stop offset="0" stop-color="#6044ab"/><stop offset=".94" stop-color="#ed50b4"/></linearGradient><clipPath id="b"><path d="m0 .583008h133.523v160.1h-133.523z"/></clipPath><g clip-path="url(#b)"><path d="m0 0h133.523v160.1h-133.523z" fill="#fff" fill-opacity=".01" transform="translate(0 .583008)"/><path d="m66.9398 24.7301c-2.388 0-4.7223-.7081-6.7077-2.0347-1.9855-1.3267-3.533-3.2123-4.4468-5.4185-.9139-2.2061-1.153-4.6337-.6871-6.9758.4659-2.34201 1.6158-4.49331 3.3043-6.18182 1.6885-1.68852 3.8398-2.83842 6.1818-3.304277 2.3421-.465861 4.7697-.226764 6.9758.687057 2.2062.91382 4.0918 2.46131 5.4185 4.4468 1.3266 1.98549 2.0347 4.31974 2.0347 6.70774 0 3.2021-1.272 6.273-3.5362 8.5373-2.2643 2.2642-5.3352 3.5362-8.5373 3.5362zm0-22.71826c-2.1054 0-4.1634.6243-5.9139 1.79396-1.7505 1.16965-3.1149 2.83213-3.9206 4.7772-.8057 1.9451-1.0165 4.0854-.6057 6.1503.4107 2.0648 1.4245 3.9615 2.9132 5.4502s3.3854 2.5025 5.4503 2.9133c2.0649.4107 4.2052.1999 6.1502-.6058 1.9451-.8057 3.6076-2.17 4.7772-3.9205 1.1697-1.7506 1.794-3.8086 1.794-5.9139 0-2.82319-1.1215-5.53072-3.1178-7.52699-1.9962-1.99628-4.7038-3.11777-7.5269-3.11777z" fill="#eceef1"/><path d="m66.7979 15.9429c2.8042 0 5.4936 1.1139 7.4764 3.0968 1.9829 1.9829 3.0969 4.6722 3.0969 7.4765v2.3575h-21.1466v-2.3575c0-2.8043 1.114-5.4936 3.0969-7.4765 1.9828-1.9829 4.6722-3.0968 7.4764-3.0968z" fill="#dfe1e5"/><path d="m92.0661 148.781c30.3259-13.948 43.6019-49.8396 29.6539-80.1653s-49.8393-43.6022-80.165-29.654c-30.3257 13.9483-43.60219 49.8394-29.6539 80.1653 13.9482 30.325 49.8393 43.602 80.165 29.654z" fill="url(#a)"/><path d="m65.3684 138.322h-1.6432l.2144-3.358h1.5002zm8.0014-.5-.5715-3.358 1.5002-.214.643 3.286zm-17.5745-.786-1.5003-.429.9287-3.286 1.4289.428zm26.7904-1.643-1.2145-3.215 1.3574-.5 1.3574 3.072zm-35.792-1.715-1.4288-.714 1.6431-3.001 1.2859.715zm44.3649-2.715-1.8574-2.857 1.2145-.786 1.9289 2.715zm-52.4378-2.5-1.2145-1 2.2147-2.572 1.1431 1zm59.7963-3.644-2.429-2.357 1.0001-1.072 2.5005 2.215zm-66.5832-3.143-1.0002-1.215 2.7148-2.071.9287 1.214zm72.5131-4.429-2.929-1.786c.287-.413.55-.842.785-1.286l2.93 1.714zm-77.6568-3.644c-.2666-.461-.5052-.939-.7145-1.429l3.072-1.429.643 1.358zm81.7998-5.072-3.215-1.072c.135-.487.302-.964.501-1.429l3.214 1c-.143.501-.357 1.001-.5 1.501zm-85.1576-3.93c-.0849-.531-.2042-1.056-.3572-1.571l3.3578-.715c.0714.5.2143 1.001.2857 1.501zm87.3016-5.429-3.358-.3573c.083-.496.131-.9974.143-1.5002l3.357.2857c-.009.5268-.056 1.0521-.142 1.5718zm-88.5875-4.0722v-1.786h3.4292v1.5717zm85.3005-5.1438c-.012-.5028-.06-1.0041-.143-1.5002l3.358-.4287.214 1.5717zm-81.1569-3.9292-3.2863-.643c.0714-.5715.2143-1.0716.2857-1.5717l3.3578.7144c-.1429.5001-.2143 1.0002-.3572 1.5003zm79.3709-4.7866c-.135-.4868-.302-.9642-.5-1.4288l3.215-1.1431c.199.4889.366.99.5 1.5003zm-76.7276-3.7149-3.072-1.3574.643-1.4288 3.072 1.4288zm73.0846-4.3579c-.236-.4442-.498-.8736-.786-1.286l2.857-1.786.858 1.3574zm-68.6553-3.3578-2.7147-2.0003.9287-1.2145 2.6433 2.0718zm63.3683-3.7863-1.0001-1.0717 2.3575-2.3575c.4159.3445.7986.7272 1.1431 1.143zm-57.4386-2.7862-2.2147-2.5005 1.2145-1.0716 2.1432 2.6433zm50.7232-3.0006-1.2145-.8573 1.8574-2.8576 1.3574.9287zm-43.5077-2.1432-1.6431-2.9291 1.4288-.7858 1.5717 3.0005zm35.792-2.1432-1.4288-.5716 1.2145-3.1434 1.5003.5715zm-27.5763-1.3574-1.0001-3.2149 1.5002-.4286.8573 3.2148zm19.0034-1.1431-1.4288-.2143.4286-3.3577 1.5717.2143zm-10.2875-.5001-.2858-3.3577h1.5717l.1429 3.3577z" fill="#99c1ff"/><path d="m73.2274 87.384 24.1471 6.5012-24.1471 6.5008-6.4297 24.076-6.5012-24.076-24.1471-6.5008 24.1471-6.5012 6.5012-24.0757z" fill="#fff"/><path d="m94.6594 62.1653-30.5054 24.3614c-1.567 1.2573-3.0031 2.6694-4.2865 4.215l-24.9329 30.0763 30.5053-24.361c1.567-1.2572 3.0031-2.6694 4.2865-4.215z" fill="#091e42" opacity=".1"/><path d="m94.5162 62.4512-28.0764 27.1476c-1.4594 1.3688-2.7541 2.9033-3.8578 4.5722l-22.0039 32.363 28.0764-27.2192c1.4364-1.3904 2.7289-2.9223 3.8578-4.5722z" fill="#ff5230"/><path d="m66.8685 96.8142c1.1048 0 2.0004-.8956 2.0004-2.0004 0-1.1047-.8956-2.0003-2.0004-2.0003s-2.0003.8956-2.0003 2.0003c0 1.1048.8955 2.0004 2.0003 2.0004z" fill="#fff"/><path d="m132.738 83.5262c-2.193-13.9651-8.764-26.873-18.766-36.8624-10.003-9.9893-22.919-16.544-36.8869-18.7189-6.8423-1.0473-13.8041-1.0473-20.6464 0-13.9636 2.1854-26.8741 8.7435-36.8744 18.7309-10.00037 9.9875-16.57504 22.8896-18.778297 36.8504-1.048004 6.8662-1.048004 13.8517 0 20.7178 2.210307 13.965 8.785657 26.872 18.783397 36.869 9.9976 9.998 22.9042 16.573 36.8693 18.784 6.8423 1.047 13.8041 1.047 20.6464 0 13.9651-2.211 26.8719-8.786 36.8689-18.784 9.998-9.997 16.573-22.904 18.784-36.869 1.048-6.8661 1.048-13.8516 0-20.7178zm-17.432 10.3589c7.001.5001 11.788 7.5009 10.145 14.3599-2.612 10.754-8.132 20.582-15.958 28.407-7.825 7.826-17.653 13.346-28.4071 15.958-6.6441 1.643-13.431-2.786-14.2168-9.573-.0826-.4-.1304-.807-.1429-1.215v.572c-.5001 7.072-7.4299 11.859-14.2882 10.216-10.7452-2.606-20.5671-8.116-28.3916-15.928s-13.3504-17.625-15.9734-28.366c-1.71459-6.93 3.072-13.9308 10.1446-14.4309h.0715c-7.0727-.5001-11.85925-7.5013-10.2161-14.3596 3.5722-14.6155 12.4612-27.376 24.933-35.7921 5.8882-3.9777 12.4473-6.8579 19.3605-8.5015 6.9298-1.7145 13.8596 3.072 14.3597 10.1447v.5715c0-.1429.0714-.3572.0714-.5715.4287-7.0727 7.4299-11.8592 14.2883-10.1447 10.7592 2.5761 20.5971 8.0764 28.4261 15.893 7.829 7.8167 13.345 17.6455 15.939 28.4006 1.643 6.644-2.786 13.4309-9.573 14.2882h-.572z" fill="#cfd4db"/></g></svg>