<svg height="120.32412" width="300" xmlns="http://www.w3.org/2000/svg"><path d="m38.866448 26.308378c-21.145729 0-38.76645103 8.97108-38.76645103 36.036419 0 21.441707 11.84866003 34.944406 39.31245703 34.944406 32.326175 0 34.3984-21.294248 34.3984-21.294248h-15.663557s-3.358398 11.466134-19.690354 11.466134c-13.301932 0-22.869203-8.985845-22.869203-21.580814h59.861133v-7.903529c0-12.460384-7.91007-31.668368-36.582425-31.668368zm-.546007 10.101117c12.662062 0 21.294248 7.757047 21.294248 19.383225h-43.680508c0-12.34261 11.267202-19.383225 22.38626-19.383225z" fill="#e53238"/><path d="m75.437762.10007279v83.59702321c0 4.745232-.338677 11.408082-.338677 11.408082h14.939733s.536238-4.785353.536238-9.1587c0 0 7.381193 11.547477 27.451204 11.547477 21.13453 0 35.49041-14.673014 35.49041-35.695165 0-19.556604-13.18634-35.28566-35.45629-35.28566-20.854235 0-27.33444 11.261381-27.33444 11.261381v-37.67443821zm38.766448 36.75305221c14.35199 0 23.47828 10.651661 23.47828 24.945665 0 15.327725-10.54056 25.35517-23.3759 25.35517-15.317854 0-23.58065-11.960116-23.58065-25.218668 0-12.354387 7.414449-25.082167 23.47827-25.082167z" fill="#0064d2"/><path d="m190.6451 26.308378c-31.81215 0-33.85239 17.418776-33.85239 20.202235h15.83418s.83034-10.169369 16.9262-10.169369c10.45935 0 18.56422 4.787411 18.56422 13.991413v3.276038h-18.56422c-24.64532 0-37.67444 7.20973-37.67444 21.840254 0 14.398537 12.03849 22.232696 28.30702 22.232696 22.17148 0 29.31371-12.251017 29.31371-12.251017 0 4.872784.37568 9.67455.37568 9.67455h14.07643s-.54601-5.951939-.54601-9.759864v-32.913945c0-21.581223-17.40751-26.122991-32.76038-26.122991zm17.47221 37.128431v4.368051c0 5.697129-3.51553 19.860981-24.21197 19.860981-11.3333 0-16.1925-5.656156-16.1925-12.216892 0-11.935273 16.36378-12.01214 40.40447-12.01214z" fill="#f5af02"/><path d="m214.87901 29.041161h17.81346l25.56479 51.217345 25.5063-51.217345h16.13644l-46.45929 91.183029h-16.9262l13.40641-25.418513z" fill="#86b817"/></svg>