<svg fill="none" height="167" viewBox="0 0 103 167" width="103" xmlns="http://www.w3.org/2000/svg" xmlns:xlink="http://www.w3.org/1999/xlink"><linearGradient id="a" gradientUnits="userSpaceOnUse" x1="-8.88612" x2="74.0625" y1="147.748" y2="64.5085"><stop offset="0" stop-color="#00b8d9"/><stop offset=".322917" stop-color="#00b8d9"/><stop offset="1" stop-color="#79e2f2"/></linearGradient><clipPath id="b"><path d="m0 0h103v167h-103z"/></clipPath><g clip-path="url(#b)"><path d="m0 0h103v167h-103z" fill="#fff" fill-opacity=".01"/><path d="m40.8643 32.3538c0 1.4055-.5603 2.7534-1.5576 3.7472-.9973.9939-2.3499 1.5522-3.7603 1.5522s-2.7631-.5583-3.7604-1.5522c-.9973-.9938-1.5576-2.3417-1.5576-3.7472-.0115-.3038.012-.608.07-.9065.1937-1.1872.7869-2.2734 1.6822-3.0802.8952-.8068 2.0393-1.286 3.2441-1.359s2.3986.2646 3.3854.9573 1.7077 1.6993 2.0443 2.8544c.1386.4996.2092 1.0156.2099 1.534z" stroke="#253858" stroke-linecap="round" stroke-miterlimit="10" stroke-width="4"/><path d="m68.7133 48.9492c-.3316-.8996-.844-1.7223-1.5057-2.4177s-1.4589-1.2489-2.3428-1.6266l-33.0272-13.5971c-.8017-.3412-1.7037-.3653-2.5226-.0674s-1.4932.8955-1.8857 1.6712l-16.4436 31.6568c-.4523.8391-.7177 1.7656-.7781 2.7162s.0857 1.9031.4283 2.7923l33.8668 92.3211c.6468 1.726 1.9469 3.131 3.6213 3.913 1.6745.782 3.5899.879 5.3352.27l44.9925-16.456c.8547-.311 1.6393-.787 2.3093-1.4.67-.614 1.213-1.353 1.596-2.175s.6-1.712.639-2.618c.038-.906-.103-1.811-.416-2.662z" fill="#0065ff"/><g fill="#deebff"><path d="m30.8359 73.5831-1.9726.7155 26.8925 73.6284 1.9726-.715z" opacity=".81"/><path d="m69.0536 95.1783-1.9725.7155 15.4481 42.2952 1.9726-.715z" opacity=".81"/><path d="m48.6894 67.1217-1.9726.7155 26.8925 73.6288 1.9726-.716z" opacity=".81"/><path d="m39.7646 70.3295-1.9726.7154 26.8925 73.6291 1.9726-.716z" opacity=".81"/></g><path d="m67.1039 59.9662-25.61-23.3591c-2.7989-2.5102-7.0673-2.7194-9.7962-.3486l-10.7059 9.0647-10.0061 19.2451c-.4523.8391-.7177 1.7656-.7781 2.7162s.0857 1.9031.4283 2.7923l33.8668 92.3202c.6468 1.727 1.9469 3.132 3.6213 3.914 1.6745.782 3.5899.879 5.3352.27l16.0938-5.927c-.6298-14.712-3.6386-28.031-1.6794-42.674 2.1692-16.456 4.4083-33.4694 3.0089-50.4134-.2137-2.9284-1.5701-5.6568-3.7786-7.6004z" fill="#091e42" opacity=".2"/><path d="m33.5874 30.6106-25.33018 21.4067c-.70789.6511-1.2583 1.4537-1.60979 2.3475-.3515.8938-.4949 1.8554-.41943 2.8124 2.51902 31.6568-7.55706 65.0568-6.087632 96.8528.137225 1.908.978122 3.697 2.360602 5.023 1.38247 1.326 3.20865 2.095 5.12649 2.159h46.32204c.8299.013 1.6532-.148 2.4171-.471.7638-.324 1.4513-.803 2.018-1.408.5668-.604 1.0005-1.32 1.273-2.101s.378-1.61.3095-2.435c-1.6793-31.866 8.8166-63.7317 6.2276-95.6674-.1685-1.8768-1.0435-3.6206-2.449-4.881l-25.6101-23.3591c-.5997-.5802-1.388-.9273-2.2223-.9785s-1.6594.197-2.3259.6996z" fill="url(#a)"/><path d="m35.5465 48.9492c3.7099 0 6.7174-2.997 6.7174-6.694 0-3.6969-3.0075-6.6939-6.7174-6.6939s-6.7174 2.997-6.7174 6.6939c0 3.697 3.0075 6.694 6.7174 6.694z" fill="#57d9a3"/><path d="m35.5457 46.2995c2.2414 0 4.0585-1.8107 4.0585-4.0443s-1.8171-4.0443-4.0585-4.0443-4.0584 1.8107-4.0584 4.0443 1.817 4.0443 4.0584 4.0443z" fill="#fff"/><path d="m35.1262 52.9237c-1.7022 0-3.3663-.503-4.7816-1.4454-1.4154-.9424-2.5185-2.2819-3.1699-3.849-.6514-1.5672-.8219-3.2917-.4898-4.9554s1.1518-3.1919 2.3555-4.3914c1.2036-1.1994 2.7372-2.0163 4.4067-2.3472s3.4001-.1611 4.9727.4881c1.5727.6491 2.9169 1.7484 3.8626 3.1588s1.4505 3.0686 1.4505 4.7649c0 2.2747-.9068 4.4562-2.5209 6.0646-1.614 1.6084-3.8032 2.512-6.0858 2.512zm-.6997-13.0392c-1.0764 0-2.1087.4261-2.8698 1.1845-.7611.7585-1.1887 1.7872-1.1887 2.8598s.4276 2.1012 1.1887 2.8597c.7611.7584 1.7934 1.1845 2.8698 1.1845 1.0763 0 2.1086-.4261 2.8697-1.1845.7611-.7585 1.1887-1.7871 1.1887-2.8597s-.4276-2.1013-1.1887-2.8598c-.7611-.7584-1.7934-1.1845-2.8697-1.1845z" fill="#0065ff"/><path d="m17.9127 144.408h-2.0992c.2799-11.366 1.6793-22.802 3.2187-34.934 1.7493-14.0159 3.5686-28.5195 3.3587-42.8138h2.0992c.2099 14.4338-1.6094 29.007-3.3587 43.0918-1.5394 12.063-2.9388 23.499-3.2187 34.656z" fill="#e3fcef" opacity=".8836"/><path d="m26.7291 144.408h-2.0992c.2799-11.366 1.6793-22.802 3.2187-34.934 1.7494-14.0159 3.5686-28.4498 3.3587-42.8138h2.0992c.2099 14.4338-1.6094 29.007-3.3587 43.0918-1.5394 12.063-2.9388 23.499-3.2187 34.656z" fill="#e3fcef" opacity=".8836"/><path d="m35.5455 144.408h-2.0992c.2799-11.366 1.6793-22.802 3.2187-34.934 1.7494-14.0159 3.5687-28.4498 3.3587-42.8138h2.0992c.2099 14.4338-1.6094 29.007-3.3587 43.0918-1.5394 12.063-2.9388 23.499-3.2187 34.656z" fill="#e3fcef" opacity=".8836"/><path d="m44.1529 144.408h-2.0992c.2799-11.366 1.6794-22.802 3.2188-34.934.6297-5.16 1.3294-10.5992 1.8892-15.8986l2.0992.2092c-.6297 5.3691-1.2595 10.7384-1.8893 15.9674-1.5394 12.064-2.9388 23.499-3.2187 34.656z" fill="#e3fcef" opacity=".8836"/><path d="m36.596 43.6498h-.07c-.3773-.0355-.7264-.2149-.9741-.5007-.2478-.2859-.3751-.6561-.3554-1.0333 1.2596-14.4338 1.5394-23.0105-6.2975-31.3779-5.108-5.43883-10.356-8.2977-14.3444-7.87933-.938.05777-1.8463.34993-2.6412.84956s-1.4507 1.19064-1.9071 2.00931c-.64468.9669-1.03954 2.07762-1.14941 3.23332-.10987 1.15574.06865 2.32054.51968 3.39094 1.46943 3.2075 5.31793 5.4388 10.84583 6.415 5.5278.9762 9.7962 1.6038 12.665 5.648 2.8689 4.0443 2.9389 8.8555 1.5394 16.8743-.0246.1821-.0869.3571-.183.5139-.0962.1568-.224.2919-.3753.3968-.1514.1049-.323.1773-.5039.2126s-.3673.0327-.5471-.0076c-.3603-.0679-.6794-.274-.8887-.5739-.2094-.2999-.2923-.6697-.2309-1.0299 1.2595-7.1123.9097-11.9236-1.0496-14.7127-1.9592-2.7891-5.8077-3.7654-10.9157-4.6021-6.4375-1.0459-11.05576-3.9048-12.87505-7.9491-.6502-1.4889-.9202-3.1151-.78589-4.7334.13431-1.61827.66875-3.17821 1.55559-4.54046.69923-1.16964 1.66576-2.1582 2.82085-2.88521 1.1552-.727013 2.4663-1.171921 3.8266-1.2985054 4.968-.4881006 10.8458 2.5799554 16.6535 8.7858054 8.6067 9.20417 8.3268 18.68727 7.0673 33.53947-.0349.3452-.1975.665-.4563.8971s-.5951.3597-.9432.358z" fill="#344563"/><path d="m31.7683 31.3079c.2397-.7993.73-1.501 1.399-2.0025.6691-.5014 1.4817-.7761 2.3187-.7839.8371-.0078 1.6547.2517 2.333.7406s1.1817 1.1814 1.4364 1.976c.1151.2632.1631.5506.1399.8368l2.5191 2.301c.2235-.6512.3416-1.3338.3498-2.0221-.0246-.6358-.1184-1.2671-.2799-1.8827-.4408-1.4268-1.3476-2.6658-2.5762-3.52-1.2286-.8543-2.7085-1.2748-4.2044-1.1946-1.496.0801-2.9221.6563-4.0517 1.6369s-1.8979 2.3094-2.1826 3.775c-.07.0697-.07.1395-.07.2789.4347-.243.9201-.3821 1.418-.4063.4978-.0242.9945.0672 1.4509.2669z" fill="#253858"/></g></svg>