<svg xmlns="http://www.w3.org/2000/svg" width="20" height="20" viewBox="0 0 20 20">
    <path fill="#FFF" fill-rule="evenodd" d="M11.028 0c1.8.004 2.18.018 3.095.06 1.064.049 1.791.218 2.427.465.658.256 1.216.597 1.772 1.153s.897 1.114 1.153 1.772c.247.636.416 1.363.465 2.427.048 1.067.06 1.407.06 4.123s-.012 3.056-.06 4.123c-.049 1.064-.218 1.791-.465 2.427-.256.658-.597 1.216-1.153 1.772s-1.114.897-1.772 1.153c-.636.247-1.363.416-2.427.465-1.067.048-1.407.06-4.123.06s-3.056-.012-4.123-.06c-1.064-.049-1.791-.218-2.427-.465-.658-.256-1.216-.597-1.772-1.153S.781 17.208.525 16.55c-.247-.636-.416-1.363-.465-2.427-.042-.914-.056-1.295-.06-3.095V8.972c.004-1.8.018-2.18.06-3.095C.11 4.813.278 4.086.525 3.45c.256-.658.597-1.216 1.153-1.772S2.792.781 3.45.525C4.086.278 4.813.109 5.877.06 6.791.018 7.172.004 8.972 0zm-.472 1.802H9.444c-2.165.002-2.509.014-3.485.058-.975.045-1.504.207-1.857.344-.466.182-.8.399-1.15.748-.35.35-.566.684-.748 1.15-.137.353-.3.882-.344 1.857-.044.976-.056 1.32-.058 3.485v1.112c.002 2.165.014 2.509.058 3.485.045.975.207 1.504.344 1.857.182.466.399.8.748 1.15.35.35.684.566 1.15.748.353.137.882.3 1.857.344.976.044 1.32.056 3.485.058h1.112c2.165-.002 2.509-.014 3.485-.058.975-.045 1.504-.207 1.857-.344.466-.182.8-.399 1.15-.748.35-.35.566-.684.748-1.15.137-.353.3-.882.344-1.857.044-.976.056-1.32.058-3.485V9.444c-.002-2.165-.014-2.509-.058-3.485-.045-.975-.207-1.504-.344-1.857-.182-.466-.399-.8-.748-1.15-.35-.35-.684-.566-1.15-.748-.353-.137-.882-.3-1.857-.344-.976-.044-1.32-.056-3.485-.058zM10 4.865c2.836 0 5.135 2.299 5.135 5.135S12.836 15.135 10 15.135 4.865 12.836 4.865 10 7.164 4.865 10 4.865zm0 1.802c-1.841 0-3.333 1.492-3.333 3.333 0 1.841 1.492 3.333 3.333 3.333 1.841 0 3.333-1.492 3.333-3.333 0-1.841-1.492-3.333-3.333-3.333zm5.338-3.205c.663 0 1.2.537 1.2 1.2 0 .663-.537 1.2-1.2 1.2-.663 0-1.2-.537-1.2-1.2 0-.663.537-1.2 1.2-1.2z"/>
</svg>
