<svg xmlns="http://www.w3.org/2000/svg" width="90" height="30" viewBox="0 0 90 30">
    <g fill="none" fill-rule="evenodd">
        <path fill="#002D62" d="M33.054 0c-2.305 0-4.174 1.869-4.174 4.173v21.452c0 2.305 1.869 4.173 4.174 4.173 2.305 0 4.173-1.868 4.173-4.173V4.173C37.227 1.87 35.359 0 33.054 0"/>
        <path fill="#E21837" d="M22.37.292H4.172C1.868.292 0 2.161 0 4.466 0 6.77 1.868 8.639 4.173 8.639H22.37c2.305 0 4.174-1.869 4.174-4.173 0-2.305-1.869-4.174-4.174-4.174"/>
        <path fill="#002D62" d="M87.66 16.858L78.864 2.541C77.83.877 76.423.074 74.645.074c-1.832 0-3.39.859-4.357 2.467L60.104 19.416c-.696 1.156-1.498 1.636-2.824 1.636h-7.57c-.644 0-1.067-.474-1.067-1.066V4.033C48.64 1.734 46.777 0 44.478 0c-2.3 0-4.164 1.735-4.164 4.034V23.59c0 2.942 2.906 5.791 5.791 5.791h15.24c2.162 0 3.613-1.578 4.848-3.735l7.924-13.601c.07-.15.2-.342.351-.342.161 0 .261.193.342.332l5.19 8.322c.215.353.256.532.118.846-.123.287-.404.348-.862.348H71.971c-2.163 0-3.916 1.752-3.916 3.915 0 2.162 1.753 3.915 3.916 3.915h11.885c2.886 0 6.144-2.753 6.144-6.348 0-2.279-.439-3.082-2.34-6.175M20.366 10.976H4.173C1.868 10.976 0 12.845 0 15.15v10.183c0 2.305 1.868 4.173 4.173 4.173 2.305 0 4.174-1.868 4.174-4.173v-4.758c0-.691.56-1.252 1.252-1.252h10.767c2.305 0 4.174-1.869 4.174-4.173 0-2.305-1.869-4.174-4.174-4.174"/>
    </g>
</svg>
