<svg width="18" height="14" viewBox="0 0 18 14" xmlns="http://www.w3.org/2000/svg">
    <path d="M16.114 0H1.886A1.888 1.888 0 0 0 0 1.886v9.943c0 1.028.836 1.885 1.886 1.885h14.228A1.888 1.888 0 0 0 18 11.83V1.886C18 .836 17.164 0 16.114 0zm0 .857c.257 0 .515.107.686.279L9.857 7.157a1.304 1.304 0 0 1-1.714 0L1.2 1.114c.171-.171.429-.257.686-.257h14.228zm-14.228 12c-.215 0-.407-.064-.579-.171L6.43 8.25a.435.435 0 0 0 .042-.6.435.435 0 0 0-.6-.043L.857 11.936V1.97L7.586 7.8c.407.364.921.536 1.414.536.493 0 1.007-.172 1.414-.536l6.729-5.829v9.858c0 .085-.022.171-.043.257l-5.164-4.479a.435.435 0 0 0-.6.043.435.435 0 0 0 .043.6l5.185 4.5a.996.996 0 0 1-.45.107H1.886z" fill="#FFF" fill-rule="nonzero"/>
</svg>
