<svg xmlns="http://www.w3.org/2000/svg" width="15" height="15" viewBox="0 0 15 15">
    <path fill="#0B1F3F" d="M11.497 1.972c2.36 2.361 2.602 6.04.724 8.67l.07.06 2.38 2.382c.439.438.439 1.149 0 1.587-.404.405-1.041.436-1.481.094l-.106-.094-2.381-2.38c-.022-.023-.043-.046-.063-.07-2.629 1.878-6.307 1.636-8.668-.724-2.63-2.63-2.63-6.895 0-9.525 2.63-2.63 6.895-2.63 9.525 0zM3.56 3.56c-1.753 1.753-1.753 4.596 0 6.35 1.753 1.753 4.596 1.753 6.35 0 1.753-1.754 1.753-4.597 0-6.35-1.754-1.753-4.597-1.753-6.35 0z"/>
</svg>
