<svg xmlns="http://www.w3.org/2000/svg" width="22" height="18" viewBox="0 0 22 18">
    <path fill="#FFF" fill-rule="evenodd" d="M21.6 2.13c-.794.362-1.648.607-2.545.716.916-.562 1.618-1.452 1.95-2.513-.858.52-1.805.898-2.817 1.101C17.382.551 16.23 0 14.954 0c-2.446 0-4.43 2.035-4.43 4.544 0 .356.038.702.114 1.035-3.683-.19-6.947-1.997-9.134-4.75-.382.674-.6 1.455-.6 2.287 0 1.576.782 2.967 1.971 3.782-.725-.022-1.41-.228-2.008-.566v.055c0 2.203 1.528 4.04 3.556 4.456-.371.107-.763.16-1.167.16-.285 0-.564-.027-.834-.08.564 1.804 2.2 3.118 4.139 3.153-1.516 1.22-3.428 1.947-5.504 1.947-.357 0-.71-.021-1.057-.063C1.961 17.247 4.292 18 6.793 18c8.152 0 12.609-6.923 12.609-12.928 0-.198-.004-.396-.012-.59.866-.64 1.618-1.44 2.21-2.351"/>
</svg>
