<svg width="125" height="120" viewBox="0 0 125 120" fill="none" xmlns="http://www.w3.org/2000/svg">
<path d="M125 60C125 66.2691 114.94 70.8647 113.111 76.521C111.216 82.3834 116.6 92.0295 113.065 96.9096C109.494 101.839 98.6748 99.6573 93.7691 103.243C88.9114 106.795 87.6532 117.826 81.8176 119.73C76.1871 121.565 68.7404 113.444 62.5 113.444C56.2596 113.444 48.8129 121.565 43.1824 119.729C37.3468 117.826 36.0886 106.795 31.2309 103.242C26.3252 99.6546 15.5033 101.838 11.9352 96.9082C8.39989 92.0281 13.7842 82.382 11.8887 76.5197C10.0602 70.8647 0 66.2691 0 60C0 53.7309 10.0602 49.1353 11.8887 43.479C13.7842 37.6166 8.39989 27.9705 11.9352 23.0904C15.506 18.1609 26.3252 20.3426 31.2309 16.7568C36.0886 13.2053 37.3468 2.17431 43.1824 0.270093C48.8129 -1.56543 56.2596 6.55564 62.5 6.55564C68.7404 6.55564 76.1871 -1.56542 81.8176 0.271468C87.6532 2.17431 88.9114 13.2053 93.7691 16.7582C98.6748 20.3454 109.497 18.1623 113.065 23.0918C116.6 27.9719 111.216 37.6179 113.111 43.4803C114.94 49.1353 125 53.7309 125 60Z" fill="url(#paint0_linear)"/>
<path d="M63.2785 29.2997L45.2853 63.1705C45.088 63.5423 44.99 63.9589 45.0008 64.3798C45.0116 64.8007 45.1308 65.2116 45.3469 65.5729C45.563 65.9341 45.8686 66.2333 46.2342 66.4416C46.5998 66.6499 47.0129 66.7601 47.4335 66.7616H56.8916C57.2123 66.7614 57.5298 66.8244 57.8261 66.9471C58.1224 67.0698 58.3916 67.2498 58.6184 67.4766C58.8452 67.7035 59.0251 67.9729 59.1478 68.2694C59.2706 68.5659 59.3338 68.8837 59.3338 69.2047V89.5524C59.3338 92.0684 62.6742 92.9428 63.9035 90.7471L82.6892 57.2009C82.897 56.8291 83.0041 56.4095 82.9999 55.9835C82.9957 55.5576 82.8804 55.1401 82.6654 54.7725C82.4504 54.4049 82.1432 54.0999 81.7742 53.8878C81.4052 53.6756 80.9872 53.5637 80.5616 53.563L70.3082 53.552C69.6615 53.5509 69.0416 53.2931 68.5845 52.8351C68.1275 52.3771 67.8706 51.7563 67.8702 51.1089V30.4477C67.8743 27.9015 64.4721 27.0532 63.2785 29.2997Z" fill="white"/>
<defs>
<linearGradient id="paint0_linear" x1="62.5" y1="0" x2="62.5" y2="120" gradientUnits="userSpaceOnUse">
<stop stop-color="#00FBFF"/>
<stop offset="0.9999" stop-color="#10DCE8"/>
<stop offset="1" stop-color="#09C9E3"/>
</linearGradient>
</defs>
</svg>
