<svg width="553" height="176" viewBox="0 0 553 176" fill="none" xmlns="http://www.w3.org/2000/svg">
<path d="M227.18 67.7869C227.18 63.459 229.804 60.4426 233.347 60.4426C235.84 60.4426 238.333 61.3607 239.645 62.6721L244.107 49.4262C240.039 45.6229 233.347 43 227.574 43C214.845 43 205.923 52.0492 205.923 64.7705V69.623H197V87.3279H205.923V137.426H227.18V87.3279H241.22V69.623H227.18V67.7869Z" fill="#0D0543"/>
<path d="M293.139 69.623V109.098L293.008 108.705C293.008 115.393 287.89 120.508 281.067 120.508C274.244 120.508 269.52 115.262 269.52 107.787V69.623H248.263V112.771C248.263 128.115 258.629 139 273.194 139C281.723 139 288.94 135.459 293.139 129.689V137.426H315.315V69.623H293.139Z" fill="#0D0543"/>
<path d="M358.628 121.033C351.411 121.033 346.032 116.443 343.932 109.623H392.351C392.351 83.7869 379.754 68.0492 358.235 68.0492C337.765 68.0492 322.806 82.7377 322.806 103.328C322.806 124.18 338.29 139 359.285 139C369.388 139 381.066 134.672 387.102 128.508L373.981 115.262C369.913 118.803 363.877 121.033 358.628 121.033ZM358.628 85.8853C365.32 85.8853 369.913 89.9508 371.75 96.1148H344.195C346.556 89.8197 351.936 85.8853 358.628 85.8853Z" fill="#0D0543"/>
<path d="M400.197 137.426H422.504V45.7541H400.197V137.426Z" fill="#0D0543"/>
<path d="M466.211 121.033C458.994 121.033 453.614 116.443 451.515 109.623H499.934C499.934 83.7869 487.337 68.0492 465.817 68.0492C445.347 68.0492 430.389 82.7377 430.389 103.328C430.389 124.18 445.872 139 466.867 139C476.971 139 488.649 134.672 494.685 128.508L481.563 115.262C477.495 118.803 471.46 121.033 466.211 121.033ZM466.211 85.8853C472.903 85.8853 477.496 89.9508 479.333 96.1148H451.777C454.139 89.8197 459.519 85.8853 466.211 85.8853Z" fill="#0D0543"/>
<path d="M529.693 82.2131V69.623H507.518V137.426H529.693V106.607L529.824 106.869C529.824 94.4098 538.222 86.541 552 86.541V68.0492C542.159 68.0492 534.155 73.4262 529.693 82.2131Z" fill="#0D0543"/>
<path d="M84.5 0.5C93.2767 0.5 99.7106 14.5842 107.629 17.1441C115.837 19.7979 129.341 12.2599 136.173 17.2092C143.075 22.2084 140.02 37.3553 145.041 44.2232C150.013 51.0241 165.456 52.7856 168.122 60.9554C170.692 68.8381 159.322 79.2634 159.322 88C159.322 96.7366 170.692 107.162 168.12 115.045C165.456 123.214 150.013 124.976 145.039 131.777C140.016 138.645 143.073 153.795 136.172 158.791C129.339 163.74 115.835 156.202 107.628 158.856C99.7106 161.416 93.2767 175.5 84.5 175.5C75.7233 175.5 69.2894 161.416 61.3706 158.856C53.1632 156.202 39.6587 163.74 32.8266 158.791C25.9253 153.792 28.9797 138.645 23.9595 131.777C18.9874 124.976 3.54403 123.214 0.87813 115.045C-1.6916 107.162 9.6779 96.7366 9.6779 88C9.6779 79.2634 -1.69159 68.8381 0.880056 60.9554C3.54403 52.7856 18.9874 51.0241 23.9614 44.2232C28.9835 37.3553 25.9272 22.2046 32.8285 17.2092C39.6606 12.2599 53.1651 19.7979 61.3725 17.1441C69.2894 14.5842 75.7233 0.5 84.5 0.5Z" fill="url(#paint0_linear)"/>
<path d="M83.0507 46.7262L59.3754 91.7108C59.1158 92.2046 58.9869 92.7579 59.0011 93.3169C59.0152 93.8759 59.1721 94.4217 59.4564 94.9015C59.7408 95.3812 60.1429 95.7787 60.6239 96.0553C61.105 96.3318 61.6485 96.4782 62.202 96.4802H74.6469C75.0688 96.4799 75.4866 96.5637 75.8764 96.7266C76.2663 96.8896 76.6205 97.1286 76.9189 97.4299C77.2174 97.7312 77.4541 98.089 77.6156 98.4828C77.7771 98.8766 77.8602 99.2987 77.8602 99.7249V126.749C77.8602 130.091 82.2555 131.252 83.873 128.336L108.591 83.7824C108.864 83.2887 109.005 82.7313 109 82.1656C108.994 81.5999 108.843 81.0455 108.56 80.5573C108.277 80.069 107.873 79.664 107.387 79.3822C106.902 79.1004 106.352 78.9518 105.792 78.9509L92.3003 78.9363C91.4493 78.9348 90.6337 78.5924 90.0323 77.9841C89.4309 77.3758 89.0929 76.5513 89.0924 75.6915V48.2509C89.0978 44.8692 84.6212 43.7425 83.0507 46.7262Z" fill="white"/>
<path d="M438 12.5714C438 7.83755 442.083 4 447.12 4H542.88C547.917 4 552 7.83756 552 12.5714V40.4286C552 45.1624 547.917 49 542.88 49H447.12C442.083 49 438 45.1624 438 40.4286V12.5714Z" fill="#DBFFFD"/>
<path fill-rule="evenodd" clip-rule="evenodd" d="M543.88 6.43507H448.12C444.514 6.43507 441.591 9.18241 441.591 12.5714V40.4286C441.591 43.8176 444.514 46.5649 448.12 46.5649H543.88C547.486 46.5649 550.409 43.8176 550.409 40.4286V12.5714C550.409 9.18241 547.486 6.43507 543.88 6.43507ZM448.12 4C443.083 4 439 7.83755 439 12.5714V40.4286C439 45.1624 443.083 49 448.12 49H543.88C548.917 49 553 45.1624 553 40.4286V12.5714C553 7.83756 548.917 4 543.88 4H448.12Z" fill="url(#paint1_linear)"/>
<path d="M465 33H472.271C474.929 33 476.825 31.4512 476.825 29.2096C476.825 27.6812 475.906 26.3566 474.362 25.6434C475.535 25.032 476.219 23.9112 476.219 22.5255C476.219 20.4876 474.499 19 472.017 19H465V33ZM468.323 24.5429V21.9549H471.196C472.115 21.9549 472.779 22.4847 472.779 23.2387C472.779 23.9927 472.115 24.5429 471.196 24.5429H468.323ZM468.323 30.0451V27.2329H471.704C472.681 27.2329 473.385 27.8239 473.385 28.639C473.385 29.4541 472.681 30.0451 471.704 30.0451H468.323Z" fill="#0D0543"/>
<path d="M493.206 22.1179V19H482.631V33H493.206V29.8821H485.974V27.4163H492.541V24.2984H485.974V22.1179H493.206Z" fill="#0D0543"/>
<path d="M502.538 33H505.88V22.1179H509.946V19H498.453V22.1179H502.538V33Z" fill="#0D0543"/>
<path d="M524.247 33H528L522.684 19H518.931L513.615 33H517.367L518.149 30.9622H523.465L524.247 33ZM519.185 28.2314L520.807 23.9316L522.43 28.2314H519.185Z" fill="#0D0543"/>
<defs>
<linearGradient id="paint0_linear" x1="17" y1="25" x2="152.5" y2="152" gradientUnits="userSpaceOnUse">
<stop stop-color="#00FBFF"/>
<stop offset="0.9999" stop-color="#10DCE8"/>
<stop offset="1" stop-color="#09C9E3"/>
</linearGradient>
<linearGradient id="paint1_linear" x1="496" y1="4" x2="496" y2="49" gradientUnits="userSpaceOnUse">
<stop stop-color="#00FBFF"/>
<stop offset="0.9999" stop-color="#10DCE8"/>
<stop offset="1" stop-color="#09C9E3"/>
</linearGradient>
</defs>
</svg>
