<svg width="45" height="46" viewBox="0 0 45 46" fill="none" xmlns="http://www.w3.org/2000/svg">
<path d="M33.4616 10.7498L38.6871 25.5843C38.8866 26.1496 38.5902 26.7679 38.0249 26.9674L12.2439 36.0504C11.6795 36.249 11.0603 35.9535 10.8617 35.3873L5.63619 20.5527C5.43668 19.9875 5.73311 19.3692 6.29837 19.1697L32.0803 10.0875C32.6438 9.88811 33.2621 10.1845 33.4616 10.7498Z" fill="url(#paint0_linear)"/>
<path d="M33.4621 10.7495L33.7514 11.5696L24.9769 24.145C24.1375 25.4 22.5795 25.9639 21.1305 25.5371L5.80175 21.0213L5.63665 20.5525C5.43714 19.9872 5.73442 19.3679 6.29883 19.1694L32.079 10.0873C32.6442 9.88783 33.2626 10.1843 33.4621 10.7495Z" fill="white"/>
<defs>
<linearGradient id="paint0_linear" x1="11.4192" y1="13.3278" x2="32.9037" y2="32.8097" gradientUnits="userSpaceOnUse">
<stop stop-color="#00FBFF"/>
<stop offset="0.9999" stop-color="#10DCE8"/>
<stop offset="1" stop-color="#09C9E3"/>
</linearGradient>
</defs>
</svg>
