<svg width="96" height="28" viewBox="0 0 96 28" fill="none" xmlns="http://www.w3.org/2000/svg">
<path fill-rule="evenodd" clip-rule="evenodd" d="M39.1554 19.9303L33.8799 13.8118V19.9303H30.1967V0.09375H33.8799V10.2244L38.1712 5.03562H43.1852L37.0497 12.0174L44.1669 19.9303H39.1554ZM59.9913 14.9964C59.9903 18.3223 62.6417 20.309 65.3091 20.309C66.303 20.309 67.6825 20.0013 68.8079 19.3714L66.4504 16.4059C66.1292 16.6118 65.7237 16.7722 65.2543 16.7722C64.67 16.7722 63.5682 16.3502 63.5682 14.9447V8.57077H66.6271V5.03543H63.5682L63.5679 1.32376H59.991L59.9913 5.03543H58.099V8.57077H59.9913L59.9913 14.9964ZM10.1153 12.9672L15.6505 19.9302H10.9676L6.38688 14.1597H3.74094V19.9302H0V1.32387H6.18212C9.92762 1.32387 12.9732 4.19892 12.9732 7.73871C12.9732 9.89415 11.8403 11.797 10.1153 12.9672ZM86.562 5.58934C86.562 5.58934 87.8427 4.66974 89.6021 4.66974C93.4014 4.66974 96 7.59036 96 11.1805V19.9302H92.4231V11.1805C92.4231 9.53927 91.2291 8.15313 89.4928 8.15313C87.7549 8.15313 86.562 9.53926 86.562 11.1805V19.9302H82.9851V5.03558H86.562V5.58934ZM21.2104 20.2961C17.1414 20.2961 14.0503 16.7914 14.0503 12.4835C14.0503 8.17659 17.1414 4.66983 21.2104 4.66983C22.5348 4.66983 23.502 5.0475 24.5804 5.69662V5.03563H28.1571V19.9303H24.5804V19.2698C23.502 19.9201 22.5348 20.2961 21.2104 20.2961ZM19.2 22.7212H77.2809L23.8266 27.0937L19.2 22.7212ZM24.635 12.4834C24.635 14.8421 23.2192 16.7094 21.2103 16.7094C19.204 16.7094 17.7349 14.8421 17.7349 12.4834C17.7349 10.1264 19.204 8.25888 21.2103 8.25888C23.2192 8.25888 24.635 10.1264 24.635 12.4834ZM50.1929 20.2962C51.9523 20.2962 53.2331 19.3765 53.2331 19.3765V19.9303H56.81V5.03568H53.2331V13.7854C53.2331 15.4267 52.0401 16.8128 50.3023 16.8128C48.566 16.8128 47.372 15.4267 47.372 13.7854V5.03568H43.7951V13.7854C43.7951 17.3756 46.3937 20.2962 50.1929 20.2962ZM6.18216 4.85669C7.86201 4.85669 9.23586 6.14819 9.23586 7.73883C9.23586 9.33376 7.862 10.6244 6.18216 10.6243H3.74098V4.85669H6.18216ZM81.561 13.5256L71.2577 13.5235C71.7278 16.9272 75.7999 18.6549 78.2433 15.251L81.4025 16.9752C79.3717 19.6981 76.9544 20.3094 75.0679 20.3094C71.3305 20.3094 67.603 17.0958 67.603 12.4829C67.603 8.09585 70.5726 4.65765 74.7125 4.65765C78.7825 4.65766 82.4425 8.17595 81.561 13.5256ZM77.8349 10.5604C77.1379 6.87171 72.1455 7.07185 71.3927 10.5604H77.8349Z" fill="#8529CD"/>
</svg>
