<svg xmlns="http://www.w3.org/2000/svg" xmlns:xlink="http://www.w3.org/1999/xlink" width="120" height="40" xmlns:v="https://vecta.io/nano"><path d="M110.135 0H9.535L8.44.002l-.919.013C6.85.023 6.18.082 5.517.191S4.215.515 3.616.818a6.44 6.44 0 0 0-1.619 1.179A6.26 6.26 0 0 0 .819 3.618a6.6 6.6 0 0 0-.625 1.903C.083 6.183.023 6.853.015 7.523L0 8.444v23.114l.015.922a12.99 12.99 0 0 0 .179 2.002 6.59 6.59 0 0 0 .625 1.904 6.21 6.21 0 0 0 1.178 1.614c.473.477 1.019.875 1.619 1.179a6.7 6.7 0 0 0 1.901.631c.663.109 1.332.168 2.004.177l.919.011L9.535 40h100.6l1.084-.002.922-.011a13.28 13.28 0 0 0 2-.177c.664-.115 1.307-.327 1.908-.631s1.145-.702 1.617-1.179.875-1.018 1.182-1.614.511-1.242.619-1.904.174-1.331.186-2.002l.004-.922.008-1.094V9.536l-.008-1.092-.004-.921c-.012-.671-.074-1.34-.186-2.002a6.62 6.62 0 0 0-.619-1.903c-.617-1.203-1.596-2.182-2.799-2.8a6.77 6.77 0 0 0-1.908-.627c-.661-.11-1.33-.169-2-.177l-.922-.013L110.135 0h0z" fill="#a6a6a6"/><path d="M8.445 39.125a39.93 39.93 0 0 1-.904-.011c-.626-.008-1.251-.063-1.869-.163-.576-.099-1.135-.284-1.657-.548s-.989-.605-1.397-1.017a5.32 5.32 0 0 1-1.021-1.396 5.72 5.72 0 0 1-.543-1.657c-.103-.62-.159-1.247-.166-1.875l-.015-.913V8.444l.015-.895a12.37 12.37 0 0 1 .166-1.872c.095-.578.279-1.139.543-1.662.261-.518.604-.99 1.015-1.398s.884-.757 1.402-1.022 1.078-.446 1.653-.544C6.288.95 6.915.895 7.543.887l.902-.012h102.769l.913.013c.623.007 1.244.062 1.858.163a5.94 5.94 0 0 1 1.671.548c1.038.535 1.882 1.381 2.415 2.42.261.52.441 1.075.535 1.649.104.624.162 1.255.174 1.887l.003.89.008 1.092v20.929l-.008 1.075-.004.93a12.73 12.73 0 0 1-.171 1.853 5.74 5.74 0 0 1-.54 1.67 5.48 5.48 0 0 1-1.016 1.386c-.409.414-.881.759-1.399 1.023a5.86 5.86 0 0 1-1.668.55 12.54 12.54 0 0 1-1.869.163l-.897.011-1.084.002-101.69-.002z" fill="#000"/><g fill="#fff"><path d="M24.769 20.301a4.95 4.95 0 0 1 2.357-4.152c-.916-1.308-2.395-2.108-3.991-2.158-1.679-.176-3.307 1.005-4.163 1.005-.872 0-2.19-.987-3.608-.958-1.867.06-3.565 1.096-4.473 2.728-1.934 3.348-.491 8.269 1.361 10.976.927 1.325 2.01 2.806 3.428 2.753 1.387-.058 1.905-.884 3.579-.884 1.659 0 2.145.884 3.591.851 1.488-.024 2.426-1.331 3.321-2.669a10.96 10.96 0 0 0 1.518-3.093 4.78 4.78 0 0 1-2.919-4.399zm-2.732-8.09a4.87 4.87 0 0 0 1.115-3.491 4.96 4.96 0 0 0-3.208 1.66c-.812.924-1.224 2.134-1.144 3.361a4.1 4.1 0 0 0 3.237-1.53zM42.302 27.14h-4.733l-1.137 3.356h-2.005l4.483-12.418h2.083l4.483 12.418h-2.039l-1.136-3.356zm-4.243-1.549h3.752l-1.85-5.447h-.052l-1.851 5.447zm17.101.379c0 2.813-1.506 4.621-3.778 4.621a3.07 3.07 0 0 1-2.849-1.584h-.043v4.484h-1.858V21.442h1.799v1.506h.034a3.21 3.21 0 0 1 2.883-1.601c2.298 0 3.813 1.816 3.813 4.622zm-1.91 0c0-1.833-.947-3.038-2.393-3.038-1.42 0-2.375 1.23-2.375 3.038 0 1.824.955 3.046 2.375 3.046 1.445 0 2.393-1.196 2.393-3.046zm11.875 0c0 2.813-1.506 4.621-3.778 4.621a3.07 3.07 0 0 1-2.849-1.584h-.043v4.484h-1.858V21.442h1.799v1.506h.034a3.21 3.21 0 0 1 2.883-1.601c2.298 0 3.813 1.816 3.813 4.622zm-1.91 0c0-1.833-.947-3.038-2.393-3.038-1.42 0-2.375 1.23-2.375 3.038 0 1.824.955 3.046 2.375 3.046 1.445 0 2.393-1.196 2.393-3.046h0zm8.495 1.066c.138 1.231 1.334 2.04 2.969 2.04 1.566 0 2.693-.809 2.693-1.919 0-.964-.68-1.541-2.289-1.937l-1.609-.388c-2.28-.551-3.339-1.617-3.339-3.348 0-2.143 1.867-3.614 4.519-3.614 2.624 0 4.423 1.472 4.483 3.614h-1.876c-.112-1.239-1.137-1.987-2.634-1.987s-2.521.757-2.521 1.858c0 .878.654 1.395 2.255 1.79l1.368.336c2.548.603 3.606 1.626 3.606 3.442 0 2.323-1.851 3.778-4.794 3.778-2.754 0-4.613-1.421-4.733-3.667h1.902zM83.346 19.3v2.143h1.722v1.472h-1.722v4.991c0 .775.345 1.137 1.102 1.137a5.81 5.81 0 0 0 .611-.043v1.463a5.1 5.1 0 0 1-1.032.086c-1.833 0-2.548-.688-2.548-2.444v-5.189h-1.316v-1.472h1.316V19.3h1.867zm2.719 6.67c0-2.849 1.678-4.639 4.294-4.639 2.625 0 4.295 1.79 4.295 4.639 0 2.856-1.661 4.639-4.295 4.639s-4.294-1.782-4.294-4.639zm6.695 0c0-1.954-.896-3.107-2.401-3.107s-2.4 1.162-2.4 3.107c0 1.962.895 3.106 2.4 3.106s2.401-1.145 2.401-3.106h0zm3.426-4.528h1.772v1.541h.043a2.16 2.16 0 0 1 2.178-1.636c.214-.001.428.023.637.069v1.738a2.6 2.6 0 0 0-.835-.112c-.546-.022-1.075.196-1.447.596s-.551.944-.489 1.487v5.37h-1.858v-9.054zm13.198 6.395c-.25 1.644-1.851 2.771-3.898 2.771-2.634 0-4.269-1.765-4.269-4.596 0-2.84 1.644-4.682 4.19-4.682 2.505 0 4.08 1.721 4.08 4.466v.637h-6.395v.112a2.36 2.36 0 0 0 2.436 2.564 2.05 2.05 0 0 0 2.091-1.273h1.765zm-6.282-2.702h4.526c.034-.606-.187-1.198-.608-1.634s-1.006-.677-1.612-.664a2.29 2.29 0 0 0-2.306 2.298zM37.826 8.731a2.64 2.64 0 0 1 2.808 2.965c0 1.906-1.03 3.002-2.808 3.002h-2.155V8.731h2.155zm-1.229 5.123h1.125c.564.034 1.113-.188 1.495-.605s.556-.982.473-1.541a1.88 1.88 0 0 0-1.968-2.134h-1.125v4.28zm5.084-1.41c-.077-.807.31-1.588.999-2.016a2.13 2.13 0 0 1 2.25 0c.689.428 1.076 1.209.999 2.016a2.13 2.13 0 0 1-.998 2.019c-.69.428-1.562.428-2.252 0s-1.076-1.211-.998-2.019zm3.333 0c0-.976-.438-1.547-1.208-1.547s-1.207.571-1.207 1.547c0 .984.435 1.55 1.207 1.55s1.208-.57 1.208-1.55h0zm6.559 2.254h-.922l-.931-3.316h-.07l-.927 3.316h-.913l-1.241-4.503h.901l.807 3.436h.066l.926-3.436h.853l.926 3.436h.07l.803-3.436h.889z"/><use xlink:href="#B"/><path d="M59.094 8.437h.889v6.261h-.889zm2.124 4.007c-.077-.807.31-1.588.999-2.016a2.13 2.13 0 0 1 2.25 0c.689.428 1.076 1.209.999 2.016a2.13 2.13 0 0 1-.998 2.019c-.69.428-1.563.428-2.252 0s-1.076-1.211-.998-2.019zm3.333 0c0-.976-.438-1.547-1.208-1.547s-1.207.571-1.207 1.547c0 .984.435 1.55 1.207 1.55s1.208-.57 1.208-1.55h0zm1.85.98c0-.811.604-1.278 1.675-1.344l1.22-.07v-.389c0-.476-.314-.744-.922-.744-.496 0-.84.182-.938.5h-.86c.091-.773.818-1.27 1.84-1.27 1.129 0 1.766.562 1.766 1.513v3.077h-.855v-.633h-.07c-.291.462-.807.732-1.353.707a1.36 1.36 0 0 1-1.501-1.348zm2.895-.385v-.376l-1.1.07c-.62.041-.901.252-.901.649 0 .405.352.641.835.641a1.06 1.06 0 0 0 1.166-.984zm2.052-.595c0-1.423.731-2.324 1.869-2.324.574-.026 1.113.281 1.381.79h.066V8.437h.889v6.261h-.852v-.711h-.07c-.289.504-.833.807-1.414.786-1.146 0-1.869-.901-1.869-2.328zm.918 0c0 .955.45 1.53 1.203 1.53s1.212-.583 1.212-1.526-.468-1.53-1.212-1.53-1.203.579-1.203 1.526h0zm6.964 0c-.077-.807.31-1.588.999-2.016a2.13 2.13 0 0 1 2.25 0c.689.428 1.076 1.209.999 2.016a2.13 2.13 0 0 1-.998 2.019c-.69.428-1.562.428-2.252 0s-1.076-1.211-.998-2.019zm3.333 0c0-.976-.438-1.547-1.208-1.547s-1.207.571-1.207 1.547c0 .984.435 1.55 1.207 1.55s1.208-.57 1.208-1.55z"/><use xlink:href="#B" x="30.815"/><path d="M93.515 9.074v1.142h.976v.749h-.976v2.315c0 .472.194.678.637.678.113 0 .226-.007.339-.021v.74a2.8 2.8 0 0 1-.483.045c-.988 0-1.382-.348-1.382-1.216v-2.543h-.715v-.749h.715v-1.14h.89zm2.19-.637h.881v2.481h.07c.242-.531.791-.854 1.373-.807.441-.024.87.15 1.17.475s.439.766.381 1.204v2.907h-.89V12.01c0-.719-.335-1.084-.963-1.084a1.05 1.05 0 0 0-1.134 1.142v2.63h-.889V8.437zm9.056 5.045a1.83 1.83 0 0 1-1.951 1.303c-.6.016-1.177-.233-1.578-.681s-.584-1.049-.502-1.644c-.08-.597.103-1.199.501-1.65a2.08 2.08 0 0 1 1.575-.703c1.253 0 2.009.856 2.009 2.27v.31h-3.18v.05a1.19 1.19 0 0 0 1.199 1.29 1.08 1.08 0 0 0 1.071-.546h.855zm-3.126-1.451h2.274c.023-.306-.085-.607-.296-.829s-.506-.345-.813-.338a1.15 1.15 0 0 0-1.166 1.167h0z"/></g><defs ><path id="B" d="M53.854 10.195h.855v.715h.066a1.35 1.35 0 0 1 1.344-.802c.444-.033.879.137 1.182.463s.442.772.377 1.212v2.915h-.889v-2.692c0-.724-.314-1.084-.972-1.084-.301-.014-.593.104-.8.323s-.307.518-.275.818v2.634h-.889v-4.503z"/></defs></svg>