<?xml version="1.0" encoding="UTF-8"?>
<svg width="524px" height="196px" viewBox="0 0 524 196" version="1.1" xmlns="http://www.w3.org/2000/svg" xmlns:xlink="http://www.w3.org/1999/xlink">
    <!-- Generator: Sketch 51.1 (57501) - http://www.bohemiancoding.com/sketch -->
    <title>Sensibull-logo-with-text-horizontal</title>
    <desc>Created with Sketch.</desc>
    <defs></defs>
    <g id="Sensibull-logo-with-text-horizontal" stroke="none" stroke-width="1" fill="none" fill-rule="evenodd">
        <g id="logo/with-text/dark" transform="translate(33.000000, 21.000000)">
            <g id="Group-2">
                <g id="logo">
                    <g transform="translate(116.500000, 79.500000) scale(-1, 1) translate(-116.500000, -79.500000) translate(-0.924603, -0.924419)" id="g10">
                        <g transform="translate(117.424603, 80.655523) scale(-1, 1) rotate(-180.000000) translate(-117.424603, -80.655523) translate(0.000000, 0.693314)" fill-rule="nonzero">
                            <g id="g12" transform="translate(65.166956, 25.268058)" fill="#EA4403">
                                <polygon id="path14" points="13.8690476 28.8880814 0.0300496032 12.9984811 6.3196627 0.420610465 41.1991617 2.1365625 41.7712599 11.8545131 30.3350744 9.56773256 14.3244147 8.42492006 13.7523165 12.4264971 34.9095486 22.7164317"></polygon>
                            </g>
                            <g id="g16" transform="translate(202.950512, 81.580057)" fill="#EA4403">
                                <polygon id="path18" points="4.62301587 12.7107558 24.0639534 5.85041424 28.6384276 10.9959593 30.9256647 10.4239753 25.7790923 0.704869186 0.620639881 7.56521076"></polygon>
                            </g>
                            <g id="g20" transform="translate(117.020089, 0.577762)" fill="#EA4403">
                                <polygon id="path22" points="33.5168651 24.2659884 29.8554365 14.6381686 10.9796627 6.06649709 9.35813988 0.581228198 0 0.581228198 4.78482143 10.8191642 21.3664236 19.9662863 20.7943254 49.6932776 61.9634375 62.2711483 63.6785764 55.4108067"></polygon>
                            </g>
                            <g id="g24" transform="translate(70.829457, 1.159452)" fill="#FF5000">
                                <polygon id="path26" points="8.09027778 0 17.2392262 0 22.9567411 9.09396802 10.9496131 53.1136265 0.656468254 53.6856105 13.1074058 9.91438953"></polygon>
                            </g>
                            <g id="g28" transform="translate(174.640781, 0.936552)" fill="#FF5000">
                                <polygon id="path30" points="32.3611111 70.4869186 32.3611111 45.3323328 38.6507242 44.7615044 30.073874 0.169861919 20.3528274 0.169861919 21.4970238 7.03020349 26.071498 32.7556177 4.26704365 55.524048 0.339791667 59.625"></polygon>
                            </g>
                            <g id="g32" transform="translate(0.900101, 39.713254)" fill="#FF5000">
                                <polygon id="path34" points="24.2708333 25.4215116 24.2708333 20.2771221 43.4262996 1.12547965 52.288621 1.12547965 52.288621 19.7051381 78.1359028 13.2989172 119.188284 3.12684593 206.102138 31.1390407 206.67308 54.5776744 162.645789 76.8723401 82.5936458 119.749186 24.2708333 62.01 24.2708333 39.7141788 0.255421627 39.7141788"></polygon>
                            </g>
                        </g>
                    </g>
                </g>
                <path d="M271.664,98.576 C266.96,98.576 263.888,96.8 261.536,93.872 L264.896,90.8 C266.72,93.008 268.976,94.352 271.952,94.352 C274.976,94.352 276.512,93.104 276.512,90.992 C276.512,89.408 275.552,88.208 272.96,87.872 L270.656,87.584 C265.568,86.96 262.448,84.752 262.448,80.144 C262.448,75.296 266.24,72.464 271.712,72.464 C276.224,72.464 278.768,73.952 281.024,76.448 L277.808,79.52 C276.512,77.984 274.4,76.688 271.712,76.688 C268.832,76.688 267.488,77.936 267.488,79.808 C267.488,81.728 268.688,82.592 271.328,83.024 L273.632,83.312 C279.104,84.128 281.552,86.528 281.552,90.56 C281.552,95.36 277.664,98.576 271.664,98.576 Z M297.848,98.576 C290.744,98.576 286.376,93.488 286.376,85.52 C286.376,77.552 290.744,72.464 297.848,72.464 C305.192,72.464 308.936,77.984 308.936,84.896 L308.936,86.864 L291.8,86.864 L291.8,87.68 C291.8,91.52 294.152,94.256 298.376,94.256 C301.448,94.256 303.512,92.816 304.952,90.512 L308.024,93.536 C306.152,96.56 302.504,98.576 297.848,98.576 Z M297.848,76.544 C294.248,76.544 291.8,79.232 291.8,83.072 L291.8,83.408 L303.416,83.408 L303.416,82.928 C303.416,79.088 301.304,76.544 297.848,76.544 Z M320.576,98 L315.344,98 L315.344,73.04 L320.576,73.04 L320.576,77.168 L320.816,77.168 C321.872,74.48 323.984,72.464 327.824,72.464 C332.912,72.464 335.936,76.016 335.936,82.16 L335.936,98 L330.704,98 L330.704,82.832 C330.704,78.944 329.216,76.976 326,76.976 C323.264,76.976 320.576,78.368 320.576,81.296 L320.576,98 Z M351.704,98.576 C347,98.576 343.928,96.8 341.576,93.872 L344.936,90.8 C346.76,93.008 349.016,94.352 351.992,94.352 C355.016,94.352 356.552,93.104 356.552,90.992 C356.552,89.408 355.592,88.208 353,87.872 L350.696,87.584 C345.608,86.96 342.488,84.752 342.488,80.144 C342.488,75.296 346.28,72.464 351.752,72.464 C356.264,72.464 358.808,73.952 361.064,76.448 L357.848,79.52 C356.552,77.984 354.44,76.688 351.752,76.688 C348.872,76.688 347.528,77.936 347.528,79.808 C347.528,81.728 348.728,82.592 351.368,83.024 L353.672,83.312 C359.144,84.128 361.592,86.528 361.592,90.56 C361.592,95.36 357.704,98.576 351.704,98.576 Z M370.736,68.576 C368.576,68.576 367.616,67.424 367.616,65.84 L367.616,65.024 C367.616,63.44 368.576,62.288 370.736,62.288 C372.896,62.288 373.808,63.44 373.808,65.024 L373.808,65.84 C373.808,67.424 372.896,68.576 370.736,68.576 Z M368.096,98 L368.096,73.04 L373.328,73.04 L373.328,98 L368.096,98 Z M381.416,98 L381.416,62.48 L386.648,62.48 L386.648,77.168 L386.888,77.168 C387.944,74.192 390.584,72.464 393.896,72.464 C400.184,72.464 403.832,77.312 403.832,85.52 C403.832,93.728 400.184,98.576 393.896,98.576 C390.584,98.576 387.944,96.8 386.888,93.872 L386.648,93.872 L386.648,98 L381.416,98 Z M392.312,94.064 C395.912,94.064 398.312,91.52 398.312,87.68 L398.312,83.36 C398.312,79.52 395.912,76.976 392.312,76.976 C389.144,76.976 386.648,78.704 386.648,81.248 L386.648,89.792 C386.648,92.336 389.144,94.064 392.312,94.064 Z M425.552,98 L425.552,93.872 L425.36,93.872 C424.448,96.32 422.48,98.576 418.352,98.576 C413.216,98.576 410.192,95.072 410.192,88.928 L410.192,73.04 L415.424,73.04 L415.424,88.256 C415.424,92.048 417.008,94.064 420.224,94.064 C422.912,94.064 425.552,92.672 425.552,89.744 L425.552,73.04 L430.784,73.04 L430.784,98 L425.552,98 Z M447.56,98 L444.2,98 C440.648,98 438.872,96.032 438.872,92.816 L438.872,62.48 L444.104,62.48 L444.104,93.728 L447.56,93.728 L447.56,98 Z M461.552,98 L458.192,98 C454.64,98 452.864,96.032 452.864,92.816 L452.864,62.48 L458.096,62.48 L458.096,93.728 L461.552,93.728 L461.552,98 Z" id="sensibull" fill="#152935"></path>
            </g>
        </g>
    </g>
</svg>