<svg width="24" height="24" viewBox="0 0 24 24" fill="none" xmlns="http://www.w3.org/2000/svg">
<path d="M18.5496 12.2408L16.468 9.07208C16.3523 8.88705 16.3061 8.67889 16.2829 8.4476C15.9129 4.28434 12.4204 1 8.1646 1C3.65441 1 0 4.65441 0 9.1646C0 11.8476 1.29523 14.4612 3.28434 16.1727C3.51564 16.3809 3.67754 16.6585 3.67754 16.9823V21.6544C3.67754 22.0244 3.95509 22.3251 4.32516 22.3714L11.3333 22.9958C11.7496 23.0421 12.0966 22.6952 12.0966 22.2788V18.9482C12.0966 18.7401 12.2816 18.555 12.4898 18.555H14.9414C15.7047 18.555 16.3061 17.9537 16.3061 17.1904V13.9061C16.3061 13.7673 16.4217 13.6285 16.5836 13.6285H17.7863C18.5033 13.6517 18.9428 12.8421 18.5496 12.2408ZM10.1537 15.1088C9.64487 15.1088 9.20541 14.7619 9.06664 14.2993H7.10066C6.91562 14.2993 6.75372 14.1374 6.75372 13.9523V12.3333H4.78774C4.60271 12.3333 4.4408 12.1714 4.4408 11.9864C4.4408 11.8013 4.60271 11.6394 4.78774 11.6394H7.10066C7.28569 11.6394 7.4476 11.8013 7.4476 11.9864V13.6054H9.08977C9.22854 13.1428 9.668 12.7959 10.1768 12.7959C10.8245 12.7959 11.3333 13.3279 11.3333 13.9523C11.3333 14.5768 10.8013 15.1088 10.1537 15.1088ZM10.1537 10.9224C9.64487 10.9224 9.20541 10.5755 9.06664 10.1129H3.51564C3.3306 10.1129 3.1687 9.95099 3.1687 9.76596C3.1687 9.58093 3.3306 9.41902 3.51564 9.41902H9.06664C9.20541 8.95644 9.64487 8.6095 10.1537 8.6095C10.8013 8.6095 11.3102 9.11834 11.3102 9.76596C11.3102 10.4136 10.8013 10.9224 10.1537 10.9224ZM10.1537 6.73604C9.64487 6.73604 9.20541 6.3891 9.06664 5.92652H7.42447V7.54556C7.42447 7.73059 7.26256 7.8925 7.07753 7.8925H4.76461C4.57958 7.8925 4.41767 7.73059 4.41767 7.54556C4.41767 7.36052 4.57958 7.19862 4.76461 7.19862H6.73059V5.57958C6.73059 5.39454 6.8925 5.23264 7.07753 5.23264H9.04351C9.18228 4.77006 9.62174 4.42312 10.1306 4.42312C10.7782 4.42312 11.287 4.93196 11.287 5.57958C11.287 6.22719 10.8013 6.73604 10.1537 6.73604Z" fill="#738F93"/>
</svg>
