<svg width="24" height="24" viewBox="0 0 24 24" fill="none" xmlns="http://www.w3.org/2000/svg">
<path d="M21.425 15.975H17.925V13.375V12.375H16.925H12.425V10.675C13.425 10.075 14.325 9.475 15.425 8.875C16.625 8.175 17.825 7.575 19.025 6.775C19.125 6.675 19.225 6.675 19.325 6.475C19.225 6.375 19.225 6.275 19.125 6.175C18.725 5.875 18.325 5.675 17.925 5.475C16.025 4.375 14.225 3.275 12.325 2.075C12.125 1.975 11.925 1.975 11.625 2.075C9.325 3.375 7.125 4.675 4.925 5.975C4.525 6.275 4.525 6.475 4.925 6.675C7.125 7.975 9.325 9.275 11.525 10.575V12.275H6.925H5.925V13.275V15.975C5.525 15.975 5.125 16.075 4.725 16.175C3.825 16.375 3.125 16.875 2.525 17.475C1.825 18.175 1.825 19.475 2.525 20.275C2.625 20.475 2.825 20.675 3.025 20.775C4.025 21.475 5.125 21.775 6.225 21.775C6.925 21.775 7.525 21.675 8.125 21.475C9.025 21.275 9.725 20.775 10.325 20.175C11.025 19.475 11.025 18.275 10.325 17.475C10.025 17.175 9.725 16.975 9.425 16.775C8.625 16.275 7.725 16.075 6.825 15.975V13.275H16.825V15.875H13.325C12.925 15.875 12.925 15.975 12.925 16.275V21.175C12.925 21.575 13.025 21.575 13.325 21.575H17.325H18.925C19.825 21.575 20.625 21.575 21.525 21.575C21.825 21.575 21.925 21.475 21.925 21.175C21.925 21.075 21.925 21.075 21.925 20.975C21.925 19.375 21.925 17.875 21.925 16.275C21.925 16.075 21.825 15.975 21.425 15.975Z" fill="#738F93"/>
</svg>
