<svg width="24" height="24" viewBox="0 0 24 24" fill="none" xmlns="http://www.w3.org/2000/svg">
<path d="M18.2 2H5.8C3.7 2 2 3.7 2 5.8V18.3C2 20.3 3.7 22 5.8 22H18.3C20.4 22 22.1 20.3 22.1 18.2V5.8C22 3.7 20.3 2 18.2 2ZM12.7 17.3C12.5 17.5 12.3 17.6 12.1 17.6H8.6C8.4 17.6 8.2 17.5 8 17.3L6.3 15.6C6.1 15.5 6 15.2 6 15V9C6 8.8 6.1 8.6 6.3 8.4L8 6.7C8.1 6.6 8.3 6.5 8.5 6.4H8.6H12C12.2 6.4 12.4 6.5 12.6 6.7L14.3 8.4L13.1 9.6L11.7 8.1H9L7.8 9.3V14.6L9 15.9H11.7L13.2 14.4L14.4 15.6L12.7 17.3ZM10.1 12.6V11.4H11.2V10.2H12.5V11.3H13.6V12.6H12.5V13.7H11.3V12.6H10.1ZM18 12.6H16.9V13.7H15.6V12.6H14.5V11.4H15.6V10.2H16.9V11.3H18V12.6Z" fill="#738F93"/>
</svg>
