<svg width="24" height="24" viewBox="0 0 24 24" fill="none" xmlns="http://www.w3.org/2000/svg">
<path d="M18.2308 2H5.76923C3.69231 2 2 3.69231 2 5.76923V18.2308C2 20.3077 3.69231 22 5.76923 22H18.2308C20.3077 22 22 20.3077 22 18.2308V5.76923C22 3.69231 20.3077 2 18.2308 2ZM10.7538 15.8769H13.5L14.9692 14.4077L16.1846 15.6231L14.4615 17.3462C14.3 17.5077 14.0846 17.6 13.8538 17.6H10.4077C10.1769 17.6 9.96154 17.5077 9.8 17.3462L8.07692 15.6231C7.91538 15.4615 7.82308 15.2462 7.82308 15.0154V8.98462C7.82308 8.75385 7.91538 8.53846 8.07692 8.37692L9.8 6.65385C9.93846 6.50769 10.1231 6.42308 10.3231 6.4C10.3538 6.4 10.3769 6.4 10.4077 6.4H13.8538C14.0846 6.4 14.3 6.49231 14.4615 6.65385L16.1846 8.37692L14.9692 9.59231L13.5 8.12308H10.7538L9.54615 9.33077V14.6615L10.7538 15.8769Z" fill="#738F93"/>
</svg>
