<svg width="24" height="24" viewBox="0 0 24 24" fill="none" xmlns="http://www.w3.org/2000/svg">
<path fill-rule="evenodd" clip-rule="evenodd" d="M19.8 10.8C20.7 10.8 21.4 11.5 21.4 12.4C21.4 13.3 20.7 14 19.8 14C19.1 14 18.5 13.5 18.3 12.9L17.1 12.7C16.8 13.6 16.1 14.3 15.2 14.7L15.6 16.5C17 16.6 18.1 17.8 18.1 19.2C18.1 20.7 16.9 21.9 15.4 21.9C13.9 21.9 12.7 20.7 12.7 19.2C12.7 18.2 13.3 17.3 14.1 16.8L13.7 15C12.5 15 11.5 14.4 10.8 13.6L8 15C8 15.1 8 15.2 8 15.3C8 16.7 6.9 17.8 5.5 17.8C4.1 17.8 3 16.7 3 15.3C3 13.9 4.1 12.8 5.5 12.8C6.2 12.8 6.9 13.1 7.4 13.6L10.2 12.3C10.1 12 10.1 11.8 10.1 11.5C10.1 10.8 10.3 10.1 10.7 9.5L9.2 8.1C8.9 8.2 8.6 8.3 8.3 8.3C7.1 8.3 6.1 7.3 6.1 6.1C6.1 4.9 7.1 3.9 8.3 3.9C9.5 3.9 10.5 4.9 10.5 6.1C10.5 6.4 10.4 6.7 10.3 7L11.8 8.5C12.4 8.1 13 7.9 13.8 7.9C14.2 7.9 14.7 8 15.1 8.1L16.6 5.7C16.3 5.3 16.1 4.8 16.1 4.3C16.1 3 17.1 2 18.4 2C19.7 2 20.7 3 20.7 4.3C20.7 5.6 19.7 6.6 18.4 6.6C18.2 6.6 18 6.6 17.9 6.5L16.4 8.9C17 9.5 17.4 10.3 17.5 11.2L18.7 11.4C18.8 11.1 19.2 10.8 19.8 10.8Z" fill="#738F93"/>
</svg>
