<svg width="24" height="24" viewBox="0 0 24 24" fill="none" xmlns="http://www.w3.org/2000/svg">
<path d="M12.9396 13.3642C12.6264 13.3745 12.3132 13.378 12 13.378C11.6868 13.378 11.3736 13.3745 11.0604 13.3642C8.418 13.2955 6.312 12.9381 4.7964 12.4295C4.08 12.1993 3.4716 11.9312 3 11.6219V14.0652V14.2371V14.4089V14.8522C4.026 15.8728 7.4604 16.8144 12 16.8144C16.5396 16.8144 19.974 15.8728 21 14.8522V14.4089V14.2371V14.0652V11.6219C20.5248 11.9347 19.9092 12.2061 19.1892 12.4364C17.6772 12.9415 15.5748 13.2955 12.9396 13.3642Z" fill="#738F93"/>
<path d="M3 7.11682V9.56012V9.73194V9.90376V10.3471C3.9504 11.2921 6.9708 12.1718 11.0244 12.2955C11.064 12.2955 11.1072 12.2955 11.1504 12.299C11.2692 12.3024 11.3844 12.3058 11.5032 12.3058C11.6652 12.3093 11.8308 12.3093 12 12.3093C12.1692 12.3093 12.3348 12.3093 12.4968 12.3058C12.6156 12.3058 12.7344 12.3024 12.8496 12.299C12.8928 12.299 12.9324 12.299 12.9756 12.2955C17.0292 12.1718 20.0496 11.2921 21 10.3471V9.90376V9.73194V9.56012V7.11682C19.2468 8.26459 15.5424 8.87283 12 8.87283C8.4576 8.87283 4.7532 8.26459 3 7.11682Z" fill="#738F93"/>
<path d="M20.9532 4.93471C20.5464 3.45704 17.4432 2 12 2C6.5712 2 3.468 3.45017 3.054 4.9244C3.0216 4.97595 3 5.03093 3 5.09278V5.2646V5.8866C4.0224 6.90378 7.4352 7.84192 12 7.84192C16.5648 7.84192 19.9776 6.90378 21 5.8866V5.2646V5.09278C21 5.03436 20.9784 4.98282 20.9532 4.93471Z" fill="#738F93"/>
<path d="M3 16.0894V18.9072C3 18.9622 3.0144 19.0138 3.0432 19.0619C3.468 20.7457 7.2696 22 12 22C16.7196 22 20.5176 20.7491 20.9568 19.0722C20.9856 19.0241 21 18.9691 21 18.9072V16.0894C19.5096 17.0894 16.446 17.8763 12 17.8763C7.554 17.8763 4.4868 17.0894 3 16.0894Z" fill="#738F93"/>
</svg>
