<svg width="24" height="24" viewBox="0 0 24 24" fill="none" xmlns="http://www.w3.org/2000/svg">
<path d="M19.5 3H4.5C3.1 3 2 4.1 2 5.5V6H22V5.5C22 4.1 20.9 3 19.5 3Z" fill="#738F93"/>
<path d="M2 18.5C2 19.9 3.1 21 4.5 21H19.5C20.9 21 22 19.9 22 18.5V7H2V18.5ZM16.6 11.5C16.5 11.2 16.4 10.8 16.1 10.3H17C17.2 10.6 17.3 10.8 17.4 10.9C17.5 11.1 17.6 11.3 17.7 11.6C17.8 12 17.9 12.3 18 12.7C18.1 13.1 18.1 13.4 18.1 13.7C18.1 14.6 18 15.3 17.7 16C17.6 16.4 17.3 16.9 16.8 17.7H15.9C16.3 16.9 16.5 16.4 16.6 16C16.8 15.4 16.9 14.6 16.9 13.8C16.9 12.9 16.8 12.2 16.6 11.5ZM9.2 15.2C9.4 15 9.6 14.9 9.9 14.9C10.1 14.9 10.2 14.9 10.4 15C10.5 15 10.7 15.1 10.8 15.1C10.8 15.1 10.9 15 11 14.8C11.1 14.7 11.2 14.5 11.3 14.3C11.2 13.8 11.1 13.5 11 13.2C11 13.1 10.9 12.9 10.8 12.7C10.8 12.5 10.7 12.3 10.6 12.2C10.5 12.1 10.3 12 10.1 12C10 12 9.9 12.1 9.7 12.1C9.6 12.1 9.5 12.2 9.4 12.2L9.5 11.7C9.8 11.6 10.1 11.4 10.4 11.4C10.7 11.3 10.9 11.3 11.1 11.3C11.3 11.3 11.4 11.3 11.5 11.3C11.6 11.3 11.7 11.4 11.9 11.5C12 11.6 12.1 11.7 12.2 11.8C12.3 11.9 12.4 12.1 12.4 12.3C12.4 12.4 12.5 12.6 12.5 12.8C12.5 13 12.6 13.1 12.6 13.2C12.7 13.1 12.7 13 12.8 12.8C12.9 12.6 12.9 12.6 13 12.5C13.3 12.1 13.5 11.8 13.7 11.6C13.9 11.4 14.1 11.3 14.4 11.3C14.6 11.3 14.8 11.4 14.9 11.5C15 11.6 15.1 11.8 15.1 12C15.1 12.3 15 12.6 14.8 12.7C14.6 13 14.4 13 14.1 13C13.9 13 13.8 13 13.6 13C13.4 13 13.3 12.9 13.2 12.9C13.1 12.9 13.1 13 13 13.2C12.9 13.3 12.8 13.5 12.6 13.7C12.7 14.2 12.8 14.6 12.9 14.9C13 15.1 13 15.4 13.1 15.6C13.2 15.8 13.3 15.9 13.4 16C13.6 16 13.7 16 14 16C14.1 16 14.2 16 14.3 15.9C14.4 15.9 14.5 15.8 14.6 15.8L14.5 16.3C14.2 16.5 13.9 16.6 13.6 16.6C13.3 16.7 13.1 16.7 12.9 16.7C12.8 16.7 12.6 16.7 12.5 16.7C12.4 16.7 12.2 16.6 12.1 16.5C12 16.4 11.9 16.3 11.8 16.2C11.7 16.1 11.6 15.9 11.6 15.7C11.6 15.6 11.5 15.4 11.5 15.2C11.5 15 11.4 14.9 11.4 14.8C11.3 15 11.2 15.1 11.2 15.1C11.2 15.2 11.1 15.3 11 15.4C10.7 15.8 10.5 16.1 10.3 16.3C10.1 16.5 9.9 16.6 9.6 16.6C9.4 16.6 9.2 16.5 9.1 16.4C9 16.4 8.9 16.2 8.9 16C8.9 15.7 9 15.4 9.2 15.2ZM6 12.7C6.1 12.3 6.2 12 6.3 11.6C6.4 11.3 6.5 11.1 6.6 10.9C6.7 10.8 6.8 10.6 7 10.3H7.9C7.6 10.8 7.5 11.2 7.4 11.5C7.2 12.2 7.1 12.9 7.1 13.8C7.1 14.7 7.2 15.4 7.4 16C7.5 16.4 7.8 16.9 8.1 17.7H7.2C6.8 17 6.5 16.4 6.3 16C6 15.3 5.9 14.6 5.9 13.7C5.9 13.4 5.9 13 6 12.7Z" fill="#738F93"/>
</svg>
