<svg width="24" height="24" viewBox="0 0 24 24" fill="none" xmlns="http://www.w3.org/2000/svg">
<path d="M19.5 3H4.5C3.12 3 2 4.12 2 5.5V6H22V5.5C22 4.12 20.88 3 19.5 3Z" fill="#738F93"/>
<path d="M2 18.5C2 19.88 3.12 21 4.5 21H19.5C20.88 21 22 19.88 22 18.5V7H2V18.5ZM14.65 12.35C14.46 12.15 14.46 11.84 14.66 11.64C14.85 11.45 15.16 11.45 15.36 11.64L17.36 13.64C17.56 13.84 17.56 14.15 17.36 14.35L15.36 16.35C15.16 16.54 14.85 16.54 14.65 16.34C14.46 16.15 14.46 15.84 14.65 15.64L16.29 14L14.65 12.35ZM10.52 17.36L12.52 10.36C12.59 10.09 12.87 9.94 13.14 10.01C13.41 10.08 13.56 10.36 13.49 10.63C13.49 10.63 13.49 10.63 13.49 10.64L11.49 17.64C11.42 17.85 11.22 18 11 18C10.95 18 10.91 17.99 10.86 17.98C10.6 17.9 10.44 17.63 10.52 17.36ZM6.65 13.65L8.65 11.65C8.85 11.46 9.16 11.46 9.36 11.66C9.55 11.85 9.55 12.16 9.36 12.36L7.71 14L9.36 15.65C9.56 15.84 9.56 16.16 9.37 16.36C9.18 16.56 8.86 16.56 8.66 16.37L8.65 16.36L6.65 14.36C6.45 14.16 6.45 13.84 6.65 13.65Z" fill="#738F93"/>
</svg>
