<svg width="24" height="24" viewBox="0 0 24 24" fill="none" xmlns="http://www.w3.org/2000/svg">
<path d="M18.2308 2H5.76923C3.69231 2 2 3.69231 2 5.76923V18.2308C2 20.3077 3.69231 22 5.76923 22H18.2308C20.3077 22 22 20.3077 22 18.2308V5.76923C22 3.69231 20.3077 2 18.2308 2ZM17.0538 7.06154C16.2077 7.18462 15.3308 7.09231 14.3077 7.09231C13.7385 9.03077 13.1692 10.9769 12.6077 12.9231C12.1923 14.3692 11.8462 15.8308 11.3692 17.2462C11.2 17.7385 10.7385 18.1385 10.4077 18.5769C10.0385 18.2154 9.6 17.9077 9.33077 17.4923C8.91538 16.8462 8.61538 16.1231 8.27692 15.4308C7.83077 14.5154 7.57692 13.4154 6.13846 13.6C5.94615 13.6231 5.57692 13.1538 5.51538 12.8692C5.46923 12.6615 5.74615 12.2769 5.98462 12.1462C6.94615 11.6077 8.45385 12.1308 8.96923 13.1308C9.31538 13.8077 9.65385 14.4846 10.1692 15.5154C11.0538 12.4 11.8769 9.70769 12.5692 6.97692C12.8769 5.77692 13.4538 5.3 14.6692 5.43846C15.4308 5.52308 16.2154 5.44615 16.9923 5.46154C17.6538 5.47692 18.5538 5.31538 18.4846 6.31538C18.4692 6.60769 17.5846 6.98462 17.0538 7.06154Z" fill="#738F93"/>
</svg>
