<svg width="24" height="24" viewBox="0 0 24 24" fill="none" xmlns="http://www.w3.org/2000/svg">
<path fill-rule="evenodd" clip-rule="evenodd" d="M23 12C23 18.0751 18.0751 23 12 23C5.92487 23 1 18.0751 1 12C1 5.92487 5.92487 1 12 1C18.0751 1 23 5.92487 23 12ZM12.5412 8.45803C12.7524 8.33923 13.0164 8.40963 13.1396 8.61643L14.1428 10.3148C14.266 10.526 14.1956 10.7988 13.98 10.922L12.4488 11.78L13.98 12.6336C14.1956 12.7568 14.266 13.0296 14.1428 13.2408L13.144 14.9436C13.0208 15.1504 12.7568 15.2208 12.5456 15.102L11.0232 14.134V15.96C11.0232 16.202 10.8252 16.4 10.5832 16.4H8.58124C8.33924 16.4 8.14124 16.202 8.14124 15.96V14.1384L6.61884 15.1064C6.40764 15.2252 6.14364 15.1548 6.02044 14.948L5.02164 13.2452C4.89844 13.034 4.97324 12.7612 5.18444 12.638L6.88724 11.7844L5.18444 10.9264C4.96884 10.8032 4.89844 10.5304 5.02164 10.3192L6.02044 8.61643C6.14364 8.40963 6.40764 8.33923 6.61884 8.45803L8.14124 9.39083V7.60003C8.14124 7.35363 8.33924 7.16003 8.58124 7.16003H10.5788C10.8208 7.16003 11.0188 7.35363 11.0188 7.60003V9.39083L12.5412 8.45803ZM11.3576 12.1628C11.0628 11.9956 11.0628 11.5688 11.3576 11.3972L13.1396 10.3192L12.6776 9.39083L10.7944 10.46C10.504 10.6272 10.1388 10.416 10.1388 10.0772V8.05323L8.99924 8.04003L9.02124 10.0816C9.02124 10.4204 8.66044 10.6316 8.36564 10.4644L6.61884 9.39083L6.02044 10.46L7.79804 11.3972C8.09724 11.5644 8.09724 11.9956 7.79804 12.1628L6.02044 13.1L6.61444 14.1384L8.36124 13.1C8.65604 12.9328 9.02124 13.1484 9.02124 13.4828V15.52H10.1388V13.4828C10.1388 13.1484 10.4996 12.9372 10.7944 13.1L12.5412 14.134L13.1396 13.2408L11.3576 12.1628ZM17.06 13.32C18.1556 13.32 19.04 14.2044 19.04 15.3C19.04 16.3956 18.1556 17.28 17.06 17.28C15.9644 17.28 15.08 16.3956 15.08 15.3C15.08 14.2044 15.9644 13.32 17.06 13.32ZM17.06 14.2C16.4528 14.2 15.96 14.6928 15.96 15.3C15.96 15.9072 16.4528 16.4 17.06 16.4C17.6672 16.4 18.16 15.9072 18.16 15.3C18.16 14.6928 17.6672 14.2 17.06 14.2Z" fill="#738F93"/>
</svg>
