<svg width="24" height="24" viewBox="0 0 24 24" fill="none" xmlns="http://www.w3.org/2000/svg">
<path d="M4.00681 14.8028C3.7992 14.3876 3.66079 14.0416 3.52238 13.6263C3.17636 12.8651 2.89954 12.1038 2.55352 11.2734C2.55352 11.2042 2.48432 11.2042 2.55352 11.135C3.24557 9.88931 4.00681 8.71284 4.69885 7.46717C4.76806 7.39796 4.76806 7.32876 4.83726 7.32876C6.15214 6.08308 7.46702 4.90661 8.71269 3.66094C8.7819 3.59173 8.8511 3.52253 8.92031 3.52253C10.0276 3.10731 11.1348 2.76128 12.2421 2.27686C12.3113 2.27686 12.3113 2.27686 12.3805 2.27686C13.3494 2.89969 14.249 3.59173 15.1487 4.21457C15.2179 4.28378 15.2179 4.28378 15.2179 4.28378C14.7335 5.73706 14.249 7.25955 13.8338 8.71284C13.8338 8.78205 13.7646 8.78205 13.7646 8.78205C11.9653 10.3737 10.2352 12.0346 8.50508 13.6263C8.43588 13.6955 8.43588 13.6955 8.43588 13.6955C7.05179 14.0416 5.59851 14.3184 4.14522 14.6644C4.00681 14.8028 4.00681 14.8028 4.00681 14.8028Z" fill="#738F93"/>
<path d="M8.92034 14.8027C11.2041 15.7024 13.4186 16.5328 15.7023 17.4325L15.6331 17.5017C14.6643 18.4014 13.6262 19.2318 12.519 19.9238C11.1349 20.7543 9.68159 21.3771 8.15909 21.7924C7.81307 21.8616 7.53626 21.9308 7.19024 22H7.12103C7.74387 19.5086 8.36671 17.1557 8.92034 14.8027Z" fill="#738F93"/>
<path d="M14.7273 9.41111C16.9418 9.34191 19.1564 9.27271 21.4401 9.27271C21.4401 9.34191 21.3709 9.34191 21.3709 9.34191C20.9557 10.4492 20.402 11.4872 19.7792 12.5253C19.2256 13.425 18.6027 14.1862 17.9107 14.9474C17.5647 15.3627 17.2878 15.7087 16.9418 16.0547C16.9418 16.0547 16.9418 16.1239 16.8726 16.1239C16.1806 13.8402 15.4885 11.6256 14.7273 9.41111Z" fill="#738F93"/>
<path d="M9.40497 14.0415C10.8583 12.6574 12.3807 11.2734 13.9032 9.88928C14.5953 12.1038 15.3565 14.3876 16.1178 16.6713C13.834 15.7716 11.6195 14.872 9.40497 14.0415Z" fill="#738F93"/>
<path d="M17.2249 17.0865C17.3633 16.9481 17.5017 16.8097 17.6401 16.6021C18.5398 15.6332 19.3702 14.5952 20.1315 13.4879C20.6851 12.7267 21.1696 11.827 21.5848 10.9274C21.5848 10.8582 21.654 10.8582 21.654 10.8582C21.3772 14.0415 21.1696 17.2249 20.9619 20.4083C20.9619 20.3391 20.9619 20.3391 20.8927 20.3391C20.8235 20.2699 20.8235 20.2007 20.7543 20.1315C19.5779 19.0934 18.4706 18.0554 17.2941 17.0865C17.2941 17.1557 17.2941 17.1557 17.2249 17.0865Z" fill="#738F93"/>
<path d="M21.7231 8.09002C19.9238 6.77515 18.1245 5.46027 16.3943 4.21459C16.4636 4.21459 16.4636 4.14539 16.4636 4.14539C17.5016 3.59175 18.5397 2.96892 19.5777 2.41528C19.6469 2.41528 19.6469 2.41528 19.6469 2.41528C20.0622 2.6229 20.5466 2.83051 20.8234 3.17653C21.2386 3.52255 21.4463 3.93777 21.6539 4.49141C21.8615 5.04504 21.9307 5.59867 21.9307 6.15231C21.9307 6.63674 21.8615 7.12117 21.7923 7.53639C21.8615 7.6748 21.7923 7.88241 21.7231 8.09002Z" fill="#738F93"/>
<path d="M16.6713 17.7094C16.7405 17.7094 16.7405 17.7786 16.7405 17.7786C17.917 18.8166 19.0243 19.8547 20.2699 20.8927C20.3392 20.9619 20.4776 21.0311 20.5468 21.1004C17.3634 21.308 14.2492 21.5156 11.0658 21.7232C11.0658 21.7232 11.0658 21.7232 11.135 21.7232C12.5883 21.1004 13.9032 20.2699 15.0796 19.2318C15.6333 18.8166 16.1869 18.263 16.6713 17.8478C16.6021 17.7786 16.6021 17.7094 16.6713 17.7094Z" fill="#738F93"/>
<path d="M20.8926 8.50522C18.8165 8.57443 16.8096 8.64363 14.7335 8.64363C15.1487 7.39796 15.4947 6.08308 15.9099 4.8374C17.5708 6.08308 19.2317 7.32875 20.8926 8.50522Z" fill="#738F93"/>
<path d="M8.02073 14.8027C7.46709 17.0173 6.91346 19.2318 6.35983 21.3771C5.66778 19.4394 5.04495 17.5017 4.35291 15.6332C5.52938 15.3564 6.77505 15.0796 8.02073 14.8027Z" fill="#738F93"/>
<path d="M5.59876 21.9307C5.32194 21.8615 5.04512 21.8615 4.6991 21.7231C4.14547 21.5155 3.59184 21.3079 3.17661 20.8235C2.76139 20.339 2.48457 19.8546 2.27696 19.301C2.20775 19.1626 2.20775 19.0241 2.13855 18.8857C2.13855 18.8165 2.13855 18.8165 2.13855 18.8165C2.62298 17.9861 3.10741 17.1556 3.59184 16.3252C3.66104 16.3252 3.66104 16.3252 3.66104 16.256C4.28388 18.1937 4.90672 20.0622 5.59876 21.9307Z" fill="#738F93"/>
<path d="M13.3494 2C15.0795 2 16.8096 2 18.5397 2C18.4705 2.0692 18.4705 2.0692 18.4705 2.0692C17.5709 2.55363 16.602 3.10727 15.7024 3.5917C15.6332 3.6609 15.6332 3.6609 15.564 3.5917C14.8719 3.10727 14.1107 2.55363 13.3494 2.0692C13.4186 2.0692 13.4186 2.0692 13.3494 2Z" fill="#738F93"/>
<path d="M2 12.3114C2.13841 12.519 2.20761 12.7266 2.27682 13.0034C2.62284 13.7647 2.89965 14.4567 3.24567 15.218C3.24567 15.2872 3.31488 15.2872 3.24567 15.3564C2.83045 16.0484 2.48443 16.7405 2.0692 17.4325C2.0692 17.4325 2.0692 17.5017 2 17.5017C2 15.7024 2 14.0415 2 12.3114Z" fill="#738F93"/>
</svg>
