<svg xmlns="http://www.w3.org/2000/svg" width="137" height="56" viewBox="0 0 137 56">
  <g id="Group_17235" data-name="Group 17235" transform="translate(14947 -991)">
    <rect id="Rectangle_11444" data-name="Rectangle 11444" width="137" height="56" rx="5" transform="translate(-14947 991)" fill="#f7f8fa" opacity="0"/>
    <g id="g1967" transform="translate(-14927 1008.781)">
      <path id="path8" d="M122.663,212.648c-5.689,4.194-13.937,6.432-21.038,6.432a38.068,38.068,0,0,1-25.7-9.808c-.534-.481-.056-1.138.584-.762a51.723,51.723,0,0,0,25.714,6.82,51.136,51.136,0,0,0,19.615-4.011c.964-.41,1.769.631.827,1.33" transform="translate(-61.919 -189.826)" fill="#aeb6d0" fill-rule="evenodd"/>
      <path id="path10" d="M121.577,210.026c-.724-.929-4.807-.439-6.64-.222-.559.069-.644-.417-.14-.767,3.252-2.289,8.588-1.628,9.21-.861s-.161,6.12-3.218,8.674c-.468.392-.916.183-.707-.338.686-1.713,2.225-5.553,1.5-6.486" transform="translate(-58.721 -189.909)" fill="#aeb6d0" fill-rule="evenodd"/>
      <path id="path12" d="M115.061,194.3v-2.225a.55.55,0,0,1,.563-.563h9.96a.555.555,0,0,1,.576.563v1.9a3.14,3.14,0,0,1-.75,1.4l-5.162,7.37a11,11,0,0,1,5.682,1.219,1.017,1.017,0,0,1,.529.866v2.374c0,.324-.358.7-.734.506a11.475,11.475,0,0,0-10.523.017c-.345.187-.707-.187-.707-.512v-2.254a2.694,2.694,0,0,1,.366-1.53l5.98-8.575h-5.2a.552.552,0,0,1-.576-.559" transform="translate(-58.725 -191.076)" fill="#aeb6d0" fill-rule="evenodd"/>
      <path id="path14" d="M81.943,208.2H78.912a.573.573,0,0,1-.541-.516V192.135a.569.569,0,0,1,.584-.559h2.826a.571.571,0,0,1,.55.521v2.033h.056a4,4,0,0,1,3.989-2.882c1.9,0,3.082.917,3.935,2.882A4.475,4.475,0,0,1,98,192.95c.958,1.308.762,3.209.762,4.876l0,9.816a.572.572,0,0,1-.584.563H95.152a.577.577,0,0,1-.546-.563V199.4a19.476,19.476,0,0,0-.086-2.915,1.577,1.577,0,0,0-1.782-1.338,2.013,2.013,0,0,0-1.811,1.274,9.411,9.411,0,0,0-.281,2.98v8.243a.573.573,0,0,1-.584.563H87.037a.573.573,0,0,1-.546-.563l0-8.243c0-1.735.285-4.288-1.867-4.288-2.178,0-2.093,2.49-2.093,4.288v8.243a.573.573,0,0,1-.584.563" transform="translate(-61.766 -191.1)" fill="#aeb6d0" fill-rule="evenodd"/>
      <path id="path16" d="M133.639,191.249c4.5,0,6.931,3.862,6.931,8.772,0,4.743-2.69,8.507-6.931,8.507-4.416,0-6.82-3.862-6.82-8.673,0-4.842,2.434-8.606,6.82-8.606m.025,3.176c-2.233,0-2.373,3.043-2.373,4.94s-.031,5.958,2.348,5.958c2.348,0,2.459-3.274,2.459-5.268a14.379,14.379,0,0,0-.452-4.126,1.9,1.9,0,0,0-1.982-1.5" transform="translate(-57.696 -191.1)" fill="#aeb6d0" fill-rule="evenodd"/>
      <path id="path18" d="M145.091,208.2h-3.018a.577.577,0,0,1-.546-.563l0-15.557a.573.573,0,0,1,.584-.507h2.809a.581.581,0,0,1,.541.436v2.378h.056c.848-2.127,2.038-3.142,4.13-3.142a3.977,3.977,0,0,1,3.538,1.833c.793,1.245.793,3.337.793,4.842v9.791a.583.583,0,0,1-.584.49h-3.04a.575.575,0,0,1-.537-.49v-8.448c0-1.7.2-4.19-1.9-4.19a1.98,1.98,0,0,0-1.751,1.244,6.876,6.876,0,0,0-.481,2.946v8.375a.583.583,0,0,1-.592.563" transform="translate(-56.457 -191.1)" fill="#aeb6d0" fill-rule="evenodd"/>
      <path id="path28" d="M108.454,200.787a5.938,5.938,0,0,1-.566,3.214,2.463,2.463,0,0,1-2.1,1.377c-1.163,0-1.846-.886-1.846-2.194,0-2.583,2.315-3.052,4.51-3.052v.656m3.056,7.387a.632.632,0,0,1-.715.072,7.379,7.379,0,0,1-1.739-2.02,6,6,0,0,1-5,2.2c-2.553,0-4.535-1.574-4.535-4.723a5.145,5.145,0,0,1,3.23-4.953,21.022,21.022,0,0,1,5.7-1.052v-.392a3.87,3.87,0,0,0-.37-2.2,2.018,2.018,0,0,0-1.7-.788,2.306,2.306,0,0,0-2.434,1.82.634.634,0,0,1-.528.554l-2.937-.316a.532.532,0,0,1-.451-.635c.673-3.563,3.9-4.637,6.776-4.637a6.867,6.867,0,0,1,4.565,1.509c1.475,1.377,1.334,3.214,1.334,5.212v4.722a4.146,4.146,0,0,0,1.142,2.81.572.572,0,0,1-.013.8c-.617.516-1.717,1.475-2.323,2.013l0-.009" transform="translate(-59.987 -191.112)" fill="#aeb6d0" fill-rule="evenodd"/>
      <path id="path30" d="M71.974,200.787A5.928,5.928,0,0,1,71.408,204a2.456,2.456,0,0,1-2.1,1.377c-1.163,0-1.84-.886-1.84-2.194,0-2.583,2.314-3.052,4.5-3.052v.656m3.057,7.387a.634.634,0,0,1-.717.072,7.456,7.456,0,0,1-1.739-2.02,5.994,5.994,0,0,1-5,2.2c-2.548,0-4.535-1.574-4.535-4.723a5.15,5.15,0,0,1,3.231-4.953,21.014,21.014,0,0,1,5.7-1.052v-.392a3.9,3.9,0,0,0-.366-2.2,2.027,2.027,0,0,0-1.7-.788,2.31,2.31,0,0,0-2.437,1.82.634.634,0,0,1-.525.554L64,196.384a.535.535,0,0,1-.452-.635c.677-3.563,3.9-4.637,6.777-4.637a6.866,6.866,0,0,1,4.564,1.509c1.475,1.377,1.334,3.214,1.334,5.212v4.722a4.146,4.146,0,0,0,1.142,2.81.569.569,0,0,1-.009.8c-.617.516-1.717,1.475-2.323,2.013l-.008-.009" transform="translate(-63.045 -191.112)" fill="#aeb6d0" fill-rule="evenodd"/>
    </g>
  </g>
</svg>
