<svg xmlns="http://www.w3.org/2000/svg" width="160" height="56" viewBox="0 0 160 56">
  <g id="Group_17231" data-name="Group 17231" transform="translate(14579 -991)">
    <rect id="Rectangle_11446" data-name="Rectangle 11446" width="160" height="56" rx="5" transform="translate(-14579 991)" fill="#f7f8fa" opacity="0"/>
    <g id="Group_4068" data-name="Group 4068" transform="translate(-14558.977 1007.42)">
      <path id="path21" d="M236.291,230.13a4.043,4.043,0,0,0-3.461-2.012c-1.3,0-2.437.533-2.437,1.913,0,1.162,1.435,1.951,2.93,2.917,1.631,1.024,3.322,2.285,3.322,4.473,0,2.858-2.771,4.611-5.976,4.611a11.765,11.765,0,0,1-4.246-.847l.255-3.8a4.572,4.572,0,0,0,4.206,2.72c1.593,0,2.772-.768,2.772-2.109,0-1.143-.964-1.852-2.142-2.561-2.478-1.5-4.049-2.7-4.049-4.868,0-3.253,2.712-4.337,5.523-4.337,1.631,0,2.654.3,3.695.3l-.392,3.607m-13.741,3.409c-.355.591-.805,1.4-1.082,1.991a21.94,21.94,0,0,0-.354,4.276,3.4,3.4,0,0,0,.433,1.932h-4.108c.726-.689,1.022-4.926.983-6.267a32.517,32.517,0,0,0-2.439-5.972,8.53,8.53,0,0,0-2.1-2.976c.923-.078,2.1-.137,2.674-.137,1.021,0,1.3.137,1.927,1.518.981,2.227,1.709,3.9,2.142,5.144,1.042-1.636,1.77-2.759,2.714-4.3a2.565,2.565,0,0,0,.432-1.3,1.581,1.581,0,0,0-.216-.927h4.07c-.786.177-4.326,5.755-5.072,7.016m-14.292-3.447-2.437,5.3h3.97l-1.533-5.3m4.777,11.784c-1.3,0-1.4-.039-2.438-3.626l-.373-1.32a9.319,9.319,0,0,1-3.539.433h-1.809l-.315.67a9.277,9.277,0,0,0-1.061,3.016,2.4,2.4,0,0,0,.1.689H192.866c.61-.689.806-2.916,1.1-6.957l.059-.965c.157-2.306.276-4.079.256-5.32a3.3,3.3,0,0,0-.393-1.971h4.149c-.591.454-.808,2.9-1.082,6.937l-.079.965c-.1,1.5-.3,3.035-.3,4.533,0,.689.275.846.984.846,2.514,0,3.145-.059,4.284-.827.707-1.3,1.515-2.937,2.3-4.632l1.063-2.266a31.027,31.027,0,0,0,1.984-4.71,2.155,2.155,0,0,0-.195-.848h3.3s1.336,4.967,1.631,6.03l.648,2.405c1.12,4.041,1.829,6.01,2.773,6.779-.787.1-1.908.137-2.321.137m-26.754.158c-3.912,0-6.174-3.231-6.174-6.857,0-5.045,2.732-8.949,7.942-8.949,1.632,0,2.4.3,3.715.3l-.393,3.883a4.037,4.037,0,0,0-3.6-2.286c-3.243,0-4.561,3.509-4.561,6.524,0,3.271,1.828,5.064,4.265,5.064,1.318,0,2.477-.355,4.424-1.714a5.4,5.4,0,0,1-5.622,4.04m-13.564-13.657a11.739,11.739,0,0,0-1.18.039c-.118.65-.217,1.774-.354,3.586l-.08,1.065a3.707,3.707,0,0,0,.689.06,2.884,2.884,0,0,0,3.185-2.878c0-1.184-.826-1.873-2.261-1.873m5.484,14.012c-1.12,0-1.4-.179-1.769-.691l-4.247-5.912c-.334-.453-.59-.827-1.12-.827h-.1l-.078,1.143c-.1,1.557-.158,2.8-.158,3.725.019,1.025.138,1.654.413,1.912h-4.108c.589-.533.8-2.306,1.14-6.957l.06-.965c.157-2.286.276-4.06.255-5.3-.02-1.084-.137-1.755-.433-1.991h5.6c1.828,0,4.345.316,4.345,3.292,0,2.443-1.633,3.784-3.656,4.413a9.93,9.93,0,0,1,.767.908l3.086,4.1c1.927,2.542,2.083,2.66,2.772,3.015-.865.1-2.024.138-2.772.138m-19.145-12.3-2.459,5.3h3.99l-1.532-5.3m4.775,11.784c-1.3,0-1.395-.039-2.437-3.626l-.373-1.32a9.329,9.329,0,0,1-3.54.433h-1.808l-.314.67a9.51,9.51,0,0,0-1.062,3.016,2.492,2.492,0,0,0,.1.689h-3.637c1.042-1.044,2.359-3.468,4.187-7.39l1.062-2.266a36.181,36.181,0,0,0,1.985-4.71,2.116,2.116,0,0,0-.2-.848h3.3s.863,3.291,1.631,6.03l.649,2.4c1.12,4.041,1.828,6.011,2.772,6.779-.846.1-1.907.137-2.321.137m-18.715-13.519a10.067,10.067,0,0,0-1.061.04c-.158,1.064-.256,2.088-.334,3.212,0,0-.06.965-.06.925h.393c1.927,0,3.7-.669,3.7-2.442,0-1.026-.846-1.735-2.635-1.735m-.491,6.03h-1.081l-.157,2.247c-.078.986-.118,1.813-.138,2.8,0,.139.432.434,1.454.434,2.123,0,3.52-1.064,3.52-2.819,0-1.951-1.593-2.66-3.6-2.66m.236,7.351h-5.308c.669-.592.846-2.9,1.14-6.957l.059-.946c.158-2.306.276-4.08.256-5.32-.02-1.064-.137-1.755-.433-1.991h5.937c1.415,0,4.247.079,4.247,3.035,0,1.971-1.829,3.193-3.5,3.627,2.359.236,4.129,1.379,4.129,3.823,0,2.641-2.478,4.73-6.527,4.73" transform="translate(-117.407 -224.397)" fill="#aeb6d0"/>
      <path id="path4050" d="M83.578,220.849c-.526,0-.635.092-.805.282-.067,0-.137-.005-.211-.005a2.438,2.438,0,0,0-1.367.357.884.884,0,0,0-.4,1.151s.153-.225.656-.225c.071,0,.149.008.233.015a1.177,1.177,0,0,1,1.147,1.418c-.056.968-.418,2.046-1.9,2.059,0,0-.191,0-.395-.019a1.121,1.121,0,0,1-.906-.509.9.9,0,0,0,.6-.921,1.374,1.374,0,0,0-1.1-1.178,2.452,2.452,0,0,0-.687-.092,2.759,2.759,0,0,0-2.2,1.075c-1.309,1.731-1.415,4.254-1.1,6.6A12.179,12.179,0,0,0,77,235.447c.032.042.06.065.092.065a.083.083,0,0,0,.051-.023,7.926,7.926,0,0,0,1.518-2.051c.281.224.134.7-.02,1.21a7.749,7.749,0,0,1-.632,1.435c-.125.218-.292.472-.067.6a.16.16,0,0,0,.086.022c.288,0,.966-.5,1.723-1.514a11.666,11.666,0,0,0,1.277-2.147c.062.014.165.119.148.406a7.176,7.176,0,0,1-.891,2.379,13.75,13.75,0,0,1-1.239,1.779c-.068.083-.01.135.033.169a14.552,14.552,0,0,0,2.591,1.822,11.8,11.8,0,0,0,2.58,1.126,11.611,11.611,0,0,0,2.578-1.121,13.962,13.962,0,0,0,2.59-1.831.1.1,0,0,0,.034-.168,13.866,13.866,0,0,1-1.233-1.776,7.061,7.061,0,0,1-.894-2.375c-.012-.29.085-.385.145-.409a11.651,11.651,0,0,0,1.281,2.147c.76,1.012,1.432,1.515,1.722,1.515a.179.179,0,0,0,.09-.021c.217-.133.055-.39-.072-.6a8.818,8.818,0,0,1-.634-1.434c-.147-.515-.3-.991-.015-1.21a7.75,7.75,0,0,0,1.516,2.047.079.079,0,0,0,.056.027.117.117,0,0,0,.085-.061,12.082,12.082,0,0,0,1.857-4.593c.32-2.352.215-4.87-1.1-6.6a2.758,2.758,0,0,0-2.2-1.078,2.462,2.462,0,0,0-.677.091,1.367,1.367,0,0,0-1.094,1.183.9.9,0,0,0,.6.92,1.115,1.115,0,0,1-.915.509,3.111,3.111,0,0,1-.387.024,1.579,1.579,0,0,1-1.407-.761,4.639,4.639,0,0,1-.415-2.128,2.621,2.621,0,0,0-.518-1.646,2.308,2.308,0,0,0-1.547-.521h-.126" transform="translate(-75 -220.848)" fill="#aeb6d0"/>
    </g>
  </g>
</svg>
