<svg xmlns="http://www.w3.org/2000/svg" width="167" height="56" viewBox="0 0 167 56">
  <g id="Group_17225" data-name="Group 17225" transform="translate(14115 -991)">
    <rect id="Rectangle_11449" data-name="Rectangle 11449" width="167" height="56" rx="5" transform="translate(-14115 991)" fill="#f7f8fa" opacity="0"/>
    <g id="dunnhumby-vector-logo" transform="translate(-14095 1003.601)">
      <g id="Group_5003" data-name="Group 5003" transform="translate(112.879 6.825)">
        <path id="Path_8707" data-name="Path 8707" d="M558.212,287.6h-2.233l5.456,14.894a9.082,9.082,0,0,1-2.444,4.361c-.506.506-1.643.779-3.392.758V309.3h.758a2.947,2.947,0,0,0,.864,0,5.89,5.89,0,0,0,1.791-.316,4.278,4.278,0,0,0,1.791-1.2,8.837,8.837,0,0,0,1.643-2.633q.506-1.137,6.868-17.527h-2.128L562.552,299.8l-4.34-12.2" transform="translate(-555.6 -287.6)" fill="#aeb6d0"/>
      </g>
      <g id="Group_5004" data-name="Group 5004">
        <path id="Path_8708" data-name="Path 8708" d="M25.313,260.289a7.69,7.69,0,0,0-2.4,1.538,6.591,6.591,0,0,0-1.6,2.4,7.627,7.627,0,0,0-.611,3.118,8.883,8.883,0,0,0,.885,4.045,5.92,5.92,0,0,0,2.086,2.359,7.65,7.65,0,0,0,2.465,1.053,9.2,9.2,0,0,0,2.128.274,7.389,7.389,0,0,0,4.213-1.1V252.6H30.369v7.436a6.687,6.687,0,0,0-2.191-.316,7.718,7.718,0,0,0-2.865.569m1.475,1.6a4.116,4.116,0,0,1,1.432-.253,3.542,3.542,0,0,1,2.128.548v10.638a5.515,5.515,0,0,1-2.064.316,6.677,6.677,0,0,1-1.854-.232,4.693,4.693,0,0,1-1.748-.864,5.687,5.687,0,0,1-1.812-4.634,6.541,6.541,0,0,1,.611-2.886A5.045,5.045,0,0,1,25,262.775a7.1,7.1,0,0,1,1.791-.885" transform="translate(-20.7 -252.579)" fill="#aeb6d0"/>
        <path id="Path_8709" data-name="Path 8709" d="M500.428,252.8H498.3v21.4a8.438,8.438,0,0,0,4.213.927,7.021,7.021,0,0,0,2.064-.316,7.469,7.469,0,0,0,2.4-1.159,6.247,6.247,0,0,0,1.98-2.444,9.923,9.923,0,0,0,.822-4.192,8.181,8.181,0,0,0-.548-3.1,6.665,6.665,0,0,0-1.432-2.233,6.033,6.033,0,0,0-2.022-1.369,5.717,5.717,0,0,0-2.3-.442,7.043,7.043,0,0,0-3.055.527v-7.6m0,10.407c-.063-.99.864-1.475,2.781-1.475a4.09,4.09,0,0,1,1.959.485,4.331,4.331,0,0,1,1.369,1.264,5.12,5.12,0,0,1,.822,1.706,7.944,7.944,0,0,1,.274,2.022,7.59,7.59,0,0,1-.421,2.675,5.484,5.484,0,0,1-1.138,1.9,4.289,4.289,0,0,1-1.6,1.138,4.493,4.493,0,0,1-1.748.379c-1.538,0-2.338-.274-2.3-.822Z" transform="translate(-397.492 -252.737)" fill="#aeb6d0"/>
        <path id="Path_8710" data-name="Path 8710" d="M93.728,286.337H91.6c.042,4.487.042,7.794.042,9.88a5.465,5.465,0,0,0,1.243,3.813,3.261,3.261,0,0,0,1.432.99,5.315,5.315,0,0,0,1.959.337,5.17,5.17,0,0,0,4.592-2.3l.337,1.98h1.643v-9.5a2.57,2.57,0,0,1,.337-1.243,4.091,4.091,0,0,1,.927-1.159,4.63,4.63,0,0,1,1.411-.864,3.594,3.594,0,0,1,1.643-.337c1.748,0,2.612,1.032,2.633,3.118v9.985h2.086v-9.88a5.271,5.271,0,0,0-1.517-4.024,3.958,3.958,0,0,0-1.475-.864,5.136,5.136,0,0,0-1.622-.274,6.136,6.136,0,0,0-4.592,2.275l-.274-1.959h-1.748v9.88a2.526,2.526,0,0,1-.274.969,4.222,4.222,0,0,1-.822,1.032,4.7,4.7,0,0,1-1.327.822,5.212,5.212,0,0,1-1.9.337c-1.748,0-2.654-1.074-2.654-3.2v-9.817" transform="translate(-76.664 -278.943)" fill="#aeb6d0"/>
        <path id="Path_8711" data-name="Path 8711" d="M357.093,288.375a4.224,4.224,0,0,1,1.685-.337c1.748,0,2.612,1.032,2.633,3.118v9.985h2.064v-9.775a3.442,3.442,0,0,1,.442-1.159,4.621,4.621,0,0,1,.969-1.074,4.858,4.858,0,0,1,1.348-.8,4.185,4.185,0,0,1,1.622-.295c1.854,0,2.717,1.032,2.612,3.118v9.985h2.085v-9.88a5.25,5.25,0,0,0-1.475-4.024,4.313,4.313,0,0,0-1.517-.864,5.035,5.035,0,0,0-1.622-.274,6.013,6.013,0,0,0-3.371,1.243c-.379.274-.716.59-1.1.885l-.442.442a4.1,4.1,0,0,0-1.791-1.98,4.816,4.816,0,0,0-2.338-.59,6.165,6.165,0,0,0-4.7,2.3l-.316-2h-1.643v9.88a2.524,2.524,0,0,1-.274.969,3.045,3.045,0,0,1-.8,1.032,5.924,5.924,0,0,1-1.348.822,5.212,5.212,0,0,1-1.9.337c-2.022,0-2.949-1.074-2.844-3.181v-9.838H343c.042,4.487.042,7.794.042,9.88a6.469,6.469,0,0,0,.337,2.191,3.648,3.648,0,0,0,.969,1.6,4.123,4.123,0,0,0,1.517.99,5.431,5.431,0,0,0,1.98.337,5.964,5.964,0,0,0,4.592-2.3l.337,2h1.643v-9.5a2.511,2.511,0,0,1,.337-1.243,4.09,4.09,0,0,1,.927-1.159,5.335,5.335,0,0,1,1.411-.843" transform="translate(-274.907 -279.022)" fill="#aeb6d0"/>
        <path id="Path_8712" data-name="Path 8712" d="M205.633,286.595h-1.791L203.8,301.32h2.191v-9.5a2.569,2.569,0,0,1,.337-1.243,3.608,3.608,0,0,1,.969-1.159,4.228,4.228,0,0,1,1.369-.843,3.651,3.651,0,0,1,1.643-.337c1.748,0,2.612,1.032,2.633,3.118v9.985h2.085v-9.88a5.25,5.25,0,0,0-1.475-4.024,4.531,4.531,0,0,0-1.475-.864,5.373,5.373,0,0,0-1.643-.274,6.1,6.1,0,0,0-4.571,2.275l-.232-1.98" transform="translate(-165.153 -279.18)" fill="#aeb6d0"/>
        <path id="Path_8713" data-name="Path 8713" d="M275.87,252.5H273.7v22.119h2.191v-9.5a2.788,2.788,0,0,1,.316-1.243,3.825,3.825,0,0,1,.948-1.159,4.23,4.23,0,0,1,1.369-.843,3.893,3.893,0,0,1,1.685-.337c1.706,0,2.57,1.032,2.612,3.118v9.985h2.086v-9.88a5.25,5.25,0,0,0-1.475-4.024,3.958,3.958,0,0,0-1.475-.864,5.27,5.27,0,0,0-1.643-.274,5.845,5.845,0,0,0-4.466,2.17V252.5" transform="translate(-220.299 -252.5)" fill="#aeb6d0"/>
      </g>
    </g>
  </g>
</svg>
