<svg xmlns="http://www.w3.org/2000/svg" width="122" height="56" viewBox="0 0 122 56">
  <g id="Group_17227" data-name="Group 17227" transform="translate(14257 -991)">
    <rect id="Rectangle_11448" data-name="Rectangle 11448" width="122" height="56" rx="5" transform="translate(-14257 991)" fill="#f7f8fa" opacity="0"/>
    <g id="Intuit_Logo" data-name="Intuit Logo" transform="translate(-14237 1002.721)">
      <g id="Group_4075" data-name="Group 4075" transform="translate(0 0)">
        <g id="Group_4070" data-name="Group 4070" transform="translate(41.261 7.003)">
          <g id="Group_4069" data-name="Group 4069">
            <path id="Path_6228" data-name="Path 6228" d="M265.222,244.463h-2.167a.733.733,0,0,1-.811-.676l-.034-.847a8.524,8.524,0,0,1-5.384,1.93c-3.791,0-5.348-2.4-5.348-6.06V228.8c0-.576.338-.779.878-.779h2.371c.542,0,.847.168.847.779v9.3c0,1.863.474,3.148,2.506,3.148a6.528,6.528,0,0,0,3.926-1.624V228.8c0-.576.305-.779.845-.779h2.4c.542,0,.848.168.848.779v14.719C266.1,244.226,265.9,244.463,265.222,244.463Z" transform="translate(-251.478 -228.018)" fill="#aeb6d0"/>
          </g>
        </g>
        <path id="Path_6229" data-name="Path 6229" d="M65,228.69c0-.405.2-.676.609-.676h2.864a.6.6,0,0,1,.643.676v14.924c0,.609-.272.846-.846.846H65.881c-.608,0-.881-.237-.881-.846Z" transform="translate(-65 -221.012)" fill="#aeb6d0"/>
        <path id="Path_6230" data-name="Path 6230" d="M336.535,228.69c0-.405.2-.676.61-.676h2.864a.6.6,0,0,1,.644.676v14.924c0,.609-.271.846-.847.846h-2.389c-.608,0-.88-.237-.88-.846Z" transform="translate(-276.436 -221.012)" fill="#aeb6d0"/>
        <path id="Path_6231" data-name="Path 6231" d="M116.567,243.015H114.13c-.609,0-.812-.3-.812-.881v-9.208c0-1.861-.507-3.181-2.573-3.181a6.716,6.716,0,0,0-3.994,1.625v10.8c0,.577-.237.846-.812.846h-2.472a.732.732,0,0,1-.813-.812V227.419a.74.74,0,0,1,.847-.846h2.2c.474,0,.78.135.813.642l.033.9a8.85,8.85,0,0,1,5.486-1.962c3.792,0,5.349,2.369,5.349,6.059v9.918C117.381,242.711,117.178,243.015,116.567,243.015Z" transform="translate(-94.305 -219.566)" fill="#aeb6d0"/>
        <g id="Group_4072" data-name="Group 4072" transform="translate(25.134)">
          <g id="Group_4071" data-name="Group 4071" transform="translate(4.176)">
            <path id="Path_6232" data-name="Path 6232" d="M202.384,198.465a2.483,2.483,0,1,0-2.482,2.482A2.483,2.483,0,0,0,202.384,198.465Z" transform="translate(-197.418 -195.982)" fill="#aeb6d0"/>
          </g>
          <path id="Path_6233" data-name="Path 6233" d="M191.261,228.014c.406,0,.643.134.643.572v2.37a.612.612,0,0,1-.677.639H187.3v11.924c0,.606-.271.841-.881.841h-2.356c-.609,0-.88-.235-.88-.841V231.595h-3.925a.612.612,0,0,1-.677-.639v-2.37c0-.438.237-.572.643-.572Z" transform="translate(-178.586 -220.911)" fill="#aeb6d0"/>
        </g>
        <g id="Group_4074" data-name="Group 4074" transform="translate(67.055)">
          <g id="Group_4073" data-name="Group 4073" transform="translate(4.177)">
            <path id="Path_6234" data-name="Path 6234" d="M391.843,198.465a2.483,2.483,0,1,0-2.483,2.482A2.484,2.484,0,0,0,391.843,198.465Z" transform="translate(-386.877 -195.982)" fill="#aeb6d0"/>
          </g>
          <path id="Path_6235" data-name="Path 6235" d="M380.717,228.014c.405,0,.642.134.642.572v2.37a.612.612,0,0,1-.677.639h-3.923v11.924c0,.606-.27.841-.88.841h-2.356c-.61,0-.88-.235-.88-.841V231.595h-3.922a.613.613,0,0,1-.678-.639v-2.37c0-.438.238-.572.643-.572Z" transform="translate(-368.041 -220.911)" fill="#aeb6d0"/>
        </g>
      </g>
      <g id="Group_4076" data-name="Group 4076" transform="translate(79.699 21.362)">
        <path id="Path_6236" data-name="Path 6236" d="M426.165,292.773a1.1,1.1,0,1,1-1.105,1.09A1.089,1.089,0,0,1,426.165,292.773Zm0,2.032a.936.936,0,1,0-.906-.942A.9.9,0,0,0,426.165,294.8Zm-.428-1.578h.495c.305,0,.449.12.449.367a.329.329,0,0,1-.337.349l.367.566H426.5l-.349-.552h-.212v.552h-.2v-1.282Zm.2.569h.209c.176,0,.337-.008.337-.21,0-.171-.146-.2-.281-.2h-.264v.407Z" transform="translate(-425.06 -292.773)" fill="#aeb6d0"/>
      </g>
    </g>
  </g>
</svg>
