<svg xmlns="http://www.w3.org/2000/svg" width="122" height="56" viewBox="0 0 122 56">
  <g id="Group_17229" data-name="Group 17229" transform="translate(14399 -991)">
    <rect id="Rectangle_11447" data-name="Rectangle 11447" width="122" height="56" rx="5" transform="translate(-14399 991)" fill="#f7f8fa" opacity="0"/>
    <g id="g10" transform="translate(-14378.76 1008.3)">
      <g id="g12" transform="translate(0 0)">
        <path id="path14" d="M9.757-50.1H3.433a.879.879,0,0,0-.868.742L.007-33.137a.526.526,0,0,0,.522.608H3.547a.879.879,0,0,0,.868-.742l.69-4.374a.878.878,0,0,1,.867-.743h2c4.166,0,6.57-2.016,7.2-6.01a4.871,4.871,0,0,0-.806-4.083C13.467-49.537,11.873-50.1,9.757-50.1Zm.73,5.923C10.14-41.9,8.407-41.9,6.73-41.9H5.776l.669-4.238a.527.527,0,0,1,.521-.445H7.4c1.142,0,2.219,0,2.776.651a2.108,2.108,0,0,1,.307,1.763" transform="translate(0 50.096)" fill="#aeb6d0"/>
        <path id="path16" d="M47.474-36.943H44.446a.528.528,0,0,0-.521.445l-.134.847-.212-.307c-.656-.952-2.118-1.27-3.577-1.27a6.964,6.964,0,0,0-6.761,6.09,5.716,5.716,0,0,0,1.128,4.652,4.738,4.738,0,0,0,3.814,1.541,5.794,5.794,0,0,0,4.192-1.734l-.135.841a.527.527,0,0,0,.52.61h2.728a.879.879,0,0,0,.868-.742l1.637-10.365a.525.525,0,0,0-.519-.608Zm-4.221,5.894a3.375,3.375,0,0,1-3.417,2.892,2.555,2.555,0,0,1-2.034-.817,2.575,2.575,0,0,1-.475-2.128,3.39,3.39,0,0,1,3.394-2.915,2.555,2.555,0,0,1,2.02.825,2.621,2.621,0,0,1,.512,2.143" transform="translate(-18.814 42.793)" fill="#aeb6d0"/>
        <path id="path18" d="M85.048-36.569H82.005a.882.882,0,0,0-.728.386L77.08-30,75.3-35.942a.881.881,0,0,0-.843-.627h-2.99a.527.527,0,0,0-.5.7l3.352,9.837-3.151,4.449a.527.527,0,0,0,.43.832h3.039a.877.877,0,0,0,.722-.377l10.122-14.61a.527.527,0,0,0-.433-.828" transform="translate(-40.26 42.42)" fill="#aeb6d0"/>
        <path id="path20" d="M114.058-50.1h-6.325a.879.879,0,0,0-.867.742l-2.558,16.216a.526.526,0,0,0,.52.608h3.246a.615.615,0,0,0,.607-.52l.726-4.6a.878.878,0,0,1,.867-.743h2c4.167,0,6.57-2.016,7.2-6.01a4.867,4.867,0,0,0-.807-4.083C117.768-49.537,116.174-50.1,114.058-50.1Zm.73,5.923c-.345,2.269-2.079,2.269-3.756,2.269h-.953l.67-4.238a.525.525,0,0,1,.52-.445h.437c1.141,0,2.219,0,2.776.651a2.108,2.108,0,0,1,.306,1.763" transform="translate(-59.194 50.096)" fill="#aeb6d0"/>
        <path id="path22" d="M151.778-36.943h-3.027a.524.524,0,0,0-.52.445l-.134.847-.213-.307c-.656-.952-2.117-1.27-3.576-1.27a6.963,6.963,0,0,0-6.761,6.09,5.719,5.719,0,0,0,1.127,4.652,4.741,4.741,0,0,0,3.814,1.541,5.794,5.794,0,0,0,4.192-1.734l-.135.841a.527.527,0,0,0,.522.61H149.8a.879.879,0,0,0,.867-.742L152.3-36.334a.528.528,0,0,0-.522-.608Zm-4.221,5.894a3.374,3.374,0,0,1-3.417,2.892,2.557,2.557,0,0,1-2.034-.817,2.581,2.581,0,0,1-.475-2.128,3.391,3.391,0,0,1,3.394-2.915,2.555,2.555,0,0,1,2.019.825,2.608,2.608,0,0,1,.512,2.143" transform="translate(-78.012 42.793)" fill="#aeb6d0"/>
        <path id="path24" d="M175.41-49.652l-2.6,16.513a.526.526,0,0,0,.52.608h2.609a.877.877,0,0,0,.868-.742l2.559-16.215a.527.527,0,0,0-.52-.609H175.93a.528.528,0,0,0-.52.446" transform="translate(-98.073 50.097)" fill="#aeb6d0"/>
      </g>
    </g>
  </g>
</svg>
