<svg xmlns="http://www.w3.org/2000/svg" xmlns:xlink="http://www.w3.org/1999/xlink" width="270" height="56" viewBox="0 0 270 56">
  <defs>
    <clipPath id="clip-path">
      <rect id="Rectangle_11868" data-name="Rectangle 11868" width="229.651" height="27.832" fill="#aeb6d0"/>
    </clipPath>
  </defs>
  <g id="Group_17233" data-name="Group 17233" transform="translate(14790 -991)">
    <rect id="Rectangle_11445" data-name="Rectangle 11445" width="270" height="56" rx="5" transform="translate(-14790 991)" fill="#f7f8fa" opacity="0"/>
    <g id="Group_18861" data-name="Group 18861" transform="translate(-14770 1004)" clip-path="url(#clip-path)">
      <path id="Path_25335" data-name="Path 25335" d="M269.612,47.809c0-2.749-1.175-5.167-5.142-5.167a9.4,9.4,0,0,0-4.536,1.081l.646,2.209a6.64,6.64,0,0,1,3.308-.93c2.013,0,2.342,1.14,2.342,1.873v.173c-4.388-.007-7.16,1.512-7.16,4.607a3.653,3.653,0,0,0,3.867,3.662,4.4,4.4,0,0,0,3.529-1.567h.076s.5,2.094,3.261,1.294a17.872,17.872,0,0,1-.191-2.922m-3.275-1.41a2.355,2.355,0,0,1-.081.656,2.3,2.3,0,0,1-2.213,1.551,1.5,1.5,0,0,1-1.629-1.6c0-1.666,1.835-2.126,3.924-2.115Z" transform="translate(-201.261 -33.127)" fill="#aeb6d0"/>
      <path id="Path_25336" data-name="Path 25336" d="M0,25.869S2.866,37.615,3.324,39.522c.534,2.225,1.5,3.043,4.271,2.492l1.789-7.282c.454-1.811.758-3.1,1.049-4.939h.052a48.08,48.08,0,0,0,.87,4.945s.728,3.306,1.1,5.042,1.415,2.83,4.132,2.235L20.853,25.87H17.411l-1.457,6.98c-.393,2.032-.746,3.62-1.021,5.479h-.049c-.25-1.841-.565-3.366-.964-5.345L12.4,25.87H8.817L7.2,32.8c-.46,2.107-.889,3.809-1.163,5.6H5.984c-.28-1.691-.654-3.829-1.056-5.869,0,0-.964-4.959-1.3-6.67" transform="translate(0 -20.097)" fill="#aeb6d0"/>
      <path id="Path_25337" data-name="Path 25337" d="M100.611,47.809c0-2.749-1.174-5.167-5.141-5.167a9.4,9.4,0,0,0-4.537,1.081l.646,2.209A6.638,6.638,0,0,1,94.888,45c2.013,0,2.343,1.14,2.343,1.873v.173c-4.389-.007-7.16,1.512-7.16,4.607a3.652,3.652,0,0,0,3.865,3.662,4.4,4.4,0,0,0,3.53-1.567h.074s.5,2.094,3.265,1.294a17.638,17.638,0,0,1-.193-2.922m-3.275-1.41a2.245,2.245,0,0,1-.081.656,2.3,2.3,0,0,1-2.212,1.551,1.5,1.5,0,0,1-1.629-1.605c0-1.666,1.834-2.126,3.922-2.115Z" transform="translate(-69.972 -33.127)" fill="#aeb6d0"/>
      <path id="Path_25338" data-name="Path 25338" d="M150.39,38.581V25.863h-3.278V42.01h3.278" transform="translate(-114.286 -20.092)" fill="#aeb6d0"/>
      <path id="Path_25339" data-name="Path 25339" d="M354.038,25.869V37.781a5,5,0,0,0,.97,3.5,3.631,3.631,0,0,0,2.667,1.011,7.764,7.764,0,0,0,2.373-.351L360,39.374a4.984,4.984,0,0,1-1.245.148c-1.117,0-1.49-.715-1.49-2.19V32.777h2.854v-3.09H357.27V25.869" transform="translate(-275.038 -20.097)" fill="#aeb6d0"/>
      <path id="Path_25340" data-name="Path 25340" d="M316.109,42.916V55.044h3.38V48.833a4.681,4.681,0,0,1,.074-.9,2.555,2.555,0,0,1,2.676-2.132,6.179,6.179,0,0,1,.974.086v-3.17a3.218,3.218,0,0,0-.744-.075,3.568,3.568,0,0,0-3.3,2.561h-.093V42.916" transform="translate(-245.572 -33.127)" fill="#aeb6d0"/>
      <path id="Path_25341" data-name="Path 25341" d="M172.092,42.916V55.044h3.3V47.931a2.824,2.824,0,0,1,.155-.992,2.233,2.233,0,0,1,2-1.555c1.33,0,1.952,1.124,1.952,2.748v6.912h3.292v-7.2a3.361,3.361,0,0,1,.138-.984,2.078,2.078,0,0,1,1.978-1.477c1.348,0,2,1.1,2,3.015v6.645H190.2V47.9c0-3.768-1.913-5.259-4.072-5.259a4.387,4.387,0,0,0-2.393.658A5.111,5.111,0,0,0,182.2,44.81h-.048a3.459,3.459,0,0,0-3.343-2.169,3.818,3.818,0,0,0-3.532,1.921h-.049V42.916" transform="translate(-133.691 -33.127)" fill="#aeb6d0"/>
      <path id="Path_25342" data-name="Path 25342" d="M549.218,23.763a8.518,8.518,0,0,1,7.4,2.052.454.454,0,0,1,.024.657c-.212.212-.469.446-.657.657-.211.234-.352.212-.61-.023a7.122,7.122,0,0,0-4.458-1.83,6.762,6.762,0,0,0,0,13.515,8.832,8.832,0,0,0,4.224-.985V34.52h-2.7A.426.426,0,0,1,552,34.1V32.783h4.927V38.6a.579.579,0,0,1-.188.376,11.578,11.578,0,0,1-5.8,1.549c-6.011,0-10.52-6.12-7.514-12.543a7.571,7.571,0,0,1,5.789-4.221" transform="translate(-421.424 -18.359)" fill="#aeb6d0"/>
      <path id="Path_25343" data-name="Path 25343" d="M619.555,25.2a.538.538,0,0,1,.516-.516h1.22V40.591a.537.537,0,0,1-.516.516h-1.22Z" transform="translate(-481.307 -19.174)" fill="#aeb6d0"/>
      <path id="Path_25344" data-name="Path 25344" d="M644.036,48.658a5.671,5.671,0,1,1-5.444,5.632,5.58,5.58,0,0,1,5.444-5.632m0,9.761A4.112,4.112,0,1,0,640.3,54.29a3.9,3.9,0,0,0,3.731,4.129" transform="translate(-496.096 -37.8)" fill="#aeb6d0"/>
      <path id="Path_25345" data-name="Path 25345" d="M698.117,25.2a.516.516,0,0,1,.493-.516h1.22v6.03a6.569,6.569,0,0,1,3-.681c3.237,0,5.115,2.464,5.115,5.632,0,3.1-2.088,5.7-4.857,5.7a4.755,4.755,0,0,1-3.425-1.384c-.084.839-.6,1.41-1.549,1.161Zm1.713,12.81a4,4,0,0,0,3.074,1.783c1.971,0,3.285-1.994,3.285-4.107,0-2.159-1.244-4.082-3.614-4.082a6.367,6.367,0,0,0-2.745.681Z" transform="translate(-542.338 -19.174)" fill="#aeb6d0"/>
      <path id="Path_25346" data-name="Path 25346" d="M753.566,52.858a9.321,9.321,0,0,1,2.323.352c.023-1.994-.938-2.98-2.487-2.98a6.575,6.575,0,0,0-2.511.633c-.281.117-.422-.024-.516-.281l-.234-.633c-.094-.328.07-.47.328-.587a6.973,6.973,0,0,1,3.027-.7c2.769,0,4.059,1.643,4.059,4.552v6.56c-.978.249-1.489-.348-1.572-1.21a4.713,4.713,0,0,1-3.4,1.431,3.292,3.292,0,0,1-3.355-3.543c0-2.065,1.549-3.59,4.341-3.59m-.681,5.561a3.77,3.77,0,0,0,2.98-1.455V54.759a5.552,5.552,0,0,0-2.3-.423c-1.5,0-2.628.728-2.628,2.112a1.878,1.878,0,0,0,1.947,1.971" transform="translate(-582.042 -37.8)" fill="#aeb6d0"/>
      <path id="Path_25347" data-name="Path 25347" d="M800.545,25.2a.538.538,0,0,1,.516-.516h1.22V40.591a.537.537,0,0,1-.516.516h-1.22Z" transform="translate(-621.91 -19.174)" fill="#aeb6d0"/>
      <path id="Path_25348" data-name="Path 25348" d="M887.832,48.657a4.765,4.765,0,0,1,4.9,4.928,6.175,6.175,0,0,1-.047.657.506.506,0,0,1-.493.469h-7.884a3.816,3.816,0,0,0,3.543,3.707,5.032,5.032,0,0,0,2.933-.892c.376-.258.54-.352.821.071l.281.4c.211.328.3.446-.093.751a6.662,6.662,0,0,1-3.965,1.243c-3.285,0-5.256-2.581-5.256-5.678,0-3.05,1.971-5.655,5.256-5.655M891,53.326a3.171,3.171,0,0,0-3.168-3.1,3.548,3.548,0,0,0-3.5,3.1Z" transform="translate(-685.637 -37.8)" fill="#aeb6d0"/>
      <path id="Path_25349" data-name="Path 25349" d="M940.65,48.657a5.047,5.047,0,0,1,3.942,1.784.518.518,0,0,1-.094.774l-.375.352c-.352.305-.563.071-.775-.164a3.371,3.371,0,0,0-2.722-1.173,4.119,4.119,0,0,0-.07,8.189,3.521,3.521,0,0,0,2.956-1.549c.3-.352.611-.258.916.047l.141.141c.234.235.328.469.141.751a4.976,4.976,0,0,1-4.083,2.182,5.363,5.363,0,0,1-5.467-5.655,5.483,5.483,0,0,1,5.491-5.678" transform="translate(-726.487 -37.8)" fill="#aeb6d0"/>
      <path id="Path_25350" data-name="Path 25350" d="M988.373,25.2a.538.538,0,0,1,.516-.516h1.22v6.735a4.929,4.929,0,0,1,3.449-1.385c2.7,0,3.918,1.666,3.918,4.833v5.726a.537.537,0,0,1-.516.516h-1.244V34.865c0-2.065-.61-3.261-2.276-3.261a4.631,4.631,0,0,0-3.332,1.549v7.438a.537.537,0,0,1-.516.516h-1.22Z" transform="translate(-767.826 -19.174)" fill="#aeb6d0"/>
      <path id="Path_25351" data-name="Path 25351" d="M847.223,24.682h-10.4v1.562h.4a.387.387,0,0,0,.048.01h4.082V41.107h1.784V26.254h4.082a.369.369,0,0,0,.048-.01h.4V24.682Z" transform="translate(-650.097 -19.174)" fill="#aeb6d0"/>
      <path id="Path_25352" data-name="Path 25352" d="M456.316,0c-1.053,0-1.891.59-1.89,1.306l.649,6.453a1.182,1.182,0,0,0,1.251.771h0a1.187,1.187,0,0,0,1.25-.775l.631-6.455c0-.716-.841-1.3-1.9-1.3" transform="translate(-353.025)" fill="#aeb6d0"/>
      <path id="Path_25353" data-name="Path 25353" d="M482.909,31.56a1.194,1.194,0,0,0,1.3.7l5.9-2.682c.621-.359.708-1.379.179-2.291s-1.458-1.344-2.077-.986l-5.263,3.789a1.192,1.192,0,0,0-.041,1.474" transform="translate(-374.976 -20.333)" fill="#aeb6d0"/>
      <path id="Path_25354" data-name="Path 25354" d="M456.347,86.491a1.188,1.188,0,0,1,1.256.771l.65,6.453c0,.716-.837,1.307-1.892,1.309s-1.892-.587-1.893-1.3l.63-6.454a1.183,1.183,0,0,1,1.253-.775" transform="translate(-353.058 -67.191)" fill="#aeb6d0"/>
      <path id="Path_25355" data-name="Path 25355" d="M482.89,71.894a1.191,1.191,0,0,1,1.3-.7l5.914,2.663c.622.358.712,1.378.185,2.293s-1.454,1.346-2.075.99l-5.275-3.772a1.193,1.193,0,0,1-.045-1.475" transform="translate(-374.962 -55.274)" fill="#aeb6d0"/>
      <path id="Path_25356" data-name="Path 25356" d="M418.808,32.089l-1.219-.8h0L410,26.241a.965.965,0,0,0-.516-.123,2.033,2.033,0,0,0-1.568,1.114c-.527.915-.436,1.935.185,2.293l.174.081,8.16,4.046h0l.981.491-.976.492-8.323,4.156c-.621.359-.708,1.379-.179,2.291s1.458,1.344,2.077.986l7.58-5.078V37l1.216-.8a2.461,2.461,0,0,0-.006-4.111" transform="translate(-316.626 -20.289)" fill="#aeb6d0"/>
    </g>
  </g>
</svg>
