<?xml version="1.0" encoding="utf-8"?>
<!-- Generator: Adobe Illustrator 24.0.2, SVG Export Plug-In . SVG Version: 6.00 Build 0)  -->
<svg version="1.1" id="Layer_1" xmlns="http://www.w3.org/2000/svg" xmlns:xlink="http://www.w3.org/1999/xlink" x="0px" y="0px"
	 viewBox="0 0 138 56" style="enable-background:new 0 0 138 56;" xml:space="preserve">
<style type="text/css">
	.st0{fill:#38AA6B;}
	.st1{fill-rule:evenodd;clip-rule:evenodd;fill:#2A67B1;}
	.st2{fill:#2A67B1;}
	.st3{fill:#2B2B2B;}
	.st4{fill:#FFFFFF;}
	.st5{fill-rule:evenodd;clip-rule:evenodd;fill:url(#brown_1_);}
	.st6{fill:#5C4638;}
	.st7{fill-rule:evenodd;clip-rule:evenodd;fill:#5C4638;}
	.st8{fill:url(#SVGID_1_);}
	.st9{fill:#C9BDA9;}
	.st10{fill-rule:evenodd;clip-rule:evenodd;fill:url(#SVGID_2_);}
	.st11{fill-rule:evenodd;clip-rule:evenodd;fill:url(#SVGID_3_);}
	.st12{fill:#AA9775;}
	.st13{fill-rule:evenodd;clip-rule:evenodd;fill:url(#SVGID_4_);}
	.st14{fill:url(#SVGID_5_);}
	.st15{fill:#B6A686;}
	.st16{fill:#CCBD9D;}
	.st17{fill:url(#_x35__1_);}
	.st18{fill:url(#SVGID_6_);}
	.st19{fill:#F9F4DF;}
</style>
<g>
	<g>
		<g id="Un_2_" transform="translate(44.945 47.104)">
			<path id="Path_4742_2_" class="st0" d="M19,4.8c0,1,0.4,1.7,1.5,1.7c0.5,0,0.9-0.2,1.3-0.5l0.1,0.2c0,0.1,0.1,0.2,0.2,0.2h0.2
				c0.1,0,0.2-0.1,0.2-0.2V2.8c0-0.1-0.1-0.2-0.2-0.2h-0.3c-0.1,0-0.2,0.1-0.2,0.2v2.5c-0.3,0.3-0.7,0.5-1.2,0.5
				c-0.6,0-0.9-0.4-0.9-1.1v-2c0-0.1-0.1-0.2-0.2-0.2h-0.3c-0.1,0-0.2,0.1-0.2,0.2L19,4.8z"/>
			<path id="Path_4743_2_" class="st1" d="M29.4,4c-1,0-1.6,0.5-1.6,1.3c0,0.6,0.5,1.2,1.1,1.2c0,0,0.1,0,0.1,0
				c0.5,0,0.9-0.2,1.2-0.5l0.1,0.3c0,0.1,0.1,0.1,0.2,0.1h0.2c0.1,0,0.2-0.1,0.2-0.2V4.1c0-1.1-0.2-1.6-1.3-1.6
				c-0.5,0-0.9,0.1-1.4,0.2c-0.1,0-0.1,0.1-0.1,0.2l0.1,0.2c0,0.1,0.1,0.1,0.2,0.1c0,0,0,0,0,0c0.4-0.1,0.8-0.2,1.2-0.2
				c0.6,0,0.7,0.3,0.6,1C29.9,4,29.6,4,29.4,4z M29.1,5.9c-0.4,0-0.7-0.3-0.7-0.6c0,0,0,0,0-0.1c0-0.5,0.4-0.8,0.9-0.8
				c0.3,0,0.6,0,0.8,0.2v0.8C29.9,5.7,29.5,5.9,29.1,5.9L29.1,5.9z"/>
			<path id="Path_4744_2_" class="st2" d="M31.8,4.5c0,1.1,0.9,2,2,2c0,0,0,0,0,0c0.6,0,1.2-0.3,1.5-0.8c0.1-0.1,0-0.2-0.1-0.3
				c0,0,0,0,0,0l-0.1-0.1c-0.1-0.1-0.2-0.1-0.3,0c0,0,0,0,0,0C34.3,6,33.5,6,32.9,5.5c-0.6-0.5-0.6-1.3-0.1-1.9
				c0.2-0.3,0.6-0.4,1-0.5c0.3,0,0.7,0.1,0.9,0.4c0.1,0.1,0.1,0.2,0.3,0l0.2-0.2c0.1-0.1,0.1-0.2,0-0.3c0,0,0,0,0,0
				c-0.3-0.4-0.9-0.7-1.4-0.7C32.7,2.5,31.8,3.4,31.8,4.5z"/>
			<path id="Path_4745_2_" class="st1" d="M37.8,4c-1,0-1.6,0.5-1.6,1.3c0,0.6,0.5,1.2,1.1,1.2c0,0,0.1,0,0.1,0
				c0.5,0,0.9-0.2,1.2-0.5l0.1,0.3c0,0.1,0.1,0.1,0.2,0.1h0.2c0.1,0,0.2-0.1,0.2-0.2V4.1c0-1.1-0.2-1.6-1.3-1.6
				c-0.5,0-0.9,0.1-1.4,0.2c-0.1,0-0.1,0.1-0.1,0.2l0.1,0.2c0,0.1,0.1,0.1,0.2,0.1c0,0,0,0,0,0c0.4-0.1,0.8-0.2,1.2-0.2
				c0.6,0,0.7,0.3,0.6,1C38.4,4,38.1,4,37.8,4z M37.6,5.9c-0.4,0-0.7-0.3-0.7-0.6c0,0,0,0,0-0.1c0-0.5,0.4-0.8,0.9-0.8
				c0.3,0,0.6,0,0.8,0.2v0.8C38.4,5.7,38,5.9,37.6,5.9L37.6,5.9z"/>
			<path id="Path_4746_2_" class="st1" d="M42.1,2.5c-1,0-1.9,0.8-1.9,1.8c0,0.1,0,0.1,0,0.2c-0.1,1.1,0.7,2,1.8,2
				c0.5,0,0.9-0.2,1.2-0.5l0.1,0.3c0,0.1,0.1,0.1,0.2,0.2h0.2c0.1,0,0.2-0.1,0.2-0.2V0.8c0-0.1-0.1-0.2-0.2-0.2h-0.3
				c-0.1,0-0.2,0.1-0.2,0.2v1.9C42.8,2.6,42.5,2.5,42.1,2.5z M42.1,5.9c-0.7-0.1-1.2-0.7-1.2-1.4c0,0,0,0,0,0
				c-0.1-0.7,0.4-1.3,1.1-1.4c0.1,0,0.1,0,0.2,0c0.3,0,0.7,0.1,1,0.2v1.9C42.9,5.7,42.5,5.9,42.1,5.9L42.1,5.9z"/>
			<path id="Path_4747_2_" class="st1" d="M46.7,2.5c-1.1,0-2,0.9-2,2.1c0,1.1,0.9,1.9,2,2c0.5,0,1-0.1,1.5-0.4
				c0.1-0.1,0.1-0.2,0-0.2l-0.1-0.1L48,5.6c-0.1-0.1-0.1-0.1-0.2,0l0,0c-0.3,0.2-0.6,0.3-1,0.3c-0.7,0-1.3-0.6-1.3-1.2h2.8
				c0.1,0,0.2-0.1,0.2-0.2c0-0.1,0-0.2,0-0.3c0-0.9-0.7-1.7-1.7-1.7C46.8,2.5,46.7,2.5,46.7,2.5z M47.8,4.1h-2.3
				c0.1-0.6,0.6-1.1,1.2-1.1C47.3,3.1,47.8,3.6,47.8,4.1z"/>
			<path id="Path_4748_2_" class="st2" d="M49.4,6.2c0,0.1,0.1,0.2,0.2,0.2h0.3c0.1,0,0.2-0.1,0.2-0.2V3.7c0.3-0.3,0.7-0.5,1.1-0.5
				c0.6,0,0.9,0.4,0.9,1.1v2c0,0.1,0.1,0.2,0.2,0.2h0.3c0.1,0,0.2-0.1,0.2-0.2v-2c0-0.2,0-0.4,0-0.5c0.3-0.3,0.7-0.5,1.2-0.5
				c0.6,0,0.9,0.4,0.9,1.1v2c0,0.1,0.1,0.2,0.2,0.2h0.3c0.1,0,0.2-0.1,0.2-0.2v-2c0-1-0.4-1.7-1.5-1.7c-0.5,0-1.1,0.3-1.5,0.6
				c-0.3-0.4-0.8-0.7-1.3-0.6c-0.5,0-0.9,0.2-1.3,0.5l-0.1-0.3c0-0.1-0.1-0.1-0.2-0.1h-0.2c-0.1,0-0.2,0.1-0.2,0.2L49.4,6.2z"/>
			<path id="Path_4749_2_" class="st2" d="M58.3,6.4l-0.8,2c-0.1,0.1,0,0.2,0.2,0.2h0.4c0.1,0,0.1,0,0.2-0.1l2.6-5.7
				c0.1-0.1,0-0.2-0.1-0.2h-0.4c-0.1,0-0.1,0-0.2,0.1l-1.4,2.9l-1.5-2.9c0-0.1-0.1-0.1-0.2-0.1h-0.4c-0.1,0-0.2,0.1-0.1,0.2
				L58.3,6.4z"/>
			<path id="Path_4750_2_" class="st0" d="M23.3,6.2c0,0.1,0.1,0.2,0.2,0.2h0.3c0.1,0,0.2-0.1,0.2-0.2V3.7c0.3-0.3,0.8-0.5,1.3-0.5
				c0.6,0,0.9,0.4,0.9,1.1v2c0,0.1,0.1,0.2,0.2,0.2h0.3c0.1,0,0.2-0.1,0.2-0.2v-2c0-1-0.4-1.7-1.5-1.7c-0.5,0-1,0.2-1.4,0.5
				l-0.1-0.3c0-0.1-0.1-0.1-0.2-0.1h-0.2c-0.1,0-0.2,0.1-0.2,0.2L23.3,6.2z"/>
			<path id="Path_4751_2_" class="st2" d="M7.5,1.4C8,4,10.6,5.8,13.2,5.3c1.9-0.4,3.5-1.9,3.9-3.8c0-0.2,0.1-0.3,0.1-0.5
				c0-0.2-0.1-0.3-0.3-0.3c0,0,0,0,0,0H7.7c-0.2,0-0.3,0.1-0.3,0.3c0,0,0,0,0,0l0,0v0C7.4,1.1,7.5,1.2,7.5,1.4z"/>
			<path id="Path_4752_2_" class="st0" d="M14.7,8.2c-0.3-1.3-1.5-2.2-2.9-1.9c-1,0.2-1.7,0.9-1.9,1.9c0,0.1,0,0.2,0,0.3
				c0,0.1,0.1,0.1,0.1,0.1c0,0,0,0,0,0h4.6c0.1,0,0.1-0.1,0.1-0.1c0,0,0,0,0,0l0,0l0,0C14.7,8.4,14.7,8.3,14.7,8.2z"/>
		</g>
		<g>
			<path class="st3" d="M46.8,53.4l-0.5-1.4h-1.7L44,53.4h-0.5l1.7-4.3h0.4l1.7,4.3H46.8z M46.1,51.6l-0.5-1.3
				c-0.1-0.2-0.1-0.4-0.2-0.6c0,0.2-0.1,0.4-0.2,0.6l-0.5,1.3H46.1z"/>
			<path class="st3" d="M50.1,53.4v-2.1c0-0.3-0.1-0.5-0.2-0.6s-0.3-0.2-0.6-0.2c-0.3,0-0.6,0.1-0.7,0.3s-0.2,0.5-0.2,0.9v1.7h-0.5
				v-3.2h0.4l0.1,0.4h0c0.1-0.2,0.2-0.3,0.4-0.4s0.4-0.1,0.6-0.1c0.4,0,0.7,0.1,0.9,0.3s0.3,0.5,0.3,0.9v2.1H50.1z"/>
			<path class="st3" d="M108.6,53.4v-4.3h0.5v4.3H108.6z"/>
			<path class="st3" d="M112.5,53.4v-2.1c0-0.3-0.1-0.5-0.2-0.6s-0.3-0.2-0.6-0.2c-0.3,0-0.6,0.1-0.7,0.3s-0.2,0.5-0.2,0.9v1.7h-0.5
				v-3.2h0.4l0.1,0.4h0c0.1-0.2,0.2-0.3,0.4-0.4s0.4-0.1,0.6-0.1c0.4,0,0.7,0.1,0.9,0.3s0.3,0.5,0.3,0.9v2.1H112.5z"/>
			<path class="st3" d="M114,49.3c0-0.1,0-0.2,0.1-0.2s0.1-0.1,0.2-0.1c0.1,0,0.1,0,0.2,0.1s0.1,0.1,0.1,0.2s0,0.2-0.1,0.2
				s-0.1,0.1-0.2,0.1c-0.1,0-0.2,0-0.2-0.1S114,49.4,114,49.3z M114.5,53.4H114v-3.2h0.5V53.4z"/>
			<path class="st3" d="M116.6,53.1c0.1,0,0.2,0,0.2,0s0.1,0,0.2,0v0.4c-0.1,0-0.1,0-0.2,0.1c-0.1,0-0.2,0-0.3,0
				c-0.6,0-0.9-0.3-0.9-1v-1.9h-0.5v-0.2l0.5-0.2l0.2-0.7h0.3v0.7h0.9v0.4h-0.9v1.9c0,0.2,0,0.3,0.1,0.4S116.5,53.1,116.6,53.1z"/>
			<path class="st3" d="M117.7,49.3c0-0.1,0-0.2,0.1-0.2s0.1-0.1,0.2-0.1c0.1,0,0.1,0,0.2,0.1s0.1,0.1,0.1,0.2s0,0.2-0.1,0.2
				s-0.1,0.1-0.2,0.1c-0.1,0-0.2,0-0.2-0.1S117.7,49.4,117.7,49.3z M118.3,53.4h-0.5v-3.2h0.5V53.4z"/>
			<path class="st3" d="M121.3,53.4l-0.1-0.5h0c-0.2,0.2-0.3,0.3-0.5,0.4s-0.4,0.1-0.6,0.1c-0.3,0-0.6-0.1-0.7-0.2
				c-0.2-0.2-0.3-0.4-0.3-0.7c0-0.6,0.5-1,1.6-1l0.5,0v-0.2c0-0.3-0.1-0.4-0.2-0.6c-0.1-0.1-0.3-0.2-0.5-0.2c-0.3,0-0.6,0.1-0.9,0.2
				l-0.1-0.4c0.2-0.1,0.3-0.2,0.5-0.2c0.2,0,0.4-0.1,0.6-0.1c0.4,0,0.7,0.1,0.9,0.3c0.2,0.2,0.3,0.4,0.3,0.8v2.2H121.3z M120.2,53.1
				c0.3,0,0.5-0.1,0.7-0.2c0.2-0.2,0.3-0.4,0.3-0.7v-0.3l-0.5,0c-0.4,0-0.7,0.1-0.8,0.2s-0.3,0.3-0.3,0.5c0,0.2,0.1,0.3,0.2,0.4
				C119.9,53,120,53.1,120.2,53.1z"/>
			<path class="st3" d="M123.8,53.1c0.1,0,0.2,0,0.2,0s0.1,0,0.2,0v0.4c-0.1,0-0.1,0-0.2,0.1c-0.1,0-0.2,0-0.3,0
				c-0.6,0-0.9-0.3-0.9-1v-1.9h-0.5v-0.2l0.5-0.2l0.2-0.7h0.3v0.7h0.9v0.4h-0.9v1.9c0,0.2,0,0.3,0.1,0.4S123.6,53.1,123.8,53.1z"/>
			<path class="st3" d="M124.9,49.3c0-0.1,0-0.2,0.1-0.2s0.1-0.1,0.2-0.1c0.1,0,0.1,0,0.2,0.1s0.1,0.1,0.1,0.2s0,0.2-0.1,0.2
				s-0.1,0.1-0.2,0.1c-0.1,0-0.2,0-0.2-0.1S124.9,49.4,124.9,49.3z M125.4,53.4h-0.5v-3.2h0.5V53.4z"/>
			<path class="st3" d="M127.2,53.4l-1.2-3.2h0.5l0.7,1.9c0.2,0.4,0.2,0.7,0.3,0.9h0c0-0.1,0.1-0.3,0.2-0.6c0.1-0.3,0.4-1,0.8-2.1
				h0.5l-1.2,3.2H127.2z"/>
			<path class="st3" d="M130.9,53.5c-0.5,0-0.8-0.1-1.1-0.4s-0.4-0.7-0.4-1.2c0-0.5,0.1-0.9,0.4-1.2c0.3-0.3,0.6-0.5,1-0.5
				c0.4,0,0.7,0.1,1,0.4s0.4,0.6,0.4,1v0.3h-2.2c0,0.4,0.1,0.7,0.3,0.9c0.2,0.2,0.4,0.3,0.8,0.3c0.3,0,0.7-0.1,1-0.2v0.4
				c-0.2,0.1-0.3,0.1-0.5,0.2C131.3,53.5,131.1,53.5,130.9,53.5z M130.8,50.6c-0.3,0-0.5,0.1-0.6,0.3s-0.2,0.4-0.3,0.7h1.7
				c0-0.3-0.1-0.5-0.2-0.7S131.1,50.6,130.8,50.6z"/>
		</g>
	</g>
	<g id="Current">
		<g>
			<path id="base_4_" class="st4" d="M136.2,18.4c-1.1-1.2-2.6-1.9-4.1-1.9l0,0c-0.1,0-0.2,0-0.3,0l-95.6,6.2h0h0
				c-4.7,0.5-7.3,3.3-7.7,8.2l0,0.6c-0.1,0-0.2,0-0.3,0c-0.1,0-0.3,0-0.4,0c-0.1,0-0.2,0-0.4,0.1v-2c1-0.6,1.4-2.3,2-5.2
				c0.1-0.4,0.2-0.8,0.2-1.1c0.7-1.6,1.8-3.1,2.9-4.6c1.8-2.5,3.7-5.1,3.5-8.2l-0.1-0.4c-2-4-4.8-6.5-8.3-7.8
				c-1.1-0.4-2-0.6-2.8-0.7c-0.3-0.1-0.6-0.1-0.8-0.2l-0.1,0c-2-0.4-4.1-0.7-6.3-0.7c-0.9,0-1.8,0.1-2.7,0.2
				c-1.1,0.2-2.2,0.7-3.4,1.2c-1.3,0.6-2.6,1.2-3.7,1.2L7.3,3.3c-2.5,0.8-3.3,2-4,2.9c0,0.1-0.1,0.1-0.1,0.2L3.1,6.6
				c-0.8,1.8-1,3.6-0.6,5.5l0,0.1c0.3,1,0.7,1.9,1,2.9c0.7,1.8,1.4,3.6,1.6,5.5L5.3,21c0.3,0.5,0.5,1.2,0.7,2c0.5,1.6,1,3.6,2.6,5.1
				l0,0.2v2.2c0,0-5.7,2.8-7.4,4c-0.8,0.6-1.9,2.1,0.1,3.4c1.5,1,6.5,3.6,6.5,3.7c-0.2,1.8,0.4,3.3,1,4c0.9,1.1,2.5,1.7,4.2,1.7
				c1.7,0,3.3-0.6,4.4-1.5c0.3-0.2,0.5-0.5,0.7-0.8c0.2,0.3,0.4,0.5,0.7,0.8c1.1,1,2.7,1.5,4.4,1.5c1.7,0,3.3-0.6,4.2-1.7
				c0.6-0.7,1.3-2,0.9-4l-0.1-0.3c0,0,0.9-0.4,0.9-0.4s0,0,0,0.1c0.1,1.1,0.3,3,3.2,3.3l0,0h0l99.6,2.7c0,0,0.1,0,0.1,0
				c1.6,0,3.1-0.7,4.2-1.9c1.1-1.2,1.7-2.7,1.7-4.4V22.8C137.9,21.2,137.3,19.6,136.2,18.4z"/>
			
				<linearGradient id="brown_1_" gradientUnits="userSpaceOnUse" x1="29.5885" y1="510.5894" x2="136.7063" y2="510.5894" gradientTransform="matrix(1 0 0 -1 0 542.208)">
				<stop  offset="0" style="stop-color:#3B2519"/>
				<stop  offset="0.1288" style="stop-color:#4B2D1C"/>
				<stop  offset="0.3328" style="stop-color:#60361D"/>
				<stop  offset="0.5096" style="stop-color:#6F3C1D"/>
				<stop  offset="0.6382" style="stop-color:#743E1D"/>
				<stop  offset="0.7254" style="stop-color:#703C1D"/>
				<stop  offset="0.8265" style="stop-color:#65381C"/>
				<stop  offset="0.934" style="stop-color:#54301A"/>
				<stop  offset="1" style="stop-color:#482A17"/>
			</linearGradient>
			<path id="brown_4_" class="st5" d="M36.3,23.9l95.6-6.2c2.7-0.2,4.9,2.3,4.9,5.1v17.7c0,2.8-2.2,5.2-4.9,5.1l-99.6-2.7
				c-2.1-0.2-2-1.4-2.1-2.5c7-1.3,3.1-9.8-0.5-9.3C30,25.9,32.9,24.2,36.3,23.9L36.3,23.9z"/>
			<g id="face_4_">
				<g>
					<path class="st6" d="M29.7,33.2L29.7,33.2c1.2,0.4,2.2,0.9,2.9,1.7c0.2,0.1,0.2,0.3,0.2,0.4c0,0.3-0.2,0.5-0.6,0.7
						c-0.4,0.3-1.1,0.8-2,1.5c-0.8,0.7-1.5,1.1-2,1.4c-0.1,0-0.2,0.1-0.3,0.1c-0.1,0-0.3,0-0.4-0.2s-0.2-0.2-0.2-0.4
						c0-0.1,0-0.2,0.1-0.3c0.1-0.2,0.4-0.4,0.8-0.6c0.3-0.1,0.6-0.4,1.1-0.7c0.5-0.4,0.9-0.7,1.1-0.8c0.4-0.2,0.6-0.4,0.6-0.5
						c0,0,0,0,0-0.1c-0.2-0.4-0.6-0.7-1.2-0.9c-0.5-0.1-1-0.3-1.5-0.4c-0.6-0.2-1-0.4-1.3-0.7c0,0,0-0.1,0-0.1
						c0-0.1,0.1-0.2,0.2-0.4c0.1-0.1,0.3-0.2,0.4-0.2c0.1,0,0.2,0,0.2,0c0.2,0,0.5,0.1,0.8,0.2C29.2,33,29.5,33.1,29.7,33.2
						 M6.9,32.7c0.2,0,0.4,0.1,0.5,0.2c0.1,0.1,0.2,0.3,0.2,0.4c0,0.1,0,0.2-0.1,0.3c-0.3,0.3-1,0.7-2,1.1C4.6,35.1,4,35.5,3.7,36
						c0.5,0.3,1.3,0.7,2.2,1.1c1.4,0.6,2.2,1,2.2,1c0.2,0.1,0.3,0.2,0.3,0.4c0,0.2-0.1,0.4-0.3,0.6c-0.2,0.2-0.5,0.3-0.7,0.3
						c-0.1,0-0.2,0-0.3-0.1c-0.1-0.1-0.3-0.3-0.5-0.4c-1.3-0.7-2.7-1.4-4.1-2c-0.1-0.1-0.3-0.1-0.4-0.2c-0.2-0.1-0.3-0.2-0.3-0.4
						c0-0.4,0.2-0.8,0.6-1.2c0.4-0.4,1.2-0.8,2.2-1.2c1-0.4,1.7-0.9,2.2-1.2C6.6,32.7,6.7,32.7,6.9,32.7z"/>
					<path class="st6" d="M16.1,32.7c-0.2-0.3-0.5-0.6-0.7-0.7c-0.2-0.1-0.4-0.2-0.7-0.2c-0.1,0-0.2,0-0.2,0l-1.6,0.6
						c-0.1,0-0.2,0-0.3,0c-0.2,0-0.4,0-0.5-0.1c-0.1-0.1-0.3-0.3-0.5-0.6L11,31.9c0.3,0.4,0.5,0.7,0.7,0.8c0.2,0.1,0.4,0.2,0.7,0.2
						c0.1,0,0.3,0,0.4-0.1l1.5-0.5c0.1,0,0.2-0.1,0.3-0.1c0.2,0,0.3,0,0.5,0.1c0.1,0.1,0.3,0.3,0.5,0.5L16.1,32.7"/>
					<path class="st7" d="M27,41.7c0.8,4.9-5.1,5.3-7.6,3.2c-1.7-1.5-1.2-3.6,1.2-3.5C22.8,41.4,24,44.2,27,41.7"/>
					<path class="st7" d="M8.9,41.7c-0.8,4.9,5.1,5.3,7.6,3.2c1.7-1.5,1.2-3.6-1.2-3.5C13.2,41.4,11.9,44.2,8.9,41.7"/>
					<path class="st6" d="M14.8,34.6c-0.3-0.2-0.6-0.3-1-0.3c-0.5,0-0.9,0.1-1.2,0.4c-0.4,0.3-0.5,0.8-0.4,1.4
						c0,0.5,0.2,0.9,0.5,1.3c0.3,0.4,0.7,0.6,1.1,0.6c0.3,0,0.5-0.1,0.8-0.2c0.5-0.3,0.7-0.8,0.7-1.7C15.3,35.3,15.1,34.8,14.8,34.6
						z M13.8,36.5c-0.3,0-0.5-0.2-0.5-0.5c0-0.3,0.2-0.5,0.5-0.5c0.3,0,0.5,0.2,0.5,0.5C14.3,36.3,14,36.5,13.8,36.5z"/>
					<path class="st6" d="M18.3,40.9c0.2,0,0.3,0,0.4-0.1c0.1-0.1,0.3-0.1,0.4-0.2c0.1-0.1,0.2-0.2,0.3-0.3c0.1-0.1,0.2-0.2,0.2-0.3
						c0.1-0.1,0.1-0.2,0.2-0.3c0-0.1,0.1-0.2,0.1-0.2c0,0,0,0,0,0s0,0,0,0c0,0,0,0,0,0c-0.1,0.2-0.3,0.4-0.4,0.6
						c-0.2,0.1-0.3,0.3-0.5,0.3c-0.2,0.1-0.4,0.1-0.6,0.1c-0.2,0-0.4,0-0.5-0.1c-0.2,0-0.3-0.1-0.4-0.2c-0.1-0.1-0.2-0.2-0.3-0.3
						c-0.1-0.1-0.2-0.3-0.3-0.4c0,0,0,0,0,0c0,0,0,0,0,0c0,0,0,0,0,0c0.1,0.2,0.2,0.4,0.3,0.6c0.1,0.2,0.2,0.3,0.4,0.5
						c0.1,0.1,0.3,0.3,0.5,0.3C18,40.9,18.2,40.9,18.3,40.9"/>
					<path class="st6" d="M23.1,34.5c-0.3-0.2-0.6-0.3-1-0.3c-0.5,0-0.9,0.1-1.2,0.4c-0.4,0.3-0.5,0.8-0.4,1.4
						c0,0.5,0.2,0.9,0.5,1.3c0.3,0.4,0.7,0.6,1.1,0.6c0.3,0,0.5-0.1,0.8-0.2c0.5-0.3,0.7-0.8,0.7-1.7C23.6,35.3,23.4,34.8,23.1,34.5
						z M21.9,36.6c-0.3,0-0.5-0.2-0.5-0.5s0.2-0.5,0.5-0.5s0.5,0.2,0.5,0.5C22.4,36.3,22.2,36.6,21.9,36.6z"/>
				</g>
				<g id="Cap_4_">
					<g>
						
							<linearGradient id="SVGID_1_" gradientUnits="userSpaceOnUse" x1="3.4803" y1="526.9614" x2="34.7447" y2="526.9614" gradientTransform="matrix(1 0 0 -1 0 542.208)">
							<stop  offset="3.970000e-02" style="stop-color:#FAFAED"/>
							<stop  offset="0.4183" style="stop-color:#FAFAED"/>
							<stop  offset="0.4894" style="stop-color:#F3F0E1"/>
							<stop  offset="0.6114" style="stop-color:#E5DDC7"/>
							<stop  offset="0.7686" style="stop-color:#CFC09F"/>
							<stop  offset="0.7969" style="stop-color:#CBBB98"/>
							<stop  offset="1" style="stop-color:#BBA786"/>
						</linearGradient>
						<path class="st8" d="M26.6,28.7c0.8-0.4,1.3-3.2,1.8-5.8c2-4.6,6.6-8,6.3-12.4C31,3.3,25.8,3,23.6,2.5
							c-2.9-0.5-5.8-0.9-8.6-0.5c-2.1,0.3-4.7,2.3-7.2,2.4C5.4,5.2,4.9,6.2,4.2,7.1c-0.7,1.6-0.9,3.2-0.5,4.8
							c0.9,2.9,2.3,5.4,2.7,8.6c0.9,1.7,1,4.8,3.2,7C16.2,24.2,21.6,26.7,26.6,28.7z"/>
						<path class="st9" d="M26.5,28.8l-0.6-0.3c-5-2-10.1-4.1-16.4-1.1l0,0l0,0C8,26,7.5,24.2,7,22.6c-0.2-0.8-0.5-1.6-0.8-2.2l0,0
							c-0.3-2.1-1-3.9-1.7-5.8c-0.3-0.9-0.7-1.8-1-2.8C3.2,10.2,3.3,8.6,4.1,7C4.1,7,4.2,6.9,4.2,6.8C4.8,6,5.5,5,7.7,4.3
							C9,4.2,10.4,3.6,11.8,3c1.1-0.5,2.1-1,3.1-1.1c2.7-0.4,5.4-0.1,8.7,0.5c0.3,0.1,0.5,0.1,0.9,0.2c2.4,0.5,7,1.5,10.3,7.9l0,0
							c0.2,2.7-1.5,5-3.3,7.5c-1.1,1.5-2.2,3.1-3,4.9c-0.1,0.4-0.2,0.8-0.3,1.3C27.7,26.5,27.3,28.4,26.5,28.8L26.5,28.8z
							 M15.9,25.8c3.6,0,6.9,1.3,10,2.6l0.6,0.2c0.7-0.3,1.1-2.3,1.5-4.5c0.1-0.4,0.2-0.8,0.3-1.3c0.8-1.8,1.9-3.4,3-4.9
							c1.8-2.5,3.4-4.8,3.3-7.4C31.3,4.2,27,3.2,24.4,2.7c-0.3-0.1-0.6-0.1-0.9-0.2c-3.2-0.6-5.9-0.9-8.6-0.5c-0.9,0.1-2,0.6-3,1.1
							c-1.4,0.6-2.8,1.3-4.1,1.3C5.6,5.1,4.9,6.1,4.3,6.9C4.3,7,4.2,7,4.2,7.1c-0.7,1.5-0.9,3.1-0.5,4.7c0.3,0.9,0.7,1.9,1,2.8
							c0.7,1.8,1.4,3.7,1.7,5.8c0.3,0.6,0.6,1.4,0.8,2.2c0.4,1.6,1,3.3,2.3,4.7C11.8,26.2,13.9,25.8,15.9,25.8z"/>
					</g>
					<g>
						
							<linearGradient id="SVGID_2_" gradientUnits="userSpaceOnUse" x1="9.6638" y1="515.7448" x2="26.2662" y2="515.7448" gradientTransform="matrix(1 0 0 -1 0 542.208)">
							<stop  offset="0" style="stop-color:#FAFAED"/>
							<stop  offset="5.260000e-02" style="stop-color:#FAFAED"/>
							<stop  offset="0.3844" style="stop-color:#FAFAED"/>
							<stop  offset="0.5096" style="stop-color:#F5F3E5"/>
							<stop  offset="0.6972" style="stop-color:#EBE4D0"/>
							<stop  offset="0.923" style="stop-color:#DBCFB2"/>
							<stop  offset="0.9987" style="stop-color:#D5C7A7"/>
						</linearGradient>
						<path class="st10" d="M9.7,29.2c2.4-1.3,8.4-4.4,16.3,1.1c0.2-1.3,0.2-2.6,0.1-3.9c-0.2-3-12.2-6.8-16.5-0.1L9.7,29.2"/>
						<path class="st9" d="M26.1,30.3L26.1,30.3c-3.5-2.4-6.9-3.4-10.3-3.1c-2.8,0.3-4.9,1.4-6.1,2l0,0v0l-0.1-2.8l0,0
							c1.2-1.8,2.9-3,5.3-3.5c1.9-0.4,4.1-0.3,6.3,0.2c2.8,0.7,4.9,2.1,5,3.4C26.3,27.7,26.3,29,26.1,30.3L26.1,30.3z M17,27.1
							c3,0,6.1,1,9.1,3.1c0.2-1.3,0.2-2.5,0.1-3.8c-0.1-1.2-2.2-2.6-4.9-3.3c-2.1-0.5-4.3-0.6-6.2-0.2c-2.3,0.5-4.1,1.7-5.2,3.5
							l0.1,2.8c1.2-0.6,3.3-1.7,6-2C16.2,27.2,16.6,27.1,17,27.1z"/>
					</g>
					<g>
						<g id="_x31__4_">
							
								<linearGradient id="SVGID_3_" gradientUnits="userSpaceOnUse" x1="4.1953" y1="530.52" x2="7.2056" y2="530.52" gradientTransform="matrix(1 0 0 -1 0 542.208)">
								<stop  offset="0" style="stop-color:#E9DCCB"/>
								<stop  offset="1" style="stop-color:#F3EDDF"/>
							</linearGradient>
							<path class="st11" d="M6.4,6.6C6,8.5,7.6,14.3,7.1,17.4c-0.3-1.6-1.3-4.8-1.3-6.6c-0.5-1.1-1-2.4-1.5-2.9
								C3.8,7.4,5.4,4.8,6.4,6.6"/>
							<path class="st12" d="M10.1,25.5C10.1,25.5,10.1,25.5,10.1,25.5c-2.2-2.5-3.1-6.9-3.8-10.6C5.7,12,5.2,9.5,4.2,8.7l0,0
								C4.1,8.5,4,8.4,4,8.2c0-0.3,0-0.7,0.2-1.1C4.4,6.7,4.6,6.4,5,6.2C5.2,6,5.4,5.9,5.7,5.9l0,0C5.4,6,5.2,6.1,5,6.2
								C4.8,6.6,4.6,6.8,4.4,7.1C3.9,8.1,4.9,8,5.3,8.5c1,0.8,1.1,3.4,1.7,6.4C7.7,18.6,8,22.9,10.1,25.5L10.1,25.5
								C10.1,25.4,10.1,25.4,10.1,25.5L10.1,25.5"/>
						</g>
						<g id="_x32__4_">
							
								<linearGradient id="SVGID_4_" gradientUnits="userSpaceOnUse" x1="8.6496" y1="533.7888" x2="10.3031" y2="531.3759" gradientTransform="matrix(1 0 0 -1 0 542.208)">
								<stop  offset="0" style="stop-color:#EDE2D2"/>
								<stop  offset="0.4318" style="stop-color:#EFE7DA"/>
								<stop  offset="1" style="stop-color:#F0EADF"/>
							</linearGradient>
							<path class="st13" d="M10,5.9c-0.4,1.9,0.6,6.1,0,9.2c-0.3-1.6-1.3-4.8-1.3-6.6c-0.5-1.1-1.1-2.3-1.4-3C7,4.9,8.7,4.1,10,5.9
								"/>
							<path class="st12" d="M9.3,5.2C8.8,4.9,8.7,4.9,8.3,5C8.1,5,7.9,5,7.8,5.1C7.7,5.2,7.7,5.3,7.6,5.4c0,0.2-0.1,0.2,0,0.6l0,0
								c1.2,1.6,2.1,4.3,2.4,7.2c0.3,3.6-0.1,7.7,2.3,10.5l0,0c-2.4-2.9-2.8-6.9-3.1-10.6c-0.3-2.9-0.5-5.5-1.7-7.1l0,0
								C7.3,5.8,7.2,5.5,7.2,5.3c0-0.1,0.1-0.3,0.2-0.3c0.1-0.1,0.3-0.1,0.4-0.2C8.3,4.7,8.9,4.8,9.3,5.2L9.3,5.2"/>
						</g>
						<g id="_x33__4_">
							
								<linearGradient id="SVGID_5_" gradientUnits="userSpaceOnUse" x1="13.1961" y1="531.9208" x2="16.2607" y2="531.9208" gradientTransform="matrix(1 0 0 -1 0 542.208)">
								<stop  offset="0" style="stop-color:#EDE2D2"/>
								<stop  offset="1" style="stop-color:#EEE5D6"/>
							</linearGradient>
							<path class="st14" d="M15.9,2.6C17,4.5,15,12.8,14.6,18.1C14.6,18.5,10.7,0.7,15.9,2.6"/>
							<path class="st15" d="M15.5,22.7c-1.3-3.3-2.6-9.1-2.8-13.6c-0.1-1.8,0-3.4,0.4-4.6c0.4-1.2,1-2,1.9-2.1c0.3,0,0.7,0,1,0.1
								l0,0c-0.4-0.1-0.7,0-1,0c-0.8,0.2-0.7,0.7-1.2,1.8c-0.3,1.2-0.5,2.6-0.4,4.4C14,13.3,14.8,19.3,15.5,22.7L15.5,22.7"/>
						</g>
						<path id="_x34__4_" class="st16" d="M19.2,22.5c0-0.4-0.1-0.7-0.1-1.1c-0.8-6-1.8-13.2,1.7-18.5l0,0
							c-1.5,3.9-1.7,11.3-1.8,13.6c-0.1,1,0,3.2,0.1,4.8C19.1,21.7,19.2,22.1,19.2,22.5L19.2,22.5"/>
						
							<linearGradient id="_x35__1_" gradientUnits="userSpaceOnUse" x1="25.0472" y1="532.1273" x2="24.9678" y2="528.0782" gradientTransform="matrix(1 0 0 -1 0 542.208)">
							<stop  offset="0" style="stop-color:#BBA78B"/>
							<stop  offset="1" style="stop-color:#C8BBA1"/>
						</linearGradient>
						<path id="_x35__4_" class="st17" d="M23,23.2c0.1-3.1,0.5-6.7,0.7-9.8c0.7-3.9,2.8-5.8,3.3-9.8l0,0c-1.9,3.1-3,6.5-3.5,9.9
							C23,16.8,22.9,20.1,23,23.2L23,23.2"/>
						<g id="_x36__4_">
							
								<linearGradient id="SVGID_6_" gradientUnits="userSpaceOnUse" x1="26.8529" y1="526.5864" x2="32.2923" y2="526.5864" gradientTransform="matrix(1 0 0 -1 0 542.208)">
								<stop  offset="0" style="stop-color:#BEAF9A"/>
								<stop  offset="0.3025" style="stop-color:#C0B29E"/>
								<stop  offset="1" style="stop-color:#C3B6A2"/>
							</linearGradient>
							<path class="st18" d="M32.3,8.3c-1.6,4.9-3.5,9.8-5.4,14.7C26.9,16.5,30.4,8.7,32.3,8.3"/>
							<path class="st12" d="M25.9,25.2c0.8-0.9,0.9-2.2,1-3.8c0.1-1.5,0.1-3.1,0.9-4.7c0-0.1,0-0.2,0.1-0.3
								c0.5-1.6,2.3-8.2,4.6-8.1l0,0c-1.7-0.1-3.9,6.5-4.4,8.1c0,0.1,0,0.2-0.1,0.3v0c-0.6,1.6-0.7,3.2-0.9,4.7
								C27,22.9,26.8,24.3,25.9,25.2L25.9,25.2"/>
						</g>
					</g>
				</g>
			</g>
			<g id="name_4_">
				<path class="st4" d="M47.5,37.8c0,0.1-0.1,0.2-0.2,0.4c-1.2,1.4-2.8,2.1-4.8,2.1c-2,0-3.7-0.7-5-2.1c-1.2-1.3-1.9-3-1.9-5.1
					c0-2,0.6-3.7,1.8-5c1.3-1.4,2.9-2.2,4.8-2.2c2.1,0,3.8,0.6,5,1.9c0.1,0.1,0.2,0.3,0.2,0.4c0,0.1-0.2,0.6-0.7,1.4
					c-0.5,0.8-0.7,1.2-0.9,1.3c-0.1,0-0.1,0.1-0.2,0.1c0,0-0.2-0.1-0.5-0.4c-0.3-0.3-0.7-0.6-1-0.7c-0.5-0.3-1.1-0.4-1.6-0.4
					c-1,0-1.7,0.4-2.3,1.1c-0.5,0.7-0.8,1.5-0.8,2.5c0,1,0.3,1.8,0.8,2.5c0.6,0.7,1.3,1.1,2.3,1.1c0.6,0,1.1-0.1,1.6-0.4
					c0.3-0.2,0.7-0.4,1-0.7c0.3-0.2,0.4-0.4,0.5-0.4c0.1,0,0.1,0,0.2,0.1c0.1,0.1,0.4,0.5,0.9,1.2C47.2,37.4,47.5,37.8,47.5,37.8
					L47.5,37.8z"/>
				<path class="st4" d="M61.5,33.2c0,2-0.6,3.7-2,5.1c-1.3,1.4-3,2.1-5,2.1c-2,0-3.7-0.7-5-2.1c-1.3-1.4-2-3.1-2-5.1
					c0-2,0.7-3.7,2-5.1c1.3-1.4,3-2.1,5-2.1c2,0,3.7,0.7,5,2.1C60.9,29.5,61.5,31.2,61.5,33.2L61.5,33.2z M57.8,33.2
					c0-1-0.3-1.8-0.9-2.5c-0.6-0.7-1.4-1.1-2.4-1.1c-0.9,0-1.7,0.4-2.3,1.1c-0.6,0.7-0.9,1.5-0.9,2.5c0,1,0.3,1.8,0.9,2.5
					c0.6,0.7,1.4,1,2.4,1c0.9,0,1.7-0.4,2.3-1.1C57.5,34.9,57.8,34.1,57.8,33.2L57.8,33.2z"/>
				<path class="st4" d="M75.1,33.1c0,1.9-0.6,3.6-1.9,5c-1.1,1.3-2.6,1.9-4.6,2c-0.4,0-1.4,0-3.1,0c-0.3,0-0.8,0-1.4,0
					c-0.6,0-1.1,0-1.4,0c-0.2,0-0.3-0.1-0.3-0.2c0-0.7,0-1.8,0.1-3.2c0.1-1.4,0.1-2.5,0.1-3.2c0-0.7,0-1.9-0.1-3.4
					c-0.1-1.5-0.1-2.6-0.1-3.4c0-0.1,0.1-0.2,0.3-0.2c0.5,0,1.2-0.1,2.3-0.1c2,0,3.3,0,3.9,0.1c1.5,0.2,2.8,0.5,3.6,1.2
					c0.8,0.6,1.5,1.4,2,2.5C74.9,31.1,75.1,32.1,75.1,33.1L75.1,33.1z M71.4,33.1c0-1.1-0.3-2-1-2.7c-0.7-0.7-1.5-1.1-2.6-1.1
					c-1,0-1.5,0.1-1.5,0.4c0,0.4,0,1,0,1.7c0,0.8,0,1.3,0,1.7c0,0.4,0,0.9,0,1.7c0,0.8,0,1.3,0,1.7c0,0.3,0.5,0.4,1.6,0.4
					c1.1,0,2-0.4,2.7-1.1C71.1,35.2,71.4,34.3,71.4,33.1L71.4,33.1z"/>
				<path class="st4" d="M86.1,37c0,0.3-0.1,0.8-0.2,1.5c-0.1,0.8-0.2,1.3-0.3,1.5c-0.1,0.1-0.2,0.2-0.3,0.2c-0.1,0-0.2,0-0.3,0
					c-0.5-0.1-1.9-0.1-4.2-0.1c-0.5,0-1.3,0-2.2,0c-1,0-1.7,0-2.2,0c-0.2,0-0.3-0.1-0.3-0.3c0-0.7,0-1.8,0.1-3.3
					c0.1-1.5,0.1-2.6,0.1-3.3c0-0.7,0-2.1-0.1-4.1c0-0.5-0.1-1.3-0.1-2.3l0-0.1c0-0.1,0.1-0.2,0.2-0.2c0.5,0,1.2,0,2.2,0
					c1,0,1.7,0,2.2,0c0.5,0,1.2,0,2.2,0c1,0,1.7,0,2.2,0c0.3,0,0.5,0.1,0.6,0.4c0,0.1,0.1,0.6,0.1,1.4c0.1,0.8,0.1,1.2,0.1,1.4
					c0,0.1-0.1,0.2-0.2,0.2c0,0-0.1,0-0.2,0c-1.7-0.1-3.3-0.2-4.7-0.2c-0.3,0-0.6,0.1-0.6,0.2c0,0.1,0,0.3,0,0.7
					c0,0.4,0.1,0.7,0.2,0.9c0.1,0.1,0.3,0.2,0.6,0.2c0.1,0,0.2,0,0.4,0c0.2,0,0.3,0,0.5,0c0.8,0,1.7,0,2.5-0.1c0.1,0,0.2,0,0.5,0
					c0.2,0,0.4,0,0.5,0c0.2,0,0.2,0.1,0.2,0.2c0-0.1-0.1,0.4-0.2,1.5c-0.1,0.5-0.1,1-0.1,1.6c0,0.1-0.1,0.2-0.3,0.2
					c0,0-0.3,0-0.9-0.1c-0.4,0-1.2-0.1-2.5-0.1h-1c-0.3,0-0.4,0.1-0.5,0.2c0,0,0,0.2,0,0.6c0,0.5,0,0.8,0.1,1
					c0.1,0.2,0.5,0.4,1.3,0.4c0,0,0.5,0,1.4,0c0.3,0,0.9,0,1.5-0.1c0.7-0.1,1.2-0.1,1.5-0.1C86,36.7,86.1,36.8,86.1,37L86.1,37z"/>
				<path class="st19" d="M123.1,37.2c0,0.3-0.1,0.8-0.2,1.5c-0.1,0.8-0.2,1.2-0.3,1.4c-0.1,0.1-0.2,0.2-0.3,0.2c-0.1,0-0.2,0-0.3,0
					c-0.5-0.1-1.8-0.1-4-0.1c-0.5,0-1.2,0-2.2,0c-1,0-1.7,0-2.2,0c-0.2,0-0.3-0.1-0.3-0.3c0-0.7,0-1.8,0.1-3.2
					c0.1-1.4,0.1-2.5,0.1-3.2c0-0.7,0-2-0.1-4c0-0.5-0.1-1.2-0.1-2.2l0-0.1c0-0.1,0.1-0.2,0.2-0.2c0.5,0,1.2,0,2.1,0
					c0.9,0,1.6,0,2.1,0c0.5,0,1.2,0,2.1,0c0.9,0,1.6,0,2.1,0c0.3,0,0.5,0.1,0.6,0.4c0,0.1,0.1,0.6,0.1,1.3c0.1,0.7,0.1,1.2,0.1,1.3
					c0,0.1-0.1,0.2-0.2,0.2c0,0-0.1,0-0.2,0c-1.7-0.1-3.2-0.2-4.5-0.2c-0.3,0-0.5,0.1-0.6,0.2c0,0.1,0,0.3,0,0.7
					c0,0.4,0.1,0.7,0.2,0.8c0.1,0.1,0.3,0.2,0.6,0.2c0.1,0,0.2,0,0.4,0c0.2,0,0.3,0,0.5,0c0.8,0,1.6,0,2.4-0.1c0.1,0,0.2,0,0.5,0
					c0.2,0,0.4,0,0.5,0c0.2,0,0.2,0.1,0.2,0.2c0-0.1-0.1,0.3-0.2,1.4c0,0.5-0.1,1-0.1,1.5c0,0.1-0.1,0.2-0.3,0.2c0,0-0.3,0-0.9-0.1
					c-0.4,0-1.2-0.1-2.5-0.1h-1c-0.3,0-0.4,0.1-0.5,0.2c0,0,0,0.2,0,0.6c0,0.5,0,0.8,0.1,0.9c0.1,0.2,0.5,0.4,1.2,0.4
					c0,0,0.4,0,1.4,0c0.3,0,0.8,0,1.5-0.1c0.7-0.1,1.2-0.1,1.5-0.1C123,36.9,123.1,37,123.1,37.2L123.1,37.2z"/>
				<path class="st19" d="M133.5,30.1c0,0.1-0.1,0.1-0.2,0.1c-0.5,0-1.2,0-2.2-0.1c-1-0.1-1.7-0.1-2.2-0.1c-0.6,0-1,0-1.1,0.1
					c-0.2,0.1-0.3,0.4-0.3,0.9c0,0.6,0.2,0.9,0.5,1c0.1,0,0.3,0,0.6,0c0.4,0,1.1,0,2-0.1c0.9,0,1.5-0.1,2-0.1c0.2,0,0.3,0.5,0.3,1.7
					c0,1,0,1.5-0.1,1.7c0,0.1-0.1,0.2-0.3,0.2c0.1,0-0.1,0-0.6-0.1c-0.7-0.1-1.7-0.1-3.1-0.1c-0.4,0-0.7,0-0.8,0
					c-0.3,0-0.5,0.2-0.5,0.4c0,0.9,0,1.9,0.1,3.1c0.1,1,0.1,1.5,0.1,1.4c0,0.2-0.2,0.3-0.6,0.3c0.1,0-0.2,0-0.8,0
					c-1.2,0-1.9,0-2.3-0.1c-0.2,0-0.3-0.1-0.3-0.3c0-0.7,0-1.7,0.1-3.1c0-1.4,0.1-2.4,0.1-3.1c0-0.8,0-1.9-0.1-3.1
					c-0.1-1.9-0.2-3-0.2-3.1l0-0.1c0-0.2,0.1-0.2,0.3-0.2c0.5,0,1.2,0,2.1,0c0.9,0,1.7,0,2.1,0c0.5,0,1.3,0,2.3-0.1s1.8-0.1,2.3-0.1
					c0.3,0,0.5,0.1,0.5,0.4c0,0.3,0,0.7,0,1.2c0,0.1,0,0.4,0.1,0.8C133.5,29.6,133.5,29.9,133.5,30.1L133.5,30.1z"/>
				<g>
					<path class="st19" d="M87,30.4c-0.6,1.9-0.4,3.8,0.4,5.7c0.9,2,2.2,3.4,3.9,4.1c1.8,0.8,3.6,0.7,5.6-0.2
						c1.9-0.9,3.1-2.3,3.6-4.1c0-0.1,0-0.2,0-0.2c-0.1-0.1-0.4-0.3-1.1-0.8c-0.8-0.5-1.1-0.7-1.3-0.8c0,0.1-0.1,0.2-0.2,0.4
						c-0.2,0.5-0.5,0.9-0.8,1.2c-0.4,0.5-0.9,0.9-1.6,1.2c-1,0.5-2.1,0.5-3.1-0.1c-0.9-0.5-1.6-1.3-2.1-2.3
						c-0.5-1.1-0.6-2.1-0.3-3.1c0.3-1.1,0.9-1.9,2-2.4c0.6-0.3,1.3-0.4,1.9-0.4c0.5,0,0.9,0.1,1.4,0.3c0.2,0.1,0.3,0.1,0.4,0.1
						c0-0.1,0.1-0.5,0.2-1.6c0.1-1.1,0.1-1.5,0.1-1.5c0,0-0.1-0.1-0.2-0.1c-0.7-0.3-1.5-0.5-2.3-0.5c-1,0-2.1,0.3-3.2,0.8
						C88.7,27.1,87.5,28.5,87,30.4z"/>
				</g>
				<g>
					<path class="st19" d="M112.1,36.8c-0.1-1.4-0.1-2.4-0.1-3.1c0-0.7,0-1.8,0.1-3.3c0.1-1.5,0.1-2.5,0.1-3.3
						c0-0.1-0.1-0.2-0.3-0.2c-0.2,0-0.5,0-0.8,0c-0.4,0-0.7,0-0.8,0c-0.2,0-0.5,0-0.8,0c-0.4,0-0.7,0-0.8,0c-0.2,0-0.2,0.1-0.2,0.3
						c0,0.5,0,1.1,0.1,2.1c0,0.9,0.1,1.6,0.1,2c0,0.2-0.1,0.3-0.2,0.4c-0.2,0-1,0.1-2.4,0.1c-1.5,0-2.3,0-2.4-0.1
						c-0.1,0-0.2-0.2-0.2-0.4c0-0.5,0-1.2,0.1-2.1c0.1-0.9,0.1-1.6,0.1-2.1c0-0.1-0.1-0.2-0.2-0.2c-0.2,0-0.5,0-0.9,0
						c-0.4,0-0.7,0-0.9,0c-0.2,0-0.5,0-0.9,0c-0.4,0-0.7,0-0.9,0c-0.1,0-0.2,0.1-0.2,0.2c0,0.7,0,1.8,0.1,3.3
						c0.1,1.5,0.1,2.5,0.1,3.3c0,0.1,0,0.3,0,0.5c0,0,0.1,0.1,0.1,0.1c1.3,0.8,1.3,0.9,1.4,1c0.1,0.2,0.1,0.4,0,0.7
						c-0.3,1.2-0.9,2.2-1.7,3c0,0.3,0,0.5,0,0.7c0,0.2,0.1,0.3,0.3,0.3c0.2,0,0.8,0.1,1.6,0.1c1,0,1.6,0,1.8-0.1
						c0.2,0,0.3-0.1,0.3-0.3c0-0.5,0-1.2,0-2.2c0-1,0-1.7,0-2.2c0-0.2,0.1-0.4,0.2-0.4c0.2,0,1-0.1,2.3-0.1c1.3,0,2.1,0,2.3,0.1
						c0.1,0,0.2,0.2,0.2,0.4c0,0.5,0,1.2-0.1,2.2c0,1-0.1,1.7-0.1,2.2c0,0.1,0.1,0.2,0.3,0.3c0.2,0,0.8,0.1,1.8,0.1
						c0.7,0,1.2,0,1.6-0.1c0.2,0,0.2,0,0.3,0c0.1,0,0.1-0.1,0.1-0.2C112.2,39.2,112.2,38.2,112.1,36.8z"/>
				</g>
			</g>
		</g>
	</g>
</g>
</svg>
