<svg viewBox="0 0 24 24" xmlns="http://www.w3.org/2000/svg"><path fill="#7c7f86" d="M4.5 20.3h-.4c-1.9 0-3.5-1.6-3.5-3.5V9.4c0-.3.2-.5.5-.5h6.4c.2 0 .5.2.5.5v7.4c0 2-1.6 3.5-3.5 3.5zM1.6 9.9v6.9c0 1.4 1.1 2.5 2.5 2.5h.4c1.4 0 2.5-1.1 2.5-2.5V9.9H1.6z"></path><path fill="#7c7f86" d="M19.9 20.3H4.5c-.3 0-.5-.2-.5-.5s.2-.5.5-.5c1.4 0 2.5-1.1 2.5-2.5V5.9 4.2c0-.3.2-.5.5-.5h15.4c.3 0 .5.2.5.5v12.6c0 2-1.6 3.5-3.5 3.5zm-13-1h13c1.4 0 2.5-1.1 2.5-2.5V4.7H8V6c0-.1 0 0 0 0v10.8c0 1-.4 1.9-1.1 2.5z"></path><g><path fill="#7c7f86" d="M10.7 14.5h9.5v1h-9.5zM10.7 11h9.5v1h-9.5zM10.7 7.4h9.5v1h-9.5z"></path></g></svg>