<svg class="w-auto h-full fill-current" viewBox="0 0 512 512" xmlns="http://www.w3.org/2000/svg"><path fill="#A0A0A0" d="M504 88v112a16 16 0 01-32 0V88a16.018 16.018 0 00-16-16H56a16.018 16.018 0 00-16 16v48h400a16 16 0 010 32H40v32a16 16 0 01-32 0V88a48.055 48.055 0 0148-48h400a48.055 48.055 0 0148 48zm-16 290a16 16 0 00-16 16v30a16.018 16.018 0 01-16 16H56a16.018 16.018 0 01-16-16v-30a16 16 0 00-32 0v30a48.055 48.055 0 0048 48h400a48.055 48.055 0 0048-48v-30a16 16 0 00-16-16zM45 236.155a16 16 0 00-16 16v89.69a16 16 0 0032 0V313h14v28.845a16 16 0 0032 0v-89.69a16 16 0 10-32 0V281H61v-28.845a16 16 0 00-16-16zM162 358a16 16 0 0016-16v-74h8a16 16 0 000-32h-48a16 16 0 000 32h8v74a16 16 0 0016 16zm164.311-.155a16 16 0 01-16-16v-89.69a16 16 0 0116-16h18.2a44.727 44.727 0 0144.676 44.677c0 25.158-18.852 45.358-46.878 45.358v15.655a16 16 0 01-15.998 16zm18.2-89.69h-2.2v26.035h2.2c6.482 0 12.676-4.948 12.676-13.358a12.691 12.691 0 00-12.674-12.677zm100.189 57.69H421a16 16 0 000 32h23.7A38.338 38.338 0 00483 319.3c0-19.727-15.3-38.3-39.7-38.3a6.424 6.424 0 010-12.845H467a16 16 0 100-32h-23.7A38.338 38.338 0 00405 274.7c0 19.727 15.3 38.3 39.7 38.3a6.424 6.424 0 010 12.845zM256 358a16 16 0 0016-16v-74h8a16 16 0 000-32h-48a16 16 0 000 32h8v74a16 16 0 0016 16zM68.87 88.31a16 16 0 004.7 31.61c22.038-2.12 17.176-35.811-4.7-31.61zm45.01.92c-13.012 5.42-13.239 24.018 0 29.54a15.967 15.967 0 0019.42-5.89c8.852-13.122-4.982-29.665-19.42-23.65zm40.82 5.89a16.019 16.019 0 004.42 22.18c11.561 7.8 27.311-2.192 24.57-16.43a16.007 16.007 0 00-28.99-5.75z"></path></svg>