<svg viewBox="0 0 100 100" xmlns="http://www.w3.org/2000/svg"><path fill="#7c7f86" d="M50 23.61c-14.55 0-26.388 11.839-26.388 26.388 0 14.55 11.839 26.388 26.388 26.388 14.55 0 26.388-11.838 26.388-26.388 0-14.55-11.839-26.388-26.388-26.388zm0 45.369c-10.466 0-18.98-8.515-18.98-18.98 0-10.463 8.514-18.982 18.98-18.982 10.466 0 18.98 8.519 18.98 18.981 0 10.466-8.514 18.98-18.98 18.98zM50 18.209a3.705 3.705 0 003.704-3.704V3.704a3.704 3.704 0 00-7.407 0v10.801A3.703 3.703 0 0050 18.209zM50 81.786a3.704 3.704 0 00-3.704 3.703v10.804a3.704 3.704 0 007.408 0V85.489A3.706 3.706 0 0050 81.786zM96.296 46.295H85.495a3.704 3.704 0 000 7.407h10.801a3.704 3.704 0 000-7.407zM18.21 49.998a3.702 3.702 0 00-3.703-3.703H3.704a3.704 3.704 0 000 7.407h10.803a3.704 3.704 0 003.703-3.704zM77.716 27.52l7.636-7.64a3.704 3.704 0 000-5.236 3.701 3.701 0 00-5.236 0l-7.637 7.637a3.703 3.703 0 105.237 5.238zM22.282 72.477l-7.638 7.639a3.703 3.703 0 105.237 5.236l7.638-7.635a3.709 3.709 0 000-5.24 3.703 3.703 0 00-5.236 0zM77.718 72.48a3.705 3.705 0 00-5.24 0 3.706 3.706 0 000 5.237l7.64 7.635a3.703 3.703 0 105.236-5.236l-7.636-7.635zM22.282 27.52a3.704 3.704 0 005.237-5.24l-7.638-7.638a3.705 3.705 0 00-5.237 0 3.706 3.706 0 000 5.237l7.638 7.64z"></path></svg>