<svg viewBox="0 0 512 512" xmlns="http://www.w3.org/2000/svg" fill="#A0A0A0"><path d="M444.396 114.479H67.603c-18.328 0-33.206 14.879-33.206 33.135v216.703c0 18.327 14.878 33.205 33.206 33.205h376.865c18.326 0 33.206-14.878 33.135-33.133V147.613c0-18.256-14.879-33.134-33.207-33.134zM266.898 331.182h-44.203v-86.25l-44.203 55.272-44.202-55.272v86.25H89.943V180.819h44.204l44.203 55.272 44.203-55.272h44.202v150.362h.143zm97.247 2.228l-66.34-77.409h44.203v-75.182h44.203v75.182h44.203l-66.269 77.409z"></path></svg>