<svg class="w-auto h-full fill-current" viewBox="0 0 200 200" xmlns="http://www.w3.org/2000/svg"><g fill="fill-current"><path fill="#A0A0A0" d="M175.53 69.774l-68.8-34.133c-3.26-1.617-8.534-1.623-11.797-.012L25.741 69.78c-3.598 1.775-6.311 6.14-6.311 10.153v77.2c0 4.632 3.768 8.4 8.4 8.4h145.6c4.632 0 8.4-3.768 8.4-8.4v-77.2c0-4.01-2.709-8.376-6.3-10.159zm-96.947 48.762L26.63 155.007V80.336l51.953 38.2zm65.134-24.044l-39.82 29.764c-1.371 1.024-3.973 1.036-5.351.021l-41.004-30.15V70.933h86.174v23.559zm-59.013 28.545l9.577 7.042c1.945 1.43 4.432 2.144 6.921 2.144 2.523 0 5.047-.734 7.006-2.199l8.863-6.625 49.764 34.934H34.424l50.28-35.296zm38.436-4.175l51.49-38.488v74.633l-51.49-36.145zM98.119 42.085c.637-.314 1.645-.502 2.698-.502 1.058 0 2.073.189 2.713.507l66.292 32.889-18.905 14.131V69.732c0-3.308-2.692-6-6-6H56.342c-3.308 0-6 2.692-6 6v19.102L31.488 74.972l66.631-32.887z"></path><path fill="#7c7f86" d="M71.852 78.289h57.556v7.2H71.852zM71.852 92.845h57.556v7.2H71.852z"></path></g></svg>